<svg width="32" height="40" viewBox="0 0 32 40" fill="none" xmlns="http://www.w3.org/2000/svg">
<path d="M23.7039 2.38017V0H8.29636V2.38017H0V39.2727H32V2.38017H23.7039ZM29.6299 35.7025H2.37039V5.95041H8.29636V8.33058H23.7039V5.95041H29.6299V35.7025Z" fill="#292929"/>
<path d="M24.889 26.1818H7.11108V28.5619H24.889V26.1818Z" fill="#292929"/>
<path d="M24.889 30.9421H7.11108V33.3223H24.889V30.9421Z" fill="#292929"/>
<path d="M17.2147 12.2956V15.0743H20.8612C21.858 15.0743 22.6292 15.937 22.5055 16.9137L21.7546 22.846C21.6855 23.3919 21.2155 23.8016 20.6584 23.8016H10.5862C9.97606 23.8016 9.48145 23.3132 9.48145 22.7107V18.3471C9.48145 17.7446 9.97606 17.2561 10.5862 17.2561H12.2433L14.087 11.7944C14.3054 11.1472 14.9188 10.7107 15.6096 10.7107C16.4961 10.7107 17.2147 11.4203 17.2147 12.2956ZM13.3481 17.4332V22.7107H20.6584L21.4093 16.7783C21.4505 16.4528 21.1935 16.1652 20.8612 16.1652H17.2147C16.6045 16.1652 16.1099 15.6768 16.1099 15.0743V12.2956C16.1099 12.0228 15.8859 11.8016 15.6096 11.8016C15.3943 11.8016 15.2031 11.9377 15.135 12.1394L13.3481 17.4332ZM12.2433 18.3471H10.5862L10.5862 22.7107H12.2433V18.3471Z" fill="#2C8824"/>
</svg>
