<svg width="32" height="32" viewBox="0 0 32 32" fill="none" xmlns="http://www.w3.org/2000/svg">
<path d="M11.2245 3.83561C7.81142 5.074 5.01668 7.60194 3.42916 10.8306C2.59728 8.78851 2.97479 6.33782 4.56167 4.66662C6.36375 2.76881 9.13848 2.4918 11.2245 3.83561ZM27.4383 4.66662C25.6362 2.76881 22.8615 2.4918 20.7755 3.83561C24.1886 5.074 26.9833 7.60194 28.5708 10.8306C29.4027 8.78851 29.0252 6.33782 27.4383 4.66662ZM23.7488 26.1631C21.6582 27.9328 18.9537 29 16 29C13.0463 29 10.3418 27.9328 8.25116 26.1631L6.70711 27.7071C6.31658 28.0976 5.68342 28.0976 5.29289 27.7071C4.90237 27.3166 4.90237 26.6834 5.29289 26.2929L6.83695 24.7488C5.06716 22.6582 4 19.9537 4 17C4 10.3726 9.37258 5 16 5C22.6274 5 28 10.3726 28 17C28 19.9537 26.9328 22.6582 25.1631 24.7488L26.7071 26.2929C27.0976 26.6834 27.0976 27.3166 26.7071 27.7071C26.3166 28.0976 25.6834 28.0976 25.2929 27.7071L23.7488 26.1631ZM16 9C15.4477 9 15 9.44772 15 10V16H11C10.4477 16 10 16.4477 10 17C10 17.5523 10.4477 18 11 18H15.5C16.3284 18 17 17.3284 17 16.5V10C17 9.44772 16.5523 9 16 9Z" fill="black"/>
</svg>
