<svg width="32" height="32" viewBox="0 0 32 32" fill="none" xmlns="http://www.w3.org/2000/svg">
<path d="M10.7751 6.04378L10.8732 6.14717C8.72069 7.1658 6.91972 8.80597 5.702 10.836C4.67209 9.40695 4.77542 7.34605 6.012 6.04378C7.3335 4.65207 9.45357 4.65207 10.7751 6.04378ZM4.65788 12.6886C4.69069 12.7231 4.72539 12.7548 4.76165 12.7837C4.26929 14.0954 4 15.5163 4 17C4 19.9537 5.06716 22.6582 6.83695 24.7488L5.29289 26.2929C4.90237 26.6834 4.90237 27.3166 5.29289 27.7071C5.68342 28.0976 6.31658 28.0976 6.70711 27.7071L8.25116 26.1631C10.3418 27.9328 13.0463 29 16 29C18.9537 29 21.6582 27.9328 23.7488 26.1631L25.2929 27.7071C25.6834 28.0976 26.3166 28.0976 26.7071 27.7071C27.0976 27.3166 27.0976 26.6834 26.7071 26.2929L25.1631 24.7488C26.9328 22.6582 28 19.9537 28 17C28 15.5163 27.7307 14.0954 27.2384 12.7837C27.2746 12.7548 27.3093 12.7231 27.3421 12.6886L27.4383 12.5873C29.5206 10.3944 29.5206 6.85947 27.4383 4.66662C25.3283 2.44446 21.8847 2.44446 19.7746 4.66662L19.2748 5.19295C19.2118 5.25936 19.1596 5.33217 19.1183 5.40915C18.124 5.1423 17.0786 5 16 5C14.9214 5 13.8761 5.1423 12.8817 5.40915C12.8404 5.33217 12.7882 5.25936 12.7252 5.19295L12.2254 4.66662C10.1153 2.44446 6.67174 2.44446 4.56167 4.66662C2.47944 6.85947 2.47944 10.3944 4.56167 12.5873L4.65788 12.6886ZM21.1268 6.14717L21.2249 6.04378C22.5464 4.65207 24.6665 4.65207 25.988 6.04378C27.2246 7.34605 27.3279 9.40694 26.298 10.836C25.0803 8.80597 23.2793 7.1658 21.1268 6.14717ZM26 17C26 22.5228 21.5228 27 16 27C10.4772 27 6 22.5228 6 17C6 11.4772 10.4772 7 16 7C21.5228 7 26 11.4772 26 17ZM17 10C17 9.44772 16.5523 9 16 9C15.4477 9 15 9.44772 15 10V16H11C10.4477 16 10 16.4477 10 17C10 17.5523 10.4477 18 11 18H15.5C16.3284 18 17 17.3284 17 16.5V10Z" fill="black"/>
</svg>
