<svg width="32" height="32" viewBox="0 0 32 32" fill="none" xmlns="http://www.w3.org/2000/svg">
<path d="M15 5C15 4.44772 15.4477 4 16 4C16.5523 4 17 4.44772 17 5V10H25C25.5523 10 26 10.4477 26 11V13C26 13.5523 25.5523 14 25 14H17V18H21C21.5523 18 22 18.4477 22 19V21C22 21.5523 21.5523 22 21 22H17V27C17 27.5523 16.5523 28 16 28C15.4477 28 15 27.5523 15 27V22H11C10.4477 22 10 21.5523 10 21V19C10 18.4477 10.4477 18 11 18H15V14H7C6.44772 14 6 13.5523 6 13V11C6 10.4477 6.44772 10 7 10H15V5Z" fill="black"/>
</svg>
