<svg width="32" height="32" viewBox="0 0 32 32" fill="none" xmlns="http://www.w3.org/2000/svg">
<path d="M26 5C26 4.44772 26.4477 4 27 4C27.5523 4 28 4.44772 28 5V27C28 27.5523 27.5523 28 27 28C26.4477 28 26 27.5523 26 27V5ZM5 11C5 10.4477 5.44772 10 6 10H22C22.5523 10 23 10.4477 23 11V13C23 13.5523 22.5523 14 22 14H6C5.44772 14 5 13.5523 5 13V11ZM14 18C13.4477 18 13 18.4477 13 19V21C13 21.5523 13.4477 22 14 22H22C22.5523 22 23 21.5523 23 21V19C23 18.4477 22.5523 18 22 18H14Z" fill="black"/>
</svg>
