<svg width="32" height="32" viewBox="0 0 32 32" fill="none" xmlns="http://www.w3.org/2000/svg">
<path d="M13 5C13.5523 5 14 5.44772 14 6L14 22C14 22.5523 13.5523 23 13 23H11C10.4477 23 10 22.5523 10 22L10 6C10 5.44772 10.4477 5 11 5H13ZM27 26C27.5523 26 28 26.4477 28 27C28 27.5523 27.5523 28 27 28L5 28C4.44772 28 4 27.5523 4 27C4 26.4477 4.44772 26 5 26L27 26ZM22 14C22 13.4477 21.5523 13 21 13H19C18.4477 13 18 13.4477 18 14V22C18 22.5523 18.4477 23 19 23H21C21.5523 23 22 22.5523 22 22V14Z" fill="black"/>
</svg>
