<svg width="32" height="32" viewBox="0 0 32 32" fill="none" xmlns="http://www.w3.org/2000/svg">
<path d="M11 26C10.4477 26 10 25.5523 10 25V17H5C4.44772 17 4 16.5523 4 16C4 15.4477 4.44772 15 5 15H10V7C10 6.44772 10.4477 6 11 6H13C13.5523 6 14 6.44772 14 7V15H18V11C18 10.4477 18.4477 10 19 10H21C21.5523 10 22 10.4477 22 11V15H27C27.5523 15 28 15.4477 28 16C28 16.5523 27.5523 17 27 17H22V21C22 21.5523 21.5523 22 21 22H19C18.4477 22 18 21.5523 18 21V17H14V25C14 25.5523 13.5523 26 13 26H11Z" fill="black"/>
</svg>
