<svg width="32" height="32" viewBox="0 0 32 32" fill="none" xmlns="http://www.w3.org/2000/svg">
<path d="M27 4C27.5523 4 28 4.44772 28 5C28 5.55229 27.5523 6 27 6L5 6C4.44772 6 4 5.55228 4 5C4 4.44772 4.44772 4 5 4L27 4ZM13 9C13.5523 9 14 9.44772 14 10L14 26C14 26.5523 13.5523 27 13 27H11C10.4477 27 10 26.5523 10 26L10 10C10 9.44772 10.4477 9 11 9H13ZM22 10C22 9.44772 21.5523 9 21 9H19C18.4477 9 18 9.44772 18 10V18C18 18.5523 18.4477 19 19 19H21C21.5523 19 22 18.5523 22 18V10Z" fill="black"/>
</svg>
