<svg width="32" height="32" viewBox="0 0 32 32" fill="none" xmlns="http://www.w3.org/2000/svg">
<path d="M15.3677 27.9836L17.8986 22.5H5.91116C7.94058 25.6434 11.3991 27.7776 15.3677 27.9836ZM17.6125 27.8926C20.4179 27.5158 22.9162 26.1697 24.7592 24.2022L22.0361 18.3371L20.1439 22.5H20.1014L17.6125 27.8926ZM26.1382 22.4229C27.3172 20.5658 28 18.3626 28 16C28 14.4086 27.6902 12.8896 27.1277 11.5H21.0668L26.1382 22.4229ZM26.0888 9.5C24.2165 6.5999 21.1278 4.55884 17.5443 4.09845L14.6358 9.5H26.0888ZM4.87228 20.5H11.3155L8.86259 16.0031L8.88347 15.9643L5.63996 9.94062C4.59757 11.719 4 13.7897 4 16C4 17.5914 4.30976 19.1104 4.87228 20.5ZM6.9382 8.1331L10.0192 13.855L15.3154 4.0192C11.9744 4.2071 8.9986 5.76178 6.9382 8.1331ZM30 16C30 23.732 23.732 30 16 30C8.26801 30 2 23.732 2 16C2 8.26801 8.26801 2 16 2C23.732 2 30 8.26801 30 16ZM13.5973 20.5H18.8217L20.9001 15.9968L18.8561 11.5H13.5936L11.1568 15.9676L13.5973 20.5Z" fill="black"/>
</svg>
