<svg width="32" height="32" viewBox="0 0 32 32" fill="none" xmlns="http://www.w3.org/2000/svg">
<path d="M3.92563 8.90972L10.5605 21H2.91926C2.32536 19.4472 2 17.7616 2 16C2 13.4126 2.70188 10.9892 3.92563 8.90972ZM5.20535 7.08449L8.96641 13.938L15.3248 2.01599C11.2545 2.20927 7.63943 4.14071 5.20535 7.08449ZM17.5545 2.08532L13.8667 8.99999H28.127C25.9518 5.23968 22.0779 2.58501 17.5545 2.08532ZM29.0807 11H20.8404L27.0058 24.6538C28.8812 22.272 30 19.2667 30 16C30 14.2384 29.6746 12.5528 29.0807 11ZM25.5333 26.2527L22.0006 18.4292L19.9374 23H19.936L16.7844 29.9784C20.1577 29.7921 23.2125 28.4116 25.5333 26.2527ZM14.6109 29.9319L17.7415 23H3.87295C6.07464 26.8061 10.0167 29.4794 14.6109 29.9319ZM18.6447 21H12.8456L10.1373 16L12.8456 11H18.6459L20.9028 15.9999L18.6447 21Z" fill="black"/>
</svg>
