<svg width="32" height="32" viewBox="0 0 32 32" fill="none" xmlns="http://www.w3.org/2000/svg">
<path d="M28 16C28 9.37258 22.6274 4 16 4C9.37258 4 4 9.37258 4 16C4 22.6274 9.37258 28 16 28C22.6274 28 28 22.6274 28 16ZM30 16C30 23.732 23.732 30 16 30C8.26801 30 2 23.732 2 16C2 8.26801 8.26801 2 16 2C23.732 2 30 8.26801 30 16ZM16.7071 22.7071C16.5196 22.8946 16.2652 23 16 23C15.7348 23 15.4804 22.8946 15.2929 22.7071L11.2929 18.7071C10.9024 18.3166 10.9024 17.6834 11.2929 17.2929C11.6834 16.9024 12.3166 16.9024 12.7071 17.2929L15 19.5858V10C15 9.44771 15.4477 9 16 9C16.5523 9 17 9.44771 17 10V19.5858L19.2929 17.2929C19.6834 16.9024 20.3166 16.9024 20.7071 17.2929C21.0976 17.6834 21.0976 18.3166 20.7071 18.7071L16.7071 22.7071Z" fill="black"/>
</svg>
