<svg width="32" height="32" viewBox="0 0 32 32" fill="none" xmlns="http://www.w3.org/2000/svg">
<path d="M16.654 25.9785C14.3454 26.1298 12.0557 25.476 10.1752 24.1284C8.2946 22.7808 6.93948 20.8228 6.34069 18.5881C6.19774 18.0547 5.64941 17.7381 5.11594 17.881C4.58248 18.024 4.26589 18.5723 4.40883 19.1058C5.12738 21.7874 6.75354 24.137 9.01021 25.7541C11.2669 27.3712 14.0145 28.1558 16.7848 27.9742C19.5551 27.7927 22.1768 26.6561 24.2031 24.7583C26.2293 22.8605 27.5349 20.3188 27.8973 17.5663C28.2597 14.8137 27.6564 12.0207 26.1904 9.66313C24.7243 7.30552 22.4861 5.52918 19.8572 4.63678C17.2283 3.74438 14.3713 3.79113 11.7729 4.76907C10.1626 5.37515 8.71343 6.31565 7.51372 7.51559L5.45579 5.45765C5.14081 5.14267 4.60224 5.36575 4.60224 5.81121V11.3396C4.60224 11.6157 4.8261 11.8396 5.10224 11.8396H10.6306C11.0761 11.8396 11.2992 11.301 10.9842 10.9861L8.92794 8.9298C9.92773 7.92978 11.1354 7.14597 12.4774 6.64088C14.6427 5.82593 17.0236 5.78697 19.2143 6.53064C21.4051 7.27431 23.2703 8.75459 24.492 10.7193C25.7137 12.6839 26.2164 15.0114 25.9144 17.3052C25.6124 19.599 24.5244 21.7171 22.8359 23.2986C21.1473 24.8801 18.9626 25.8272 16.654 25.9785Z" fill="black"/>
</svg>
