<svg width="32" height="32" viewBox="0 0 32 32" fill="none" xmlns="http://www.w3.org/2000/svg">
<path d="M4.29289 10.2929C4.10536 10.4804 4 10.7348 4 11C4 11.2652 4.10536 11.5196 4.29289 11.7071L10.2929 17.7071C10.6834 18.0976 11.3166 18.0976 11.7071 17.7071C12.0976 17.3166 12.0976 16.6834 11.7071 16.2929L7.41421 12H20C23.3137 12 26 14.6863 26 18C26 21.3137 23.3137 24 20 24H13C12.4477 24 12 24.4477 12 25C12 25.5523 12.4477 26 13 26H20C24.4183 26 28 22.4183 28 18C28 13.5817 24.4183 10 20 10H7.41422L11.7071 5.70711C12.0976 5.31658 12.0976 4.68342 11.7071 4.29289C11.3166 3.90237 10.6834 3.90237 10.2929 4.29289L4.29289 10.2929Z" fill="black"/>
</svg>
