<svg width="32" height="32" viewBox="0 0 32 32" fill="none" xmlns="http://www.w3.org/2000/svg">
<path d="M4 16.0001C4 16.2653 4.10536 16.5196 4.29289 16.7072L15.2959 27.7102C15.6864 28.1007 16.3196 28.1007 16.7101 27.7102C17.1006 27.3196 17.1006 26.6865 16.7101 26.2959L7.41421 17.0001L27 17.0001C27.5523 17.0001 28 16.5523 28 16.0001C28 15.4478 27.5523 15.0001 27 15.0001L7.41422 15.0001L16.7101 5.70418C17.1006 5.31365 17.1006 4.68049 16.7101 4.28996C16.3196 3.89944 15.6864 3.89944 15.2959 4.28996L4.29289 15.2929C4.10536 15.4805 4 15.7348 4 16.0001Z" fill="black"/>
</svg>
