<svg width="32" height="32" viewBox="0 0 32 32" fill="none" xmlns="http://www.w3.org/2000/svg">
<path d="M28 16C28 9.37258 22.6274 4 16 4C9.37258 4 4 9.37258 4 16C4 22.6274 9.37258 28 16 28C22.6274 28 28 22.6274 28 16ZM30 16C30 23.732 23.732 30 16 30C8.26801 30 2 23.732 2 16C2 8.26801 8.26801 2 16 2C23.732 2 30 8.26801 30 16ZM16.7071 9.29289C16.5196 9.10536 16.2652 9 16 9C15.7348 9 15.4804 9.10536 15.2929 9.29289L11.2929 13.2929C10.9024 13.6834 10.9024 14.3166 11.2929 14.7071C11.6834 15.0976 12.3166 15.0976 12.7071 14.7071L15 12.4142V22C15 22.5523 15.4477 23 16 23C16.5523 23 17 22.5523 17 22V12.4142L19.2929 14.7071C19.6834 15.0976 20.3166 15.0976 20.7071 14.7071C21.0976 14.3166 21.0976 13.6834 20.7071 13.2929L16.7071 9.29289Z" fill="black"/>
</svg>
