<svg width="32" height="32" viewBox="0 0 32 32" fill="none" xmlns="http://www.w3.org/2000/svg">
<path d="M21 4C20.4477 4 20 4.44772 20 5C20 5.55228 20.4477 6 21 6H24.5858L17.2929 13.2929C16.9024 13.6834 16.9024 14.3166 17.2929 14.7071C17.6834 15.0976 18.3166 15.0976 18.7071 14.7071L26 7.41421V11C26 11.5523 26.4477 12 27 12C27.5523 12 28 11.5523 28 11V5C28 4.44772 27.5523 4 27 4H21ZM11 28C11.5523 28 12 27.5523 12 27C12 26.4477 11.5523 26 11 26H7.41421L14.7071 18.7071C15.0976 18.3166 15.0976 17.6834 14.7071 17.2929C14.3166 16.9024 13.6834 16.9024 13.2929 17.2929L6 24.5858V21C6 20.4477 5.55229 20 5 20C4.44771 20 4 20.4477 4 21V27C4 27.5523 4.44771 28 5 28H11Z" fill="black"/>
</svg>
