<svg width="32" height="32" viewBox="0 0 32 32" fill="none" xmlns="http://www.w3.org/2000/svg">
<path d="M15.342 6.03607C17.6506 5.88476 19.9402 6.5386 21.8208 7.88619C23.7014 9.23379 25.0565 11.1917 25.6553 13.4265C25.7982 13.9599 26.3466 14.2765 26.88 14.1336C27.4135 13.9906 27.7301 13.4423 27.5871 12.9088C26.8686 10.2272 25.2424 7.87761 22.9857 6.2605C20.7291 4.64339 17.9815 3.85878 15.2112 4.04035C12.4409 4.22193 9.8192 5.35846 7.79291 7.25629C7.70011 7.34321 7.60882 7.43148 7.51906 7.52105L5.45568 5.45767C5.14069 5.14269 4.60212 5.36577 4.60212 5.81122V11.3396C4.60212 11.6158 4.82598 11.8396 5.10212 11.8396H10.6305C11.076 11.8396 11.2991 11.3011 10.9841 10.9861L8.93328 8.93527C9.00763 8.8611 9.08324 8.788 9.16009 8.71602C10.8487 7.13449 13.0334 6.18738 15.342 6.03607ZM27.3954 26.1929C27.3954 26.6383 26.8569 26.8614 26.5419 26.5464L24.4829 24.4875C24.3912 24.5792 24.2979 24.6694 24.2031 24.7583C22.1768 26.6561 19.5551 27.7927 16.7848 27.9743C14.0145 28.1558 11.2669 27.3712 9.01021 25.7541C6.75354 24.137 5.12738 21.7874 4.40883 19.1058C4.26589 18.5723 4.58247 18.024 5.11594 17.881C5.64941 17.7381 6.19774 18.0547 6.34069 18.5881C6.93948 20.8229 8.29461 22.7808 10.1752 24.1284C12.0557 25.476 14.3454 26.1298 16.654 25.9785C18.9626 25.8272 21.1473 24.8801 22.8359 23.2986C22.9148 23.2246 22.9924 23.1495 23.0687 23.0733L21.0135 21.018C20.6985 20.7031 20.9216 20.1645 21.367 20.1645H26.8954C27.1716 20.1645 27.3954 20.3883 27.3954 20.6645V26.1929Z" fill="black"/>
</svg>
