<svg width="32" height="32" viewBox="0 0 32 32" fill="none" xmlns="http://www.w3.org/2000/svg">
<path d="M15.346 25.9785C17.6546 26.1298 19.9442 25.476 21.8248 24.1284C23.7054 22.7808 25.0605 20.8228 25.6593 18.5881C25.8022 18.0547 26.3506 17.7381 26.884 17.881C27.4175 18.024 27.7341 18.5723 27.5911 19.1058C26.8726 21.7874 25.2464 24.137 22.9898 25.7541C20.7331 27.3712 17.9855 28.1558 15.2152 27.9742C12.4449 27.7927 9.82321 26.6561 7.79691 24.7583C5.77062 22.8605 4.46506 20.3188 4.10268 17.5663C3.74031 14.8137 4.34354 12.0207 5.8096 9.66313C7.27565 7.30552 9.51382 5.52918 12.1427 4.63678C14.7717 3.74438 17.6287 3.79113 20.227 4.76907C21.8373 5.37515 23.2865 6.31565 24.4862 7.51559L26.5442 5.45765C26.8592 5.14267 27.3977 5.36575 27.3977 5.81121V11.3396C27.3977 11.6157 27.1739 11.8396 26.8977 11.8396H21.3693C20.9239 11.8396 20.7008 11.301 21.0158 10.9861L23.072 8.9298C22.0722 7.92978 20.8645 7.14597 19.5225 6.64088C17.3573 5.82593 14.9764 5.78697 12.7856 6.53064C10.5949 7.27431 8.72971 8.75459 7.508 10.7193C6.28629 12.6839 5.78359 15.0114 6.08557 17.3052C6.38755 19.599 7.47552 21.7171 9.1641 23.2986C10.8527 24.8801 13.0374 25.8272 15.346 25.9785Z" fill="black"/>
</svg>
