<svg width="32" height="32" viewBox="0 0 32 32" fill="none" xmlns="http://www.w3.org/2000/svg">
<path d="M18.0002 7.41422V10.5C18.0002 11.3427 17.3163 11.9858 16.5226 12.006C12.7547 12.102 9.97165 13.3358 8.08907 15.4359C6.39662 17.3239 5.34397 20.0104 5.04834 23.4563C7.68023 20.6629 11.7236 20.0422 16.491 20.0021C17.326 19.9951 18.0002 20.6717 18.0002 21.5V24.5858L26.586 16L18.0002 7.41422ZM16.0002 6.20711C16.0002 4.87075 17.6159 4.2015 18.5609 5.14645L28.3537 14.9393C28.9395 15.5251 28.9395 16.4749 28.3537 17.0607L18.5609 26.8536C17.6159 27.7985 16.0002 27.1293 16.0002 25.7929V22.0088C11.0345 22.0999 7.77844 22.9282 5.89584 25.5702C5.44643 26.2009 4.70315 26.3149 4.17242 26.1878C3.63236 26.0585 2.94827 25.5697 2.97539 24.6801C3.10876 20.3054 4.29249 16.6749 6.59983 14.1009C8.83439 11.6081 12.0202 10.2207 16.0002 10.0243V6.20711Z" fill="black"/>
</svg>
