<svg width="32" height="32" viewBox="0 0 32 32" fill="none" xmlns="http://www.w3.org/2000/svg">
<path d="M28 16C28 9.37258 22.6274 4 16 4C9.37258 4 4 9.37258 4 16C4 22.6274 9.37258 28 16 28C22.6274 28 28 22.6274 28 16ZM30 16C30 23.732 23.732 30 16 30C8.26801 30 2 23.732 2 16C2 8.26801 8.26801 2 16 2C23.732 2 30 8.26801 30 16ZM22.7071 15.2929C22.8946 15.4804 23 15.7348 23 16C23 16.2652 22.8946 16.5196 22.7071 16.7071L18.7071 20.7071C18.3166 21.0976 17.6834 21.0976 17.2929 20.7071C16.9024 20.3166 16.9024 19.6834 17.2929 19.2929L19.5858 17H10C9.44771 17 9 16.5523 9 16C9 15.4477 9.44771 15 10 15H19.5858L17.2929 12.7071C16.9024 12.3166 16.9024 11.6834 17.2929 11.2929C17.6834 10.9024 18.3166 10.9024 18.7071 11.2929L22.7071 15.2929Z" fill="black"/>
</svg>
