<svg width="32" height="32" viewBox="0 0 32 32" fill="none" xmlns="http://www.w3.org/2000/svg">
<path d="M27.7071 10.2929C27.8946 10.4804 28 10.7348 28 11C28 11.2652 27.8946 11.5196 27.7071 11.7071L21.7071 17.7071C21.3166 18.0976 20.6834 18.0976 20.2929 17.7071C19.9024 17.3166 19.9024 16.6834 20.2929 16.2929L24.5858 12H12C8.68629 12 6 14.6863 6 18C6 21.3137 8.68629 24 12 24H19C19.5523 24 20 24.4477 20 25C20 25.5523 19.5523 26 19 26H12C7.58172 26 4 22.4183 4 18C4 13.5817 7.58172 10 12 10H24.5858L20.2929 5.70711C19.9024 5.31658 19.9024 4.68342 20.2929 4.29289C20.6834 3.90237 21.3166 3.90237 21.7071 4.29289L27.7071 10.2929Z" fill="black"/>
</svg>
