<svg width="32" height="32" viewBox="0 0 32 32" fill="none" xmlns="http://www.w3.org/2000/svg">
<path d="M16 30C23.732 30 30 23.732 30 16C30 8.26801 23.732 2 16 2C8.26801 2 2 8.26801 2 16C2 23.732 8.26801 30 16 30ZM16.7071 9.29289L20.7071 13.2929C21.0976 13.6834 21.0976 14.3166 20.7071 14.7071C20.3166 15.0976 19.6834 15.0976 19.2929 14.7071L17 12.4142V22C17 22.5523 16.5523 23 16 23C15.4477 23 15 22.5523 15 22V12.4142L12.7071 14.7071C12.3166 15.0976 11.6834 15.0976 11.2929 14.7071C10.9024 14.3166 10.9024 13.6834 11.2929 13.2929L15.2929 9.29289C15.4804 9.10536 15.7348 9 16 9C16.2652 9 16.5196 9.10536 16.7071 9.29289Z" fill="black"/>
</svg>
