<svg width="32" height="32" viewBox="0 0 32 32" fill="none" xmlns="http://www.w3.org/2000/svg">
<path d="M16.0001 28C16.2653 28 16.5196 27.8946 16.7072 27.7071L27.7102 16.7041C28.1007 16.3136 28.1007 15.6804 27.7102 15.2899C27.3196 14.8994 26.6865 14.8994 26.2959 15.2899L17.0001 24.5858L17.0001 5C17.0001 4.44772 16.5523 4 16.0001 4C15.4478 4 15.0001 4.44772 15.0001 5L15.0001 24.5858L5.70418 15.2899C5.31365 14.8994 4.68049 14.8994 4.28996 15.2899C3.89944 15.6804 3.89944 16.3136 4.28996 16.7041L15.2929 27.7071C15.4805 27.8946 15.7348 28 16.0001 28Z" fill="black"/>
</svg>
