<svg width="32" height="32" viewBox="0 0 32 32" fill="none" xmlns="http://www.w3.org/2000/svg">
<path d="M24 15C24.5523 15 25 14.5523 25 14C25 13.4477 24.5523 13 24 13H20.4142L27.7071 5.70711C28.0976 5.31658 28.0976 4.68342 27.7071 4.29289C27.3166 3.90237 26.6834 3.90237 26.2929 4.29289L19 11.5858V8C19 7.44772 18.5523 7 18 7C17.4477 7 17 7.44772 17 8V14C17 14.5523 17.4477 15 18 15H24ZM8 17C7.44772 17 7 17.4477 7 18C7 18.5523 7.44772 19 8 19H11.5858L4.29289 26.2929C3.90237 26.6834 3.90237 27.3166 4.29289 27.7071C4.68342 28.0976 5.31658 28.0976 5.70711 27.7071L13 20.4142V24C13 24.5523 13.4477 25 14 25C14.5523 25 15 24.5523 15 24V18C15 17.4477 14.5523 17 14 17H8Z" fill="black"/>
</svg>
