<svg width="32" height="32" viewBox="0 0 32 32" fill="none" xmlns="http://www.w3.org/2000/svg">
<path d="M16.0001 4C15.7349 4 15.4805 4.10536 15.293 4.29289L4.28996 15.2959C3.89944 15.6864 3.89944 16.3196 4.28996 16.7101C4.68049 17.1006 5.31365 17.1006 5.70418 16.7101L15.0001 7.41421V27C15.0001 27.5523 15.4478 28 16.0001 28C16.5524 28 17.0001 27.5523 17.0001 27V7.41422L26.2959 16.7101C26.6865 17.1006 27.3196 17.1006 27.7102 16.7101C28.1007 16.3196 28.1007 15.6864 27.7102 15.2959L16.7072 4.29289C16.5196 4.10536 16.2653 4 16.0001 4Z" fill="black"/>
</svg>
