<svg width="32" height="32" viewBox="0 0 32 32" fill="none" xmlns="http://www.w3.org/2000/svg">
<path d="M28 15.9999C28 15.7347 27.8946 15.4804 27.7071 15.2928L16.7041 4.28984C16.3136 3.89932 15.6804 3.89932 15.2899 4.28984C14.8994 4.68037 14.8994 5.31353 15.2899 5.70406L24.5858 14.9999L5 14.9999C4.44772 14.9999 4 15.4477 4 15.9999C4 16.5522 4.44772 16.9999 5 16.9999L24.5858 16.9999L15.2899 26.2958C14.8994 26.6863 14.8994 27.3195 15.2899 27.71C15.6804 28.1006 16.3136 28.1006 16.7041 27.71L27.7071 16.7071C27.8946 16.5195 28 16.2652 28 15.9999Z" fill="black"/>
</svg>
