<svg width="32" height="32" viewBox="0 0 32 32" fill="none" xmlns="http://www.w3.org/2000/svg">
<path d="M14.5859 6.10038L6.10062 14.5857L17.4143 25.8994L25.8996 17.4141L14.5859 6.10038ZM16.0001 4.68616C19.1243 1.56197 24.1896 1.56197 27.3138 4.68616C30.438 7.81036 30.438 12.8757 27.3138 15.9999L16.0001 4.68616ZM4.68641 15.9999C1.56221 19.1241 1.56221 24.1894 4.68641 27.3136C7.8106 30.4378 12.8759 30.4378 16.0001 27.3136L4.68641 15.9999ZM13.3484 15.1161C13.8366 15.6043 13.8366 16.3957 13.3484 16.8839C12.8603 17.372 12.0688 17.372 11.5807 16.8839C11.0925 16.3957 11.0925 15.6043 11.5807 15.1161C12.0688 14.6279 12.8603 14.6279 13.3484 15.1161ZM16.884 13.3483C16.3958 13.8365 15.6044 13.8365 15.1162 13.3483C14.6281 12.8602 14.6281 12.0687 15.1162 11.5806C15.6044 11.0924 16.3958 11.0924 16.884 11.5806C17.3721 12.0687 17.3721 12.8602 16.884 13.3483ZM16.884 18.6516C17.3721 19.1398 17.3721 19.9312 16.884 20.4194C16.3958 20.9076 15.6044 20.9076 15.1162 20.4194C14.6281 19.9312 14.6281 19.1398 15.1162 18.6516C15.6044 18.1635 16.3958 18.1635 16.884 18.6516ZM20.4195 16.8839C19.9314 17.372 19.1399 17.372 18.6517 16.8839C18.1636 16.3957 18.1636 15.6043 18.6517 15.1161C19.1399 14.6279 19.9314 14.6279 20.4195 15.1161C20.9077 15.6043 20.9077 16.3957 20.4195 16.8839Z" fill="black"/>
</svg>
