<svg width="32" height="32" viewBox="0 0 32 32" fill="none" xmlns="http://www.w3.org/2000/svg">
<path d="M25.8996 14.5858C28.2428 12.2426 28.2428 8.44364 25.8996 6.1005C23.5565 3.75735 19.7575 3.75735 17.4143 6.1005L25.8996 14.5858ZM24.4854 16L16.0001 7.51471L7.51483 16L16.0001 24.4853L24.4854 16ZM14.5859 25.8995L6.10062 17.4142C3.75748 19.7574 3.75748 23.5563 6.10062 25.8995C8.44377 28.2426 12.2428 28.2426 14.5859 25.8995ZM4.68641 16L16.0001 4.68629C19.1243 1.56209 24.1896 1.56209 27.3138 4.68629C30.438 7.81048 30.438 12.8758 27.3138 16L16.0001 27.3137C12.8759 30.4379 7.8106 30.4379 4.68641 27.3137C1.56221 24.1895 1.56221 19.1242 4.68641 16ZM13.3485 15.1161C13.8366 15.6043 13.8366 16.3957 13.3485 16.8839C12.8603 17.372 12.0689 17.372 11.5807 16.8839C11.0925 16.3957 11.0925 15.6043 11.5807 15.1161C12.0689 14.628 12.8603 14.628 13.3485 15.1161ZM16.884 13.3483C17.3722 12.8602 17.3722 12.0687 16.884 11.5806C16.3958 11.0924 15.6044 11.0924 15.1162 11.5806C14.6281 12.0687 14.6281 12.8602 15.1162 13.3483C15.6044 13.8365 16.3958 13.8365 16.884 13.3483ZM16.884 18.6516C17.3722 19.1398 17.3722 19.9313 16.884 20.4194C16.3958 20.9076 15.6044 20.9076 15.1162 20.4194C14.6281 19.9313 14.6281 19.1398 15.1162 18.6516C15.6044 18.1635 16.3958 18.1635 16.884 18.6516ZM20.4195 16.8839C20.9077 16.3957 20.9077 15.6043 20.4195 15.1161C19.9314 14.628 19.1399 14.628 18.6518 15.1161C18.1636 15.6043 18.1636 16.3957 18.6518 16.8839C19.1399 17.372 19.9314 17.372 20.4195 16.8839Z" fill="black"/>
</svg>
