<svg width="32" height="32" viewBox="0 0 32 32" fill="none" xmlns="http://www.w3.org/2000/svg">
<path d="M16.485 2.09048C16.1666 2.01086 15.8334 2.01086 15.5149 2.09048L4.5149 4.84048C3.62456 5.06306 2.99997 5.86303 2.99997 6.78076V8.99999C2.99997 10.1046 3.8954 11 4.99997 11H5.49997V24.0007C4.83115 24.0188 4.2141 24.3706 3.85823 24.94L2.60823 26.94C1.77567 28.2721 2.73335 30 4.30422 30H27.6957C29.2666 30 30.2243 28.2721 29.3917 26.94L28.1417 24.94C27.7858 24.3706 27.1688 24.0188 26.5 24.0007V11H27C28.1045 11 29 10.1046 29 8.99999V6.78076C29 5.86303 28.3754 5.06306 27.485 4.84048L16.485 2.09048ZM20.5 11H23.5V24H20.5V11ZM14.5 11H17.5V24H14.5V11ZM8.49997 11H11.5V24H8.49997V11Z" fill="black"/>
</svg>
