<svg width="32" height="32" viewBox="0 0 32 32" fill="none" xmlns="http://www.w3.org/2000/svg">
<path d="M16.485 2.09048C16.1666 2.01086 15.8334 2.01086 15.5149 2.09048L4.5149 4.84048C3.62456 5.06306 2.99997 5.86303 2.99997 6.78076V8.99999C2.99997 10.1046 3.8954 11 4.99997 11V24.0783C4.53232 24.2132 4.12299 24.5164 3.85823 24.94L2.60823 26.94C1.77567 28.2721 2.73335 30 4.30422 30H27.6957C29.2666 30 30.2243 28.2721 29.3917 26.94L28.1417 24.94C27.877 24.5164 27.4676 24.2132 27 24.0783V11C28.1045 11 29 10.1046 29 8.99999V6.78076C29 5.86303 28.3754 5.06306 27.485 4.84048L16.485 2.09048ZM26.4457 26L27.6957 28H4.30422L5.55422 26H26.4457ZM6.99997 24V11H8.99997V24H6.99997ZM11 24V11H13V24H11ZM15 24V11H17V24H15ZM19 24V11H21V24H19ZM23 24V11H25V24H23ZM4.99997 8.99999L4.99997 6.78076L16 4.03076L27 6.78076V8.99999H4.99997Z" fill="black"/>
</svg>
