<svg width="32" height="32" viewBox="0 0 32 32" fill="none" xmlns="http://www.w3.org/2000/svg">
<path d="M26 7C26 6.44772 25.5523 6 25 6L20 6C19.4477 6 19 5.55228 19 5C19 4.44772 19.4477 4 20 4L25 4C26.6569 4 28 5.34315 28 7V12C28 12.5523 27.5523 13 27 13C26.4477 13 26 12.5523 26 12V7ZM6 7C6 6.44772 6.44772 6 7 6H12C12.5523 6 13 5.55228 13 5C13 4.44772 12.5523 4 12 4H7C5.34315 4 4 5.34315 4 7V12C4 12.5523 4.44772 13 5 13C5.55228 13 6 12.5523 6 12V7ZM6 25C6 25.5523 6.44772 26 7 26H12C12.5523 26 13 26.4477 13 27C13 27.5523 12.5523 28 12 28H7C5.34315 28 4 26.6569 4 25V20C4 19.4477 4.44772 19 5 19C5.55228 19 6 19.4477 6 20V25ZM25 26C25.5523 26 26 25.5523 26 25V20C26 19.4477 26.4477 19 27 19C27.5523 19 28 19.4477 28 20V25C28 26.6569 26.6569 28 25 28H20C19.4477 28 19 27.5523 19 27C19 26.4477 19.4477 26 20 26H25ZM8 11.5C8 11.2239 8.22386 11 8.5 11H9.5C9.77614 11 10 11.2239 10 11.5V20.5C10 20.7761 9.77614 21 9.5 21H8.5C8.22386 21 8 20.7761 8 20.5V11.5ZM17.5 11C17.2239 11 17 11.2239 17 11.5V20.5C17 20.7761 17.2239 21 17.5 21H18.5C18.7761 21 19 20.7761 19 20.5V11.5C19 11.2239 18.7761 11 18.5 11H17.5ZM12 11.5C12 11.2239 12.2239 11 12.5 11H14.5C14.7761 11 15 11.2239 15 11.5V20.5C15 20.7761 14.7761 21 14.5 21H12.5C12.2239 21 12 20.7761 12 20.5V11.5ZM21.5 11C21.2239 11 21 11.2239 21 11.5V20.5C21 20.7761 21.2239 21 21.5 21H23.5C23.7761 21 24 20.7761 24 20.5V11.5C24 11.2239 23.7761 11 23.5 11H21.5Z" fill="black"/>
</svg>
