<svg width="32" height="32" viewBox="0 0 32 32" fill="none" xmlns="http://www.w3.org/2000/svg">
<path d="M18 7C18 5.89543 17.1045 5 16 5C14.8954 5 14 5.89543 14 7C14 7.07445 14.004 7.14795 14.012 7.22029C14.6515 7.0761 15.3168 7 16 7C16.6831 7 17.3484 7.07612 17.988 7.22031C17.9959 7.14797 18 7.07446 18 7ZM13.5156 7.34725C13.0249 7.4879 12.5513 7.66917 12.0987 7.88719C12.0341 7.60183 12 7.3049 12 7C12 4.79086 13.7908 3 16 3C18.2091 3 20 4.79086 20 7C20 7.30491 19.9659 7.60185 19.9012 7.88721C22.9181 9.3406 25 12.4272 25 16V17.4066C25 18.4508 25.2724 19.4769 25.7905 20.3834L27.2901 23.0077C28.052 24.341 27.0892 26 25.5536 26H20.5839C19.8124 27.7659 18.0503 29 16 29C13.9497 29 12.1876 27.7659 11.416 26H6.44631C4.91067 26 3.94794 24.341 4.70983 23.0077L6.20941 20.3834C6.72746 19.4769 6.99996 18.4508 6.99996 17.4066V16C6.99996 11.8912 9.75331 8.42548 13.5156 7.34725ZM13.7639 26C14.3132 26.6137 15.1115 27 16 27C16.8885 27 17.6868 26.6137 18.2361 26H13.7639ZM8.99996 16V17.4066C8.99996 18.7988 8.63663 20.1669 7.9459 21.3757L6.44631 24L25.5536 24L24.054 21.3757C23.3633 20.1669 23 18.7988 23 17.4066V16C23 12.134 19.8659 9 16 9C12.134 9 8.99996 12.134 8.99996 16Z" fill="black"/>
</svg>
