<svg width="32" height="32" viewBox="0 0 32 32" fill="none" xmlns="http://www.w3.org/2000/svg">
<path d="M6.99996 16C6.99996 14.6105 7.31482 13.2946 7.87708 12.1197L21.7574 26H20.5839C19.8124 27.7659 18.0503 29 16 29C13.9497 29 12.1876 27.7659 11.416 26H6.44631C4.91067 26 3.94793 24.341 4.70983 23.0077L6.20941 20.3834C6.72746 19.4769 6.99996 18.4508 6.99996 17.4066V16ZM27.2901 23.0077C27.3065 23.0364 27.3221 23.0653 27.3369 23.0943L12.0899 7.84723C12.031 7.57415 12 7.2907 12 7C12 4.79086 13.7908 3 16 3C18.2091 3 20 4.79086 20 7C20 7.30491 19.9659 7.60185 19.9012 7.88721C22.9181 9.3406 25 12.4272 25 16V17.4066C25 18.4508 25.2724 19.4769 25.7905 20.3834L27.2901 23.0077ZM18 7C18 5.89543 17.1045 5 16 5C14.8954 5 14 5.89543 14 7C14 7.07445 14.004 7.14795 14.012 7.22029C14.6515 7.0761 15.3168 7 16 7C16.6831 7 17.3484 7.07612 17.988 7.22031C17.9959 7.14797 18 7.07446 18 7ZM13.7639 26C14.3132 26.6137 15.1115 27 16 27C16.8885 27 17.6868 26.6137 18.2361 26H13.7639ZM5.70711 4.29289C5.31658 3.90237 4.68342 3.90237 4.29289 4.29289C3.90237 4.68342 3.90237 5.31658 4.29289 5.70711L26.2929 27.7071C26.6834 28.0976 27.3166 28.0976 27.7071 27.7071C28.0976 27.3166 28.0976 26.6834 27.7071 26.2929L5.70711 4.29289Z" fill="black"/>
</svg>
