<svg width="32" height="32" viewBox="0 0 32 32" fill="none" xmlns="http://www.w3.org/2000/svg">
<path d="M25.5 8C24.6716 8 24 7.32843 24 6.5C24 5.67157 24.6716 5 25.5 5C26.3284 5 27 5.67157 27 6.5C27 7.32843 26.3284 8 25.5 8ZM25.5 10C27.433 10 29 8.433 29 6.5C29 4.567 27.433 3 25.5 3C23.9088 3 22.5656 4.06185 22.1403 5.5156C17.2964 5.69267 13.2134 7.37236 10.2929 10.2929C7.37236 13.2134 5.69267 17.2964 5.5156 22.1403C4.06185 22.5656 3 23.9088 3 25.5C3 27.433 4.567 29 6.5 29C8.433 29 10 27.433 10 25.5C10 23.9206 8.95382 22.5855 7.51663 22.1499C7.68982 17.7626 9.20832 14.2059 11.7071 11.7071C14.2059 9.20832 17.7626 7.68982 22.1499 7.51663C22.5855 8.95382 23.9206 10 25.5 10ZM6.5 27C5.67157 27 5 26.3284 5 25.5C5 24.6716 5.67157 24 6.5 24C7.32843 24 8 24.6716 8 25.5C8 26.3284 7.32843 27 6.5 27Z" fill="black"/>
</svg>
