<svg width="32" height="32" viewBox="0 0 32 32" fill="none" xmlns="http://www.w3.org/2000/svg">
<path d="M9 15C9 11.6863 11.6863 9 15 9V7.98392C14.8287 7.88508 14.5601 7.75934 14.1708 7.6296C13.0675 7.2618 11.4159 7 9.5 7C8.59823 7 7.75504 7.058 7 7.15775V22.8423C7.75504 22.942 8.59823 23 9.5 23C11.4159 23 13.0675 22.7382 14.1708 22.3704C14.5601 22.2407 14.8287 22.1149 15 22.0161V21C11.6863 21 9 18.3137 9 15ZM21 15C21 17.6124 19.3304 19.8349 17 20.6586V22.5C17 23.7952 14.0453 24.8603 10.2603 24.9873C10.6043 25.5921 11.2545 26 12 26H23C24.1046 26 25 25.1046 25 24V14.7724C24.6274 14.5968 24.2885 14.3258 24 13.9815C23.3862 13.249 23 12.1847 23 11C23 9.81533 23.3862 8.75095 24 8.01852C24.187 7.79537 24.3951 7.60303 24.6199 7.44749C24.7419 7.36302 24.8689 7.28941 25 7.22761V6C25 5.44772 25.4477 5 26 5C26.5523 5 27 5.44772 27 6V7.22761C27.1311 7.28941 27.2581 7.36302 27.3801 7.44749C27.6049 7.60303 27.813 7.79537 28 8.01852C28.6137 8.75095 29 9.81533 29 11C29 12.1847 28.6137 13.249 28 13.9815C27.7115 14.3258 27.3726 14.5968 27 14.7724V24C27 26.2091 25.2091 28 23 28H12C10.9856 28 10.0593 27.6224 9.35418 27C8.75315 26.4695 8.31277 25.7612 8.11533 24.9575C4.63467 24.7409 2 23.723 2 22.5V7.5C2 6.11929 5.35786 5 9.5 5C13.6421 5 17 6.11929 17 7.5V9.34141C19.3304 10.1651 21 12.3876 21 15ZM5 7.57486C4.94169 7.59282 4.88472 7.61108 4.82915 7.6296C4.43993 7.75934 4.17128 7.88508 4 7.98392V22.0161C4.17128 22.1149 4.43993 22.2407 4.82915 22.3704C4.88472 22.3889 4.94169 22.4072 5 22.4251V7.57486ZM15.2057 21.8747C15.2109 21.87 15.213 21.8676 15.213 21.8676L15.2107 21.8696L15.2057 21.8747ZM15 19C17.2091 19 19 17.2091 19 15C19 12.7909 17.2091 11 15 11C12.7909 11 11 12.7909 11 15C11 17.2091 12.7909 19 15 19ZM17.2071 12.7929C17.5976 13.1834 17.5976 13.8166 17.2071 14.2071L15.7071 15.7071C15.3166 16.0976 14.6834 16.0976 14.2929 15.7071C13.9024 15.3166 13.9024 14.6834 14.2929 14.2929L15.7929 12.7929C16.1834 12.4024 16.8166 12.4024 17.2071 12.7929Z" fill="black"/>
</svg>
