<svg width="32" height="32" viewBox="0 0 32 32" fill="none" xmlns="http://www.w3.org/2000/svg">
<path d="M30 24.5C30 25.3284 29.3309 25.9919 28.5033 25.9562C28.3647 25.9502 28.2223 25.9439 28.0761 25.9374L28.0748 25.9373C24.7534 25.7901 19.57 25.5604 16.7785 27.3751C16.3155 27.6761 15.6845 27.6761 15.2215 27.3751C12.43 25.5604 7.24663 25.7901 3.92516 25.9373L3.92389 25.9374C3.77777 25.9439 3.63526 25.9502 3.49672 25.9562C2.66905 25.9919 2 25.3284 2 24.5V5.49997C2 4.67154 2.67395 3.99967 3.50237 4.00037C11.1275 4.00684 12.2345 4.1172 16 5.99997C19.7655 4.11719 20.8725 4.00684 28.4976 4.00037C29.3261 3.99967 30 4.67154 30 5.49997V24.5ZM15 25.0066V7.73616C13.2538 6.86734 12.264 6.48571 10.892 6.27293C9.44239 6.0481 7.54044 6.00704 4 6.00099V23.9321C5.79672 23.8525 8.25728 23.7504 10.602 23.9849C12.02 24.1267 13.5899 24.4064 15 25.0066ZM21.398 23.9849C23.7427 23.7504 26.2033 23.8525 28 23.9321V6.00099C24.4596 6.00703 22.5576 6.0481 21.108 6.27292C19.736 6.48571 18.7462 6.86734 17 7.73616V25.0066C18.4101 24.4064 19.98 24.1267 21.398 23.9849Z" fill="black"/>
</svg>
