<svg width="32" height="32" viewBox="0 0 32 32" fill="none" xmlns="http://www.w3.org/2000/svg">
<path d="M2 2H4V4H2V2ZM6 2H8V4H6V2ZM10 2H12V4H10V2ZM16 4L14 4V2H16V4ZM2 8V6H4V8H2ZM2 12V10H4V12H2ZM2 16V14H28V16H2ZM2 20V18H4V20H2ZM2 24V22H4V24H2ZM2 26H4V28H2V26ZM8 28H6V26H8V28ZM12 28H10V26H12V28ZM20 2H18V4H20V2ZM24 2H22V4H24V2ZM28 2H26V4L28 4V2ZM14 6V8H16V6H14ZM28 8V6H26V8H28ZM14 10V12H16V10H14ZM28 12V10H26V12H28ZM14 20V18H16V20H14ZM28 18V20H26V18H28ZM14 24V22H16V24H14ZM28 22V24H26V22H28ZM14 26H16V28H14V26ZM20 28H18V26H20V28ZM24 28H22V26H24V28ZM26 28V26H28V28H26Z" fill="black"/>
</svg>
