<svg width="32" height="32" viewBox="0 0 32 32" fill="none" xmlns="http://www.w3.org/2000/svg">
<path d="M4 2H2V4H4V2ZM8 2H6V4H8V2ZM12 2H10V4H12V2ZM14 4L16 4V2H14V4ZM2 6V8H4V6H2ZM2 10V12H4V10H2ZM4 14H2V16H4V14ZM8 14H6V16H8V14ZM12 14H10V16H12V14ZM2 18V20H4V18H2ZM2 22V24H4V22H2ZM4 26H2V28H4V26ZM6 28H8V26H6V28ZM10 28H12V26H10V28ZM18 2H20V4H18V2ZM22 2H24V4H22V2ZM26 2H28V4L26 4V2ZM14 8V6H16V8H14ZM28 6V8H26V6H28ZM14 12V10H16V12H14ZM28 10V12H26V10H28ZM16 14H14V16H16V14ZM20 14H18V16H20V14ZM24 14H22V16H24V14ZM28 14H26V16H28V14ZM14 18V20H16V18H14ZM28 20V18H26V20H28ZM14 22V24H16V22H14ZM28 24V22H26V24H28ZM16 26H14V28H16V26ZM18 28H20V26H18V28ZM22 28H24V26H22V28ZM26 26V28H28V26H26Z" fill="black"/>
</svg>
