<svg width="32" height="32" viewBox="0 0 32 32" fill="none" xmlns="http://www.w3.org/2000/svg">
<path d="M20 2H18V4H20V2ZM24 2H22V4H24V2ZM28 2H26V4L28 4V2ZM28 8V6H26V8H28ZM28 12V10H26V12H28ZM16 14V2H14V14H2V16H14V28H16V16H28V14H16ZM28 20V18H26V20H28ZM28 24V22H26V24H28ZM18 28H20V26H18V28ZM22 28H24V26H22V28ZM26 26V28H28V26H26ZM2 20V18H4V20H2ZM2 24V22H4V24H2ZM2 26H4V28H2V26ZM8 28H6V26H8V28ZM12 28H10V26H12V28ZM4 2H2V4H4V2ZM8 2H6V4H8V2ZM12 2H10V4H12V2ZM2 6V8H4V6H2ZM2 10V12H4V10H2Z" fill="black"/>
</svg>
