<svg width="32" height="32" viewBox="0 0 32 32" fill="none" xmlns="http://www.w3.org/2000/svg">
<path d="M15 6C15.5523 6 16 5.55229 16 5C16 4.44772 15.5523 4 15 4H7C5.34315 4 4 5.34315 4 7V25C4 26.6569 5.34315 28 7 28H15C15.5523 28 16 27.5523 16 27C16 26.4477 15.5523 26 15 26H7C6.44771 26 6 25.5523 6 25L6 7C6 6.44772 6.44772 6 7 6L15 6ZM11 15C10.4477 15 10 15.4477 10 16C10 16.5523 10.4477 17 11 17L24.5858 17L20.2929 21.2929C19.9024 21.6834 19.9024 22.3166 20.2929 22.7071C20.6834 23.0976 21.3166 23.0976 21.7071 22.7071L27.7071 16.7071C28.0976 16.3166 28.0976 15.6834 27.7071 15.2929L21.7071 9.29289C21.3166 8.90237 20.6834 8.90237 20.2929 9.29289C19.9024 9.68342 19.9024 10.3166 20.2929 10.7071L24.5858 15L11 15Z" fill="black"/>
</svg>
