<svg width="32" height="32" viewBox="0 0 32 32" fill="none" xmlns="http://www.w3.org/2000/svg">
<path d="M17 5C17 4.44772 16.5523 4 16 4C15.4477 4 15 4.44772 15 5V18.5858L10.7071 14.2929C10.3166 13.9024 9.68342 13.9024 9.29289 14.2929C8.90237 14.6834 8.90237 15.3166 9.29289 15.7071L15.2929 21.7071C15.6834 22.0976 16.3166 22.0976 16.7071 21.7071L22.7071 15.7071C23.0976 15.3166 23.0976 14.6834 22.7071 14.2929C22.3166 13.9024 21.6834 13.9024 21.2929 14.2929L17 18.5858V5ZM6 17C6 16.4477 5.55228 16 5 16C4.44772 16 4 16.4477 4 17V25C4 26.6569 5.34315 28 7 28H25C26.6569 28 28 26.6569 28 25V17C28 16.4477 27.5523 16 27 16C26.4477 16 26 16.4477 26 17V25C26 25.5523 25.5523 26 25 26H7C6.44772 26 6 25.5523 6 25V17Z" fill="black"/>
</svg>
