<svg width="32" height="32" viewBox="0 0 32 32" fill="none" xmlns="http://www.w3.org/2000/svg">
<path d="M17 6C16.4477 6 16 5.55229 16 5C16 4.44772 16.4477 4 17 4H25C26.6569 4 28 5.34315 28 7L28 25C28 26.6569 26.6569 28 25 28H17C16.4477 28 16 27.5523 16 27C16 26.4477 16.4477 26 17 26H25C25.5523 26 26 25.5523 26 25L26 7C26 6.44772 25.5523 6 25 6L17 6ZM5 17C4.44772 17 4 16.5523 4 16C4 15.4477 4.44772 15 5 15L18.5858 15L14.2929 10.7071C13.9024 10.3166 13.9024 9.68342 14.2929 9.29289C14.6834 8.90237 15.3166 8.90237 15.7071 9.29289L21.7071 15.2929C22.0976 15.6834 22.0976 16.3166 21.7071 16.7071L15.7071 22.7071C15.3166 23.0976 14.6834 23.0976 14.2929 22.7071C13.9024 22.3166 13.9024 21.6834 14.2929 21.2929L18.5858 17L5 17Z" fill="black"/>
</svg>
