<svg width="32" height="32" viewBox="0 0 32 32" fill="none" xmlns="http://www.w3.org/2000/svg">
<path d="M15 7.41421V21C15 21.5523 15.4477 22 16 22C16.5523 22 17 21.5523 17 21V7.41421L21.2929 11.7071C21.6834 12.0976 22.3166 12.0976 22.7071 11.7071C23.0976 11.3166 23.0976 10.6834 22.7071 10.2929L16.7071 4.29289C16.3166 3.90237 15.6834 3.90237 15.2929 4.29289L9.29289 10.2929C8.90237 10.6834 8.90237 11.3166 9.29289 11.7071C9.68342 12.0976 10.3166 12.0976 10.7071 11.7071L15 7.41421ZM6 17C6 16.4477 5.55228 16 5 16C4.44772 16 4 16.4477 4 17V25C4 26.6569 5.34315 28 7 28H25C26.6569 28 28 26.6569 28 25V17C28 16.4477 27.5523 16 27 16C26.4477 16 26 16.4477 26 17V25C26 25.5523 25.5523 26 25 26H7C6.44772 26 6 25.5523 6 25V17Z" fill="black"/>
</svg>
