<svg width="32" height="32" viewBox="0 0 32 32" fill="none" xmlns="http://www.w3.org/2000/svg">
<path d="M10 6C8.89543 6 8 6.89543 8 8V13.882L7 14.382C6.38713 14.6884 6 15.3148 6 16C6 16.6852 6.38713 17.3116 7 17.618L8 18.118V24C8 25.1046 8.89543 26 10 26H11C11.5523 26 12 25.5523 12 25C12 24.4477 11.5523 24 11 24H10V18.118C10 17.3605 9.572 16.668 8.89443 16.3292L8.23607 16L8.89443 15.6708C9.572 15.332 10 14.6395 10 13.882V8H11C11.5523 8 12 7.55229 12 7C12 6.44772 11.5523 6 11 6H10ZM22 26C23.1046 26 24 25.1046 24 24V18.118L25 17.618C25.6129 17.3116 26 16.6852 26 16C26 15.3148 25.6129 14.6884 25 14.382L24 13.882L24 8C24 6.89543 23.1046 6 22 6H21C20.4477 6 20 6.44772 20 7C20 7.55228 20.4477 8 21 8L22 8V13.882C22 14.6395 22.428 15.332 23.1056 15.6708L23.7639 16L23.1056 16.3292C22.428 16.668 22 17.3605 22 18.118V24H21C20.4477 24 20 24.4477 20 25C20 25.5523 20.4477 26 21 26H22Z" fill="black"/>
</svg>
