<svg width="32" height="32" viewBox="0 0 32 32" fill="none" xmlns="http://www.w3.org/2000/svg">
<g clip-path="url(#clip0_499_249)">
<path d="M32 5.33333C32 2.392 29.608 0 26.6667 0C23.7253 0 21.3333 2.392 21.3333 5.33333C21.3333 7.81333 23.036 9.904 25.3333 10.4973V10.6667C25.3333 12.872 23.5387 14.6667 21.3333 14.6667H10.6667C9.16667 14.6667 7.78133 15.1653 6.66667 16.0027V10.4973C8.964 9.904 10.6667 7.81333 10.6667 5.33333C10.6667 2.392 8.27467 0 5.33333 0C2.392 0 0 2.392 0 5.33333C0 7.81333 1.70267 9.904 4 10.4973V21.5013C1.70267 22.0947 0 24.1853 0 26.6653C0 29.6067 2.392 31.9987 5.33333 31.9987C8.27467 31.9987 10.6667 29.6067 10.6667 26.6653C10.6667 24.1853 8.964 22.0947 6.66667 21.5013V21.332C6.66667 19.1267 8.46133 17.332 10.6667 17.332H21.3333C25.0093 17.332 28 14.3413 28 10.6653V10.496C30.2973 9.90267 32 7.81333 32 5.33333ZM2.66667 5.33333C2.66667 3.86267 3.86267 2.66667 5.33333 2.66667C6.804 2.66667 8 3.86267 8 5.33333C8 6.804 6.804 8 5.33333 8C3.86267 8 2.66667 6.804 2.66667 5.33333ZM8 26.6667C8 28.1373 6.804 29.3333 5.33333 29.3333C3.86267 29.3333 2.66667 28.1373 2.66667 26.6667C2.66667 25.196 3.86267 24 5.33333 24C6.804 24 8 25.196 8 26.6667ZM26.6667 8C25.196 8 24 6.804 24 5.33333C24 3.86267 25.196 2.66667 26.6667 2.66667C28.1373 2.66667 29.3333 3.86267 29.3333 5.33333C29.3333 6.804 28.1373 8 26.6667 8Z" fill="#0F3849"/>
</g>
<defs>
<clipPath id="clip0_499_249">
<rect width="32" height="32" fill="white"/>
</clipPath>
</defs>
</svg>
