<svg width="32" height="32" viewBox="0 0 32 32" fill="none" xmlns="http://www.w3.org/2000/svg">
<path d="M7 2C6.44772 2 6 2.44772 6 3V17C6 18.6569 7.34315 20 9 20H12V26C12 28.2091 13.7909 30 16 30C18.2091 30 20 28.2091 20 26V20H23C24.6569 20 26 18.6569 26 17V3C26 2.44772 25.5523 2 25 2H7ZM12 4V9C12 9.55228 12.4477 10 13 10C13.5523 10 14 9.55228 14 9V4H18V9C18 9.55228 18.4477 10 19 10C19.5523 10 20 9.55228 20 9V4H24V12H8V4H12ZM8 14H24V17C24 17.5523 23.5523 18 23 18H18V26C18 27.1046 17.1046 28 16 28C14.8954 28 14 27.1046 14 26V18H9C8.44772 18 8 17.5523 8 17V14Z" fill="black"/>
</svg>
