<svg width="32" height="32" viewBox="0 0 32 32" fill="none" xmlns="http://www.w3.org/2000/svg">
<path d="M6 6C4.89543 6 4 6.89543 4 8V20C4 21.1046 4.89543 22 6 22H10C10.5523 22 11 22.4477 11 23V25.5858L14.2929 22.2929C14.4804 22.1054 14.7348 22 15 22H26C27.1046 22 28 21.1046 28 20V8C28 6.89543 27.1046 6 26 6H6ZM2 8C2 5.79086 3.79086 4 6 4H26C28.2091 4 30 5.79086 30 8V20C30 22.2091 28.2091 24 26 24H15.4142L10.7071 28.7071C10.4211 28.9931 9.99099 29.0787 9.61732 28.9239C9.24364 28.7691 9 28.4045 9 28V24H6C3.79086 24 2 22.2091 2 20V8ZM10 14C10 13.4477 10.4477 13 11 13H15V9C15 8.44771 15.4477 8 16 8C16.5523 8 17 8.44771 17 9V13H21C21.5523 13 22 13.4477 22 14C22 14.5523 21.5523 15 21 15H17V19C17 19.5523 16.5523 20 16 20C15.4477 20 15 19.5523 15 19V15H11C10.4477 15 10 14.5523 10 14Z" fill="black"/>
</svg>
