<svg width="32" height="32" viewBox="0 0 32 32" fill="none" xmlns="http://www.w3.org/2000/svg">
<path d="M4 16C4 10.6272 9.20948 6 16 6C22.7905 6 28 10.6272 28 16C28 21.3728 22.7905 26 16 26C14.5607 26 13.1834 25.7886 11.9088 25.4027C11.6496 25.3242 11.3697 25.3542 11.133 25.4858C10.4053 25.8904 9.29698 26.3069 8.12322 26.6227C7.73025 26.7284 7.34055 26.82 6.96598 26.8951C7.41762 25.9708 7.76836 24.9453 7.91802 24.0458C7.97663 23.6936 7.84302 23.3369 7.56747 23.1099C5.33712 21.2723 4 18.7486 4 16ZM16 4C8.43112 4 2 9.2225 2 16C2 19.2249 3.47887 22.1227 5.83064 24.2518C5.52482 25.4371 4.86241 26.7761 4.25144 27.4659C3.99054 27.7604 3.92661 28.1806 4.08812 28.5394C4.24962 28.8982 4.60653 29.1289 5.00001 29.1289C6.04649 29.1289 7.38381 28.8927 8.6428 28.554C9.74028 28.2588 10.8502 27.8662 11.7273 27.4316C13.0762 27.8012 14.5122 28 16 28C23.5689 28 30 22.7775 30 16C30 9.2225 23.5689 4 16 4ZM10 18C11.1046 18 12 17.1046 12 16C12 14.8954 11.1046 14 10 14C8.89543 14 8 14.8954 8 16C8 17.1046 8.89543 18 10 18ZM18 16C18 17.1046 17.1046 18 16 18C14.8954 18 14 17.1046 14 16C14 14.8954 14.8954 14 16 14C17.1046 14 18 14.8954 18 16ZM22 18C23.1046 18 24 17.1046 24 16C24 14.8954 23.1046 14 22 14C20.8954 14 20 14.8954 20 16C20 17.1046 20.8954 18 22 18Z" fill="black"/>
</svg>
