<svg width="32" height="32" viewBox="0 0 32 32" fill="none" xmlns="http://www.w3.org/2000/svg">
<path d="M16 6C9.20948 6 4 10.6272 4 16C4 18.7486 5.33712 21.2723 7.56747 23.1099C7.84302 23.3369 7.97663 23.6936 7.91802 24.0458C7.76836 24.9453 7.41762 25.9708 6.96598 26.8951C7.34055 26.82 7.73025 26.7284 8.12322 26.6227C9.29698 26.3069 10.4053 25.8904 11.133 25.4858C11.3697 25.3542 11.6496 25.3242 11.9088 25.4027C13.1834 25.7886 14.5607 26 16 26C22.7905 26 28 21.3728 28 16C28 10.6272 22.7905 6 16 6ZM2 16C2 9.2225 8.43112 4 16 4C23.5689 4 30 9.2225 30 16C30 22.7775 23.5689 28 16 28C14.5122 28 13.0762 27.8012 11.7273 27.4316C10.8502 27.8662 9.74028 28.2588 8.6428 28.554C7.38381 28.8927 6.04649 29.1289 5.00001 29.1289C4.60653 29.1289 4.24962 28.8982 4.08812 28.5394C3.92661 28.1806 3.99054 27.7604 4.25144 27.4659C4.86241 26.7761 5.52482 25.4371 5.83064 24.2518C3.47887 22.1227 2 19.2249 2 16ZM10 16C10 15.4477 10.4477 15 11 15H15V11C15 10.4477 15.4477 10 16 10C16.5523 10 17 10.4477 17 11V15H21C21.5523 15 22 15.4477 22 16C22 16.5523 21.5523 17 21 17H17V21C17 21.5523 16.5523 22 16 22C15.4477 22 15 21.5523 15 21V17H11C10.4477 17 10 16.5523 10 16Z" fill="black"/>
</svg>
