<svg width="32" height="32" viewBox="0 0 32 32" fill="none" xmlns="http://www.w3.org/2000/svg">
<path d="M16 4C8.43112 4 2 9.2225 2 16C2 19.2249 3.47887 22.1227 5.83064 24.2518C5.52482 25.4371 4.86241 26.7761 4.25144 27.4659C3.99054 27.7604 3.92661 28.1806 4.08812 28.5394C4.24962 28.8982 4.60653 29.1289 5.00001 29.1289C6.04649 29.1289 7.38381 28.8927 8.6428 28.554C9.74028 28.2588 10.8502 27.8662 11.7273 27.4316C13.0762 27.8012 14.5122 28 16 28C23.5689 28 30 22.7775 30 16C30 9.2225 23.5689 4 16 4ZM9 13C9 12.4477 9.44772 12 10 12H22C22.5523 12 23 12.4477 23 13C23 13.5523 22.5523 14 22 14H10C9.44772 14 9 13.5523 9 13ZM10 18H18C18.5523 18 19 18.4477 19 19C19 19.5523 18.5523 20 18 20H10C9.44772 20 9 19.5523 9 19C9 18.4477 9.44772 18 10 18Z" fill="black"/>
</svg>
