<svg width="32" height="32" viewBox="0 0 32 32" fill="none" xmlns="http://www.w3.org/2000/svg">
<path d="M2 6C2 3.79086 3.79086 2 6 2H22C24.2091 2 26 3.79086 26 6V16C26 18.2091 24.2091 20 22 20H10.4142L6.70711 23.7071C6.42111 23.9931 5.99099 24.0787 5.61732 23.9239C5.24364 23.7691 5 23.4045 5 23L5 19.874C3.27477 19.4299 2 17.8638 2 16V6ZM8 8C7.44772 8 7 8.44771 7 9C7 9.55228 7.44772 10 8 10H20C20.5523 10 21 9.55228 21 9C21 8.44771 20.5523 8 20 8H8ZM7 13C7 13.5523 7.44772 14 8 14H16C16.5523 14 17 13.5523 17 13C17 12.4477 16.5523 12 16 12H8C7.44772 12 7 12.4477 7 13ZM11.2426 22L10.1508 23.0918C10.626 24.7703 12.1694 26 14 26H21.5858L25.2929 29.7071C25.5789 29.9931 26.009 30.0787 26.3827 29.9239C26.7563 29.7691 27 29.4045 27 29V25.874C28.7252 25.4299 30 23.8638 30 22V14C30 12.5194 29.1956 11.2267 28 10.5351V16C28 19.3137 25.3137 22 22 22H11.2426Z" fill="black"/>
</svg>
