<svg width="32" height="32" viewBox="0 0 32 32" fill="none" xmlns="http://www.w3.org/2000/svg">
<path d="M6 4C3.79086 4 2 5.79086 2 8V20C2 22.2091 3.79086 24 6 24H9V28C9 28.4045 9.24364 28.7691 9.61732 28.9239C9.99099 29.0787 10.4211 28.9931 10.7071 28.7071L15.4142 24H26C28.2091 24 30 22.2091 30 20V8C30 5.79086 28.2091 4 26 4H6ZM10 14C10 13.4477 10.4477 13 11 13H15V9C15 8.44771 15.4477 8 16 8C16.5523 8 17 8.44772 17 9V13H21C21.5523 13 22 13.4477 22 14C22 14.5523 21.5523 15 21 15H17V19C17 19.5523 16.5523 20 16 20C15.4477 20 15 19.5523 15 19V15H11C10.4477 15 10 14.5523 10 14Z" fill="black"/>
</svg>
