<svg width="32" height="32" viewBox="0 0 32 32" fill="none" xmlns="http://www.w3.org/2000/svg">
<path d="M4 6C4 4.89543 4.89543 4 6 4H22C23.1046 4 24 4.89543 24 6V16C24 17.1046 23.1046 18 22 18H10C9.73478 18 9.48043 18.1054 9.29289 18.2929L7 20.5858V19C7 18.4477 6.55228 18 6 18C4.89543 18 4 17.1046 4 16V6ZM6 2C3.79086 2 2 3.79086 2 6V16C2 17.8638 3.27477 19.4299 5 19.874V23C5 23.4045 5.24364 23.7691 5.61732 23.9239C5.99099 24.0787 6.42111 23.9931 6.70711 23.7071L10 20.4142V22C10 24.2091 11.7909 26 14 26H21.5858L25.2929 29.7071C25.5789 29.9931 26.009 30.0787 26.3827 29.9239C26.7564 29.7691 27 29.4045 27 29V25.874C28.7252 25.4299 30 23.8638 30 22V14C30 11.7909 28.2091 10 26 10V6C26 3.79086 24.2091 2 22 2H6ZM26 12C27.1046 12 28 12.8954 28 14V22C28 23.1046 27.1046 24 26 24C25.7348 24 25.4804 24.1054 25.2929 24.2929C25.1054 24.4804 25 24.7348 25 25V26.5858L22.7071 24.2929C22.5196 24.1054 22.2652 24 22 24H14C12.8954 24 12 23.1046 12 22V20H22C24.2091 20 26 18.2091 26 16V12ZM8 8C7.44772 8 7 8.44772 7 9C7 9.55228 7.44772 10 8 10H20C20.5523 10 21 9.55228 21 9C21 8.44772 20.5523 8 20 8H8ZM7 13C7 12.4477 7.44772 12 8 12H16C16.5523 12 17 12.4477 17 13C17 13.5523 16.5523 14 16 14H8C7.44772 14 7 13.5523 7 13Z" fill="black"/>
</svg>
