<svg width="32" height="32" viewBox="0 0 32 32" fill="none" xmlns="http://www.w3.org/2000/svg">
<path d="M6 6C4.89543 6 4 6.89543 4 8V20C4 21.1046 4.89543 22 6 22H9C9.55228 22 10 22.4477 10 23V25.5858L13.2929 22.2929C13.4804 22.1054 13.7348 22 14 22H26C27.1046 22 28 21.1046 28 20V8C28 6.89543 27.1046 6 26 6H6ZM2 8C2 5.79086 3.79086 4 6 4H26C28.2091 4 30 5.79086 30 8V20C30 22.2091 28.2091 24 26 24H14.4142L9.70711 28.7071C9.42111 28.9931 8.99099 29.0787 8.61732 28.9239C8.24364 28.7691 8 28.4045 8 28V24H6C3.79086 24 2 22.2091 2 20V8ZM8 11C8 10.4477 8.44772 10 9 10H23C23.5523 10 24 10.4477 24 11C24 11.5523 23.5523 12 23 12H9C8.44772 12 8 11.5523 8 11ZM9 16C8.44772 16 8 16.4477 8 17C8 17.5523 8.44771 18 9 18H19C19.5523 18 20 17.5523 20 17C20 16.4477 19.5523 16 19 16H9Z" fill="black"/>
</svg>
