<svg width="32" height="32" viewBox="0 0 32 32" fill="none" xmlns="http://www.w3.org/2000/svg">
<path d="M4 8C4 6.89543 4.89543 6 6 6H26C27.1046 6 28 6.89543 28 8V20C28 21.1046 27.1046 22 26 22H15C14.7348 22 14.4804 22.1054 14.2929 22.2929L11 25.5858V23C11 22.4477 10.5523 22 10 22H6C4.89543 22 4 21.1046 4 20V8ZM6 4C3.79086 4 2 5.79086 2 8V20C2 22.2091 3.79086 24 6 24H9V28C9 28.4045 9.24364 28.7691 9.61732 28.9239C9.99099 29.0787 10.4211 28.9931 10.7071 28.7071L15.4142 24H26C28.2091 24 30 22.2091 30 20V8C30 5.79086 28.2091 4 26 4H6ZM10 16C11.1046 16 12 15.1046 12 14C12 12.8954 11.1046 12 10 12C8.89543 12 8 12.8954 8 14C8 15.1046 8.89543 16 10 16ZM18 14C18 15.1046 17.1046 16 16 16C14.8954 16 14 15.1046 14 14C14 12.8954 14.8954 12 16 12C17.1046 12 18 12.8954 18 14ZM22 16C23.1046 16 24 15.1046 24 14C24 12.8954 23.1046 12 22 12C20.8954 12 20 12.8954 20 14C20 15.1046 20.8954 16 22 16Z" fill="black"/>
</svg>
