<svg width="32" height="32" viewBox="0 0 32 32" fill="none" xmlns="http://www.w3.org/2000/svg">
<path d="M16 4C8.43112 4 2 9.2225 2 16C2 19.2249 3.47887 22.1227 5.83064 24.2518C5.52482 25.4371 4.86241 26.7761 4.25144 27.4659C3.99054 27.7604 3.92661 28.1806 4.08812 28.5394C4.24962 28.8982 4.60653 29.1289 5.00001 29.1289C6.04649 29.1289 7.38381 28.8927 8.6428 28.554C9.74028 28.2588 10.8502 27.8662 11.7273 27.4316C13.0762 27.8012 14.5122 28 16 28C23.5689 28 30 22.7775 30 16C30 9.2225 23.5689 4 16 4ZM10 16C10 15.4477 10.4477 15 11 15H15V11C15 10.4477 15.4477 10 16 10C16.5523 10 17 10.4477 17 11V15H21C21.5523 15 22 15.4477 22 16C22 16.5523 21.5523 17 21 17H17V21C17 21.5523 16.5523 22 16 22C15.4477 22 15 21.5523 15 21V17H11C10.4477 17 10 16.5523 10 16Z" fill="black"/>
</svg>
