<svg width="32" height="32" viewBox="0 0 32 32" fill="none" xmlns="http://www.w3.org/2000/svg">
<path d="M2 8C2 5.79086 3.79086 4 6 4H26C28.2091 4 30 5.79086 30 8V20C30 22.2091 28.2091 24 26 24H15.4142L10.7071 28.7071C10.4211 28.9931 9.99099 29.0787 9.61732 28.9239C9.24364 28.7691 9 28.4045 9 28V24H6C3.79086 24 2 22.2091 2 20V8ZM10 16C11.1046 16 12 15.1046 12 14C12 12.8954 11.1046 12 10 12C8.89543 12 8 12.8954 8 14C8 15.1046 8.89543 16 10 16ZM18 14C18 12.8954 17.1046 12 16 12C14.8954 12 14 12.8954 14 14C14 15.1046 14.8954 16 16 16C17.1046 16 18 15.1046 18 14ZM22 16C23.1046 16 24 15.1046 24 14C24 12.8954 23.1046 12 22 12C20.8954 12 20 12.8954 20 14C20 15.1046 20.8954 16 22 16Z" fill="black"/>
</svg>
