<svg width="32" height="32" viewBox="0 0 32 32" fill="none" xmlns="http://www.w3.org/2000/svg">
<path d="M6 4C3.79086 4 2 5.79086 2 8V20C2 22.2091 3.79086 24 6 24H8V28C8 28.4045 8.24364 28.7691 8.61732 28.9239C8.99099 29.0787 9.42111 28.9931 9.70711 28.7071L14.4142 24H26C28.2091 24 30 22.2091 30 20V8C30 5.79086 28.2091 4 26 4H6ZM8 11C8 10.4477 8.44772 10 9 10H23C23.5523 10 24 10.4477 24 11C24 11.5523 23.5523 12 23 12H9C8.44772 12 8 11.5523 8 11ZM9 16H19C19.5523 16 20 16.4477 20 17C20 17.5523 19.5523 18 19 18H9C8.44771 18 8 17.5523 8 17C8 16.4477 8.44772 16 9 16Z" fill="black"/>
</svg>
