<svg width="32" height="32" viewBox="0 0 32 32" fill="none" xmlns="http://www.w3.org/2000/svg">
<path d="M2 16C2 9.2225 8.43112 4 16 4C23.5689 4 30 9.2225 30 16C30 22.7775 23.5689 28 16 28C14.5122 28 13.0762 27.8012 11.7273 27.4316C10.8502 27.8662 9.74028 28.2588 8.6428 28.554C7.38381 28.8927 6.04649 29.1289 5.00001 29.1289C4.60653 29.1289 4.24962 28.8982 4.08812 28.5394C3.92661 28.1806 3.99054 27.7604 4.25144 27.4659C4.86241 26.7761 5.52482 25.4371 5.83064 24.2518C3.47887 22.1227 2 19.2249 2 16ZM10 18C11.1046 18 12 17.1046 12 16C12 14.8954 11.1046 14 10 14C8.89543 14 8 14.8954 8 16C8 17.1046 8.89543 18 10 18ZM18 16C18 14.8954 17.1046 14 16 14C14.8954 14 14 14.8954 14 16C14 17.1046 14.8954 18 16 18C17.1046 18 18 17.1046 18 16ZM22 18C23.1046 18 24 17.1046 24 16C24 14.8954 23.1046 14 22 14C20.8954 14 20 14.8954 20 16C20 17.1046 20.8954 18 22 18Z" fill="black"/>
</svg>
