<svg width="32" height="32" viewBox="0 0 32 32" fill="none" xmlns="http://www.w3.org/2000/svg">
<path d="M24 12.1486C24 13.9482 23.4081 15.6039 22.4076 16.9394L22.3473 17.0198C21.6775 17.9133 20.8266 19.0484 20.2899 20.39L19.6459 22H12.3541L11.7101 20.39C11.1734 19.0484 10.3225 17.9133 9.65267 17.0198L9.59236 16.9394C8.59187 15.6039 8 13.9482 8 12.1486C8 7.73028 11.5817 4.14856 16 4.14856C20.4183 4.14856 24 7.73028 24 12.1486ZM11 24H21L22.1469 21.1328C22.5843 20.0392 23.2985 19.0859 24.0047 18.1432L24.0083 18.1385C25.2591 16.4689 26 14.3953 26 12.1486C26 6.62571 21.5228 2.14856 16 2.14856C10.4772 2.14856 6 6.62571 6 12.1486C6 14.3953 6.74091 16.4689 7.99173 18.1385L7.99523 18.1432C8.70146 19.0859 9.41569 20.0392 9.85313 21.1328L11 24ZM11 28V26H21V28C21 29.1046 20.1046 30 19 30H13C11.8954 30 11 29.1046 11 28Z" fill="black"/>
</svg>
