<svg width="32" height="32" viewBox="0 0 32 32" fill="none" xmlns="http://www.w3.org/2000/svg">
<path d="M24.0048 18.1432C23.2985 19.0859 22.5843 20.0392 22.1469 21.1328L21 24H11L9.85313 21.1328C9.41568 20.0392 8.70147 19.0859 7.99523 18.1432L7.99173 18.1385C6.74091 16.4689 6 14.3953 6 12.1486C6 6.62571 10.4772 2.14856 16 2.14856C21.5228 2.14856 26 6.62571 26 12.1486C26 14.3953 25.2591 16.4689 24.0083 18.1385L24.0048 18.1432ZM11 28V26H21V28C21 29.1046 20.1046 30 19 30H13C11.8954 30 11 29.1046 11 28Z" fill="black"/>
</svg>
