<svg width="32" height="32" viewBox="0 0 32 32" fill="none" xmlns="http://www.w3.org/2000/svg">
<path d="M11.9663 2.67268C11.8518 2.68437 11.7393 2.71083 11.6316 2.7514C5.68931 4.94741 2.01311 10.955 2.76319 17.2453C3.51327 23.5355 8.48922 28.5029 14.7814 29.2399C21.0735 29.9769 27.0672 26.2916 29.2504 20.3448C29.373 20.0134 29.3589 19.6468 29.2113 19.3258C29.0636 19.0047 28.7945 18.7554 28.463 18.6327C28.2982 18.5723 28.1231 18.545 27.9478 18.5523C27.7724 18.5597 27.6003 18.6016 27.4411 18.6757C27.282 18.7497 27.1391 18.8545 27.0205 18.9838C26.902 19.1132 26.8102 19.2648 26.7503 19.4297C24.987 24.2327 20.1772 27.1881 15.0963 26.593C10.0155 25.9979 6.01676 22.011 5.41093 16.9304C4.80511 11.8499 7.74852 7.02399 12.547 5.25068C12.712 5.19087 12.8636 5.09908 12.993 4.98057C13.1225 4.86207 13.2272 4.71919 13.3013 4.56012C13.3754 4.40106 13.4173 4.22894 13.4247 4.05363C13.4321 3.87833 13.4047 3.7033 13.3443 3.53857C13.2425 3.2624 13.0521 3.02769 12.8028 2.87106C12.5535 2.71442 12.2594 2.64467 11.9663 2.67268Z" fill="#0F3849"/>
<path d="M17.4127 2.69807C15.9028 2.53627 14.6441 3.81491 14.647 5.25203L14.6676 16.0042C14.6684 16.3568 14.8088 16.6947 15.0582 16.9441C15.3076 17.1934 15.6457 17.3338 15.9984 17.3345L26.6134 17.3501C28.0867 17.3523 29.3941 16.0647 29.2231 14.5202C28.8906 11.5177 27.5534 8.69867 25.4078 6.54072C23.2485 4.36901 20.4233 3.02068 17.4127 2.69807Z" fill="#0F3849"/>
</svg>
