<svg width="32" height="32" viewBox="0 0 32 32" fill="none" xmlns="http://www.w3.org/2000/svg">
<path d="M9 7H23C23 6.44772 22.5523 6 22 6H10C9.44772 6 9 6.44772 9 7ZM7 7C7 5.34315 8.34315 4 10 4H22C23.6569 4 25 5.34315 25 7H27C28.6569 7 30 8.34315 30 10V24C30 25.6569 28.6569 27 27 27H5C3.34315 27 2 25.6569 2 24V10C2 8.34315 3.34315 7 5 7H7ZM5 9C4.44772 9 4 9.44772 4 10V13.409C4 13.8746 4.32141 14.2787 4.77514 14.3834L12 16.0506V16C12 15.4477 12.4477 15 13 15H19C19.5523 15 20 15.4477 20 16V16.0506L27.2249 14.3834C27.6786 14.2787 28 13.8746 28 13.409V10C28 9.44772 27.5523 9 27 9H5ZM12 18.1032L4.32542 16.3321C4.21419 16.3065 4.10562 16.2748 4 16.2375V24C4 24.5523 4.44772 25 5 25H27C27.5523 25 28 24.5523 28 24V16.2375C27.8944 16.2748 27.7858 16.3065 27.6746 16.3321L20 18.1032V19C20 20.6569 18.6569 22 17 22H15C13.3431 22 12 20.6569 12 19V18.1032ZM14 19C14 19.5523 14.4477 20 15 20H17C17.5523 20 18 19.5523 18 19V17H14V19Z" fill="black"/>
</svg>
