<svg width="32" height="32" viewBox="0 0 32 32" fill="none" xmlns="http://www.w3.org/2000/svg">
<rect x="0.5" y="0.5" width="31" height="31" rx="15.5" stroke="black"/>
<path d="M6.08008 19.4427V19.9116V25.7971H10.1037V19.4427H6.08008Z" fill="black"/>
<path d="M11.3435 17.6173V18.0861V25.6372H15.3601V17.6173H11.3435ZM11.8401 18.1172H14.7201V25.1572H11.8401V18.1172Z" fill="black"/>
<path d="M16.6326 15.6918V16.1676V25.7971H20.6562V15.6918H16.6326Z" fill="black"/>
<path d="M22.0801 13.9572V14.5972V25.7971H25.9325V13.9572H22.0801ZM22.5601 14.4372H25.4401V25.3172H22.5601V14.4372Z" fill="black"/>
<path d="M24.1137 5.95715C23.1 5.95715 22.2663 6.7908 22.2663 7.80452C22.2663 7.98453 22.3002 8.15657 22.3491 8.32157L22.1964 8.41357L19.8228 9.83406L19.7087 9.90214C19.3713 9.54789 18.8978 9.32437 18.3747 9.32437C17.613 9.32437 16.9573 9.7937 16.6782 10.4578L14.0507 10.0015L13.8869 9.97206C13.7396 9.10281 12.9805 8.43381 12.0708 8.43381C11.0571 8.43381 10.2234 9.26194 10.2234 10.2757C10.2234 10.7199 10.3888 11.124 10.654 11.4441L8.58951 14.0771C8.40258 14.0128 8.20468 13.9704 7.99703 13.9704C6.98336 13.9704 6.14966 14.804 6.14966 15.8178C6.14966 16.8315 6.98336 17.6578 7.99703 17.6578C9.0107 17.6578 9.8444 16.8315 9.8444 15.8178C9.8444 15.3519 9.66392 14.9279 9.3752 14.6015L11.4194 11.9961C11.6227 12.0738 11.8416 12.123 12.0708 12.123C12.8608 12.123 13.5348 11.6137 13.7967 10.9105L13.8832 10.9252L16.52 11.3889L16.5568 11.3944C16.6685 12.3034 17.4373 13.0191 18.3747 13.0191C19.3884 13.0191 20.2221 12.1855 20.2221 11.1717C20.2221 11.0194 20.1986 10.8721 20.1632 10.7301L20.3067 10.6455L22.6785 9.22501L22.8349 9.13117C23.1679 9.45239 23.6189 9.6519 24.1137 9.6519C25.1274 9.6519 25.9611 8.81828 25.9611 7.80452C25.9611 6.7908 25.1274 5.95715 24.1137 5.95715ZM18.3747 10.2683C18.8792 10.2683 19.2781 10.6672 19.2781 11.1717C19.2781 11.6763 18.8792 12.0733 18.3747 12.0733C17.8701 12.0733 17.4731 11.6763 17.4731 11.1717C17.4731 10.6672 17.8701 10.2683 18.3747 10.2683ZM7.99703 14.9143C8.50158 14.9143 8.90047 15.3132 8.90047 15.8178C8.90047 16.3223 8.50158 16.7212 7.99703 16.7212C7.49248 16.7212 7.09542 16.3223 7.09542 15.8178C7.09542 15.3132 7.49248 14.9143 7.99703 14.9143Z" fill="black"/>
</svg>
