<svg width="32" height="32" viewBox="0 0 32 32" fill="none" xmlns="http://www.w3.org/2000/svg">
<path fill-rule="evenodd" clip-rule="evenodd" d="M6.33673 24.8878C6.42773 24.9788 6.5472 25.0245 6.66667 25.0245C6.78613 25.0245 6.9056 24.9788 6.9966 24.8878L9 22.8844L11.0034 24.8878C11.0944 24.9788 11.2139 25.0245 11.3333 25.0245C11.4528 25.0245 11.5723 24.9788 11.6633 24.8878C11.8457 24.7053 11.8457 24.4104 11.6633 24.2279L9.65987 22.2245L11.6633 20.2211C11.8457 20.0386 11.8457 19.7437 11.6633 19.5612C11.4808 19.3788 11.1859 19.3788 11.0034 19.5612L9 21.5646L6.9966 19.5612C6.81413 19.3788 6.5192 19.3788 6.33673 19.5612C6.15427 19.7437 6.15427 20.0386 6.33673 20.2211L8.34013 22.2245L6.33673 24.2279C6.15427 24.4104 6.15427 24.7053 6.33673 24.8878ZM20.2 24.0912H25.8C26.0576 24.0912 26.2667 23.8821 26.2667 23.6245C26.2667 23.3669 26.0576 23.1578 25.8 23.1578H20.2C19.9424 23.1578 19.7333 23.3669 19.7333 23.6245C19.7333 23.8821 19.9424 24.0912 20.2 24.0912ZM20.2 21.2912H25.8C26.0576 21.2912 26.2667 21.0821 26.2667 20.8245C26.2667 20.5669 26.0576 20.3578 25.8 20.3578H20.2C19.9424 20.3578 19.7333 20.5669 19.7333 20.8245C19.7333 21.0821 19.9424 21.2912 20.2 21.2912ZM20.2 8.2245C19.9424 8.2245 19.7333 8.43356 19.7333 8.69116C19.7333 8.94876 19.9424 9.15783 20.2 9.15783H25.8C26.0576 9.15783 26.2667 8.94876 26.2667 8.69116C26.2667 8.43356 26.0576 8.2245 25.8 8.2245H20.2ZM9 11.9578C9.2576 11.9578 9.46667 11.7488 9.46667 11.4912V9.15783H11.8C12.0576 9.15783 12.2667 8.94876 12.2667 8.69116C12.2667 8.43356 12.0576 8.2245 11.8 8.2245H9.46667V5.89116C9.46667 5.63356 9.2576 5.4245 9 5.4245C8.7424 5.4245 8.53333 5.63356 8.53333 5.89116V8.2245H6.2C5.9424 8.2245 5.73333 8.43356 5.73333 8.69116C5.73333 8.94876 5.9424 9.15783 6.2 9.15783H8.53333V11.4912C8.53333 11.7488 8.7424 11.9578 9 11.9578ZM30 4.0245V27.3578C30 28.5572 28.866 29.6912 27.6667 29.6912H4.33333C3.134 29.6912 2 28.5572 2 27.3578V4.0245C2 2.82516 3.134 1.69116 4.33333 1.69116H13.6667C13.9243 1.69116 14.1333 1.90023 14.1333 2.15783C14.1333 2.41543 13.9243 2.6245 13.6667 2.6245H4.33333C3.65293 2.6245 2.93333 3.3441 2.93333 4.0245V27.3578C2.93333 28.0382 3.65293 28.7578 4.33333 28.7578H27.6667C28.3471 28.7578 29.0667 28.0382 29.0667 27.3578V4.0245C29.0667 3.3441 28.3471 2.6245 27.6667 2.6245H16.4667V14.7578H27.6667C27.9243 14.7578 28.1333 14.9669 28.1333 15.2245C28.1333 15.4821 27.9243 15.6912 27.6667 15.6912H16.4667V27.3578C16.4667 27.6154 16.2576 27.8245 16 27.8245C15.7424 27.8245 15.5333 27.6154 15.5333 27.3578V15.6912H4.33333C4.07573 15.6912 3.86667 15.4821 3.86667 15.2245C3.86667 14.9669 4.07573 14.7578 4.33333 14.7578H15.5333V2.15783C15.5333 1.90023 15.7424 1.69116 16 1.69116H27.6667C28.866 1.69116 30 2.82516 30 4.0245Z" fill="black"/>
</svg>
