<svg width="32" height="32" viewBox="0 0 32 32" fill="none" xmlns="http://www.w3.org/2000/svg">
<path d="M9 2C8.44772 2 8 2.44772 8 3V4H7C5.34315 4 4 5.34315 4 7V10H28V7C28 5.34315 26.6569 4 25 4H24V3C24 2.44772 23.5523 2 23 2C22.4477 2 22 2.44772 22 3V4H10V3C10 2.44772 9.55228 2 9 2ZM28 12H4V25C4 26.6569 5.34315 28 7 28H25C26.6569 28 28 26.6569 28 25V12ZM17 15H19V17H17V15ZM15 15V17H13V15H15ZM11 19V21H9V19H11ZM11 25H9V23H11V25ZM13 19H15V21H13V19ZM15 23V25H13V23H15ZM17 19H19V21H17V19ZM19 23V25H17V23H19ZM23 19V21H21V19H23ZM23 17H21V15H23V17Z" fill="black"/>
</svg>
