<svg width="32" height="32" viewBox="0 0 32 32" fill="none" xmlns="http://www.w3.org/2000/svg">
<path d="M8 3C8 2.44772 8.44772 2 9 2C9.55228 2 10 2.44772 10 3V4H22V3C22 2.44772 22.4477 2 23 2C23.5523 2 24 2.44772 24 3V4H25C26.6569 4 28 5.34315 28 7V25C28 26.6569 26.6569 28 25 28H7C5.34315 28 4 26.6569 4 25V7C4 5.34315 5.34315 4 7 4H8V3ZM26 10H6V25C6 25.5523 6.44772 26 7 26H25C25.5523 26 26 25.5523 26 25V10ZM17 13H19V15H17V13ZM15 13H13V15H15V13ZM11 17V19H9V17H11ZM11 23V21H9V23H11ZM13 17H15V19H13V17ZM15 21H13V23H15V21ZM17 17H19V19H17V17ZM19 21H17V23H19V21ZM23 17V19H21V17H23ZM23 15V13H21V15H23Z" fill="black"/>
</svg>
