<svg width="32" height="32" viewBox="0 0 32 32" fill="none" xmlns="http://www.w3.org/2000/svg">
<path d="M8 3C8 2.44772 8.44772 2 9 2C9.55228 2 10 2.44772 10 3V4H22V3C22 2.44772 22.4477 2 23 2C23.5523 2 24 2.44772 24 3V4H25C26.6569 4 28 5.34315 28 7V25C28 26.6569 26.6569 28 25 28H7C5.34315 28 4 26.6569 4 25V7C4 5.34315 5.34315 4 7 4H8V3ZM26 10H6V25C6 25.5523 6.44772 26 7 26H25C25.5523 26 26 25.5523 26 25V10ZM8 16H15C15.5523 16 16 16.4477 16 17C16 17.5523 15.5523 18 15 18H8V16ZM19 12C18.4477 12 18 12.4477 18 13C18 13.5523 18.4477 14 19 14H24V12H19Z" fill="black"/>
</svg>
