<svg width="32" height="32" viewBox="0 0 32 32" fill="none" xmlns="http://www.w3.org/2000/svg">
<g clip-path="url(#clip0_1056_13733)">
<path d="M8.83333 14.3933C10.7533 18.1667 13.84 21.2533 17.62 23.1733L20.5533 20.2333C20.92 19.8667 21.4467 19.76 21.9067 19.9067C23.4 20.4 25.0067 20.6667 26.6667 20.6667C27.4067 20.6667 28 21.26 28 22V26.6667C28 27.4067 27.4067 28 26.6667 28C14.1467 28 4 17.8533 4 5.33333C4 4.59333 4.6 4 5.33333 4H10C10.74 4 11.3333 4.59333 11.3333 5.33333C11.3333 6.99333 11.6 8.6 12.0933 10.0933C12.24 10.5533 12.1333 11.08 11.7667 11.4467L8.83333 14.3933Z" fill="black"/>
</g>
<defs>
<clipPath id="clip0_1056_13733">
<rect width="32" height="32" fill="white"/>
</clipPath>
</defs>
</svg>
