<svg width="32" height="32" viewBox="0 0 32 32" fill="none" xmlns="http://www.w3.org/2000/svg">
<path d="M5.33301 4.5H10C10.4637 4.5 10.8328 4.8693 10.833 5.33301C10.833 7.04643 11.1082 8.70637 11.6182 10.25C11.7086 10.5395 11.6397 10.8661 11.4131 11.0928L11.4121 11.0938L8.47852 14.041L8.22363 14.2969L8.3877 14.6201C10.3557 18.4878 13.5191 21.6512 17.3936 23.6191L17.7178 23.7832L17.9736 23.5264L20.9072 20.5869C21.1339 20.3604 21.4606 20.2905 21.75 20.3809V20.3818C23.2936 20.8918 24.9536 21.167 26.667 21.167C27.1307 21.1672 27.5 21.5363 27.5 22V26.667C27.4998 27.1306 27.1306 27.4998 26.667 27.5C14.4231 27.5 4.5 17.5769 4.5 5.33301C4.50018 4.87104 4.87444 4.50018 5.33301 4.5Z" stroke="black"/>
</svg>
