<svg width="32" height="32" viewBox="0 0 32 32" fill="none" xmlns="http://www.w3.org/2000/svg">
<path d="M5 10C4.44772 10 4 10.4477 4 11V23C4 23.5523 4.44772 24 5 24H27C27.5523 24 28 23.5523 28 23V11C28 10.4477 27.5523 10 27 10H22.2299L19.7299 7H12.2701L9.77008 10H5ZM8.83333 8L11.0335 5.35982C11.2235 5.13182 11.5049 5 11.8017 5H20.1983C20.4951 5 20.7765 5.13182 20.9665 5.35982L23.1667 8H27C28.6569 8 30 9.34315 30 11V23C30 24.6569 28.6569 26 27 26H5C3.34315 26 2 24.6569 2 23V11C2 9.34315 3.34315 8 5 8H8.83333ZM20 16C20 13.7909 18.2091 12 16 12C13.7909 12 12 13.7909 12 16C12 18.2091 13.7909 20 16 20C18.2091 20 20 18.2091 20 16ZM22 16C22 19.3137 19.3137 22 16 22C12.6863 22 10 19.3137 10 16C10 12.6863 12.6863 10 16 10C19.3137 10 22 12.6863 22 16Z" fill="black"/>
</svg>
