<svg width="32" height="32" viewBox="0 0 32 32" fill="none" xmlns="http://www.w3.org/2000/svg">
<path d="M11.8017 5C11.5049 5 11.2235 5.13182 11.0335 5.35982L8.83333 8H5C3.34315 8 2 9.34315 2 11V23C2 24.6569 3.34315 26 5 26H27C28.6569 26 30 24.6569 30 23V11C30 9.34315 28.6569 8 27 8H23.1667L20.9665 5.35982C20.7765 5.13182 20.4951 5 20.1983 5H11.8017ZM20 16C20 18.2091 18.2091 20 16 20C13.7909 20 12 18.2091 12 16C12 13.7909 13.7909 12 16 12C18.2091 12 20 13.7909 20 16ZM22 16C22 19.3137 19.3137 22 16 22C12.6863 22 10 19.3137 10 16C10 12.6863 12.6863 10 16 10C19.3137 10 22 12.6863 22 16Z" fill="black"/>
</svg>
