<svg width="32" height="32" viewBox="0 0 32 32" fill="none" xmlns="http://www.w3.org/2000/svg">
<path d="M17.3846 4.07692C17.155 3.98124 16.8979 3.97459 16.6637 4.05826L2.66366 9.05826C2.26567 9.2004 2 9.57739 2 10V22C2 22.4037 2.24274 22.7678 2.61538 22.9231L14.6154 27.9231C14.845 28.0188 15.1021 28.0254 15.3363 27.9417L29.3363 22.9417C29.7343 22.7996 30 22.4226 30 22V10C30 9.5963 29.7573 9.23219 29.3846 9.07692L17.3846 4.07692ZM8 13.1667V17.2871L10 18.0014V14L14 15.6667V25.5L4 21.3333V11.5L8 13.1667ZM28 21.2953L16 25.581V15.7047L28 11.419V21.2953ZM26.2277 9.92823L15.0277 13.9282L11.7723 12.5718L22.9723 8.57177L26.2277 9.92823ZM20.2277 7.42823L9.02775 11.4282L5.77225 10.0718L16.9723 6.07177L20.2277 7.42823Z" fill="black"/>
</svg>
