<svg width="32" height="32" viewBox="0 0 32 32" fill="none" xmlns="http://www.w3.org/2000/svg">
<path d="M3 2C2.44772 2 2 2.44772 2 3C2 3.55228 2.44772 4 3 4H5.35143C5.83012 4 6.24168 4.33924 6.33305 4.80913L9.20372 19.5726C9.47783 20.9823 10.7125 22 12.1486 22H24.409C25.8059 22 27.018 21.0358 27.3321 19.6746L29.4091 10.6746C29.8429 8.79473 28.4152 7 26.4859 7H8.79651L8.29628 4.42739C8.02217 3.01772 6.78751 2 5.35143 2H3ZM26 27C26 28.1046 25.1046 29 24 29C22.8954 29 22 28.1046 22 27C22 25.8954 22.8954 25 24 25C25.1046 25 26 25.8954 26 27ZM12 29C13.1046 29 14 28.1046 14 27C14 25.8954 13.1046 25 12 25C10.8954 25 10 25.8954 10 27C10 28.1046 10.8954 29 12 29Z" fill="black"/>
</svg>
