<svg width="32" height="32" viewBox="0 0 32 32" fill="none" xmlns="http://www.w3.org/2000/svg">
<path d="M2 3C2 2.44772 2.44772 2 3 2H5.35143C6.78751 2 8.02217 3.01772 8.29628 4.42739L8.79651 7H26.4859C28.4152 7 29.8429 8.79473 29.4091 10.6746L27.3321 19.6746C27.018 21.0358 25.8059 22 24.409 22H12.1486C10.7125 22 9.47783 20.9823 9.20372 19.5726L6.33305 4.80913C6.24168 4.33924 5.83012 4 5.35143 4H3C2.44772 4 2 3.55228 2 3ZM9.1854 9L11.167 19.1909C11.2583 19.6608 11.6699 20 12.1486 20H24.409C24.8746 20 25.2787 19.6786 25.3834 19.2249L27.4603 10.2249C27.6049 9.59824 27.129 9 26.4859 9H9.1854ZM26 27C26 28.1046 25.1046 29 24 29C22.8954 29 22 28.1046 22 27C22 25.8954 22.8954 25 24 25C25.1046 25 26 25.8954 26 27ZM12 29C13.1046 29 14 28.1046 14 27C14 25.8954 13.1046 25 12 25C10.8954 25 10 25.8954 10 27C10 28.1046 10.8954 29 12 29Z" fill="black"/>
</svg>
