<svg width="32" height="32" viewBox="0 0 32 32" fill="none" xmlns="http://www.w3.org/2000/svg">
<path d="M7 6C6.44772 6 6 6.44772 6 7V25C6 25.5523 6.44772 26 7 26H25C25.5523 26 26 25.5523 26 25V7C26 6.44772 25.5523 6 25 6H7ZM4 7C4 5.34315 5.34315 4 7 4H25C26.6569 4 28 5.34315 28 7V25C28 26.6569 26.6569 28 25 28H7C5.34315 28 4 26.6569 4 25V7ZM23.8945 9.44719C24.1414 8.95321 23.9412 8.35254 23.4472 8.10555C22.9533 7.85856 22.3526 8.05878 22.1056 8.55276L17.9455 16.8729L14.2214 14.3901C13.9939 14.2385 13.7141 14.1866 13.4473 14.2466C13.1805 14.3066 12.9499 14.4732 12.8092 14.7077L8.14254 22.4855C7.85839 22.9591 8.01195 23.5733 8.48553 23.8575C8.95911 24.1416 9.57337 23.9881 9.85752 23.5145L13.9846 16.636L17.7787 19.1654C18.0173 19.3245 18.3128 19.3734 18.59 19.2998C18.8673 19.2262 19.0995 19.0371 19.2278 18.7805L23.8945 9.44719Z" fill="black"/>
</svg>
