<svg width="32" height="32" viewBox="0 0 32 32" fill="none" xmlns="http://www.w3.org/2000/svg">
<path d="M7 6C6.44772 6 6 6.44772 6 7V25C6 25.5523 6.44772 26 7 26H25C25.5523 26 26 25.5523 26 25V7C26 6.44772 25.5523 6 25 6H7ZM4 7C4 5.34315 5.34315 4 7 4H25C26.6569 4 28 5.34315 28 7V25C28 26.6569 26.6569 28 25 28H7C5.34315 28 4 26.6569 4 25V7ZM8.5 18C8.22386 18 8 18.2239 8 18.5V24H12V18.5C12 18.2239 11.7761 18 11.5 18H8.5ZM14 12.5C14 12.2239 14.2239 12 14.5 12H17.5C17.7761 12 18 12.2239 18 12.5V24H14V12.5ZM20.5 8C20.2239 8 20 8.22386 20 8.5V24H24V8.5C24 8.22386 23.7761 8 23.5 8H20.5Z" fill="black"/>
</svg>
