<svg width="32" height="32" viewBox="0 0 32 32" fill="none" xmlns="http://www.w3.org/2000/svg">
<path d="M7 4C5.34315 4 4 5.34315 4 7V25C4 26.6569 5.34315 28 7 28H25C26.6569 28 28 26.6569 28 25V7C28 5.34315 26.6569 4 25 4H7ZM23.5 8C23.7761 8 24 8.22386 24 8.5V11.5C24 11.7761 23.7761 12 23.5 12L8 12V8L23.5 8ZM20 14.5V17.5C20 17.7761 19.7761 18 19.5 18H8V14H19.5C19.7761 14 20 14.2239 20 14.5ZM14 20.5V23.5C14 23.7761 13.7761 24 13.5 24H8V20H13.5C13.7761 20 14 20.2239 14 20.5Z" fill="black"/>
</svg>
