<svg width="32" height="32" viewBox="0 0 32 32" fill="none" xmlns="http://www.w3.org/2000/svg">
<path d="M7 6C6.44772 6 6 6.44772 6 7V25C6 25.5523 6.44772 26 7 26H25C25.5523 26 26 25.5523 26 25V7C26 6.44772 25.5523 6 25 6H7ZM4 7C4 5.34315 5.34315 4 7 4H25C26.6569 4 28 5.34315 28 7V25C28 26.6569 26.6569 28 25 28H7C5.34315 28 4 26.6569 4 25V7ZM14 20.5C14 20.2239 13.7761 20 13.5 20H8V24H13.5C13.7761 24 14 23.7761 14 23.5V20.5ZM19.5 14C19.7761 14 20 14.2239 20 14.5V17.5C20 17.7761 19.7761 18 19.5 18H8V14L19.5 14ZM24 8.5C24 8.22386 23.7761 8 23.5 8L8 8V12L23.5 12C23.7761 12 24 11.7761 24 11.5V8.5Z" fill="black"/>
</svg>
