<svg width="32" height="32" viewBox="0 0 32 32" fill="none" xmlns="http://www.w3.org/2000/svg">
<path d="M7 4C5.34315 4 4 5.34315 4 7V25C4 26.6569 5.34315 28 7 28H25C26.6569 28 28 26.6569 28 25V7C28 5.34315 26.6569 4 25 4H7ZM23.8944 9.44721L19.2278 18.7805C19.0995 19.0371 18.8672 19.2262 18.59 19.2998C18.3128 19.3735 18.0173 19.3245 17.7786 19.1654L13.9846 16.636L9.85749 23.5145C9.57334 23.9881 8.95908 24.1416 8.4855 23.8575C8.01192 23.5733 7.85836 22.9591 8.14251 22.4855L12.8092 14.7077C12.9499 14.4732 13.1805 14.3066 13.4473 14.2466C13.7141 14.1866 13.9938 14.2385 14.2214 14.3902L17.9455 16.8729L22.1056 8.55279C22.3526 8.05881 22.9532 7.85858 23.4472 8.10557C23.9412 8.35256 24.1414 8.95324 23.8944 9.44721Z" fill="black"/>
</svg>
