<svg width="32" height="32" viewBox="0 0 32 32" fill="none" xmlns="http://www.w3.org/2000/svg">
<path d="M22.7147 9.30047C23.101 9.69514 23.0943 10.3283 22.6996 10.7146L15.6987 17.5678L14.5389 15.9044L21.3006 9.28539C21.6952 8.89906 22.3284 8.90581 22.7147 9.30047ZM10.9161 19.4507L12.0759 21.1141L10.4409 22.7146C10.2307 22.9203 9.94069 23.0231 9.6479 22.9956C9.35511 22.9681 9.08926 22.8132 8.92107 22.5719L4.1798 15.7719C3.86392 15.3189 3.97511 14.6956 4.42814 14.3797C4.88118 14.0638 5.5045 14.175 5.82038 14.6281L9.88601 20.459L10.9161 19.4507ZM28.6996 10.7146C29.0943 10.3283 29.101 9.69514 28.7147 9.30047C28.3284 8.90581 27.6952 8.89906 27.3006 9.28539L15.886 20.459L11.8204 14.6281C11.5045 14.175 10.8812 14.0638 10.4281 14.3797C9.97511 14.6956 9.86392 15.3189 10.1798 15.7719L14.9211 22.5719C15.0893 22.8132 15.3551 22.9681 15.6479 22.9956C15.9407 23.0231 16.2307 22.9203 16.4409 22.7146L28.6996 10.7146Z" fill="black"/>
</svg>
