<svg width="32" height="32" viewBox="0 0 32 32" fill="none" xmlns="http://www.w3.org/2000/svg">
<path d="M28 16C28 9.37258 22.6274 4 16 4C9.37258 4 4 9.37258 4 16C4 22.6274 9.37258 28 16 28C22.6274 28 28 22.6274 28 16ZM30 16C30 23.732 23.732 30 16 30C8.26801 30 2 23.732 2 16C2 8.26801 8.26801 2 16 2C23.732 2 30 8.26801 30 16ZM22.6457 12.7019C23.0334 12.3086 23.0287 11.6754 22.6354 11.2878C22.242 10.9001 21.6089 10.9047 21.2212 11.2981L14.1961 18.4264L11.8299 14.9085C11.5216 14.4503 10.9002 14.3287 10.442 14.6369C9.98372 14.9452 9.8621 15.5665 10.1703 16.0248L13.2196 20.5581C13.3872 20.8072 13.6577 20.9678 13.9565 20.9957C14.2554 21.0236 14.551 20.9157 14.7616 20.7019L22.6457 12.7019Z" fill="black"/>
</svg>
