<svg width="12" height="12" viewBox="0 0 12 12" fill="none" xmlns="http://www.w3.org/2000/svg">
<g clip-path="url(#clip0_57_435)">
<path d="M6 11.25C8.8995 11.25 11.25 8.8995 11.25 6C11.25 3.10051 8.8995 0.75 6 0.75C3.10051 0.75 0.75 3.10051 0.75 6C0.75 8.8995 3.10051 11.25 6 11.25ZM8.49209 4.76322L5.53557 7.76322C5.45656 7.84339 5.34573 7.88383 5.23366 7.87338C5.12159 7.86293 5.02014 7.80269 4.95732 7.7093L3.81383 6.0093C3.69824 5.83745 3.74385 5.60443 3.9157 5.48884C4.08754 5.37325 4.32056 5.41885 4.43615 5.5907L5.32351 6.90992L7.95791 4.23678C8.10328 4.08927 8.34071 4.08753 8.48822 4.23291C8.63573 4.37828 8.63747 4.61571 8.49209 4.76322Z" fill="#2DAD0A"/>
</g>
<defs>
<clipPath id="clip0_57_435">
<rect width="12" height="12" fill="white"/>
</clipPath>
</defs>
</svg>
