<svg width="32" height="32" viewBox="0 0 32 32" fill="none" xmlns="http://www.w3.org/2000/svg">
<path d="M7 6C6.44772 6 6 6.44772 6 7V25C6 25.5523 6.44772 26 7 26H25C25.5523 26 26 25.5523 26 25V7C26 6.44772 25.5523 6 25 6H7ZM4 7C4 5.34315 5.34315 4 7 4H25C26.6569 4 28 5.34315 28 7V25C28 26.6569 26.6569 28 25 28H7C5.34315 28 4 26.6569 4 25V7ZM22.6456 12.7019C23.0332 12.3086 23.0286 11.6754 22.6353 11.2878C22.2419 10.9001 21.6087 10.9047 21.2211 11.2981L14.196 18.4264L11.8297 14.9085C11.5215 14.4503 10.9001 14.3287 10.4419 14.6369C9.98359 14.9452 9.86198 15.5665 10.1702 16.0248L13.2195 20.5581C13.387 20.8072 13.6576 20.9678 13.9564 20.9957C14.2553 21.0236 14.5508 20.9157 14.7615 20.7019L22.6456 12.7019Z" fill="black"/>
</svg>
