<svg width="32" height="32" viewBox="0 0 32 32" fill="none" xmlns="http://www.w3.org/2000/svg">
<path d="M16 30C23.732 30 30 23.732 30 16C30 8.26801 23.732 2 16 2C8.26801 2 2 8.26801 2 16C2 23.732 8.26801 30 16 30ZM22.6456 12.7019L14.7615 20.7019C14.5508 20.9157 14.2553 21.0236 13.9564 20.9957C13.6576 20.9678 13.387 20.8072 13.2195 20.5581L10.1702 16.0248C9.86198 15.5665 9.98359 14.9452 10.4419 14.6369C10.9001 14.3287 11.5215 14.4503 11.8297 14.9085L14.196 18.4264L21.2211 11.2981C21.6087 10.9047 22.2419 10.9001 22.6353 11.2878C23.0286 11.6754 23.0332 12.3086 22.6456 12.7019Z" fill="black"/>
</svg>
