<svg width="32" height="32" viewBox="0 0 32 32" fill="none" xmlns="http://www.w3.org/2000/svg">
<path d="M28 16C28 9.37258 22.6274 4 16 4C9.37258 4 4 9.37258 4 16C4 22.6274 9.37258 28 16 28C22.6274 28 28 22.6274 28 16ZM30 16C30 23.732 23.732 30 16 30C8.26801 30 2 23.732 2 16C2 8.26801 8.26801 2 16 2C23.732 2 30 8.26801 30 16ZM21.7071 17.2929L16.7071 12.2929C16.3166 11.9024 15.6834 11.9024 15.2929 12.2929L10.2929 17.2929C9.90237 17.6834 9.90237 18.3166 10.2929 18.7071C10.6834 19.0976 11.3166 19.0976 11.7071 18.7071L16 14.4142L20.2929 18.7071C20.6834 19.0976 21.3166 19.0976 21.7071 18.7071C22.0976 18.3166 22.0976 17.6834 21.7071 17.2929Z" fill="black"/>
</svg>
