<svg width="32" height="32" viewBox="0 0 32 32" fill="none" xmlns="http://www.w3.org/2000/svg">
<path d="M16 30C23.732 30 30 23.732 30 16C30 8.26801 23.732 2 16 2C8.26801 2 2 8.26801 2 16C2 23.732 8.26801 30 16 30ZM21.7071 17.2929C22.0976 17.6834 22.0976 18.3166 21.7071 18.7071C21.3166 19.0976 20.6834 19.0976 20.2929 18.7071L16 14.4142L11.7071 18.7071C11.3166 19.0976 10.6834 19.0976 10.2929 18.7071C9.90237 18.3166 9.90237 17.6834 10.2929 17.2929L15.2929 12.2929C15.6834 11.9024 16.3166 11.9024 16.7071 12.2929L21.7071 17.2929Z" fill="black"/>
</svg>
