<svg width="32" height="32" viewBox="0 0 32 32" fill="none" xmlns="http://www.w3.org/2000/svg">
<path d="M28 16C28 9.37258 22.6274 4 16 4C9.37258 4 4 9.37258 4 16C4 22.6274 9.37258 28 16 28C22.6274 28 28 22.6274 28 16ZM30 16C30 23.732 23.732 30 16 30C8.26801 30 2 23.732 2 16C2 8.26801 8.26801 2 16 2C23.732 2 30 8.26801 30 16ZM17.2929 10.2929L12.2929 15.2929C11.9024 15.6834 11.9024 16.3166 12.2929 16.7071L17.2929 21.7071C17.6834 22.0976 18.3166 22.0976 18.7071 21.7071C19.0976 21.3166 19.0976 20.6834 18.7071 20.2929L14.4142 16L18.7071 11.7071C19.0976 11.3166 19.0976 10.6834 18.7071 10.2929C18.3166 9.90237 17.6834 9.90237 17.2929 10.2929Z" fill="black"/>
</svg>
