<svg width="32" height="32" viewBox="0 0 32 32" fill="none" xmlns="http://www.w3.org/2000/svg">
<path d="M23.7071 9.70711L16.7071 16.7071C16.3166 17.0976 15.6834 17.0976 15.2929 16.7071L8.29289 9.70711C7.90237 9.31658 7.90237 8.68342 8.29289 8.29289C8.68342 7.90237 9.31658 7.90237 9.70711 8.29289L16 14.5858L22.2929 8.29289C22.6834 7.90237 23.3166 7.90237 23.7071 8.29289C24.0976 8.68342 24.0976 9.31658 23.7071 9.70711ZM23.7071 17.7071L16.7071 24.7071C16.3166 25.0976 15.6834 25.0976 15.2929 24.7071L8.29289 17.7071C7.90237 17.3166 7.90237 16.6834 8.29289 16.2929C8.68342 15.9024 9.31658 15.9024 9.70711 16.2929L16 22.5858L22.2929 16.2929C22.6834 15.9024 23.3166 15.9024 23.7071 16.2929C24.0976 16.6834 24.0976 17.3166 23.7071 17.7071Z" fill="black"/>
</svg>
