<svg width="32" height="32" viewBox="0 0 32 32" fill="none" xmlns="http://www.w3.org/2000/svg">
<path d="M7 6C6.44772 6 6 6.44772 6 7V25C6 25.5523 6.44772 26 7 26H25C25.5523 26 26 25.5523 26 25V7C26 6.44772 25.5523 6 25 6H7ZM4 7C4 5.34315 5.34315 4 7 4H25C26.6569 4 28 5.34315 28 7V25C28 26.6569 26.6569 28 25 28H7C5.34315 28 4 26.6569 4 25V7ZM16.7071 12.2929L21.7071 17.2929C22.0976 17.6834 22.0976 18.3166 21.7071 18.7071C21.3166 19.0976 20.6834 19.0976 20.2929 18.7071L16 14.4142L11.7071 18.7071C11.3166 19.0976 10.6834 19.0976 10.2929 18.7071C9.90237 18.3166 9.90237 17.6834 10.2929 17.2929L15.2929 12.2929C15.6834 11.9024 16.3166 11.9024 16.7071 12.2929Z" fill="black"/>
</svg>
