<svg width="32" height="32" viewBox="0 0 32 32" fill="none" xmlns="http://www.w3.org/2000/svg">
<path d="M28 16C28 9.37258 22.6274 4 16 4C9.37258 4 4 9.37258 4 16C4 22.6274 9.37258 28 16 28C22.6274 28 28 22.6274 28 16ZM30 16C30 23.732 23.732 30 16 30C8.26801 30 2 23.732 2 16C2 8.26801 8.26801 2 16 2C23.732 2 30 8.26801 30 16ZM14.7071 21.7071L19.7071 16.7071C20.0976 16.3166 20.0976 15.6834 19.7071 15.2929L14.7071 10.2929C14.3166 9.90237 13.6834 9.90237 13.2929 10.2929C12.9024 10.6834 12.9024 11.3166 13.2929 11.7071L17.5858 16L13.2929 20.2929C12.9024 20.6834 12.9024 21.3166 13.2929 21.7071C13.6834 22.0976 14.3166 22.0976 14.7071 21.7071Z" fill="black"/>
</svg>
