<svg width="32" height="32" viewBox="0 0 32 32" fill="none" xmlns="http://www.w3.org/2000/svg">
<path d="M16 30C23.732 30 30 23.732 30 16C30 8.26801 23.732 2 16 2C8.26801 2 2 8.26801 2 16C2 23.732 8.26801 30 16 30ZM17.2929 10.2929C17.6834 9.90237 18.3166 9.90237 18.7071 10.2929C19.0976 10.6834 19.0976 11.3166 18.7071 11.7071L14.4142 16L18.7071 20.2929C19.0976 20.6834 19.0976 21.3166 18.7071 21.7071C18.3166 22.0976 17.6834 22.0976 17.2929 21.7071L12.2929 16.7071C11.9024 16.3166 11.9024 15.6834 12.2929 15.2929L17.2929 10.2929Z" fill="black"/>
</svg>
