<svg width="32" height="32" viewBox="0 0 32 32" fill="none" xmlns="http://www.w3.org/2000/svg">
<path d="M9.70711 8.29289L16.7071 15.2929C17.0976 15.6834 17.0976 16.3166 16.7071 16.7071L9.70711 23.7071C9.31658 24.0976 8.68342 24.0976 8.29289 23.7071C7.90237 23.3166 7.90237 22.6834 8.29289 22.2929L14.5858 16L8.2929 9.70711C7.90237 9.31658 7.90237 8.68342 8.2929 8.29289C8.68342 7.90237 9.31658 7.90237 9.70711 8.29289ZM17.7071 8.29289L24.7071 15.2929C25.0976 15.6834 25.0976 16.3166 24.7071 16.7071L17.7071 23.7071C17.3166 24.0976 16.6834 24.0976 16.2929 23.7071C15.9024 23.3166 15.9024 22.6834 16.2929 22.2929L22.5858 16L16.2929 9.70711C15.9024 9.31658 15.9024 8.68342 16.2929 8.29289C16.6834 7.90237 17.3166 7.90237 17.7071 8.29289Z" fill="black"/>
</svg>
