<svg width="32" height="32" viewBox="0 0 32 32" fill="none" xmlns="http://www.w3.org/2000/svg">
<path d="M15.2929 7.29289C15.6834 6.90237 16.3166 6.90237 16.7071 7.29289L23.7071 14.2929C24.0976 14.6834 24.0976 15.3166 23.7071 15.7071C23.3166 16.0976 22.6834 16.0976 22.2929 15.7071L16 9.41421L9.70711 15.7071C9.31658 16.0976 8.68342 16.0976 8.29289 15.7071C7.90237 15.3166 7.90237 14.6834 8.29289 14.2929L15.2929 7.29289ZM8.29289 22.2929L15.2929 15.2929C15.6834 14.9024 16.3166 14.9024 16.7071 15.2929L23.7071 22.2929C24.0976 22.6834 24.0976 23.3166 23.7071 23.7071C23.3166 24.0976 22.6834 24.0976 22.2929 23.7071L16 17.4142L9.70711 23.7071C9.31658 24.0976 8.68342 24.0976 8.29289 23.7071C7.90237 23.3166 7.90237 22.6834 8.29289 22.2929Z" fill="black"/>
</svg>
