<svg width="32" height="32" viewBox="0 0 32 32" fill="none" xmlns="http://www.w3.org/2000/svg">
<path d="M7 4C5.34315 4 4 5.34315 4 7V25C4 26.6569 5.34315 28 7 28H25C26.6569 28 28 26.6569 28 25V7C28 5.34315 26.6569 4 25 4H7ZM19.7071 16.7071L14.7071 21.7071C14.3166 22.0976 13.6834 22.0976 13.2929 21.7071C12.9024 21.3166 12.9024 20.6834 13.2929 20.2929L17.5858 16L13.2929 11.7071C12.9024 11.3166 12.9024 10.6834 13.2929 10.2929C13.6834 9.90237 14.3166 9.90237 14.7071 10.2929L19.7071 15.2929C20.0976 15.6834 20.0976 16.3166 19.7071 16.7071Z" fill="black"/>
</svg>
