<svg width="32" height="32" viewBox="0 0 32 32" fill="none" xmlns="http://www.w3.org/2000/svg">
<path d="M7.29289 16.7071C6.90237 16.3166 6.90237 15.6834 7.29289 15.2929L14.2929 8.29289C14.6834 7.90237 15.3166 7.90237 15.7071 8.29289C16.0976 8.68342 16.0976 9.31658 15.7071 9.70711L9.41421 16L15.7071 22.2929C16.0976 22.6834 16.0976 23.3166 15.7071 23.7071C15.3166 24.0976 14.6834 24.0976 14.2929 23.7071L7.29289 16.7071ZM22.2929 23.7071L15.2929 16.7071C14.9024 16.3166 14.9024 15.6834 15.2929 15.2929L22.2929 8.29289C22.6834 7.90237 23.3166 7.90237 23.7071 8.29289C24.0976 8.68342 24.0976 9.31658 23.7071 9.70711L17.4142 16L23.7071 22.2929C24.0976 22.6834 24.0976 23.3166 23.7071 23.7071C23.3166 24.0976 22.6834 24.0976 22.2929 23.7071Z" fill="black"/>
</svg>
