<svg width="32" height="32" viewBox="0 0 32 32" fill="none" xmlns="http://www.w3.org/2000/svg">
<path d="M7 6C6.44772 6 6 6.44772 6 7V25C6 25.5523 6.44772 26 7 26H25C25.5523 26 26 25.5523 26 25V7C26 6.44772 25.5523 6 25 6H7ZM4 7C4 5.34315 5.34315 4 7 4H25C26.6569 4 28 5.34315 28 7V25C28 26.6569 26.6569 28 25 28H7C5.34315 28 4 26.6569 4 25V7ZM12.2929 15.2929L17.2929 10.2929C17.6834 9.90237 18.3166 9.90237 18.7071 10.2929C19.0976 10.6834 19.0976 11.3166 18.7071 11.7071L14.4142 16L18.7071 20.2929C19.0976 20.6834 19.0976 21.3166 18.7071 21.7071C18.3166 22.0976 17.6834 22.0976 17.2929 21.7071L12.2929 16.7071C11.9024 16.3166 11.9024 15.6834 12.2929 15.2929Z" fill="black"/>
</svg>
