<svg width="32" height="32" viewBox="0 0 32 32" fill="none" xmlns="http://www.w3.org/2000/svg">
<path d="M28 16C28 9.37258 22.6274 4 16 4C9.37258 4 4 9.37258 4 16C4 22.6274 9.37258 28 16 28C22.6274 28 28 22.6274 28 16ZM30 16C30 23.732 23.732 30 16 30C8.26801 30 2 23.732 2 16C2 8.26801 8.26801 2 16 2C23.732 2 30 8.26801 30 16ZM10.2929 14.7071L15.2929 19.7071C15.6834 20.0976 16.3166 20.0976 16.7071 19.7071L21.7071 14.7071C22.0976 14.3166 22.0976 13.6834 21.7071 13.2929C21.3166 12.9024 20.6834 12.9024 20.2929 13.2929L16 17.5858L11.7071 13.2929C11.3166 12.9024 10.6834 12.9024 10.2929 13.2929C9.90237 13.6834 9.90237 14.3166 10.2929 14.7071Z" fill="black"/>
</svg>
