<svg width="32" height="32" viewBox="0 0 32 32" fill="none" xmlns="http://www.w3.org/2000/svg">
<path d="M7 6C6.44772 6 6 6.44772 6 7V25C6 25.5523 6.44772 26 7 26H25C25.5523 26 26 25.5523 26 25V7C26 6.44772 25.5523 6 25 6H7ZM4 7C4 5.34315 5.34315 4 7 4H25C26.6569 4 28 5.34315 28 7V25C28 26.6569 26.6569 28 25 28H7C5.34315 28 4 26.6569 4 25V7ZM15.2929 19.7071L10.2929 14.7071C9.90237 14.3166 9.90237 13.6834 10.2929 13.2929C10.6834 12.9024 11.3166 12.9024 11.7071 13.2929L16 17.5858L20.2929 13.2929C20.6834 12.9024 21.3166 12.9024 21.7071 13.2929C22.0976 13.6834 22.0976 14.3166 21.7071 14.7071L16.7071 19.7071C16.3166 20.0976 15.6834 20.0976 15.2929 19.7071Z" fill="black"/>
</svg>
