<svg width="32" height="32" viewBox="0 0 32 32" fill="none" xmlns="http://www.w3.org/2000/svg">
<path d="M13.5 5C8.80558 5 5 8.80558 5 13.5C5 17.3244 7.52566 20.5588 11 21.6264V14C11 12.3431 12.3431 11 14 11H21.6264C20.5588 7.52566 17.3244 5 13.5 5ZM11 23.7006C6.40799 22.579 3 18.4375 3 13.5C3 7.70101 7.70101 3 13.5 3C18.4375 3 22.579 6.40799 23.7006 11H26C27.6569 11 29 12.3431 29 14V26C29 27.6569 27.6569 29 26 29H14C12.3431 29 11 27.6569 11 26V23.7006ZM14 13C13.4477 13 13 13.4477 13 14V26C13 26.5523 13.4477 27 14 27H26C26.5523 27 27 26.5523 27 26V14C27 13.4477 26.5523 13 26 13H14Z" fill="black"/>
</svg>
