<svg width="32" height="32" viewBox="0 0 32 32" fill="none" xmlns="http://www.w3.org/2000/svg">
<path d="M14.6284 2.0664C15.08 2.02246 15.5375 2 16 2C16.4625 2 16.92 2.02246 17.3716 2.0664C17.9213 2.1199 18.3235 2.60888 18.27 3.15857C18.2165 3.70825 17.7275 4.1105 17.1779 4.057C16.7906 4.01931 16.3977 4 16 4C15.6023 4 15.2094 4.01931 14.8221 4.057C14.2725 4.1105 13.7835 3.70825 13.73 3.15857C13.6765 2.60888 14.0787 2.1199 14.6284 2.0664ZM11.544 3.74266C11.7722 4.24558 11.5495 4.8383 11.0466 5.06654C10.3274 5.39293 9.64586 5.78836 9.01046 6.24448C8.56181 6.56655 7.93701 6.46393 7.61495 6.01528C7.29288 5.56662 7.3955 4.94183 7.84416 4.61976C8.58508 4.08789 9.38033 3.62642 10.2201 3.24531C10.723 3.01707 11.3157 3.23974 11.544 3.74266ZM20.456 3.74266C20.6843 3.23974 21.277 3.01707 21.7799 3.24531C22.6197 3.62643 23.4149 4.08789 24.1558 4.61976C24.6045 4.94183 24.7071 5.56662 24.3851 6.01528C24.063 6.46393 23.4382 6.56655 22.9895 6.24449C22.3541 5.78836 21.6726 5.39293 20.9534 5.06654C20.4505 4.8383 20.2278 4.24558 20.456 3.74266ZM6.01528 7.61494C6.46393 7.93701 6.56655 8.5618 6.24449 9.01046C5.78836 9.64586 5.39293 10.3274 5.06654 11.0466C4.8383 11.5495 4.24558 11.7722 3.74266 11.544C3.23974 11.3157 3.01707 10.723 3.24531 10.2201C3.62643 9.38033 4.08789 8.58508 4.61976 7.84415C4.94183 7.3955 5.56662 7.29288 6.01528 7.61494ZM25.9847 7.61495C26.4334 7.29288 27.0582 7.3955 27.3802 7.84416C27.9121 8.58508 28.3736 9.38033 28.7547 10.2201C28.9829 10.723 28.7603 11.3157 28.2573 11.544C27.7544 11.7722 27.1617 11.5495 26.9335 11.0466C26.6071 10.3274 26.2116 9.64586 25.7555 9.01046C25.4334 8.56181 25.5361 7.93701 25.9847 7.61495ZM3.15857 13.73C3.70825 13.7835 4.1105 14.2725 4.057 14.8221C4.01931 15.2094 4 15.6023 4 16C4 16.3977 4.01931 16.7906 4.057 17.1779C4.1105 17.7275 3.70825 18.2165 3.15857 18.27C2.60888 18.3235 2.1199 17.9213 2.0664 17.3716C2.02246 16.92 2 16.4625 2 16C2 15.5375 2.02246 15.08 2.0664 14.6284C2.1199 14.0787 2.60888 13.6765 3.15857 13.73ZM28.8414 13.73C29.3911 13.6765 29.8801 14.0787 29.9336 14.6284C29.9775 15.08 30 15.5375 30 16C30 16.4625 29.9775 16.92 29.9336 17.3716C29.8801 17.9213 29.3911 18.3235 28.8414 18.27C28.2917 18.2165 27.8895 17.7275 27.943 17.1779C27.9807 16.7906 28 16.3977 28 16C28 15.6023 27.9807 15.2094 27.943 14.8221C27.8895 14.2725 28.2917 13.7835 28.8414 13.73ZM3.74266 20.456C4.24558 20.2278 4.8383 20.4505 5.06654 20.9534C5.39293 21.6726 5.78836 22.3541 6.24448 22.9895C6.56655 23.4382 6.46393 24.063 6.01528 24.3851C5.56662 24.7071 4.94183 24.6045 4.61976 24.1558C4.08789 23.4149 3.62642 22.6197 3.24531 21.7799C3.01707 21.277 3.23974 20.6843 3.74266 20.456ZM28.2573 20.456C28.7603 20.6843 28.9829 21.277 28.7547 21.7799C28.3736 22.6197 27.9121 23.4149 27.3802 24.1558C27.0582 24.6045 26.4334 24.7071 25.9847 24.3851C25.5361 24.063 25.4334 23.4382 25.7555 22.9895C26.2116 22.3541 26.6071 21.6726 26.9335 20.9534C27.1617 20.4505 27.7544 20.2278 28.2573 20.456ZM7.61494 25.9847C7.93701 25.5361 8.5618 25.4334 9.01046 25.7555C9.64586 26.2116 10.3274 26.6071 11.0466 26.9335C11.5495 27.1617 11.7722 27.7544 11.544 28.2573C11.3157 28.7603 10.723 28.9829 10.2201 28.7547C9.38033 28.3736 8.58508 27.9121 7.84415 27.3802C7.3955 27.0582 7.29288 26.4334 7.61494 25.9847ZM24.3851 25.9847C24.7071 26.4334 24.6045 27.0582 24.1558 27.3802C23.4149 27.9121 22.6197 28.3736 21.7799 28.7547C21.277 28.9829 20.6843 28.7603 20.456 28.2573C20.2278 27.7544 20.4505 27.1617 20.9534 26.9335C21.6726 26.6071 22.3541 26.2116 22.9895 25.7555C23.4382 25.4334 24.063 25.5361 24.3851 25.9847ZM13.73 28.8414C13.7835 28.2917 14.2725 27.8895 14.8221 27.943C15.2094 27.9807 15.6023 28 16 28C16.3977 28 16.7906 27.9807 17.1779 27.943C17.7275 27.8895 18.2165 28.2917 18.27 28.8414C18.3235 29.3911 17.9213 29.8801 17.3716 29.9336C16.92 29.9775 16.4625 30 16 30C15.5375 30 15.08 29.9775 14.6284 29.9336C14.0787 29.8801 13.6765 29.3911 13.73 28.8414Z" fill="black"/>
</svg>
