<svg width="32" height="32" viewBox="0 0 32 32" fill="none" xmlns="http://www.w3.org/2000/svg">
<path d="M12 4V6H20V4H12ZM10 4C10 2.89543 10.8954 2 12 2H20C21.1046 2 22 2.89543 22 4V6C22 7.10457 21.1046 8 20 8H12C10.8954 8 10 7.10457 10 6V4ZM7 4H8V6H7C6.44772 6 6 6.44772 6 7V27C6 27.5523 6.44772 28 7 28H25C25.5523 28 26 27.5523 26 27V7C26 6.44772 25.5523 6 25 6H24V4H25C26.6569 4 28 5.34315 28 7V27C28 28.6569 26.6569 30 25 30H7C5.34315 30 4 28.6569 4 27V7C4 5.34315 5.34315 4 7 4Z" fill="black"/>
</svg>
