<svg width="32" height="32" viewBox="0 0 32 32" fill="none" xmlns="http://www.w3.org/2000/svg">
<path d="M28 16C28 9.37258 22.6274 4 16 4C9.37258 4 4 9.37258 4 16C4 22.6274 9.37258 28 16 28C22.6274 28 28 22.6274 28 16ZM30 16C30 23.732 23.732 30 16 30C8.26801 30 2 23.732 2 16C2 8.26801 8.26801 2 16 2C23.732 2 30 8.26801 30 16ZM17 7C17 6.44772 16.5523 6 16 6C15.4477 6 15 6.44772 15 7V15H9C8.44772 15 8 15.4477 8 16C8 16.5523 8.44772 17 9 17H15.5C16.3284 17 17 16.3284 17 15.5V7Z" fill="black"/>
</svg>
