<svg width="32" height="32" viewBox="0 0 32 32" fill="none" xmlns="http://www.w3.org/2000/svg">
<path d="M15.346 25.9786C17.6546 26.1299 19.9442 25.476 21.8248 24.1284C23.7054 22.7808 25.0605 20.8229 25.6593 18.5882C25.8022 18.0547 26.3506 17.7381 26.884 17.8811C27.4175 18.024 27.7341 18.5723 27.5911 19.1058C26.8726 21.7875 25.2464 24.137 22.9898 25.7541C20.7331 27.3712 17.9855 28.1559 15.2152 27.9743C12.4449 27.7927 9.82321 26.6562 7.79691 24.7583C5.77062 22.8605 4.46506 20.3188 4.10268 17.5663C3.74031 14.8138 4.34354 12.0208 5.8096 9.66316C7.27565 7.30555 9.51382 5.52921 12.1427 4.63681C14.7717 3.74441 17.6287 3.79116 20.227 4.7691C21.8373 5.37518 23.2865 6.31568 24.4862 7.51562L26.5442 5.45768C26.8592 5.1427 27.3977 5.36578 27.3977 5.81124V11.3396C27.3977 11.6158 27.1739 11.8396 26.8977 11.8396H21.3693C20.9239 11.8396 20.7008 11.3011 21.0158 10.9861L23.072 8.92983C22.0722 7.92981 20.8645 7.146 19.5225 6.64091C17.3573 5.82596 14.9764 5.787 12.7856 6.53067C10.5949 7.27434 8.72971 8.75462 7.508 10.7193C6.28629 12.684 5.78359 15.0115 6.08557 17.3052C6.38755 19.599 7.47552 21.7171 9.1641 23.2986C10.8527 24.8801 13.0374 25.8272 15.346 25.9786ZM20.2426 20.2426C19.8521 20.6332 19.2189 20.6332 18.8284 20.2426L15.4393 16.8536C15.158 16.5723 15 16.1907 15 15.7929L15 9.00001C15 8.44773 15.4478 8.00002 16 8.00002C16.5523 8.00002 17 8.44774 17 9.00002L17 15.5858L20.2426 18.8284C20.6332 19.219 20.6332 19.8521 20.2426 20.2426Z" fill="black"/>
</svg>
