<svg width="32" height="32" viewBox="0 0 32 32" fill="none" xmlns="http://www.w3.org/2000/svg">
<path d="M16.654 25.9786C14.3454 26.1299 12.0557 25.476 10.1752 24.1284C8.2946 22.7808 6.93948 20.8229 6.34069 18.5882C6.19774 18.0547 5.64941 17.7381 5.11594 17.8811C4.58248 18.024 4.26589 18.5723 4.40883 19.1058C5.12738 21.7875 6.75354 24.137 9.01021 25.7541C11.2669 27.3712 14.0145 28.1559 16.7848 27.9743C19.5551 27.7927 22.1768 26.6562 24.2031 24.7583C26.2293 22.8605 27.5349 20.3188 27.8973 17.5663C28.2597 14.8138 27.6564 12.0208 26.1904 9.66316C24.7243 7.30555 22.4861 5.52921 19.8572 4.63681C17.2283 3.74441 14.3713 3.79116 11.7729 4.7691C10.1626 5.37518 8.71343 6.31568 7.51372 7.51562L5.45579 5.45768C5.14081 5.1427 4.60224 5.36578 4.60224 5.81124V11.3396C4.60224 11.6158 4.8261 11.8396 5.10224 11.8396H10.6306C11.0761 11.8396 11.2992 11.3011 10.9842 10.9861L8.92794 8.92983C9.92773 7.92981 11.1354 7.146 12.4774 6.64091C14.6427 5.82596 17.0236 5.787 19.2143 6.53067C21.4051 7.27434 23.2703 8.75462 24.492 10.7193C25.7137 12.684 26.2164 15.0115 25.9144 17.3052C25.6124 19.599 24.5244 21.7171 22.8359 23.2986C21.1473 24.8801 18.9626 25.8272 16.654 25.9786ZM20.2426 20.2426C19.8521 20.6332 19.2189 20.6332 18.8284 20.2426L15.4393 16.8536C15.158 16.5723 15 16.1907 15 15.7929L15 9.00001C15 8.44773 15.4477 8.00002 16 8.00002C16.5523 8.00002 17 8.44774 17 9.00002L17 15.5858L20.2426 18.8284C20.6331 19.219 20.6331 19.8521 20.2426 20.2426Z" fill="black"/>
</svg>
