<svg width="32" height="32" viewBox="0 0 32 32" fill="none" xmlns="http://www.w3.org/2000/svg">
<path d="M22.4476 12.9174L23.3959 13.0723C26.007 13.4989 28 15.7686 28 18.5C28 21.5376 25.5376 24 22.5 24H9C6.23858 24 4 21.7614 4 19C4 17.4472 4.88432 16.0976 6.18605 15.4335L7.00628 15.0151L7.22171 14.1198C8.06681 10.6079 11.2313 8 15 8C17.9909 8 20.6013 9.64043 21.9759 12.0802L22.4476 12.9174ZM5.27721 13.6519C3.33204 14.6442 2 16.6666 2 19C2 22.866 5.13401 26 9 26H22.5C26.6421 26 30 22.6421 30 18.5C30 14.7727 27.2811 11.6805 23.7184 11.0985C22.0038 8.05524 18.7419 6 15 6C10.2859 6 6.33358 9.26199 5.27721 13.6519Z" fill="black"/>
</svg>
