<svg width="32" height="32" viewBox="0 0 32 32" fill="none" xmlns="http://www.w3.org/2000/svg">
<path d="M5.70711 4.29289C5.31658 3.90237 4.68342 3.90237 4.29289 4.29289C3.90237 4.68342 3.90237 5.31658 4.29289 5.70711L26.2929 27.7071C26.6834 28.0976 27.3166 28.0976 27.7071 27.7071C28.0976 27.3166 28.0976 26.6834 27.7071 26.2929L5.70711 4.29289ZM5.27721 13.6519C5.52866 12.607 5.94418 11.626 6.495 10.7376L21.7574 26H9C5.13401 26 2 22.866 2 19C2 16.6666 3.33204 14.6442 5.27721 13.6519ZM30 18.5C30 20.5094 29.2098 22.3342 27.9232 23.6806L11.0521 6.80949C12.2633 6.28854 13.5979 6 15 6C18.7419 6 22.0038 8.05524 23.7184 11.0985C27.2811 11.6805 30 14.7727 30 18.5Z" fill="black"/>
</svg>
