<svg width="32" height="32" viewBox="0 0 32 32" fill="none" xmlns="http://www.w3.org/2000/svg">
<path d="M21.9759 12.0802C20.6013 9.64043 17.9909 8 15 8C11.2313 8 8.06681 10.6079 7.22171 14.1198L7.00628 15.0151L6.18605 15.4335C4.88432 16.0976 4 17.4472 4 19C4 21.7614 6.23858 24 9 24H22.5C25.5376 24 28 21.5376 28 18.5C28 15.7686 26.007 13.4989 23.3959 13.0723L22.4476 12.9174L21.9759 12.0802ZM2 19C2 16.6666 3.33204 14.6442 5.27721 13.6519C6.33358 9.26199 10.2859 6 15 6C18.7419 6 22.0038 8.05524 23.7184 11.0985C27.2811 11.6805 30 14.7727 30 18.5C30 22.6421 26.6421 26 22.5 26H9C5.13401 26 2 22.866 2 19ZM20.2071 15.7071C20.5976 15.3166 20.5976 14.6834 20.2071 14.2929C19.8166 13.9024 19.1834 13.9024 18.7929 14.2929L14.5 18.5858L12.7071 16.7929C12.3166 16.4024 11.6834 16.4024 11.2929 16.7929C10.9024 17.1834 10.9024 17.8166 11.2929 18.2071L14.5 21.4142L20.2071 15.7071Z" fill="black"/>
</svg>
