<svg width="32" height="32" viewBox="0 0 32 32" fill="none" xmlns="http://www.w3.org/2000/svg">
<path d="M22.4476 10.9174L21.9759 10.0802C20.6013 7.64043 17.9909 6 15 6C11.2313 6 8.06681 8.60787 7.22171 12.1198L7.00628 13.0151L6.18605 13.4335C4.88432 14.0976 4 15.4472 4 17C4 19.7614 6.23858 22 9 22H13.5V24H9C5.13401 24 2 20.866 2 17C2 14.6666 3.33204 12.6442 5.27721 11.6519C6.33358 7.26199 10.2859 4 15 4C18.7419 4 22.0038 6.05524 23.7184 9.09847C27.2811 9.68049 30 12.7727 30 16.5C30 20.6421 26.6421 24 22.5 24H18.5V22H22.5C25.5376 22 28 19.5376 28 16.5C28 13.7686 26.007 11.4989 23.3959 11.0723L22.4476 10.9174ZM15 27C15 27.5523 15.4477 28 16 28C16.5523 28 17 27.5523 17 27L17 16.4142L18.2929 17.7071C18.6834 18.0976 19.3166 18.0976 19.7071 17.7071C20.0976 17.3166 20.0976 16.6834 19.7071 16.2929L16.7071 13.2929C16.3166 12.9024 15.6834 12.9024 15.2929 13.2929L12.2929 16.2929C11.9024 16.6834 11.9024 17.3166 12.2929 17.7071C12.6834 18.0976 13.3166 18.0976 13.7071 17.7071L15 16.4142V27Z" fill="black"/>
</svg>
