<svg width="32" height="32" viewBox="0 0 32 32" fill="none" xmlns="http://www.w3.org/2000/svg">
<path opacity="0.99" d="M21.9375 8.40969L22.9142 8.54583C25.2225 8.86755 27 10.8529 27 13.25C27 15.8734 24.8734 18 22.25 18H9.3C6.92518 18 5 16.0748 5 13.7C5 12.3563 5.77932 11.1907 6.9196 10.6378L7.76418 10.2283L7.98887 9.317C8.74186 6.26293 11.502 4 14.7857 4H15.3571C17.9664 4 20.2449 5.42663 21.4508 7.55197L21.9375 8.40969ZM6.04702 8.83823C4.24352 9.71269 3 11.5611 3 13.7C3 17.1794 5.82061 20 9.3 20H22.25C25.9779 20 29 16.9779 29 13.25C29 9.84118 26.4731 7.02253 23.1903 6.56498C21.6436 3.83908 18.7152 2 15.3571 2H14.7857C10.5604 2 7.0151 4.91178 6.04702 8.83823ZM8.76 22.32C8.91108 22.1186 9.14819 22 9.4 22C10.0592 22 10.4355 22.7526 10.04 23.28L5.24 29.68C5.08892 29.8814 4.85181 30 4.6 30C3.94076 30 3.56446 29.2474 3.96 28.72L8.76 22.32ZM14.4 22C14.1482 22 13.9111 22.1186 13.76 22.32L8.96 28.72C8.56446 29.2474 8.94076 30 9.6 30C9.85181 30 10.0889 29.8814 10.24 29.68L15.04 23.28C15.4355 22.7526 15.0592 22 14.4 22ZM18.76 22.32C18.9111 22.1186 19.1482 22 19.4 22C20.0592 22 20.4355 22.7526 20.04 23.28L15.24 29.68C15.0889 29.8814 14.8518 30 14.6 30C13.9408 30 13.5645 29.2474 13.96 28.72L18.76 22.32ZM24.4 22C24.1482 22 23.9111 22.1186 23.76 22.32L18.96 28.72C18.5645 29.2474 18.9408 30 19.6 30C19.8518 30 20.0889 29.8814 20.24 29.68L25.04 23.28C25.4355 22.7526 25.0592 22 24.4 22Z" fill="black"/>
</svg>
