<svg width="32" height="32" viewBox="0 0 32 32" fill="none" xmlns="http://www.w3.org/2000/svg">
<path d="M30 18.5C30 14.7727 27.2811 11.6805 23.7184 11.0985C22.0038 8.05524 18.7419 6 15 6C10.2859 6 6.33358 9.26199 5.27721 13.6519C3.33204 14.6442 2 16.6666 2 19C2 22.866 5.13401 26 9 26H22.5C26.6421 26 30 22.6421 30 18.5ZM20.2071 15.7071L14.5 21.4142L11.2929 18.2071C10.9024 17.8166 10.9024 17.1834 11.2929 16.7929C11.6834 16.4024 12.3166 16.4024 12.7071 16.7929L14.5 18.5858L18.7929 14.2929C19.1834 13.9024 19.8166 13.9024 20.2071 14.2929C20.5976 14.6834 20.5976 15.3166 20.2071 15.7071Z" fill="black"/>
</svg>
