<svg width="32" height="32" viewBox="0 0 32 32" fill="none" xmlns="http://www.w3.org/2000/svg">
<path opacity="0.99" d="M21.9375 8.40969L22.9142 8.54583C25.2225 8.86755 27 10.8529 27 13.25C27 15.8734 24.8734 18 22.25 18H9.3C6.92518 18 5 16.0748 5 13.7C5 12.3563 5.77932 11.1907 6.9196 10.6378L7.76418 10.2283L7.98887 9.317C8.74186 6.26293 11.502 4 14.7857 4H15.3571C17.9664 4 20.2449 5.42663 21.4508 7.55197L21.9375 8.40969ZM6.04702 8.83823C4.24352 9.71269 3 11.5611 3 13.7C3 17.1794 5.82061 20 9.3 20H22.25C25.9779 20 29 16.9779 29 13.25C29 9.84118 26.4731 7.02253 23.1903 6.56498C21.6436 3.83908 18.7152 2 15.3571 2H14.7857C10.5604 2 7.0151 4.91178 6.04702 8.83823ZM8.76 22.32C8.91109 22.1186 9.1482 22 9.4 22C10.0592 22 10.4355 22.7526 10.04 23.28L8.24 25.68C8.08892 25.8814 7.85181 26 7.6 26C6.94076 26 6.56446 25.2474 6.96 24.72L8.76 22.32ZM19.4 22C19.1482 22 18.9111 22.1186 18.76 22.32L16.96 24.72C16.5645 25.2474 16.9408 26 17.6 26C17.8518 26 18.0889 25.8814 18.24 25.68L20.04 23.28C20.4355 22.7526 20.0592 22 19.4 22ZM12.26 25.32C12.4111 25.1186 12.6482 25 12.9 25C13.5592 25 13.9355 25.7526 13.54 26.28L11.74 28.68C11.5889 28.8814 11.3518 29 11.1 29C10.4408 29 10.0645 28.2474 10.46 27.72L12.26 25.32ZM22.9 25C22.6482 25 22.4111 25.1186 22.26 25.32L20.46 27.72C20.0645 28.2474 20.4408 29 21.1 29C21.3518 29 21.5889 28.8814 21.74 28.68L23.54 26.28C23.9355 25.7526 23.5592 25 22.9 25Z" fill="black"/>
</svg>
