<svg width="32" height="32" viewBox="0 0 32 32" fill="none" xmlns="http://www.w3.org/2000/svg">
<path d="M5.70711 4.29289C5.31658 3.90237 4.68342 3.90237 4.29289 4.29289C3.90237 4.68342 3.90237 5.31658 4.29289 5.70711L26.2929 27.7071C26.6834 28.0976 27.3166 28.0976 27.7071 27.7071C28.0976 27.3166 28.0976 26.6834 27.7071 26.2929L5.70711 4.29289ZM5.27721 13.6519C5.52866 12.607 5.94418 11.626 6.495 10.7376L7.95759 12.2002C7.63416 12.7983 7.38476 13.4422 7.22171 14.1198L7.00628 15.0151L6.18605 15.4335C4.88432 16.0976 4 17.4472 4 19C4 21.7614 6.23858 24 9 24H19.7574L21.7574 26H9C5.13401 26 2 22.866 2 19C2 16.6666 3.33204 14.6442 5.27721 13.6519ZM28 18.5C28 19.9571 27.4334 21.2818 26.5085 22.2659L27.9232 23.6806C29.2098 22.3342 30 20.5094 30 18.5C30 14.7727 27.2811 11.6805 23.7184 11.0985C22.0038 8.05524 18.7419 6 15 6C13.5979 6 12.2633 6.28854 11.0521 6.80949L12.6068 8.36421C13.3626 8.12754 14.1665 8 15 8C17.9909 8 20.6013 9.64043 21.9759 12.0802L22.4476 12.9174L23.3959 13.0723C26.007 13.4989 28 15.7686 28 18.5Z" fill="black"/>
</svg>
