<svg width="32" height="32" viewBox="0 0 32 32" fill="none" xmlns="http://www.w3.org/2000/svg">
<path d="M19.9578 6.28737C20.1165 5.75837 19.8163 5.20089 19.2873 5.04219C18.7584 4.8835 18.2009 5.18368 18.0422 5.71267L12.0422 25.7127C11.8835 26.2417 12.1837 26.7991 12.7127 26.9578C13.2416 27.1165 13.7991 26.8164 13.9578 26.2874L19.9578 6.28737ZM2.29289 16.7071C1.90237 16.3166 1.90237 15.6834 2.29289 15.2929L8.29289 9.29291C8.68342 8.90239 9.31658 8.90239 9.70711 9.29291C10.0976 9.68344 10.0976 10.3166 9.70711 10.7071L4.41421 16L9.70711 21.2929C10.0976 21.6834 10.0976 22.3166 9.70711 22.7071C9.31658 23.0977 8.68342 23.0977 8.29289 22.7071L2.29289 16.7071ZM29.7071 16.7071C30.0976 16.3166 30.0976 15.6834 29.7071 15.2929L23.7071 9.29291C23.3166 8.90239 22.6834 8.90239 22.2929 9.29291C21.9024 9.68344 21.9024 10.3166 22.2929 10.7071L27.5858 16L22.2929 21.2929C21.9024 21.6834 21.9024 22.3166 22.2929 22.7071C22.6834 23.0977 23.3166 23.0977 23.7071 22.7071L29.7071 16.7071Z" fill="black"/>
</svg>
