<svg width="32" height="32" viewBox="0 0 32 32" fill="none" xmlns="http://www.w3.org/2000/svg">
<path d="M3.29289 15.2929C2.90237 15.6834 2.90237 16.3166 3.29289 16.7071L10.2929 23.7071C10.6834 24.0976 11.3166 24.0976 11.7071 23.7071C12.0976 23.3166 12.0976 22.6834 11.7071 22.2929L5.41421 16L11.7071 9.70711C12.0976 9.31658 12.0976 8.68342 11.7071 8.29289C11.3166 7.90237 10.6834 7.90237 10.2929 8.29289L3.29289 15.2929ZM21.7071 8.29289L28.7071 15.2929C29.0976 15.6834 29.0976 16.3166 28.7071 16.7071L21.7071 23.7071C21.3166 24.0976 20.6834 24.0976 20.2929 23.7071C19.9024 23.3166 19.9024 22.6834 20.2929 22.2929L26.5858 16L20.2929 9.70711C19.9024 9.31658 19.9024 8.68342 20.2929 8.29289C20.6834 7.90237 21.3166 7.90237 21.7071 8.29289Z" fill="black"/>
</svg>
