<svg width="32" height="32" viewBox="0 0 32 32" fill="none" xmlns="http://www.w3.org/2000/svg">
<path d="M7 4C6.44772 4 6 4.44772 6 5V9C6 9.55228 6.44772 10 7 10C7.55228 10 8 9.55228 8 9V5C8 4.44772 7.55228 4 7 4ZM16 28C20.4183 28 24 24.4183 24 20H26C28.2091 20 30 18.2091 30 16C30 13.7909 28.2091 12 26 12H2V20C2 24.4183 5.58172 28 10 28H16ZM26 18H24V14H26C27.1046 14 28 14.8954 28 16C28 17.1046 27.1046 18 26 18ZM12 5C12 4.44772 12.4477 4 13 4C13.5523 4 14 4.44772 14 5V9C14 9.55228 13.5523 10 13 10C12.4477 10 12 9.55228 12 9V5ZM19 4C18.4477 4 18 4.44772 18 5V9C18 9.55228 18.4477 10 19 10C19.5523 10 20 9.55228 20 9V5C20 4.44772 19.5523 4 19 4Z" fill="black"/>
</svg>
