<svg width="32" height="32" viewBox="0 0 32 32" fill="none" xmlns="http://www.w3.org/2000/svg">
<path d="M16 30C23.732 30 30 23.732 30 16C30 8.26801 23.732 2 16 2C8.26801 2 2 8.26801 2 16C2 23.732 8.26801 30 16 30ZM12.6613 13.1766C12.7621 12.9461 12.9461 12.7621 13.1766 12.6612L21.7906 8.89271C22.6243 8.52795 23.4723 9.37596 23.1076 10.2097L19.339 18.8233C19.2382 19.0538 19.0542 19.2378 18.8237 19.3386L10.2098 23.1075C9.37603 23.4723 8.52801 22.6243 8.89277 21.7905L12.6613 13.1766ZM17.4143 17.4143C16.6333 18.1953 15.3669 18.1953 14.5859 17.4143C13.8048 16.6332 13.8048 15.3669 14.5859 14.5858C15.3669 13.8048 16.6333 13.8048 17.4143 14.5858C18.1953 15.3669 18.1953 16.6332 17.4143 17.4143Z" fill="black"/>
</svg>
