<svg width="32" height="32" viewBox="0 0 32 32" fill="none" xmlns="http://www.w3.org/2000/svg">
<path d="M28 16C28 9.37258 22.6274 4 16 4C9.37258 4 4 9.37258 4 16C4 22.6274 9.37258 28 16 28C22.6274 28 28 22.6274 28 16ZM30 16C30 23.732 23.732 30 16 30C8.26801 30 2 23.732 2 16C2 8.26801 8.26801 2 16 2C23.732 2 30 8.26801 30 16ZM12.6612 13.1766C12.7621 12.9461 12.9461 12.7621 13.1766 12.6613L21.7906 8.89274C22.6244 8.52799 23.4724 9.37601 23.1076 10.2097L19.3391 18.8234C19.2382 19.0539 19.0542 19.2379 18.8237 19.3387L10.2098 23.1076C9.37603 23.4723 8.528 22.6243 8.89276 21.7906L12.6612 13.1766ZM17.4143 17.4143C18.1954 16.6333 18.1954 15.367 17.4143 14.5859C16.6333 13.8048 15.3669 13.8048 14.5859 14.5859C13.8048 15.3669 13.8048 16.6333 14.5859 17.4143C15.3669 18.1954 16.6333 18.1954 17.4143 17.4143Z" fill="black"/>
</svg>
