<svg width="32" height="32" viewBox="0 0 32 32" fill="none" xmlns="http://www.w3.org/2000/svg">
<path d="M11.0001 2C10.4478 2 10.0001 2.44772 10.0001 3C10.0001 3.55228 10.4478 4 11.0001 4H12.0001V10.7878L4.71125 27.1877C4.12344 28.5103 5.09155 30 6.53887 30H25.4613C26.9087 30 27.8768 28.5103 27.289 27.1877L20.0001 10.7878V4H21.0001C21.5524 4 22.0001 3.55228 22.0001 3C22.0001 2.44772 21.5524 2 21.0001 2H11.0001ZM14.0001 10.7878V4H18.0001V10.7878C18.0001 11.0676 18.0588 11.3443 18.1725 11.6001L20.2565 16.2892C18.9644 17.1065 17.007 18.1164 15.115 18.6444C14.1191 18.9223 13.1985 19.0503 12.4301 18.9821C11.7313 18.92 11.209 18.7028 10.8352 18.3333L13.8277 11.6001C13.9414 11.3443 14.0001 11.0676 14.0001 10.7878ZM9.99617 20.2211C10.6729 20.6782 11.4559 20.9035 12.2531 20.9742C13.3507 21.0717 14.5296 20.8842 15.6526 20.5708C17.662 20.01 19.6756 18.9934 21.0767 18.1345L25.4613 28L6.53887 28L9.99617 20.2211Z" fill="black"/>
</svg>
