<svg width="32" height="32" viewBox="0 0 32 32" fill="none" xmlns="http://www.w3.org/2000/svg">
<path d="M10.0001 3C10.0001 2.44772 10.4478 2 11.0001 2H21.0001C21.5524 2 22.0001 2.44772 22.0001 3C22.0001 3.55228 21.5524 4 21.0001 4H20.0001V10.7878L27.289 27.1877C27.8768 28.5103 26.9087 30 25.4613 30H6.53887C5.09155 30 4.12344 28.5103 4.71125 27.1877L12.0001 10.7878V4H11.0001C10.4478 4 10.0001 3.55228 10.0001 3ZM14.0001 4V10.7878C14.0001 11.0676 13.9414 11.3443 13.8277 11.6001L10.8352 18.3332C11.209 18.7027 11.7313 18.9199 12.43 18.982C13.1985 19.0502 14.1191 18.9222 15.115 18.6443C17.007 18.1162 18.9644 17.1064 20.2565 16.2891L18.1725 11.6001C18.0588 11.3443 18.0001 11.0676 18.0001 10.7878V4H14.0001Z" fill="black"/>
</svg>
