<svg width="32" height="32" viewBox="0 0 32 32" fill="none" xmlns="http://www.w3.org/2000/svg">
<path d="M28 7.5C28 9.98528 25.9853 12 23.5 12C22.1606 12 20.9579 11.4148 20.1335 10.4862L13.7167 14.3363C13.4904 13.6947 13.1369 13.1132 12.6865 12.622L19.1706 8.73154C19.0595 8.34014 19 7.92702 19 7.5C19 5.01472 21.0147 3 23.5 3C25.9853 3 28 5.01472 28 7.5ZM9 21C11.7614 21 14 18.7614 14 16C14 13.2386 11.7614 11 9 11C6.23858 11 4 13.2386 4 16C4 18.7614 6.23858 21 9 21ZM28 24.5C28 26.9853 25.9853 29 23.5 29C21.0147 29 19 26.9853 19 24.5C19 24.073 19.0595 23.6599 19.1706 23.2685L12.6865 19.378C13.1369 18.8868 13.4904 18.3053 13.7167 17.6637L20.1335 21.5138C20.9579 20.5852 22.1606 20 23.5 20C25.9853 20 28 22.0147 28 24.5Z" fill="black"/>
</svg>
