<svg width="32" height="32" viewBox="0 0 32 32" fill="none" xmlns="http://www.w3.org/2000/svg">
<path d="M4 7C4 6.44772 4.44772 6 5 6H13C15.2091 6 17 7.79086 17 10V22C17 23.1046 17.8954 24 19 24H24.5858L22.7929 22.2071C22.4024 21.8166 22.4024 21.1834 22.7929 20.7929C23.1834 20.4024 23.8166 20.4024 24.2071 20.7929L27.7071 24.2929C27.8032 24.389 27.8757 24.4998 27.9245 24.6181C27.9732 24.7358 28 24.8648 28 25C28 25.1352 27.9732 25.2641 27.9246 25.3817L27.9236 25.384C27.8748 25.5015 27.8027 25.6116 27.7071 25.7071L24.2071 29.2071C23.8166 29.5976 23.1834 29.5976 22.7929 29.2071C22.4024 28.8166 22.4024 28.1834 22.7929 27.7929L24.5858 26H19C16.7909 26 15 24.2091 15 22V10C15 8.89543 14.1046 8 13 8H5C4.44772 8 4 7.55228 4 7Z" fill="black"/>
</svg>
