<svg width="32" height="32" viewBox="0 0 32 32" fill="none" xmlns="http://www.w3.org/2000/svg">
<path d="M23.5 10C22.1193 10 21 8.88071 21 7.5C21 6.11929 22.1193 5 23.5 5C24.8807 5 26 6.11929 26 7.5C26 8.88071 24.8807 10 23.5 10ZM23.5 12C25.9853 12 28 9.98528 28 7.5C28 5.01472 25.9853 3 23.5 3C21.0147 3 19 5.01472 19 7.5C19 7.92702 19.0595 8.34014 19.1706 8.73154L12.6865 12.622C13.1369 13.1132 13.4904 13.6947 13.7167 14.3363L20.1335 10.4862C20.9579 11.4148 22.1606 12 23.5 12ZM9 19C7.34315 19 6 17.6569 6 16C6 14.3431 7.34315 13 9 13C10.6569 13 12 14.3431 12 16C12 17.6569 10.6569 19 9 19ZM9 21C11.7614 21 14 18.7614 14 16C14 13.2386 11.7614 11 9 11C6.23858 11 4 13.2386 4 16C4 18.7614 6.23858 21 9 21ZM26 24.5C26 23.1193 24.8807 22 23.5 22C22.1193 22 21 23.1193 21 24.5C21 25.8807 22.1193 27 23.5 27C24.8807 27 26 25.8807 26 24.5ZM28 24.5C28 26.9853 25.9853 29 23.5 29C21.0147 29 19 26.9853 19 24.5C19 24.073 19.0595 23.6599 19.1706 23.2685L12.6865 19.378C13.1369 18.8868 13.4904 18.3053 13.7167 17.6637L20.1335 21.5138C20.9579 20.5852 22.1606 20 23.5 20C25.9853 20 28 22.0147 28 24.5Z" fill="black"/>
</svg>
