<svg width="32" height="32" viewBox="0 0 32 32" fill="none" xmlns="http://www.w3.org/2000/svg">
<path d="M7.79289 11.2071C8.18342 11.5976 8.81658 11.5976 9.20711 11.2071C9.59763 10.8166 9.59763 10.1834 9.20711 9.79289L7.41421 8H13C14.1046 8 15 8.89543 15 10V22C15 24.2091 16.7909 26 19 26H24.5858L22.7929 27.7929C22.4024 28.1834 22.4024 28.8166 22.7929 29.2071C23.1834 29.5976 23.8166 29.5976 24.2071 29.2071L27.7059 25.7083L27.718 25.6961C27.8077 25.6036 27.876 25.498 27.9229 25.3856C27.9726 25.2669 28 25.1367 28 25C28 24.7239 27.8881 24.4739 27.7071 24.2929L24.2071 20.7929C23.8166 20.4024 23.1834 20.4024 22.7929 20.7929C22.4024 21.1834 22.4024 21.8166 22.7929 22.2071L24.5858 24H19C17.8954 24 17 23.1046 17 22V10C17 7.79086 15.2091 6 13 6H7.41421L9.20711 4.20711C9.59763 3.81658 9.59763 3.18342 9.20711 2.79289C8.81658 2.40237 8.18342 2.40237 7.79289 2.79289L4.29349 6.2923L4.2864 6.29945C3.99719 6.59394 3.92702 7.02299 4.07588 7.38278C4.12468 7.50073 4.19702 7.61123 4.29289 7.70711L7.79289 11.2071Z" fill="black"/>
</svg>
