<svg width="32" height="32" viewBox="0 0 32 32" fill="none" xmlns="http://www.w3.org/2000/svg">
<path d="M18.8548 17.27C19.9811 16.7318 20.9352 15.8903 21.6098 14.84H23.3498C23.7338 14.8174 24.0934 14.6439 24.35 14.3572C24.6067 14.0706 24.7396 13.6942 24.7198 13.31V9.71496C24.7204 9.52543 24.6865 9.33736 24.6198 9.15996V9.14996C24.1096 7.3901 23.2224 5.76241 22.0198 4.37996L21.9548 4.30496C21.167 3.43194 20.1882 2.75263 19.0948 2.31996C17.958 1.88109 16.7407 1.68976 15.5241 1.75873C14.3075 1.82771 13.1196 2.15541 12.0398 2.71996C11.2921 3.13491 10.618 3.67044 10.0448 4.30496L9.97976 4.37996C8.77717 5.76241 7.88996 7.3901 7.37977 9.14996V9.15996C7.31304 9.33736 7.27915 9.52543 7.27977 9.71496V13.31C7.25996 13.6942 7.39288 14.0706 7.64952 14.3572C7.90616 14.6439 8.26571 14.8174 8.64977 14.84H10.3898C11.0643 15.8903 12.0184 16.7318 13.1448 17.27C10.9948 17.8426 9.09363 19.1084 7.73591 20.8711C6.37819 22.6338 5.63967 24.795 5.63477 27.02V29.75C5.63477 29.8826 5.68744 30.0097 5.78121 30.1035C5.87498 30.1973 6.00216 30.25 6.13477 30.25H25.8648C25.9974 30.25 26.1245 30.1973 26.2183 30.1035C26.3121 30.0097 26.3648 29.8826 26.3648 29.75V27.02C26.3599 24.795 25.6213 22.6338 24.2636 20.8711C22.9059 19.1084 21.0048 17.8426 18.8548 17.27ZM23.7198 9.71496V13.31C23.7198 13.59 23.5448 13.84 23.3498 13.84H22.1448C22.2298 13.63 22.3098 13.415 22.3748 13.195C22.3748 13.19 22.3748 13.19 22.3798 13.185C22.7762 11.8784 22.7587 10.4812 22.3298 9.18496H23.3498C23.5448 9.18496 23.7198 9.43496 23.7198 9.71496ZM8.64977 13.84C8.45477 13.84 8.27977 13.59 8.27977 13.31V9.71496C8.27977 9.43496 8.45477 9.18496 8.64977 9.18496H9.66977C9.16635 10.7079 9.23207 12.3618 9.85476 13.84H8.64977ZM8.77977 8.18496C9.25225 7.03909 9.90929 5.97837 10.7248 5.04496L10.7848 4.97996C11.2821 4.42444 11.8706 3.95776 12.5248 3.59996C13.4767 3.10974 14.521 2.82524 15.59 2.76495C16.659 2.70465 17.7288 2.8699 18.7298 3.24996C19.6813 3.62559 20.5322 4.21794 21.2148 4.97996L21.2748 5.04496C22.0902 5.97837 22.7473 7.03909 23.2198 8.18496H21.9098C21.3487 7.10166 20.5008 6.19339 19.4585 5.55941C18.4162 4.92542 17.2197 4.59011 15.9998 4.59011C14.7798 4.59011 13.5833 4.92542 12.541 5.55941C11.4988 6.19339 10.6508 7.10166 10.0898 8.18496H8.77977ZM10.3348 11.255C10.3338 10.4576 10.5012 9.66905 10.826 8.94084C11.1508 8.21264 11.6256 7.56119 12.2195 7.02912C12.8134 6.49705 13.5128 6.09633 14.2722 5.85318C15.0316 5.61002 15.8337 5.52991 16.6262 5.61808C17.4186 5.70625 18.1836 5.96071 18.8709 6.36483C19.5583 6.76895 20.1526 7.31361 20.615 7.9632C21.0773 8.61279 21.3974 9.35267 21.5542 10.1345C21.711 10.9162 21.7009 11.7223 21.5248 12.5H19.8548C19.7522 12.2078 19.5614 11.9547 19.3089 11.7756C19.0563 11.5965 18.7544 11.5002 18.4448 11.5H16.9448C16.5469 11.5 16.1654 11.658 15.8841 11.9393C15.6028 12.2206 15.4448 12.6021 15.4448 13C15.4448 13.3978 15.6028 13.7793 15.8841 14.0606C16.1654 14.3419 16.5469 14.5 16.9448 14.5H18.4448C18.7544 14.4997 19.0563 14.4034 19.3089 14.2243C19.5614 14.0452 19.7522 13.7921 19.8548 13.5H21.1998C20.6832 14.6965 19.7698 15.6782 18.6137 16.2797C17.4575 16.8813 16.1293 17.0657 14.853 16.802C13.5767 16.5383 12.4304 15.8425 11.6074 14.8321C10.7843 13.8216 10.3348 12.5582 10.3348 11.255ZM18.9448 12.995V13.005C18.9445 13.0703 18.9314 13.135 18.9061 13.1952C18.8808 13.2555 18.8439 13.3102 18.7974 13.3562C18.751 13.4021 18.6959 13.4385 18.6354 13.4632C18.5749 13.4879 18.5101 13.5004 18.4448 13.5H16.9448C16.8122 13.5 16.685 13.4473 16.5912 13.3535C16.4974 13.2597 16.4448 13.1326 16.4448 13C16.4448 12.8674 16.4974 12.7402 16.5912 12.6464C16.685 12.5526 16.8122 12.5 16.9448 12.5H18.4448C18.5101 12.4996 18.5749 12.5121 18.6354 12.5367C18.6959 12.5614 18.751 12.5978 18.7974 12.6438C18.8439 12.6897 18.8808 12.7444 18.9061 12.8047C18.9314 12.865 18.9445 12.9296 18.9448 12.995ZM25.3648 29.25H6.63477V27.02C6.63847 24.6076 7.5984 22.2952 9.30418 20.5894C11.01 18.8836 13.3224 17.9237 15.7348 17.92H16.2648C18.6771 17.9237 20.9896 18.8836 22.6953 20.5894C24.4011 22.2952 25.3611 24.6076 25.3648 27.02V29.25Z" fill="black"/>
</svg>
