<svg width="32" height="32" viewBox="0 0 32 32" fill="none" xmlns="http://www.w3.org/2000/svg">
<path d="M27 8C27.5523 8 28 8.44772 28 9V10H4V9C4 8.44772 4.44771 8 5 8H27ZM2 23C2 24.6569 3.34315 26 5 26H27C28.6569 26 30 24.6569 30 23V9C30 7.34315 28.6569 6 27 6H5C3.34315 6 2 7.34315 2 9V23ZM28 23C28 23.5523 27.5523 24 27 24H5C4.44772 24 4 23.5523 4 23V14H28V23ZM7 18C6.44772 18 6 18.4477 6 19V21C6 21.5523 6.44772 22 7 22H13C13.5523 22 14 21.5523 14 21V19C14 18.4477 13.5523 18 13 18H7Z" fill="black"/>
</svg>
