<svg width="32" height="32" viewBox="0 0 32 32" fill="none" xmlns="http://www.w3.org/2000/svg">
<path d="M8 3C8 2.44772 7.55228 2 7 2C6.44772 2 6 2.44772 6 3V23C6 24.6569 7.34315 26 9 26H29C29.5523 26 30 25.5523 30 25C30 24.4477 29.5523 24 29 24H9C8.44771 24 8 23.5523 8 23V3ZM3 6H4.5V8H3C2.44772 8 2 7.55228 2 7C2 6.44772 2.44772 6 3 6ZM24 9V22.5H26V9C26 7.34315 24.6569 6 23 6H9.5V8H23C23.5523 8 24 8.44771 24 9ZM24 29V27.5H26V29C26 29.5523 25.5523 30 25 30C24.4477 30 24 29.5523 24 29Z" fill="black"/>
</svg>
