<svg width="32" height="32" viewBox="0 0 32 32" fill="none" xmlns="http://www.w3.org/2000/svg">
<path d="M26 11.4683V21.0861C26 21.4458 25.8068 21.7778 25.494 21.9555L17 26.7817V16.582L26 11.4683ZM15 26.7817L6.50599 21.9555C6.19322 21.7778 6 21.4458 6 21.0861L6 11.4683L15 16.582V26.7817ZM16.494 4.93084L24.9757 9.75001L16 14.8499L7.02426 9.75001L15.506 4.93084C15.8123 4.75678 16.1877 4.75678 16.494 4.93084ZM28 10.9139C28 9.83473 27.4203 8.8387 26.482 8.30556L17.482 3.19192C16.563 2.66975 15.437 2.66975 14.518 3.19192L5.51797 8.30556C4.57965 8.8387 4 9.83473 4 10.9139V21.0861C4 22.1653 4.57965 23.1613 5.51797 23.6945L14.518 28.8081C15.437 29.3303 16.563 29.3303 17.482 28.8081L26.482 23.6945C27.4203 23.1613 28 22.1653 28 21.0861V10.9139Z" fill="black"/>
</svg>
