<svg width="32" height="32" viewBox="0 0 32 32" fill="none" xmlns="http://www.w3.org/2000/svg">
<path d="M24.5687 9.76556C24.5687 14.5881 20.6848 18.4959 15.8928 18.4959C11.1037 18.4959 7.22119 14.5881 7.22119 9.76556C7.22119 4.94516 11.1037 1.03589 15.8928 1.03589C20.6848 1.03554 24.5687 4.94516 24.5687 9.76556Z" fill="#E0F1F8"/>
<path d="M15.8929 19.3793C10.6245 19.3793 6.33789 15.0663 6.33789 9.76523C6.33789 4.46484 10.6241 0.152222 15.8929 0.152222C21.1637 0.152222 25.4521 4.46484 25.4521 9.76523C25.4521 15.0667 21.1641 19.3793 15.8929 19.3793ZM15.8929 1.91961C11.5982 1.91961 8.10527 5.4389 8.10527 9.76558C8.10527 14.0923 11.5985 17.6123 15.8929 17.6123C20.1897 17.6123 23.6847 14.0919 23.6847 9.76558C23.6847 5.43925 20.1897 1.91961 15.8929 1.91961Z" fill="#454B53"/>
<path d="M26.65 28.9057C26.1619 28.9057 25.7663 28.5101 25.7663 28.0221V21.1445C25.7663 18.9372 24.5514 17.3773 22.0526 16.3765C21.5993 16.1951 21.3795 15.681 21.5609 15.2277C21.742 14.7751 22.2562 14.5539 22.7094 14.7361C26.6964 16.3329 27.5337 19.1021 27.5337 21.1445V28.0224C27.5337 28.5101 27.1381 28.9057 26.65 28.9057Z" fill="#454B53"/>
<path d="M5.27725 28.9047C4.78916 28.9047 4.39355 28.5091 4.39355 28.021V21.1445C4.39355 18.2199 6.01114 16.0052 9.07013 14.7403C9.52129 14.5539 10.0379 14.7684 10.2242 15.2189C10.4106 15.6697 10.1965 16.1866 9.74529 16.373C7.33333 17.3703 6.16094 18.9313 6.16094 21.1445V28.0214C6.16094 28.5091 5.76533 28.9047 5.27725 28.9047Z" fill="#454B53"/>
<path d="M19.01 28.6488L15.9651 31.0864L12.917 28.6488L14.85 19.2306H15.9584H17.0485L19.01 28.6488Z" fill="#9ABFDA"/>
<path d="M15.965 31.9701C15.7695 31.9701 15.5743 31.9054 15.4129 31.7764L12.3648 29.3384C12.106 29.1309 11.9847 28.7961 12.0511 28.4709L13.9841 19.0527C14.0685 18.6416 14.4304 18.3466 14.8496 18.3466H17.0484C17.4669 18.3466 17.8284 18.6402 17.9135 19.0502L19.8746 28.4684C19.9421 28.794 19.8215 29.1302 19.5616 29.338L16.5171 31.776C16.356 31.9054 16.1601 31.9701 15.965 31.9701ZM13.891 28.2964L15.9643 29.9552L18.0344 28.2982L16.33 20.1143H15.5704L13.891 28.2964Z" fill="#454B53"/>
</svg>
