<svg width="32" height="32" viewBox="0 0 32 32" fill="none" xmlns="http://www.w3.org/2000/svg">
<path d="M7 24C6.7731 24 6.48164 23.9007 6.1324 23.5683C5.77801 23.2311 5.41337 22.6958 5.08538 21.9578C4.43054 20.4844 4 18.3789 4 16C4 13.6211 4.43054 11.5156 5.08538 10.0422C5.41337 9.30422 5.77801 8.76892 6.1324 8.43166C6.15423 8.41089 6.17583 8.39102 6.19721 8.37204C6.51782 8.08727 6.78728 8 7 8C7.2269 8 7.51836 8.0993 7.8676 8.43166C8.22199 8.76892 8.58663 9.30422 8.91462 10.0422C9.56946 11.5156 10 13.6211 10 16C10 18.3789 9.56946 20.4844 8.91462 21.9578C8.58663 22.6958 8.22199 23.2311 7.8676 23.5683C7.51836 23.9007 7.2269 24 7 24ZM10.0801 24C10.3259 23.6246 10.5465 23.2105 10.7422 22.7701C11.5351 20.9861 12 18.5917 12 16C12 13.4083 11.5351 11.0139 10.7422 9.2299C10.5465 8.78945 10.3259 8.37541 10.0801 8L25 8C25.2269 8 25.5184 8.0993 25.8676 8.43166C26.222 8.76892 26.5866 9.30422 26.9146 10.0422C27.5695 11.5156 28 13.6211 28 16C28 18.3789 27.5695 20.4844 26.9146 21.9578C26.5866 22.6958 26.222 23.2311 25.8676 23.5683C25.5184 23.9007 25.2269 24 25 24L10.0801 24ZM7 6C6.12233 6 5.3615 6.40438 4.75363 6.98287C4.15092 7.55645 3.65364 8.33918 3.25776 9.2299C2.46489 11.0139 2 13.4083 2 16C2 18.5917 2.46489 20.9861 3.25776 22.7701C3.65364 23.6608 4.15092 24.4435 4.75363 25.0171C4.82962 25.0894 4.90799 25.159 4.98868 25.2255C5.55354 25.6904 6.23204 26 7 26L25 26C25.8777 26 26.6385 25.5956 27.2464 25.0171C27.8491 24.4435 28.3464 23.6608 28.7422 22.7701C29.5351 20.9861 30 18.5917 30 16C30 13.4083 29.5351 11.0139 28.7422 9.2299C28.3464 8.33918 27.8491 7.55645 27.2464 6.98287C26.6385 6.40438 25.8777 6 25 6H7Z" fill="black"/>
</svg>
