<svg width="32" height="32" viewBox="0 0 32 32" fill="none" xmlns="http://www.w3.org/2000/svg">
<path d="M8 7C8 6.7731 8.0993 6.48164 8.43166 6.1324C8.76892 5.77801 9.30422 5.41337 10.0422 5.08538C11.5156 4.43054 13.6211 4 16 4C18.3789 4 20.4844 4.43054 21.9578 5.08538C22.6958 5.41337 23.2311 5.77801 23.5683 6.1324C23.9007 6.48164 24 6.7731 24 7C24 7.2269 23.9007 7.51836 23.5683 7.8676C23.2311 8.22199 22.6958 8.58663 21.9578 8.91462C20.4844 9.56946 18.3789 10 16 10C13.6211 10 11.5156 9.56946 10.0422 8.91462C9.30422 8.58663 8.76892 8.22199 8.43166 7.8676C8.0993 7.51836 8 7.2269 8 7ZM8 10.0801C8.37541 10.3259 8.78945 10.5465 9.2299 10.7422C11.0139 11.5351 13.4083 12 16 12C18.5917 12 20.9861 11.5351 22.7701 10.7422C23.2105 10.5465 23.6246 10.3259 24 10.0801V25C24 25.2269 23.9007 25.5184 23.5683 25.8676C23.2311 26.222 22.6958 26.5866 21.9578 26.9146C20.4844 27.5695 18.3789 28 16 28C13.6211 28 11.5156 27.5695 10.0422 26.9146C9.30422 26.5866 8.76892 26.222 8.43166 25.8676C8.0993 25.5184 8 25.2269 8 25V10.0801ZM26 7C26 6.12233 25.5956 5.3615 25.0171 4.75363C24.4435 4.15092 23.6608 3.65364 22.7701 3.25776C20.9861 2.46489 18.5917 2 16 2C13.4083 2 11.0139 2.46489 9.2299 3.25776C8.33918 3.65364 7.55645 4.15092 6.98287 4.75363C6.40438 5.3615 6 6.12233 6 7V25C6 25.8777 6.40438 26.6385 6.98287 27.2464C7.55645 27.8491 8.33918 28.3464 9.2299 28.7422C11.0139 29.5351 13.4083 30 16 30C18.5917 30 20.9861 29.5351 22.7701 28.7422C23.6608 28.3464 24.4435 27.8491 25.0171 27.2464C25.5956 26.6385 26 25.8777 26 25V7Z" fill="black"/>
</svg>
