<svg width="32" height="32" viewBox="0 0 32 32" fill="none" xmlns="http://www.w3.org/2000/svg">
<path d="M5 13.0747V16.8214C5 17.77 5.46814 18.5689 6.09874 19.1865C6.72723 19.8021 7.58299 20.3088 8.55754 20.7125C10.5122 21.5223 13.1439 22 16 22C18.8561 22 21.4878 21.5223 23.4425 20.7125C24.417 20.3088 25.2728 19.8021 25.9013 19.1865C26.5319 18.5689 27 17.77 27 16.8214V13.0747C26.1693 13.7633 25.1688 14.279 24.1622 14.6673C21.9248 15.5303 19.0379 16 16 16C12.9621 16 10.0752 15.5303 7.83779 14.6673C6.83115 14.279 5.83071 13.7633 5 13.0747ZM27 9.17857V7C27 6.08415 26.5319 5.31282 25.9013 4.71646C25.2728 4.1221 24.417 3.63292 23.4425 3.2431C21.4878 2.46124 18.8561 2 16 2C13.1439 2 10.5122 2.46124 8.55754 3.2431C7.58299 3.63292 6.72723 4.1221 6.09874 4.71646C5.46814 5.31282 5 6.08415 5 7V9.17857C5 10.0617 5.46814 10.8055 6.09874 11.3806C6.72723 11.9537 7.58299 12.4254 8.55754 12.8013C10.5122 13.5552 13.1439 14 16 14C18.8561 14 21.4878 13.5552 23.4425 12.8013C24.417 12.4254 25.2728 11.9537 25.9013 11.3806C26.5319 10.8055 27 10.0617 27 9.17857ZM5 25V20.8933C5.81727 21.6069 6.79868 22.1487 7.79206 22.5602C10.0436 23.493 12.9471 24 16 24C19.0529 24 21.9564 23.493 24.2079 22.5602C25.2013 22.1487 26.1827 21.6069 27 20.8933V25C27 25.9159 26.5319 26.6872 25.9013 27.2835C25.2728 27.8779 24.417 28.3671 23.4425 28.7569C21.4878 29.5388 18.8561 30 16 30C13.1439 30 10.5122 29.5388 8.55754 28.7569C7.58299 28.3671 6.72723 27.8779 6.09874 27.2835C5.46814 26.6872 5 25.9159 5 25ZM11 18C11 18.5523 10.5523 19 10 19C9.44772 19 9 18.5523 9 18C9 17.4477 9.44772 17 10 17C10.5523 17 11 17.4477 11 18ZM10 27C10.5523 27 11 26.5523 11 26C11 25.4477 10.5523 25 10 25C9.44772 25 9 25.4477 9 26C9 26.5523 9.44772 27 10 27Z" fill="black"/>
</svg>
