<svg width="32" height="32" viewBox="0 0 32 32" fill="none" xmlns="http://www.w3.org/2000/svg">
<path d="M8 4C7.44772 4 7 4.44772 7 5V11H25V5C25 4.44771 24.5523 4 24 4H8ZM7 13V19H25V13H7ZM7 27C7 27.5523 7.44772 28 8 28H24C24.5523 28 25 27.5523 25 27V21H7V27ZM5 5C5 3.34315 6.34315 2 8 2H24C25.6569 2 27 3.34315 27 5V27C27 28.6569 25.6569 30 24 30H8C6.34315 30 5 28.6569 5 27V5ZM10 25.5C10.5523 25.5 11 25.0523 11 24.5C11 23.9477 10.5523 23.5 10 23.5C9.44771 23.5 9 23.9477 9 24.5C9 25.0523 9.44771 25.5 10 25.5ZM11 16C11 16.5523 10.5523 17 10 17C9.44771 17 9 16.5523 9 16C9 15.4477 9.44771 15 10 15C10.5523 15 11 15.4477 11 16ZM10 8.5C10.5523 8.5 11 8.05229 11 7.5C11 6.94772 10.5523 6.5 10 6.5C9.44771 6.5 9 6.94772 9 7.5C9 8.05229 9.44771 8.5 10 8.5Z" fill="black"/>
</svg>
