<svg width="32" height="32" viewBox="0 0 32 32" fill="none" xmlns="http://www.w3.org/2000/svg">
<path d="M8 2C6.34315 2 5 3.34315 5 5V10H27V5C27 3.34315 25.6569 2 24 2H8ZM27 12H5V20H27V12ZM5 27V22H27V27C27 28.6569 25.6569 30 24 30H8C6.34315 30 5 28.6569 5 27ZM10 26.5C10.5523 26.5 11 26.0523 11 25.5C11 24.9477 10.5523 24.5 10 24.5C9.44772 24.5 9 24.9477 9 25.5C9 26.0523 9.44772 26.5 10 26.5ZM11 16C11 16.5523 10.5523 17 10 17C9.44772 17 9 16.5523 9 16C9 15.4477 9.44772 15 10 15C10.5523 15 11 15.4477 11 16ZM10 7.5C9.44772 7.5 9 7.05228 9 6.5C9 5.94772 9.44772 5.5 10 5.5C10.5523 5.5 11 5.94772 11 6.5C11 7.05228 10.5523 7.5 10 7.5Z" fill="black"/>
</svg>
