<svg width="32" height="32" viewBox="0 0 32 32" fill="none" xmlns="http://www.w3.org/2000/svg">
<path d="M7.47296 6.16957C7.0915 6.53032 7 6.81128 7 7V10C7 10.1887 7.0915 10.4697 7.47296 10.8304C7.85653 11.1932 8.46523 11.5659 9.30032 11.9C10.965 12.5658 13.3332 13 16 13C18.6668 13 21.035 12.5658 22.6997 11.9C23.5348 11.5659 24.1435 11.1932 24.527 10.8304C24.9085 10.4697 25 10.1887 25 10V7C25 6.81128 24.9085 6.53032 24.527 6.16957C24.1435 5.80683 23.5348 5.43409 22.6997 5.10005C21.035 4.43419 18.6668 4 16 4C13.3332 4 10.965 4.43419 9.30032 5.10005C8.46523 5.43409 7.85653 5.80683 7.47296 6.16957ZM25 12.9754C24.5351 13.2702 24.0089 13.5303 23.4425 13.7569C21.4878 14.5388 18.8561 15 16 15C13.1439 15 10.5122 14.5388 8.55754 13.7569C7.99114 13.5303 7.46486 13.2702 7 12.9754V17.5C7 17.6887 7.0915 17.9697 7.47296 18.3304C7.85653 18.6932 8.46523 19.0659 9.30032 19.4C10.965 20.0658 13.3332 20.5 16 20.5C18.6668 20.5 21.035 20.0658 22.6997 19.4C23.5348 19.0659 24.1435 18.6932 24.527 18.3304C24.9085 17.9697 25 17.6887 25 17.5V12.9754ZM7 25C7 25.1887 7.0915 25.4697 7.47296 25.8304C7.85653 26.1932 8.46523 26.5659 9.30032 26.9C10.965 27.5658 13.3332 28 16 28C18.6668 28 21.035 27.5658 22.6997 26.9C23.5348 26.5659 24.1435 26.1932 24.527 25.8304C24.9085 25.4697 25 25.1887 25 25V20.4754C24.5351 20.7702 24.0089 21.0303 23.4425 21.2569C21.4878 22.0388 18.8561 22.5 16 22.5C13.1439 22.5 10.5122 22.0388 8.55754 21.2569C7.99114 21.0303 7.46486 20.7702 7 20.4754V25ZM8.55754 3.2431C10.5122 2.46124 13.1439 2 16 2C18.8561 2 21.4878 2.46124 23.4425 3.2431C24.417 3.63292 25.2728 4.1221 25.9013 4.71646C26.5319 5.31282 27 6.08415 27 7V25C27 25.9159 26.5319 26.6872 25.9013 27.2835C25.2728 27.8779 24.417 28.3671 23.4425 28.7569C21.4878 29.5388 18.8561 30 16 30C13.1439 30 10.5122 29.5388 8.55754 28.7569C7.58299 28.3671 6.72723 27.8779 6.09874 27.2835C5.46814 26.6872 5 25.9159 5 25V7C5 6.08415 5.46814 5.31282 6.09874 4.71646C6.72723 4.1221 7.58299 3.63292 8.55754 3.2431Z" fill="black"/>
</svg>
