<svg width="32" height="32" viewBox="0 0 32 32" fill="none" xmlns="http://www.w3.org/2000/svg">
<path d="M15.9998 2.66663C8.6665 2.66663 2.6665 8.66663 2.6665 16C2.6665 23.3333 8.6665 29.3333 15.9998 29.3333C23.3332 29.3333 29.3332 23.3333 29.3332 16C29.3332 8.66663 23.3332 2.66663 15.9998 2.66663ZM15.9998 5.33329C18.3998 5.33329 20.6665 6.13329 22.5332 7.59996L7.59984 22.5333C6.13317 20.6666 5.33317 18.4 5.33317 16C5.33317 10.1333 10.1332 5.33329 15.9998 5.33329ZM15.9998 26.6666C13.5998 26.6666 11.3332 25.8666 9.4665 24.4L24.3998 9.46663C25.8665 11.3333 26.6665 13.6 26.6665 16C26.6665 21.8666 21.8665 26.6666 15.9998 26.6666Z" fill="black"/>
</svg>
