<svg width="32" height="32" viewBox="0 0 32 32" fill="none" xmlns="http://www.w3.org/2000/svg">
<path d="M9 4C8.44772 4 8 4.44772 8 5V12H6V5C6 3.34315 7.34315 2 9 2H17C17.2652 2 17.5196 2.10536 17.7071 2.29289L25.7071 10.2929C25.8946 10.4804 26 10.7348 26 11V27C26 28.6569 24.6569 30 23 30H9C7.34315 30 6 28.6569 6 27V24H8V27C8 27.5523 8.44772 28 9 28H23C23.5523 28 24 27.5523 24 27V12H19C17.3431 12 16 10.6569 16 9V4H9ZM18 5.41421V9C18 9.55228 18.4477 10 19 10H22.5858L18 5.41421ZM5.91078 16.0381L2.35645 21.1602V22H7.77637V20.8574H4.1703L7.70312 15.7061V14.8906H2.36133V16.0381H5.91078ZM15.8379 15.1934C15.4408 14.9915 14.9639 14.8906 14.4072 14.8906H11.6387V22H13.1035V19.4658H14.4072C14.9639 19.4658 15.4408 19.3747 15.8379 19.1924C16.2383 19.0101 16.5443 18.7513 16.7559 18.416C16.9674 18.0807 17.0732 17.6836 17.0732 17.2246C17.0732 16.7721 16.9674 16.3701 16.7559 16.0186C16.5443 15.667 16.2383 15.3919 15.8379 15.1934ZM15.0908 18.1865C14.915 18.2777 14.6872 18.3232 14.4072 18.3232H13.1035V16.0381H14.4072C14.6872 16.0381 14.915 16.0934 15.0908 16.2041C15.2666 16.3148 15.3952 16.4613 15.4766 16.6436C15.5579 16.8258 15.5986 17.0228 15.5986 17.2344C15.5986 17.4427 15.5579 17.6299 15.4766 17.7959C15.3952 17.9619 15.2666 18.0921 15.0908 18.1865ZM10.2666 14.8906V22H8.80664V14.8906H10.2666Z" fill="black"/>
</svg>
