<svg width="32" height="32" viewBox="0 0 32 32" fill="none" xmlns="http://www.w3.org/2000/svg">
<path d="M8 5C8 4.44772 8.44772 4 9 4H16V9C16 10.6569 17.3431 12 19 12H26V11C26 10.7348 25.8946 10.4804 25.7071 10.2929L17.7071 2.29289C17.5196 2.10536 17.2652 2 17 2H9C7.34315 2 6 3.34315 6 5V12H8V5ZM9 28C8.44772 28 8 27.5523 8 27V24H6V27C6 28.6569 7.34315 30 9 30H23C24.6569 30 26 28.6569 26 27V24H24V27C24 27.5523 23.5523 28 23 28H9ZM22.5858 10H19C18.4477 10 18 9.55228 18 9V5.41421L22.5858 10ZM7.49121 21.7607C7.09408 21.9202 6.65462 22 6.17285 22H3.99023V14.8906H6.1875C6.66276 14.8906 7.09733 14.972 7.49121 15.1348C7.88835 15.2943 8.23177 15.5238 8.52148 15.8232C8.8112 16.1227 9.03418 16.4808 9.19043 16.8975C9.34994 17.3109 9.42969 17.7715 9.42969 18.2793V18.6162C9.42969 19.1208 9.34994 19.5814 9.19043 19.998C9.03418 20.4147 8.8112 20.7728 8.52148 21.0723C8.23503 21.3685 7.8916 21.598 7.49121 21.7607ZM7.14453 20.5986C7.4082 20.4229 7.60677 20.1673 7.74023 19.832C7.87695 19.4967 7.94531 19.0915 7.94531 18.6162V18.2695C7.94531 17.9049 7.90625 17.5843 7.82812 17.3076C7.75326 17.0309 7.64095 16.7982 7.49121 16.6094C7.34147 16.4206 7.15755 16.279 6.93945 16.1846C6.72135 16.0869 6.4707 16.0381 6.1875 16.0381H5.45508V20.8574H6.17285C6.55697 20.8574 6.88086 20.7712 7.14453 20.5986ZM16.1143 20.0713C16.2607 19.6416 16.334 19.1566 16.334 18.6162V18.2793C16.334 17.7357 16.2591 17.2507 16.1094 16.8242C15.9629 16.3945 15.7546 16.0283 15.4844 15.7256C15.2174 15.4229 14.8984 15.1917 14.5273 15.0322C14.1595 14.8727 13.751 14.793 13.3018 14.793C12.8558 14.793 12.4473 14.8727 12.0762 15.0322C11.7083 15.1917 11.3893 15.4229 11.1191 15.7256C10.8522 16.0283 10.6455 16.3945 10.499 16.8242C10.3525 17.2507 10.2793 17.7357 10.2793 18.2793V18.6162C10.2793 19.1566 10.3525 19.6416 10.499 20.0713C10.6488 20.501 10.8587 20.8672 11.1289 21.1699C11.3991 21.4694 11.7181 21.6989 12.0859 21.8584C12.457 22.0179 12.8656 22.0977 13.3115 22.0977C13.7607 22.0977 14.1693 22.0179 14.5371 21.8584C14.9082 21.6989 15.2272 21.4694 15.4941 21.1699C15.7611 20.8672 15.9678 20.501 16.1143 20.0713ZM14.752 17.2734C14.8203 17.5599 14.8545 17.8919 14.8545 18.2695V18.6162C14.8545 18.9906 14.8203 19.3226 14.752 19.6123C14.6836 19.8988 14.5843 20.1413 14.4541 20.3398C14.3239 20.5352 14.1628 20.6833 13.9707 20.7842C13.7786 20.8851 13.5589 20.9355 13.3115 20.9355C13.0641 20.9355 12.8444 20.8851 12.6523 20.7842C12.4603 20.6833 12.2975 20.5352 12.1641 20.3398C12.0306 20.1413 11.9297 19.8988 11.8613 19.6123C11.793 19.3226 11.7588 18.9906 11.7588 18.6162V18.2695C11.7588 17.8919 11.793 17.5599 11.8613 17.2734C11.9297 16.987 12.029 16.7461 12.1592 16.5508C12.2926 16.3555 12.4538 16.209 12.6426 16.1113C12.8346 16.0104 13.0544 15.96 13.3018 15.96C13.5492 15.96 13.7689 16.0104 13.9609 16.1113C14.153 16.209 14.3158 16.3555 14.4492 16.5508C14.5827 16.7461 14.6836 16.987 14.752 17.2734ZM21.3193 20.3594C21.4268 20.1673 21.4902 19.9281 21.5098 19.6416H22.9697C22.9404 20.1201 22.8086 20.5449 22.5742 20.916C22.3431 21.2871 22.0192 21.5768 21.6025 21.7852C21.1891 21.9935 20.6911 22.0977 20.1084 22.0977C19.6527 22.0977 19.2441 22.0195 18.8828 21.8633C18.5215 21.7038 18.2122 21.4759 17.9551 21.1797C17.7012 20.8835 17.5075 20.5254 17.374 20.1055C17.2406 19.6855 17.1738 19.2152 17.1738 18.6943V18.2012C17.1738 17.6803 17.2422 17.21 17.3789 16.79C17.5189 16.3669 17.7174 16.0072 17.9746 15.7109C18.235 15.4147 18.5459 15.1868 18.9072 15.0273C19.2686 14.8678 19.6722 14.7881 20.1182 14.7881C20.7106 14.7881 21.2103 14.8955 21.6172 15.1104C22.0273 15.3252 22.3447 15.6214 22.5693 15.999C22.7972 16.3766 22.9339 16.8063 22.9795 17.2881H21.5146C21.4984 17.0016 21.4414 16.7591 21.3438 16.5605C21.2461 16.3587 21.098 16.2074 20.8994 16.1064C20.7041 16.0023 20.4437 15.9502 20.1182 15.9502C19.874 15.9502 19.6608 15.9958 19.4785 16.0869C19.2962 16.1781 19.1432 16.3164 19.0195 16.502C18.8958 16.6875 18.8031 16.9219 18.7412 17.2051C18.6826 17.485 18.6533 17.8138 18.6533 18.1914V18.6943C18.6533 19.0622 18.681 19.3861 18.7363 19.666C18.7917 19.9427 18.8763 20.1771 18.9902 20.3691C19.1074 20.5579 19.2572 20.7012 19.4395 20.7988C19.625 20.8932 19.848 20.9404 20.1084 20.9404C20.4144 20.9404 20.6667 20.8916 20.8652 20.7939C21.0638 20.6963 21.2152 20.5514 21.3193 20.3594ZM26.4756 17.3711L25.1377 14.8906H23.4531L25.5234 18.416L23.3994 22H25.0986L26.4756 19.4707L27.8525 22H29.542L27.4229 18.416L29.4883 14.8906H27.8135L26.4756 17.3711Z" fill="black"/>
</svg>
