<svg width="32" height="32" viewBox="0 0 32 32" fill="none" xmlns="http://www.w3.org/2000/svg">
<path d="M6 5C6 3.34315 7.34315 2 9 2H16V8C16 10.2091 17.7909 12 20 12H26V16.0549C25.6717 16.0186 25.338 16 25 16C20.0294 16 16 20.0294 16 25C16 26.8501 16.5583 28.5699 17.5155 30H9C7.34315 30 6 28.6569 6 27V5ZM25.3784 10C25.2996 9.89745 25.2138 9.79957 25.1213 9.70711L18.2929 2.87868C18.2004 2.78621 18.1025 2.70041 18 2.62157V8C18 9.10457 18.8954 10 20 10H25.3784ZM32 25C32 28.866 28.866 32 25 32C21.134 32 18 28.866 18 25C18 21.134 21.134 18 25 18C28.866 18 32 21.134 32 25ZM28.7019 22.2878C28.3086 21.9001 27.6754 21.9047 27.2878 22.2981L23.8201 25.8167L22.8298 24.3443C22.5215 23.886 21.9001 23.7644 21.4419 24.0727C20.9836 24.3809 20.862 25.0023 21.1703 25.4606L22.8436 27.9484C23.0112 28.1974 23.2817 28.358 23.5805 28.3859C23.8794 28.4138 24.175 28.3059 24.3857 28.0922L28.7123 23.7019C29.0999 23.3086 29.0953 22.6754 28.7019 22.2878Z" fill="black"/>
</svg>
