<svg width="32" height="32" viewBox="0 0 32 32" fill="none" xmlns="http://www.w3.org/2000/svg">
<path d="M8 5C8 4.44772 8.44772 4 9 4H16V9C16 10.6569 17.3431 12 19 12H24V27C24 27.5523 23.5523 28 23 28H9C8.44772 28 8 27.5523 8 27V5ZM22.5858 10H19C18.4477 10 18 9.55228 18 9V5.41421L22.5858 10ZM9 2C7.34315 2 6 3.34315 6 5V27C6 28.6569 7.34315 30 9 30H23C24.6569 30 26 28.6569 26 27V11C26 10.7348 25.8946 10.4804 25.7071 10.2929L17.7071 2.29289C17.5196 2.10536 17.2652 2 17 2H9ZM11 16C10.4477 16 10 16.4477 10 17C10 17.5523 10.4477 18 11 18H21C21.5523 18 22 17.5523 22 17C22 16.4477 21.5523 16 21 16H11ZM11 22C10.4477 22 10 22.4477 10 23C10 23.5523 10.4477 24 11 24H21C21.5523 24 22 23.5523 22 23C22 22.4477 21.5523 22 21 22H11Z" fill="black"/>
</svg>
