<svg width="32" height="32" viewBox="0 0 32 32" fill="none" xmlns="http://www.w3.org/2000/svg">
<path d="M6 5C6 3.34315 7.34315 2 9 2H16V8C16 10.2091 17.7909 12 20 12H26V16.0549C25.6717 16.0186 25.338 16 25 16C20.0294 16 16 20.0294 16 25C16 26.8501 16.5583 28.5699 17.5155 30H9C7.34315 30 6 28.6569 6 27V5ZM25.3784 10C25.2996 9.89745 25.2138 9.79957 25.1213 9.70711L18.2929 2.87868C18.2004 2.78621 18.1025 2.70041 18 2.62157V8C18 9.10457 18.8954 10 20 10H25.3784ZM32 25C32 28.866 28.866 32 25 32C21.134 32 18 28.866 18 25C18 21.134 21.134 18 25 18C28.866 18 32 21.134 32 25ZM28 24H22C21.4477 24 21 24.4477 21 25C21 25.5523 21.4477 26 22 26H28C28.5523 26 29 25.5523 29 25C29 24.4477 28.5523 24 28 24Z" fill="black"/>
</svg>
