<svg width="32" height="32" viewBox="0 0 32 32" fill="none" xmlns="http://www.w3.org/2000/svg">
<path d="M8 5C8 4.44772 8.44772 4 9 4H16V9C16 10.6569 17.3431 12 19 12H24V27C24 27.5523 23.5523 28 23 28H9C8.44772 28 8 27.5523 8 27V24H6V27C6 28.6569 7.34315 30 9 30H23C24.6569 30 26 28.6569 26 27V11C26 10.7348 25.8946 10.4804 25.7071 10.2929L17.7071 2.29289C17.5196 2.10536 17.2652 2 17 2H9C7.34315 2 6 3.34315 6 5V12H8V5ZM19 10C18.4477 10 18 9.55228 18 9V5.41421L22.5858 10H19ZM5.40332 14.8906C5.95996 14.8906 6.43685 14.9915 6.83398 15.1934C7.23438 15.3919 7.54036 15.667 7.75195 16.0186C7.96354 16.3701 8.06934 16.7721 8.06934 17.2246C8.06934 17.6836 7.96354 18.0807 7.75195 18.416C7.54036 18.7513 7.23438 19.0101 6.83398 19.1924C6.43685 19.3747 5.95996 19.4658 5.40332 19.4658H4.09961V22H2.63477V14.8906H5.40332ZM5.40332 18.3232C5.68327 18.3232 5.91113 18.2777 6.08691 18.1865C6.2627 18.0921 6.39128 17.9619 6.47266 17.7959C6.55404 17.6299 6.59473 17.4427 6.59473 17.2344C6.59473 17.0228 6.55404 16.8258 6.47266 16.6436C6.39128 16.4613 6.2627 16.3148 6.08691 16.2041C5.91113 16.0934 5.68327 16.0381 5.40332 16.0381H4.09961V18.3232H5.40332ZM12.5811 21.7607C12.1839 21.9202 11.7445 22 11.2627 22H9.08008V14.8906H11.2773C11.7526 14.8906 12.1872 14.972 12.5811 15.1348C12.9782 15.2943 13.3216 15.5238 13.6113 15.8232C13.901 16.1227 14.124 16.4808 14.2803 16.8975C14.4398 17.3109 14.5195 17.7715 14.5195 18.2793V18.6162C14.5195 19.1208 14.4398 19.5814 14.2803 19.998C14.124 20.4147 13.901 20.7728 13.6113 21.0723C13.3249 21.3685 12.9814 21.598 12.5811 21.7607ZM12.2344 20.5986C12.498 20.4229 12.6966 20.1673 12.8301 19.832C12.9668 19.4967 13.0352 19.0915 13.0352 18.6162V18.2695C13.0352 17.9049 12.9961 17.5843 12.918 17.3076C12.8431 17.0309 12.7308 16.7982 12.5811 16.6094C12.4313 16.4206 12.2474 16.279 12.0293 16.1846C11.8112 16.0869 11.5605 16.0381 11.2773 16.0381H10.5449V20.8574H11.2627C11.6468 20.8574 11.9707 20.7712 12.2344 20.5986ZM17.0488 16.0381V17.9277H19.8809V19.0703H17.0488V22H15.584V14.8906H20.2227V16.0381H17.0488Z" fill="black"/>
</svg>
