<svg width="32" height="32" viewBox="0 0 32 32" fill="none" xmlns="http://www.w3.org/2000/svg">
<path d="M9 4C8.44772 4 8 4.44772 8 5V27C8 27.5523 8.44772 28 9 28H16.5121C16.7638 28.7121 17.1025 29.383 17.5155 30H9C7.34315 30 6 28.6569 6 27V5C6 3.34315 7.34315 2 9 2H17C17.2652 2 17.5196 2.10536 17.7071 2.29289L25.7071 10.2929C25.8946 10.4804 26 10.7348 26 11V16.0549C25.6717 16.0186 25.338 16 25 16C24.662 16 24.3283 16.0186 24 16.0549V12H19C17.3431 12 16 10.6569 16 9V4H9ZM18 5.41421V9C18 9.55228 18.4477 10 19 10H22.5858L18 5.41421ZM32 25C32 28.866 28.866 32 25 32C21.134 32 18 28.866 18 25C18 21.134 21.134 18 25 18C28.866 18 32 21.134 32 25ZM28 24H22C21.4477 24 21 24.4477 21 25C21 25.5523 21.4477 26 22 26H28C28.5523 26 29 25.5523 29 25C29 24.4477 28.5523 24 28 24Z" fill="black"/>
</svg>
