<svg width="32" height="32" viewBox="0 0 32 32" fill="none" xmlns="http://www.w3.org/2000/svg">
<path d="M8 5C8 4.44772 8.44772 4 9 4H16V9C16 10.6569 17.3431 12 19 12H26V11C26 10.7348 25.8946 10.4804 25.7071 10.2929L17.7071 2.29289C17.5196 2.10536 17.2652 2 17 2H9C7.34315 2 6 3.34315 6 5V12H8V5ZM9 28C8.44772 28 8 27.5523 8 27V24H6V27C6 28.6569 7.34315 30 9 30H23C24.6569 30 26 28.6569 26 27V24H24V27C24 27.5523 23.5523 28 23 28H9ZM22.5858 10H19C18.4477 10 18 9.55228 18 9V5.41421L22.5858 10ZM8.11426 19.1924C7.71712 19.3747 7.24023 19.4658 6.68359 19.4658H5.37988V22H3.91504V14.8906H6.68359C7.24023 14.8906 7.71712 14.9915 8.11426 15.1934C8.51465 15.3919 8.82064 15.667 9.03223 16.0186C9.24381 16.3701 9.34961 16.7721 9.34961 17.2246C9.34961 17.6836 9.24381 18.0807 9.03223 18.416C8.82064 18.7513 8.51465 19.0101 8.11426 19.1924ZM7.36719 16.2041C7.19141 16.0934 6.96354 16.0381 6.68359 16.0381H5.37988V18.3232H6.68359C6.96354 18.3232 7.19141 18.2777 7.36719 18.1865C7.54297 18.0921 7.67155 17.9619 7.75293 17.7959C7.83431 17.6299 7.875 17.4427 7.875 17.2344C7.875 17.0228 7.83431 16.8258 7.75293 16.6436C7.67155 16.4613 7.54297 16.3148 7.36719 16.2041ZM14.5596 15.1934C14.1624 14.9915 13.6855 14.8906 13.1289 14.8906H10.3604V22H11.8252V19.4658H13.1289C13.6855 19.4658 14.1624 19.3747 14.5596 19.1924C14.96 19.0101 15.266 18.7513 15.4775 18.416C15.6891 18.0807 15.7949 17.6836 15.7949 17.2246C15.7949 16.7721 15.6891 16.3701 15.4775 16.0186C15.266 15.667 14.96 15.3919 14.5596 15.1934ZM13.8125 18.1865C13.6367 18.2777 13.4089 18.3232 13.1289 18.3232H11.8252V16.0381H13.1289C13.4089 16.0381 13.6367 16.0934 13.8125 16.2041C13.9883 16.3148 14.1169 16.4613 14.1982 16.6436C14.2796 16.8258 14.3203 17.0228 14.3203 17.2344C14.3203 17.4427 14.2796 17.6299 14.1982 17.7959C14.1169 17.9619 13.9883 18.0921 13.8125 18.1865ZM25.5508 17.3711L24.2129 14.8906H22.5283L24.5986 18.416L22.4746 22H24.1738L25.5508 19.4707L26.9277 22H28.6172L26.498 18.416L28.5635 14.8906H26.8887L25.5508 17.3711ZM19.9844 16.0381V22H18.5244V16.0381H16.3711V14.8906H22.1719V16.0381H19.9844Z" fill="black"/>
</svg>
