<svg width="32" height="32" viewBox="0 0 32 32" fill="none" xmlns="http://www.w3.org/2000/svg">
<path d="M9 2C7.34315 2 6 3.34315 6 5V27C6 28.6569 7.34315 30 9 30H23C24.6569 30 26 28.6569 26 27V12H20C17.7909 12 16 10.2091 16 8V2H9ZM25.1213 9.70711C25.2138 9.79957 25.2996 9.89745 25.3784 10H20C18.8954 10 18 9.10457 18 8V2.62157C18.1025 2.70041 18.2004 2.78621 18.2929 2.87868L25.1213 9.70711ZM11 16H21C21.5523 16 22 16.4477 22 17C22 17.5523 21.5523 18 21 18H11C10.4477 18 10 17.5523 10 17C10 16.4477 10.4477 16 11 16ZM11 22H21C21.5523 22 22 22.4477 22 23C22 23.5523 21.5523 24 21 24H11C10.4477 24 10 23.5523 10 23C10 22.4477 10.4477 22 11 22Z" fill="black"/>
</svg>
