<svg width="32" height="32" viewBox="0 0 32 32" fill="none" xmlns="http://www.w3.org/2000/svg">
<path d="M9 4C8.44772 4 8 4.44772 8 5V12H6V5C6 3.34315 7.34315 2 9 2H17C17.2652 2 17.5196 2.10536 17.7071 2.29289L25.7071 10.2929C25.8946 10.4804 26 10.7348 26 11V27C26 28.6569 24.6569 30 23 30H9C7.34315 30 6 28.6569 6 27V24H8V27C8 27.5523 8.44772 28 9 28H23C23.5523 28 24 27.5523 24 27V12H19C17.3431 12 16 10.6569 16 9V4H9ZM22.5858 10L18 5.41421V9C18 9.55228 18.4477 10 19 10H22.5858ZM6.56543 20.3594C6.67285 20.1673 6.73633 19.9281 6.75586 19.6416H8.21582C8.18652 20.1201 8.05469 20.5449 7.82031 20.916C7.58919 21.2871 7.2653 21.5768 6.84863 21.7852C6.43522 21.9935 5.93717 22.0977 5.35449 22.0977C4.89876 22.0977 4.49023 22.0195 4.12891 21.8633C3.76758 21.7038 3.45833 21.4759 3.20117 21.1797C2.94727 20.8835 2.75358 20.5254 2.62012 20.1055C2.48665 19.6855 2.41992 19.2152 2.41992 18.6943V18.2012C2.41992 17.6803 2.48828 17.21 2.625 16.79C2.76497 16.3669 2.96354 16.0072 3.2207 15.7109C3.48112 15.4147 3.79199 15.1868 4.15332 15.0273C4.51465 14.8678 4.91829 14.7881 5.36426 14.7881C5.95671 14.7881 6.45638 14.8955 6.86328 15.1104C7.27344 15.3252 7.59082 15.6214 7.81543 15.999C8.04329 16.3766 8.18001 16.8063 8.22559 17.2881H6.76074C6.74447 17.0016 6.6875 16.7591 6.58984 16.5605C6.49219 16.3587 6.34408 16.2074 6.14551 16.1064C5.9502 16.0023 5.68978 15.9502 5.36426 15.9502C5.12012 15.9502 4.9069 15.9958 4.72461 16.0869C4.54232 16.1781 4.38932 16.3164 4.26562 16.502C4.14193 16.6875 4.04915 16.9219 3.9873 17.2051C3.92871 17.485 3.89941 17.8138 3.89941 18.1914V18.6943C3.89941 19.0622 3.92708 19.3861 3.98242 19.666C4.03776 19.9427 4.1224 20.1771 4.23633 20.3691C4.35352 20.5579 4.50326 20.7012 4.68555 20.7988C4.87109 20.8932 5.09408 20.9404 5.35449 20.9404C5.66048 20.9404 5.91276 20.8916 6.11133 20.7939C6.3099 20.6963 6.46126 20.5514 6.56543 20.3594ZM12.8789 20.1396C12.8789 20.0127 12.8594 19.8988 12.8203 19.7979C12.7845 19.6937 12.7161 19.5993 12.6152 19.5146C12.5143 19.4268 12.3727 19.3405 12.1904 19.2559C12.0081 19.1712 11.7721 19.0833 11.4824 18.9922C11.1602 18.888 10.8542 18.7708 10.5645 18.6406C10.278 18.5104 10.0241 18.359 9.80273 18.1865C9.58464 18.0107 9.41211 17.8073 9.28516 17.5762C9.16146 17.3451 9.09961 17.0765 9.09961 16.7705C9.09961 16.4743 9.16471 16.2057 9.29492 15.9648C9.42513 15.7207 9.60742 15.5124 9.8418 15.3398C10.0762 15.1641 10.3529 15.029 10.6719 14.9346C10.9941 14.8402 11.3473 14.793 11.7314 14.793C12.2555 14.793 12.7129 14.8874 13.1035 15.0762C13.4941 15.265 13.7969 15.5238 14.0117 15.8525C14.2298 16.1813 14.3389 16.5573 14.3389 16.9805H12.8838C12.8838 16.7721 12.8398 16.5898 12.752 16.4336C12.6673 16.2741 12.5371 16.1488 12.3613 16.0576C12.1888 15.9665 11.9707 15.9209 11.707 15.9209C11.4531 15.9209 11.2415 15.96 11.0723 16.0381C10.903 16.113 10.776 16.2155 10.6914 16.3457C10.6068 16.4727 10.5645 16.6159 10.5645 16.7754C10.5645 16.8958 10.5938 17.0049 10.6523 17.1025C10.7142 17.2002 10.8053 17.2913 10.9258 17.376C11.0462 17.4606 11.1943 17.5404 11.3701 17.6152C11.5459 17.6901 11.7493 17.7633 11.9805 17.835C12.3678 17.9521 12.708 18.084 13.001 18.2305C13.2972 18.377 13.5446 18.5413 13.7432 18.7236C13.9417 18.9059 14.0915 19.1126 14.1924 19.3438C14.2933 19.5749 14.3438 19.8369 14.3438 20.1299C14.3438 20.4391 14.2835 20.7158 14.1631 20.96C14.0426 21.2041 13.8685 21.4108 13.6406 21.5801C13.4128 21.7493 13.141 21.8779 12.8252 21.9658C12.5094 22.0537 12.1562 22.0977 11.7656 22.0977C11.4141 22.0977 11.0674 22.0521 10.7256 21.9609C10.3838 21.8665 10.0729 21.7249 9.79297 21.5361C9.51628 21.3473 9.29492 21.1064 9.12891 20.8135C8.96289 20.5205 8.87988 20.1738 8.87988 19.7734H10.3496C10.3496 19.9948 10.3838 20.182 10.4521 20.335C10.5205 20.488 10.6165 20.6117 10.7402 20.7061C10.8672 20.8005 11.0169 20.8688 11.1895 20.9111C11.3652 20.9535 11.5573 20.9746 11.7656 20.9746C12.0195 20.9746 12.2279 20.9388 12.3906 20.8672C12.5566 20.7956 12.6787 20.6963 12.7568 20.5693C12.8382 20.4424 12.8789 20.2992 12.8789 20.1396ZM16.3604 14.8906L17.9669 20.3021L19.5781 14.8906H21.209L18.7334 22H17.2002L14.7393 14.8906H16.3604Z" fill="black"/>
</svg>
