<svg width="32" height="32" viewBox="0 0 32 32" fill="none" xmlns="http://www.w3.org/2000/svg">
<path d="M8 5C8 4.44772 8.44772 4 9 4H16V9C16 10.6569 17.3431 12 19 12H24V27C24 27.5523 23.5523 28 23 28H9C8.44772 28 8 27.5523 8 27V24H6V27C6 28.6569 7.34315 30 9 30H23C24.6569 30 26 28.6569 26 27V11C26 10.7348 25.8946 10.4804 25.7071 10.2929L17.7071 2.29289C17.5196 2.10536 17.2652 2 17 2H9C7.34315 2 6 3.34315 6 5V12H8V5ZM22.5858 10H19C18.4477 10 18 9.55228 18 9V5.41421L22.5858 10ZM11.3799 17.3711L10.042 14.8906H8.35742L10.4277 18.416L8.30371 22H10.0029L11.3799 19.4707L12.7568 22H14.4463L12.3271 18.416L14.3926 14.8906H12.7178L11.3799 17.3711ZM5.81348 22V16.0381H8.00098V14.8906H2.2002V16.0381H4.35352V22H5.81348ZM18.3623 16.0381V22H16.9023V16.0381H14.749V14.8906H20.5498V16.0381H18.3623Z" fill="black"/>
</svg>
