<svg width="32" height="32" viewBox="0 0 32 32" fill="none" xmlns="http://www.w3.org/2000/svg">
<path d="M9 4C8.44772 4 8 4.44772 8 5V27C8 27.5523 8.44772 28 9 28H16.5121C16.7638 28.7121 17.1025 29.383 17.5155 30H9C7.34315 30 6 28.6569 6 27V5C6 3.34315 7.34315 2 9 2H17C17.2652 2 17.5196 2.10536 17.7071 2.29289L25.7071 10.2929C25.8946 10.4804 26 10.7348 26 11V16.0549C25.6717 16.0186 25.338 16 25 16C24.662 16 24.3283 16.0186 24 16.0549V12H19C17.3431 12 16 10.6569 16 9V4H9ZM18 5.41421V9C18 9.55228 18.4477 10 19 10H22.5858L18 5.41421ZM32 25C32 28.866 28.866 32 25 32C21.134 32 18 28.866 18 25C18 21.134 21.134 18 25 18C28.866 18 32 21.134 32 25ZM28.7019 22.2878C28.3086 21.9001 27.6754 21.9047 27.2878 22.2981L23.8201 25.8167L22.8298 24.3443C22.5215 23.886 21.9001 23.7644 21.4419 24.0727C20.9836 24.3809 20.862 25.0023 21.1703 25.4606L22.8436 27.9484C23.0112 28.1974 23.2817 28.358 23.5805 28.3859C23.8794 28.4138 24.175 28.3059 24.3857 28.0922L28.7123 23.7019C29.0999 23.3086 29.0953 22.6754 28.7019 22.2878Z" fill="black"/>
</svg>
