<svg width="32" height="32" viewBox="0 0 32 32" fill="none" xmlns="http://www.w3.org/2000/svg">
<path d="M9 4C8.44772 4 8 4.44772 8 5V12H6V5C6 3.34315 7.34315 2 9 2H17C17.2652 2 17.5196 2.10536 17.7071 2.29289L25.7071 10.2929C25.8946 10.4804 26 10.7348 26 11V12H19C17.3431 12 16 10.6569 16 9V4H9ZM6 24H8V27C8 27.5523 8.44772 28 9 28H23C23.5523 28 24 27.5523 24 27V24H26V27C26 28.6569 24.6569 30 23 30H9C7.34315 30 6 28.6569 6 27V24ZM18 5.41421V9C18 9.55228 18.4477 10 19 10H22.5858L18 5.41421ZM6.37793 18.1328L4.89355 14.8906H3.29199L5.63574 19.4121V22H7.12012V19.4121L9.45898 14.8906H7.8623L6.37793 18.1328ZM12.8672 14.8906L15.5234 22H13.9609L13.4679 20.501H10.9127L10.4209 22H8.86328L11.5049 14.8906H12.8672ZM11.2892 19.3535H13.0905L12.1887 16.6118L11.2892 19.3535ZM18.0918 14.8906H16.1826V22H17.6426V19.9785L17.4968 16.6767L19.4199 22H20.416L22.3391 16.6767L22.1934 19.9785V22H23.6582V14.8906H21.7441L19.918 20.1104L18.0918 14.8906ZM29.5127 22V20.8574H26.4072V14.8906H24.9424V22H29.5127Z" fill="black"/>
</svg>
