<svg width="32" height="32" viewBox="0 0 32 32" fill="none" xmlns="http://www.w3.org/2000/svg">
<path d="M8 5C8 4.44772 8.44772 4 9 4H16V9C16 10.6569 17.3431 12 19 12H26V11C26 10.7348 25.8946 10.4804 25.7071 10.2929L17.7071 2.29289C17.5196 2.10536 17.2652 2 17 2H9C7.34315 2 6 3.34315 6 5V12H8V5ZM9 28C8.44772 28 8 27.5523 8 27V24H6V27C6 28.6569 7.34315 30 9 30H23C24.6569 30 26 28.6569 26 27V24H24V27C24 27.5523 23.5523 28 23 28H9ZM22.5858 10H19C18.4477 10 18 9.55228 18 9V5.41421L22.5858 10ZM6.20703 14.8906L7.54492 17.3711L8.88281 14.8906H10.5576L8.49219 18.416L10.6113 22H8.92188L7.54492 19.4707L6.16797 22H4.46875L6.59277 18.416L4.52246 14.8906H6.20703ZM20.46 20.1396C20.46 20.0127 20.4404 19.8988 20.4014 19.7979C20.3656 19.6937 20.2972 19.5993 20.1963 19.5146C20.0954 19.4268 19.9538 19.3405 19.7715 19.2559C19.5892 19.1712 19.3532 19.0833 19.0635 18.9922C18.7412 18.888 18.4352 18.7708 18.1455 18.6406C17.859 18.5104 17.6051 18.359 17.3838 18.1865C17.1657 18.0107 16.9932 17.8073 16.8662 17.5762C16.7425 17.3451 16.6807 17.0765 16.6807 16.7705C16.6807 16.4743 16.7458 16.2057 16.876 15.9648C17.0062 15.7207 17.1885 15.5124 17.4229 15.3398C17.6572 15.1641 17.9339 15.029 18.2529 14.9346C18.5752 14.8402 18.9284 14.793 19.3125 14.793C19.8366 14.793 20.2939 14.8874 20.6846 15.0762C21.0752 15.265 21.3779 15.5238 21.5928 15.8525C21.8109 16.1813 21.9199 16.5573 21.9199 16.9805H20.4648C20.4648 16.7721 20.4209 16.5898 20.333 16.4336C20.2484 16.2741 20.1182 16.1488 19.9424 16.0576C19.7699 15.9665 19.5518 15.9209 19.2881 15.9209C19.0342 15.9209 18.8226 15.96 18.6533 16.0381C18.484 16.113 18.3571 16.2155 18.2725 16.3457C18.1878 16.4727 18.1455 16.6159 18.1455 16.7754C18.1455 16.8958 18.1748 17.0049 18.2334 17.1025C18.2952 17.2002 18.3864 17.2913 18.5068 17.376C18.6273 17.4606 18.7754 17.5404 18.9512 17.6152C19.127 17.6901 19.3304 17.7633 19.5615 17.835C19.9489 17.9521 20.2891 18.084 20.582 18.2305C20.8783 18.377 21.1257 18.5413 21.3242 18.7236C21.5228 18.9059 21.6725 19.1126 21.7734 19.3438C21.8743 19.5749 21.9248 19.8369 21.9248 20.1299C21.9248 20.4391 21.8646 20.7158 21.7441 20.96C21.6237 21.2041 21.4495 21.4108 21.2217 21.5801C20.9938 21.7493 20.722 21.8779 20.4062 21.9658C20.0905 22.0537 19.7373 22.0977 19.3467 22.0977C18.9951 22.0977 18.6484 22.0521 18.3066 21.9609C17.9648 21.8665 17.654 21.7249 17.374 21.5361C17.0973 21.3473 16.876 21.1064 16.71 20.8135C16.5439 20.5205 16.4609 20.1738 16.4609 19.7734H17.9307C17.9307 19.9948 17.9648 20.182 18.0332 20.335C18.1016 20.488 18.1976 20.6117 18.3213 20.7061C18.4482 20.8005 18.598 20.8688 18.7705 20.9111C18.9463 20.9535 19.1383 20.9746 19.3467 20.9746C19.6006 20.9746 19.8089 20.9388 19.9717 20.8672C20.1377 20.7956 20.2598 20.6963 20.3379 20.5693C20.4193 20.4424 20.46 20.2992 20.46 20.1396ZM25.4648 17.3711L24.127 14.8906H22.4424L24.5127 18.416L22.3887 22H24.0879L25.4648 19.4707L26.8418 22H28.5312L26.4121 18.416L28.4775 14.8906H26.8027L25.4648 17.3711ZM15.9189 22V20.8574H12.8135V14.8906H11.3486V22H15.9189Z" fill="black"/>
</svg>
