<svg width="32" height="32" viewBox="0 0 32 32" fill="none" xmlns="http://www.w3.org/2000/svg">
<path d="M9 4C8.44772 4 8 4.44772 8 5V27C8 27.5523 8.44772 28 9 28H23C23.5523 28 24 27.5523 24 27V12H19C17.3431 12 16 10.6569 16 9V4H9ZM18 5.41421V9C18 9.55228 18.4477 10 19 10H22.5858L18 5.41421ZM6 5C6 3.34315 7.34315 2 9 2H17C17.2652 2 17.5196 2.10536 17.7071 2.29289L25.7071 10.2929C25.8946 10.4804 26 10.7348 26 11V27C26 28.6569 24.6569 30 23 30H9C7.34315 30 6 28.6569 6 27V5Z" fill="black"/>
</svg>
