<svg width="32" height="32" viewBox="0 0 32 32" fill="none" xmlns="http://www.w3.org/2000/svg">
<path d="M22 8C22 9.10457 22.8954 10 24 10C25.1046 10 26 9.10457 26 8C26 6.89543 25.1046 6 24 6C22.8954 6 22 6.89543 22 8ZM24 18C22.8954 18 22 17.1046 22 16C22 14.8954 22.8954 14 24 14C25.1046 14 26 14.8954 26 16C26 17.1046 25.1046 18 24 18ZM24 26C22.8954 26 22 25.1046 22 24C22 22.8954 22.8954 22 24 22C25.1046 22 26 22.8954 26 24C26 25.1046 25.1046 26 24 26ZM16 18C14.8954 18 14 17.1046 14 16C14 14.8954 14.8954 14 16 14C17.1046 14 18 14.8954 18 16C18 17.1046 17.1046 18 16 18ZM6 16C6 17.1046 6.89543 18 8 18C9.10457 18 10 17.1046 10 16C10 14.8954 9.10457 14 8 14C6.89543 14 6 14.8954 6 16ZM8 26C6.89543 26 6 25.1046 6 24C6 22.8954 6.89543 22 8 22C9.10457 22 10 22.8954 10 24C10 25.1046 9.10457 26 8 26ZM6 8C6 9.10457 6.89543 10 8 10C9.10457 10 10 9.10457 10 8C10 6.89543 9.10457 6 8 6C6.89543 6 6 6.89543 6 8ZM18 8C18 9.10457 17.1046 10 16 10C14.8954 10 14 9.10457 14 8C14 6.89543 14.8954 6 16 6C17.1046 6 18 6.89543 18 8ZM16 26C17.1046 26 18 25.1046 18 24C18 22.8954 17.1046 22 16 22C14.8954 22 14 22.8954 14 24C14 25.1046 14.8954 26 16 26Z" fill="black"/>
</svg>
