<svg width="32" height="32" viewBox="0 0 32 32" fill="none" xmlns="http://www.w3.org/2000/svg">
<path d="M21.3334 14.0931L17.5067 18.1732C17.3144 18.3808 17.0815 18.5463 16.8222 18.6595C16.5629 18.7728 16.283 18.8314 16.0001 18.8314C15.7171 18.8314 15.4373 18.7728 15.178 18.6595C14.9187 18.5463 14.6856 18.3808 14.4934 18.1732L10.6667 14.0931" stroke="black" stroke-width="1.5" stroke-linecap="round" stroke-linejoin="round"/>
<path d="M28 22.6663V9.33297C28 6.38745 25.6122 3.99963 22.6667 3.99963L9.33333 3.99963C6.38781 3.99963 4 6.38745 4 9.33297V22.6663C4 25.6118 6.38781 27.9996 9.33333 27.9996H22.6667C25.6122 27.9996 28 25.6118 28 22.6663Z" stroke="black" stroke-width="1.5" stroke-linecap="round" stroke-linejoin="round"/>
</svg>
