<svg width="32" height="32" viewBox="0 0 32 32" fill="none" xmlns="http://www.w3.org/2000/svg">
<path d="M27.5178 19.3787C26.0586 24.3612 21.4542 28 16 28C11.951 28 8.37033 25.9946 6.19709 22.9229L6.74367 19.0969L7.07182 16.3076C7.27107 14.614 9.33626 13.897 10.5421 15.1028C10.8995 15.4603 11.3293 15.737 11.8026 15.9145L12.0123 15.9932C14.2045 16.8152 16.6636 15.8496 17.7107 13.7555L19.6272 9.9224C20.232 8.71286 21.2128 7.73209 22.4223 7.12732L23.4665 6.60521C24.7165 7.59998 25.7635 8.83897 26.5353 10.25H25.7799C24.1065 10.25 22.75 11.6065 22.75 13.2799C22.75 14.2929 23.2563 15.2389 24.0992 15.8009L25.2679 16.58C25.7242 16.8842 26.1158 17.2758 26.42 17.7321L27.5178 19.3787ZM29.5142 19.6693C29.831 18.4998 30 17.2697 30 16C30 8.26801 23.732 2 16 2C8.26801 2 2 8.26801 2 16C2 23.732 8.26801 30 16 30C22.4375 30 27.8602 25.655 29.4955 19.7377L29.5401 19.708L29.5142 19.6693ZM27.931 17.2944L27.6681 16.9001C27.254 16.279 26.721 15.746 26.0999 15.3319L24.9312 14.5528C24.5056 14.269 24.25 13.7914 24.25 13.2799C24.25 12.4349 24.9349 11.75 25.7799 11.75H27.2257C27.7261 13.0711 28 14.5036 28 16C28 16.4373 27.9766 16.8692 27.931 17.2944ZM4.98844 20.7769C4.35255 19.3131 4 17.6977 4 16C4 9.37258 9.37258 4 16 4C18.2071 4 20.2751 4.59587 22.0518 5.63552L21.7515 5.78568C20.2516 6.5356 19.0355 7.75175 18.2856 9.25158L16.369 13.0846C15.6653 14.4922 14.0125 15.1412 12.539 14.5887L12.3293 14.51C12.0565 14.4077 11.8088 14.2482 11.6027 14.0422C9.51073 11.9502 5.92778 13.194 5.5821 16.1323L5.25612 18.9031L4.98844 20.7769ZM19.3213 21.2517C19.8417 20.9543 20.4522 20.8553 21.04 20.9728L21.6168 21.0882C21.8932 21.1435 22.1362 21.3063 22.2926 21.5408L22.3964 21.6964C22.5437 21.9175 22.5613 22.2005 22.4425 22.4381C22.2704 22.7825 21.863 22.9374 21.5055 22.7944L20.8616 22.5368C20.3529 22.3333 19.798 22.2733 19.2575 22.3634L17.6728 22.6275C17.5785 22.6433 17.4867 22.588 17.4565 22.4973C17.4272 22.4094 17.464 22.313 17.5444 22.2671L19.3213 21.2517ZM21.3342 19.502C20.3913 19.3134 19.412 19.4723 18.5771 19.9494L16.8002 20.9647C16.099 21.3654 15.778 22.2054 16.0334 22.9716C16.2971 23.7626 17.097 24.2442 17.9194 24.1071L19.5041 23.843C19.7738 23.7981 20.0507 23.828 20.3045 23.9295L20.9484 24.1871C22.0302 24.6198 23.2631 24.1511 23.7842 23.1089C24.1437 22.3899 24.0904 21.5333 23.6444 20.8644L23.5407 20.7087C23.1637 20.1432 22.5774 19.7506 21.911 19.6173L21.3342 19.502Z" fill="black"/>
</svg>
