<svg width="32" height="32" viewBox="0 0 32 32" fill="none" xmlns="http://www.w3.org/2000/svg">
<path d="M16 30C23.732 30 30 23.732 30 16C30 8.26801 23.732 2 16 2C8.26801 2 2 8.26801 2 16C2 23.732 8.26801 30 16 30ZM17.1722 21.6159L18.949 20.6006C19.6267 20.2133 20.4216 20.0843 21.1869 20.2374L21.7637 20.3527C22.2352 20.447 22.6498 20.7247 22.9165 21.1247L23.0203 21.2804C23.3169 21.7254 23.3524 22.2952 23.1132 22.7735C22.7666 23.4668 21.9465 23.7786 21.2268 23.4907L20.583 23.2332C20.2016 23.0807 19.7858 23.0357 19.3807 23.1032L17.796 23.3673C17.3376 23.4437 16.8918 23.1753 16.7448 22.7345C16.6025 22.3074 16.7813 21.8392 17.1722 21.6159ZM22.797 6.10922C22.7375 6.13381 22.6789 6.16055 22.6212 6.18938L22.0404 6.4798C20.716 7.14202 19.642 8.21596 18.9798 9.54041L17.04 13.4201C16.1646 15.1709 14.1086 15.9782 12.2758 15.2909L12.0661 15.2123C11.693 15.0724 11.3542 14.8542 11.0725 14.5725C9.4236 12.9236 6.59953 13.904 6.32706 16.22L6 19L5.57818 21.9527C4.57399 20.1984 4 18.1662 4 16C4 9.37258 9.37258 4 16 4C18.5233 4 20.8648 4.77883 22.797 6.10922ZM28 16C28 16.8192 27.9179 17.6192 27.7615 18.3923L27.0441 17.3161C26.6849 16.7774 26.2226 16.3151 25.6839 15.9559L24.5152 15.1768C23.881 14.754 23.5 14.0421 23.5 13.2799C23.5 12.0207 24.5207 11 25.7799 11H26.9119C27.6105 12.5221 28 14.2156 28 16Z" fill="black"/>
</svg>
