<svg width="175" height="175" viewBox="0 0 175 175" fill="none" xmlns="http://www.w3.org/2000/svg">
<path fill-rule="evenodd" clip-rule="evenodd" d="M21.9151 126.384C19.2418 129.057 17.3352 133.643 21.8879 138.195C25.5705 141.878 30.2761 140.855 32.7585 138.373L46.7564 124.667C48.6659 122.757 50.5221 117.739 46.3948 113.612C42.3439 109.561 37.8224 110.768 35.3401 113.25L21.9151 126.384ZM25.7344 128.999C24.5064 130.227 23.6305 132.334 25.7219 134.425C27.4137 136.117 29.5753 135.647 30.7156 134.506L42.6057 122.444C43.4829 121.567 44.3356 119.262 42.4396 117.366C40.5787 115.505 38.5017 116.06 37.3613 117.2L25.7344 128.999Z" fill="#20A2DC"/>
<path fill-rule="evenodd" clip-rule="evenodd" d="M29.6997 91.2764C26.1034 90.1104 21.1522 90.4966 19.1664 96.6212C17.5601 101.575 20.6101 105.302 23.9495 106.385L36.5028 110.672C39.0716 111.505 44.385 110.877 46.1852 105.325C47.9521 99.8752 44.8218 96.3965 41.4823 95.3137L29.6997 91.2764ZM28.8054 95.7695C27.1533 95.2338 24.8788 95.4112 23.9666 98.2247C23.2287 100.501 24.6298 102.212 26.1639 102.71L37.047 106.111C38.227 106.493 40.6679 106.205 41.4949 103.654C42.3065 101.151 40.8685 99.5529 39.3345 99.0555L28.8054 95.7695Z" fill="#20A2DC"/>
<path d="M25.7078 123.567C28.2383 116.798 24.8643 108.569 22.8611 105.3L27.8429 106.645C30.3101 107.087 31.3486 114.157 31.5595 117.636L25.7078 123.567Z" fill="#20A2DC"/>
<path d="M32.9828 117.557C31.7795 110.725 32.3238 108.173 32.7455 107.752L36.8575 109.491L37.1738 112.733L34.0898 116.924C33.8526 117.241 33.2474 119.06 32.9828 117.557Z" fill="#20A2DC"/>
<path fill-rule="evenodd" clip-rule="evenodd" d="M28.5108 136.577C25.8375 139.25 23.9309 143.836 28.4836 148.388C32.1662 152.071 36.8718 151.048 39.3542 148.566L58.049 130.163C59.9585 128.253 61.8146 123.235 57.6874 119.108C53.6365 115.057 49.115 116.264 46.6327 118.747L28.5108 136.577ZM32.3127 139.075C31.0846 140.303 30.2088 142.409 32.3002 144.501C33.9919 146.192 36.1535 145.723 37.2939 144.582L53.8808 127.823C54.758 126.946 55.6107 124.641 53.7148 122.745C51.8539 120.884 49.7768 121.439 48.6365 122.579L32.3127 139.075Z" fill="#20A2DC"/>
<path fill-rule="evenodd" clip-rule="evenodd" d="M37.0183 145.02C34.345 147.694 32.4384 152.279 36.9911 156.832C40.6738 160.515 45.3794 159.492 47.8617 157.01L66.5565 138.607C68.466 136.697 70.3222 131.679 66.195 127.552C62.1441 123.501 57.6226 124.708 55.1403 127.19L37.0183 145.02ZM40.8202 147.518C39.5922 148.746 38.7164 150.853 40.8078 152.944C42.4995 154.636 44.6611 154.166 45.8014 153.026L62.3884 136.267C63.2656 135.39 64.1183 133.085 62.2223 131.189C60.3614 129.328 58.2844 129.882 57.144 131.023L40.8202 147.518Z" fill="#20A2DC"/>
<path fill-rule="evenodd" clip-rule="evenodd" d="M46.8237 152.027C44.1504 154.7 42.2439 159.286 46.7966 163.839C50.4792 167.521 55.1848 166.498 57.6672 164.016L71.6651 150.31C73.5746 148.4 75.4307 143.382 71.3035 139.255C67.2526 135.204 62.7311 136.411 60.2488 138.894L46.8237 152.027ZM50.6431 154.642C49.4151 155.87 48.5392 157.977 50.6306 160.068C52.3224 161.76 54.484 161.29 55.6243 160.15L67.5144 148.087C68.3916 147.21 69.2442 144.905 67.3483 143.009C65.4874 141.148 63.4104 141.703 62.27 142.843L50.6431 154.642Z" fill="#20A2DC"/>
<path d="M149.22 123.564C146.69 116.795 150.064 108.565 152.067 105.297L147.085 106.641C144.618 107.084 143.579 114.153 143.369 117.633L149.22 123.564Z" fill="#20A2DC"/>
<path d="M141.945 117.554C143.149 110.722 142.604 108.17 142.182 107.748L138.07 109.488L137.754 112.73L140.838 116.921C141.075 117.237 141.681 119.056 141.945 117.554Z" fill="#20A2DC"/>
<path fill-rule="evenodd" clip-rule="evenodd" d="M145.228 91.2731C148.825 90.1071 153.776 90.4933 155.762 96.6179C157.368 101.572 154.318 105.298 150.979 106.381L138.425 110.668C135.856 111.501 130.543 110.874 128.743 105.321C126.976 99.8719 130.106 96.3932 133.446 95.3104L145.228 91.2731ZM146.123 95.7662C147.775 95.2305 150.049 95.4079 150.961 98.2214C151.699 100.497 150.298 102.209 148.764 102.706L137.881 106.107C136.701 106.49 134.26 106.202 133.433 103.651C132.621 101.148 134.059 99.5496 135.594 99.0522L146.123 95.7662ZM153.013 126.38C155.686 129.054 157.593 133.639 153.04 138.192C151.729 139.503 150.289 140.218 148.865 140.482C149.593 142.837 149.212 145.617 146.445 148.385C144.64 150.19 142.59 150.864 140.676 150.791C140.739 152.689 140.003 154.762 137.937 156.829C135.691 159.075 133.065 159.571 130.794 159.052C130.553 160.593 129.751 162.216 128.131 163.835C124.449 167.518 119.743 166.495 117.261 164.013L103.263 150.307C101.353 148.397 99.4972 143.379 103.624 139.252C104.796 138.081 106.006 137.349 107.196 136.96C105.938 134.556 105.502 130.78 108.733 127.549C110.729 125.552 112.84 124.833 114.765 124.914C114.724 123.044 115.363 120.982 117.241 119.105C120.371 115.975 123.782 115.984 126.316 117.295C126.654 116.056 127.346 114.796 128.533 113.609C132.584 109.558 137.106 110.765 139.588 113.247L153.013 126.38ZM134.108 147.515L118.969 132.216L117.461 130.732C116.279 129.8 114.402 129.489 112.706 131.185C110.81 133.081 111.662 135.386 112.54 136.264L129.127 153.023C130.267 154.163 132.429 154.633 134.12 152.941C136.212 150.85 135.336 148.743 134.108 147.515ZM134.165 130.532L128.172 124.663C127.901 124.393 127.631 124.059 127.379 123.674L126.292 122.575C125.151 121.435 123.074 120.881 121.213 122.742C119.317 124.638 120.17 126.943 121.047 127.82L137.634 144.579C138.775 145.719 140.936 146.189 142.628 144.497C144.719 142.406 143.844 140.299 142.616 139.071L134.165 130.532ZM140.968 131.212L132.322 122.441C131.445 121.564 130.593 119.259 132.488 117.363C134.349 115.502 136.426 116.056 137.567 117.197L149.194 128.996C150.422 130.224 151.298 132.33 149.206 134.422C147.761 135.866 145.974 135.735 144.773 134.955L140.968 131.212ZM124.297 160.065C126.389 157.973 125.513 155.867 124.285 154.639L112.658 142.84C111.518 141.7 109.441 141.145 107.58 143.006C105.684 144.902 106.536 147.207 107.414 148.084L119.304 160.146C120.444 161.287 122.606 161.757 124.297 160.065Z" fill="#20A2DC"/>
<path d="M106.049 159.863C89.6807 165.872 74.5771 162.288 68.6464 159.863C67.223 159.388 67.0254 158.044 67.223 157.253C67.7765 155.039 70.0697 155.039 71.1768 155.672C85.2208 160.669 99.1698 157.543 104.389 155.355C106.35 154.596 107.631 155.593 107.947 156.304C108.896 158.439 107.077 159.485 106.049 159.863Z" fill="#424242"/>
<path fill-rule="evenodd" clip-rule="evenodd" d="M38.7554 94.6248C41.6548 82.6843 55.0767 58.5661 85.5685 57.6172V61.8082C85.5685 62.5462 86.0588 64.0223 88.0198 64.0223C89.9809 64.0223 90.4185 62.5462 90.3921 61.8082V46.1511C93.6079 44.6223 100.008 39.9357 99.8813 33.4198C100.356 28.0427 96.0382 15.6435 88.8897 9.06437C88.5997 8.82714 87.8301 8.49502 87.0709 9.06437C83.7234 12.1747 76.8385 21.4002 76.0793 33.4198C75.8948 34.896 76.538 38.7813 80.5867 42.5137C77.45 42.6455 70.6863 39.0343 68.7253 23.5354L72.2046 24.8797C73.4435 25.0906 75.8421 24.8006 75.5258 21.9539C75.4467 21.3476 74.8141 20.0877 72.9163 19.8979C71.3084 19.3444 67.7605 18.0475 66.432 17.2884C65.6149 17.0248 63.87 17.067 63.4271 19.3444C63.7435 25.2224 65.8152 38.1961 71.572 43.0672C77.3287 47.9383 83.3016 47.9963 85.5685 47.4164V52.8727C72.4682 52.6618 43.8479 60.4165 34.1689 93.1225L38.7554 94.6248ZM87.9408 15.1533C85.4104 18.3954 80.4602 26.7775 80.9031 34.3688C80.9558 35.6604 82.4372 38.9711 87.9408 41.8811C89.8914 41.143 94.0455 38.6073 95.0577 34.3688C95.2422 30.9686 94.0772 22.3651 87.9408 15.1533Z" fill="#424242"/>
<path d="M67.3019 65.2876L62.2411 63.3898L68.2509 60.5431L72.9164 62.599C74.4346 63.4847 74.0234 65.2349 73.628 65.9993L68.2509 70.902L70.1487 73.6697L75.3677 70.902C76.7595 69.8266 77.9509 70.1904 78.3726 70.5067L87.9408 77.3072C89.3958 77.8766 89.2324 79.5477 88.9688 80.3121L87.9408 85.0567C87.751 86.8913 86.3329 87.4026 85.6476 87.429L76.2376 87.9034L76.712 89.7222C77.0916 91.2404 75.974 92.3053 75.3677 92.648L70.3859 93.9923L68.2509 98.5787C67.555 99.9705 65.7995 99.6858 65.0087 99.3695L61.0549 96.5227L57.3383 98.2624L57.022 100.239L62.2411 101.821C64.0756 102.264 64.3761 103.587 64.297 104.193V107.91L66.1949 110.361L70.8604 107.356C71.8725 106.534 73.1272 106.75 73.628 106.961C76.6593 107.725 83.0697 109.317 84.4615 109.57C85.8532 109.823 86.4647 110.783 86.5965 111.231L88.9688 116.608H91.3411C93.1757 116.355 94.0561 116.977 94.2669 117.32C95.2422 118.585 97.4616 121.4 98.537 122.539C99.6125 123.677 99.2487 125.017 98.9324 125.544L95.4531 131.633C95.3476 132.397 95.1526 134.416 95.2158 136.377C95.2791 138.338 93.5552 138.881 92.6854 138.908L88.8107 138.433L86.1221 143.731C86.8865 144.706 88.6209 146.958 89.4433 148.159C90.2657 149.361 89.7859 150.505 89.4433 150.927C88.468 151.797 86.296 153.758 85.4104 154.644C84.5247 155.529 83.3017 155.329 82.8009 155.118L75.5259 153.774C74.8405 153.748 73.4857 153.22 73.549 151.323C73.6122 149.425 75.315 149.003 76.1585 149.029L83.2753 150.295L84.3824 149.029L81.5357 145.55C80.7133 144.601 81.0348 143.257 81.2984 142.703L85.1785 135.242C85.2001 135.156 85.2246 135.06 85.2522 134.954C85.6951 133.246 87.2819 133.135 88.0199 133.293L90.7085 133.689V130.288L93.9506 124.437L91.3411 121.353H87.3082C85.79 121.1 85.305 120.298 85.2522 119.929L82.7218 114.157L72.9954 111.626L67.4601 115.422C65.6255 116.75 64.3234 115.975 63.9017 115.422L59.5525 109.254V106.012L54.3334 104.193C52.4356 103.687 51.9084 102.559 51.8821 102.058L52.6728 96.839C52.6728 95.3208 53.6218 94.5722 54.0962 94.3877L60.1851 91.8572C61.0075 91.3511 61.8984 91.4882 62.2411 91.62L65.4041 93.676L66.2739 91.62C66.6535 90.3548 67.75 89.8276 68.2509 89.7222L71.6511 88.6151L71.0185 86.401C70.5124 83.9338 72.3365 83.2116 73.3117 83.1589L83.6707 82.7635C83.6075 82.4472 83.9607 80.9974 84.1452 80.3121L77.0283 75.4885L71.0185 78.6515C69.5003 79.7902 68.2245 79.126 67.7764 78.6515C66.6693 77.0173 64.218 73.3692 63.2691 71.851C62.3201 70.3327 62.8737 69.2678 63.2691 68.9251L67.3019 65.2876Z" fill="#424242"/>
<path d="M96.4021 57.3008C95.643 54.1378 98.2472 53.8215 99.6442 54.0587C127.036 60.448 138.207 82.7634 140.368 93.1225L135.861 94.7831C135.988 93.5179 135.176 91.6727 134.754 90.9083L120.757 99.1323C119.571 99.923 118.385 99.6067 117.99 99.2904C117.674 99.0374 115.802 96.6545 114.906 95.4948L106.682 97.3926L106.919 101.267C106.982 102.786 104.099 104.641 102.649 105.379V107.119L111.347 111.152L122.813 110.677C124.395 111.057 124.632 112.206 124.553 112.733C124.616 114.441 123.42 115.237 122.813 115.422L110.161 116.055L99.6442 110.994C97.9994 110.424 97.7463 109.122 97.8254 108.542V104.589C97.8254 103.07 98.458 102.374 98.7743 102.216L102.016 100.081L101.7 96.0483C101.321 93.8974 102.913 93.1488 103.756 93.0434L114.431 90.7502C115.633 90.1808 116.777 90.513 117.199 90.7502L119.967 94.0714L132.856 86.401C124.253 67.6757 106.603 60.3058 98.8534 58.9615C97.2086 58.8983 96.5339 57.828 96.4021 57.3008Z" fill="#424242"/>
</svg>
