<svg width="32" height="32" viewBox="0 0 32 32" fill="none" xmlns="http://www.w3.org/2000/svg">
<path d="M24.5832 8.86619C24.2894 8.50932 24.0126 8.17244 23.8801 7.85307C23.7376 7.50994 23.6926 7.05869 23.6413 6.58182C23.5601 5.79182 23.4669 4.89432 22.8607 4.28994C22.2544 3.68557 21.3607 3.59057 20.5688 3.50869C20.0913 3.45932 19.6407 3.41244 19.2969 3.27057C18.9782 3.13807 18.6407 2.86057 18.2838 2.56682C17.6588 2.05307 16.9526 1.47119 16.0569 1.47119C15.1613 1.47119 14.4538 2.05307 13.8294 2.56682C13.4726 2.86057 13.1357 3.13807 12.8163 3.27057C12.4732 3.41244 12.0219 3.45807 11.5451 3.50869C10.7551 3.59057 9.85756 3.68307 9.25318 4.28932C8.64881 4.89557 8.55381 5.78932 8.47193 6.58182C8.42256 7.05869 8.37568 7.50994 8.23381 7.85307C8.10131 8.17244 7.82381 8.50932 7.53006 8.86619C7.01693 9.49119 6.43506 10.1974 6.43506 11.0937C6.43506 11.9899 7.01693 12.6968 7.53006 13.3206C7.82381 13.6774 8.10131 14.0149 8.23381 14.3337C8.37568 14.6768 8.42131 15.1281 8.47193 15.6056C8.55381 16.3956 8.64631 17.2931 9.25318 17.8974C9.86006 18.5018 10.7532 18.5962 11.5451 18.6781C12.0219 18.7274 12.4732 18.7743 12.8163 18.9168C13.1357 19.0487 13.4726 19.3262 13.8294 19.6199C14.4544 20.1337 15.1613 20.7156 16.0569 20.7156C16.9526 20.7156 17.6601 20.1337 18.2838 19.6199C18.6407 19.3262 18.9782 19.0487 19.2969 18.9168C19.6407 18.7743 20.0913 18.7293 20.5688 18.6781C21.3588 18.5968 22.2563 18.5037 22.8607 17.8974C23.4651 17.2912 23.5601 16.3974 23.6413 15.6056C23.6907 15.1281 23.7376 14.6774 23.8801 14.3337C24.0126 14.0149 24.2894 13.6774 24.5832 13.3206C25.0969 12.6956 25.6788 11.9893 25.6788 11.0937C25.6788 10.1981 25.0969 9.49057 24.5832 8.86619ZM23.7144 12.6056C23.3813 13.0106 23.0369 13.4293 22.8394 13.9031C22.6344 14.3981 22.5769 14.9531 22.5213 15.4893C22.4526 16.1518 22.3882 16.7774 22.0638 17.1018C21.7394 17.4262 21.1138 17.4906 20.4513 17.5593C19.9151 17.6149 19.3601 17.6724 18.8651 17.8774C18.3913 18.0737 17.9726 18.4181 17.5682 18.7524C17.0432 19.1843 16.5482 19.5918 16.0557 19.5918C15.5632 19.5918 15.0676 19.1843 14.5432 18.7524C14.1382 18.4193 13.7194 18.0749 13.2463 17.8774C12.7513 17.6724 12.1963 17.6149 11.6594 17.5593C10.9969 17.4906 10.3713 17.4262 10.0469 17.1018C9.72256 16.7774 9.65818 16.1518 9.59006 15.4893C9.53443 14.9531 9.47693 14.3981 9.27131 13.9031C9.07506 13.4293 8.73068 13.0106 8.39631 12.6056C7.96756 12.0812 7.56256 11.5862 7.56256 11.0937C7.56256 10.6012 7.97006 10.1056 8.40131 9.58119C8.73443 9.17619 9.07881 8.75744 9.27631 8.28369C9.48193 7.78932 9.53943 7.23432 9.59506 6.69744C9.66318 6.03494 9.72818 5.40932 10.0526 5.08494C10.3769 4.76057 11.0001 4.69619 11.6607 4.62494C12.1976 4.57244 12.7501 4.51494 13.2501 4.31244C13.7232 4.11619 14.1419 3.77182 14.5469 3.43744C15.0713 3.00619 15.5669 2.59807 16.0594 2.59807C16.5519 2.59807 17.0469 3.00619 17.5719 3.43744C17.9763 3.77057 18.3951 4.11494 18.8688 4.31244C19.3638 4.51807 19.9188 4.57557 20.4551 4.63057C21.1176 4.69932 21.7432 4.76432 22.0676 5.08807C22.3919 5.41182 22.4563 6.03807 22.5251 6.70057C22.5807 7.23744 22.6382 7.79244 22.8432 8.28682C23.0394 8.76057 23.3838 9.17932 23.7182 9.58432C24.1501 10.1087 24.5576 10.6043 24.5576 11.0968C24.5576 11.5893 24.1463 12.0812 23.7144 12.6056Z" fill="black"/>
<path d="M16.1876 5.9231C15.1382 5.92297 14.1124 6.23404 13.2398 6.81695C12.3672 7.39987 11.6871 8.22845 11.2854 9.19791C10.8837 10.1674 10.7786 11.2342 10.9832 12.2634C11.1879 13.2926 11.6931 14.2381 12.4351 14.9801C13.1771 15.7222 14.1225 16.2276 15.1517 16.4324C16.1809 16.6371 17.2477 16.5321 18.2172 16.1305C19.1867 15.729 20.0154 15.049 20.5984 14.1764C21.1814 13.3039 21.4926 12.2781 21.4926 11.2287C21.4926 9.82169 20.9337 8.47228 19.9388 7.4773C18.944 6.48232 17.5946 5.92326 16.1876 5.9231ZM19.0495 10.1525C17.0351 11.1831 15.7426 13.3562 15.7295 13.3781C15.6782 13.4655 15.6073 13.5399 15.5223 13.5953C15.4374 13.6507 15.3408 13.6857 15.2401 13.6975C15.2148 13.7005 15.1893 13.7019 15.1638 13.7018C15.0753 13.7018 14.9877 13.6839 14.9062 13.6491C14.8248 13.6143 14.7513 13.5633 14.6901 13.4993L13.2257 11.97C13.1661 11.9076 13.1194 11.8341 13.0882 11.7537C13.0571 11.6732 13.042 11.5874 13.044 11.5012C13.046 11.415 13.0649 11.3299 13.0997 11.251C13.1346 11.1721 13.1846 11.1008 13.247 11.0412C13.3094 10.9816 13.3829 10.9349 13.4633 10.9037C13.5437 10.8726 13.6295 10.8575 13.7158 10.8595C13.802 10.8615 13.887 10.8804 13.9659 10.9152C14.0448 10.9501 14.1161 11.0001 14.1757 11.0625L15.077 12.0037C15.6895 11.1687 16.8639 9.79747 18.452 8.98372C18.5287 8.94445 18.6124 8.92067 18.6984 8.91376C18.7843 8.90684 18.8707 8.91692 18.9528 8.94341C19.0348 8.96991 19.1108 9.0123 19.1765 9.06817C19.2421 9.12404 19.2961 9.19229 19.3354 9.26903C19.3747 9.34577 19.3985 9.4295 19.4054 9.51543C19.4123 9.60136 19.4022 9.68781 19.3757 9.76984C19.3492 9.85188 19.3068 9.92789 19.251 9.99354C19.1951 10.0592 19.1268 10.1132 19.0501 10.1525H19.0495Z" fill="black"/>
<path d="M21.4207 21.9106C20.2588 21.855 18.0795 21.9862 16.5263 23.4837C16.3653 23.6401 16.2149 23.8071 16.0763 23.9837C15.9378 23.8071 15.7874 23.6401 15.6263 23.4837C14.0732 21.9837 11.8932 21.855 10.732 21.9106C10.3593 21.927 10.0063 22.0823 9.74248 22.3461C9.47871 22.6099 9.32332 22.9629 9.30696 23.3356C9.25196 24.4962 9.38258 26.6762 10.8801 28.2293C11.9601 29.3493 13.5351 29.9325 15.5676 29.9637C15.6263 29.9637 16.7382 29.9637 16.8976 29.955C18.7795 29.8706 20.2495 29.2918 21.2726 28.2293C22.7726 26.6762 22.9013 24.4962 22.8463 23.3356C22.83 22.9628 22.6745 22.6097 22.4106 22.3459C22.1467 22.0821 21.7935 21.9268 21.4207 21.9106ZM14.2163 26.3125L13.8688 27.3625C13.9226 27.3812 14.9657 27.7487 15.4976 28.8368C13.8207 28.7962 12.5395 28.33 11.6901 27.4487C10.4857 26.1987 10.3838 24.3687 10.4307 23.3862C10.4348 23.2935 10.4736 23.2056 10.5393 23.14C10.605 23.0744 10.6929 23.0358 10.7857 23.0318C11.7651 22.985 13.5982 23.0868 14.8482 24.2912C15.692 25.1037 16.1545 26.3131 16.2282 27.8868C15.7357 27.1674 15.033 26.6176 14.2163 26.3125ZM20.462 27.4468C19.7301 28.2068 18.6757 28.6575 17.3238 28.7931C17.3475 28.688 17.3601 28.5808 17.3613 28.4731C17.3757 27.13 17.1595 25.9775 16.7163 25.0256C16.8826 24.7579 17.0809 24.5115 17.307 24.2918C18.4132 23.2256 19.9745 23.0237 20.9982 23.0237C21.1307 23.0237 21.2545 23.0237 21.367 23.0325C21.4597 23.0364 21.5476 23.075 21.6134 23.1406C21.6791 23.2062 21.7178 23.2941 21.722 23.3868C21.7682 24.3687 21.667 26.1993 20.462 27.4487V27.4468Z" fill="black"/>
</svg>
