<svg width="175" height="175" viewBox="0 0 175 175" fill="none" xmlns="http://www.w3.org/2000/svg">
<path d="M41.2535 46.5549C44.6274 49.0515 47.2703 46.583 48.17 45.0366C55.8625 22.5665 77.0169 17.2776 87.3916 17.4548C119.275 17.9995 129.144 45.3738 129.144 59.1225C129.279 63.6435 128.047 67.7259 127.457 70.5937C126.832 73.6302 129.312 75.6546 130.493 75.8233C133.614 76.4981 135.217 74.6143 135.723 73.5459C137.578 68.485 137.803 61.4843 137.747 58.7009C136.313 18.8044 102.237 8.26105 87.3916 8.76716C58.1737 8.90212 43.6153 30.81 39.9883 41.747C39.1111 44.2437 40.4663 45.9925 41.2535 46.5549Z" fill="#424242"/>
<path d="M99.5504 37.0078C97.835 36.1584 93.6806 34.9457 91.6498 34.6981C91.6668 33.7245 91.6993 31.4251 91.6939 30.0167C91.6884 28.6082 90.389 28.2335 89.7399 28.2222L85.1638 28.5921C84.1706 28.8445 84.1055 29.8597 84.1971 30.3357L84.4448 35.4716C78.2371 37.0491 75.9542 41.2419 74.9943 44.7461C74.2264 47.5495 74.9572 51.1879 75.9375 52.9654C77.5422 55.4654 81.345 58.6404 87.0065 60.462C92.2439 62.1471 93.608 64.2475 93.7606 66.2354C93.4133 70.6941 89.5838 71.6438 87.7124 71.5613C85.2782 71.9684 81.2524 70.4126 79.5439 69.5839C77.5997 68.6408 76.518 69.1192 76.3552 69.8654L74.9238 74.635C74.7203 75.5678 74.795 76.1216 75.1173 76.4362C77.1798 78.4498 82.5089 79.2867 84.9886 79.567C84.974 81.1274 84.9365 84.2856 84.904 84.4349C84.6435 85.6289 86.2224 86.1558 87.0445 86.27L90.9388 86.3378C92.7109 86.0989 92.9707 85.0871 92.8791 84.6111L92.7534 78.9155C99.5243 77.2654 102.108 71.5745 102.553 68.9354C105.248 58.7342 94.7384 53.0928 89.1468 51.5472C86.6105 50.9287 82.0563 48.7494 84.1295 44.98C86.7211 40.2681 95.4969 43.9417 95.6834 43.9824C97.6544 44.8031 98.5101 44.7944 98.7907 44.0739C99.2351 42.9329 100.197 40.315 100.49 38.9717C100.783 37.6284 100.256 37.3571 99.5504 37.0078Z" fill="#20A2DC"/>
<path fill-rule="evenodd" clip-rule="evenodd" d="M87.9023 166.159C69.0085 166.025 64.0882 157.444 64.032 153.423V110.49C63.8633 106.104 68.2662 97.3319 87.2275 97.3319C106.189 97.3319 111.098 105.429 111.182 109.478V153.929C109.765 164.051 95.0718 166.3 87.9023 166.159ZM105.953 110.068C105.953 114.261 97.7202 117.66 87.5649 117.66C77.4096 117.66 69.1772 114.261 69.1772 110.068C69.1772 105.876 77.4096 102.477 87.5649 102.477C97.7202 102.477 105.953 105.876 105.953 110.068ZM105.953 124.239C105.953 128.431 97.7202 131.83 87.5649 131.83C77.4096 131.83 69.1772 128.431 69.1772 124.239V118.166C74.969 121.624 90.4327 126.466 105.953 118.166V124.239ZM87.5649 146.338C97.7202 146.338 105.953 142.939 105.953 138.747V132.505C90.4327 140.805 74.969 135.963 69.1772 132.505V138.747C69.1772 142.939 77.4096 146.338 87.5649 146.338ZM105.953 153.423C105.953 157.616 97.7202 161.014 87.5649 161.014C77.4096 161.014 69.1772 157.616 69.1772 153.423V147.013C74.969 150.471 90.4327 155.312 105.953 147.013V153.423Z" fill="#424242"/>
<path fill-rule="evenodd" clip-rule="evenodd" d="M9.45456 153.508C9.51079 157.528 14.4311 166.109 33.3249 166.244C40.4944 166.385 55.1878 164.135 56.6048 154.014V66.5453C56.5205 62.4967 51.6114 54.3993 32.6501 54.3993C13.6888 54.3993 9.28587 63.1714 9.45456 67.5575V153.508ZM32.9875 74.5583C43.1428 74.5583 51.3753 71.1596 51.3753 66.9671C51.3753 62.7745 43.1428 59.3758 32.9875 59.3758C22.8322 59.3758 14.5998 62.7745 14.5998 66.9671C14.5998 71.1596 22.8322 74.5583 32.9875 74.5583ZM32.9875 117.407C43.1428 117.407 51.3753 114.008 51.3753 109.816V103.743C35.8553 112.042 20.3916 107.201 14.5998 103.743V109.816C14.5998 114.008 22.8322 117.407 32.9875 117.407ZM51.3753 95.3078C51.3753 99.5004 43.1428 102.899 32.9875 102.899C22.8322 102.899 14.5998 99.5004 14.5998 95.3078V89.2348C20.3916 92.6931 35.8553 97.5346 51.3753 89.2348V95.3078ZM32.9875 88.56C43.1428 88.56 51.3753 85.1613 51.3753 80.9688V74.8957C35.8553 83.1955 20.3916 78.354 14.5998 74.8957V80.9688C14.5998 85.1613 22.8322 88.56 32.9875 88.56ZM51.3753 124.323C51.3753 128.516 43.1428 131.915 32.9875 131.915C22.8322 131.915 14.5998 128.516 14.5998 124.323V118.082C20.3916 121.54 35.8553 126.381 51.3753 118.082V124.323ZM32.9875 146.422C43.1428 146.422 51.3753 143.024 51.3753 138.831V132.758C35.8553 141.058 20.3916 136.216 14.5998 132.758V138.831C14.5998 143.024 22.8322 146.422 32.9875 146.422ZM51.3753 153.339C51.3753 157.531 43.1428 160.93 32.9875 160.93C22.8322 160.93 14.5998 157.531 14.5998 153.339V147.097C20.3916 150.555 35.8553 155.397 51.3753 147.097V153.339Z" fill="#424242"/>
<path fill-rule="evenodd" clip-rule="evenodd" d="M118.263 153.507C118.319 157.528 123.239 166.109 142.133 166.244C149.303 166.384 163.996 164.135 165.413 154.013V94.7171C165.329 90.6684 160.42 82.571 141.459 82.571C122.497 82.571 118.094 91.3432 118.263 95.7292V153.507ZM141.796 102.899C151.951 102.899 160.184 99.5001 160.184 95.3075C160.184 91.115 151.951 87.7162 141.796 87.7162C131.641 87.7162 123.408 91.115 123.408 95.3075C123.408 99.5001 131.641 102.899 141.796 102.899ZM141.796 117.069C151.951 117.069 160.184 113.67 160.184 109.478V103.405C144.664 111.705 129.2 106.863 123.408 103.405V109.478C123.408 113.67 131.641 117.069 141.796 117.069ZM160.184 123.817C160.184 128.01 151.951 131.408 141.796 131.408C131.641 131.408 123.408 128.01 123.408 123.817V117.575C129.2 121.034 144.664 125.875 160.184 117.575V123.817ZM141.796 145.916C151.951 145.916 160.184 142.517 160.184 138.325V131.914C144.664 140.214 129.2 135.373 123.408 131.914V138.325C123.408 142.517 131.641 145.916 141.796 145.916ZM160.184 153.507C160.184 157.7 151.951 161.099 141.796 161.099C131.641 161.099 123.408 157.7 123.408 153.507V146.422C129.2 149.88 144.664 154.722 160.184 146.422V153.507Z" fill="#424242"/>
</svg>
