<svg width="175" height="175" viewBox="0 0 175 175" fill="none" xmlns="http://www.w3.org/2000/svg">
<path fill-rule="evenodd" clip-rule="evenodd" d="M89.8111 166.25C115.593 166.25 136.493 145.35 136.493 119.569C136.493 93.7869 115.593 72.8868 89.8111 72.8868C64.0295 72.8868 43.1294 93.7869 43.1294 119.569C43.1294 145.35 64.0295 166.25 89.8111 166.25ZM89.8112 163.285C113.955 163.285 133.527 143.712 133.527 119.569C133.527 95.4248 113.955 75.8523 89.8112 75.8523C65.6673 75.8523 46.0949 95.4248 46.0949 119.569C46.0949 143.712 65.6673 163.285 89.8112 163.285Z" fill="#20A2DC"/>
<path fill-rule="evenodd" clip-rule="evenodd" d="M89.9066 92.688C92.1255 92.688 93.9243 90.8892 93.9243 88.6703C93.9243 86.4514 92.1255 84.6526 89.9066 84.6526C87.6877 84.6526 85.8889 86.4514 85.8889 88.6703C85.8889 90.8892 87.6877 92.688 89.9066 92.688ZM89.9065 89.8181C90.5405 89.8181 91.0545 89.3042 91.0545 88.6702C91.0545 88.0362 90.5405 87.5223 89.9065 87.5223C89.2726 87.5223 88.7586 88.0362 88.7586 88.6702C88.7586 89.3042 89.2726 89.8181 89.9065 89.8181Z" fill="#20A2DC"/>
<path fill-rule="evenodd" clip-rule="evenodd" d="M116.5 101.872C118.719 101.872 120.518 100.073 120.518 97.8539C120.518 95.635 118.719 93.8362 116.5 93.8362C114.281 93.8362 112.482 95.635 112.482 97.8539C112.482 100.073 114.281 101.872 116.5 101.872ZM116.5 99.0017C117.134 99.0017 117.648 98.4878 117.648 97.8538C117.648 97.2198 117.134 96.7059 116.5 96.7059C115.866 96.7059 115.352 97.2198 115.352 97.8538C115.352 98.4878 115.866 99.0017 116.5 99.0017Z" fill="#20A2DC"/>
<path fill-rule="evenodd" clip-rule="evenodd" d="M63.2176 101.872C65.4365 101.872 67.2353 100.073 67.2353 97.8539C67.2353 95.635 65.4365 93.8362 63.2176 93.8362C60.9987 93.8362 59.2 95.635 59.2 97.8539C59.2 100.073 60.9987 101.872 63.2176 101.872ZM63.2176 99.0017C63.8516 99.0017 64.3655 98.4878 64.3655 97.8538C64.3655 97.2198 63.8516 96.7059 63.2176 96.7059C62.5836 96.7059 62.0697 97.2198 62.0697 97.8538C62.0697 98.4878 62.5836 99.0017 63.2176 99.0017Z" fill="#20A2DC"/>
<path d="M88.4717 131.909V92.0665H91.2936V131.909H88.4717Z" fill="#20A2DC"/>
<path d="M66.5181 99.3844V96.5146H113.343V99.3844H66.5181Z" fill="#20A2DC"/>
<path fill-rule="evenodd" clip-rule="evenodd" d="M105.499 117.416L114.682 101.202H118.413L127.644 117.56V118.947C126.544 125.93 120.278 126.791 116.548 126.791C108.177 126.791 105.69 121.673 105.499 118.947V117.416ZM109.373 116.46L116.548 103.689L123.722 116.46H109.373ZM108.465 119.329H124.583C124.503 120.892 122.67 123.969 116.404 123.969C110.282 123.969 108.465 120.573 108.465 119.329Z" fill="#20A2DC"/>
<path fill-rule="evenodd" clip-rule="evenodd" d="M52.8386 127.412C51.5759 127.757 51.6429 128.927 51.8342 129.469C55.3544 143.856 66.9484 152.3 72.3053 154.723C73.7593 155.526 74.5374 154.388 74.7446 153.719C74.7829 151.117 76.6419 150.434 77.5666 150.418H102.342C104.638 150.763 105.116 152.762 105.069 153.719C105.336 155.249 106.679 155.122 107.317 154.866C120.556 148.706 126.64 135.4 128.027 129.517C128.138 128.895 128.094 127.613 127.022 127.46C125.951 127.307 125.396 128.066 125.253 128.465C121.885 141.665 112.052 149.238 107.556 151.375C106.561 148.352 103.825 147.564 102.581 147.549C101.854 144.105 98.8348 143.084 97.4159 143.005H95.3592V135.304C95.2476 133.63 94.0008 130.292 89.9066 130.33C85.8124 130.368 84.5656 133.694 84.454 135.304V143.053H82.3495C79.0589 143.167 77.5666 146.098 77.2318 147.549C74.0941 147.816 72.5763 150.243 72.2097 151.423C61.0367 145.568 55.8519 133.869 54.6562 128.752C54.5765 128.162 54.1013 127.068 52.8386 127.412ZM92.4894 143.053H87.3717V135.495C87.4195 134.762 87.9456 133.2 89.9066 133.2C91.8213 133.2 92.4257 134.698 92.4894 135.495V143.053ZM80.2928 147.549C80.4682 147.006 81.2398 145.922 82.9234 145.922H97.2245C97.7985 145.97 99.0612 146.362 99.5203 147.549H80.2928Z" fill="#20A2DC"/>
<path fill-rule="evenodd" clip-rule="evenodd" d="M52.217 117.416L61.4003 101.202H65.131L74.3622 117.56V118.947C73.2621 125.93 66.9964 126.791 63.2657 126.791C54.8955 126.791 52.4084 121.673 52.217 118.947V117.416ZM56.0913 116.46L63.2657 103.689L70.4402 116.46H56.0913ZM55.1825 119.329H71.3011C71.2214 120.892 69.3879 123.969 63.1223 123.969C57.0001 123.969 55.1825 120.573 55.1825 119.329Z" fill="#20A2DC"/>
<path d="M46.2799 152.567C46.2799 150.833 44.8597 150.25 44.1122 150.25H37.5343V22.9524H128.578V78.5384C128.578 79.4354 129.326 80.7809 130.746 80.7809C132.615 80.7809 133.063 79.1364 133.063 78.4221V20.6352C133.063 19.2897 132.241 18.3927 130.597 18.3927H35.2171C33.7221 18.3927 32.8999 19.8129 32.8999 20.6352V152.417C32.8999 154.211 34.2111 154.884 35.0334 154.884H44.2294C44.9769 154.884 46.2799 154.286 46.2799 152.567Z" fill="#424242"/>
<path d="M46.4293 14.3562V13.3097L137.698 13.3097V92.8417C137.698 93.5892 138.206 94.9347 139.94 94.9347C141.674 94.9347 142.257 93.5145 142.257 92.8417V10.9925C142.257 9.34799 140.762 8.75002 139.865 8.75H44.4858C42.4676 8.75 41.8696 10.0955 41.8696 10.9177V14.4309C41.8696 15.1036 42.5125 16.5239 44.1868 16.5239C45.8612 16.5239 46.4293 15.1036 46.4293 14.3562Z" fill="#424242"/>
<path d="M46.1516 53.5723C46.1516 51.8649 47.3281 51.3625 48.2969 51.3625H117.288C118.188 51.3625 119.226 51.984 119.226 53.5032C119.226 55.051 117.98 55.6439 117.288 55.6439H48.0893C47.1897 55.6439 46.1516 54.9533 46.1516 53.5723Z" fill="#424242"/>
<path d="M46.1826 61.9128C46.1826 60.2055 47.3591 59.7031 48.3279 59.7031H117.319C118.219 59.7031 119.257 60.3246 119.257 61.8438C119.257 63.3916 118.011 63.9844 117.319 63.9844H48.1203C47.2207 63.9844 46.1826 63.2939 46.1826 61.9128Z" fill="#424242"/>
<path d="M46.1516 34.5748C46.1516 32.8675 47.3281 32.3651 48.2969 32.3651H117.288C118.188 32.3651 119.226 32.9866 119.226 34.5058C119.226 36.0536 117.98 36.6464 117.288 36.6464H48.0893C47.1897 36.6464 46.1516 35.9559 46.1516 34.5748Z" fill="#424242"/>
<path d="M46.1826 42.9154C46.1826 41.208 47.3591 40.7057 48.3279 40.7057H117.319C118.219 40.7057 119.257 41.3272 119.257 42.8463C119.257 44.3941 118.011 44.987 117.319 44.987H48.1203C47.2207 44.987 46.1826 44.2965 46.1826 42.9154Z" fill="#424242"/>
</svg>
