<svg width="175" height="175" viewBox="0 0 175 175" fill="none" xmlns="http://www.w3.org/2000/svg">
<path d="M38.082 150.974C38.082 149.259 36.6775 148.683 35.9383 148.683H29.4332V22.7951H119.469V46.2281C119.469 47.1151 120.208 48.4457 121.613 48.4457C123.461 48.4457 123.904 46.8194 123.904 46.1131V20.5035C123.904 19.1729 123.091 18.2859 121.465 18.2859H27.1417C25.6632 18.2859 24.8501 19.6904 24.8501 20.5035V150.826C24.8501 152.601 26.1468 153.266 26.9599 153.266H36.0542C36.7934 153.266 38.082 152.674 38.082 150.974Z" fill="#424242"/>
<path d="M38.2299 14.2941V13.2592L128.488 13.2592V67.5173C128.488 68.2565 128.99 69.5871 130.705 69.5871C132.42 69.5871 132.997 68.1826 132.997 67.5173V10.9676C132.997 9.34137 131.518 8.75002 130.631 8.75H36.3079C34.3121 8.75 33.7207 10.0806 33.7207 10.8937V14.368C33.7207 15.0333 34.3564 16.4378 36.0123 16.4378C37.6681 16.4378 38.2299 15.0333 38.2299 14.2941Z" fill="#424242"/>
<path d="M35.3264 30.2125C35.3264 28.3848 36.5831 27.847 37.618 27.847H111.313C112.274 27.847 113.383 28.5123 113.383 30.1385C113.383 31.7954 112.052 32.4301 111.313 32.4301H37.3962C36.4352 32.4301 35.3264 31.6909 35.3264 30.2125Z" fill="#20A2DC"/>
<path d="M35.3264 39.6127C35.3264 37.785 36.5831 37.2473 37.618 37.2473H100.66C101.621 37.2473 102.73 37.9125 102.73 39.5388C102.73 41.1957 101.4 41.8304 100.66 41.8304H37.3962C36.4352 41.8304 35.3264 41.0912 35.3264 39.6127Z" fill="#424242"/>
<path d="M35.3264 55.4358C35.3264 53.6081 36.5831 53.0703 37.618 53.0703H83.1739C84.1349 53.0703 85.2437 53.7356 85.2437 55.3619C85.2437 57.0188 83.9131 57.6534 83.1739 57.6534H37.3962C36.4352 57.6534 35.3264 56.9142 35.3264 55.4358Z" fill="#20A2DC"/>
<path d="M35.3264 64.8361C35.3264 63.0084 36.5831 62.4706 37.618 62.4706H67.1207C68.0817 62.4706 69.1905 63.1359 69.1905 64.7621C69.1905 66.419 67.8599 67.0537 67.1207 67.0537H37.3962C36.4352 67.0537 35.3264 66.3145 35.3264 64.8361Z" fill="#424242"/>
<path d="M35.448 80.6593C35.448 78.8316 36.7047 78.2938 37.7396 78.2938H56.0022C56.9632 78.2938 58.072 78.9591 58.072 80.5854C58.072 82.2423 56.7414 82.8769 56.0022 82.8769H37.5178C36.5568 82.8769 35.448 82.1377 35.448 80.6593Z" fill="#20A2DC"/>
<path d="M35.2874 90.1174C35.2874 88.2897 36.544 87.752 37.5789 87.752H44.6014C45.5624 87.752 46.6712 88.4172 46.6712 90.0435C46.6712 91.7004 45.3406 92.3351 44.6014 92.3351L37.3571 92.3351C36.3962 92.3351 35.2874 91.5959 35.2874 90.1174Z" fill="#424242"/>
<path fill-rule="evenodd" clip-rule="evenodd" d="M60.1657 155.022C57.6711 155.022 52.6072 153.476 52.3079 147.289C52.3079 145.896 52.8068 143.111 55.1142 141.365C57.297 139.556 61.2882 135.502 62.099 134.006C62.9097 132.634 64.7931 129.341 65.3419 122.905C65.7784 118.789 66.8386 109.746 67.3375 105.942C67.8988 98.2713 72.7756 79.4874 89.0401 74.199C88.1046 68.3991 89.5764 58.2838 101.201 57.735C106.065 57.5053 114.859 61.0401 113.362 74.2613C119.411 75.8827 132.445 83.3041 134.877 105.942L136.998 122.905C137.226 125.649 138.245 131.511 140.241 134.006C141.155 135.461 143.733 138.745 147.163 141.365C148.161 142.072 150.119 144.258 149.969 147.352C149.928 149.784 148.323 154.723 142.236 155.022H114.048C113.549 158.702 110.269 166.098 101.139 166.248C92.4701 166.39 88.7283 158.827 88.2294 155.022L60.1657 155.022ZM94.0294 73.0763V69.1474C94.2789 67.0063 96.075 62.7489 101.264 62.8487C106.452 62.9485 108.04 67.0894 108.186 69.1474V73.0763C105.712 72.5982 99.4177 71.9289 94.0294 73.0763ZM101.139 161.134C95.7504 160.885 93.7797 156.956 93.4679 155.022H108.872C107.475 159.912 103.134 161.134 101.139 161.134ZM59.3074 150.85C58.5265 150.829 56.9139 150.26 56.7113 148.156C56.6268 147.6 56.9772 146.193 59.0541 145.012C60.616 143.73 64.1451 140.471 65.7661 137.7C66.6526 136.353 68.5776 132.696 69.1855 128.847C69.6287 125.918 70.6292 118.879 71.0851 114.157C71.5917 99.6601 76.5941 75.5406 101.669 76.5028C112.244 76.2463 129.721 81.3139 131.177 114.157C131.536 118.648 132.431 127.872 133.14 128.847C133.52 131.114 134.761 136.057 136.686 137.7C137.382 139.089 139.7 142.498 143.398 145.012C144.052 145.462 145.374 146.706 145.424 148.092C145.445 148.904 145.019 150.593 143.145 150.85L59.3074 150.85Z" fill="#424242"/>
<path fill-rule="evenodd" clip-rule="evenodd" d="M94.5386 92.0337C94.6783 90.0177 96.2033 85.9856 101.186 85.9856C106.168 85.9856 107.573 90.0177 107.653 92.0337L105.198 120.777C105.138 121.975 103.701 123.951 101.186 123.951C98.1914 123.951 96.9339 121.496 96.9339 120.777L94.5386 92.0337ZM97.473 91.9141C97.5328 90.9161 98.3353 88.92 101.066 88.92C103.797 88.92 104.599 90.8362 104.659 91.7943L102.443 119.7C102.323 120.658 101.844 121.017 101.126 121.017C100.407 121.017 99.8084 120.777 99.7485 119.7L97.473 91.9141Z" fill="#20A2DC"/>
<path fill-rule="evenodd" clip-rule="evenodd" d="M101.055 138.094C103.602 138.094 105.666 136.029 105.666 133.483C105.666 130.936 103.602 128.872 101.055 128.872C98.5087 128.872 96.4443 130.936 96.4443 133.483C96.4443 136.029 98.5087 138.094 101.055 138.094ZM101.055 135.1C101.948 135.1 102.672 134.376 102.672 133.483C102.672 132.59 101.948 131.866 101.055 131.866C100.162 131.866 99.4385 132.59 99.4385 133.483C99.4385 134.376 100.162 135.1 101.055 135.1Z" fill="#20A2DC"/>
</svg>
