<svg width="175" height="175" viewBox="0 0 175 175" fill="none" xmlns="http://www.w3.org/2000/svg">
<path d="M40.4957 163.753C40.4957 161.884 38.965 161.255 38.1593 161.255H31.0698V24.057H129.195V41.9664C129.195 42.9332 130.001 44.3833 131.531 44.3833C133.545 44.3833 134.029 42.6109 134.029 41.8411V21.5596C134.029 20.1095 133.143 19.1427 131.37 19.1427H28.5724C26.9611 19.1427 26.075 20.6734 26.075 21.5596V163.591C26.075 165.525 27.4882 166.25 28.3744 166.25H38.2857C39.0913 166.25 40.4957 165.606 40.4957 163.753Z" fill="#424242"/>
<path d="M40.6568 14.7922V13.6643L139.024 13.6643V55.6322C139.024 56.4378 139.572 57.8879 141.441 57.8879C143.31 57.8879 143.938 56.3573 143.938 55.6322V11.1669C143.938 9.3945 142.327 8.75002 141.36 8.75H38.5621C36.3869 8.75 35.7424 10.2001 35.7424 11.0863V14.8728C35.7424 15.5978 36.4353 17.1285 38.2399 17.1285C40.0445 17.1285 40.6568 15.5978 40.6568 14.7922Z" fill="#424242"/>
<path d="M40.3574 36.583C40.3574 34.7428 41.6254 34.2014 42.6696 34.2014H117.027C117.996 34.2014 119.115 34.8712 119.115 36.5086C119.115 38.1767 117.773 38.8157 117.027 38.8157H42.4458C41.4762 38.8157 40.3574 38.0715 40.3574 36.583Z" fill="#424242"/>
<path d="M40.3906 47.2867C40.3906 45.4466 41.6586 44.9052 42.7028 44.9052H117.06C118.029 44.9052 119.148 45.575 119.148 47.2123C119.148 48.8805 117.806 49.5195 117.06 49.5195H42.479C41.5094 49.5195 40.3906 48.7752 40.3906 47.2867Z" fill="#424242"/>
<path d="M40.3574 61.978C40.3574 60.1379 41.6226 59.5964 42.6646 59.5964H88.5307C89.4982 59.5964 90.6146 60.2663 90.6146 61.9036C90.6146 63.5718 89.2749 64.2107 88.5307 64.2107H42.4413C41.4738 64.2107 40.3574 63.4665 40.3574 61.978Z" fill="#424242"/>
<path d="M40.3574 71.4424C40.3574 69.6022 41.6226 69.0608 42.6646 69.0608H72.3682C73.3357 69.0608 74.4521 69.7306 74.4521 71.3679C74.4521 73.0361 73.1124 73.6751 72.3682 73.6751H42.4413C41.4738 73.6751 40.3574 72.9309 40.3574 71.4424Z" fill="#424242"/>
<path fill-rule="evenodd" clip-rule="evenodd" d="M51.1442 104.315C49.9863 105.269 50.4347 106.586 50.8036 107.125L83.157 150.717C84.3149 152.147 86.1369 151.426 86.9031 150.887L111.253 132.752C112.343 131.73 111.878 130.34 111.509 129.772L99.5891 113.851L142.074 82.2638C144.799 80.6972 145.423 77.5811 145.395 76.2188C145.054 70.4293 140.428 69.0386 138.158 69.067C136.727 68.9308 135.178 69.7481 134.582 70.1738L91.1602 102.272L79.0702 86.1803C77.9804 84.8861 76.4592 85.4708 75.8349 85.9249L51.1442 104.315ZM59.4027 109.849L56.8485 106.614L76.6863 91.7144L79.2405 95.2051L59.4027 109.849ZM61.7866 113L81.4541 98.2703L100.611 123.983L80.8581 138.797L61.7866 113ZM105.379 130.538L102.995 127.133L83.0718 141.862L85.626 145.268L105.379 130.538ZM94.8212 106.188L97.0349 109.168L139.52 77.5811C140.031 77.1553 140.627 76.0484 139.52 74.9417C138.498 73.9201 137.391 74.4309 136.796 74.9417L94.8212 106.188Z" fill="#20A2DC"/>
<path fill-rule="evenodd" clip-rule="evenodd" d="M65.533 154.378C65.533 153.186 65.8224 151.892 68.3426 151.824H125.472C126.267 151.937 127.856 152.624 127.856 154.463V163.318C127.856 164.254 127.294 166.093 125.046 165.957H68.3426C67.4061 166.014 65.533 165.582 65.533 163.403V154.378ZM70.8116 157.017V160.678H122.662V156.932L70.8116 157.017Z" fill="#20A2DC"/>
<path d="M123.087 140.959C124.148 139.46 125.491 139.748 126.34 140.349L137.605 145.852C138.394 146.41 138.917 147.599 137.973 148.934C137.011 150.293 135.551 150.041 134.945 149.612L123.498 143.98C122.71 143.422 122.229 142.172 123.087 140.959Z" fill="#424242"/>
<path d="M119.322 112.355C121.135 112.648 121.468 113.981 121.302 115.008L121.316 127.545C121.162 128.499 120.325 129.492 118.711 129.232C117.067 128.966 116.651 127.544 116.769 126.811L116.79 114.054C116.944 113.1 117.855 112.119 119.322 112.355Z" fill="#424242"/>
<path d="M123.699 133.887C123.189 132.122 124.253 131.253 125.252 130.964L136.583 125.598C137.511 125.33 138.767 125.664 139.22 127.234C139.682 128.834 138.574 129.818 137.86 130.024L126.315 135.452C125.387 135.72 124.111 135.315 123.699 133.887Z" fill="#424242"/>
</svg>
