<svg width="175" height="175" viewBox="0 0 175 175" fill="none" xmlns="http://www.w3.org/2000/svg">
<path fill-rule="evenodd" clip-rule="evenodd" d="M63.0364 166.244C61.2345 166.244 60.7043 164.868 60.7043 163.734V151.183C60.7043 150.131 61.3602 148.916 62.9635 148.916C63.0133 148.916 63.0621 148.917 63.1101 148.92C63.1588 148.917 63.2071 148.916 63.255 148.916H111.572C111.625 148.916 111.678 148.918 111.732 148.923C111.798 148.918 111.867 148.916 111.937 148.916C113.57 148.916 114.196 150.374 114.196 151.183V163.977C114.196 165.03 113.467 166.244 112.01 166.244C110.208 166.244 109.677 164.868 109.677 163.734V153.936H65.2227V163.977C65.2227 165.03 64.4939 166.244 63.0364 166.244Z" fill="#20A2DC"/>
<path fill-rule="evenodd" clip-rule="evenodd" d="M60.4857 64.2983C60.5343 63.5425 61.0396 62.0148 62.672 61.95C64.3045 61.8853 64.9069 63.4885 65.0041 64.2983V79.6834C65.66 86.917 70.9508 101.417 86.8671 101.546C93.1588 101.708 106.325 97.5624 108.657 79.6834V64.5412C108.682 63.6775 109.182 61.95 110.989 61.95C112.797 61.95 113.248 63.6775 113.248 64.5412V78.3068C113.2 81.2489 112.199 88.4933 108.584 93.9348L140.14 110.373C141.889 111.56 145.577 115.263 146.334 120.575L151.946 163.249C151.995 164.112 151.625 165.872 149.76 166.002C149.177 166.056 147.909 165.759 147.5 164.139L141.743 121.061C141.525 119.388 140.169 115.652 136.496 114.097L121.119 106.081V129.078C121.435 129.213 122.139 129.823 122.431 131.183L132.196 163.249C132.342 164.193 132.094 166.115 129.937 166.245C129.378 166.299 128.13 165.969 127.605 164.22L118.35 133.774H55.7487L47.1493 164.787C46.9549 165.273 46.2893 166.228 45.1816 166.164C44.4771 166.164 43.0245 165.662 42.8496 163.653L51.8134 131.183V107.781L38.5498 114.664C37.4567 115.42 35.0955 117.741 34.3959 120.98L27.5455 164.301C27.424 164.868 26.8167 166.018 25.3592 166.083C24.7033 166.164 23.3332 165.775 23.1 163.573L30.0233 119.927C30.3391 117.363 32.5739 111.555 38.9871 108.834L65.8057 94.9875C64.0324 92.7472 60.4857 86.307 60.4857 78.4687V64.2983ZM56.3317 105.433V128.916H64.421V101.141L56.3317 105.433ZM68.9394 128.754V98.8742C83.9229 112.672 98.6488 104.893 104.139 99.279V128.754H68.9394ZM116.601 103.49V128.916H108.511V99.1981L116.601 103.49Z" fill="#424242"/>
<path d="M70.0327 65.189C70.0327 63.1869 71.2716 62.5978 72.2919 62.5978H75.4256C76.373 62.5978 77.4661 63.3266 77.4661 65.108C77.4661 66.923 76.1544 67.6182 75.4256 67.6182H72.0733C71.1259 67.6182 70.0327 66.8085 70.0327 65.189Z" fill="#20A2DC"/>
<path d="M95.248 65.189C95.248 63.1869 96.487 62.5978 97.5072 62.5978H100.641C101.588 62.5978 102.681 63.3266 102.681 65.108C102.681 66.923 101.37 67.6182 100.641 67.6182H97.2886C96.3412 67.6182 95.248 66.8085 95.248 65.189Z" fill="#20A2DC"/>
<path fill-rule="evenodd" clip-rule="evenodd" d="M82.8589 80.0071C82.8589 81.1408 83.3891 82.5173 85.1909 82.5173C85.2185 82.5173 85.2459 82.5169 85.273 82.516C85.2943 82.5168 85.3155 82.5173 85.3367 82.5173H88.9806C89.7093 82.5173 91.0211 81.822 91.0211 80.0071C91.0211 78.2256 89.928 77.4969 88.9806 77.4969H87.3772V67.6181C87.3772 66.8084 86.7515 65.3508 85.1181 65.3508C83.5148 65.3508 82.8589 66.5654 82.8589 67.6181V80.0071Z" fill="#20A2DC"/>
<path d="M81.5474 89.4812C81.5474 87.4792 82.7863 86.8901 83.8065 86.8901H90.5841C91.5315 86.8901 92.6246 87.6188 92.6246 89.4003C92.6246 91.2152 91.3128 91.9105 90.5841 91.9105H83.5879C82.6405 91.9105 81.5474 91.1007 81.5474 89.4812Z" fill="#20A2DC"/>
<path fill-rule="evenodd" clip-rule="evenodd" d="M58.0079 52.7999H51.6676C50.9631 52.8539 49.5542 53.4153 49.5542 55.2291C49.5542 57.0429 50.9631 57.6583 51.6676 57.7393H122.65C123.33 57.6583 124.69 57.0591 124.69 55.3101C124.69 53.5611 123.33 52.8539 122.65 52.7189H115.653V42.4352C115.508 35.6064 111.616 21.4791 97.2155 19.6005H95.9766V14.985C96.0009 13.0686 94.9855 9.13868 90.7295 8.75H83.0046C81.4256 8.83097 78.1802 10.1266 77.8304 14.6611V19.6005H76.3728C70.7613 19.6005 58.8824 25.5926 58.0079 42.2733V52.7999ZM62.5263 52.8V42.6782C62.6477 36.7671 65.8786 24.8801 77.8304 24.621V43.9738C77.8304 45.0265 78.3551 46.2735 80.1624 46.403C80.8912 46.403 82.3487 45.5933 82.3487 43.9738V15.0661C82.3001 14.6342 82.4653 13.7705 83.5147 13.7705H90.2194C90.6567 13.7705 91.502 14.0296 91.3854 15.0661V43.5689C91.3854 44.6216 91.7935 46.2735 93.7175 46.403C94.4705 46.403 95.9767 45.7552 95.9767 43.5689V24.621C100.568 24.459 110.013 27.7952 111.062 42.4353V52.8H62.5263Z" fill="#20A2DC"/>
</svg>
