<svg width="175" height="175" viewBox="0 0 175 175" fill="none" xmlns="http://www.w3.org/2000/svg">
<path d="M36.8233 77.9056C36.361 77.7075 20.3948 74.4108 12.4695 72.7872C10.6532 72.4147 9.06238 73.0816 8.83706 74.7685C8.64327 76.2193 9.41476 77.4094 10.2405 77.5748L32.943 82.2801L36.8233 77.9056Z" fill="#424242"/>
<path d="M29.8883 70.7221C29.6241 69.0049 31.1266 68.0959 32.1173 67.9978C41.2809 67.0895 43.4274 61.9714 43.9227 60.5679C44.0975 60.0726 44.418 59.6598 44.8308 59.2471C45.9613 58.1167 47.39 58.9168 47.9679 59.2471L67.5335 70.7222C68.359 71.2176 69.3497 71.7954 70.4229 71.7954C72.4868 71.7954 74.8809 69.7316 74.9634 67.5024C75.0295 65.7191 73.7802 64.2828 73.1472 63.7876L53.334 47.3591C52.9212 46.9188 52.3433 45.6748 53.334 44.2219C54.3247 42.7689 55.7831 43.0661 56.3885 43.3963L76.9448 60.2376C79.4214 62.219 80.1644 65.9339 80.0818 67.5024C79.7516 74.6022 73.8077 76.9139 70.4229 76.9139C68.4413 76.9139 65.3045 75.5103 63.9836 74.6022L47.4726 64.8607C44.2364 70.7386 36.4377 72.7584 32.9429 73.0336C30.6313 73.1657 29.9434 71.5476 29.8883 70.7221Z" fill="#424242"/>
<path d="M8.75428 31.9212C8.68823 33.7044 10.2128 34.4254 10.9833 34.563L31.0442 38.1955L61.8373 27.4634C65.6678 26.0104 70.1478 27.7936 71.909 28.8668L93.621 42.6535L100.721 52.5601L108.068 54.4589L97.0058 38.6909C92.6469 35.9831 82.421 29.5273 77.853 26.6378C75.4754 24.6565 71.5237 23.0053 69.8451 22.4274C66.0146 21.1725 62.3601 21.9045 61.0117 22.4274L30.8791 32.9944L11.8914 29.5273C10.2403 29.197 8.82032 30.138 8.75428 31.9212Z" fill="#424242"/>
<path d="M45.3263 71.9609C43.8403 70.3096 42.2717 71.2454 41.6113 71.9609L23.3666 91.6914C21.5834 93.0122 21.3577 94.3331 21.4678 94.8285C21.732 96.5456 23.3391 97.2501 24.1096 97.3877C74.105 110.795 102.124 139.573 109.884 152.287C110.49 153.002 111.788 154.138 113.517 152.865C115.085 151.709 114.507 150.03 114.095 149.397C100.622 128.66 74.5783 112.468 63.2407 106.964C93.3568 116.937 114.095 137.84 121.112 147.746C121.697 148.572 123.572 149.199 124.827 148.077C126.082 146.954 125.57 145.297 125.157 144.609C102.207 113.321 60.5164 99.2864 41.6113 95.3238C81.1552 95.4889 117.424 125.594 130.936 140.481C132.389 141.868 133.908 141.472 134.321 140.729L165.692 98.0481C166.814 96.5951 165.994 95.0761 165.444 94.4982C138.762 59.5609 92.7404 47.7446 73.0648 46.2036C70.7532 46.0715 70.0653 47.3043 70.0102 47.9373C69.5479 50.4469 71.1385 51.1844 71.9916 51.2395C120.732 56.2588 151.355 83.381 160.573 96.3146L132.505 134.785C88.1724 90.6181 46.8948 88.3066 30.9617 90.9485L45.0786 75.7584C45.739 75.0978 46.8028 73.6016 45.3263 71.9609Z" fill="#424242"/>
<path d="M80.3297 59.99C80.3957 57.8105 82.2284 57.3483 83.5493 57.5959L90.484 59.0819C91.8874 59.3296 93.3569 60.7825 92.6304 62.6318C91.9039 64.481 90.484 64.2829 88.9154 63.9527L82.9714 62.6318C81.6505 62.3841 80.2636 62.1694 80.3297 59.99Z" fill="#20A2DC"/>
<path d="M47.0598 78.3999L51.0225 73.3641C51.6004 72.7038 53.1194 72.7367 54.2421 73.5292C55.3649 74.3217 55.3979 75.6757 54.82 76.5012L53.334 78.5651C54.787 79.4236 55.4805 81.0692 55.6456 81.7847C63.5048 82.7754 72.4043 85.5547 75.8716 86.8206C77.7704 87.5635 77.5227 89.6274 76.9448 90.453C75.8716 92.0215 74.4682 91.6638 73.6426 91.2786C69.68 89.4293 58.8377 87.426 53.9119 86.6555C51.3527 86.3253 50.9674 85.2245 51.0225 84.509C51.0225 82.4617 49.7016 82.1975 48.7109 82.0324C46.0692 81.4545 46.4819 79.2256 47.0598 78.3999Z" fill="#20A2DC"/>
<path fill-rule="evenodd" clip-rule="evenodd" d="M125.652 100.525C128.206 100.525 130.275 98.4553 130.275 95.902C130.275 93.3488 128.206 91.2789 125.652 91.2789C123.099 91.2789 121.029 93.3488 121.029 95.902C121.029 98.4553 123.099 100.525 125.652 100.525ZM125.652 96.8927C126.199 96.8927 126.643 96.4492 126.643 95.9021C126.643 95.3549 126.199 94.9114 125.652 94.9114C125.105 94.9114 124.662 95.3549 124.662 95.9021C124.662 96.4492 125.105 96.8927 125.652 96.8927Z" fill="#20A2DC"/>
<path fill-rule="evenodd" clip-rule="evenodd" d="M99.9776 94.0854C107.592 94.0854 113.764 87.9129 113.764 80.2987C113.764 72.6845 107.592 66.512 99.9776 66.512C92.3634 66.512 86.1909 72.6845 86.1909 80.2987C86.1909 87.9129 92.3634 94.0854 99.9776 94.0854ZM100.06 89.2971C104.984 89.2971 108.976 85.3053 108.976 80.3812C108.976 75.457 104.984 71.4652 100.06 71.4652C95.136 71.4652 91.1442 75.457 91.1442 80.3812C91.1442 85.3053 95.136 89.2971 100.06 89.2971Z" fill="#20A2DC"/>
<path d="M103.94 101.433C103.049 102.919 103.94 104.622 104.849 105.065C108.233 106.716 119.048 114.532 124.084 118.439C125.273 119.364 126.561 118.935 127.056 118.604C130.622 115.897 133.99 117.366 135.229 118.439C136.814 119.76 138.091 118.99 138.531 118.439L151.079 101.598C152.235 100.03 151.676 98.8738 150.914 98.2959C148.52 96.4797 146.704 94.003 146.952 91.6089C147.174 89.4625 146.704 88.802 146.044 88.3892L138.201 81.7023L129.615 75.3455C128.679 74.685 126.808 73.6943 125.57 75.5106C124.453 77.1485 125.322 78.3725 125.818 78.7302C129.516 81.1078 138.036 88.0865 141.833 91.2786C141.833 96.5622 144.062 98.7912 145.631 100.36L145.631 100.36L136.137 113.238C131.976 110.993 127.634 112.468 125.983 113.486L107.986 100.938C107.078 100.277 105.09 99.5165 103.94 101.433Z" fill="#20A2DC"/>
</svg>
