<svg width="175" height="175" viewBox="0 0 175 175" fill="none" xmlns="http://www.w3.org/2000/svg">
<path fill-rule="evenodd" clip-rule="evenodd" d="M132.368 82.4732C134.22 81.0452 135.756 81.983 136.572 83.1014L138.726 86.055C139.484 87.0934 139.684 88.8115 138.037 90.0822C136.358 91.3767 134.666 90.4347 134.084 89.6359L131.754 86.4426C130.996 85.4041 130.871 83.6283 132.368 82.4732ZM117.243 105.9C115.994 105.347 114.208 105.319 113.293 107.504C112.552 109.273 113.52 110.749 114.68 111.262L118.246 112.841C119.138 113.236 121.062 113.187 121.891 111.206C122.706 109.261 121.701 107.873 120.541 107.36L117.243 105.9ZM137.972 121.448C139.233 121.971 141.019 121.957 141.886 119.751C142.587 117.966 141.586 116.512 140.415 116.026L128.661 111.147C127.76 110.774 125.838 110.867 125.052 112.867C124.281 114.831 125.317 116.195 126.488 116.681L137.972 121.448ZM147.74 107.727C148.582 108.824 150.139 109.724 151.957 108.251C153.427 107.059 153.26 105.286 152.478 104.267L144.63 94.0324C144.028 93.2482 142.315 92.3484 140.667 93.6841C139.05 94.9952 139.29 96.7078 140.072 97.7272L147.74 107.727Z" fill="#20A2DC"/>
<path fill-rule="evenodd" clip-rule="evenodd" d="M87.8523 150.092L84.6787 164.007C84.543 164.793 83.8486 166.334 82.1561 166.204C80.0403 166.041 79.7148 164.414 79.7148 163.681C79.7148 163.095 82.7528 150.309 84.2718 143.989L102.744 125.761L121.378 126.249L150.836 109.73L163.612 81.4935C164.018 80.7069 165.255 79.3127 166.948 80.0288C168.64 80.7449 168.521 82.7141 168.25 83.6093L154.66 112.985L159.055 148.627C159.244 149.224 159.429 150.531 158.648 150.987L143.838 165.878C143.214 166.258 141.706 166.676 140.664 165.309C139.622 163.942 140.23 162.569 140.664 162.054L152.707 149.929L121.378 131.213L104.615 130.806L90.1307 145.047L105.429 162.054C105.972 162.732 106.682 164.397 105.185 165.634C103.688 166.871 102.228 165.933 101.686 165.309L87.8523 150.092ZM150.103 115.834L127.156 128.772L153.603 144.559L150.103 115.834Z" fill="#20A2DC"/>
<path fill-rule="evenodd" clip-rule="evenodd" d="M35.3661 64.7305C34.7151 63.8354 33.7712 62.2079 35.2034 60.9059C36.9936 59.2784 38.7024 60.9059 39.1906 61.6383C39.5812 62.2242 47.0568 73.9258 50.7458 79.7034C51.1255 80.2187 52.3082 81.1193 54.0007 80.5985L79.5522 78.1572C80.2574 77.8317 81.6517 76.7739 81.5866 75.1464C81.5052 73.112 80.0405 72.2169 79.064 72.1356C78.2828 72.0705 63.9284 73.4104 56.8488 74.0885C56.3877 74.1157 55.2702 73.6654 54.489 71.6473L44.9682 56.1862C44.5613 55.6166 44.1056 54.217 45.5378 53.1754C47.3281 51.8734 48.9555 52.9313 49.6065 54.0705C50.1273 54.9819 54.9772 63.0217 57.3371 66.9277C61.026 67.2532 68.6969 67.9204 69.8687 67.9855C70.4529 68.018 72.0467 67.8433 73.8345 67.6474C76.5292 67.3522 79.6646 67.0086 80.4473 67.2532L111.125 33.4829L104.453 26.4034C104.181 26.0236 103.899 24.9712 104.941 23.7994L115.194 13.9531C115.737 13.5463 117.098 13.0092 118.205 14.1159L122.192 18.2659L124.552 16.1502C124.986 15.8518 126.098 15.4666 127.075 16.3129C128.051 17.1592 130.954 20.3002 132.283 21.765C132.608 22.1719 133.113 23.2297 132.527 24.2062L130.248 26.5661L134.236 30.7975C134.615 31.4756 135.017 33.076 133.585 34.0525C139.037 39.8572 149.892 55.6654 149.697 72.4611C149.588 74.7124 149.29 79.443 148.964 80.3543C148.802 80.9511 148.118 82.1446 146.686 82.1446C144.896 82.1446 144.163 80.7612 144.001 80.1916C144.082 79.2694 144.049 76.7576 143.268 74.0885C142.671 70.9963 139.964 62.8589 133.91 55.047C127.856 47.2351 124.932 43.8174 124.227 43.085C123.657 43.7631 122.176 44.7939 120.809 43.4919C119.442 42.1899 116.062 38.6094 114.543 36.9819L91.9211 62.0452C94.091 62.3164 98.4635 64.3236 98.5938 70.1826C98.3767 72.8951 96.4292 78.2874 90.375 78.1572C89.8325 78.1572 88.2592 77.9782 86.3063 77.2621C85.9536 78.9981 84.1743 82.6165 79.8777 83.2024C75.5811 83.7883 72.9338 83.8263 72.1472 83.7721L63.0333 93.7811C62.4908 94.1337 61.0803 94.4972 59.7783 93.1301C58.4763 91.763 59.724 90.065 60.5107 89.3869L64.9049 84.5044L54.0007 85.5623C52.9971 85.8064 50.3389 85.7576 47.7349 83.6093L47.0026 92.6418L72.9609 107.94C74.0188 108.673 76.0694 111.065 75.809 114.776L73.5305 156.114C73.4492 158.935 71.4636 164.658 64.1725 164.983C61.2973 165.011 55.4004 163.242 54.8145 155.951L56.5233 125.029C56.6861 124.134 56.5233 123.401 54.7331 122.832L47.5722 120.065L47.3281 129.342C47.3281 129.694 46.9863 130.676 45.6192 131.783L23.0786 157.253C21.9936 158.419 19.0587 160.671 15.999 160.345C13.0424 160.291 6.99905 158.343 6.47826 150.987C6.424 149.468 7.04787 145.844 9.97734 143.501L26.7404 124.459L26.0894 111.683C22.5632 109.649 15.4294 102.993 15.1039 92.6418L17.5452 55.2097C17.7893 52.5515 19.3354 46.4051 23.5668 43.085L31.4601 37.5516C31.1346 36.0868 30.5813 32.6203 30.9719 30.472L24.0551 28.7632C23.4041 28.4919 22.4276 27.9494 22.5903 25.9964C22.6717 25.1827 23.4692 23.6691 26.0081 24.1248L28.9375 25.0199C29.5885 21.4666 33.1527 14.1809 42.2015 13.4648L42.6084 10.6167C42.744 9.77586 43.65 8.25688 46.1888 8.90787C51.4239 10.1013 62.1219 15.3526 63.0333 26.8101C63.847 26.8101 65.8326 26.7287 67.2647 26.4033C67.9971 26.3761 69.4944 26.8264 69.6246 28.8445C69.7548 30.8626 67.7801 31.4213 66.7765 31.4485L58.8018 32.1808C58.7476 34.8119 57.9881 40.6764 55.3841 43.085L67.753 57.1627L79.5522 59.0343C80.149 59.1428 81.3425 59.7504 81.3425 61.3128C81.3425 63.2657 79.6336 63.9167 78.8199 63.9167C78.1689 63.9167 69.5975 62.3978 65.3931 61.6383L51.5595 46.3399C50.4474 46.9909 47.5071 48.2441 44.6427 48.0488C41.0623 47.8046 36.7494 46.8283 34.9592 43.085C34.9321 42.0814 35.5451 40.1555 38.2142 40.481C39.4348 41.5117 42.4944 43.4756 44.9682 43.085C47.9791 43.1935 53.9519 41.2133 53.7566 32.4249C49.4709 32.4249 39.9068 32.2296 35.9357 31.4485C35.8272 32.6962 35.773 35.5823 36.4239 37.1446C37.0749 38.707 36.5324 39.6944 36.1798 39.9927L26.6591 46.9095C25.3842 47.9131 22.7531 51.2224 22.4276 56.4303C22.1021 61.6382 20.7187 81.4935 20.0678 90.7702C19.5795 94.6219 20.8978 103.513 30.0768 108.266L56.8488 118.437C58.6119 118.817 62.008 120.927 61.4872 126.331L59.7783 155.951C59.8597 157.199 60.8524 159.775 64.1725 160.101C67.4926 160.426 68.6481 157.09 68.8108 155.381L70.9266 114.287C71.0622 113.582 70.9591 112.058 69.4618 111.602L38.9465 93.5369C38.0786 92.8588 36.7169 91.112 38.2142 89.5496C39.7115 87.9872 41.5505 89.1156 42.2829 89.8751L43.178 77.018L35.3661 64.7305ZM33.6572 26.0778C37.1834 26.8372 47.0026 28.1609 58.0695 27.3797C57.961 24.0977 55.4329 16.8337 46.8398 14.3599C47.1653 16.4756 46.1075 18.4286 44.8869 18.2658C44.6449 18.2336 36.2612 17.2894 33.6572 26.0778ZM88.1779 66.1138L84.5974 70.1012C85.2484 70.5569 85.6824 71.5388 85.818 71.9728C86.2829 72.0967 87.0192 72.3151 87.7707 72.538C88.9926 72.9004 90.2548 73.2747 90.4564 73.2747C92.4093 73.0306 93.3045 72.0541 93.6299 70.1012C93.8903 68.5388 92.3822 67.3887 91.5956 67.0089L88.1779 66.1138ZM125.447 21.6836L126.749 23.0669L126.912 22.9042L125.61 21.5208L125.447 21.6836ZM116.577 19.4865L110.23 25.5081L122.274 37.9584C123.576 36.2658 124.986 36.0597 125.529 36.1681C127.872 36.6889 127.97 38.8806 127.726 39.9114C131.892 43.0361 139.498 54.6672 142.78 60.0921C140.567 50.7829 133.124 40.8607 129.679 37.0633C127.563 36.4936 127.237 35.8427 127.075 34.5407C126.945 33.4991 128.051 32.4249 128.621 32.0181L116.577 19.4865ZM31.0532 113.88L42.7711 118.274L42.3642 128.121L18.8471 154.486C17.6536 155.273 14.7946 156.309 12.9068 154.16C10.5469 151.475 11.1979 149.685 12.4999 148.057C13.5415 146.755 25.6825 132.976 31.6229 126.249L31.0532 113.88Z" fill="#424242"/>
</svg>
