<svg width="175" height="175" viewBox="0 0 175 175" fill="none" xmlns="http://www.w3.org/2000/svg">
<path fill-rule="evenodd" clip-rule="evenodd" d="M136.205 34.3495C135.361 34.2705 133.675 34.6184 133.675 36.6425C133.675 38.6665 135.361 39.1199 136.205 39.0935H163.799C164.616 39.0409 166.25 38.4769 166.25 36.6425V31.7404C166.25 25.336 161 12.4166 145.06 11.025H47.8087C40.7455 11.0514 26.366 15.4527 25.3539 32.8473V135.95H11.122C10.3313 135.976 8.75 136.44 8.75 138.085V142.908C9.03991 149.338 13.6679 162.548 29.8607 163.939H106.239C112.775 163.544 127.112 156.902 127.112 140.219V83.9241C127.112 82.7645 126.606 80.461 124.582 80.5243C122.558 80.5875 122.316 82.8172 122.447 83.9241V140.219C122.447 146.307 117.703 159.116 104.262 159.116C90.9789 159.116 86.8675 147.098 86.8675 141.801V138.48C86.8675 136.329 85.3389 135.897 84.5745 135.95H30.177V33.0845C30.177 19.9279 41.7206 16.1116 47.4925 15.8481H130.907C124.013 20.9083 122.395 28.9731 122.447 32.3729C122.456 32.9599 123.382 34.2074 124.582 34.2705C126.084 34.3495 127.053 33.3217 127.112 32.531C127.508 27.2073 131.477 16.4173 144.191 15.8481C149.409 15.8217 160.162 19.0582 161.427 32.2148V34.3495H136.205ZM13.4941 140.615V142.196C13.5732 147.335 17.0047 157.898 30.098 159.037H90.5837C87.5265 156.981 81.5544 150.419 82.1236 140.615H13.4941Z" fill="#424242"/>
<path d="M41.7998 89.377C41.7998 87.4851 43.1033 86.9285 44.1767 86.9285H108.757C109.754 86.9285 110.904 87.6171 110.904 89.3005C110.904 91.0155 109.524 91.6724 108.757 91.6724H43.9467C42.9499 91.6724 41.7998 90.9073 41.7998 89.377Z" fill="#424242"/>
<path d="M41.7998 105.032C41.7998 103.14 43.1033 102.584 44.1767 102.584H108.757C109.754 102.584 110.904 103.272 110.904 104.956C110.904 106.671 109.524 107.328 108.757 107.328H43.9467C42.9499 107.328 41.7998 106.562 41.7998 105.032Z" fill="#424242"/>
<path d="M41.7998 120.687C41.7998 118.795 43.1033 118.239 44.1767 118.239H92.9436C93.9404 118.239 95.0905 118.927 95.0905 120.611C95.0905 122.326 93.7103 122.983 92.9436 122.983H43.9467C42.9499 122.983 41.7998 122.218 41.7998 120.687Z" fill="#424242"/>
<path fill-rule="evenodd" clip-rule="evenodd" d="M75.2891 25.3497L75.2893 25.3496C75.5807 25.2201 75.8721 25.0906 76.5197 25.3497L95.1071 31.9556C95.1268 31.9641 95.147 31.9726 95.1677 31.9814C95.6237 32.1742 96.3052 32.4624 96.3052 33.6395V56.0804C96.4239 57.6239 95.6899 61.5529 91.9984 65.6008C90.3361 67.5653 84.9649 72.4334 76.7787 76.1898C76.3554 76.384 75.872 76.5459 74.9653 76.1898C71.3601 74.4735 63.502 69.9399 59.778 65.6008C58.1805 64.0464 55.3093 60.0957 55.4065 56.0804V33.3481C55.4065 32.6356 55.5359 32.3118 57.1551 31.7613L75.2891 25.3497ZM75.8493 29.6104L92.4765 35.5858V56.5464C92.5281 59.2193 89.2873 66.1504 75.9112 72.4912C70.4617 70.0143 59.5008 63.3578 59.253 56.5464V35.5858L75.8493 29.6104Z" fill="#424242"/>
<path d="M66.9669 51.6116C66.2545 52.2185 66.5136 53.1012 66.8698 53.4898L71.5005 58.1205C72.0834 58.671 72.8605 58.5738 73.3463 58.1205L87.0439 44.4552C87.4002 44.0665 87.9183 43.1922 87.0439 42.2532C86.2774 41.43 85.3277 41.735 84.9067 42.156L72.3748 54.6232L69.1689 51.3849C68.6832 50.8669 67.9932 50.7373 66.9669 51.6116Z" fill="#20A2DC"/>
<path d="M125.189 50.0661H120.852V70.2349H125.406L126.057 69.6566V57.295C126.081 56.6685 126.548 55.4155 128.226 55.4155C129.903 55.4155 130.37 56.6685 130.394 57.295V71.6084L126.924 74.6446H118.611C116.76 74.6446 116.394 72.9097 116.442 72.0422V47.7528C116.442 46.1335 117.84 45.6805 118.539 45.6564H126.635C127.618 45.6564 128.298 46.6684 128.515 47.1745C129.093 45.96 130.153 45.6564 130.611 45.6564H151.647C152.515 45.6564 153.455 46.7166 153.816 47.2467C154.799 45.9744 155.72 45.6564 156.057 45.6564H164.226C165.845 45.7142 166.25 47.0781 166.25 47.7528V72.6928C166.134 74.1964 164.997 74.6205 164.443 74.6446H155.768C152.819 73.3145 151.599 71.8735 151.358 71.3193V57.1505C151.575 56.5721 152.341 55.4155 153.672 55.4155C155.002 55.4155 155.623 56.5721 155.768 57.1505V69.5843L156.925 70.2349H161.768V50.0661H157.431C156.732 51.0058 155.002 52.8854 153.672 52.8854C152.341 52.8854 150.9 51.0058 150.346 50.0661H131.912C131.358 50.9576 129.903 52.7552 128.515 52.8131C127.127 52.8709 125.719 51.0058 125.189 50.0661Z" fill="#20A2DC"/>
<path fill-rule="evenodd" clip-rule="evenodd" d="M147.961 70.3075C148.611 70.3798 149.927 70.9147 149.985 72.4762C150.043 74.0377 148.66 74.6208 147.961 74.7172H147.093V158.284C147.093 160.381 145.575 163.995 141.238 163.995C136.9 163.995 135.599 159.947 135.599 158.284V74.7172H134.009C133.141 74.7172 132.057 73.922 132.057 72.4762C132.057 70.7374 133.406 70.3075 134.009 70.3075H147.961ZM142.684 74.6446H140.009V158.356C140.081 158.742 140.428 159.527 141.238 159.585C142.048 159.643 142.539 158.79 142.684 158.356V74.6446Z" fill="#20A2DC"/>
</svg>
