<svg width="175" height="175" viewBox="0 0 175 175" fill="none" xmlns="http://www.w3.org/2000/svg">
<path d="M40.4048 94.4788C40.6764 92.3317 42.3116 91.8929 43.5924 92.0517L44.7034 92.1894C45.8927 92.3369 47.1661 93.2886 46.9244 95.199C46.6781 97.1454 44.9371 97.6868 44.0222 97.5734L42.6367 97.4016C41.4474 97.2541 40.185 96.2156 40.4048 94.4788Z" fill="#20A2DC"/>
<path d="M50.6706 95.934C50.8942 93.7815 52.5191 93.3071 53.8031 93.438L60.2075 94.0908C61.3998 94.2123 62.6941 95.136 62.4951 97.0513C62.2924 99.0026 60.5639 99.5818 59.6468 99.4883L52.9673 98.8075C51.775 98.6859 50.4897 97.6752 50.6706 95.934Z" fill="#20A2DC"/>
<path d="M97.8616 77.0761C97.8616 75.5007 99.2269 74.7918 99.9095 74.6343C105.029 74.6344 123.303 75.737 127.399 76.761C128.423 77.017 129.841 77.3281 129.841 79.2815C129.841 81.2349 128.266 81.764 127.399 81.6445C124.879 81.2969 109.204 79.6754 99.9095 79.4391C99.1218 79.4391 97.8616 78.6514 97.8616 77.0761Z" fill="#424242"/>
<path fill-rule="evenodd" clip-rule="evenodd" d="M71.9471 94.4834C71.1857 94.4834 69.6786 94.9718 69.7416 96.9252C69.8046 98.8786 71.3957 99.262 72.1833 99.2094L96.4436 98.2642C97.1262 98.2642 98.5387 97.7601 98.7278 95.7437C98.7278 95.0348 98.2709 93.6012 96.4436 93.5382L88.0155 94.0108C91.3762 87.3156 97.7353 68.6794 96.286 47.6959C96.2598 45.7792 94.8997 42.1192 89.6696 42.8123C88.8294 43.1274 86.8655 44.3089 85.7312 46.5144C82.528 50.0589 75.6018 57.2424 73.5224 57.6205C73.0498 56.9379 71.7265 55.7774 70.2141 56.5965C68.3237 57.6205 68.6388 59.1171 69.4265 60.6924C70.6605 63.4755 72.1835 69.9869 69.5842 77.3122C67.7725 79.1239 63.8342 82.1958 58.8717 84.7951C56.0624 83.5086 50.0971 80.5732 48.7108 79.1239C47.3192 76.3933 45.3711 68.8842 48.7108 60.6924C48.9209 59.7997 48.7739 57.9356 46.5054 57.6205C45.6915 57.568 44.1424 58.0143 43.8274 60.0623C41.937 59.6684 35.6986 55.9664 28.0739 49.665C27.1025 48.8774 24.5137 47.7746 21.9301 49.665C19.3465 51.5555 19.5933 55.0737 20.0397 56.5965C20.9324 62.5041 23.3952 75.6266 26.1048 80.8568C20.9062 82.1695 10.3672 86.1972 9.80005 91.8054C10.2727 99.8396 13.3446 118.712 21.8514 129.929C24.0617 132.843 28.0378 137.096 29.5706 138.357C32.1324 140.463 34.0595 143.061 35.3519 144.803C35.5695 145.096 35.7691 145.365 35.9507 145.603C36.4495 146.102 37.7151 147.257 38.7863 147.887C38.7075 150.014 38.7075 154.504 39.3377 155.449C41.0443 159.177 53.4212 166.555 89.2759 166.24C125.131 165.925 135.04 157.97 135.512 154.031V148.518C136.352 147.966 138.348 146.422 139.608 144.658C141.183 142.453 143.389 140.011 144.964 138.672C146.513 137.07 149.753 133.662 150.32 132.843C154.311 128.668 162.892 114.805 165.286 92.7506C165.627 90.0725 162.466 83.8972 147.091 80.6205L145.2 85.0314C149.086 85.8979 157.409 88.3711 159.615 91.3328C160.35 91.9366 161.237 93.5067 158.906 94.956C154.049 98.6318 133.779 106.078 91.5602 106.456C49.3411 106.834 25.711 100.26 19.1733 96.9252C16.9153 95.9538 12.9665 93.491 15.235 91.4115C16.4427 90.0987 20.7171 87.0636 28.1528 85.4252C28.3055 85.7264 28.4767 86.0762 28.6637 86.4585L28.6639 86.4588C29.6346 88.4423 31.0321 91.2977 32.4849 92.7506C34.2178 94.4835 37.2897 92.0417 36.187 89.9937C33.1938 85.3202 27.0028 73.4684 25.8685 61.8739C29.7281 69.3305 43.0239 85.8506 65.3308 92.278C66.4335 92.488 68.576 92.215 68.3239 89.4424C68.3239 88.8647 67.5835 87.5677 64.6218 87.0006C69.6104 83.9549 80.9581 75.1225 87.7006 62.5828C88.2935 61.4801 87.543 58.928 84.7074 59.4322C84.133 59.5343 83.8695 59.9902 83.2366 61.085L83.2365 61.0852C83.0016 61.4916 82.7158 61.9859 82.3444 62.5828C80.8742 64.9458 77.4925 70.0184 75.728 71.4047C75.7542 68.9367 75.6492 63.6698 75.0191 62.3465C77.9072 60.4824 85.0225 55.0685 90.3786 48.326C90.825 47.6171 91.6862 46.8137 91.5602 49.2712C91.6389 55.1 91.4592 67.0725 89.1184 76.367C86.4403 87.0006 83.5259 93.3019 82.3444 94.4834H71.9471ZM15.55 100.312C16.2852 106.43 19.9767 121.107 28.8617 130.874C30.9621 132.895 35.3363 137.144 36.0294 137.963C36.7226 138.782 38.6813 141.455 39.574 142.689C43.9587 146.706 60.1164 154.567 89.6697 153.874C119.223 153.181 132.283 146.128 135.118 142.689C136.72 140.562 140.207 136.183 141.341 135.679C143.546 133.473 148.131 128.653 148.824 127.014C151.686 123.05 157.756 112.206 159.142 100.549C152.841 104.014 130.25 110.993 90.2999 111.182C40.3616 111.418 18.2281 102.518 15.55 100.312ZM43.5911 153.086V150.881C57.265 157.623 79.0099 158.889 88.1732 158.679C113.631 158.111 127.084 153.506 130.629 151.274V153.086C128.922 155.659 118.042 160.931 88.1732 161.435C58.3047 161.939 46.0066 156.079 43.5911 153.086ZM27.6801 55.4938C30.1744 60.1148 36.6123 70.3493 42.4096 74.3191C42.1995 71.9036 41.937 66.6314 42.5671 64.8671C39.3377 63.2655 31.839 59.1486 27.6801 55.4938Z" fill="#424242"/>
<path fill-rule="evenodd" clip-rule="evenodd" d="M53.3582 49.6653L50.5226 58.0933C50.0237 59.9837 50.2548 63.8433 55.1698 64.1584C57.5066 63.9221 62.1013 63.607 62.5739 63.607C64.3855 63.397 68.2451 60.7713 66.591 57.2269C64.9369 53.6824 61.865 49.0351 61.865 49.0351C61.4449 48.2212 60.0376 46.6091 57.7691 46.6721C55.5006 46.7351 53.9095 48.2475 53.3582 49.6653ZM57.7691 51.3982L55.0123 59.3536L62.18 58.881L57.7691 51.3982Z" fill="#20A2DC"/>
<path d="M49.8138 53.2095C50.0659 51.4451 48.3435 50.7939 47.4508 50.6889C40.8974 50.2478 36.686 46.4618 35.3994 44.6239C32.3748 42.6074 30.7785 28.3454 30.3584 21.4664C37.7309 26.1294 46.9782 38.8741 50.6802 44.8603C52.5706 46.8295 55.3275 43.9151 54.5398 42.261C52.5864 37.661 45.9017 29.6844 42.7248 26.1136C38.7076 21.2303 32.8526 17.0817 30.1221 15.6376C27.7392 14.3775 26.42 14.1674 25.7899 14.2198C23.8995 14.3774 23.4268 16.3465 23.8995 17.213C24.2629 17.8791 24.8447 18.9721 25.0022 19.4972C25.4748 21.3614 26.4043 25.7198 26.3413 28.2403C26.2625 31.391 27.6015 42.1821 31.855 47.7745C36.1084 53.367 45.4029 55.3362 46.5844 55.4937C47.7659 55.6512 49.4988 55.4149 49.8138 53.2095Z" fill="#20A2DC"/>
<path d="M65.3261 51.6937C64.7706 50.0002 66.3532 49.0591 67.214 48.8002C73.5904 47.2245 77.0781 42.7629 78.0249 40.729C80.6522 38.2166 79.7403 23.8945 78.9559 17.0475C72.5081 22.9232 65.6218 37.0836 63.0189 43.6231C61.5003 45.8914 58.278 43.5017 58.7656 41.7357C59.888 36.8658 65.0814 27.8469 67.5879 23.7774C70.6931 18.269 75.7362 13.1642 78.1735 11.2666C80.3005 9.6108 81.563 9.17414 82.1926 9.11601C84.0815 8.94191 84.8899 10.7987 84.5754 11.7342C84.3335 12.4534 83.951 13.631 83.8873 14.1756C83.7466 16.0935 83.5904 20.5472 84.0914 23.0183C84.7176 26.1071 85.2784 36.9665 82.064 43.2142C78.8495 49.462 70.04 53.0197 68.904 53.3806C67.768 53.7415 66.0204 53.8106 65.3261 51.6937Z" fill="#20A2DC"/>
<path d="M95.971 86.6063C96.223 88.3707 97.3363 88.8643 97.8614 88.8905C97.8614 89.0796 102.955 89.3369 105.502 89.4419C110.858 89.631 112.827 90.3084 113.142 90.6234C113.142 90.8755 109.571 91.5686 107.786 91.8837C105.502 92.1205 104.872 93.0389 104.714 93.5378C103.958 96.6885 106.657 97.0035 108.101 96.7672C116.608 95.3752 118.733 93.0657 119.207 91.7262C120.278 88.7015 117.396 86.8951 115.82 86.37C113.379 85.1103 103.218 84.3483 98.334 84.1645C97.3099 84.126 95.7685 85.189 95.971 86.6063Z" fill="#20A2DC"/>
<path d="M131.101 94.1685C129.022 93.7904 129.289 91.4379 129.683 90.3089L145.673 42.261C147.437 34.6995 153.655 33.9117 156.543 34.4631C164.42 36.7946 164.131 43.3637 163.002 46.3569L141.026 94.8773C140.396 97.0828 138.715 97.1615 137.954 96.9252C135.622 96.1061 136.037 94.1684 136.536 93.302L158.748 44.5452C159.378 42.9699 158.827 39.6145 155.676 39.1104C152.526 38.6063 151.055 41.0008 150.714 42.261L134.567 91.0966C133.937 92.6719 133.7 94.6411 131.101 94.1685Z" fill="#20A2DC"/>
</svg>
