<svg width="175" height="175" viewBox="0 0 175 175" fill="none" xmlns="http://www.w3.org/2000/svg">
<path d="M36.6646 157.464C34.718 157.464 34.1453 156.073 34.1453 154.928V100.855C34.1453 99.7912 34.8538 98.5641 36.5859 98.5641C38.3505 98.5641 39.0265 100.037 39.0265 100.855V155.173C39.0265 156.237 38.2392 157.464 36.6646 157.464Z" fill="#424242"/>
<path d="M103.92 144.849C102.558 143.459 103.15 142.077 103.968 141.275L131.192 113.998C131.952 113.253 133.324 112.9 134.536 114.137C135.772 115.397 135.193 116.911 134.609 117.484L107.209 144.933C106.45 145.677 105.022 145.974 103.92 144.849Z" fill="#424242"/>
<path d="M64.6502 79.8528C62.7036 79.8528 62.1309 78.4621 62.1309 77.3168V74.6588C62.1309 73.5954 62.8394 72.3683 64.5715 72.3683C66.3361 72.3683 67.0121 73.8408 67.0121 74.6588V77.5622C67.0121 78.6257 66.2248 79.8528 64.6502 79.8528Z" fill="#424242"/>
<path d="M20.7193 157.301C18.7727 157.301 18.2 155.91 18.2 154.765L22.4303 86.4551C22.4303 82.8442 24.5292 74.7764 32.9249 71.3921L50.0904 65.9414C51.148 65.5346 53.4097 65.0628 53.9954 67.0803C54.5812 69.0979 53.4259 70.1718 52.1243 70.5785L49.1956 71.4734L43.7449 78.7952L53.3446 84.3272C53.8327 84.5442 54.8089 85.3035 54.8089 86.6051C54.8089 87.9068 54.1581 88.5576 53.5073 88.883L47.8126 91.2423L62.1307 119.553L62.1307 88.3949C62.1036 87.5 62.5375 85.7102 64.49 85.7102C66.4425 85.7102 66.9848 87.5 67.0119 88.3949V119.716L81.8182 91.3236L76.2862 89.1271C75.7167 88.9101 74.5941 88.1183 74.6591 86.6865C74.7242 85.2547 76.0964 84.3001 76.7743 84.0018L84.4215 78.6325L79.7031 70.009V23.5563C79.6488 20.5733 77.5879 14.4285 69.7779 13.7126H40.084V18.0243C40.0569 23.258 42.427 33.5465 52.1243 32.8306C54.2937 32.7221 59.381 32.0333 62.3748 30.1459C63.3239 29.712 65.4174 29.3649 66.1984 31.4476C66.9794 33.5302 64.8425 34.756 63.6764 35.1085C60.9918 36.383 54.4184 38.688 49.6023 37.7118V49.1826C49.5481 50.5114 50.0254 53.4292 52.3683 54.4706L60.5037 59.0264C61.046 59.2704 62.5375 59.6121 64.1646 59.0264C65.7916 58.4406 66.7408 58.6196 67.0119 58.7823C67.8255 59.2433 69.1109 60.686 67.7441 62.7686C67.1746 63.3652 64.9781 64.5096 60.7477 64.3143C59.7444 64.0703 57.3309 63.2893 55.7038 62.1178L48.0566 57.562C46.9448 56.6942 44.7049 53.7709 44.6398 49.0199V36.2474C41.6568 35.0542 35.577 29.8856 35.1214 18.7565V11.1906C35.2028 10.3771 35.8048 8.75002 37.562 8.75002H70.5101C75.2015 9.37372 84.6005 13.2407 84.6656 23.719L84.6656 67.6498L96.4618 71.5548C99.499 72.8564 105.72 77.5098 106.306 85.7102C106.197 86.4967 105.541 88.0207 103.784 87.8254C103.079 87.9068 101.571 87.5651 101.18 85.5475C101.018 83.2154 99.358 78.0468 94.0212 76.0292L87.4316 73.6699L89.9536 78.3071C90.2247 78.9037 90.5719 80.2758 89.7909 80.9917L82.4691 86.117L86.6994 87.8254C87.4316 88.3135 88.5868 89.7454 87.3503 91.5677L67.256 130.21C66.9577 130.97 66.0032 132.472 64.5713 132.407C63.1395 132.342 62.3477 131.349 62.1307 130.861L42.7687 92.2999C42.4432 91.8117 41.7924 90.6565 41.7924 89.9406C41.7924 89.2247 41.9551 88.2322 42.7687 87.8254L46.6736 86.1984L38.1315 80.9917C37.6434 80.6663 37.139 79.3647 38.0502 78.063L41.3043 73.914C38.8637 74.5919 34.0638 76.2733 33.0876 76.9241C31.2165 77.9901 27.4417 81.3888 27.3115 86.4551L23.0811 155.011C23.0811 156.074 22.2939 157.301 20.7193 157.301Z" fill="#424242"/>
<path fill-rule="evenodd" clip-rule="evenodd" d="M119.566 166.25C140.144 166.25 156.826 149.568 156.826 128.99C156.826 108.412 140.144 91.7303 119.566 91.7303C98.9882 91.7303 82.3064 108.412 82.3064 128.99C82.3064 149.568 98.9882 166.25 119.566 166.25ZM119.648 161.369C137.485 161.369 151.945 146.909 151.945 129.071C151.945 111.234 137.485 96.7742 119.648 96.7742C101.81 96.7742 87.3503 111.234 87.3503 129.071C87.3503 146.909 101.81 161.369 119.648 161.369Z" fill="#20A2DC"/>
<circle cx="111.919" cy="121.668" r="3.90496" fill="#424242"/>
<circle cx="126.888" cy="136.963" r="3.90496" fill="#424242"/>
</svg>
