<svg width="175" height="175" viewBox="0 0 175 175" fill="none" xmlns="http://www.w3.org/2000/svg">
<path d="M134.328 21.4392C134.392 23.0252 135.729 23.6332 136.39 23.7389H142.734V125.246C142.602 126.224 142.893 128.18 145.113 128.18C147.334 128.18 147.677 126.224 147.572 125.246V21.4392C147.572 19.2821 145.88 18.9015 145.034 18.9808H136.39C135.676 19.1394 134.265 19.8531 134.328 21.4392Z" fill="#424242"/>
<path d="M25.0333 104.945C23.1935 105.008 22.6807 103.121 22.6543 102.169L22.575 11.4473C22.575 9.22679 24.2139 8.72454 25.0333 8.75097H125.996C128.153 8.81442 128.534 10.4163 128.454 11.2093V125.801C128.428 126.594 127.899 128.18 125.996 128.18C124.093 128.18 123.617 126.594 123.617 125.801V13.5884H27.4917V102.169C27.4917 104.453 25.8528 104.971 25.0333 104.945Z" fill="#424242"/>
<path d="M34.825 24.9338C34.825 22.8465 36.2664 22.2324 37.4535 22.2324H69.5643C70.6666 22.2324 71.9385 22.9921 71.9385 24.8493C71.9385 26.7415 70.4122 27.4663 69.5643 27.4663H37.1992C36.0968 27.4663 34.825 26.6221 34.825 24.9338Z" fill="#424242"/>
<path d="M34.825 34.9259C34.825 32.8386 36.2664 32.2245 37.4535 32.2245H50.5317C51.634 32.2245 52.9059 32.9843 52.9059 34.8415C52.9059 36.7337 51.3796 37.4584 50.5317 37.4584H37.1992C36.0968 37.4584 34.825 36.6143 34.825 34.9259Z" fill="#424242"/>
<path fill-rule="evenodd" clip-rule="evenodd" d="M44.0625 94.8045C45.8097 94.8692 46.875 93.2687 46.4082 92.3797C43.8198 87.4492 42.9705 80.7406 42.8492 77.1841C44.0787 50.9962 65.3093 44.5031 75.7708 44.53C78.2946 44.4007 81.0286 44.8533 82.0802 45.0958L53.2029 73.951L48.7541 102.321C48.3011 105.102 50.6684 105.312 51.9087 105.069L79.2491 100.058L107.803 71.6071C108.191 72.965 108.234 75.7293 108.207 76.9417C107.431 103.324 86.2055 109.919 75.69 109.919C70.4484 110.307 64.3386 108.087 61.9389 106.928C59.1887 105.878 58.1371 108.698 58.7842 109.919C60.5314 113.217 70.4592 114.58 75.2046 114.85C106.007 112.974 113.384 88.7963 113.222 76.9417C111.346 47.0034 87.4727 39.5727 75.7708 39.5996C62.1007 40.0846 52.7985 45.5808 46.0038 54.2293C39.2092 62.8778 38.3194 70.6372 37.9958 77.5883C37.737 83.1492 39.9372 89.6585 41.0696 92.218C41.0818 92.2505 41.0948 92.2861 41.1088 92.3243L41.1088 92.3244C41.3733 93.0471 41.9883 94.7277 44.0625 94.8045ZM53.4715 95.2L52.6919 100.45L57.5919 99.4447C56.9683 97.8361 54.5851 95.9447 53.4715 95.2ZM57.1867 77.7933L55.1248 90.4024C56.8431 91.0632 60.6443 93.4159 62.1035 97.5396L74.5539 95.3191L71.3819 80.8861L57.1867 77.7933ZM78.7571 91.7805C78.6936 91.0192 76.8802 83.0573 75.9815 79.1715L99.455 55.6979C103.008 59.8217 104.636 63.9718 105.006 65.5314C104.768 65.6902 101.776 68.7703 97.8915 72.7697L97.8914 72.7699C90.1317 80.7586 78.8099 92.4147 78.7571 91.7805ZM59.8831 72.9859L72.6508 75.8408L96.045 52.4465C94.5118 50.8076 90.4462 47.3395 86.4494 46.5782L59.8831 72.9859Z" fill="#20A2DC"/>
<path d="M27.4917 156.65V161.408H49.6171V156.412L48.9827 155.698H35.422C34.7347 155.672 33.3601 155.159 33.3601 153.319C33.3601 151.48 34.7347 150.967 35.422 150.94H51.1239L54.4546 154.747V163.867C54.4546 165.897 52.5513 166.299 51.5997 166.246H24.9541C23.1777 166.246 22.6807 164.712 22.6543 163.946V155.064C22.6543 153.985 23.7645 153.24 24.3196 153.002C22.9874 152.368 22.6543 151.205 22.6543 150.702V127.625C22.6543 126.674 23.8174 125.643 24.399 125.246C23.0032 124.168 22.6543 123.158 22.6543 122.788V113.827C22.7177 112.05 24.2139 111.606 24.9541 111.606H52.3134C53.9629 111.733 54.4281 112.981 54.4546 113.589V123.105C52.9954 126.341 51.4146 127.678 50.8067 127.943H35.2634C34.629 127.705 33.3601 126.864 33.3601 125.405C33.3601 123.946 34.629 123.264 35.2634 123.105H48.9034L49.6171 121.836V116.523H27.4917V121.281C28.5227 122.048 30.5845 123.946 30.5845 125.405C30.5845 126.864 28.5227 128.445 27.4917 129.053V149.275C28.4698 149.883 30.4418 151.48 30.5052 153.002C30.5687 154.525 28.5227 156.069 27.4917 156.65Z" fill="#20A2DC"/>
<path fill-rule="evenodd" clip-rule="evenodd" d="M49.6963 131.67C49.7756 130.956 50.3624 129.513 52.0754 129.449C53.7883 129.386 54.428 130.903 54.5337 131.67V132.621H146.207C148.507 132.621 152.472 134.287 152.472 139.045C152.472 143.803 148.031 145.23 146.207 145.23H54.5337V146.975C54.5337 147.927 53.6614 149.116 52.0754 149.116C50.1679 149.116 49.6963 147.636 49.6963 146.975V131.67ZM54.4544 137.459V140.393H146.287C146.71 140.314 147.571 139.933 147.635 139.045C147.698 138.157 146.762 137.617 146.287 137.459H54.4544Z" fill="#20A2DC"/>
<path d="M60.0059 163.867C60.0693 165.706 61.4598 166.219 62.1471 166.246H125.996C128.026 166.246 128.428 164.66 128.375 163.867V151.654C128.375 150.914 127.9 149.433 125.996 149.433C124.093 149.433 123.67 150.914 123.696 151.654V161.487H62.1471C61.4069 161.514 59.9425 162.027 60.0059 163.867Z" fill="#424242"/>
<path d="M133.299 159.901C133.363 161.741 134.753 162.254 135.441 162.28H145.036C147.066 162.28 147.468 160.694 147.415 159.901V151.654C147.415 150.914 146.939 149.433 145.036 149.433C143.133 149.433 142.71 150.914 142.736 151.654V157.522H135.441C134.7 157.549 133.236 158.062 133.299 159.901Z" fill="#424242"/>
</svg>
