<svg width="175" height="175" viewBox="0 0 175 175" fill="none" xmlns="http://www.w3.org/2000/svg">
<path d="M34.0207 163.753C34.0207 161.884 32.49 161.255 31.6844 161.255H24.5949V24.0569H122.72V49.5953C122.72 50.562 123.526 52.0122 125.057 52.0122C127.071 52.0122 127.554 50.2398 127.554 49.4699V21.5595C127.554 20.1094 126.668 19.1426 124.895 19.1426H22.0974C20.4862 19.1426 19.6 20.6733 19.6 21.5595V163.591C19.6 165.525 21.0132 166.25 21.8994 166.25H31.8107C32.6163 166.25 34.0207 165.606 34.0207 163.753Z" fill="#424242"/>
<path d="M34.1819 14.7922V13.6643L132.549 13.6643V72.7973C132.549 73.6029 133.097 75.053 134.966 75.053C136.835 75.053 137.463 73.5224 137.463 72.7973V11.1669C137.463 9.3945 135.852 8.75002 134.885 8.75H32.0873C29.9121 8.75 29.2676 10.2001 29.2676 11.0863V14.8728C29.2676 15.5978 29.9604 17.1285 31.765 17.1285C33.5696 17.1285 34.1819 15.5978 34.1819 14.7922Z" fill="#424242"/>
<path d="M29.2675 94.7908C29.2675 92.7989 30.637 92.0378 31.7649 92.0378H61.3314C62.3787 92.0378 63.5872 92.9378 63.5872 94.7102C63.5872 96.516 62.137 97.3827 61.3314 97.3827H31.5232C30.4759 97.3827 29.2675 96.402 29.2675 94.7908Z" fill="#20A2DC"/>
<path d="M29.2675 110.662C29.2675 108.67 30.637 107.909 31.7649 107.909H74.2214C75.2687 107.909 76.4772 108.809 76.4772 110.581C76.4772 112.387 75.0271 113.254 74.2214 113.254H31.5232C30.4759 113.254 29.2675 112.273 29.2675 110.662Z" fill="#20A2DC"/>
<path d="M29.2675 126.774C29.2675 124.782 30.637 124.021 31.7649 124.021H51.6639C52.7112 124.021 53.9196 124.921 53.9196 126.694C53.9196 128.499 52.4695 129.366 51.6639 129.366H31.5232C30.4759 129.366 29.2675 128.385 29.2675 126.774Z" fill="#20A2DC"/>
<path d="M29.2675 142.726C29.2675 140.734 30.637 139.973 31.7649 139.973H39.4184C40.4657 139.973 41.6741 140.698 41.6741 142.645C41.6741 144.451 40.224 145.317 39.4184 145.317H31.5232C30.4759 145.317 29.2675 144.337 29.2675 142.726Z" fill="#20A2DC"/>
<path fill-rule="evenodd" clip-rule="evenodd" d="M85.1257 165.285C83.7032 165.285 83.2847 164.307 83.2847 163.501V154.583C83.2847 153.836 83.8025 152.973 85.0682 152.973C85.1073 152.973 85.1461 152.973 85.1847 152.975C85.2229 152.973 85.2608 152.973 85.2984 152.973H123.443C123.484 152.973 123.526 152.974 123.568 152.977C123.622 152.974 123.676 152.973 123.731 152.973C125.02 152.973 125.514 154.008 125.514 154.583V163.674C125.514 164.422 124.939 165.285 123.788 165.285C122.366 165.285 121.422 164.307 121.422 163.501V157.065H87.3768V163.674C87.3768 164.422 86.2764 165.285 85.1257 165.285Z" fill="#20A2DC"/>
<path fill-rule="evenodd" clip-rule="evenodd" d="M83.1122 92.8498C83.1506 92.3128 83.5495 91.2273 84.8382 91.1813C86.127 91.1353 86.6026 92.2744 86.6793 92.8498V103.781C87.1971 108.921 91.3741 119.223 103.939 119.315C108.906 119.43 119.301 116.485 121.142 103.781V93.0224C121.161 92.4087 121.556 91.1813 122.983 91.1813C124.41 91.1813 124.767 92.4087 124.767 93.0224V102.803C124.728 104.894 123.938 110.041 121.084 113.907L145.997 125.586C147.377 126.43 150.289 129.061 150.887 132.836L155.317 163.156C155.355 163.77 155.064 165.02 153.591 165.112C153.131 165.15 152.13 164.939 151.807 163.789L147.262 133.181C147.09 131.992 146.02 129.338 143.12 128.233L130.98 122.537V138.877C131.23 138.973 131.786 139.406 132.016 140.373L139.725 163.156C139.84 163.827 139.645 165.193 137.942 165.285C137.501 165.323 136.515 165.089 136.101 163.846L128.794 142.214H79.3725L72.5835 164.249C72.4301 164.594 71.9046 165.273 71.0301 165.227C70.474 165.227 69.3271 164.87 69.189 163.444L76.2657 140.373V123.745L65.7946 128.636C64.9315 129.173 63.0675 130.822 62.5151 133.123L57.107 163.904C57.0111 164.307 56.5316 165.124 55.381 165.17C54.8632 165.227 53.7815 164.951 53.5974 163.386L59.0631 132.375C59.3124 130.554 61.0768 126.426 66.1398 124.493L87.3122 114.655C85.9122 113.063 83.1122 108.487 83.1122 102.918V92.8498ZM79.8328 122.077V138.762H86.2191V119.027L79.8328 122.077ZM89.7861 138.646V117.417C101.615 127.22 113.241 121.693 117.575 117.704V138.646H89.7861ZM127.413 120.696V138.762H121.027V117.647L127.413 120.696Z" fill="#424242"/>
<path d="M90.6492 93.4828C90.6492 92.0603 91.6272 91.6417 92.4327 91.6417H94.9067C95.6546 91.6417 96.5176 92.1595 96.5176 93.4253C96.5176 94.7148 95.482 95.2088 94.9067 95.2088H92.2601C91.5122 95.2088 90.6492 94.6335 90.6492 93.4828Z" fill="#20A2DC"/>
<path d="M110.556 93.4828C110.556 92.0603 111.534 91.6417 112.339 91.6417H114.813C115.561 91.6417 116.424 92.1595 116.424 93.4253C116.424 94.7148 115.389 95.2088 114.813 95.2088H112.167C111.419 95.2088 110.556 94.6335 110.556 93.4828Z" fill="#20A2DC"/>
<path fill-rule="evenodd" clip-rule="evenodd" d="M100.775 104.012C100.775 104.817 101.194 105.795 102.616 105.795C102.638 105.795 102.659 105.795 102.68 105.794C102.697 105.795 102.714 105.795 102.731 105.795H105.608C106.183 105.795 107.219 105.301 107.219 104.012C107.219 102.746 106.356 102.228 105.608 102.228H104.342V95.209C104.342 94.6336 103.848 93.598 102.559 93.598C101.293 93.598 100.775 94.461 100.775 95.209V104.012Z" fill="#20A2DC"/>
<path d="M99.7395 110.743C99.7395 109.32 100.718 108.902 101.523 108.902H106.874C107.622 108.902 108.485 109.42 108.485 110.685C108.485 111.975 107.449 112.469 106.874 112.469H101.35C100.603 112.469 99.7395 111.894 99.7395 110.743Z" fill="#20A2DC"/>
<path fill-rule="evenodd" clip-rule="evenodd" d="M81.1561 84.6801H76.1507C75.5945 84.7185 74.4822 85.1174 74.4822 86.4061C74.4822 87.6949 75.5945 88.1321 76.1507 88.1897H132.188C132.725 88.1321 133.799 87.7064 133.799 86.4637C133.799 85.2209 132.725 84.7185 132.188 84.6226H126.665V77.3158C126.55 72.4638 123.478 62.4261 112.109 61.0913H111.131V57.8119C111.15 56.4502 110.349 53.6579 106.989 53.3818H100.89C99.6436 53.4393 97.0814 54.3598 96.8053 57.5817V61.0913H95.6546C91.2245 61.0913 81.8465 65.3488 81.1561 77.2007V84.6801ZM85.2481 84.1551V77.4884C85.344 73.2884 87.1947 65.5425 96.6302 65.3584V78.4089C96.6302 79.1569 97.2194 80.0429 98.6463 80.1349C99.2216 80.1349 100.547 79.5596 100.547 78.4089V58.7444C100.509 58.4375 100.639 57.8238 101.468 57.8238H106.411C106.756 57.8238 107.424 58.0079 107.331 58.7444V78.1212C107.331 78.8692 107.829 80.0429 109.348 80.1349C109.942 80.1349 111.306 79.6747 111.306 78.1212V65.3584C114.931 65.2433 121.687 66.9137 122.516 77.3158V84.1551H85.2481Z" fill="#20A2DC"/>
<path fill-rule="evenodd" clip-rule="evenodd" d="M55.8348 40.4254C58.2028 40.4254 60.1225 38.5057 60.1225 36.1377C60.1225 33.7697 58.2028 31.85 55.8348 31.85C53.4668 31.85 51.5471 33.7697 51.5471 36.1377C51.5471 38.5057 53.4668 40.4254 55.8348 40.4254ZM55.8349 38.0865C56.9112 38.0865 57.7838 37.2139 57.7838 36.1376C57.7838 35.0612 56.9112 34.1886 55.8349 34.1886C54.7585 34.1886 53.8859 35.0612 53.8859 36.1376C53.8859 37.2139 54.7585 38.0865 55.8349 38.0865Z" fill="#424242"/>
<path fill-rule="evenodd" clip-rule="evenodd" d="M36.5402 44.9082H35.098C34.7601 44.8692 34.0845 44.5807 34.0845 43.7388C34.0845 42.8969 34.7601 42.5824 35.098 42.5304C38.1643 42.2186 45.3494 40.8855 49.5592 38.0479C49.91 37.8919 50.7052 37.697 51.0794 38.1648C51.3782 38.5026 51.7732 39.3498 50.9624 40.0358C50.2868 40.5295 48.3118 41.7119 45.8172 42.4915H66.1642C64.9429 42.0627 62.2196 41.0181 61.097 40.2697C60.5642 39.9578 59.7171 39.1003 60.5902 38.1648C60.7981 37.892 61.4712 37.5256 62.5002 38.2428C64.1893 39.2952 69.3917 41.6339 76.6886 42.5694C77.1433 42.6603 77.9593 43.1151 77.5851 44.2065C77.5331 44.4144 77.2577 44.8535 76.5716 44.9471H75.2463L81.405 55.3155V56.4849C81.0932 58.9406 79.0039 63.8597 73.1415 63.8909C67.279 63.9221 65.1378 58.9665 64.8 56.4849V55.2376L71.0756 44.9471H57.0431V68.0616H64.0983C65.4236 68.1006 68.2145 69.0595 68.7758 72.5832V73.3628C68.7888 73.7266 68.5809 74.4698 67.6454 74.5322H43.8293C43.5824 74.4932 43.0419 74.2515 42.8548 73.5967V72.8561C42.9587 71.3489 44.1333 68.2799 48 68.0616H54.6264V44.9081H40.7499L46.9476 55.4714V56.1341C46.7137 58.6937 44.7024 63.8363 38.5281 63.9299C36.1244 63.9818 31.0987 62.4954 30.2256 56.1341V55.4714L36.5402 44.9082ZM38.645 46.1163L33.6947 54.4189H43.6343L38.645 46.1163ZM38.5671 61.5131C34.5445 61.3572 33.097 58.3039 32.8762 56.7967H44.4139C43.4473 60.6634 40.1133 61.5521 38.5671 61.5131ZM73.1415 46.1163L68.1911 54.4189H78.1308L73.1415 46.1163ZM73.0635 61.5131C69.0408 61.3572 67.5934 58.3039 67.3725 56.7967H78.9103C77.9436 60.6634 74.6096 61.5521 73.0635 61.5131ZM45.5054 72.1154C45.7912 71.5697 46.6747 70.4783 47.9221 70.4783H63.7085C64.2673 70.5173 65.525 70.8993 66.0863 72.1154H45.5054Z" fill="#424242"/>
</svg>
