<svg width="175" height="175" viewBox="0 0 175 175" fill="none" xmlns="http://www.w3.org/2000/svg">
<path fill-rule="evenodd" clip-rule="evenodd" d="M15.7588 158.313V130.278C15.7326 129.49 16.1998 127.915 18.2788 127.915H25.6025L28.0438 84.9178C28.07 84.0515 28.5478 82.319 30.2488 82.319H40.8013C41.5888 82.214 43.1953 82.6497 43.3213 85.2328L45.8413 127.915H57.3388V116.024C57.3388 115.42 57.8585 114.118 59.9375 113.74L73.7188 111.063L76.3175 65.7816C76.3963 65.0466 76.9948 63.5766 78.7588 63.5766H89.1538C89.915 63.5766 91.4533 64.1751 91.5163 66.5691L94.0363 107.047L102.541 105.472V95.3916C102.568 94.7616 103.061 93.4229 104.825 93.1078L144.121 85.4691C144.961 85.4166 146.641 85.8156 146.641 87.8316V130.12H155.304C155.96 130.199 157.288 130.766 157.351 132.404V158.943H152.548V134.924H83.405C82.67 134.95 81.1685 134.515 81.0425 132.562C80.9165 130.609 82.565 130.12 83.405 130.12H141.838V90.8241L107.424 97.5966L107.345 107.598C107.345 108.28 106.936 109.693 105.298 109.882L62.2213 118.229V130.514C62.195 131.223 61.7015 132.656 59.9375 132.719H20.6413V158.313H15.7588ZM32.7688 87.0441H38.5176L41.0376 127.915H30.3276L32.7688 87.0441ZM86.7913 68.3803H80.9638L78.6013 110.118L89.2326 107.992L86.7913 68.3803ZM11.0209 161.647C9.99535 161.647 8.75 162.187 8.75 164.023C8.75 165.508 9.84884 166.25 10.8012 166.25H164.199C164.931 166.25 166.25 165.613 166.25 163.949C166.25 162.315 165.151 161.647 164.199 161.647H11.0209Z" fill="#424242"/>
<path d="M118.03 124.395C116.711 124.395 116.323 123.454 116.323 122.68V115.623C116.323 114.904 116.803 114.074 117.976 114.074C119.172 114.074 119.63 115.07 119.63 115.623V122.846C119.63 123.565 119.097 124.395 118.03 124.395Z" fill="#20A2DC"/>
<path d="M126.692 124.395C125.373 124.395 124.985 123.454 124.985 122.68V115.623C124.985 114.904 125.465 114.074 126.639 114.074C127.834 114.074 128.292 115.07 128.292 115.623V122.846C128.292 123.565 127.759 124.395 126.692 124.395Z" fill="#20A2DC"/>
<path d="M135.355 124.395C134.036 124.395 133.647 123.454 133.647 122.68V115.623C133.647 114.904 134.128 114.074 135.301 114.074C136.497 114.074 136.955 115.07 136.955 115.623V122.846C136.955 123.565 136.421 124.395 135.355 124.395Z" fill="#20A2DC"/>
<path d="M120.184 20.7006C118.174 20.7006 117.583 19.2601 117.583 18.0739V16.4613C117.583 15.3597 118.314 14.0887 120.103 14.0887C121.925 14.0887 122.623 15.6139 122.623 16.4613V18.3281C122.623 19.4296 121.81 20.7006 120.184 20.7006Z" fill="#20A2DC"/>
<path d="M24.6575 64.6003C19.4915 71.2783 24.71 78.0403 27.965 80.5866C30.17 82.319 31.3425 80.9306 31.6663 80.5866C32.9263 79.2479 32.2963 77.8304 31.6663 77.2004C28.2643 74.4914 27.4663 71.7141 27.4925 70.6641C27.4925 67.1991 30.38 65.9129 31.8238 65.7029C33.7768 65.4509 34.3922 64.8552 34.6588 64.3641C35.8558 62.1591 34.4225 60.9254 33.5563 60.5841C32.4538 60.1116 29.855 60.9779 28.595 61.5291C27.335 59.7651 27.335 56.8566 27.4925 55.6229C28.9415 47.4329 35.7613 46.2779 38.99 46.7241C41.069 47.1651 42.1138 45.9629 42.3763 45.3066C43.0063 43.3536 41.5363 42.2354 40.7225 41.9204C40.1555 41.6054 37.1263 41.6841 35.6825 41.7629C34.8635 40.2509 34.9213 36.7229 35.0525 35.1479C36.5488 23.8866 46.3138 20.8154 51.1963 20.8154C52.6925 20.8154 53.114 20.1066 53.3225 19.3979C54.0313 16.9881 52.4563 16.0116 51.1963 16.0116C48.2983 15.8856 45.0538 16.8516 43.7938 17.3504C43.4788 15.1454 43.925 12.8091 44.1875 11.9166C44.5025 9.58561 43.1113 8.84533 42.3763 8.76656C40.2973 8.57756 39.515 10.0528 39.3838 10.8141C38.3758 13.6491 38.8588 17.9278 39.2263 19.7128C28.8313 26.5798 29.4875 38.2716 31.115 43.2591C19.838 49.6221 22.1113 60.1378 24.6575 64.6003Z" fill="#20A2DC"/>
<path d="M42.77 81.3745C40.8012 81.4532 39.8562 80.0357 39.8562 79.327V77.122C40.4862 72.397 45.0537 69.8939 46.55 70.1132C55.6849 71.452 58.6249 65.9657 59.4649 62.7895C60.2209 60.4585 59.6749 58.0382 59.3074 57.1195C59.3074 55.0405 60.9874 54.5207 61.8274 54.5207C63.9694 54.5837 64.4524 56.647 64.4262 57.6707C68.8992 57.6077 71.4874 54.862 72.2224 53.497C70.8994 46.504 74.1912 42.0257 76.0024 40.6607C74.4274 38.5187 74.0862 35.0957 74.1124 33.652C74.2699 31.3679 75.7662 31.0122 76.5537 30.9745C78.2074 30.8954 78.9949 32.0766 78.9949 32.7858C78.8059 34.8018 79.7562 37.1432 80.2549 38.062C83.9089 36.046 85.6099 36.9595 86.0037 37.6682C87.4527 39.7472 86.0037 41.2904 85.1374 41.6057C81.7512 42.1566 78.6537 44.7295 77.9712 45.937C75.4512 50.536 77.3937 54.4157 78.6799 55.7807C80.2549 56.962 79.7824 58.3794 79.6249 58.6944C77.6089 61.6554 75.3724 59.7182 74.5062 58.3794C71.7972 61.5924 67.0249 62.5532 64.4262 62.5532C62.0637 73.8145 53.0075 75.862 46.9437 75.1532C44.8175 75.9407 44.8175 77.752 44.8962 79.4057C44.8962 80.587 43.2425 81.3745 42.77 81.3745Z" fill="#20A2DC"/>
<path d="M91.8312 58.8518C91.6422 56.1428 93.1175 54.8355 93.8787 54.5205C108.495 55.8436 111.886 44.3093 111.755 38.3768C120.89 36.2978 122.701 28.848 122.465 25.383C122.591 23.808 121.782 23.0993 121.362 22.9418C119.22 21.9968 118.055 23.3355 117.74 24.123C118.433 31.368 112.306 33.6518 109.156 33.888C106.699 33.825 106.295 35.6993 106.4 36.6443C108.29 45.0233 102.252 48.693 98.9975 49.4805C97.5485 50.0475 94.5087 49.7168 93.17 49.4805C89.264 50.5515 87.5 54.4418 87.1062 56.253C86.4762 59.277 87.7362 60.4005 88.445 60.5843C90.776 61.2143 91.6737 59.6918 91.8312 58.8518Z" fill="#20A2DC"/>
</svg>
