<svg width="175" height="175" viewBox="0 0 175 175" fill="none" xmlns="http://www.w3.org/2000/svg">
<path d="M6.85537 163.742V147.483H168.151V163.828C168.18 164.636 168.756 166.25 170.832 166.25C172.908 166.25 173.427 164.636 173.427 163.828V145.061C173.427 144.162 173.081 143.533 172.908 143.331L146.876 107.699C146.045 106.454 144.8 106.143 144.281 106.143H117.47C116.548 106.229 114.703 106.886 114.703 108.824C114.703 110.761 116.144 111.418 116.865 111.505H143.157L165.643 142.293H9.70941L34.0983 111.505H58.8332C59.5539 111.533 61.0126 111.055 61.0818 108.91C61.151 106.765 59.6116 106.171 58.8332 106.143H32.7146C31.6076 106.143 30.8695 106.892 30.6389 107.267L2.61759 142.466C1.71814 143.504 1.55093 144.34 1.57975 144.629V163.742C1.5221 164.578 1.96029 166.25 4.17432 166.25C6.38835 166.25 6.8842 164.578 6.85537 163.742Z" fill="#424242"/>
<path d="M48.1089 125.086C48.1089 122.878 49.6863 122.229 50.9854 122.229H120.061C121.268 122.229 122.659 123.032 122.659 124.996C122.659 126.997 120.989 127.764 120.061 127.764H50.707C49.5007 127.764 48.1089 126.871 48.1089 125.086Z" fill="#424242"/>
<path d="M87.2869 63.1593C91.1639 63.1593 92.1301 63.6205 92.1301 63.9377L93.5138 65.5808L100.952 62.3808C98.3224 59.1289 91.0346 58.0853 87.7193 57.97C66.2017 58.9387 60.88 76.2473 60.9088 84.7806C61.8083 105.883 79.042 111.389 87.5464 111.505C104.636 111.989 112.425 96.1966 114.184 88.24C114.184 87.5481 113.665 85.386 111.589 85.386C109.929 85.386 109.225 86.7121 109.081 87.3751C106.59 102.666 94.2057 106.229 87.5464 106.229C84.4328 106.748 66.7898 103.634 66.1844 84.7806C65.6457 68.0024 81.9248 63.1593 87.2869 63.1593Z" fill="#20A2DC"/>
<path d="M164.865 14.814C164.726 14.814 154.775 17.0627 149.816 18.187L96.541 14.0354C93.0123 13.9662 90.2275 16.6012 89.2762 17.9273L69.5575 43.4405C67.0494 46.208 66.8765 47.5053 66.8765 48.2837L66.1846 66.5322C66.1846 67.4316 67.0494 68.233 67.4819 68.5213L64.0224 73.5375L61.8603 70.0781C60.8916 68.6251 60.8224 66.8204 60.9089 66.0997L61.6008 47.8513C61.7392 44.5994 63.417 42.4027 64.5413 41.1054L85.6438 13.7761C89.1724 9.48641 94.3788 8.64462 96.541 8.75993L149.816 12.7383L162.184 9.97085C163.308 9.5096 165.747 9.106 166.508 11.1817C167.459 13.7762 165.038 14.814 164.865 14.814Z" fill="#424242"/>
<path d="M117.298 49.9269L124.043 44.7377C124.62 44.3053 126.206 43.945 127.33 45.2567C128.454 46.5684 127.993 48.1107 127.589 48.6296L108.13 63.6781L91.5248 68.8673C88.9879 69.0979 84.0006 70.6143 84.3465 74.8348C84.6925 79.0553 87.8924 79.9951 89.4492 79.9374L111.676 75.8726L138.141 68.1754L165.47 46.554C166.162 46.0351 168.014 45.2089 169.448 46.554C170.832 47.8513 170.227 49.9269 169.275 50.5323L140.822 72.9321L112.887 81.1482C108.562 81.5806 93.9464 85.0401 89.4492 85.213C84.9519 85.386 79.3304 82.0996 79.0709 74.8348C78.8634 69.0229 83.0781 66.0132 85.2114 65.2349C85.4881 64.8889 98.9338 60.7664 105.622 58.7485L112.973 53.2134L103.806 45.2567L84.1736 54.7701C82.5303 55.7215 79.6071 57.2263 78.2925 55.289C76.978 53.3518 77.8601 51.6566 79.2439 51.0512L102.854 39.7216C104.031 39.0297 105.132 39.4333 105.535 39.7216L117.298 49.9269Z" fill="#424242"/>
</svg>
