<svg width="175" height="175" viewBox="0 0 175 175" fill="none" xmlns="http://www.w3.org/2000/svg">
<path fill-rule="evenodd" clip-rule="evenodd" d="M12.4631 141.241C15.6371 139.082 24.4187 135.686 28.4127 134.258L28.4127 152.112C28.4127 156.714 32.9357 159.333 35.475 159.333H42.2992C43.0927 159.333 44.521 158.746 44.521 157.032C44.521 155.318 43.2514 154.651 42.5372 154.651H36.1891C34.2054 154.651 33.1738 152.35 33.1738 151.477V85.7741C33.1738 83.6792 35.1311 82.9968 36.1098 82.9175H78.6421C81.0544 83.1714 81.6045 84.9277 81.5781 85.7741V94.9789C81.5781 95.7988 82.0701 97.4388 84.038 97.4388C86.0059 97.4388 86.445 95.7988 86.4185 94.9789V85.7741C86.4185 80.6956 81.6045 78.2622 79.1975 78.1564H65.6285V66.6505H67.3742C71.31 66.2061 72.3469 62.6564 72.3733 60.9372C72.3733 56.6205 68.8819 55.3826 67.1361 55.3032H47.5364C45.8171 55.3826 42.3944 56.6205 42.4579 60.9372C42.5214 65.2539 45.87 66.5447 47.5364 66.6505H49.2027V78.1564H36.1098C29.9521 78.2199 28.4127 83.4729 28.4127 86.0915V129.179C24.2864 130.132 14.0501 134.972 9.44775 137.273C7.73376 138.225 8.15168 139.945 8.57488 140.685C9.46362 142.272 11.5373 141.717 12.4631 141.241ZM47.2983 60.9372C47.2983 60.1119 47.9331 60.0646 48.2505 60.0643L66.5013 60.0645C66.8187 60.0643 67.5329 60.1754 67.5329 60.9372C67.5329 61.699 66.8981 61.8102 66.5013 61.8102H48.2505C47.9331 61.8103 47.2983 61.7624 47.2983 60.9372ZM53.9638 66.5711V78.2358H60.8674V66.5711H53.9638Z" fill="#424242"/>
<path d="M121.095 127.433V122.752C134.68 123.958 152.201 130.396 159.263 133.464C159.977 133.774 161.326 135.21 159.818 137.273C158.758 138.725 156.724 137.662 155.851 137.273C143.393 131.718 127.734 128.412 121.095 127.433Z" fill="#424242"/>
<path d="M46.4255 110.77C44.4635 110.77 43.8862 109.367 43.8862 108.211V92.9255C43.8862 91.8525 44.6004 90.6145 46.3461 90.6145C48.1247 90.6145 48.806 92.1001 48.806 92.9255V108.459C48.806 109.532 48.0125 110.77 46.4255 110.77Z" fill="#20A2DC"/>
<path d="M57.5346 106.326C55.5726 106.326 54.9954 104.923 54.9954 103.767V92.9255C54.9954 91.8525 55.7095 90.6145 57.4553 90.6145C59.2339 90.6145 59.9151 92.1001 59.9151 92.9255V104.015C59.9151 105.088 59.1216 106.326 57.5346 106.326Z" fill="#20A2DC"/>
<path d="M68.6437 106.326C66.6818 106.326 66.1045 104.923 66.1045 103.767V92.9255C66.1045 91.8525 66.8187 90.6145 68.5644 90.6145C70.343 90.6145 71.0243 92.1001 71.0243 92.9255V104.015C71.0243 105.088 70.2308 106.326 68.6437 106.326Z" fill="#20A2DC"/>
<ellipse cx="136.093" cy="146.319" rx="3.17405" ry="3.17405" fill="#424242"/>
<ellipse cx="150.852" cy="143.938" rx="3.17405" ry="3.17405" fill="#424242"/>
<ellipse cx="144.98" cy="155.048" rx="3.17405" ry="3.17405" fill="#424242"/>
<path fill-rule="evenodd" clip-rule="evenodd" d="M76.1821 109.58H57.0585C50.9008 109.58 48.4092 115.134 48.4092 118.149V157.587C48.4092 163.697 54.4399 166.236 56.9791 166.236H113.874C120.413 166.236 122.841 160.682 122.841 157.904V117.911C122.841 112.119 117.286 109.58 114.191 109.58H95.2265V107.755C94.5282 102.168 90.0686 100.825 87.9261 100.851H83.4825C78.277 100.978 76.4466 105.506 76.1821 107.755V109.58ZM80.9432 108.151V109.579H90.4654V108.389C90.4654 106.723 88.7197 105.612 87.7674 105.612H83.6412C82.0541 105.612 80.9432 107.278 80.9432 108.151ZM60.7086 114.42H57.3759C56.0798 114.393 53.4559 115.15 53.329 118.387V157.428C53.4083 158.804 54.3288 161.554 57.3759 161.554H114.271C115.567 161.343 118.159 160.221 118.159 157.428V118.784C118.08 117.329 117.159 114.42 114.112 114.42H110.7V154.333C110.726 155.101 110.287 156.635 108.319 156.635C106.352 156.635 105.912 155.206 105.939 154.492V114.42H65.4697V154.413C65.4433 155.127 64.9143 156.635 62.9305 156.635C61.1054 156.635 60.7086 155.127 60.7086 153.937V114.42Z" fill="#20A2DC"/>
<path fill-rule="evenodd" clip-rule="evenodd" d="M112.525 60.2229L94.195 95.5344C93.8247 96.1427 93.4333 97.6451 94.8299 98.7878C95.7292 99.3168 97.7659 99.7876 98.7181 97.4388L116.493 63.0003C120.936 61.6778 130.744 61.6038 134.426 71.8877C134.611 73.0515 135.664 75.2046 138.394 74.5063C142.89 72.9986 152.867 72.9034 156.803 84.5839C157.544 85.6684 159.517 87.0914 161.485 84.1078C168.468 70.7503 174.038 38.7347 140.457 17.532L143.155 12.2949C143.499 11.5807 143.853 9.94606 142.52 9.1208C141.187 8.29555 139.849 8.98855 139.346 9.43821L136.172 15.3101C122.259 8.93553 89.5927 4.2009 70.231 36.2588C69.5168 37.4227 68.9455 39.8614 72.3735 40.3058C77.8487 38.8774 86.4186 37.9252 91.4178 49.9073C91.8482 50.9388 92.4652 52.0656 95.7027 51.4943C100.384 50.2247 108.589 50.5103 112.525 60.2229ZM76.8171 34.8304C81.9485 26.525 98.3689 11.1679 123 16.1829C117.842 17.4525 104.812 24.8005 93.957 44.0352C92.079 40.5173 86.0219 33.7512 76.8171 34.8304ZM147.916 29.1964C166.101 46.5488 162.752 68.9623 158.866 77.9183C154.026 69.7451 145.687 68.6421 141.726 69.1101C151.011 49.0344 149.82 34.1552 147.916 29.1964ZM98.0833 46.3366C102.501 45.5695 112.446 46.8444 116.89 58.0806C121.439 56.8374 131.887 56.8426 137.283 66.8092C139.796 62.0481 144.758 49.6534 144.504 38.1633C144.25 26.6733 139.346 22.1343 136.807 20.9441C134.347 19.595 128.221 17.9129 120.222 22.6105C115.408 25.3878 104.241 34.0213 98.0833 46.3366Z" fill="#424242"/>
</svg>
