<svg width="175" height="175" viewBox="0 0 175 175" fill="none" xmlns="http://www.w3.org/2000/svg">
<path d="M77.4589 43.3285C76.3545 42.0663 76.8278 40.5359 77.4589 40.0942C78.7211 39.2108 79.5099 37.6224 79.7466 36.9386C80.6301 34.9823 81.3243 27.3936 81.5609 23.8438C76.7489 21.3984 76.5123 19.5051 76.0389 16.7441C75.5656 13.9832 80.0582 8.46445 87.4773 8.77675C94.9713 9.09221 98.4423 12.011 98.9945 16.5864C99.4038 19.9784 95.655 22.9498 93.7092 23.8438C93.583 25.2322 94.8662 32.7841 95.5235 36.3865C95.5866 38.0273 96.9172 39.3315 97.5745 39.7785C99.0891 41.0406 98.4686 42.671 97.969 43.3285C96.549 44.6693 94.8136 43.8544 94.2614 43.3285C92.1315 41.5928 91.0797 39.3054 90.8693 38.201C89.544 33.1524 89.0024 25.8424 88.8972 22.8184C89.0024 22.0821 89.7649 20.3098 91.9737 19.1108C94.1825 17.9118 94.2088 16.718 93.9458 16.2709C93.5251 15.3506 91.6424 13.5415 87.4773 13.6677C83.3121 13.794 81.482 15.4558 81.0876 16.2709C80.8509 16.8231 80.9298 18.1642 83.1386 19.1108C85.3474 20.0574 86.2151 21.977 86.3729 22.8184C86.7515 25.2165 85.3211 34.0726 84.5585 38.201C84.136 40.4884 81.9553 42.6861 81.3242 43.2496C80.588 43.907 78.7702 44.8271 77.4589 43.3285Z" fill="#424242"/>
<path d="M111.637 48.8435C111.754 47.1704 113.173 46.4275 113.931 46.5638C115.448 46.8365 117.13 46.2765 117.782 45.9624C119.793 45.2101 125.665 40.3537 128.35 38.0195C126.693 32.8824 127.869 31.38 129.494 29.0982C131.119 26.8164 138.2 26.1133 143.208 31.5962C148.266 37.1345 148.642 41.654 145.786 45.2706C143.668 47.9519 138.918 47.387 136.913 46.6369C135.839 47.526 131.386 53.7592 129.294 56.7647C128.175 57.966 128.187 59.8291 128.334 60.6104C128.506 62.5744 126.912 63.2834 126.094 63.3924C124.142 63.3303 123.496 61.5248 123.48 60.7624C123.21 58.0282 124.091 55.6698 124.727 54.7421C127.374 50.2435 132.177 44.7068 134.248 42.5007C134.845 42.0564 136.639 41.3481 139.047 42.0698C141.454 42.7915 142.319 41.9687 142.451 41.467C142.808 40.5199 142.764 37.9092 139.738 35.0436C136.713 32.1781 134.244 32.0512 133.388 32.346C132.83 32.5673 131.934 33.5685 132.819 35.8025C133.705 38.0366 132.955 40.0051 132.469 40.7101C131.035 42.669 123.744 47.8966 120.278 50.2655C118.358 51.5781 115.262 51.5803 114.417 51.5298C113.432 51.4709 111.498 50.83 111.637 48.8435Z" fill="#424242"/>
<path d="M131.515 77.1252C132.777 76.0208 134.308 76.4941 134.749 77.1252C135.633 78.3874 137.221 79.1762 137.905 79.4128C139.861 80.2963 147.45 80.9905 151 81.2272C153.445 76.4152 155.339 76.1785 158.099 75.7052C160.86 75.2319 166.379 79.7244 166.067 87.1435C165.751 94.6376 162.833 98.1085 158.257 98.6607C154.865 99.0701 151.894 95.3213 151 93.3754C149.611 93.2492 142.06 94.5324 138.457 95.1898C136.816 95.2529 135.512 96.5834 135.065 97.2408C133.803 98.7554 132.173 98.1348 131.515 97.6352C130.174 96.2153 130.989 94.4798 131.515 93.9276C133.251 91.7978 135.538 90.7459 136.643 90.5356C141.691 89.2103 149.001 88.6686 152.025 88.5635C152.762 88.6686 154.534 89.4312 155.733 91.64C156.932 93.8487 158.126 93.875 158.573 93.6121C159.493 93.1914 161.302 91.3086 161.176 87.1435C161.05 82.9784 159.388 81.1483 158.573 80.7538C158.02 80.5172 156.679 80.5961 155.733 82.8048C154.786 85.0136 152.867 85.8814 152.025 86.0391C149.627 86.4178 140.771 84.9873 136.643 84.2248C134.355 83.8022 132.158 81.6216 131.594 80.9905C130.937 80.2543 130.017 78.4365 131.515 77.1252Z" fill="#424242"/>
<path d="M125.162 111.207C126.838 111.258 127.637 112.647 127.53 113.41C127.317 114.936 127.943 116.596 128.283 117.235C129.113 119.214 134.197 124.891 136.635 127.482C141.702 125.624 143.25 126.741 145.594 128.275C147.938 129.808 148.919 136.857 143.637 142.076C138.301 147.348 133.8 147.902 130.074 145.19C127.312 143.179 127.69 138.41 128.36 136.377C127.43 135.339 121.026 131.135 117.941 129.162C116.697 128.091 114.835 128.177 114.06 128.354C112.105 128.603 111.334 127.038 111.193 126.225C111.178 124.272 112.957 123.556 113.718 123.51C116.439 123.133 118.831 123.92 119.782 124.519C124.382 126.987 130.103 131.569 132.389 133.552C132.856 134.13 133.634 135.896 133.008 138.33C132.381 140.764 133.237 141.596 133.744 141.708C134.704 142.027 137.311 141.88 140.056 138.745C142.8 135.609 142.83 133.137 142.502 132.293C142.259 131.744 141.223 130.888 139.025 131.861C136.828 132.833 134.831 132.161 134.108 131.704C132.094 130.348 126.584 123.268 124.081 119.898C122.694 118.031 122.57 114.937 122.587 114.091C122.607 113.104 123.172 111.147 125.162 111.207Z" fill="#424242"/>
<path d="M97.8421 131.7C98.9465 132.962 98.4732 134.492 97.8421 134.934C96.5799 135.817 95.7911 137.406 95.5545 138.089C94.671 140.046 93.9768 147.634 93.7401 151.184C98.5521 153.63 98.7888 155.523 99.2621 158.284C99.7354 161.045 95.2429 166.564 87.8238 166.251C80.3297 165.936 76.8588 163.017 76.3066 158.442C75.8972 155.05 79.646 152.078 81.5919 151.184C81.7181 149.796 80.4349 142.244 79.7775 138.642C79.7144 137.001 78.3839 135.697 77.7265 135.25C76.2119 133.987 76.8325 132.357 77.3321 131.7C78.752 130.359 80.4875 131.174 81.0397 131.7C83.1695 133.435 84.2214 135.723 84.4317 136.827C85.757 141.876 86.2987 149.186 86.4038 152.21C86.2987 152.946 85.5361 154.718 83.3273 155.917C81.1185 157.116 81.0923 158.31 81.3552 158.757C81.7759 159.677 83.6586 161.487 87.8238 161.36C91.9889 161.234 93.819 159.572 94.2134 158.757C94.4501 158.205 94.3712 156.864 92.1624 155.917C89.9537 154.971 89.0859 153.051 88.9282 152.21C88.5495 149.812 89.98 140.955 90.7425 136.827C91.165 134.54 93.3457 132.342 93.9768 131.778C94.713 131.121 96.5308 130.201 97.8421 131.7Z" fill="#424242"/>
<path d="M63.1856 125.531C63.0606 127.203 61.6379 127.939 60.8804 127.799C59.3654 127.519 57.68 128.071 57.0266 128.382C55.0125 129.125 49.1167 133.953 46.4206 136.274C48.0528 141.419 46.8694 142.915 45.2334 145.189C43.5975 147.463 36.5129 148.132 31.5317 142.625C26.5001 137.062 26.1459 132.541 29.0197 128.938C31.1503 126.267 35.8976 126.855 37.8997 127.615C38.9778 126.731 43.4604 120.519 45.567 117.524C46.6922 116.328 46.6886 114.465 46.5461 113.683C46.3833 111.718 47.9806 111.017 48.7997 110.912C50.7513 110.984 51.3878 112.792 51.4002 113.555C51.657 116.29 50.7644 118.644 50.1248 119.569C47.4559 124.055 42.6256 129.568 40.544 131.764C39.9454 132.205 38.1473 132.905 35.7435 132.172C33.3396 131.438 32.4703 132.257 32.3361 132.758C31.9752 133.703 32.0063 136.314 35.0178 139.194C38.0292 142.075 40.4973 142.213 41.355 141.923C41.9146 141.704 42.8151 140.707 41.9405 138.469C41.066 136.231 41.8255 134.266 42.3146 133.563C43.7583 131.611 51.0739 126.419 54.5512 124.067C56.478 122.764 59.5739 122.776 60.4182 122.831C61.4032 122.895 63.334 123.545 63.1856 125.531Z" fill="#424242"/>
<path d="M58.9998 36.2286C68.2136 30.8014 77.7745 29.2868 81.4032 29.2079L81.0087 34.0199C73.6882 34.5247 65.6525 38.0693 62.5497 39.7785C61.2086 40.6462 58.6054 41.8295 57.5799 39.9362C56.5314 38.0004 58.0624 36.7808 58.9998 36.2286Z" fill="#424242"/>
<path d="M137.878 57.3997C143.959 67.3882 145.95 79.3849 145.912 83.0142L141.115 82.4658C140.845 75.1328 135.825 63.9899 134.216 60.8339C133.392 59.4657 132.292 56.8259 134.218 55.8617C136.186 54.8757 137.356 56.445 137.878 57.3997Z" fill="#424242"/>
<path d="M143.822 103.415C140.731 114.693 133.372 124.375 130.706 126.838L127.813 122.973C132.961 117.744 137.62 106.445 138.811 103.109C139.24 101.571 140.406 98.9594 142.429 99.6978C144.497 100.453 144.158 102.381 143.822 103.415Z" fill="#424242"/>
<path d="M116.296 138.357C106.147 144.167 94.1017 145.836 90.4747 145.701L91.1517 140.92C98.4892 140.847 109.763 136.128 112.961 134.604C114.351 133.817 117.019 132.789 117.931 134.739C118.864 136.733 117.264 137.861 116.296 138.357Z" fill="#424242"/>
<path d="M73.5062 143.972C62.1212 141.302 52.1732 134.307 49.6123 131.735L53.3675 128.7C58.784 133.651 70.2482 137.887 73.6263 138.953C75.1797 139.325 77.8323 140.393 77.1696 142.442C76.4919 144.536 74.5527 144.27 73.5062 143.972Z" fill="#424242"/>
<path d="M37.1319 117.198C31.0886 107.186 29.1429 95.1822 29.1941 91.5529L33.9888 92.1195C34.2311 99.4534 39.2097 110.615 40.8066 113.777C41.6258 115.148 42.715 117.792 40.7863 118.749C38.8141 119.728 37.6502 118.154 37.1319 117.198Z" fill="#424242"/>
<path d="M30.7238 72.5316C33.5882 61.1939 40.7513 51.3667 43.3667 48.8501L46.3369 52.6565C41.2948 57.9878 36.8639 69.378 35.7398 72.7373C35.3414 74.2841 34.2285 76.9182 32.1915 76.2205C30.1087 75.5072 30.4085 73.5729 30.7238 72.5316Z" fill="#424242"/>
<path d="M101.719 30.5661C113.036 33.3888 122.321 39.7922 124.911 42.3351L121.19 45.4123C115.718 40.5236 105.046 36.6141 101.656 35.5859C100.098 35.2316 97.4335 34.194 98.073 32.138C98.7269 30.0358 100.669 30.2805 101.719 30.5661Z" fill="#424242"/>
<path d="M43.3144 97.2376C42.0522 98.342 40.5219 97.8687 40.0802 97.2376C39.1968 95.9754 37.6084 95.1866 36.9246 94.95C34.9682 94.0665 27.3795 93.3723 23.8297 93.1356C21.3844 97.9476 19.4911 98.1843 16.7301 98.6576C13.9691 99.1309 8.45041 94.6384 8.76272 87.2193C9.07817 79.7252 11.997 76.2543 16.5723 75.7021C19.9643 75.2927 22.9357 79.0415 23.8297 80.9874C25.2181 81.1136 32.77 79.8304 36.3725 79.173C38.0133 79.1099 39.3175 77.7794 39.7645 77.122C41.0266 75.6074 42.657 76.228 43.3144 76.7276C44.6553 78.1475 43.8404 79.883 43.3144 80.4352C41.5788 82.565 39.2913 83.6169 38.1869 83.8272C33.1384 85.1525 25.8283 85.6942 22.8044 85.7993C22.0681 85.6942 20.2957 84.9316 19.0968 82.7228C17.8978 80.514 16.704 80.4878 16.2569 80.7507C15.3366 81.1714 13.5275 83.0541 13.6537 87.2193C13.7799 91.3844 15.4418 93.2145 16.2569 93.609C16.8091 93.8456 18.1501 93.7667 19.0968 91.5579C20.0434 89.3492 21.9629 88.4814 22.8044 88.3237C25.2025 87.945 34.0586 89.3755 38.1869 90.138C40.4744 90.5605 42.6721 92.7412 43.2356 93.3723C43.8929 94.1085 44.8131 95.9263 43.3144 97.2376Z" fill="#424242"/>
<path d="M48.9757 63.4228C47.3019 63.3167 46.5498 61.9023 46.6813 61.1433C46.9443 59.6253 46.3734 57.9462 46.0551 57.2964C45.29 55.2908 40.3958 49.4498 38.0444 46.78C32.9181 48.47 31.4082 47.3035 29.116 45.6933C26.8238 44.0832 26.0752 37.0065 31.5257 31.9635C37.0314 26.8696 41.5484 26.4645 45.1833 29.2975C47.8781 31.3978 47.3438 36.1515 46.6066 38.162C47.5025 39.2301 53.7643 43.6424 56.7831 45.7151C57.9916 46.8268 59.8546 46.8021 60.635 46.6508C62.5978 46.4659 63.3171 48.0553 63.4313 48.873C63.3818 50.8254 61.5805 51.4822 60.8182 51.5032C58.0858 51.7908 55.7217 50.9248 54.79 50.2956C50.2745 47.6775 44.707 42.9096 42.4876 40.8529C42.0394 40.2593 41.3196 38.4692 42.0258 36.0573C42.7321 33.6453 41.9037 32.7853 41.4012 32.6567C40.4518 32.3065 37.8415 32.367 34.9954 35.4107C32.1493 38.4544 32.0383 40.924 32.3386 41.7783C32.5635 42.3354 33.5705 43.2246 35.7988 42.3249C38.0271 41.4252 40.0004 42.1625 40.7085 42.6436C42.6766 44.0652 47.9509 51.3219 50.3421 54.7725C51.667 56.6845 51.6891 59.7803 51.644 60.6252C51.5915 61.6108 50.9631 63.5489 48.9757 63.4228Z" fill="#424242"/>
<path fill-rule="evenodd" clip-rule="evenodd" d="M80.22 65.8325C80.3717 63.6426 82.0283 59.2628 87.4401 59.2628C92.852 59.2628 94.3784 63.6426 94.4651 65.8325L91.7982 97.0547C91.7332 98.3556 90.172 100.502 87.4401 100.502C84.1878 100.502 82.8218 97.8353 82.8218 97.0547L80.22 65.8325ZM83.4073 65.7026C83.4723 64.6185 84.3439 62.4503 87.31 62.4503C90.2761 62.4503 91.1478 64.5317 91.2128 65.5725L88.8061 95.884C88.676 96.9248 88.1556 97.3151 87.3751 97.3151C86.5945 97.3151 85.9441 97.0549 85.879 95.884L83.4073 65.7026Z" fill="#20A2DC"/>
<path fill-rule="evenodd" clip-rule="evenodd" d="M87.2986 115.864C90.0648 115.864 92.3072 113.622 92.3072 110.856C92.3072 108.09 90.0648 105.847 87.2986 105.847C84.5324 105.847 82.29 108.09 82.29 110.856C82.29 113.622 84.5324 115.864 87.2986 115.864ZM87.2986 112.612C88.2686 112.612 89.0549 111.826 89.0549 110.856C89.0549 109.886 88.2686 109.1 87.2986 109.1C86.3287 109.1 85.5424 109.886 85.5424 110.856C85.5424 111.826 86.3287 112.612 87.2986 112.612Z" fill="#20A2DC"/>
<path fill-rule="evenodd" clip-rule="evenodd" d="M87.4772 126.315C108.912 126.315 126.289 108.939 126.289 87.504C126.289 66.069 108.912 48.6926 87.4772 48.6926C66.0422 48.6926 48.6658 66.069 48.6658 87.504C48.6658 108.939 66.0422 126.315 87.4772 126.315ZM87.5561 122.056C106.595 122.056 122.029 106.622 122.029 87.5829C122.029 68.5441 106.595 53.1101 87.5561 53.1101C68.5173 53.1101 53.0833 68.5441 53.0833 87.5829C53.0833 106.622 68.5173 122.056 87.5561 122.056Z" fill="#20A2DC"/>
</svg>
