<svg width="175" height="175" viewBox="0 0 175 175" fill="none" xmlns="http://www.w3.org/2000/svg">
<path fill-rule="evenodd" clip-rule="evenodd" d="M21.7323 21.0761V151.211H26.3659V22.8008L61.1178 14.0265V22.6529L33.9078 28.9132C32.8233 29.0446 30.7924 29.8202 31.3445 31.8708C31.8966 33.9214 33.5463 33.974 34.3021 33.744L61.1178 27.4344V33.4975L33.7599 39.5113C32.8233 39.4127 30.6051 40.4972 31.3445 42.7154C31.936 44.49 33.5627 44.5393 34.3021 44.3421L61.1178 38.2297V44.49L33.612 50.1587C32.6097 50.3231 30.753 51.1348 31.3445 53.0671C31.936 54.9994 33.3984 55.0881 34.0557 54.8909L61.1178 49.2715V53.7079C61.1014 54.4966 61.5418 56.0641 63.4346 56.0247C65.3275 55.9852 65.7679 54.628 65.7514 53.9543V49.863L71.716 52.3277C73.806 53.4318 74.9529 52.492 75.2651 51.884C76.251 50.07 75.4459 48.9264 74.9201 48.5813L65.7514 44.9336V38.9691L72.0117 41.9267C73.5891 42.7548 74.7393 41.9431 75.1172 41.4338C76.4186 39.7775 75.5937 38.5419 75.0186 38.1311L65.7514 33.9411V28.2724L71.8146 31.23C73.7863 32.3342 74.9036 31.4929 75.2158 30.9342C76.2411 29.0414 75.413 27.878 74.8708 27.533L65.7514 23.0966V15.0124L79.6522 22.505V51.1446C79.6522 51.9333 80.1255 53.5206 82.0183 53.56C83.9112 53.5994 84.3187 51.9662 84.2858 51.1446V20.9769C84.3647 19.8727 83.0699 18.9723 82.4127 18.6601L64.6177 9.09776C63.9867 8.5851 62.9417 8.7527 62.4981 8.90058L24.8378 18.365C21.8802 18.7593 21.5351 20.3367 21.7323 21.0761ZM49.2874 64.1088V150.915V153.774H96.6212C96.4562 153.591 96.2953 153.408 96.1386 153.225C95.3504 152.456 94.3817 151.348 93.4052 149.994V150.866H83.2014V136.127H88.6278V131.345H83.1521V117.592L88.6278 117.383V112.726L83.1521 112.91V98.5158L88.6278 98.1228V97.7044C88.6278 96.4781 88.8502 95.9207 91.632 94.973L98.1373 92.6685V79.0448L118.89 83.5798V85.3169L122.788 83.9359L122.789 83.9358C123.028 83.8293 123.267 83.7228 123.573 83.6892V63.6652C123.573 62.0089 122.193 61.2662 121.503 61.1019L97.2993 55.581C96.4712 55.2261 95.4755 55.3346 95.0811 55.4332L52.3929 61.0526C49.3958 61.2104 49.0738 63.1558 49.2874 64.1088ZM53.9703 136.275H63.7304V150.866H53.9703V136.275ZM78.6171 136.225H68.4626V150.915H78.6171V136.225ZM63.7797 118.43L53.9703 118.874V131.592H63.7797V118.43ZM68.4133 118.135L78.5185 117.79V131.444L68.4133 131.542V118.135ZM78.5678 113.156L68.4626 113.501V99.6988L78.5678 98.9101V113.156ZM53.9703 114.142C57.2894 114.093 63.9177 113.955 63.8783 113.797C63.8388 113.639 63.8619 104.595 63.8783 100.093L53.9703 100.783V114.142ZM63.829 95.5582L54.0196 96.2976V82.7418L63.829 81.7559V95.5582ZM68.4133 81.263L78.5678 80.2278V94.4244L68.4133 95.2131V81.263ZM93.5037 78.6504L83.1521 79.7349V93.9808L93.5037 93.2413V78.6504ZM54.0196 78.1575L63.7797 77.2209V64.1581L54.0196 65.4891V78.1575ZM68.4626 76.5801V63.6159L78.5678 62.285V75.5942L68.4626 76.5801ZM83.2507 61.6441V75.0027L93.4545 74.0661V60.3132L83.2507 61.6441ZM118.841 65.3905L98.1866 60.609V74.4112C98.1866 74.6872 111.956 77.451 118.841 78.7983V65.3905Z" fill="#424242"/>
<path d="M31.092 63.3481C30.8302 61.5586 31.9883 60.8514 33.0055 60.7026L43.7414 59.1321C44.6859 58.9939 45.871 59.4858 46.1039 61.0781C46.3412 62.7003 45.1244 63.513 44.3978 63.6193L33.444 65.2217C32.4994 65.3599 31.3037 64.7956 31.092 63.3481Z" fill="#424242"/>
<path d="M31.1654 74.0652C30.8469 72.285 31.9819 71.5413 32.9939 71.3603L43.6744 69.4495C44.6141 69.2814 45.8142 69.7354 46.0976 71.3194C46.3864 72.9333 45.1959 73.7843 44.4731 73.9136L33.5757 75.8632C32.6361 76.0313 31.423 75.5053 31.1654 74.0652Z" fill="#424242"/>
<path d="M31.0364 84.2911C30.8174 82.4959 31.992 81.8165 33.0125 81.692L43.7827 80.378C44.7303 80.2624 45.9033 80.7825 46.0982 82.3798C46.2968 84.0072 45.0608 84.7907 44.332 84.8796L33.343 86.2203C32.3955 86.3359 31.2136 85.7432 31.0364 84.2911Z" fill="#424242"/>
<path d="M30.961 94.7531C30.8002 92.9518 31.9963 92.3108 33.0202 92.2194L43.8274 91.2549C44.7782 91.1701 45.9338 91.7279 46.0768 93.3307C46.2226 94.9637 44.9619 95.7067 44.2305 95.772L33.2039 96.7561C32.2531 96.8409 31.091 96.2103 30.961 94.7531Z" fill="#424242"/>
<path d="M30.9467 105.703C30.797 103.901 31.9969 103.267 33.0214 103.182L43.8343 102.284C44.7856 102.205 45.9378 102.77 46.0709 104.374C46.2067 106.008 44.9414 106.743 44.2097 106.804L33.1772 107.72C32.2259 107.799 31.0678 107.161 30.9467 105.703Z" fill="#424242"/>
<path d="M31.1881 116.102C31.0803 114.296 32.2946 113.691 33.3208 113.629L44.1517 112.983C45.1045 112.926 46.2433 113.517 46.3392 115.124C46.4369 116.76 45.155 117.466 44.422 117.51L33.3713 118.17C32.4184 118.226 31.2753 117.562 31.1881 116.102Z" fill="#424242"/>
<path d="M30.9475 127.159C30.8734 125.352 32.0988 124.769 33.1259 124.727L43.967 124.282C44.9207 124.243 46.0482 124.855 46.1142 126.463C46.1814 128.101 44.8865 128.783 44.1528 128.813L33.0917 129.267C32.1379 129.306 31.0074 128.62 30.9475 127.159Z" fill="#424242"/>
<path d="M30.963 138.551C30.9531 136.742 32.1985 136.203 33.2264 136.197L44.0764 136.138C45.031 136.133 46.136 136.785 46.1448 138.394C46.1538 140.034 44.8356 140.669 44.1013 140.673L33.0311 140.734C32.0765 140.739 30.9711 140.013 30.963 138.551Z" fill="#424242"/>
<path fill-rule="evenodd" clip-rule="evenodd" d="M94.097 150.916H15.9262C14.8982 150.916 13.6499 151.448 13.6499 153.256C13.6499 154.719 14.7513 155.451 15.7059 155.451H98.2363C97.4766 154.709 96.7726 153.965 96.1385 153.225C95.5374 152.639 94.8314 151.855 94.097 150.916ZM149.391 155.451C150.286 154.578 150.991 153.823 151.496 153.225C152.201 152.451 152.843 151.679 153.427 150.916H159.226C160.181 150.916 161.282 151.574 161.282 153.183C161.282 154.823 159.961 155.451 159.226 155.451H149.391Z" fill="#424242"/>
<path fill-rule="evenodd" clip-rule="evenodd" d="M122.936 88.5394L122.936 88.5395L95.3312 98.2996C92.8665 99.1376 92.6694 99.6305 92.6694 100.715V135.319C92.5215 141.431 96.8922 147.445 99.324 149.811C104.993 156.417 116.955 163.318 122.443 165.93C123.823 166.473 124.559 166.226 125.203 165.93C137.665 160.212 145.841 152.802 148.371 149.811C153.991 143.65 155.108 137.669 154.927 135.319V101.159C154.927 99.3668 153.89 98.9281 153.196 98.6346L153.191 98.6327C153.161 98.62 153.132 98.6076 153.103 98.5953L124.809 88.5395C123.823 88.1451 123.379 88.3423 122.936 88.5394ZM149.099 104.121L123.788 95.025L98.525 104.121V136.028C98.902 146.397 115.587 156.53 123.883 160.3C144.244 150.648 149.178 140.097 149.099 136.028V104.121ZM110.119 131.375C109.577 130.784 109.183 129.44 110.267 128.516C111.829 127.186 112.88 127.383 113.619 128.171L118.499 133.101L137.576 114.123C138.217 113.482 139.662 113.018 140.829 114.271C142.16 115.7 141.371 117.031 140.829 117.623L119.978 138.425C119.239 139.115 118.056 139.263 117.168 138.425L110.119 131.375Z" fill="#20A2DC"/>
</svg>
