<svg width="32" height="32" viewBox="0 0 32 32" fill="none" xmlns="http://www.w3.org/2000/svg">
<g clip-path="url(#clip0_499_232)">
<path d="M16.8536 8.21333C18.6136 8.21333 20.0536 6.50666 20.0536 4.37332C20.0536 2.23999 18.6136 0.533325 16.8536 0.533325C15.0936 0.533325 13.6536 2.23999 13.6536 4.37332C13.6536 6.50666 15.1469 8.21333 16.8536 8.21333ZM16.8536 1.59999C17.9736 1.59999 18.9336 2.82666 18.9336 4.31999C18.9336 5.81333 18.0269 7.03999 16.8536 7.03999C15.7336 7.03999 14.7736 5.81333 14.7736 4.31999C14.7736 2.82666 15.7336 1.59999 16.8536 1.59999Z" fill="#0F3849"/>
<path d="M16.8534 22.2933C16.5334 22.2933 16.3201 22.56 16.3201 22.8267V31.36C16.3201 31.68 16.5867 31.8933 16.8534 31.8933C17.1734 31.8933 17.3867 31.6267 17.3867 31.36V22.8267C17.4401 22.56 17.1734 22.2933 16.8534 22.2933Z" fill="#0F3849"/>
<path d="M19.5733 9.12H18.88C18.56 9.12 18.3467 9.38666 18.3467 9.65333C18.3467 9.92 18.6133 10.1867 18.88 10.1867H19.5733C21.44 10.1867 22.9333 11.68 22.9333 13.5467V18.5067C22.9333 19.2533 22.5067 20 21.8133 20.3733L21.44 20.5333V14.24C21.44 13.92 21.1733 13.7067 20.9067 13.7067C20.64 13.7067 20.3733 13.9733 20.3733 14.24V31.36C20.3733 31.68 20.64 31.8933 20.9067 31.8933C21.1733 31.8933 21.44 31.6267 21.44 31.36V21.8133L22.3467 21.3867C23.4133 20.8 24.0533 19.7333 24.0533 18.56V13.6C24.0533 11.0933 22.0267 9.12 19.5733 9.12Z" fill="#0F3849"/>
<path d="M24.8001 8.21333C26.5601 8.21333 28.0001 6.50666 28.0001 4.37332C28.0001 2.23999 26.5601 0.533325 24.8001 0.533325C23.0401 0.533325 21.6001 2.23999 21.6001 4.37332C21.6001 6.50666 23.0401 8.21333 24.8001 8.21333ZM24.8001 1.59999C25.9201 1.59999 26.8801 2.82666 26.8801 4.31999C26.8801 5.81333 25.9734 7.03999 24.8001 7.03999C23.6268 7.03999 22.7201 5.81333 22.7201 4.31999C22.7201 2.82666 23.6268 1.59999 24.8001 1.59999Z" fill="#0F3849"/>
<path d="M24.8002 22.2933C24.4802 22.2933 24.2668 22.56 24.2668 22.8267V31.36C24.2668 31.68 24.5335 31.8933 24.8002 31.8933C25.0668 31.8933 25.3335 31.6267 25.3335 31.36V22.8267C25.3335 22.56 25.1202 22.2933 24.8002 22.2933Z" fill="#0F3849"/>
<path d="M27.4669 9.12H26.7736C26.4536 9.12 26.2402 9.38666 26.2402 9.65333C26.2402 9.92 26.5069 10.1867 26.7736 10.1867H27.4669C29.3336 10.1867 30.8269 11.68 30.8269 13.5467V18.5067C30.8269 19.3067 30.4002 20.0533 29.7069 20.3733L29.3336 20.5333V14.24C29.3336 13.92 29.0669 13.7067 28.8002 13.7067C28.4802 13.7067 28.2669 13.9733 28.2669 14.24V31.36C28.2669 31.68 28.5336 31.8933 28.8002 31.8933C29.1202 31.8933 29.3336 31.6267 29.3336 31.36V21.8667L30.1869 21.44C31.2536 20.9067 31.9469 19.7867 31.9469 18.56V13.6C31.9469 11.0933 29.9202 9.12 27.4669 9.12Z" fill="#0F3849"/>
<path d="M9.65337 8.21333C11.4134 8.21333 12.8534 6.50666 12.8534 4.37332C12.8534 2.23999 11.4134 0.533325 9.65337 0.533325C7.89337 0.533325 6.45337 2.23999 6.45337 4.37332C6.45337 6.50666 7.89337 8.21333 9.65337 8.21333ZM9.65337 1.59999C10.7734 1.59999 11.7334 2.82666 11.7334 4.31999C11.7334 5.81333 10.8267 7.03999 9.65337 7.03999C8.53337 7.03999 7.57337 5.81333 7.57337 4.31999C7.57337 2.82666 8.53337 1.59999 9.65337 1.59999Z" fill="#0F3849"/>
<path d="M9.65345 21.0133C9.33345 21.0133 9.12012 21.28 9.12012 21.5466V31.36C9.12012 31.68 9.38678 31.8933 9.65345 31.8933C9.92012 31.8933 10.1868 31.6266 10.1868 31.36V21.5466C10.1868 21.2266 9.97345 21.0133 9.65345 21.0133Z" fill="#0F3849"/>
<path d="M16.7467 13.6C16.7467 11.1467 14.72 9.12 12.2667 9.12H11.5734C11.2534 9.12 11.04 9.38666 11.04 9.65333C11.04 9.92 11.3067 10.1867 11.5734 10.1867H12.2667C14.1334 10.1867 15.6267 11.68 15.6267 13.5467V18.5067C15.6267 19.3067 15.2 20.0533 14.5067 20.3733L14.1334 20.5333V14.24C14.1334 13.92 13.8667 13.7067 13.6 13.7067C13.3334 13.7067 13.0667 13.9733 13.0667 14.24V31.36C13.0667 31.68 13.3334 31.8933 13.6 31.8933C13.8667 31.8933 14.1334 31.6267 14.1334 31.36V21.8667L14.9867 21.44C16.0534 20.9067 16.7467 19.7867 16.7467 18.56V13.6Z" fill="#0F3849"/>
<path d="M7.68011 9.12H6.98678C4.48011 9.12 2.45345 11.1467 2.45345 13.6V19.04H1.06678C0.746781 19.04 0.533447 19.3067 0.533447 19.5733V24.8533C0.533447 25.1733 0.800114 25.3867 1.06678 25.3867H5.12011V31.36C5.12011 31.68 5.38678 31.8933 5.65345 31.8933C5.92011 31.8933 6.18678 31.6267 6.18678 31.36V25.3867H6.93345C7.25345 25.3867 7.46678 25.12 7.46678 24.8533V19.5733C7.46678 19.2533 7.20011 19.04 6.93345 19.04H6.18678V14.1867C6.18678 13.8667 5.92011 13.6533 5.65345 13.6533C5.38678 13.6533 5.12011 13.92 5.12011 14.1867V19.04H3.57345V13.6C3.57345 11.7333 5.12011 10.24 6.98678 10.24H7.68011C8.00011 10.24 8.21345 9.97333 8.21345 9.70666C8.21345 9.43999 7.94678 9.12 7.68011 9.12ZM6.40011 24.2667H1.60011V20.1067H6.40011V24.2667Z" fill="#0F3849"/>
</g>
<defs>
<clipPath id="clip0_499_232">
<rect width="32" height="32" fill="white"/>
</clipPath>
</defs>
</svg>
