<svg width="32" height="32" viewBox="0 0 32 32" fill="none" xmlns="http://www.w3.org/2000/svg">
<path d="M7.36488 17.9525L7.31738 18.0438H25.6836L25.6361 17.9525C24.9085 16.5533 23.8104 15.381 22.4618 14.5636C21.1131 13.7462 19.5657 13.3151 17.9886 13.3175H15.0124C13.4353 13.3151 11.8879 13.7462 10.5393 14.5636C9.19058 15.381 8.09247 16.5533 7.36488 17.9525Z" fill="#EFFAFE"/>
<path d="M27.5237 18.5437H5.47616C5.32894 18.5444 5.18371 18.5777 5.05082 18.641C4.91794 18.7044 4.80068 18.7963 4.70742 18.9102C4.61417 19.0241 4.54721 19.1572 4.51134 19.3C4.47547 19.4428 4.47157 19.5917 4.49991 19.7362L6.19616 28.4037C6.24078 28.6312 6.36304 28.8361 6.54202 28.9834C6.72101 29.1307 6.94561 29.2112 7.17741 29.2112H25.8287C26.0605 29.2112 26.2851 29.1307 26.464 28.9834C26.643 28.8361 26.7653 28.6312 26.8099 28.4037L28.4999 19.7362C28.5282 19.5917 28.5243 19.4428 28.4885 19.3C28.4526 19.1572 28.3856 19.0241 28.2924 18.9102C28.1991 18.7963 28.0819 18.7044 27.949 18.641C27.8161 18.5777 27.6709 18.5444 27.5237 18.5437Z" fill="#40BDFF"/>
<path d="M17.0826 12.8175C18.5296 12.6684 19.864 11.9693 20.8104 10.8645C21.7568 9.75983 22.2429 8.33387 22.1682 6.88111C22.0935 5.42836 21.4638 4.05975 20.4092 3.0579C19.3545 2.05604 17.9554 1.49744 16.5007 1.49744C15.046 1.49744 13.6469 2.05604 12.5922 3.0579C11.5375 4.05975 10.9078 5.42836 10.8332 6.88111C10.7585 8.33387 11.2445 9.75983 12.1909 10.8645C13.1373 11.9693 14.4718 12.6684 15.9188 12.8175H17.0826Z" fill="#EFFAFE"/>
<path d="M25.635 17.9525C24.9075 16.5533 23.8094 15.381 22.4607 14.5636C21.112 13.7462 19.5646 13.3151 17.9875 13.3175H16.7375C18.3146 13.3151 19.862 13.7462 21.2107 14.5636C22.5594 15.381 23.6575 16.5533 24.385 17.9525L24.4326 18.0438H25.6826L25.635 17.9525Z" fill="#E4EBED"/>
<path d="M27.5236 18.5437H26.2736C26.4213 18.5437 26.5671 18.5764 26.7006 18.6394C26.8341 18.7025 26.952 18.7943 27.0458 18.9083C27.1396 19.0223 27.207 19.1557 27.2431 19.2988C27.2793 19.442 27.2833 19.5913 27.2549 19.7362L25.5586 28.405C25.514 28.6324 25.3918 28.8373 25.2128 28.9846C25.0338 29.1319 24.8092 29.2124 24.5774 29.2125H25.8274C26.0592 29.2124 26.2838 29.1319 26.4628 28.9846C26.6418 28.8373 26.764 28.6324 26.8086 28.405L28.4999 19.7362C28.5282 19.5917 28.5243 19.4428 28.4885 19.3C28.4526 19.1572 28.3856 19.0241 28.2924 18.9102C28.1991 18.7963 28.0819 18.7044 27.949 18.641C27.8161 18.5777 27.6709 18.5444 27.5236 18.5437Z" fill="#2197F7"/>
<path d="M16.5 1.5C16.2912 1.50022 16.0825 1.5119 15.875 1.535C17.263 1.68851 18.5456 2.34862 19.4772 3.38893C20.4088 4.42925 20.924 5.77665 20.924 7.17312C20.924 8.5696 20.4088 9.917 19.4772 10.9573C18.5456 11.9976 17.263 12.6577 15.875 12.8112H15.92H17.0837C18.5194 12.6488 19.8389 11.9448 20.7733 10.8428C21.7076 9.74082 22.1864 8.32392 22.1119 6.88107C22.0375 5.43822 21.4154 4.07813 20.3725 3.0782C19.3297 2.07827 17.9447 1.51383 16.5 1.5Z" fill="#E4EBED"/>
<path d="M6.22249 17.9812H4.97249C4.74184 17.9811 4.51404 18.0322 4.30544 18.1306C4.09685 18.229 3.91262 18.3724 3.766 18.5504C3.61938 18.7285 3.514 18.9368 3.45741 19.1604C3.40083 19.384 3.39445 19.6173 3.43874 19.8437L5.13874 28.5124C5.20898 28.8678 5.4002 29.1878 5.67985 29.418C5.9595 29.6482 6.31029 29.7743 6.67249 29.7749H25.3287C25.691 29.7745 26.0419 29.6485 26.3216 29.4182C26.6013 29.188 26.7925 28.8679 26.8625 28.5124L28.5587 19.8449C28.603 19.6186 28.5966 19.3852 28.5401 19.1616C28.4835 18.938 28.3781 18.7297 28.2315 18.5517C28.0849 18.3736 27.9006 18.2303 27.692 18.1318C27.4834 18.0334 27.2556 17.9824 27.025 17.9824H25.775C25.1089 16.5942 24.1055 15.395 22.8564 14.4945C21.6074 13.5939 20.1526 13.0208 18.625 12.8274C19.9135 12.2295 20.9592 11.2097 21.5892 9.93663C22.2193 8.66355 22.3958 7.21354 22.0897 5.82649C21.7835 4.43943 21.013 3.19845 19.9057 2.30884C18.7983 1.41924 17.4204 0.934326 16 0.934326C14.5795 0.934326 13.2017 1.41924 12.0943 2.30884C10.9869 3.19845 10.2165 4.43943 9.91031 5.82649C9.60416 7.21354 9.7807 8.66355 10.4107 9.93663C11.0408 11.2097 12.0865 12.2295 13.375 12.8274C11.847 13.0202 10.3917 13.5929 9.14224 14.4932C7.89274 15.3936 6.88889 16.5928 6.22249 17.9812ZM27.0237 18.6062C27.1621 18.6062 27.2988 18.6368 27.4239 18.6959C27.549 18.755 27.6595 18.841 27.7475 18.9478C27.8354 19.0547 27.8986 19.1796 27.9325 19.3138C27.9665 19.4479 27.9703 19.5879 27.9437 19.7237L26.25 28.3924C26.208 28.6057 26.0934 28.7978 25.9256 28.9359C25.7578 29.074 25.5473 29.1497 25.33 29.1499H6.67124C6.45369 29.15 6.24289 29.0745 6.07486 28.9363C5.90682 28.7981 5.79199 28.6059 5.74999 28.3924L4.05624 19.7237C4.02967 19.5879 4.03349 19.4479 4.06743 19.3138C4.10136 19.1796 4.16457 19.0547 4.25252 18.9478C4.34046 18.841 4.45096 18.755 4.57609 18.6959C4.70122 18.6368 4.83787 18.6062 4.97624 18.6062H27.0237ZM10.3887 7.1737C10.3878 6.08836 10.7016 5.02603 11.2921 4.11542C11.8827 3.20482 12.7246 2.48502 13.716 2.04324C14.7074 1.60147 15.8056 1.45668 16.8775 1.62642C17.9495 1.79616 18.9493 2.27314 19.7557 2.99957C20.5621 3.726 21.1405 4.67071 21.4208 5.71921C21.7012 6.76772 21.6714 7.87503 21.3352 8.90697C20.9989 9.93891 20.3707 10.8512 19.5264 11.5333C18.6822 12.2154 17.6583 12.638 16.5787 12.7499H15.4212C14.0427 12.6039 12.7666 11.954 11.8379 10.9249C10.9091 9.89578 10.393 8.55994 10.3887 7.1737ZM14.5137 13.3799H17.4875C19.0522 13.382 20.5866 13.8118 21.9248 14.6228C23.263 15.4337 24.354 16.5951 25.08 17.9812H6.91999C7.64528 16.5941 8.73604 15.4318 10.0743 14.6199C11.4125 13.808 12.9472 13.3775 14.5125 13.3749L14.5137 13.3799Z" fill="#263238"/>
<path d="M28.5438 30.4375H3.4563C3.37342 30.4375 3.29393 30.4704 3.23533 30.529C3.17672 30.5876 3.1438 30.6671 3.1438 30.75C3.1438 30.8329 3.17672 30.9124 3.23533 30.971C3.29393 31.0296 3.37342 31.0625 3.4563 31.0625H28.5438C28.6267 31.0625 28.7062 31.0296 28.7648 30.971C28.8234 30.9124 28.8563 30.8329 28.8563 30.75C28.8563 30.6671 28.8234 30.5876 28.7648 30.529C28.7062 30.4704 28.6267 30.4375 28.5438 30.4375Z" fill="#263238"/>
<path d="M9.7688 1.5238V2.0238H9.2688C9.23565 2.0238 9.20385 2.03697 9.18041 2.06042C9.15697 2.08386 9.1438 2.11565 9.1438 2.1488C9.1438 2.18196 9.15697 2.21375 9.18041 2.23719C9.20385 2.26063 9.23565 2.2738 9.2688 2.2738H9.7688V2.7738C9.7688 2.80696 9.78197 2.83875 9.80541 2.86219C9.82885 2.88563 9.86065 2.8988 9.8938 2.8988C9.92695 2.8988 9.95875 2.88563 9.98219 2.86219C10.0056 2.83875 10.0188 2.80696 10.0188 2.7738V2.2738H10.5188C10.552 2.2738 10.5837 2.26063 10.6072 2.23719C10.6306 2.21375 10.6438 2.18196 10.6438 2.1488C10.6438 2.11565 10.6306 2.08386 10.6072 2.06042C10.5837 2.03697 10.552 2.0238 10.5188 2.0238H10.0188V1.5238C10.0188 1.49065 10.0056 1.45886 9.98219 1.43542C9.95875 1.41197 9.92695 1.3988 9.8938 1.3988C9.86065 1.3988 9.82885 1.41197 9.80541 1.43542C9.78197 1.45886 9.7688 1.49065 9.7688 1.5238Z" fill="#FFDD00"/>
<path d="M28.25 14.7987V15.2987H27.75C27.7168 15.2987 27.6851 15.3119 27.6616 15.3353C27.6382 15.3588 27.625 15.3906 27.625 15.4237C27.625 15.4569 27.6382 15.4887 27.6616 15.5121C27.6851 15.5355 27.7168 15.5487 27.75 15.5487H28.25V16.0487C28.25 16.0819 28.2632 16.1137 28.2866 16.1371C28.3101 16.1605 28.3418 16.1737 28.375 16.1737C28.4082 16.1737 28.4399 16.1605 28.4634 16.1371C28.4868 16.1137 28.5 16.0819 28.5 16.0487V15.5487H29C29.0332 15.5487 29.0649 15.5355 29.0884 15.5121C29.1118 15.4887 29.125 15.4569 29.125 15.4237C29.125 15.3906 29.1118 15.3588 29.0884 15.3353C29.0649 15.3119 29.0332 15.2987 29 15.2987H28.5V14.7987C28.5 14.7656 28.4868 14.7338 28.4634 14.7103C28.4399 14.6869 28.4082 14.6737 28.375 14.6737C28.3418 14.6737 28.3101 14.6869 28.2866 14.7103C28.2632 14.7338 28.25 14.7656 28.25 14.7987Z" fill="#FFDD00"/>
<path d="M5.375 12.6925V13.1925H4.875C4.84185 13.1925 4.81005 13.2057 4.78661 13.2291C4.76317 13.2526 4.75 13.2844 4.75 13.3175C4.75 13.3507 4.76317 13.3825 4.78661 13.4059C4.81005 13.4293 4.84185 13.4425 4.875 13.4425H5.375V13.9425C5.375 13.9757 5.38817 14.0075 5.41161 14.0309C5.43505 14.0543 5.46685 14.0675 5.5 14.0675C5.53315 14.0675 5.56495 14.0543 5.58839 14.0309C5.61183 14.0075 5.625 13.9757 5.625 13.9425V13.4425H6.125C6.15815 13.4425 6.18995 13.4293 6.21339 13.4059C6.23683 13.3825 6.25 13.3507 6.25 13.3175C6.25 13.2844 6.23683 13.2526 6.21339 13.2291C6.18995 13.2057 6.15815 13.1925 6.125 13.1925H5.625V12.6925C5.625 12.6594 5.61183 12.6276 5.58839 12.6041C5.56495 12.5807 5.53315 12.5675 5.5 12.5675C5.46685 12.5675 5.43505 12.5807 5.41161 12.6041C5.38817 12.6276 5.375 12.6594 5.375 12.6925Z" fill="#FFDD00"/>
<path d="M3.81738 6C3.81738 6.14834 3.7734 6.29334 3.69099 6.41668C3.60857 6.54001 3.49144 6.63614 3.3544 6.69291C3.21735 6.74968 3.06655 6.76453 2.92107 6.73559C2.77558 6.70665 2.64194 6.63522 2.53705 6.53033C2.43216 6.42544 2.36073 6.2918 2.33179 6.14632C2.30286 6.00083 2.31771 5.85003 2.37447 5.71299C2.43124 5.57594 2.52737 5.45881 2.65071 5.3764C2.77404 5.29399 2.91905 5.25 3.06738 5.25C3.2663 5.25 3.45706 5.32902 3.59771 5.46967C3.73837 5.61032 3.81738 5.80109 3.81738 6ZM2.56738 6C2.56738 6.09889 2.59671 6.19556 2.65165 6.27779C2.70659 6.36001 2.78468 6.4241 2.87604 6.46194C2.9674 6.49978 3.06794 6.50969 3.16493 6.49039C3.26192 6.4711 3.35101 6.42348 3.42094 6.35355C3.49086 6.28363 3.53848 6.19454 3.55778 6.09755C3.57707 6.00055 3.56717 5.90002 3.52932 5.80866C3.49148 5.7173 3.42739 5.63921 3.34517 5.58427C3.26294 5.52932 3.16627 5.5 3.06738 5.5C2.93477 5.5 2.8076 5.55268 2.71383 5.64645C2.62006 5.74021 2.56738 5.86739 2.56738 6Z" fill="#40BDFF"/>
<path d="M29.8674 24.6613C29.8674 24.8096 29.8234 24.9546 29.741 25.0779C29.6586 25.2013 29.5415 25.2974 29.4044 25.3542C29.2674 25.4109 29.1166 25.4258 28.9711 25.3968C28.8256 25.3679 28.692 25.2965 28.5871 25.1916C28.4822 25.0867 28.4108 24.9531 28.3818 24.8076C28.3529 24.6621 28.3678 24.5113 28.4245 24.3742C28.4813 24.2372 28.5774 24.1201 28.7008 24.0377C28.8241 23.9552 28.9691 23.9113 29.1174 23.9113C29.3163 23.9113 29.5071 23.9903 29.6478 24.1309C29.7884 24.2716 29.8674 24.4623 29.8674 24.6613ZM28.6174 24.6613C28.6174 24.7601 28.6468 24.8568 28.7017 24.939C28.7566 25.0213 28.8347 25.0854 28.9261 25.1232C29.0175 25.161 29.118 25.1709 29.215 25.1516C29.312 25.1324 29.4011 25.0847 29.471 25.0148C29.5409 24.9449 29.5885 24.8558 29.6078 24.7588C29.6271 24.6618 29.6172 24.5613 29.5794 24.4699C29.5415 24.3786 29.4774 24.3005 29.3952 24.2455C29.313 24.1906 29.2163 24.1613 29.1174 24.1613C28.9848 24.1613 28.8576 24.2139 28.7639 24.3077C28.6701 24.4015 28.6174 24.5286 28.6174 24.6613Z" fill="#40BDFF"/>
</svg>
