<svg width="32" height="32" viewBox="0 0 32 32" fill="none" xmlns="http://www.w3.org/2000/svg">
<path d="M18.5982 4.5C17.4435 2.5 14.5567 2.5 13.402 4.5L2.1437 24C0.989003 26 2.43238 28.5 4.74178 28.5H27.2584C29.5678 28.5 31.0112 26 29.8565 24L18.5982 4.5ZM14.1991 11.9901C14.0925 10.9246 14.9293 10 16.0001 10C17.0709 10 17.9076 10.9246 17.8011 11.9901L17.0996 19.005C17.0431 19.5698 16.5678 20 16.0001 20C15.4324 20 14.9571 19.5698 14.9006 19.005L14.1991 11.9901ZM17.5001 23.5C17.5001 24.3284 16.8285 25 16.0001 25C15.1717 25 14.5001 24.3284 14.5001 23.5C14.5001 22.6716 15.1717 22 16.0001 22C16.8285 22 17.5001 22.6716 17.5001 23.5Z" fill="black"/>
</svg>
