<svg width="32" height="32" viewBox="0 0 32 32" fill="none" xmlns="http://www.w3.org/2000/svg">
<path d="M16 30C23.732 30 30 23.732 30 16C30 8.26801 23.732 2 16 2C8.26801 2 2 8.26801 2 16C2 23.732 8.26801 30 16 30ZM14.199 10.9901C14.0924 9.92457 14.9291 9 16 9C17.0708 9 17.9075 9.92457 17.801 10.9901L17.0995 18.005C17.043 18.5698 16.5677 19 16 19C15.4323 19 14.957 18.5698 14.9005 18.005L14.199 10.9901ZM17.5 22.5C17.5 23.3284 16.8284 24 16 24C15.1715 24 14.5 23.3284 14.5 22.5C14.5 21.6716 15.1715 21 16 21C16.8284 21 17.5 21.6716 17.5 22.5Z" fill="black"/>
</svg>
