<svg width="32" height="32" viewBox="0 0 32 32" fill="none" xmlns="http://www.w3.org/2000/svg">
<path d="M16.8661 5.5C16.4812 4.83334 15.519 4.83333 15.1341 5.5L3.87575 25C3.49086 25.6667 3.97198 26.5 4.74178 26.5H27.2584C28.0282 26.5 28.5094 25.6667 28.1245 25L16.8661 5.5ZM13.402 4.5C14.5567 2.5 17.4435 2.5 18.5982 4.5L29.8565 24C31.0112 26 29.5678 28.5 27.2584 28.5H4.74178C2.43238 28.5 0.989003 26 2.1437 24L13.402 4.5ZM14.1991 11.9901L14.9006 19.005C14.9571 19.5698 15.4324 20 16.0001 20C16.5678 20 17.0431 19.5698 17.0996 19.005L17.8011 11.9901C17.9076 10.9246 17.0709 10 16.0001 10C14.9293 10 14.0925 10.9246 14.1991 11.9901ZM17.5001 23.5C17.5001 24.3284 16.8285 25 16.0001 25C15.1717 25 14.5001 24.3284 14.5001 23.5C14.5001 22.6716 15.1717 22 16.0001 22C16.8285 22 17.5001 22.6716 17.5001 23.5Z" fill="black"/>
</svg>
