<svg width="32" height="32" viewBox="0 0 32 32" fill="none" xmlns="http://www.w3.org/2000/svg">
<path d="M5.70711 4.29289C5.31658 3.90237 4.68342 3.90237 4.29289 4.29289C3.90237 4.68342 3.90237 5.31658 4.29289 5.70711L26.2929 27.7071C26.6834 28.0976 27.3166 28.0976 27.7071 27.7071C28.0976 27.3166 28.0976 26.6834 27.7071 26.2929L5.70711 4.29289ZM30 16C30 17.6312 28.4418 19.8957 26.1001 21.8574L24.6797 20.437C25.7093 19.5925 26.5475 18.7052 27.131 17.8872C27.824 16.9158 28 16.2664 28 16C28 15.7336 27.824 15.0842 27.131 14.1128C26.4772 13.1963 25.5038 12.1929 24.2996 11.26C21.8548 9.36584 18.7759 8 16 8C14.9532 8 13.8632 8.19425 12.7805 8.53782L11.2137 6.97109C12.7696 6.36591 14.3999 6 16 6C22.732 6 30 12.4772 30 16ZM21 16C21 16.2402 20.9831 16.4765 20.9503 16.7077L15.2923 11.0497C15.5235 11.0169 15.7598 11 16 11C18.7614 11 21 13.2386 21 16ZM16.7077 20.9503L11.0497 15.2923C11.0169 15.5235 11 15.7598 11 16C11 18.7614 13.2386 21 16 21C16.2402 21 16.4765 20.9831 16.7077 20.9503ZM4.869 14.1128C5.45252 13.2948 6.29072 12.4075 7.32031 11.5629L5.89995 10.1426C3.55822 12.1043 2 14.3688 2 16C2 19.5228 9.26801 26 16 26C17.6001 26 19.2304 25.6341 20.7863 25.0289L19.2195 23.4622C18.1368 23.8058 17.0468 24 16 24C13.2241 24 10.1452 22.6342 7.70039 20.74C6.49625 19.8071 5.52277 18.8037 4.869 17.8872C4.17603 16.9158 4 16.2664 4 16C4 15.7336 4.17603 15.0842 4.869 14.1128Z" fill="black"/>
</svg>
