<svg width="32" height="32" viewBox="0 0 32 32" fill="none" xmlns="http://www.w3.org/2000/svg">
<path d="M28 16C28 15.7336 27.824 15.0842 27.131 14.1128C26.4772 13.1963 25.5038 12.1929 24.2996 11.26C21.8548 9.36584 18.7759 8 16 8C13.2241 8 10.1452 9.36584 7.70039 11.26C6.49625 12.1929 5.52277 13.1963 4.869 14.1128C4.17603 15.0842 4 15.7336 4 16C4 16.2664 4.17603 16.9158 4.869 17.8872C5.52277 18.8037 6.49625 19.8071 7.70039 20.74C10.1452 22.6342 13.2241 24 16 24C18.7759 24 21.8548 22.6342 24.2996 20.74C25.5038 19.8071 26.4772 18.8037 27.131 17.8872C27.824 16.9158 28 16.2664 28 16ZM30 16C30 19.5228 22.732 26 16 26C9.26801 26 2 19.5228 2 16C2 12.4772 9.26801 6 16 6C22.732 6 30 12.4772 30 16ZM21 16C21 18.7614 18.7614 21 16 21C13.2386 21 11 18.7614 11 16C11 13.2386 13.2386 11 16 11C18.7614 11 21 13.2386 21 16ZM16 14C16 12.8954 15.1046 12 14 12C12.8954 12 12 12.8954 12 14C12 15.1046 12.8954 16 14 16C15.1046 16 16 15.1046 16 14Z" fill="black"/>
</svg>
