<svg width="32" height="32" viewBox="0 0 32 32" fill="none" xmlns="http://www.w3.org/2000/svg">
<path d="M28 16C28 9.37258 22.6274 4 16 4C9.37258 4 4 9.37258 4 16C4 22.6274 9.37258 28 16 28C22.6274 28 28 22.6274 28 16ZM30 16C30 23.732 23.732 30 16 30C8.26801 30 2 23.732 2 16C2 8.26801 8.26801 2 16 2C23.732 2 30 8.26801 30 16ZM10.4746 18.9807C10.4502 18.9463 10.4472 18.9237 10.4468 18.9115C10.4463 18.8961 10.4501 18.8744 10.4645 18.8492C10.4935 18.7986 10.5558 18.75 10.6545 18.75H21.3457C21.4444 18.75 21.5067 18.7986 21.5357 18.8492C21.5501 18.8744 21.5539 18.8961 21.5534 18.9115C21.553 18.9237 21.55 18.9463 21.5256 18.9807C19.9462 21.2129 17.9344 22.25 16.0001 22.25C14.0658 22.25 12.054 21.2129 10.4746 18.9807ZM10.6545 17.25C9.3867 17.25 8.41186 18.6624 9.25013 19.8472C11.0539 22.3964 13.4883 23.75 16.0001 23.75C18.5119 23.75 20.9463 22.3964 22.7501 19.8472C23.5883 18.6624 22.6135 17.25 21.3457 17.25H10.6545ZM8.29771 10.7366C8.44315 10.3488 8.87546 10.1523 9.2633 10.2977L13.2633 11.7977C13.556 11.9075 13.75 12.1874 13.75 12.5C13.75 12.8126 13.556 13.0925 13.2633 13.2022L9.2633 14.7022C8.87546 14.8477 8.44315 14.6512 8.29771 14.2633C8.15227 13.8755 8.34878 13.4432 8.73662 13.2977L10.864 12.5L8.73662 11.7022C8.34878 11.5568 8.15227 11.1245 8.29771 10.7366ZM22.7367 14.7023C23.1245 14.8477 23.5568 14.6512 23.7023 14.2634C23.8477 13.8755 23.6512 13.4432 23.2634 13.2978L21.136 12.5L23.2634 11.7023C23.6512 11.5568 23.8477 11.1245 23.7023 10.7367C23.5568 10.3488 23.1245 10.1523 22.7367 10.2978L18.7367 11.7978C18.444 11.9075 18.25 12.1874 18.25 12.5C18.25 12.8126 18.444 13.0925 18.7367 13.2023L22.7367 14.7023Z" fill="black"/>
</svg>
