<svg width="32" height="32" viewBox="0 0 32 32" fill="none" xmlns="http://www.w3.org/2000/svg">
<path d="M28 16C28 16.1703 27.9965 16.3398 27.9894 16.5084C28.6764 16.7502 29.3251 17.073 29.9242 17.4654C29.9743 16.9838 30 16.4949 30 16C30 8.26801 23.732 2 16 2C8.26801 2 2 8.26801 2 16C2 23.732 8.26801 30 16 30C16.4949 30 16.9838 29.9743 17.4654 29.9242C17.073 29.3251 16.7502 28.6764 16.5084 27.9894C16.3398 27.9965 16.1703 28 16 28C9.37258 28 4 22.6274 4 16C4 9.37258 9.37258 4 16 4C22.6274 4 28 9.37258 28 16ZM16.2853 22.743C16.4269 22.1947 16.619 21.6665 16.8561 21.1639C15.3205 21.4764 13.6414 20.9385 12.6 19.55C12.3515 19.2187 11.8814 19.1515 11.55 19.4C11.2187 19.6486 11.1515 20.1187 11.4 20.45C12.6135 22.0679 14.4671 22.8323 16.2853 22.743ZM11.5 14C12.3284 14 13 13.3284 13 12.5C13 11.6716 12.3284 11 11.5 11C10.6716 11 10 11.6716 10 12.5C10 13.3284 10.6716 14 11.5 14ZM22 12.5C22 13.3284 21.3284 14 20.5 14C19.6716 14 19 13.3284 19 12.5C19 11.6716 19.6716 11 20.5 11C21.3284 11 22 11.6716 22 12.5ZM25 32C28.866 32 32 28.866 32 25C32 21.134 28.866 18 25 18C21.134 18 18 21.134 18 25C18 28.866 21.134 32 25 32ZM25 21C25.5523 21 26 21.4477 26 22V24H28C28.5523 24 29 24.4477 29 25C29 25.5523 28.5523 26 28 26H26V28C26 28.5523 25.5523 29 25 29C24.4477 29 24 28.5523 24 28V26H22C21.4477 26 21 25.5523 21 25C21 24.4477 21.4477 24 22 24H24V22C24 21.4477 24.4477 21 25 21Z" fill="black"/>
</svg>
