<svg width="32" height="32" viewBox="0 0 32 32" fill="none" xmlns="http://www.w3.org/2000/svg">
<path d="M16 28C9.37258 28 4 22.6274 4 16C4 9.37258 9.37258 4 16 4C22.6274 4 28 9.37258 28 16C28 22.6274 22.6274 28 16 28ZM16 30C23.732 30 30 23.732 30 16C30 8.26801 23.732 2 16 2C8.26801 2 2 8.26801 2 16C2 23.732 8.26801 30 16 30ZM7.95776 11.3012C8.19014 11.6441 8.65648 11.7337 8.99937 11.5013C9.37459 11.247 10.1377 10.9322 11.0248 10.688C11.9064 10.4453 12.7864 10.3066 13.3713 10.3354C13.785 10.3559 14.1369 10.037 14.1573 9.62331C14.1777 9.2096 13.8589 8.85768 13.4452 8.83726C12.6284 8.79697 11.5708 8.98191 10.6266 9.24183C9.68786 9.50027 8.73697 9.86712 8.15785 10.2596C7.81496 10.492 7.72538 10.9583 7.95776 11.3012ZM23.0006 11.5013C23.3435 11.7337 23.8099 11.6441 24.0422 11.3012C24.2746 10.9583 24.185 10.492 23.8421 10.2596C23.263 9.86712 22.3121 9.50027 21.3734 9.24183C20.4292 8.98191 19.3716 8.79696 18.5548 8.83726C18.1411 8.85768 17.8223 9.2096 17.8427 9.62331C17.8631 10.037 18.215 10.3559 18.6287 10.3354C19.2136 10.3066 20.0936 10.4453 20.9752 10.688C21.8623 10.9322 22.6254 11.247 23.0006 11.5013ZM13.376 23.416C13.6057 23.7607 14.0714 23.8538 14.416 23.624C14.7486 23.4024 15.334 23.25 16 23.25C16.666 23.25 17.2514 23.4024 17.584 23.624C17.9286 23.8538 18.3943 23.7607 18.624 23.416C18.8538 23.0714 18.7607 22.6057 18.416 22.376C17.7486 21.931 16.834 21.75 16 21.75C15.166 21.75 14.2514 21.931 13.584 22.376C13.2393 22.6057 13.1462 23.0714 13.376 23.416ZM11.5 17C12.3284 17 13 16.3284 13 15.5C13 14.6716 12.3284 14 11.5 14C10.6716 14 10 14.6716 10 15.5C10 16.3284 10.6716 17 11.5 17ZM22 15.5C22 16.3284 21.3284 17 20.5 17C19.6716 17 19 16.3284 19 15.5C19 14.6716 19.6716 14 20.5 14C21.3284 14 22 14.6716 22 15.5ZM21.607 17.4279C21.5791 17.3166 21.4209 17.3166 21.393 17.4279L20.3638 21.5448C20.179 22.284 20.7381 23 21.5 23C22.2619 23 22.821 22.284 22.6362 21.5448L21.607 17.4279Z" fill="black"/>
</svg>
