<svg width="32" height="32" viewBox="0 0 32 32" fill="none" xmlns="http://www.w3.org/2000/svg">
<path d="M28 16C28 9.37258 22.6274 4 16 4C9.37258 4 4 9.37258 4 16C4 22.6274 9.37258 28 16 28C22.6274 28 28 22.6274 28 16ZM30 16C30 23.732 23.732 30 16 30C8.26801 30 2 23.732 2 16C2 8.26801 8.26801 2 16 2C23.732 2 30 8.26801 30 16ZM11.5 14C12.3284 14 13 13.3284 13 12.5C13 11.6716 12.3284 11 11.5 11C10.6716 11 10 11.6716 10 12.5C10 13.3284 10.6716 14 11.5 14ZM22 12.5C22 13.3284 21.3284 14 20.5 14C19.6716 14 19 13.3284 19 12.5C19 11.6716 19.6716 11 20.5 11C21.3284 11 22 11.6716 22 12.5ZM12.6 19.55C12.3515 19.2186 11.8814 19.1515 11.55 19.4C11.2187 19.6485 11.1515 20.1186 11.4 20.45C13.7 23.5167 18.3 23.5167 20.6 20.45C20.8486 20.1186 20.7814 19.6485 20.45 19.4C20.1187 19.1515 19.6486 19.2186 19.4 19.55C17.7 21.8167 14.3 21.8167 12.6 19.55Z" fill="black"/>
</svg>
