<svg width="32" height="32" viewBox="0 0 32 32" fill="none" xmlns="http://www.w3.org/2000/svg">
<path d="M28 16C28 9.37258 22.6274 4 16 4C9.37258 4 4 9.37258 4 16C4 22.6274 9.37258 28 16 28C22.6274 28 28 22.6274 28 16ZM30 16C30 23.732 23.732 30 16 30C8.26801 30 2 23.732 2 16C2 8.26801 8.26801 2 16 2C23.732 2 30 8.26801 30 16ZM11.5 14C12.3284 14 13 13.3284 13 12.5C13 11.6716 12.3284 11 11.5 11C10.6716 11 10 11.6716 10 12.5C10 13.3284 10.6716 14 11.5 14ZM22 12.5C22 13.3284 21.3284 14 20.5 14C19.6716 14 19 13.3284 19 12.5C19 11.6716 19.6716 11 20.5 11C21.3284 11 22 11.6716 22 12.5ZM10.4746 18.9807C10.4502 18.9463 10.4472 18.9237 10.4468 18.9115C10.4463 18.8961 10.4501 18.8744 10.4645 18.8492C10.4935 18.7986 10.5558 18.75 10.6545 18.75H21.3457C21.4444 18.75 21.5067 18.7986 21.5357 18.8492C21.5501 18.8744 21.5539 18.8961 21.5534 18.9115C21.553 18.9237 21.55 18.9463 21.5256 18.9807C19.9462 21.2129 17.9344 22.25 16.0001 22.25C14.0658 22.25 12.054 21.2129 10.4746 18.9807ZM10.6545 17.25C9.3867 17.25 8.41186 18.6624 9.25013 19.8472C11.0539 22.3964 13.4883 23.75 16.0001 23.75C18.5119 23.75 20.9463 22.3964 22.7501 19.8472C23.5883 18.6624 22.6135 17.25 21.3457 17.25H10.6545Z" fill="black"/>
</svg>
