<svg width="32" height="32" viewBox="0 0 32 32" fill="none" xmlns="http://www.w3.org/2000/svg">
<path d="M28 16C28 9.37258 22.6274 4 16 4C9.37258 4 4 9.37258 4 16C4 22.6274 9.37258 28 16 28C22.6274 28 28 22.6274 28 16ZM30 16C30 23.732 23.732 30 16 30C8.26801 30 2 23.732 2 16C2 8.26801 8.26801 2 16 2C23.732 2 30 8.26801 30 16ZM11.5 14C12.3284 14 13 13.3284 13 12.5C13 11.6716 12.3284 11 11.5 11C10.6716 11 10 11.6716 10 12.5C10 13.3284 10.6716 14 11.5 14ZM22 12.5C22 13.3284 21.3284 14 20.5 14C19.6716 14 19 13.3284 19 12.5C19 11.6716 19.6716 11 20.5 11C21.3284 11 22 11.6716 22 12.5ZM12.416 21.124C12.0714 21.3538 11.6057 21.2607 11.376 20.916C11.1462 20.5714 11.2393 20.1057 11.584 19.876C12.7514 19.0976 14.416 18.75 16 18.75C17.584 18.75 19.2486 19.0976 20.416 19.876C20.7607 20.1057 20.8538 20.5714 20.624 20.916C20.3943 21.2607 19.9286 21.3538 19.584 21.124C18.7514 20.569 17.416 20.25 16 20.25C14.584 20.25 13.2486 20.569 12.416 21.124Z" fill="black"/>
</svg>
