<svg width="32" height="32" viewBox="0 0 32 32" fill="none" xmlns="http://www.w3.org/2000/svg">
<path d="M28 16C28 9.37258 22.6274 4 16 4C9.37258 4 4 9.37258 4 16C4 22.6274 9.37258 28 16 28C22.6274 28 28 22.6274 28 16ZM30 16C30 23.732 23.732 30 16 30C8.26801 30 2 23.732 2 16C2 8.26801 8.26801 2 16 2C23.732 2 30 8.26801 30 16ZM11.5 14C12.3284 14 13 13.3284 13 12.5C13 11.6716 12.3284 11 11.5 11C10.6716 11 10 11.6716 10 12.5C10 13.3284 10.6716 14 11.5 14ZM22 12.5C22 13.3284 21.3284 14 20.5 14C19.6716 14 19 13.3284 19 12.5C19 11.6716 19.6716 11 20.5 11C21.3284 11 22 11.6716 22 12.5ZM12 19.75C11.5858 19.75 11.25 20.0858 11.25 20.5C11.25 20.9142 11.5858 21.25 12 21.25H20C20.4142 21.25 20.75 20.9142 20.75 20.5C20.75 20.0858 20.4142 19.75 20 19.75H12Z" fill="black"/>
</svg>
