<svg width="32" height="32" viewBox="0 0 32 32" fill="none" xmlns="http://www.w3.org/2000/svg">
<path d="M28 16C28 9.37258 22.6274 4 16 4C9.37258 4 4 9.37258 4 16C4 22.6274 9.37258 28 16 28C22.6274 28 28 22.6274 28 16ZM30 16C30 23.732 23.732 30 16 30C8.26801 30 2 23.732 2 16C2 8.26801 8.26801 2 16 2C23.732 2 30 8.26801 30 16ZM22.4 14.55C22.6485 14.2186 23.1186 14.1515 23.45 14.4C23.7813 14.6485 23.8485 15.1186 23.6 15.45C22.3 17.1833 19.7 17.1833 18.4 15.45C18.1514 15.1186 18.2186 14.6485 18.55 14.4C18.8813 14.1515 19.3514 14.2186 19.6 14.55C20.3 15.4833 21.7 15.4833 22.4 14.55ZM24.2482 10.5338C24.2184 10.1206 23.8593 9.80987 23.4462 9.83967C22.9941 9.87228 22.1758 9.76333 21.2855 9.53129C20.4006 9.30066 19.5691 8.98079 19.0771 8.66338C18.729 8.43885 18.2648 8.539 18.0403 8.88708C17.8157 9.23516 17.9159 9.69935 18.264 9.92388C18.9512 10.3672 19.9596 10.7358 20.9072 10.9828C21.8494 11.2284 22.8563 11.3861 23.5541 11.3358C23.9672 11.306 24.278 10.9469 24.2482 10.5338ZM8.55382 9.83967C8.14068 9.80987 7.78161 10.1206 7.75181 10.5338C7.72201 10.9469 8.03276 11.306 8.4459 11.3358C9.14366 11.3861 10.1506 11.2284 11.0928 10.9828C12.0404 10.7358 13.0488 10.3672 13.736 9.92388C14.0841 9.69935 14.1843 9.23516 13.9597 8.88708C13.7352 8.539 13.271 8.43885 12.9229 8.66338C12.4309 8.98079 11.5994 9.30066 10.7145 9.53129C9.82418 9.76333 9.00592 9.87228 8.55382 9.83967ZM13.45 14.4C13.1186 14.1515 12.6485 14.2186 12.4 14.55C11.7 15.4833 10.3 15.4833 9.59996 14.55C9.35143 14.2186 8.88133 14.1515 8.54996 14.4C8.21858 14.6485 8.15143 15.1186 8.39996 15.45C9.69996 17.1833 12.3 17.1833 13.6 15.45C13.8485 15.1186 13.7813 14.6485 13.45 14.4ZM14.4161 23.624C14.0715 23.8538 13.6058 23.7607 13.376 23.416C13.1463 23.0714 13.2394 22.6057 13.5841 22.376C14.2515 21.931 15.1661 21.75 16.0001 21.75C16.8341 21.75 17.7486 21.931 18.4161 22.376C18.7608 22.6057 18.8539 23.0714 18.6241 23.416C18.3944 23.7607 17.9287 23.8538 17.5841 23.624C17.2515 23.4024 16.6661 23.25 16.0001 23.25C15.3341 23.25 14.7486 23.4024 14.4161 23.624Z" fill="black"/>
</svg>
