<svg width="32" height="32" viewBox="0 0 32 32" fill="none" xmlns="http://www.w3.org/2000/svg">
<path d="M28 16C28 9.37258 22.6274 4 16 4C9.37258 4 4 9.37258 4 16C4 22.6274 9.37258 28 16 28C22.6274 28 28 22.6274 28 16ZM30 16C30 23.732 23.732 30 16 30C8.26801 30 2 23.732 2 16C2 8.26801 8.26801 2 16 2C23.732 2 30 8.26801 30 16ZM11.5 14C12.3284 14 13 13.3284 13 12.5C13 11.6716 12.3284 11 11.5 11C10.6716 11 10 11.6716 10 12.5C10 13.3284 10.6716 14 11.5 14ZM22 12.5C22 13.3284 21.3284 14 20.5 14C19.6716 14 19 13.3284 19 12.5C19 11.6716 19.6716 11 20.5 11C21.3284 11 22 11.6716 22 12.5ZM12.6 21.45C12.3515 21.7814 11.8814 21.8485 11.55 21.6C11.2187 21.3515 11.1515 20.8814 11.4 20.55C13.7 17.4833 18.3 17.4833 20.6 20.55C20.8486 20.8814 20.7814 21.3515 20.45 21.6C20.1187 21.8485 19.6486 21.7814 19.4 21.45C17.7 19.1833 14.3 19.1833 12.6 21.45Z" fill="black"/>
</svg>
