<svg width="32" height="32" viewBox="0 0 32 32" fill="none" xmlns="http://www.w3.org/2000/svg">
<path d="M28 16C28 9.37258 22.6274 4 16 4C9.37258 4 4 9.37258 4 16C4 22.6274 9.37258 28 16 28C22.6274 28 28 22.6274 28 16ZM30 16C30 23.732 23.732 30 16 30C8.26801 30 2 23.732 2 16C2 8.26801 8.26801 2 16 2C23.732 2 30 8.26801 30 16ZM11.5 14C12.3284 14 13 13.3284 13 12.5C13 12.2802 12.9527 12.0715 12.8678 11.8834C13.1806 12.0374 13.5688 11.9561 13.7909 11.67C14.0449 11.3428 13.9856 10.8717 13.6584 10.6177C13.0124 10.1162 12.04 9.66103 11.1175 9.33241C10.2003 9.00565 9.21093 8.76075 8.51144 8.75007C8.09728 8.74376 7.7564 9.07438 7.75009 9.48855C7.74377 9.90271 8.07439 10.2436 8.48856 10.2499C8.94178 10.2568 9.74742 10.4367 10.6141 10.7454C10.8493 10.8292 11.0799 10.9192 11.3003 11.0132C10.5663 11.1108 10 11.7393 10 12.5C10 13.3284 10.6716 14 11.5 14ZM22 12.5C22 13.3284 21.3284 14 20.5 14C19.6716 14 19 13.3284 19 12.5C19 12.2802 19.0473 12.0715 19.1322 11.8834C18.8194 12.0374 18.4312 11.9561 18.2091 11.67C17.9551 11.3428 18.0144 10.8717 18.3416 10.6177C18.9876 10.1162 19.96 9.66103 20.8825 9.33241C21.7997 9.00565 22.7891 8.76075 23.4886 8.75007C23.9027 8.74376 24.2436 9.07438 24.2499 9.48855C24.2562 9.90271 23.9256 10.2436 23.5114 10.2499C23.0582 10.2568 22.2526 10.4367 21.3859 10.7454C21.1507 10.8292 20.9201 10.9192 20.6997 11.0132C21.4337 11.1108 22 11.7393 22 12.5ZM12.6 21.45C12.3515 21.7813 11.8814 21.8485 11.55 21.6C11.2186 21.3514 11.1515 20.8813 11.4 20.55C13.7 17.4833 18.3 17.4833 20.6 20.55C20.8485 20.8813 20.7814 21.3514 20.45 21.6C20.1186 21.8485 19.6485 21.7813 19.4 21.45C17.7 19.1833 14.3 19.1833 12.6 21.45Z" fill="black"/>
</svg>
