<svg width="32" height="31" viewBox="0 0 32 31" fill="none" xmlns="http://www.w3.org/2000/svg">
<g clip-path="url(#clip0_230_310)">
<path d="M14.3442 12.4574C15.3307 11.7144 16.1703 11.0725 17.0201 10.4442C18.2737 9.51746 19.5342 8.60023 20.7928 7.68008C20.9003 7.59749 21.0138 7.52288 21.1322 7.45685C21.8198 7.09519 22.3457 7.41551 22.3655 8.18614C22.3979 9.44934 22.4464 10.7121 22.4912 12.0738C22.7185 11.9463 22.8716 11.8756 23.0091 11.781C25.2261 10.2622 27.4426 8.74282 29.6586 7.22278C29.9319 7.02309 30.2296 6.85885 30.5444 6.73401C31.2293 6.49004 31.639 6.76681 31.7239 7.49201C31.7451 7.71691 31.7531 7.94288 31.7481 8.16874C31.7411 14.3165 31.734 20.4641 31.727 26.6121C31.727 27.5367 31.7505 28.4621 31.7779 29.3869C31.7944 29.9476 31.5553 30.2259 30.9712 30.2209C30.4069 30.2161 29.8428 30.1507 29.2787 30.1515C25.4365 30.1569 21.594 30.1583 17.752 30.1903C15.3114 30.2106 12.8708 30.2648 10.4311 30.3342C8.33078 30.3938 6.2317 30.5091 4.1313 30.5733C3.31902 30.6019 2.50582 30.5854 1.69537 30.524C0.840072 30.455 0.38924 29.9468 0.379862 29.1027C0.3438 25.8715 0.298745 22.6403 0.300592 19.409C0.302311 15.7705 0.343959 12.132 0.384247 8.49367C0.393229 7.68209 0.459497 6.87046 0.518148 6.06032C0.551037 5.60632 0.782363 5.31745 1.28749 5.24746C2.65068 5.05856 4.01783 4.88145 5.38922 4.77577C6.1996 4.7133 6.45097 4.94883 6.55836 5.74972C6.70856 6.86841 6.80448 7.99527 6.9099 9.11897C7.01307 10.2201 7.09878 11.3227 7.2013 12.5308C7.40894 12.3902 7.56967 12.2956 7.71445 12.1811C9.00777 11.1579 10.2909 10.1214 11.5942 9.11106C12.0042 8.79211 12.4428 8.51156 12.9043 8.27303C13.5724 7.92958 14.0498 8.18258 14.1856 8.92639C14.2267 9.23981 14.2458 9.55566 14.2429 9.87174C14.2767 10.6821 14.3069 11.4932 14.3442 12.4574ZM30.2483 28.8C29.8774 22.0031 30.1763 15.2618 30.4808 8.46444C30.3651 8.50967 30.253 8.56292 30.1447 8.62376C27.548 10.3859 24.9536 12.151 22.361 13.9191C21.778 14.3187 21.1748 14.1227 21.0301 13.4256C20.9981 13.2025 20.9937 12.9762 21.0168 12.7519C21.0388 12.278 21.0885 11.805 21.0989 11.331C21.1136 10.6679 21.1026 10.0043 21.1026 9.20431C20.2211 9.85803 19.4401 10.4237 18.6738 11.0086C17.363 12.0092 16.0612 13.0218 14.756 14.0298C14.3582 14.3368 13.9494 14.3688 13.4896 14.1478C13.0179 13.9211 12.8279 13.552 12.8413 13.0595C12.8601 12.3594 12.901 11.6606 12.9221 10.9609C12.9339 10.5752 12.9242 10.1888 12.9242 9.72977C12.7465 9.84865 12.6468 9.90058 12.5638 9.97217C11.4173 10.96 10.2655 11.942 9.1309 12.9435C8.50451 13.4966 7.90931 14.0846 7.29811 14.6549C6.97779 14.9538 6.60711 15.0908 6.17887 14.9346C5.76819 14.7842 5.62199 14.4252 5.55608 14.0335C5.5309 13.8317 5.52364 13.628 5.53441 13.4248C5.56162 11.2106 5.59009 8.99629 5.61986 6.78187C5.6229 6.5441 5.61986 6.30629 5.61986 6.00473L1.48246 6.83045C1.48246 7.46449 1.48062 8.04772 1.48246 8.63117C1.49343 11.5912 1.51193 14.5513 1.51523 17.5114C1.51945 21.1029 1.31705 24.6962 1.60198 28.2854C1.6284 28.6151 1.69219 28.9415 1.74569 29.3181C6.52403 29.1438 11.2374 28.9043 15.9536 28.8187C20.6974 28.7328 25.4435 28.8 30.2483 28.8Z" fill="black"/>
<path d="M6.73009 0.429506C7.30535 0.601228 7.89022 0.746524 8.45348 0.952589C9.08752 1.18375 9.6979 1.47928 10.3263 1.72761C11.0365 2.00831 11.6723 1.88503 12.2917 1.41781C12.8035 1.04954 13.3429 0.721296 13.9051 0.43589C14.6434 0.0404038 15.4011 0.0826414 16.1982 0.327145C17.0777 0.596748 17.9892 0.763051 18.888 0.968455C19.1666 1.03239 19.5066 1.00807 19.531 1.41756C19.5293 1.59075 19.46 1.75642 19.3377 1.87904C19.2153 2.00168 19.0498 2.07158 18.8766 2.07371C18.294 2.10784 17.7095 2.09363 17.1292 2.03127C16.8127 2.00407 16.507 1.90332 16.2362 1.73708C15.4463 1.21875 14.7448 1.42349 14.0494 1.90761C13.7534 2.1138 13.4406 2.29904 13.1614 2.52559C12.2787 3.24193 11.2724 3.38804 10.2246 3.0804C9.43135 2.8273 8.65534 2.52328 7.90131 2.17025C6.88419 1.72206 5.61202 1.87964 4.82963 2.66058C4.56214 2.96077 4.34676 3.30364 4.19251 3.67494C4.05725 3.95921 3.92836 4.20908 3.58268 4.21648C3.2852 4.22296 2.96049 3.9116 2.98386 3.51202C2.9964 3.08992 3.10962 2.67698 3.3141 2.30751C4.08208 1.06729 5.28063 0.578638 6.73009 0.429506Z" fill="black"/>
<path d="M7.00857 17.6401C7.84286 17.6401 8.67752 17.6257 9.51155 17.6438C10.4815 17.6648 10.4603 17.6822 10.7982 18.6185C10.9978 19.1717 10.9811 19.818 10.9823 20.4228C10.9834 20.9139 10.6991 21.1318 10.122 21.1805C9.17831 21.2598 8.23302 21.3242 7.28791 21.3846C6.38809 21.4418 5.4879 21.515 4.58701 21.5271C3.67002 21.539 3.37707 21.2272 3.31524 20.3306C3.28592 19.9038 3.21059 19.4792 3.19542 19.0523C3.17137 18.3709 3.4177 17.7325 4.37102 17.7735C5.24825 17.8113 6.12786 17.7815 7.00734 17.7815L7.00857 17.6401ZM4.50699 20.4023L9.56901 20.0098C9.5994 19.5385 9.62321 19.1694 9.64474 18.835H4.05336C4.21122 19.3788 4.34635 19.8455 4.5075 20.4023H4.50699Z" fill="black"/>
<path d="M24.6454 20.7513C23.7462 20.6954 22.8452 20.6605 21.9486 20.5754C21.3931 20.5227 21.1866 20.315 21.1371 19.7609C21.0961 19.222 21.091 18.6809 21.1222 18.1414C21.147 17.5951 21.3514 17.371 21.8806 17.2841C22.3247 17.2098 22.7725 17.1607 23.2223 17.137C24.5498 17.071 25.8773 17.0057 27.2066 16.9767C28.1314 16.9563 28.3204 17.1616 28.3629 18.065C28.379 18.4029 28.4041 18.7405 28.4118 19.0786C28.4371 20.2103 27.9982 20.5243 26.8116 20.7165C26.4608 20.7732 26.0915 20.7149 25.7308 20.7125C25.37 20.7101 25.0089 20.7125 24.6476 20.7125L24.6454 20.7513ZM27.0807 18.1102C25.4364 17.8937 23.7712 17.8844 22.1245 18.0824C22.075 18.6163 22.0319 19.0753 21.9828 19.6104L27.0807 19.4386V18.1102Z" fill="black"/>
<path d="M16.2009 20.8124C15.3012 20.7645 14.3967 20.7585 13.503 20.6579C12.4835 20.543 12.2891 20.2533 12.3684 19.2255C12.4703 17.9017 12.4741 17.8854 13.7735 17.7747C15.2994 17.6447 16.8271 17.5339 18.3548 17.4226C19.0086 17.3748 19.2786 17.5679 19.3831 18.2141C19.4661 18.7246 19.5108 19.2406 19.5173 19.7577C19.5249 20.4276 19.2817 20.6699 18.5702 20.6955C17.7823 20.7241 16.9923 20.7019 16.2034 20.7019C16.2024 20.739 16.2016 20.7756 16.2009 20.8124ZM18.2891 19.4505C18.2606 19.0999 18.2376 18.8188 18.2114 18.4981C16.5652 18.5587 14.9811 18.5874 13.4113 18.8595V19.6987C15.0415 19.7758 16.6755 19.6926 18.2895 19.4505H18.2891Z" fill="black"/>
</g>
<defs>
<clipPath id="clip0_230_310">
<rect width="32" height="30.7925" fill="white"/>
</clipPath>
</defs>
</svg>
