<svg width="112" height="106" viewBox="0 0 112 106" fill="none" xmlns="http://www.w3.org/2000/svg">
<path d="M25 15.625C25 13.8991 26.3991 12.5 28.125 12.5H50V28.125C50 33.3027 54.1973 37.5 59.375 37.5H75V84.375C75 86.1009 73.6009 87.5 71.875 87.5H28.125C26.3991 87.5 25 86.1009 25 84.375V15.625ZM70.5806 31.25H59.375C57.6491 31.25 56.25 29.8509 56.25 28.125V16.9194L70.5806 31.25ZM28.125 6.25C22.9473 6.25 18.75 10.4473 18.75 15.625V84.375C18.75 89.5527 22.9473 93.75 28.125 93.75H71.875C77.0527 93.75 81.25 89.5527 81.25 84.375V34.375C81.25 33.5462 80.9208 32.7513 80.3347 32.1653L55.3347 7.16529C54.7487 6.57924 53.9538 6.25 53.125 6.25H28.125ZM34.375 50C32.6491 50 31.25 51.3991 31.25 53.125C31.25 54.8509 32.6491 56.25 34.375 56.25H65.625C67.3509 56.25 68.75 54.8509 68.75 53.125C68.75 51.3991 67.3509 50 65.625 50H34.375ZM34.375 68.75C32.6491 68.75 31.25 70.1491 31.25 71.875C31.25 73.6009 32.6491 75 34.375 75H65.625C67.3509 75 68.75 73.6009 68.75 71.875C68.75 70.1491 67.3509 68.75 65.625 68.75H34.375Z" fill="black"/>
<rect x="60" y="54" width="52" height="52" rx="26" fill="#20A2DC"/>
<path d="M99.3334 91.7601C90.5681 93.856 81.4321 93.856 72.6667 91.7601" stroke="white" stroke-width="1.5" stroke-linecap="round" stroke-linejoin="round"/>
<path d="M86.0676 85.3333V66.6666" stroke="white" stroke-width="1.5" stroke-linecap="round" stroke-linejoin="round"/>
<path d="M79.4661 72.2933L84.1461 67.4798C84.3859 67.2326 84.6729 67.0362 84.9902 66.902C85.3074 66.7678 85.6483 66.6989 85.9928 66.6989C86.3372 66.6989 86.6781 66.7678 86.9953 66.902C87.3125 67.0362 87.5995 67.2326 87.8394 67.4798L92.5327 72.2933" stroke="white" stroke-width="1.5" stroke-linecap="round" stroke-linejoin="round"/>
</svg>
