<svg width="32" height="32" viewBox="0 0 32 32" fill="none" xmlns="http://www.w3.org/2000/svg">
<path d="M11 7V8H21V7C21 6.44772 20.5523 6 20 6H12C11.4477 6 11 6.44772 11 7ZM9 8V7C9 5.34315 10.3431 4 12 4H20C21.6569 4 23 5.34315 23 7V8H27C28.6569 8 30 9.34315 30 11V25C30 26.6569 28.6569 28 27 28H5C3.34315 28 2 26.6569 2 25V11C2 9.34315 3.34315 8 5 8H9ZM15 12C14.4477 12 14 12.4477 14 13V16H11C10.4477 16 10 16.4477 10 17V19C10 19.5523 10.4477 20 11 20H14V23C14 23.5523 14.4477 24 15 24H17C17.5523 24 18 23.5523 18 23V20H21C21.5523 20 22 19.5523 22 19V17C22 16.4477 21.5523 16 21 16H18V13C18 12.4477 17.5523 12 17 12H15Z" fill="black"/>
</svg>
