<svg width="32" height="32" viewBox="0 0 32 32" fill="none" xmlns="http://www.w3.org/2000/svg">
<path d="M11 7V8H21V7C21 6.44772 20.5523 6 20 6H12C11.4477 6 11 6.44772 11 7ZM9 8V7C9 5.34315 10.3431 4 12 4H20C21.6569 4 23 5.34315 23 7V8H27C28.6569 8 30 9.34315 30 11V25C30 26.6569 28.6569 28 27 28H5C3.34315 28 2 26.6569 2 25V11C2 9.34315 3.34315 8 5 8H9ZM5 10C4.44771 10 4 10.4477 4 11V25C4 25.5523 4.44772 26 5 26H27C27.5523 26 28 25.5523 28 25V11C28 10.4477 27.5523 10 27 10H5ZM10 17C10 16.4477 10.4477 16 11 16H14V13C14 12.4477 14.4477 12 15 12H17C17.5523 12 18 12.4477 18 13V16H21C21.5523 16 22 16.4477 22 17V19C22 19.5523 21.5523 20 21 20H18V23C18 23.5523 17.5523 24 17 24H15C14.4477 24 14 23.5523 14 23V20H11C10.4477 20 10 19.5523 10 19V17Z" fill="black"/>
</svg>
