<svg width="32" height="32" viewBox="0 0 32 32" fill="none" xmlns="http://www.w3.org/2000/svg">
<path d="M23.0001 7C22.3126 7.0875 21.4438 7.21875 20.5188 7.21875C19.0751 7.21875 17.7688 6.8625 16.4438 6.58125C15.1001 6.29375 13.7126 6 12.2438 6C9.3126 6 8.31885 6.63125 8.21885 6.7L8.00635 6.85V7.0125V17.1187V26H9.00635V17.0438C9.38135 16.8875 10.3688 16.6125 12.2501 16.6125C13.6126 16.6125 14.8876 17.1312 16.2438 17.425C17.6188 17.7187 19.0438 18.025 20.5876 18.025C21.5063 18.025 22.3188 17.9 23.0063 17.8188C23.3813 17.775 23.7126 17.7312 24.0063 17.6812V7.875V6.84375C23.7126 6.9 23.3751 6.95 23.0001 7Z" fill="black"/>
</svg>
