<svg width="32" height="32" viewBox="0 0 32 32" fill="none" xmlns="http://www.w3.org/2000/svg">
<path d="M8 3C8 2.44772 7.55228 2 7 2C6.44772 2 6 2.44772 6 3V29C6 29.5523 6.44772 30 7 30C7.55229 30 8 29.5523 8 29L8 20H25C25.3486 20 25.672 19.8185 25.8536 19.5209C26.0352 19.2233 26.0487 18.8527 25.8893 18.5427L22.5245 12L25.8893 5.45735C26.0487 5.14734 26.0352 4.77668 25.8536 4.47911C25.672 4.18154 25.3486 4 25 4H8V3ZM8 6H23.3612L20.5107 11.5427C20.3631 11.8297 20.3631 12.1703 20.5107 12.4573L23.3612 18H8V6Z" fill="black"/>
</svg>
