<svg width="32" height="32" viewBox="0 0 32 32" fill="none" xmlns="http://www.w3.org/2000/svg">
<path d="M8.74179 9.67059C8.34761 9.02189 7.40977 8.87319 6.97016 9.49201C5.21595 11.9614 4 14.86 4 18C4 25.732 9.37258 30 16 30C22.6274 30 28 25.732 28 18C28 10.4835 21.0326 4.3505 16.393 2.17712C16.1432 2.06012 15.8557 2.06058 15.606 2.1776L15.5269 2.21492C15.1963 2.37211 14.9928 2.70866 14.9765 3.07433C14.7769 7.53603 13.33 10.2794 11.4991 11.6619C11.2029 11.8856 10.7969 11.8854 10.5006 11.6617C9.85371 11.1732 9.25473 10.5147 8.74179 9.67059ZM11.3241 20.242C11.6973 19.581 12.6907 19.8196 13.2542 20.3282C13.5297 20.5769 13.888 20.5344 14.1574 20.279C14.8848 19.5897 15.4368 18.3785 15.5239 16.5256C15.5325 16.3415 15.6407 16.1688 15.8076 16.0903C15.9333 16.0312 16.0726 16.0338 16.1983 16.093C18.3518 17.1083 21.57 19.9496 21.57 23.43C21.57 27.0189 19.0762 29 16 29C12.9238 29 10.4301 27.0189 10.4301 23.43C10.4301 22.2839 10.779 21.2071 11.3241 20.242Z" fill="black"/>
</svg>
