<svg width="32" height="32" viewBox="0 0 32 32" fill="none" xmlns="http://www.w3.org/2000/svg">
<path d="M6 18C6 15.8405 6.69164 13.7572 7.82812 11.8373C8.27485 12.3838 8.76631 12.8582 9.29537 13.2578C10.3042 14.0196 11.6942 14.0207 12.7043 13.258C14.9039 11.5971 16.4038 8.70676 16.8564 4.68384C18.6604 5.74532 20.7055 7.36247 22.4094 9.37664C24.5442 11.9 26 14.8705 26 18C26 21.3769 24.8415 23.826 23.1182 25.4397C22.6342 25.8929 22.0932 26.2918 21.5023 26.6315C21.8224 25.8734 22 24.9939 22 24C22 20.8896 19.6138 18.253 17.4761 16.8204L17.4684 16.8152C17.3795 16.7558 17.2911 16.6985 17.2033 16.6432C16.8601 16.4273 16.5264 16.244 16.2135 16.0966C16.0782 16.0327 15.9281 16.0299 15.7927 16.0936C15.613 16.1782 15.4964 16.3642 15.4871 16.5626C15.3919 18.5872 14.7815 19.9005 13.9812 20.6374C13.7081 20.8888 13.2919 20.8889 13.0188 20.6374C12.9723 20.5946 12.9265 20.5499 12.8813 20.5031C12.3539 19.9572 11.4107 19.7977 11.0278 20.4531C10.4037 21.5213 10 22.7206 10 24C10 24.9939 10.1776 25.8734 10.4977 26.6315C9.9068 26.2918 9.36577 25.8929 8.88176 25.4397C7.15852 23.826 6 21.3769 6 18ZM8.74179 9.67059C8.34761 9.02189 7.40977 8.87319 6.97016 9.49201C5.21595 11.9614 4 14.86 4 18C4 25.732 9.37258 30 16 30C22.6274 30 28 25.732 28 18C28 10.4835 21.0326 4.3505 16.393 2.17712C16.1432 2.06012 15.8557 2.06058 15.606 2.1776L15.5269 2.21492C15.1963 2.37211 14.9928 2.70866 14.9765 3.07433C14.7769 7.53603 13.33 10.2794 11.4991 11.6619C11.2029 11.8856 10.7969 11.8854 10.5006 11.6617C9.85371 11.1732 9.25473 10.5147 8.74179 9.67059ZM12 24C12 23.5083 12.0895 23.0152 12.2593 22.5254C13.2478 23.0354 14.4805 22.8964 15.336 22.1087C16.1674 21.3431 16.7645 20.3023 17.1181 19.0415C17.5773 19.4154 18.0351 19.8529 18.4482 20.3424C19.4181 21.4916 20 22.7527 20 24C20 25.4439 19.5131 26.393 18.8756 26.9899C18.2173 27.6063 17.2329 28 16 28C14.7671 28 13.7827 27.6063 13.1244 26.9899C12.4869 26.393 12 25.4439 12 24Z" fill="black"/>
</svg>
