<svg width="32" height="32" viewBox="0 0 32 32" fill="none" xmlns="http://www.w3.org/2000/svg">
<path d="M14.6667 10.8C15.3333 10.6667 15.8667 9.86666 15.6 9.2C15.4667 8.53333 14.6667 7.99999 14 8.26666C10.4 9.06666 8 12.2667 8 16C8 20.4 11.6 24 16 24C20.1333 24 23.6 20.8 24 16.6667C24.1333 16 23.4667 15.3333 22.8 15.2C22.1333 15.0667 21.4667 15.7333 21.3333 16.4C21.0667 19.0667 18.6667 21.3333 16 21.3333C13.0667 21.3333 10.6667 18.9333 10.6667 16C10.6667 13.4667 12.2667 11.3333 14.6667 10.8Z" fill="black"/>
<path d="M28.0001 14.6667C27.2001 14.6667 26.6667 15.2 26.6667 16C26.6667 21.8667 21.8667 26.6667 16.0001 26.6667C10.1334 26.6667 5.33341 21.8667 5.33341 16C5.33341 10.4 9.73341 5.73333 15.3334 5.33333C16.1334 5.33333 16.6667 4.66666 16.5334 3.86666C16.5334 3.06666 15.8667 2.53333 15.0667 2.66666C8.13341 3.19999 2.66675 8.93333 2.66675 16C2.66675 23.3333 8.66675 29.3333 16.0001 29.3333C23.3334 29.3333 29.3334 23.3333 29.3334 16C29.3334 15.2 28.6667 14.6667 28.0001 14.6667Z" fill="black"/>
<path d="M18.5334 11.6L15.0667 15.0667C14.5334 15.6 14.5334 16.4 15.0667 16.9333C15.3334 17.2 15.7334 17.3333 16.0001 17.3333C16.2667 17.3333 16.6667 17.2 16.9334 16.9333L20.4001 13.4667L22.6667 14.1333C22.8001 14.1333 22.9334 14.1333 23.0667 14.1333C23.4667 14.1333 23.7334 14 24.0001 13.7333L29.2001 8.40001C29.4667 8.13334 29.6001 7.60001 29.6001 7.20001C29.6001 6.80001 29.2001 6.40001 28.8001 6.26667L26.4001 5.46667L25.6001 3.06667C25.4667 2.66667 25.0667 2.26667 24.6667 2.26667C24.2667 2.13334 23.7334 2.26667 23.4667 2.66667L18.2667 8.00001C17.8667 8.40001 17.7334 8.93334 18.0001 9.33334L18.5334 11.6ZM23.7334 6.13334L24.1334 7.06667C24.2667 7.46667 24.5334 7.73334 24.9334 7.86667L25.8667 8.26667L22.6667 11.4667L21.0667 10.9333L20.5334 9.33334L23.7334 6.13334Z" fill="black"/>
</svg>
