<svg width="32" height="32" viewBox="0 0 32 32" fill="none" xmlns="http://www.w3.org/2000/svg">
<path d="M5 8C4.44772 8 4 8.44772 4 9V23C4 23.5523 4.44772 24 5 24H16.0549C16.0186 24.3283 16 24.662 16 25C16 25.338 16.0186 25.6717 16.0549 26H5C3.34315 26 2 24.6569 2 23V9C2 7.34315 3.34315 6 5 6H13C13.2164 6 13.4269 6.07018 13.6 6.2L17.3333 9H27C28.6569 9 30 10.3431 30 12V17.5155C29.383 17.1025 28.7121 16.7638 28 16.5121V12C28 11.4477 27.5523 11 27 11H17C16.7836 11 16.5731 10.9298 16.4 10.8L12.6667 8H5ZM25 32C28.866 32 32 28.866 32 25C32 21.134 28.866 18 25 18C21.134 18 18 21.134 18 25C18 28.866 21.134 32 25 32ZM25 21C25.5523 21 26 21.4477 26 22V24H28C28.5523 24 29 24.4477 29 25C29 25.5523 28.5523 26 28 26H26V28C26 28.5523 25.5523 29 25 29C24.4477 29 24 28.5523 24 28V26H22C21.4477 26 21 25.5523 21 25C21 24.4477 21.4477 24 22 24H24V22C24 21.4477 24.4477 21 25 21Z" fill="black"/>
</svg>
