<svg width="32" height="32" viewBox="0 0 32 32" fill="none" xmlns="http://www.w3.org/2000/svg">
<path d="M5 6C3.34315 6 2 7.34315 2 9V23C2 24.6569 3.34315 26 5 26H16.0549C16.0186 25.6717 16 25.338 16 25C16 20.0294 20.0294 16 25 16C26.8501 16 28.5699 16.5583 30 17.5155V12C30 10.3431 28.6569 9 27 9H17.3333L13.6 6.2C13.4269 6.07018 13.2164 6 13 6H5ZM32 25C32 28.866 28.866 32 25 32C21.134 32 18 28.866 18 25C18 21.134 21.134 18 25 18C28.866 18 32 21.134 32 25ZM28 24H22C21.4477 24 21 24.4477 21 25C21 25.5523 21.4477 26 22 26H28C28.5523 26 29 25.5523 29 25C29 24.4477 28.5523 24 28 24Z" fill="black"/>
</svg>
