<svg width="32" height="40" viewBox="0 0 32 40" fill="none" xmlns="http://www.w3.org/2000/svg">
<g clip-path="url(#clip0_509_240)">
<path d="M0 23.589C0 32.4111 7.17559 39.589 16 39.589C18.1016 39.5904 20.1828 39.1776 22.1246 38.374C24.0665 37.5704 25.8309 36.3919 27.3169 34.9059C28.8029 33.4199 29.9814 31.6555 30.785 29.7136C31.5886 27.7718 32.0014 25.6905 32 23.589C31.9998 23.4132 31.9299 23.2447 31.8056 23.1204C31.6813 22.9961 31.5128 22.9262 31.337 22.926H0.662962C0.487197 22.9262 0.31869 22.9961 0.194405 23.1204C0.0701203 23.2447 0.000206418 23.4132 0 23.589ZM30.6593 24.2519C30.6147 25.2469 30.4691 26.2347 30.2248 27.2002H1.77674C1.53104 26.2349 1.38494 25.247 1.34074 24.2519H30.6593ZM1.92571 27.7461H30.0751C29.1779 30.7832 27.3224 33.4485 24.7855 35.344C22.2487 37.2395 19.1668 38.2635 16 38.2631C9.35166 38.2631 3.72273 33.8189 1.92571 27.7461Z" fill="#516678"/>
<path d="M20.6127 35.3226C22.1089 34.6775 23.4389 33.7008 24.5024 32.4665C24.5496 32.4115 24.6168 32.3776 24.689 32.3722C24.7613 32.3668 24.8327 32.3903 24.8877 32.4376C24.9426 32.4849 24.9765 32.552 24.9819 32.6243C24.9873 32.6965 24.9638 32.768 24.9165 32.8229C23.7973 34.1202 22.3983 35.1467 20.8249 35.8249C20.7908 35.8393 20.7542 35.8468 20.7172 35.8468C20.6543 35.8469 20.5932 35.8253 20.5443 35.7856C20.4955 35.7458 20.4619 35.6904 20.4492 35.6287C20.4365 35.567 20.4456 35.5028 20.4748 35.4471C20.504 35.3913 20.5517 35.3473 20.6096 35.3226H20.6127Z" fill="#516678"/>
<path d="M29.5151 8.59194C30.7981 7.23715 30.4698 5.23813 30.455 5.16013C30.435 5.0447 30.3847 4.93662 30.3094 4.84691C30.234 4.7572 30.1362 4.68906 30.026 4.64943C29.9157 4.6098 29.797 4.60009 29.6817 4.6213C29.5665 4.64251 29.459 4.69387 29.37 4.77016L26.4593 7.26679L27.3414 2.8928C27.3649 2.77612 27.3566 2.65526 27.3173 2.5429C27.278 2.43054 27.2092 2.33083 27.1181 2.25424C27.027 2.17765 26.9169 2.127 26.7995 2.10761C26.6821 2.08822 26.5616 2.10081 26.4507 2.14405C26.3633 2.17758 24.2957 3.002 23.7208 4.9745C23.4572 5.87457 23.5477 6.84172 23.9876 7.86034C23.4195 7.77134 22.8387 7.81377 22.2896 7.98435C21.3326 8.29633 20.5994 9.01701 20.1112 10.1238C19.9628 10.4703 19.8364 10.8259 19.7329 11.1884C19.7329 11.1962 19.7282 11.2048 19.7259 11.2126C18.9966 13.7038 18.577 17.8812 18.6566 20.0776C18.6681 20.4387 18.7818 20.7892 18.9844 21.0884C19.1871 21.3875 19.4704 21.6231 19.8016 21.7677C20.0472 21.8768 20.3128 21.9333 20.5815 21.9338C21.0359 21.9334 21.4753 21.7711 21.8209 21.476C22.8278 20.6227 24.2099 19.1884 25.4289 17.7322C26.3735 16.6029 27.1495 15.5484 27.6729 14.6826C27.8677 14.3664 28.0422 14.0382 28.1954 13.6999C28.6845 12.5939 28.7227 11.5675 28.3093 10.6495C28.1345 10.2681 27.8937 9.92061 27.598 9.62304C28.385 9.45145 29.0261 9.10827 29.5151 8.59194ZM25.099 9.60588L25.1193 9.61602L25.1427 9.62772L25.1637 9.63786H25.17L25.1848 9.64332L25.2113 9.65345L25.2254 9.65891C25.2519 9.66749 26.6293 10.1316 27.1043 11.1993C27.357 11.7664 27.318 12.409 26.9842 13.164C26.8874 13.3776 26.7793 13.5859 26.6605 13.788L25.5568 13.1991C25.5252 13.181 25.4902 13.1694 25.4539 13.165C25.4177 13.1606 25.3809 13.1636 25.3458 13.1736C25.3107 13.1837 25.278 13.2008 25.2496 13.2237C25.2212 13.2467 25.1977 13.2751 25.1805 13.3073C25.1632 13.3395 25.1527 13.3748 25.1493 13.4112C25.146 13.4475 25.15 13.4842 25.1611 13.519C25.1722 13.5538 25.1902 13.586 25.2139 13.6137C25.2377 13.6414 25.2668 13.6641 25.2995 13.6804L26.3766 14.2552C25.7963 15.1412 25.1623 15.9909 24.4782 16.7994L22.3559 15.8221C22.2901 15.7918 22.215 15.7889 22.1471 15.814C22.0791 15.8391 22.0239 15.8901 21.9936 15.9559C21.9633 16.0217 21.9604 16.0968 21.9855 16.1647C22.0106 16.2327 22.0616 16.2879 22.1274 16.3182L24.1131 17.237C23.0212 18.5137 21.8372 19.7281 20.9652 20.4668C20.8797 20.5396 20.7754 20.5868 20.6642 20.603C20.553 20.6192 20.4396 20.6037 20.3368 20.5583C20.234 20.513 20.1461 20.4396 20.0832 20.3465C20.0202 20.2535 19.9848 20.1446 19.9809 20.0323C19.9084 18.0364 20.2672 14.3285 20.9021 11.9333L23.0197 12.884C23.0547 12.9 23.0927 12.9082 23.1312 12.9082C23.1936 12.9082 23.2541 12.8868 23.3027 12.8476C23.3513 12.8084 23.3849 12.7537 23.398 12.6927C23.4112 12.6316 23.403 12.568 23.3749 12.5122C23.3468 12.4565 23.3004 12.4121 23.2435 12.3864L21.0534 11.4029C21.1294 11.1522 21.2192 10.9058 21.3225 10.6651C21.6563 9.91006 22.1024 9.44833 22.6936 9.25334C23.809 8.8813 25.0857 9.5934 25.099 9.60198V9.60588ZM25.7292 4.18441L25.1286 7.15916C24.8806 6.50244 24.833 5.90031 24.989 5.35824C25.1282 4.90755 25.3835 4.50138 25.7292 4.18051V4.18441ZM29.0471 6.7957C28.9533 7.12813 28.7816 7.43344 28.5464 7.68641C28.2344 8.01555 27.7995 8.2342 27.2415 8.34235L29.0471 6.7957Z" fill="#516678"/>
<path d="M12.0051 11.8249C11.0254 9.407 8.80256 7.81511 6.53679 7.81511H6.47361C6.46659 7.79639 6.45879 7.7769 6.45099 7.75818C6.00564 6.66858 4.661 6.18189 3.44817 6.67326C2.88987 6.89339 2.4289 7.30622 2.14876 7.83695C2.0087 8.09651 1.92725 8.38362 1.91013 8.67806C1.89302 8.9725 1.94066 9.26712 2.04971 9.54115C2.1405 9.76632 2.27279 9.97242 2.43969 10.1487C1.46552 11.7484 1.32591 13.9058 2.10586 15.837C3.08627 18.2548 5.27872 19.8436 7.55619 19.8475C7.91029 20.4301 8.57559 20.7678 9.29471 20.7678C9.59965 20.7673 9.9016 20.7077 10.1839 20.5923C11.2976 20.1415 11.8725 18.9544 11.4653 17.953C11.4536 17.9257 11.4419 17.8984 11.4294 17.8711C12.6243 16.2433 12.8583 13.93 12.0051 11.8249ZM10.1137 17.3875C9.99977 17.5126 9.93815 17.6766 9.94148 17.8458C9.94482 18.015 10.0129 18.1764 10.1316 18.2969C10.1759 18.3416 10.2109 18.3946 10.2346 18.4529C10.3648 18.7735 10.1129 19.1915 9.68859 19.3655C9.26429 19.5394 8.78774 19.4146 8.65749 19.0933C8.64875 19.0691 8.64171 19.0443 8.63643 19.0192C8.601 18.861 8.50878 18.7213 8.37725 18.6266C8.24572 18.5319 8.08402 18.4887 7.92277 18.5052C6.05088 18.6947 4.16885 17.393 3.33741 15.3409C2.63545 13.6125 2.8476 11.6814 3.8748 10.4217C3.93863 10.3435 3.98375 10.2517 4.00671 10.1534C4.02967 10.0551 4.02988 9.95282 4.00731 9.85441C3.98474 9.756 3.93999 9.66405 3.87647 9.58556C3.81296 9.50708 3.73236 9.44414 3.64082 9.40154C3.48012 9.33247 3.35181 9.20472 3.28204 9.04432C3.24716 8.94686 3.2335 8.84307 3.24198 8.7399C3.25045 8.63673 3.28086 8.53656 3.33117 8.4461C3.46535 8.19566 3.68517 8.00186 3.95046 7.90013C4.47615 7.68642 5.05956 7.84865 5.22413 8.25345C5.25537 8.33337 5.26997 8.41883 5.26702 8.50459C5.26445 8.6014 5.28313 8.69759 5.32176 8.78639C5.3604 8.87519 5.41804 8.95443 5.49062 9.01854C5.5632 9.08265 5.64896 9.13005 5.74186 9.15741C5.83475 9.18478 5.93252 9.19144 6.02826 9.17691C6.20069 9.15072 6.37486 9.13768 6.54927 9.13792C8.28233 9.13792 10.0037 10.4046 10.7805 12.3201C11.5137 14.1421 11.2532 16.1302 10.1137 17.3875Z" fill="#516678"/>
<path d="M9.2815 16.5218C9.24421 16.5404 9.20307 16.55 9.16138 16.5498C9.09985 16.5496 9.04022 16.5285 8.99216 16.4901C8.9441 16.4516 8.91044 16.3981 8.89662 16.3381C8.8828 16.2782 8.88965 16.2153 8.91605 16.1597C8.94245 16.1042 8.98685 16.0591 9.04205 16.0319C9.41114 15.8497 9.69289 15.5286 9.82551 15.1389C9.95813 14.7492 9.93078 14.3229 9.74947 13.9534C9.71899 13.8885 9.71527 13.8142 9.7391 13.7466C9.76292 13.679 9.8124 13.6234 9.87682 13.592C9.94125 13.5605 10.0155 13.5557 10.0834 13.5785C10.1514 13.6013 10.2077 13.65 10.2401 13.7139C10.3611 13.9616 10.4322 14.2308 10.4493 14.5059C10.4663 14.7811 10.429 15.057 10.3394 15.3177C10.2498 15.5785 10.1097 15.819 9.92711 16.0256C9.74452 16.2322 9.52302 16.4008 9.27526 16.5218H9.2815Z" fill="#516678"/>
<path d="M15.3752 20.6478C15.3751 20.897 15.4489 21.1406 15.5872 21.3479C15.7256 21.5551 15.9223 21.7167 16.1525 21.8121C16.3827 21.9076 16.636 21.9326 16.8804 21.884C17.1248 21.8354 17.3494 21.7154 17.5256 21.5392C17.7018 21.363 17.8218 21.1385 17.8703 20.8941C17.9189 20.6497 17.8939 20.3963 17.7985 20.1661C17.703 19.9359 17.5415 19.7392 17.3342 19.6009C17.1269 19.4625 16.8833 19.3888 16.6341 19.3889C16.3004 19.3895 15.9806 19.5224 15.7446 19.7583C15.5087 19.9943 15.3759 20.3141 15.3752 20.6478ZM15.9212 20.6478C15.9212 20.5066 15.9631 20.3686 16.0415 20.2512C16.12 20.1338 16.2315 20.0423 16.3619 19.9884C16.4924 19.9344 16.6359 19.9203 16.7744 19.9479C16.9128 19.9755 17.04 20.0435 17.1398 20.1434C17.2396 20.2433 17.3075 20.3705 17.3349 20.509C17.3624 20.6475 17.3481 20.791 17.294 20.9214C17.2398 21.0518 17.1483 21.1632 17.0308 21.2415C16.9133 21.3199 16.7753 21.3616 16.6341 21.3614C16.445 21.3612 16.2636 21.2859 16.13 21.1521C15.9963 21.0183 15.9212 20.8369 15.9212 20.6478Z" fill="#516678"/>
<path d="M10.286 4.60173C10.286 4.31086 10.1998 4.02652 10.0382 3.78465C9.87662 3.54278 9.64697 3.35424 9.37828 3.24286C9.10958 3.13148 8.81389 3.10226 8.52859 3.15889C8.24328 3.21552 7.98117 3.35547 7.77539 3.56103C7.56961 3.7666 7.42938 4.02856 7.37245 4.3138C7.31552 4.59904 7.34442 4.89476 7.45552 5.16358C7.56662 5.43239 7.75492 5.66224 7.99661 5.82406C8.23831 5.98589 8.52256 6.07242 8.81343 6.07273C9.20371 6.07273 9.57802 5.9178 9.85413 5.64198C10.1302 5.36616 10.2856 4.99201 10.286 4.60173ZM9.74002 4.60173C9.74017 4.78465 9.68609 4.96351 9.58461 5.1157C9.48313 5.26789 9.3388 5.38657 9.16988 5.45675C9.00096 5.52693 8.81502 5.54545 8.63558 5.50997C8.45613 5.47449 8.29123 5.38661 8.16173 5.25743C8.03222 5.12825 7.94392 4.96357 7.90799 4.78422C7.87205 4.60486 7.8901 4.41888 7.95986 4.24978C8.02961 4.08068 8.14793 3.93606 8.29986 3.83419C8.45179 3.73233 8.63051 3.67779 8.81343 3.67749C9.05883 3.67728 9.29428 3.77451 9.46803 3.94782C9.64177 4.12113 9.7396 4.35633 9.74002 4.60173Z" fill="#516678"/>
<path d="M31.5344 16.7737C31.5346 16.4598 31.4416 16.1529 31.2673 15.8919C31.093 15.6309 30.8451 15.4274 30.5551 15.3073C30.2651 15.1872 29.946 15.1558 29.6381 15.2171C29.3303 15.2784 29.0475 15.4297 28.8257 15.6517C28.6038 15.8738 28.4528 16.1567 28.3918 16.4646C28.3308 16.7725 28.3625 17.0916 28.4829 17.3815C28.6033 17.6714 28.807 17.919 29.0683 18.0931C29.3295 18.2672 29.6364 18.3598 29.9503 18.3594C30.3704 18.3583 30.773 18.1909 31.0699 17.8937C31.3668 17.5965 31.5338 17.1938 31.5344 16.7737ZM30.9885 16.7737C30.9885 16.9796 30.9274 17.1809 30.8129 17.352C30.6985 17.5232 30.5359 17.6565 30.3456 17.7352C30.1554 17.8139 29.946 17.8344 29.7442 17.794C29.5423 17.7537 29.3569 17.6544 29.2115 17.5086C29.066 17.3629 28.9671 17.1773 28.9273 16.9753C28.8874 16.7733 28.9083 16.564 28.9874 16.3739C29.0665 16.1839 29.2002 16.0215 29.3717 15.9075C29.5431 15.7934 29.7445 15.7328 29.9503 15.7333C30.2258 15.7341 30.4897 15.8441 30.6843 16.0391C30.8789 16.2341 30.9883 16.4983 30.9885 16.7737Z" fill="#516678"/>
<path d="M1.98584 20.1057C1.98569 20.2805 2.03738 20.4514 2.13439 20.5969C2.2314 20.7423 2.36936 20.8557 2.53082 20.9227C2.69227 20.9897 2.86998 21.0073 3.04145 20.9733C3.21292 20.9393 3.37045 20.8552 3.49412 20.7316C3.61778 20.6081 3.70202 20.4506 3.73618 20.2792C3.77034 20.1077 3.75289 19.93 3.68603 19.7685C3.61916 19.607 3.5059 19.4689 3.36056 19.3718C3.21522 19.2746 3.04434 19.2228 2.86953 19.2228C2.63536 19.223 2.41083 19.316 2.24517 19.4816C2.07951 19.6471 1.98625 19.8715 1.98584 20.1057ZM2.53181 20.1057C2.53181 20.0389 2.55162 19.9736 2.58872 19.9181C2.62583 19.8625 2.67858 19.8192 2.74029 19.7937C2.802 19.7681 2.8699 19.7614 2.93542 19.7745C3.00093 19.7875 3.0611 19.8197 3.10833 19.8669C3.15557 19.9141 3.18773 19.9743 3.20076 20.0398C3.21379 20.1053 3.2071 20.1732 3.18154 20.2349C3.15598 20.2966 3.11269 20.3494 3.05716 20.3865C3.00162 20.4236 2.93632 20.4434 2.86953 20.4434C2.77996 20.4434 2.69406 20.4078 2.63073 20.3445C2.56739 20.2812 2.53181 20.1953 2.53181 20.1057Z" fill="#516678"/>
<path d="M22.1023 2.55825C22.1023 2.38344 22.0505 2.21256 21.9534 2.06722C21.8562 1.92188 21.7182 1.80861 21.5566 1.74175C21.3951 1.67489 21.2174 1.65744 21.046 1.6916C20.8745 1.72576 20.7171 1.81 20.5935 1.93366C20.47 2.05733 20.3859 2.21486 20.3518 2.38633C20.3178 2.5578 20.3354 2.7355 20.4025 2.89696C20.4695 3.05842 20.5828 3.19638 20.7283 3.29339C20.8737 3.3904 21.0446 3.44209 21.2194 3.44194C21.4536 3.44153 21.678 3.34827 21.8436 3.18261C22.0091 3.01695 22.1021 2.79242 22.1023 2.55825ZM21.5564 2.55825C21.5564 2.62508 21.5365 2.6904 21.4994 2.74596C21.4623 2.80151 21.4095 2.8448 21.3477 2.87034C21.286 2.89587 21.218 2.90252 21.1525 2.88942C21.0869 2.87633 21.0268 2.84409 20.9796 2.79678C20.9324 2.74947 20.9003 2.68922 20.8873 2.62366C20.8744 2.55809 20.8812 2.49016 20.9069 2.42847C20.9325 2.36677 20.976 2.31408 21.0316 2.27707C21.0872 2.24005 21.1526 2.22037 21.2194 2.22053C21.3089 2.22074 21.3946 2.25641 21.4577 2.31972C21.5209 2.38303 21.5564 2.46882 21.5564 2.55825Z" fill="#516678"/>
<path d="M16.8173 12.1837C18.0169 10.5973 19.3264 8.1599 18.7189 5.56265C18.215 3.39125 16.4671 1.54354 13.5259 0.0702014C13.4467 0.0307286 13.3605 0.00748615 13.2722 0.00184077C13.1839 -0.00380462 13.0953 0.00826098 13.0118 0.0373281C12.9282 0.0663953 12.8513 0.111877 12.7855 0.1711C12.7198 0.230322 12.6666 0.30209 12.629 0.382183C11.771 2.20728 11.0145 4.01132 11.2251 6.0119C11.4637 8.30341 12.9628 10.4093 15.8081 12.4504C15.8622 12.4892 15.9219 12.5194 15.9851 12.5401C15.89 13.9893 15.6037 15.2294 15.1467 16.1576C15.1308 16.1897 15.1214 16.2247 15.119 16.2605C15.1166 16.2963 15.1213 16.3322 15.1329 16.3662C15.1444 16.4001 15.1625 16.4315 15.1861 16.4585C15.2098 16.4854 15.2385 16.5075 15.2707 16.5234C15.3084 16.5416 15.3497 16.5512 15.3916 16.5514C15.4425 16.5514 15.4924 16.5371 15.5357 16.5102C15.5789 16.4834 15.6138 16.445 15.6365 16.3993C16.1349 15.3854 16.443 14.0415 16.5373 12.4785C16.6071 12.4367 16.6685 12.3822 16.7183 12.3178C16.751 12.2757 16.7854 12.2313 16.8197 12.1852L16.8173 12.1837ZM16.5256 10.24C16.4032 8.34552 16.0007 6.47363 15.4033 5.11261C15.3893 5.07915 15.3688 5.0488 15.343 5.02333C15.3172 4.99787 15.2866 4.97781 15.2529 4.96432C15.2192 4.95083 15.1832 4.94418 15.147 4.94476C15.1107 4.94533 15.0749 4.95313 15.0417 4.96769C15.0085 4.98225 14.9785 5.00328 14.9535 5.02955C14.9286 5.05582 14.909 5.08681 14.8962 5.1207C14.8833 5.1546 14.8773 5.19072 14.8785 5.22696C14.8797 5.2632 14.8882 5.29884 14.9033 5.33178C15.5476 6.80121 15.9555 8.89305 16.0124 10.9475C13.8605 9.28147 12.7233 7.61861 12.5416 5.87307C12.3911 4.42391 12.8918 3.00751 13.5376 1.57473C15.7426 2.79692 17.0513 4.2375 17.4296 5.86449C17.7962 7.43532 17.2541 8.98821 16.5256 10.24Z" fill="#516678"/>
<path d="M15.836 28.504C14.9747 28.5039 14.1327 28.7592 13.4165 29.2377C12.7003 29.7161 12.142 30.3962 11.8124 31.192C11.4827 31.9877 11.3964 32.8633 11.5643 33.7081C11.7323 34.5529 12.147 35.3289 12.756 35.9379C13.365 36.547 14.141 36.9618 14.9857 37.1299C15.8305 37.298 16.7061 37.2117 17.5019 36.8822C18.2976 36.5526 18.9778 35.9944 19.4563 35.2783C19.9349 34.5621 20.1903 33.7201 20.1903 32.8588C20.1903 31.7039 19.7315 30.5964 18.915 29.7797C18.0984 28.963 16.9909 28.5042 15.836 28.504ZM18.185 31.9754C16.5316 32.8214 15.4708 34.605 15.46 34.623C15.4179 34.6948 15.3597 34.7558 15.29 34.8013C15.2203 34.8468 15.141 34.8755 15.0583 34.8851C15.0375 34.8876 15.0166 34.8888 14.9957 34.8887C14.9231 34.8887 14.8511 34.874 14.7843 34.8454C14.7175 34.8168 14.6571 34.775 14.6069 34.7225L13.4049 33.4672C13.356 33.416 13.3177 33.3557 13.2921 33.2897C13.2665 33.2237 13.2542 33.1532 13.2558 33.0825C13.2574 33.0117 13.273 32.9419 13.3015 32.8771C13.3301 32.8123 13.3712 32.7538 13.4224 32.7049C13.4736 32.656 13.5339 32.6177 13.5999 32.5921C13.666 32.5665 13.7364 32.5541 13.8072 32.5558C13.8779 32.5574 13.9477 32.5729 14.0125 32.6015C14.0773 32.6301 14.1358 32.6712 14.1847 32.7224L14.9244 33.4949C15.4272 32.8096 16.3911 31.6841 17.6946 31.0161C17.7576 30.9839 17.8263 30.9644 17.8968 30.9587C17.9673 30.953 18.0383 30.9613 18.1056 30.9831C18.173 31.0048 18.2354 31.0396 18.2892 31.0855C18.3431 31.1313 18.3875 31.1873 18.4197 31.2503C18.4519 31.3133 18.4714 31.382 18.4771 31.4526C18.4828 31.5231 18.4745 31.5941 18.4528 31.6614C18.431 31.7287 18.3962 31.7911 18.3504 31.845C18.3045 31.8989 18.2485 31.9432 18.1855 31.9754H18.185Z" fill="#516678"/>
</g>
<defs>
<clipPath id="clip0_509_240">
<rect width="32" height="39.589" fill="white"/>
</clipPath>
</defs>
</svg>
