<svg width="35" height="42" viewBox="0 0 35 42" fill="none" xmlns="http://www.w3.org/2000/svg">
<path d="M6.3 1.5C3.64903 1.5 1.5 3.32741 1.5 5.58163V35.5136C1.5 37.7678 3.64903 39.5952 6.3 39.5952H28.7C31.351 39.5952 33.5 37.7678 33.5 35.5136V15.1054H23.9C20.3654 15.1054 17.5 12.6689 17.5 9.66327V1.5H6.3Z" fill="white"/>
<path d="M32.0941 11.9859C32.2421 12.1117 32.3793 12.2448 32.5055 12.3844H23.9C22.1327 12.3844 20.7 11.1661 20.7 9.66327V2.34567C20.8641 2.45294 21.0207 2.56968 21.1686 2.69548L32.0941 11.9859Z" fill="white"/>
<path d="M6.3 1.5C3.64903 1.5 1.5 3.32741 1.5 5.58163V35.5136C1.5 37.7678 3.64903 39.5952 6.3 39.5952H28.7C31.351 39.5952 33.5 37.7678 33.5 35.5136V15.1054H23.9C20.3654 15.1054 17.5 12.6689 17.5 9.66327V1.5H6.3Z" stroke="black" stroke-width="3" stroke-linecap="round" stroke-linejoin="round"/>
<path d="M32.0941 11.9859C32.2421 12.1117 32.3793 12.2448 32.5055 12.3844H23.9C22.1327 12.3844 20.7 11.1661 20.7 9.66327V2.34567C20.8641 2.45294 21.0207 2.56968 21.1686 2.69548L32.0941 11.9859Z" stroke="black" stroke-width="3" stroke-linecap="round" stroke-linejoin="round"/>
<path d="M9.56714 32.8638H25.406C25.7322 32.8639 25.9968 33.1283 25.9968 33.4546C25.9968 33.7809 25.7323 34.0453 25.406 34.0454H9.56714C9.24082 34.0453 8.97632 33.7809 8.97632 33.4546C8.97638 33.1691 9.17881 32.9306 9.448 32.8755L9.56714 32.8638Z" stroke="black" stroke-width="2"/>
<path d="M7.36108 29.3094V25.055H9.98813V25.7437H8.21442V26.8348H9.57366V27.5114H8.21442V29.3094H7.36108Z" fill="black"/>
<path d="M14.7441 27.17C14.7441 28.45 13.7749 29.3521 12.5681 29.3521C11.3673 29.3521 10.386 28.45 10.386 27.17C10.386 25.8961 11.3673 24.994 12.5681 24.994C13.781 24.994 14.7441 25.8961 14.7441 27.17ZM11.2637 27.17C11.2637 28.0355 11.794 28.5902 12.5681 28.5902C13.3361 28.5902 13.8664 28.0355 13.8664 27.17C13.8664 26.3045 13.3361 25.762 12.5681 25.762C11.794 25.762 11.2637 26.3045 11.2637 27.17Z" fill="black"/>
<path d="M17.6342 26.3776C17.6342 25.9997 17.4208 25.762 16.9454 25.762H16.2323V27.0115H16.9454C17.4208 27.0115 17.6342 26.7616 17.6342 26.3776ZM15.3789 25.055H16.9759C17.9999 25.055 18.5119 25.6462 18.5119 26.3594C18.5119 26.8774 18.2254 27.4016 17.5428 27.5845L18.5607 29.3094H17.5732L16.6346 27.6515H16.2323V29.3094H15.3789V25.055Z" fill="black"/>
<path d="M19.2837 29.3094V25.055H20.2528L21.606 28.2184L22.9591 25.055H23.9222V29.3094H23.0688V26.5422L21.929 29.3094H21.2829L20.137 26.5422V29.3094H19.2837Z" fill="black"/>
<path d="M27.7403 28.0782C27.7403 28.7487 27.2039 29.3521 26.2348 29.3521C25.351 29.3521 24.6683 28.8889 24.6561 28.0843H25.5704C25.5948 28.4256 25.8203 28.6512 26.2165 28.6512C26.6188 28.6512 26.8565 28.4378 26.8565 28.1331C26.8565 27.2127 24.6622 27.7674 24.6683 26.2253C24.6683 25.4573 25.29 24.994 26.1678 24.994C27.0394 24.994 27.6367 25.439 27.6916 26.207H26.7529C26.7346 25.9266 26.5091 25.7072 26.1434 25.7011C25.8081 25.6889 25.5582 25.8534 25.5582 26.2009C25.5582 27.0542 27.7403 26.5788 27.7403 28.0782Z" fill="black"/>
<path d="M9.56714 19.6428H25.406C25.7322 19.6429 25.9968 19.9074 25.9968 20.2336C25.9968 20.56 25.7323 20.8243 25.406 20.8245H9.56714C9.24082 20.8244 8.97632 20.56 8.97632 20.2336C8.97638 19.9482 9.17881 19.7097 9.448 19.6545L9.56714 19.6428Z" stroke="black" stroke-width="2"/>
</svg>
