<svg width="32" height="32" viewBox="0 0 32 32" fill="none" xmlns="http://www.w3.org/2000/svg">
<path d="M4 6C4 4.89543 4.89543 4 6 4H26C27.1046 4 28 4.89543 28 6V6.6198C28 7.10963 27.8202 7.58243 27.4948 7.94853L20 16.3802V27.1315C20 28.7289 18.2197 29.6817 16.8906 28.7956L12.8906 26.1289C12.3342 25.758 12 25.1335 12 24.4648V16.3802L4.50518 7.94853C4.17976 7.58243 4 7.10963 4 6.6198V6ZM26 6H6V6.6198L13.4948 15.0515C13.8202 15.4176 14 15.8904 14 16.3802V24.4648L18 27.1315V16.3802C18 15.8904 18.1798 15.4176 18.5052 15.0515L26 6.6198V6Z" fill="black"/>
</svg>
