<svg width="32" height="32" viewBox="0 0 32 32" fill="none" xmlns="http://www.w3.org/2000/svg">
<path d="M13.9999 2.5H17.9999C19.3806 2.5 20.4999 3.61929 20.4999 5V5.41434C21.3664 5.78308 22.1778 6.2547 22.9187 6.81346L23.2749 6.6078C24.4706 5.91744 25.9996 6.32713 26.69 7.52286L28.69 10.987C29.3803 12.1827 28.9706 13.7117 27.7749 14.402L27.4164 14.609C27.4716 15.0656 27.4999 15.5298 27.4999 16C27.4999 16.4728 27.4712 16.9397 27.4155 17.3988L27.7713 17.6042C28.967 18.2946 29.3767 19.8236 28.6864 21.0193L26.6864 24.4834C25.996 25.6791 24.467 26.0888 23.2713 25.3985L22.9124 25.1913C22.1732 25.748 21.364 26.218 20.4999 26.5857V27C20.4999 28.3807 19.3806 29.5 17.9999 29.5H13.9999C12.6192 29.5 11.4999 28.3807 11.4999 27V26.5857C10.6334 26.217 9.82211 25.7454 9.0812 25.1866L8.72503 25.3923C7.52929 26.0826 6.00032 25.6729 5.30996 24.4772L3.30996 21.0131C2.61961 19.8174 3.0293 18.2884 4.22503 17.598L4.58337 17.3911C4.52821 16.9345 4.49988 16.4702 4.49988 16C4.49988 15.5271 4.52853 15.0603 4.58431 14.6011L4.22862 14.3958C3.03289 13.7054 2.6232 12.1764 3.31356 10.9807L5.31356 7.51661C6.00391 6.32088 7.53289 5.91119 8.72862 6.60155L9.08741 6.80869C9.82664 6.25201 10.6358 5.78202 11.4999 5.41432V5C11.4999 3.61929 12.6192 2.5 13.9999 2.5ZM15.9999 21C18.7613 21 20.9999 18.7614 20.9999 16C20.9999 13.2386 18.7613 11 15.9999 11C13.2385 11 10.9999 13.2386 10.9999 16C10.9999 18.7614 13.2385 21 15.9999 21ZM16 19C17.6569 19 19 17.6569 19 16C19 14.3431 17.6569 13 16 13C14.3431 13 13 14.3431 13 16C13 17.6569 14.3431 19 16 19Z" fill="black"/>
</svg>
