<svg width="32" height="32" viewBox="0 0 32 32" fill="none" xmlns="http://www.w3.org/2000/svg">
<path d="M13.9999 2.5H17.9999C19.3806 2.5 20.4999 3.61929 20.4999 5V5.41434C21.3664 5.78308 22.1778 6.2547 22.9187 6.81346L23.2749 6.6078C24.4706 5.91744 25.9996 6.32713 26.69 7.52286L28.69 10.987C29.3803 12.1827 28.9706 13.7117 27.7749 14.402L27.4164 14.609C27.4716 15.0656 27.4999 15.5298 27.4999 16C27.4999 16.4728 27.4712 16.9397 27.4155 17.3988L27.7713 17.6042C28.967 18.2946 29.3767 19.8236 28.6864 21.0193L26.6864 24.4834C25.996 25.6791 24.467 26.0888 23.2713 25.3985L22.9124 25.1913C22.1732 25.748 21.364 26.218 20.4999 26.5857V27C20.4999 28.3807 19.3806 29.5 17.9999 29.5H13.9999C12.6192 29.5 11.4999 28.3807 11.4999 27V26.5857C10.6334 26.217 9.82211 25.7454 9.0812 25.1866L8.72503 25.3923C7.52929 26.0826 6.00032 25.6729 5.30996 24.4772L3.30996 21.0131C2.61961 19.8174 3.0293 18.2884 4.22503 17.598L4.58337 17.3911C4.52821 16.9345 4.49988 16.4702 4.49988 16C4.49988 15.5271 4.52853 15.0603 4.58431 14.6011L4.22862 14.3958C3.03289 13.7054 2.6232 12.1764 3.31356 10.9807L5.31356 7.51661C6.00391 6.32088 7.53289 5.91119 8.72862 6.60155L9.08741 6.80869C9.82664 6.25201 10.6358 5.78202 11.4999 5.41432V5C11.4999 3.61929 12.6192 2.5 13.9999 2.5ZM15.9999 19C17.6567 19 18.9999 17.6569 18.9999 16C18.9999 14.3431 17.6567 13 15.9999 13C14.343 13 12.9999 14.3431 12.9999 16C12.9999 17.6569 14.343 19 15.9999 19ZM13.9999 4.5C13.7238 4.5 13.4999 4.72386 13.4999 5V6.45023C13.4999 6.67582 13.3484 6.87215 13.1333 6.94015C11.8021 7.36094 10.5977 8.06699 9.59186 8.98656C9.4255 9.13864 9.17994 9.17152 8.98474 9.05882L7.72862 8.3336C7.48947 8.19553 7.18368 8.27747 7.04561 8.51661L5.04561 11.9807C4.90754 12.2199 4.98947 12.5257 5.22862 12.6637L6.48085 13.3867C6.67608 13.4994 6.77037 13.7286 6.72192 13.9487C6.57652 14.6093 6.49988 15.2957 6.49988 16C6.49988 16.7018 6.57599 17.3859 6.72039 18.0443C6.76865 18.2644 6.67434 18.4933 6.47924 18.606L5.22503 19.3301C4.98588 19.4682 4.90394 19.774 5.04201 20.0131L7.04201 23.4772C7.18009 23.7164 7.48588 23.7983 7.72503 23.6602L8.97921 22.9361C9.17453 22.8233 9.42026 22.8563 9.58662 23.0086C10.5936 23.9306 11.7998 24.6383 13.1333 25.0598C13.3484 25.1278 13.4999 25.3242 13.4999 25.5498V27C13.4999 27.2761 13.7238 27.5 13.9999 27.5H17.9999C18.276 27.5 18.4999 27.2761 18.4999 27V25.5498C18.4999 25.3242 18.6514 25.1278 18.8665 25.0598C20.1977 24.639 21.4021 23.933 22.408 23.0134C22.5743 22.8613 22.8199 22.8284 23.0151 22.9411L24.2713 23.6664C24.5104 23.8045 24.8162 23.7225 24.9543 23.4834L26.9543 20.0193C27.0924 19.7802 27.0104 19.4744 26.7713 19.3363L25.5189 18.6132C25.3237 18.5005 25.2294 18.2714 25.2779 18.0512C25.4232 17.3906 25.4999 16.7043 25.4999 16C25.4999 15.2982 25.4238 14.6142 25.2794 13.9558C25.2311 13.7357 25.3255 13.5068 25.5206 13.3942L26.7749 12.67C27.014 12.5319 27.096 12.2261 26.9579 11.987L24.9579 8.52286C24.8198 8.28371 24.514 8.20178 24.2749 8.33985L23.0207 9.06398C22.8253 9.17675 22.5796 9.14376 22.4133 8.99145C21.4063 8.0695 20.2 7.3617 18.8665 6.94016C18.6515 6.87217 18.4999 6.67583 18.4999 6.45024V5C18.4999 4.72386 18.276 4.5 17.9999 4.5H13.9999ZM20.9999 16C20.9999 18.7614 18.7613 21 15.9999 21C13.2385 21 10.9999 18.7614 10.9999 16C10.9999 13.2386 13.2385 11 15.9999 11C18.7613 11 20.9999 13.2386 20.9999 16Z" fill="black"/>
</svg>
