<svg width="32" height="32" viewBox="0 0 32 32" fill="none" xmlns="http://www.w3.org/2000/svg">
<path d="M25.7439 8C25.9098 7.53083 26 7.02595 26 6.5V6.4C26 3.96995 24.0301 2 21.6 2C19.2383 2 17.1662 3.2405 16 5.10548C14.8338 3.2405 12.7617 2 10.4 2C7.96995 2 6 3.96995 6 6.4V6.5C6 7.02595 6.09023 7.53083 6.25606 8H5C3.34315 8 2 9.34315 2 11V15C2 16.3062 2.83481 17.4175 4 17.8293V27C4 28.6569 5.34315 30 7 30H25C26.6569 30 28 28.6569 28 27V17.8293C29.1652 17.4175 30 16.3062 30 15V11C30 9.34315 28.6569 8 27 8H25.7439ZM13.9502 8H10.5C9.67157 8 9 7.32843 9 6.5V6.4C9 5.6268 9.6268 5 10.4 5C12.1838 5 13.6646 6.29737 13.9502 8ZM21.5 8H18.0498C18.3354 6.29737 19.8162 5 21.6 5C22.3732 5 23 5.6268 23 6.4V6.5C23 7.32843 22.3284 8 21.5 8ZM27 10C27.5523 10 28 10.4477 28 11V15C28 15.5523 27.5523 16 27 16H17.5V10H27ZM14.5 10V16H5C4.44772 16 4 15.5523 4 15V11C4 10.4477 4.44772 10 5 10H14.5ZM14.5 18V28H7C6.44772 28 6 27.5523 6 27V18H14.5ZM17.5 28V18H26V27C26 27.5523 25.5523 28 25 28H17.5Z" fill="black"/>
</svg>
