<svg width="32" height="32" viewBox="0 0 32 32" fill="none" xmlns="http://www.w3.org/2000/svg">
<path d="M26 6.5C26 7.02595 25.9098 7.53083 25.7439 8H28C29.1046 8 30 8.89543 30 10V14C30 15.1046 29.1046 16 28 16H17.5V8H14.5V16L4 16C2.89543 16 2 15.1046 2 14V10C2 8.89543 2.89543 8 4 8H6.25606C6.09023 7.53083 6 7.02595 6 6.5V6.4C6 3.96995 7.96995 2 10.4 2C12.7617 2 14.8338 3.2405 16 5.10548C17.1662 3.2405 19.2383 2 21.6 2C24.0301 2 26 3.96995 26 6.4V6.5ZM10.5 8H13.9502C13.6646 6.29737 12.1838 5 10.4 5C9.6268 5 9 5.6268 9 6.4V6.5C9 7.32843 9.67157 8 10.5 8ZM18.0498 8H21.5C22.3284 8 23 7.32843 23 6.5V6.4C23 5.6268 22.3732 5 21.6 5C19.8162 5 18.3354 6.29737 18.0498 8ZM4 27L4 18H14.5V30H7C5.34315 30 4 28.6569 4 27ZM17.5 30V18H28V27C28 28.6569 26.6569 30 25 30H17.5Z" fill="black"/>
</svg>
