<svg width="32" height="32" viewBox="0 0 32 32" fill="none" xmlns="http://www.w3.org/2000/svg">
<path d="M31.1165 6.42264C30.9832 6.14872 30.7801 5.91478 30.5276 5.74438C30.2751 5.57397 29.9821 5.47314 29.6782 5.45204L28.1771 5.31414L30.8184 2.64914C30.9864 2.47694 31.0796 2.24532 31.0776 2.00473C31.0757 1.76414 30.9788 1.53406 30.8079 1.36461C30.6371 1.19516 30.4063 1.10007 30.1657 1.10004C29.9251 1.1 29.6942 1.19504 29.5234 1.36444L26.8679 4.04369L26.7261 2.49994C26.705 2.19623 26.6043 1.90342 26.4341 1.65101C26.2639 1.39859 26.0301 1.19547 25.7565 1.06209C25.4497 0.92056 25.1068 0.876902 24.7744 0.937053C24.442 0.997203 24.1361 1.15824 23.8984 1.39829L21.9307 3.36654C21.8358 3.46141 21.763 3.57599 21.7174 3.70214C21.6718 3.8283 21.6545 3.96295 21.6667 4.09654L22.0095 7.82419C22.0389 8.14351 21.998 8.46538 21.8896 8.76719C21.7813 9.069 21.6082 9.34341 21.3824 9.57114L14.5101 16.5031C14.4254 16.5884 14.3583 16.6897 14.3127 16.8009C14.2671 16.9122 14.2439 17.0314 14.2444 17.1517C14.2449 17.2719 14.2691 17.3909 14.3156 17.5019C14.3621 17.6128 14.43 17.7134 14.5154 17.7981C14.5997 17.8821 14.6999 17.9485 14.8102 17.9933C14.9204 18.0381 15.0385 18.0605 15.1576 18.0591C15.2777 18.0596 15.3968 18.0363 15.5079 17.9906C15.619 17.9449 15.72 17.8777 15.8051 17.7929L22.7173 10.8211C22.9453 10.5912 23.2213 10.4145 23.5255 10.3037C23.8298 10.193 24.1548 10.1509 24.4773 10.1805L28.0819 10.5118C28.11 10.5143 28.1381 10.5156 28.1655 10.5156C28.2855 10.5157 28.4044 10.492 28.5152 10.4461C28.6261 10.4001 28.7268 10.3328 28.8116 10.2479L30.7801 8.27994C31.0202 8.0424 31.1812 7.73668 31.2414 7.40437C31.3016 7.07207 31.258 6.72929 31.1165 6.42264ZM27.8226 8.65264L23.8876 8.29109L23.5256 4.35609L24.9321 2.94934L25.2243 6.12774C25.2438 6.3403 25.3371 6.53933 25.488 6.69027C25.6389 6.84122 25.8379 6.93456 26.0505 6.95409L29.2285 7.24634L27.8226 8.65264Z" fill="black"/>
<path d="M16.9375 12.279C15.8223 11.8688 14.6004 11.8525 13.4746 12.2327C12.3488 12.613 11.387 13.3669 10.7489 14.3694C10.1109 15.3718 9.835 16.5623 9.96708 17.7432C10.0992 18.9241 10.6313 20.0243 11.4751 20.861C12.3188 21.6977 13.4234 22.2205 14.6054 22.3426C15.7874 22.4647 16.9756 22.1788 17.9726 21.5323C18.9696 20.8859 19.7154 19.9177 20.0862 18.7888C20.4569 17.6598 20.4303 16.438 20.0106 15.3263L16.6889 18.6768C16.2836 19.0818 15.7342 19.3095 15.1613 19.31C14.5883 19.3104 14.0386 19.0837 13.6326 18.6794C13.2266 18.2751 12.9975 17.7263 12.9956 17.1534C12.9936 16.5804 13.219 16.0301 13.6222 15.6231L16.9375 12.279Z" fill="black"/>
<path d="M27.9678 11.7566L24.363 11.4253C24.3341 11.4226 24.3052 11.4213 24.2764 11.4213C24.0243 11.422 23.7828 11.5227 23.605 11.7013L22.8254 12.4876C23.9694 14.3665 24.3861 16.5991 23.997 18.7642C23.6079 20.9293 22.4398 22.8771 20.7131 24.2401C18.9865 25.6031 16.8207 26.287 14.6244 26.1627C12.4282 26.0385 10.3533 25.1147 8.79137 23.5657C7.22943 22.0167 6.28844 19.9496 6.14595 17.7545C6.00346 15.5593 6.66932 13.3879 8.01789 11.65C9.36646 9.91206 11.3045 8.72781 13.4662 8.32068C15.628 7.91356 17.8641 8.31172 19.7524 9.44003L20.4947 8.69118C20.592 8.59318 20.6667 8.47501 20.7133 8.34501C20.76 8.21501 20.7775 8.07636 20.7647 7.93883L20.4221 4.21113C20.4187 4.17343 20.4257 4.13678 20.4241 4.09918C17.4119 2.88468 14.0723 2.75014 10.9722 3.71841C7.87209 4.68667 5.20267 6.69806 3.41721 9.41102C1.63174 12.124 0.840288 15.3713 1.17723 18.6016C1.51417 21.8318 2.95875 24.8459 5.26566 27.132C7.57257 29.4181 10.5996 30.8353 13.8328 31.1429C17.066 31.4506 20.306 30.6297 23.0026 28.8197C25.6993 27.0098 27.6864 24.3222 28.6265 21.2135C29.5667 18.1048 29.4019 14.7665 28.1601 11.7654C28.097 11.7652 28.0328 11.7625 27.9678 11.7566Z" fill="black"/>
</svg>
