<svg width="32" height="32" viewBox="0 0 32 32" fill="none" xmlns="http://www.w3.org/2000/svg">
<g clip-path="url(#clip0_230_303)">
<path d="M23.5098 10.505L13.3975 13.3185L11.8975 7.49426L21.9014 4.67981L23.5098 10.505Z" stroke="black"/>
<path d="M7.32031 1.31262L11.4365 17.3058L10.6211 17.5529L10.6201 17.546L10.1035 17.7032L9.7959 17.796L6.14258 3.06653L6.04883 2.68762H0.791992V1.31262H7.32031Z" stroke="black"/>
<path d="M30.7373 20.8282L30.8574 21.3322L30.9248 21.3126L31.1113 22.0968L20.7803 25.1056L20.2031 23.2931L30.6328 20.3907L30.7373 20.8282Z" stroke="black"/>
<path d="M12.6736 22.286C11.2127 22.286 10.0291 23.4706 10.0291 24.9305C10.0291 26.3919 11.2127 27.576 12.6736 27.576C14.1336 27.576 15.3181 26.392 15.3181 24.9305C15.318 23.4698 14.1335 22.2861 12.6736 22.286ZM11.8699 29.5868L11.4949 29.4901C10.9811 29.3576 10.5028 29.1458 10.0769 28.8632L9.73608 28.6366L9.44604 28.9257L8.98608 29.3846L8.21948 28.618L8.67847 28.16L8.96851 27.871L8.74194 27.5292C8.45999 27.1041 8.2483 26.6264 8.11499 26.1132L8.01831 25.7391H6.91675V24.1229H8.01831L8.11499 23.7489C8.24514 23.2489 8.45167 22.7803 8.72437 22.3632L8.94604 22.0233L8.21948 21.2968L8.98608 20.5292L9.70386 21.2469L10.0457 21.0175C10.4773 20.7271 10.965 20.5096 11.489 20.3739L11.864 20.2772V19.1747H13.4812V20.2772L13.8562 20.3739C14.369 20.5072 14.8456 20.7184 15.2703 20.9999L15.6111 21.2264L15.9001 20.9364L16.3591 20.4764L17.1257 21.244L16.6667 21.704L16.3777 21.994L16.6042 22.3348C16.888 22.7616 17.0995 23.2422 17.2322 23.7577L17.3289 24.1327H18.4304V25.7313H17.3289L17.2322 26.1073C17.0979 26.633 16.88 27.1241 16.5876 27.5585L16.3572 27.8993L17.1277 28.6698L16.3591 29.4374L15.5818 28.66L15.2419 28.8807C14.8213 29.1539 14.3536 29.3617 13.8533 29.4901L13.4773 29.5858V30.6874H11.8699V29.5868Z" stroke="black"/>
<path d="M31.0964 17.1281L19.2283 20.4064C19.2253 20.3995 19.2229 20.3916 19.2195 20.3839C19.1947 20.3273 19.1589 20.249 19.114 20.1593C19.0267 19.9848 18.8939 19.7446 18.7283 19.5402L18.7107 19.5206L18.6912 19.4982C18.6815 19.487 18.6667 19.4699 18.6492 19.4513L18.6443 19.4454L18.6414 19.4425C18.6275 19.4253 18.6093 19.4025 18.5867 19.3761C18.5361 19.3172 18.463 19.2374 18.3679 19.1447C18.1779 18.9592 17.8964 18.7202 17.5232 18.4982C16.8524 18.099 15.8922 17.7591 14.6599 17.8732L14.0642 15.5382L29.5232 11.3009L31.0964 17.1281Z" stroke="black"/>
</g>
<defs>
<clipPath id="clip0_230_303">
<rect width="32" height="32" fill="white"/>
</clipPath>
</defs>
</svg>
