<svg width="32" height="32" viewBox="0 0 32 32" fill="none" xmlns="http://www.w3.org/2000/svg">
<path d="M17.789 4.77642C16.6628 4.21336 15.3374 4.21336 14.2112 4.77642L4.27599 9.74405C2.82674 10.4687 2.79558 12.5257 4.22222 13.2938L10 16.405V14.5C10 14.1487 10.1843 13.8232 10.4855 13.6425L15.4855 10.6425C15.9591 10.3584 16.5733 10.5119 16.8575 10.9855C17.1416 11.4591 16.9881 12.0733 16.5145 12.3575L12 15.0662V17.4819L14.1037 18.6146C15.2876 19.2521 16.7126 19.2521 17.8965 18.6146L27.778 13.2938C29.2046 12.5257 29.1735 10.4687 27.7242 9.74405L17.789 4.77642ZM10 18.1086L7.00001 16.4932L7 16.5V19.2396C7 19.9575 7.25528 20.7151 7.83878 21.271C8.49224 21.8935 9.22011 22.4224 10 22.8576V27C10 27.5523 10.4477 28 11 28C11.5523 28 12 27.5523 12 27V23.7357C16.1072 25.101 21.0032 24.2794 24.1612 21.271C24.7447 20.7151 25 19.9575 25 19.2396V16.5L25 16.4933L18.6077 19.9353C16.9798 20.8119 15.0204 20.8119 13.3926 19.9353L12 19.1855V23.7357C11.3068 23.5053 10.6361 23.2126 10 22.8576V18.1086Z" fill="black"/>
</svg>
