<svg width="32" height="32" viewBox="0 0 32 32" fill="none" xmlns="http://www.w3.org/2000/svg">
<path d="M16.8945 6.56527L26.8298 11.5329L16.9483 16.8537C16.3563 17.1724 15.6439 17.1724 15.0519 16.8537L12 15.2104V15.0662L16.5145 12.3575C16.9881 12.0734 17.1416 11.4591 16.8575 10.9855C16.5733 10.512 15.9591 10.3584 15.4855 10.6425L10.4855 13.6425C10.2838 13.7636 10.1345 13.9495 10.0579 14.1646L5.17042 11.5329L15.1057 6.56527C15.6687 6.28374 16.3315 6.28374 16.8945 6.56527ZM10 16.405V20.4813C9.72702 20.2782 9.46581 20.0587 9.21828 19.8229C9.09246 19.703 9 19.5013 9 19.2396V15.8665L10 16.405ZM12 21.6042V17.4819L14.1037 18.6146C15.2876 19.2521 16.7126 19.2521 17.8965 18.6146L23 15.8666V19.2396C23 19.5013 22.9075 19.703 22.7817 19.8229C20.0142 22.4593 15.5374 23.0531 12 21.6042ZM12 23.7357C16.1072 25.101 21.0032 24.2794 24.1612 21.271C24.7447 20.7151 25 19.9575 25 19.2396V14.7897L27.778 13.2938C29.2046 12.5257 29.1735 10.4687 27.7242 9.74405L17.789 4.77642C16.6628 4.21336 15.3374 4.21336 14.2112 4.77642L4.27599 9.74405C2.82674 10.4687 2.79558 12.5257 4.22222 13.2938L7 14.7896V19.2396C7 19.9575 7.25528 20.7151 7.83878 21.271C8.49224 21.8935 9.22011 22.4224 10 22.8576V27C10 27.5523 10.4477 28 11 28C11.5523 28 12 27.5523 12 27V23.7357Z" fill="black"/>
</svg>
