<svg width="32" height="32" viewBox="0 0 32 32" fill="none" xmlns="http://www.w3.org/2000/svg">
<path d="M25 6C25.5523 6 26 6.44772 26 7V25C26 25.5523 25.5523 26 25 26H7C6.44772 26 6 25.5523 6 25V7C6 6.44772 6.44772 6 7 6H25ZM7 4C5.34315 4 4 5.34315 4 7V25C4 26.6569 5.34315 28 7 28H25C26.6569 28 28 26.6569 28 25V7C28 5.34315 26.6569 4 25 4H7ZM13 10V13H10V10H13ZM10 8C8.89543 8 8 8.89543 8 10V13C8 14.1046 8.89543 15 10 15H13C14.1046 15 15 14.1046 15 13V10C15 8.89543 14.1046 8 13 8H10ZM19 10V13H22V10H19ZM17 10C17 8.89543 17.8954 8 19 8H22C23.1046 8 24 8.89543 24 10V13C24 14.1046 23.1046 15 22 15H19C17.8954 15 17 14.1046 17 13V10ZM13 19V22H10V19H13ZM10 17C8.89543 17 8 17.8954 8 19V22C8 23.1046 8.89543 24 10 24H13C14.1046 24 15 23.1046 15 22V19C15 17.8954 14.1046 17 13 17H10ZM19 19V22H22V19H19ZM17 19C17 17.8954 17.8954 17 19 17H22C23.1046 17 24 17.8954 24 19V22C24 23.1046 23.1046 24 22 24H19C17.8954 24 17 23.1046 17 22V19Z" fill="black"/>
</svg>
