<svg width="32" height="32" viewBox="0 0 32 32" fill="none" xmlns="http://www.w3.org/2000/svg">
<path d="M6 4C4.89543 4 4 4.89543 4 6V12C4 13.1046 4.89543 14 6 14H12C13.1046 14 14 13.1046 14 12V6C14 4.89543 13.1046 4 12 4H6ZM20 4C18.8954 4 18 4.89543 18 6V12C18 13.1046 18.8954 14 20 14H26C27.1046 14 28 13.1046 28 12V6C28 4.89543 27.1046 4 26 4H20ZM4 20C4 18.8954 4.89543 18 6 18H12C13.1046 18 14 18.8954 14 20V26C14 27.1046 13.1046 28 12 28H6C4.89543 28 4 27.1046 4 26V20ZM20 18C18.8954 18 18 18.8954 18 20V26C18 27.1046 18.8954 28 20 28H26C27.1046 28 28 27.1046 28 26V20C28 18.8954 27.1046 18 26 18H20Z" fill="black"/>
</svg>
