<svg width="32" height="32" viewBox="0 0 32 32" fill="none" xmlns="http://www.w3.org/2000/svg">
<path d="M12 6V10H6L6 6H12ZM6 4C4.89543 4 4 4.89543 4 6V10C4 11.1046 4.89543 12 6 12H12C13.1046 12 14 11.1046 14 10V6C14 4.89543 13.1046 4 12 4H6ZM26 6V26H20V6H26ZM20 4C18.8954 4 18 4.89543 18 6V26C18 27.1046 18.8954 28 20 28H26C27.1046 28 28 27.1046 28 26V6C28 4.89543 27.1046 4 26 4H20ZM6 18L6 26H12V18H6ZM4 18C4 16.8954 4.89543 16 6 16H12C13.1046 16 14 16.8954 14 18V26C14 27.1046 13.1046 28 12 28H6C4.89543 28 4 27.1046 4 26V18Z" fill="black"/>
</svg>
