<svg width="32" height="32" viewBox="0 0 32 32" fill="none" xmlns="http://www.w3.org/2000/svg">
<path d="M22.6675 6.17383C23.6428 6.17396 24.582 6.56584 25.2769 7.26855C25.9722 7.97193 26.3657 8.92983 26.3657 9.93164C26.3656 10.9333 25.9721 11.8905 25.2769 12.5938C24.582 13.2965 23.6428 13.6883 22.6675 13.6885C21.692 13.6885 20.7521 13.2966 20.0571 12.5938C19.3619 11.8905 18.9684 10.9333 18.9683 9.93164C18.9683 8.92983 19.3618 7.97193 20.0571 7.26855C20.7521 6.56573 21.692 6.17383 22.6675 6.17383Z" fill="white" stroke="#0F3849" stroke-width="3"/>
<path d="M22.667 15.6373C23.8405 15.6374 24.8797 15.8233 25.7773 16.236L25.7812 16.2379C28.2845 17.3786 30.1009 19.7267 30.4551 22.6031C30.4432 22.7783 30.3773 22.9152 30.293 23.0045C30.2049 23.0977 30.0907 23.1519 29.9453 23.152H15.3887C15.2435 23.152 15.1292 23.0978 15.041 23.0045C14.9566 22.9152 14.8898 22.7784 14.8779 22.6031C15.2317 19.7267 17.0484 17.3787 19.5518 16.2379L19.5566 16.236C20.4543 15.8234 21.4935 15.6373 22.667 15.6373Z" fill="white" stroke="#0F3849" stroke-width="3"/>
<path d="M9.33398 6.17383C10.3093 6.17396 11.2485 6.56584 11.9434 7.26855C12.6387 7.97193 13.0322 8.92983 13.0322 9.93164C13.0321 10.9333 12.6386 11.8905 11.9434 12.5938C11.2485 13.2965 10.3093 13.6883 9.33398 13.6885C8.35849 13.6885 7.41861 13.2966 6.72363 12.5938C6.02844 11.8905 5.63486 10.9333 5.63477 9.93164C5.63477 8.92983 6.02827 7.97193 6.72363 7.26855C7.41861 6.56573 8.35849 6.17383 9.33398 6.17383Z" fill="white" stroke="#0F3849" stroke-width="3"/>
<path d="M9.3335 15.6373C10.507 15.6374 11.5462 15.8233 12.4438 16.236L12.4478 16.2379C14.951 17.3786 16.7674 19.7267 17.1216 22.6031C17.1097 22.7783 17.0438 22.9152 16.9595 23.0045C16.8714 23.0977 16.7572 23.1519 16.6118 23.152H2.05518C1.90998 23.152 1.79568 23.0978 1.70752 23.0045C1.62314 22.9152 1.55632 22.7784 1.54443 22.6031C1.89817 19.7267 3.71494 17.3787 6.21826 16.2379L6.22314 16.236C7.12076 15.8234 8.16004 15.6373 9.3335 15.6373Z" fill="white" stroke="#0F3849" stroke-width="3"/>
<path d="M11.5198 16.3199C7.69722 17.9303 4.80414 21.3522 4.31982 25.4399C4.31982 26.8025 5.26318 27.8399 6.72647 27.8399H25.2725C26.7363 27.8399 27.5198 26.8025 27.5198 25.4399C27.035 21.3522 24.1416 17.9303 20.3198 16.3199C19.4601 17.9303 18.0965 19.169 15.9995 19.169C13.9025 19.169 12.3789 17.9303 11.5198 16.3199Z" fill="white"/>
<path d="M22.6668 8.69328C22.6668 10.4614 21.9645 12.1571 20.7142 13.4073C19.464 14.6576 17.7683 15.3599 16.0002 15.3599C14.2321 15.3599 12.5364 14.6576 11.2861 13.4073C10.0359 12.1571 9.3335 10.4614 9.3335 8.69328C9.3335 6.92517 10.0359 5.22948 11.2861 3.97923C12.5364 2.72899 14.2321 2.02661 16.0002 2.02661C17.7683 2.02661 19.464 2.72899 20.7142 3.97923C21.9645 5.22948 22.6668 6.92517 22.6668 8.69328Z" fill="white"/>
<path d="M15.9995 13.76C14.125 13.76 12.3381 14.1646 10.7241 14.888C6.4882 16.7861 3.41656 20.8995 2.87988 25.792C2.87988 27.4539 4.10252 28.8 5.724 28.8H26.275C27.8971 28.8 29.1199 27.4539 29.1199 25.792C28.5826 20.8995 25.5102 16.7861 21.2753 14.888C19.6605 14.1646 17.8741 13.76 15.9995 13.76Z" fill="white"/>
<path d="M27.9168 27.3334C27.9168 27.702 27.6188 28 27.2502 28H24.0002C23.6315 28 23.3335 27.702 23.3335 27.3334C23.3335 26.9647 23.6315 26.6667 24.0002 26.6667H26.5628C26.2175 21.1407 21.6115 16.75 16.0002 16.75C10.3888 16.75 5.78283 21.1407 5.4375 26.6667H8.00016C8.36816 26.6667 8.66683 26.9647 8.66683 27.3334C8.66683 27.702 8.36816 28 8.00016 28H4.75016C4.38216 28 4.0835 27.702 4.0835 27.3334C4.0835 20.7627 9.4295 15.4167 16.0002 15.4167C22.5708 15.4167 27.9168 20.7627 27.9168 27.3334ZM16.6668 20V18.6667C16.6668 18.298 16.3682 18 16.0002 18C15.6322 18 15.3335 18.298 15.3335 18.6667V20C15.3335 20.3687 15.6322 20.6667 16.0002 20.6667C16.3682 20.6667 16.6668 20.3687 16.6668 20ZM18.5835 22.7754C18.2642 22.5914 17.8568 22.7007 17.6728 23.0194L15.9488 26.0047C15.2375 26.0327 14.6668 26.616 14.6668 27.3334C14.6668 27.702 14.9655 28 15.3335 28H16.6668C17.0355 28 17.3335 27.702 17.3335 27.3334C17.3335 27.0747 17.2562 26.8347 17.1282 26.63L18.8275 23.686C19.0122 23.3674 18.9028 22.9594 18.5835 22.7754ZM20.6668 19.25C20.3475 19.066 19.9402 19.1754 19.7562 19.494L19.0895 20.6487C18.9055 20.968 19.0148 21.3754 19.3335 21.5594C19.4382 21.62 19.5528 21.6487 19.6662 21.6487C19.8968 21.6487 20.1208 21.5287 20.2442 21.3154L20.9108 20.1607C21.0955 19.842 20.9862 19.434 20.6668 19.25ZM24.0835 22.6667C23.8988 22.3474 23.4895 22.238 23.1728 22.4227L22.0182 23.0894C21.6988 23.2734 21.5895 23.6807 21.7735 24C21.8975 24.2134 22.1208 24.3334 22.3515 24.3334C22.4648 24.3334 22.5795 24.3047 22.6842 24.244L23.8388 23.5774C24.1582 23.3934 24.2675 22.986 24.0835 22.6667ZM12.2442 19.494C12.0595 19.1754 11.6522 19.0647 11.3335 19.25C11.0148 19.434 10.9055 19.842 11.0895 20.1607L11.7562 21.3154C11.8802 21.5287 12.1035 21.6487 12.3342 21.6487C12.4468 21.6487 12.5615 21.62 12.6668 21.5594C12.9855 21.3754 13.0948 20.9674 12.9108 20.6487L12.2442 19.494ZM9.98283 23.0894L8.82816 22.4227C8.5095 22.2387 8.1015 22.3474 7.9175 22.6667C7.7335 22.986 7.84283 23.3934 8.1615 23.5774L9.31616 24.244C9.42083 24.3047 9.53616 24.3334 9.64883 24.3334C9.8795 24.3334 10.1035 24.214 10.2268 24C10.4108 23.6807 10.3015 23.2734 9.98283 23.0894ZM10.6668 8.66671C10.6668 5.72604 13.0595 3.33337 16.0002 3.33337C18.9408 3.33337 21.3335 5.72604 21.3335 8.66671C21.3335 11.6074 18.9408 14 16.0002 14C13.0595 14 10.6668 11.6074 10.6668 8.66671ZM12.0002 8.66671C12.0002 10.8727 13.7942 12.6667 16.0002 12.6667C18.2062 12.6667 20.0002 10.8727 20.0002 8.66671C20.0002 6.46071 18.2062 4.66671 16.0002 4.66671C13.7942 4.66671 12.0002 6.46071 12.0002 8.66671Z" fill="#0F3849"/>
</svg>
