<svg width="32" height="32" viewBox="0 0 32 32" fill="none" xmlns="http://www.w3.org/2000/svg">
<g clip-path="url(#clip0_666_8523)">
<path d="M16 17.5475C18.8374 17.5475 21.1375 15.2473 21.1375 12.41C21.1375 9.5726 18.8374 7.27246 16 7.27246C13.1627 7.27246 10.8625 9.5726 10.8625 12.41C10.8625 15.2473 13.1627 17.5475 16 17.5475Z" fill="black"/>
<path d="M28.0851 11.9551C28.2538 11.7363 28.3769 11.4859 28.4471 11.2187C28.5173 10.9515 28.5332 10.6729 28.4938 10.3995C28.4544 10.126 28.3605 9.86328 28.2178 9.62677C28.075 9.39026 27.8862 9.1848 27.6626 9.02255L26.7876 8.38755C26.4991 8.17832 26.2696 7.89798 26.1215 7.5738C25.9735 7.24961 25.9118 6.89262 25.9426 6.53755L26.0351 5.46005C26.0604 5.18396 26.0298 4.90561 25.9452 4.64159C25.8606 4.37757 25.7237 4.13329 25.5426 3.92331C25.3616 3.71334 25.1401 3.54197 24.8914 3.41943C24.6427 3.29689 24.3719 3.22568 24.0951 3.21005L23.0151 3.15005C22.6594 3.1298 22.315 3.01785 22.0153 2.8251C21.7157 2.63235 21.471 2.36535 21.3051 2.05005L20.8051 1.09255C20.6754 0.848357 20.4981 0.632684 20.2835 0.458328C20.0689 0.283972 19.8215 0.154483 19.5559 0.0775413C19.2903 0.000599474 19.012 -0.0222284 18.7375 0.0104115C18.4629 0.0430515 18.1977 0.130494 17.9576 0.267555L17.0176 0.800055C16.7073 0.975777 16.3567 1.06814 16.0001 1.06814C15.6435 1.06814 15.2929 0.975777 14.9826 0.800055L14.0426 0.267555C13.802 0.131272 13.5364 0.0447081 13.2617 0.0129975C12.987 -0.018713 12.7087 0.00507621 12.4434 0.0829538C12.178 0.160831 11.931 0.291211 11.717 0.466357C11.503 0.641502 11.3264 0.857847 11.1976 1.10255L10.6976 2.06005C10.5317 2.37535 10.287 2.64235 9.98736 2.8351C9.68772 3.02785 9.34331 3.1398 8.9876 3.16005L7.9076 3.22005C7.63079 3.23568 7.35997 3.30689 7.11127 3.42943C6.86258 3.55197 6.64111 3.72334 6.46006 3.93331C6.27902 4.14329 6.14211 4.38757 6.0575 4.65159C5.9729 4.91561 5.94232 5.19396 5.9676 5.47005L6.0601 6.54755C6.09087 6.90262 6.02922 7.25961 5.88115 7.5838C5.73308 7.90798 5.50362 8.18832 5.2151 8.39755L4.3401 9.03255C4.11649 9.1948 3.92771 9.40026 3.78493 9.63677C3.64216 9.87328 3.54829 10.136 3.5089 10.4095C3.4695 10.6829 3.48537 10.9615 3.55558 11.2287C3.62578 11.4959 3.74888 11.7463 3.9176 11.9651L4.5776 12.8201C4.79545 13.102 4.93664 13.4355 4.98746 13.7881C5.03827 14.1408 4.99698 14.5006 4.8676 14.8326L4.4751 15.8326C4.37476 16.0899 4.32708 16.3648 4.33487 16.6409C4.34266 16.917 4.40577 17.1888 4.52046 17.44C4.63514 17.6913 4.79908 17.9171 5.00256 18.1039C5.20605 18.2907 5.44494 18.4347 5.7051 18.5276L6.7226 18.8901C7.05854 19.0095 7.35783 19.2139 7.59134 19.4833C7.82485 19.7527 7.98462 20.078 8.0551 20.4276L8.2501 21.3776L5.6526 29.8201L9.7726 28.5301L12.3376 32.0001L14.6801 24.3426C15.0307 24.6336 15.4678 24.8004 15.9231 24.8172C16.3785 24.8339 16.8266 24.6996 17.1976 24.4351L19.6626 32.0001L22.2276 28.5301L26.3476 29.8201L23.6876 21.6601C23.7051 21.6026 23.7201 21.5476 23.7326 21.4876L23.9451 20.4276C24.0156 20.078 24.1753 19.7527 24.4089 19.4833C24.6424 19.2139 24.9417 19.0095 25.2776 18.8901L26.2951 18.5276C26.5553 18.4347 26.7941 18.2907 26.9976 18.1039C27.2011 17.9171 27.365 17.6913 27.4797 17.44C27.5944 17.1888 27.6575 16.917 27.6653 16.6409C27.6731 16.3648 27.6254 16.0899 27.5251 15.8326L27.1326 14.8326C27.0032 14.5006 26.9619 14.1408 27.0127 13.7881C27.0636 13.4355 27.2048 13.102 27.4226 12.8201L28.0851 11.9551ZM8.8626 12.4101C8.8626 10.9984 9.28121 9.61843 10.0655 8.44467C10.8498 7.27092 11.9645 6.35608 13.2687 5.81586C14.5729 5.27564 16.008 5.1343 17.3926 5.4097C18.7771 5.6851 20.0489 6.36488 21.0471 7.36308C22.0453 8.36128 22.725 9.63306 23.0005 11.0176C23.2759 12.4021 23.1345 13.8372 22.5943 15.1415C22.0541 16.4457 21.1392 17.5604 19.9655 18.3447C18.7917 19.1289 17.4118 19.5476 16.0001 19.5476C14.1077 19.5456 12.2934 18.7929 10.9553 17.4548C9.61721 16.1167 8.86458 14.3024 8.8626 12.4101Z" fill="black"/>
</g>
<defs>
<clipPath id="clip0_666_8523">
<rect width="32" height="32" fill="white"/>
</clipPath>
</defs>
</svg>
