<svg width="32" height="32" viewBox="0 0 32 32" fill="none" xmlns="http://www.w3.org/2000/svg">
<path d="M14.9999 16C15.5522 16 15.9999 15.5523 15.9999 15V5C15.9999 4.44772 16.4476 4 16.9999 4C17.5522 4 17.9999 4.44772 17.9999 5V15C17.9999 15.5523 18.4476 16 18.9999 16C19.5522 16 19.9999 15.5523 19.9999 15V7C19.9999 6.44772 20.4476 6 20.9999 6C21.5522 6 21.9999 6.44771 21.9999 7V15C21.9999 15.5523 22.4476 16 22.9999 16C23.5522 16 23.9999 15.5523 23.9999 15V12C23.9999 11.4477 24.4476 11 24.9999 11C25.5522 11 25.9999 11.4477 25.9999 12V20L25.9999 20.0068V23L25.9999 23.0168V23.6009C25.968 23.6743 25.9445 23.7526 25.9307 23.8345C25.5341 26.1985 23.4764 28 20.9999 28H14.9999C13.1244 28 11.4885 26.9678 10.632 25.4356C10.6165 25.4079 10.6 25.3813 10.5823 25.3557L6.11834 17.134C5.85481 16.6487 6.03464 16.0416 6.52 15.7781C7.00535 15.5145 7.61244 15.6944 7.87597 16.1797L10.1211 20.3147C10.3394 20.7167 10.8026 20.9194 11.246 20.8068C11.6894 20.6941 11.9999 20.295 11.9999 19.8375V7C11.9999 6.44772 12.4476 6 12.9999 6C13.5522 6 13.9999 6.44772 13.9999 7V15C13.9999 15.5523 14.4476 16 14.9999 16ZM19.8948 4.21009C19.5481 2.93647 18.3834 2 16.9999 2C15.6164 2 14.4517 2.93647 14.105 4.21009C13.763 4.07452 13.3901 4 12.9999 4C11.343 4 9.99989 5.34315 9.99989 7V15.9L9.63361 15.2254C8.84302 13.7693 7.02175 13.2299 5.56568 14.0204C4.10961 14.811 3.57012 16.6323 4.3607 18.0884L8.87541 26.4034C8.896 26.4413 8.9187 26.4774 8.94328 26.5116C10.1538 28.5954 12.4122 30 14.9999 30H20.9999C24.3277 30 27.1115 27.6788 27.8236 24.5672C27.9348 24.406 27.9999 24.2106 27.9999 24V23.0168L27.9999 23V20L27.9999 19.9932V12C27.9999 10.3431 26.6567 9 24.9999 9C24.6493 9 24.3127 9.06015 23.9999 9.17071V7C23.9999 5.34315 22.6567 4 20.9999 4C20.6096 4 20.2368 4.07452 19.8948 4.21009Z" fill="black"/>
</svg>
