<svg width="32" height="32" viewBox="0 0 32 32" fill="none" xmlns="http://www.w3.org/2000/svg">
<path d="M15.9999 12V16C15.9999 16.5523 15.5522 17 14.9999 17C14.4476 17 13.9999 16.5523 13.9999 16V13C13.9999 12.4477 13.5522 12 12.9999 12C12.4476 12 11.9999 12.4477 11.9999 13V19.8375C11.9999 20.2949 11.6894 20.6941 11.246 20.8067C10.8026 20.9193 10.3394 20.7167 10.1211 20.3146L9.38476 18.9585C9.12123 18.4731 8.51414 18.2933 8.02878 18.5568C7.54343 18.8204 7.3636 19.4275 7.62713 19.9128L10.5826 25.3562C10.6001 25.3816 10.6166 25.4081 10.632 25.4356C11.4885 26.9677 13.1243 28 14.9999 28H20.9999C23.4764 28 25.5341 26.1985 25.9307 23.8345C25.9445 23.7525 25.968 23.6743 25.9999 23.6009V15C25.9999 14.4477 25.5522 14 24.9999 14C24.4476 14 23.9999 14.4477 23.9999 15V16C23.9999 16.5523 23.5522 17 22.9999 17C22.4476 17 21.9999 16.5523 21.9999 16V13C21.9999 12.4477 21.5522 12 20.9999 12C20.4476 12 19.9999 12.4477 19.9999 13V16C19.9999 16.5523 19.5522 17 18.9999 17C18.4476 17 17.9999 16.5523 17.9999 16V12C17.9999 11.4477 17.5522 11 16.9999 11C16.4476 11 15.9999 11.4477 15.9999 12ZM16.9999 9C18.0621 9 18.9955 9.5521 19.5285 10.385C19.9633 10.1399 20.4652 10 20.9999 10C22.3834 10 23.5481 10.9365 23.8948 12.2101C24.2368 12.0745 24.6096 12 24.9999 12C26.6567 12 27.9999 13.3431 27.9999 15V24C27.9999 24.2107 27.9348 24.4061 27.8235 24.5673C27.1114 27.6788 24.3276 30 20.9999 30H14.9999C12.4119 30 10.1533 28.5951 8.9429 26.511C8.91847 26.477 8.89591 26.4411 8.87541 26.4034L5.86949 20.8671C5.07891 19.4111 5.61839 17.5898 7.07447 16.7992C8.02328 16.284 9.12716 16.3336 9.99989 16.8336V13C9.99989 11.3431 11.343 10 12.9999 10C13.5345 10 14.0365 10.1399 14.4713 10.385C15.0043 9.5521 15.9376 9 16.9999 9Z" fill="black"/>
</svg>
