<svg width="32" height="32" viewBox="0 0 32 32" fill="none" xmlns="http://www.w3.org/2000/svg">
<path d="M12.9999 2C11.3431 2 9.99991 3.34315 9.99991 5V15.9001L9.63361 15.2254C8.84302 13.7693 7.02175 13.2299 5.56568 14.0204C4.10961 14.811 3.57012 16.6323 4.3607 18.0884L8.87541 26.4034C8.896 26.4413 8.9187 26.4774 8.94328 26.5116C10.1538 28.5954 12.4122 30 14.9999 30H20.9999C24.8659 30 27.9999 26.866 27.9999 23L27.9999 16.1947C27.9999 15.5554 27.8225 14.9287 27.4875 14.3842C26.6275 12.9868 25.0577 12.6913 23.8167 13.2036C23.5577 12.4973 23.0374 11.9007 22.3416 11.5528C21.4266 11.0953 20.4375 11.1529 19.6348 11.5645C19.1259 10.6323 18.1367 10 16.9999 10C16.6493 10 16.3127 10.0602 15.9999 10.1707V5C15.9999 3.34315 14.6568 2 12.9999 2ZM19.9999 15.5217V14.2341C20.0013 13.4918 20.7828 13.0095 21.4471 13.3416C21.7859 13.511 21.9999 13.8573 21.9999 14.2361V14.998C21.9999 14.9987 21.9999 14.9993 21.9999 15V16C21.9999 16.5523 22.4476 17 22.9999 17C23.5522 17 23.9999 16.5523 23.9999 16L23.9999 15.9342C23.9999 15.934 23.9999 15.9344 23.9999 15.9342C24.003 14.9655 25.2757 14.6062 25.7841 15.4324C25.9252 15.6617 25.9999 15.9256 25.9999 16.1947L25.9999 23C25.9999 25.7614 23.7613 28 20.9999 28H14.9999C13.1244 28 11.4885 26.9678 10.632 25.4356C10.6165 25.4079 10.6 25.3813 10.5823 25.3557L6.11834 17.134C5.85481 16.6487 6.03464 16.0416 6.52 15.7781C7.00535 15.5145 7.61244 15.6944 7.87597 16.1797L10.1211 20.3147C10.3394 20.7168 10.8027 20.9194 11.2461 20.8068C11.6895 20.6942 11.9999 20.295 11.9999 19.8376V5C11.9999 4.44772 12.4476 4 12.9999 4C13.5522 4 13.9999 4.44772 13.9999 5L13.9999 15C13.9999 15.5523 14.4476 16 14.9999 16C15.5522 16 15.9999 15.5523 15.9999 15L15.9999 13C15.9999 12.4477 16.4476 12 16.9999 12C17.5522 12 17.9999 12.4477 17.9999 13L17.9999 15.5217C17.9999 16.074 18.4476 16.5217 18.9999 16.5217C19.5522 16.5217 19.9999 16.074 19.9999 15.5217Z" fill="black"/>
</svg>
