<svg width="32" height="32" viewBox="0 0 32 32" fill="none" xmlns="http://www.w3.org/2000/svg">
<path d="M14.7067 10.6666H19.96L21.3733 5.01329C21.4097 4.83756 21.4811 4.67097 21.5833 4.5235C21.6855 4.37603 21.8165 4.25072 21.9683 4.15506C22.1201 4.05941 22.2897 3.99538 22.4669 3.96682C22.644 3.93826 22.8251 3.94576 22.9993 3.98886C23.1735 4.03196 23.3372 4.10977 23.4806 4.21764C23.624 4.32552 23.7442 4.46122 23.8339 4.61664C23.9236 4.77205 23.981 4.94397 24.0026 5.1221C24.0243 5.30023 24.0098 5.4809 23.96 5.65329L22.7067 10.6666H26.6667C27.0203 10.6666 27.3594 10.8071 27.6095 11.0571C27.8595 11.3072 28 11.6463 28 12C28 12.3536 27.8595 12.6927 27.6095 12.9428C27.3594 13.1928 27.0203 13.3333 26.6667 13.3333H22.04L20.7067 18.6666H24C24.3536 18.6666 24.6928 18.8071 24.9428 19.0571C25.1929 19.3072 25.3333 19.6463 25.3333 20C25.3333 20.3536 25.1929 20.6927 24.9428 20.9428C24.6928 21.1928 24.3536 21.3333 24 21.3333H20.04L18.6267 27C18.5838 27.1698 18.5078 27.3295 18.4032 27.47C18.2986 27.6105 18.1673 27.729 18.0169 27.8188C17.8664 27.9086 17.6998 27.9678 17.5265 27.9932C17.3531 28.0185 17.1765 28.0095 17.0067 27.9666C16.8368 27.9237 16.6771 27.8478 16.5366 27.7432C16.3961 27.6385 16.2776 27.5073 16.1878 27.3568C16.0981 27.2064 16.0388 27.0398 16.0134 26.8664C15.9881 26.6931 15.9971 26.5165 16.04 26.3466L17.2933 21.3333H12.04L10.6267 27C10.5838 27.1698 10.5078 27.3295 10.4032 27.47C10.2986 27.6105 10.1673 27.729 10.0169 27.8188C9.86644 27.9086 9.6998 27.9678 9.52647 27.9932C9.35314 28.0185 9.17651 28.0095 9.00667 27.9666C8.83682 27.9237 8.67709 27.8478 8.5366 27.7432C8.3961 27.6385 8.27758 27.5073 8.18782 27.3568C8.09806 27.2064 8.0388 27.0398 8.01344 26.8664C7.98808 26.6931 7.9971 26.5165 8.04 26.3466L9.29333 21.3333H5.33333C4.97971 21.3333 4.64057 21.1928 4.39052 20.9428C4.14048 20.6927 4 20.3536 4 20C4 19.6463 4.14048 19.3072 4.39052 19.0571C4.64057 18.8071 4.97971 18.6666 5.33333 18.6666H9.96L11.2933 13.3333H8C7.64638 13.3333 7.30724 13.1928 7.05719 12.9428C6.80714 12.6927 6.66667 12.3536 6.66667 12C6.66667 11.6463 6.80714 11.3072 7.05719 11.0571C7.30724 10.8071 7.64638 10.6666 8 10.6666H11.96L13.3733 5.01329C13.4097 4.83756 13.4811 4.67097 13.5833 4.5235C13.6855 4.37603 13.8165 4.25072 13.9683 4.15506C14.1201 4.05941 14.2897 3.99538 14.4669 3.96682C14.644 3.93826 14.8251 3.94576 14.9993 3.98886C15.1735 4.03196 15.3372 4.10977 15.4806 4.21764C15.624 4.32552 15.7441 4.46122 15.8339 4.61664C15.9236 4.77205 15.981 4.94397 16.0026 5.1221C16.0243 5.30023 16.0098 5.4809 15.96 5.65329L14.7067 10.6666ZM14.04 13.3333L12.7067 18.6666H17.96L19.2933 13.3333H14.04Z" fill="black"/>
</svg>
