<svg width="32" height="32" viewBox="0 0 32 32" fill="none" xmlns="http://www.w3.org/2000/svg">
<path d="M16 4C9.92487 4 5 8.92487 5 15H7C8.10457 15 9 15.8954 9 17V22C9 23.1046 8.10457 24 7 24H5C3.89543 24 3 23.1046 3 22V15C3 7.8203 8.8203 2 16 2C23.1797 2 29 7.8203 29 15V24C29 27.3137 26.3137 30 23 30H14C13.4477 30 13 29.5523 13 29V28C13 27.4477 13.4477 27 14 27H18C18.5523 27 19 27.4477 19 28H23C25.2091 28 27 26.2091 27 24H25C23.8954 24 23 23.1046 23 22V17C23 15.8954 23.8954 15 25 15H27C27 8.92487 22.0751 4 16 4Z" fill="black"/>
</svg>
