<svg width="32" height="32" viewBox="0 0 32 32" fill="none" xmlns="http://www.w3.org/2000/svg">
<path d="M5 15C5 8.92487 9.92487 4 16 4C22.0751 4 27 8.92487 27 15H26C24.8954 15 24 15.8954 24 17V22C24 23.1046 24.8954 24 26 24H27C27 26.2091 25.2091 28 23 28H19C19 27.4477 18.5523 27 18 27H14C13.4477 27 13 27.4477 13 28V29C13 29.5523 13.4477 30 14 30H23C26.3137 30 29 27.3137 29 24V15C29 7.8203 23.1797 2 16 2C8.8203 2 3 7.8203 3 15V15.2676C2.4022 15.6134 2 16.2597 2 17V22C2 23.1046 2.89543 24 4 24H5C6.10457 24 7 23.1046 7 22V17C7 15.8954 6.10457 15 5 15ZM27 22H26V17H27V22ZM4 17H5V22H4L4 17ZM13 6.49994C13 9.99481 10.5186 12.9971 6.97162 14.3032C7.24988 10.6698 9.68556 7.64021 13 6.49298L13 6.49994ZM13.129 6.4494C14.0149 6.15782 14.9616 6.00006 15.9451 6.00006C20.5235 6.00006 24.3034 9.4188 24.8713 13.8427C24.2652 13.946 23.6396 14.0001 23 14.0001C18.0254 14.0001 13.8992 10.7309 13.129 6.4494ZM12.5 19C13.3284 19 14 18.3284 14 17.5C14 16.6716 13.3284 16 12.5 16C11.6716 16 11 16.6716 11 17.5C11 18.3284 11.6716 19 12.5 19ZM21 17.5C21 18.3284 20.3284 19 19.5 19C18.6716 19 18 18.3284 18 17.5C18 16.6716 18.6716 16 19.5 16C20.3284 16 21 16.6716 21 17.5ZM16 22.5C15.3989 22.5 14.8579 22.2972 14.5303 21.9697C14.2374 21.6768 13.7626 21.6768 13.4697 21.9697C13.1768 22.2626 13.1768 22.7374 13.4697 23.0303C14.1421 23.7028 15.1011 24 16 24C16.8989 24 17.8579 23.7028 18.5303 23.0303C18.8232 22.7374 18.8232 22.2626 18.5303 21.9697C18.2374 21.6768 17.7626 21.6768 17.4697 21.9697C17.1421 22.2972 16.6011 22.5 16 22.5Z" fill="black"/>
</svg>
