<svg width="32" height="32" viewBox="0 0 32 32" fill="none" xmlns="http://www.w3.org/2000/svg">
<path d="M5.22348 15.7831C6.24919 10.7706 10.6843 7 16 7C21.3921 7 25.8781 10.8798 26.8186 16C26.8219 16.0176 26.825 16.0352 26.8282 16.0528C26.9411 16.6848 27 17.3355 27 18H25C23.8954 18 23 18.8954 23 20V25C23 26.1046 23.8954 27 25 27H27C28.1046 27 29 26.1046 29 25V18C29 10.8203 23.1797 5 16 5C8.8203 5 3 10.8203 3 18V25C3 26.1046 3.89543 27 5 27H7C8.10457 27 9 26.1046 9 25V20C9 18.8954 8.10457 18 7 18H5C5 17.317 5.06225 16.6486 5.18138 16C5.1947 15.9275 5.20874 15.8552 5.22348 15.7831Z" fill="black"/>
</svg>
