<svg width="32" height="32" viewBox="0 0 32 32" fill="none" xmlns="http://www.w3.org/2000/svg">
<path d="M16 30C23.732 30 30 23.732 30 16C30 8.26801 23.732 2 16 2C8.26801 2 2 8.26801 2 16C2 23.732 8.26801 30 16 30ZM8.5 14.2711C8.5 12.1741 10.2404 10.25 12.3873 10.25C13.672 10.25 15.0625 10.8605 15.9999 11.7762C16.9375 10.8605 18.328 10.25 19.6127 10.25C21.7596 10.25 23.5 12.1741 23.5 14.2711C23.5 15.5987 22.9295 16.8654 21.9275 17.7626L16.6875 22.724C16.3018 23.0891 15.698 23.0891 15.3124 22.724L10.0725 17.7626C9.0705 16.8654 8.5 15.5987 8.5 14.2711Z" fill="black"/>
</svg>
