<svg width="32" height="32" viewBox="0 0 32 32" fill="none" xmlns="http://www.w3.org/2000/svg">
<path d="M6 12.0869C6 12.7454 6.11275 13.3916 6.32705 14H4.23952C4.08183 13.3803 4 12.7381 4 12.0869C4 8.65187 6.78463 5.5 10.2196 5.5C12.2752 5.5 14.5 6.5 15.9999 8C17.5 6.5 19.7248 5.5 21.7804 5.5C25.2154 5.5 28 8.65187 28 12.0869C28 14.2617 27.0872 16.3367 25.484 17.8063L17.044 25.9879C16.4622 26.5519 15.5376 26.5519 14.9559 25.9879L6.71579 18H9.5892L15.9999 24.2145L24.112 16.3509L24.1326 16.332C25.3225 15.2412 26 13.7011 26 12.0869C26 9.60588 23.966 7.5 21.7804 7.5C20.3101 7.5 18.5798 8.2486 17.4141 9.41426L15.9998 10.8284L14.5856 9.41417C13.4202 8.24861 11.6899 7.5 10.2196 7.5C8.03398 7.5 6 9.60588 6 12.0869ZM13.4383 10.6543C13.2952 10.2659 12.9276 10.0058 12.5138 10.0001C12.0999 9.9944 11.7253 10.2443 11.5715 10.6286L9.82297 15H3C2.44772 15 2 15.4477 2 16C2 16.5523 2.44772 17 3 17H10.5C10.9089 17 11.2766 16.751 11.4285 16.3714L12.4616 13.7885L15.0617 20.8457C15.21 21.2482 15.5984 21.5113 16.0272 21.4996C16.456 21.4879 16.8296 21.2041 16.9558 20.7941L18.3783 16.171L18.7 16.6C18.8889 16.8518 19.1852 17 19.5 17H21C21.5523 17 22 16.5523 22 16C22 15.4477 21.5523 15 21 15H20L18.8 13.4C18.5743 13.0991 18.1989 12.9503 17.8284 13.0148C17.4578 13.0794 17.1548 13.3464 17.0442 13.7059L15.9149 17.3763L13.4383 10.6543Z" fill="black"/>
</svg>
