<svg width="32" height="32" viewBox="0 0 32 32" fill="none" xmlns="http://www.w3.org/2000/svg">
<path d="M28 16C28 9.37258 22.6274 4 16 4C9.37258 4 4 9.37258 4 16C4 22.6274 9.37258 28 16 28C22.6274 28 28 22.6274 28 16ZM30 16C30 23.732 23.732 30 16 30C8.26801 30 2 23.732 2 16C2 8.26801 8.26801 2 16 2C23.732 2 30 8.26801 30 16ZM16 20.6207L20.5727 16.2911L20.5934 16.2725C21.178 15.7492 21.5 15.0216 21.5 14.2711C21.5 13.1738 20.553 12.25 19.6127 12.25C18.8976 12.25 17.9966 12.6217 17.3974 13.207L15.9998 14.5719L14.6024 13.2069C14.0033 12.6217 13.1024 12.25 12.3873 12.25C11.447 12.25 10.5 13.1738 10.5 14.2711C10.5 15.0216 10.822 15.7492 11.4066 16.2725L11.4274 16.2911L16 20.6207ZM12.3873 10.25C13.672 10.25 15.0625 10.8605 15.9999 11.7762C16.9375 10.8605 18.328 10.25 19.6127 10.25C21.7596 10.25 23.5 12.1741 23.5 14.2711C23.5 15.5987 22.9295 16.8654 21.9275 17.7626L16.6875 22.724C16.3018 23.0891 15.698 23.0891 15.3124 22.724L10.0725 17.7626C9.0705 16.8654 8.5 15.5987 8.5 14.2711C8.5 12.1741 10.2404 10.25 12.3873 10.25Z" fill="black"/>
</svg>
