<svg width="32" height="32" viewBox="0 0 32 32" fill="none" xmlns="http://www.w3.org/2000/svg">
<path d="M26 10.9139C26 10.5542 25.8068 10.2222 25.494 10.0445L16.494 4.93084C16.1877 4.75678 15.8123 4.75678 15.506 4.93084L6.50599 10.0445C6.19322 10.2222 6 10.5542 6 10.9139L6 21.0861C6 21.4458 6.19322 21.7778 6.50599 21.9555L15.506 27.0692C15.8123 27.2432 16.1877 27.2432 16.494 27.0692L25.494 21.9555C25.8068 21.7778 26 21.4458 26 21.0861V10.9139ZM26.482 8.30556C27.4203 8.8387 28 9.83473 28 10.9139V21.0861C28 22.1653 27.4203 23.1613 26.482 23.6945L17.482 28.8081C16.563 29.3303 15.437 29.3303 14.518 28.8081L5.51797 23.6945C4.57965 23.1613 4 22.1653 4 21.0861L4 10.9139C4 9.83473 4.57966 8.8387 5.51797 8.30556L14.518 3.19192C15.437 2.66975 16.563 2.66975 17.482 3.19192L26.482 8.30556Z" fill="black"/>
</svg>
