<svg width="32" height="25" viewBox="0 0 32 25" fill="none" xmlns="http://www.w3.org/2000/svg">
<g clip-path="url(#clip0_540_4207)">
<path d="M30.0103 7.24097C29.9821 7.16635 29.953 7.09225 29.923 7.01858C29.9156 7.00024 29.9076 6.98221 29.9001 6.96394C29.8773 6.90886 29.8545 6.85378 29.8307 6.79926C29.8123 6.75693 29.793 6.71517 29.7741 6.67322C29.7605 6.64313 29.7474 6.61286 29.7335 6.58297C29.7145 6.54189 29.6945 6.50132 29.6748 6.46056C29.6603 6.43035 29.6461 6.39977 29.6313 6.36968C29.6085 6.32371 29.5849 6.2783 29.5614 6.23271C29.549 6.2084 29.5369 6.18384 29.5242 6.15966C29.4979 6.10961 29.4707 6.06012 29.4435 6.01063C29.433 5.99135 29.4229 5.97194 29.4123 5.95279C29.383 5.90022 29.3528 5.84828 29.3226 5.79641C29.3135 5.78077 29.3048 5.76482 29.2956 5.74924C29.2591 5.68744 29.2218 5.62614 29.184 5.56522C29.1807 5.55995 29.1776 5.55442 29.1743 5.54915C29.1357 5.48722 29.0963 5.42592 29.0563 5.36494C29.0536 5.3608 29.0509 5.35646 29.0482 5.35225C29.0129 5.29868 28.9768 5.2458 28.9405 5.19298C28.9327 5.18161 28.9253 5.17006 28.9175 5.15882C28.8802 5.10506 28.8421 5.05186 28.8036 4.99892C28.7965 4.98899 28.7896 4.97888 28.7823 4.96896C28.7365 4.90641 28.6901 4.84442 28.6428 4.783L28.6428 4.78293C28.5962 4.72239 28.5489 4.66248 28.501 4.60319C28.5002 4.60225 28.4995 4.6013 28.4988 4.60036C28.451 4.54139 28.4026 4.48298 28.3534 4.42514C28.3524 4.42394 28.3514 4.42275 28.3504 4.42149C27.5311 3.45839 26.5209 2.66442 25.364 2.08417L25.5582 1.66062C25.6519 1.45651 25.5622 1.21515 25.358 1.12163C25.154 1.02806 24.9126 1.11761 24.819 1.32185L24.6229 1.74974C22.3944 0.854904 19.9478 0.828024 17.688 1.68279C15.3001 2.5861 13.4068 4.36535 12.357 6.69275C12.2646 6.89743 12.3557 7.13822 12.5604 7.23054L20.4746 10.8005L18.1956 15.7728H11.5827L9.84735 12.3368C9.77814 12.1997 9.63784 12.1134 9.48447 12.1134H7.00025C6.85988 12.1134 6.72938 12.1859 6.65514 12.3051C6.58084 12.4243 6.57343 12.5733 6.63542 12.6993L9.39228 18.3103C9.46061 18.4495 9.60217 18.5376 9.75723 18.5376H10.0077L9.28815 20.1619C9.23238 20.2877 9.24412 20.4331 9.31911 20.5484C9.3941 20.6636 9.52234 20.7331 9.65988 20.7331H11.527C11.6826 20.7331 11.8244 20.6445 11.8925 20.5047L12.8512 18.5376H16.9285L16.2598 19.9964C16.2533 20.0106 16.2498 20.0253 16.245 20.0397C13.4845 20.0991 11.2361 20.98 9.74398 21.7856C7.80546 22.8322 6.71097 23.9568 6.66531 24.0042C6.50184 24.1738 6.50686 24.4436 6.67637 24.6073C6.84563 24.7709 7.11581 24.7661 7.2796 24.5969C7.29009 24.5861 8.34614 23.5053 10.177 22.5219C11.8547 21.6208 14.5496 20.6174 17.8609 20.957C24.2187 21.6085 26.6578 24.5383 26.6809 24.5668C26.7652 24.6723 26.8893 24.7273 27.0146 24.7273C27.108 24.7273 27.202 24.6968 27.2807 24.634C27.4649 24.487 27.495 24.2184 27.3479 24.0341C27.2426 23.9024 24.6934 20.7991 17.948 20.1079C17.6709 20.0795 17.3986 20.0609 17.13 20.0494L17.8229 18.5376H20.5423L21.501 20.5047C21.5691 20.6445 21.711 20.7332 21.8665 20.7332H23.7336C23.8712 20.7332 23.9994 20.6637 24.0744 20.5484C24.1494 20.4331 24.1611 20.2877 24.1054 20.162L23.3858 18.5377H23.5631C23.7876 18.5377 23.9697 18.3557 23.9697 18.131V16.1794C23.9697 15.9549 23.7877 15.7728 23.5631 15.7728H19.0901L21.2159 11.1348L29.2454 14.7567C29.2984 14.7807 29.3554 14.7927 29.4125 14.7927C29.4612 14.7927 29.51 14.7839 29.5565 14.7664C29.6573 14.7282 29.7388 14.6516 29.7831 14.5532C30.833 12.2258 30.9137 9.62897 30.0103 7.24097ZM11.2729 19.9201H10.2847L10.8972 18.5376H11.9466L11.2729 19.9201ZM23.1089 19.9201H22.1207L21.447 18.5376H22.4964L23.1089 19.9201ZM23.1566 17.7244H22.761H20.7966H12.597H10.6326H10.0105L7.6531 12.9266H9.23439L10.9697 16.3627C11.0389 16.4996 11.1792 16.586 11.3327 16.586H23.1567V17.7244H23.1566ZM25.0444 11.9696L21.5548 10.3956L20.8136 10.0612L17.4259 8.5331C18.4902 6.06345 20.0301 4.33275 22.0069 3.38554C22.8801 2.9672 23.6583 2.79895 24.1731 2.73131C24.3724 2.70512 24.5334 2.6935 24.6434 2.68904C24.7105 2.77514 24.8045 2.90377 24.9123 3.07007C25.194 3.50499 25.5725 4.20639 25.83 5.14399C26.4116 7.26012 26.1471 9.55474 25.0444 11.9696Z" fill="#545454"/>
<path d="M5.26178 7.94142C6.71947 7.94142 7.90546 6.75542 7.90546 5.29773C7.90546 3.84005 6.71947 2.65405 5.26178 2.65405C3.8041 2.65405 2.61816 3.84005 2.61816 5.29773C2.61816 6.75542 3.8041 7.94142 5.26178 7.94142ZM5.26178 3.46724C6.27111 3.46724 7.09228 4.28834 7.09228 5.29773C7.09228 6.30712 6.27117 7.12823 5.26178 7.12823C4.25239 7.12823 3.43129 6.30712 3.43129 5.29773C3.43129 4.28834 4.25239 3.46724 5.26178 3.46724Z" fill="#545454"/>
<path d="M5.26652 2.27384C5.49111 2.27384 5.67312 2.0919 5.67312 1.86725V0.891458C5.67305 0.66687 5.49111 0.484863 5.26652 0.484863C5.04193 0.484863 4.85986 0.66687 4.85986 0.891458V1.86731C4.85986 2.0919 5.04193 2.27384 5.26652 2.27384Z" fill="#545454"/>
<path d="M5.26652 8.37268C5.04193 8.37268 4.85986 8.55463 4.85986 8.77928V9.6738C4.85986 9.89832 5.04187 10.0804 5.26652 10.0804C5.49117 10.0804 5.67312 9.89838 5.67312 9.6738V8.77928C5.67305 8.55463 5.49111 8.37268 5.26652 8.37268Z" fill="#545454"/>
<path d="M8.2749 5.36411C8.2749 5.5887 8.45691 5.77077 8.6815 5.77077H9.57602C9.80061 5.77077 9.98261 5.58877 9.98261 5.36411C9.98261 5.13959 9.80067 4.95752 9.57602 4.95752H8.6815C8.45691 4.95752 8.2749 5.13953 8.2749 5.36411Z" fill="#545454"/>
<path d="M0.793802 5.77053H1.76965C1.99424 5.77053 2.17625 5.58852 2.17625 5.36387C2.17625 5.13934 1.9943 4.95728 1.76965 4.95728H0.793802C0.569277 4.95728 0.387207 5.13928 0.387207 5.36387C0.387207 5.58852 0.569277 5.77053 0.793802 5.77053Z" fill="#545454"/>
<path d="M7.96755 7.50524C7.80872 7.34647 7.55135 7.34635 7.39258 7.50518C7.23375 7.66388 7.23375 7.92138 7.39245 8.08021L8.04568 8.73357C8.12513 8.81301 8.22913 8.85264 8.33326 8.85264C8.43726 8.85264 8.54133 8.81295 8.62071 8.73357C8.77948 8.57486 8.77948 8.31736 8.62078 8.15859L7.96755 7.50524Z" fill="#545454"/>
<path d="M2.47464 3.16269C2.55409 3.24202 2.65809 3.28177 2.76216 3.28177C2.86616 3.28177 2.97023 3.24202 3.04968 3.16263C3.20838 3.00386 3.20838 2.74636 3.04961 2.58766L2.3962 1.93431C2.23743 1.77566 1.97999 1.7756 1.82116 1.93437C1.66246 2.0932 1.66246 2.35064 1.82129 2.5094L2.47464 3.16269Z" fill="#545454"/>
<path d="M7.67995 3.28166C7.78396 3.28166 7.88809 3.24191 7.96747 3.16252L8.6207 2.50936C8.77947 2.35059 8.77947 2.09315 8.6207 1.93438C8.46205 1.77562 8.20437 1.77562 8.04573 1.93438L7.39256 2.58761C7.23373 2.74632 7.23373 3.00382 7.39256 3.16252C7.47182 3.24191 7.57589 3.28166 7.67995 3.28166Z" fill="#545454"/>
<path d="M2.39618 8.73363L3.0496 8.08028C3.20837 7.92151 3.20837 7.66408 3.0496 7.50531C2.89095 7.34654 2.63327 7.34654 2.47463 7.50531L1.82127 8.15872C1.66244 8.31743 1.66244 8.57493 1.82127 8.73363C1.90059 8.81308 2.00472 8.85271 2.10873 8.85271C2.21273 8.85271 2.31686 8.81302 2.39618 8.73363Z" fill="#545454"/>
<path d="M31.6492 8.02382C31.4272 8.05742 31.2743 8.26455 31.3078 8.48657C31.3223 8.58222 31.3334 8.64785 31.3427 8.70223C31.3622 8.81685 31.3711 8.86911 31.3875 9.08471C31.4035 9.29818 31.5818 9.46066 31.7924 9.46066C31.8027 9.46066 31.8131 9.46022 31.8234 9.4594C32.0473 9.44245 32.2151 9.24731 32.1983 9.02342C32.18 8.78087 32.1679 8.70381 32.1444 8.56589C32.1358 8.51527 32.1254 8.45428 32.112 8.36523C32.0785 8.14315 31.8717 7.9901 31.6492 8.02382Z" fill="#545454"/>
<path d="M30.2638 5.28212C30.395 5.52059 30.5174 5.77218 30.6273 6.0298C30.753 6.32417 30.8659 6.63423 30.9631 6.95152C31.0167 7.12662 31.1777 7.23923 31.3517 7.23923C31.3912 7.23923 31.4312 7.23351 31.4708 7.22139C31.6856 7.15563 31.8064 6.92834 31.7407 6.71362C31.6351 6.36882 31.5122 6.03137 31.3753 5.71057C31.2547 5.42814 31.1205 5.15205 30.9763 4.89016C30.5885 4.18506 30.1154 3.55375 29.5702 3.01338C29.4108 2.85524 29.1534 2.85637 28.9953 3.01589C28.8372 3.17535 28.8383 3.43285 28.9978 3.5908C29.4876 4.07628 29.9135 4.64535 30.2638 5.28212Z" fill="#545454"/>
</g>
<defs>
<clipPath id="clip0_540_4207">
<rect width="32" height="24.2424" fill="white"/>
</clipPath>
</defs>
</svg>
