<svg width="32" height="32" viewBox="0 0 32 32" fill="none" xmlns="http://www.w3.org/2000/svg">
<path d="M16.7071 6.12132L24 13.4142V25C24 25.5523 23.5523 26 23 26H20V21C20 19.3431 18.6569 18 17 18H15C13.3431 18 12 19.3431 12 21V26H9C8.44772 26 8 25.5523 8 25V13.4142L15.2929 6.12132C15.6834 5.7308 16.3166 5.7308 16.7071 6.12132ZM18.1213 4.70711C16.9497 3.53554 15.0503 3.53554 13.8787 4.70711L3.29289 15.2929C2.90237 15.6834 2.90237 16.3166 3.29289 16.7071C3.68342 17.0976 4.31658 17.0976 4.70711 16.7071L6 15.4142V25C6 26.6569 7.34315 28 9 28H23C24.6569 28 26 26.6569 26 25V15.4142L27.2929 16.7071C27.6834 17.0976 28.3166 17.0976 28.7071 16.7071C29.0976 16.3166 29.0976 15.6834 28.7071 15.2929L18.1213 4.70711ZM18 26H14V21C14 20.4477 14.4477 20 15 20H17C17.5523 20 18 20.4477 18 21V26Z" fill="black"/>
</svg>
