<svg width="32" height="32" viewBox="0 0 32 32" fill="none" xmlns="http://www.w3.org/2000/svg">
<path d="M15.2929 6.12126C15.6834 5.73074 16.3166 5.73074 16.7071 6.12126L27.2929 16.707C27.6834 17.0976 28.3166 17.0976 28.7071 16.707C29.0976 16.3165 29.0976 15.6834 28.7071 15.2928L18.1213 4.70705C16.9497 3.53548 15.0503 3.53548 13.8787 4.70705L3.29289 15.2928C2.90237 15.6834 2.90237 16.3165 3.29289 16.707C3.68342 17.0976 4.31658 17.0976 4.70711 16.707L15.2929 6.12126ZM16.7071 8.29283C16.3166 7.90231 15.6834 7.90231 15.2929 8.29283L6.29289 17.2928C6.10536 17.4804 6 17.7347 6 17.9999V24.9999C6 26.6568 7.34315 27.9999 9 27.9999H23C24.6569 27.9999 26 26.6568 26 24.9999V17.9999C26 17.7347 25.8946 17.4804 25.7071 17.2928L16.7071 8.29283ZM13 20.9999C13 19.8954 13.8954 18.9999 15 18.9999H17C18.1046 18.9999 19 19.8954 19 20.9999V25.9999H13V20.9999Z" fill="black"/>
</svg>
