<svg width="32" height="32" viewBox="0 0 32 32" fill="none" xmlns="http://www.w3.org/2000/svg">
<path d="M27 4C27.5523 4 28 3.55229 28 3C28 2.44772 27.5523 2 27 2L5 2C4.44772 2 4 2.44772 4 3C4 3.55228 4.44772 4 5 4H6L6 6C6 9.87816 8.20764 13.2407 11.4348 14.8995L11.46 14.9124L11.508 14.9367C11.6853 15.026 11.8656 15.1102 12.0488 15.1891C12.2189 15.2623 12.3915 15.331 12.5664 15.3949C12.8223 15.4885 13 15.7276 13 16C13 16.2724 12.8223 16.5115 12.5664 16.6051C12.3915 16.669 12.219 16.7377 12.0488 16.8109C11.8656 16.8898 11.6853 16.974 11.508 17.0633C11.4835 17.0756 11.4591 17.088 11.4348 17.1005C8.20764 18.7593 6 22.1218 6 26L6 28H5C4.44772 28 4 28.4477 4 29C4 29.5523 4.44772 30 5 30L27 30C27.5523 30 28 29.5523 28 29C28 28.4477 27.5523 28 27 28H26V26C26 22.1218 23.7924 18.7593 20.5652 17.1005C20.5409 17.088 20.5165 17.0756 20.492 17.0633C20.3147 16.974 20.1344 16.8898 19.9512 16.8109C19.781 16.7377 19.6084 16.669 19.4336 16.6051C19.1777 16.5115 19 16.2724 19 16C19 15.7276 19.1777 15.4885 19.4336 15.3949C19.6084 15.331 19.781 15.2623 19.9512 15.1891C20.1344 15.1102 20.3147 15.026 20.492 14.9367C20.5165 14.9244 20.5409 14.912 20.5652 14.8995C23.7924 13.2407 26 9.87816 26 6V4H27ZM8 6V4L24 4V6C24 9.45007 21.815 12.3949 18.7469 13.5165C17.7535 13.8797 17 14.8345 17 16C17 17.1655 17.7535 18.1203 18.7469 18.4835C21.815 19.6051 24 22.5499 24 26V28L8 28V26C8 22.5499 10.185 19.6051 13.2531 18.4835C14.2465 18.1203 15 17.1655 15 16C15 14.8345 14.2465 13.8797 13.2531 13.5165C10.185 12.3949 8 9.45007 8 6ZM16 12C12.6863 12 10 9.31371 10 6L22 6C22 9.31371 19.3137 12 16 12Z" fill="black"/>
</svg>
