<svg width="32" height="32" viewBox="0 0 32 32" fill="none" xmlns="http://www.w3.org/2000/svg">
<path d="M28 3C28 3.55229 27.5523 4 27 4H26V6C26 9.87816 23.7924 13.2407 20.5652 14.8995C20.5409 14.912 20.5165 14.9244 20.492 14.9367C20.3147 15.026 20.1344 15.1102 19.9512 15.1891C19.781 15.2623 19.6084 15.331 19.4336 15.3949C19.1777 15.4885 19 15.7276 19 16C19 16.2724 19.1777 16.5115 19.4336 16.6051C19.6084 16.669 19.781 16.7377 19.9512 16.8109C20.1344 16.8898 20.3147 16.974 20.492 17.0633C20.5165 17.0756 20.5409 17.088 20.5652 17.1005C23.7924 18.7593 26 22.1218 26 26V28H27C27.5523 28 28 28.4477 28 29C28 29.5523 27.5523 30 27 30L5 30C4.44772 30 4 29.5523 4 29C4 28.4477 4.44772 28 5 28H6L6 26C6 22.1218 8.20764 18.7593 11.4348 17.1005C11.4591 17.088 11.4835 17.0756 11.508 17.0633C11.6853 16.974 11.8656 16.8898 12.0488 16.8109C12.219 16.7377 12.3915 16.669 12.5664 16.6051C12.8223 16.5115 13 16.2724 13 16C13 15.7276 12.8223 15.4885 12.5664 15.3949C12.3915 15.331 12.2189 15.2623 12.0488 15.1891C11.8656 15.1102 11.6853 15.026 11.508 14.9367C11.4835 14.9244 11.4591 14.912 11.4348 14.8995C8.20764 13.2407 6 9.87816 6 6L6 4L5 4C4.44772 4 4 3.55228 4 3C4 2.44772 4.44772 2 5 2H27C27.5523 2 28 2.44772 28 3ZM8 4L8 6C8 9.45007 10.185 12.3949 13.2531 13.5165C14.2465 13.8797 15 14.8345 15 16C15 17.1655 14.2465 18.1203 13.2531 18.4835C10.185 19.6051 8 22.5499 8 26L8 28L24 28V26C24 22.5499 21.815 19.6051 18.7469 18.4835C17.7535 18.1203 17 17.1655 17 16C17 14.8345 17.7535 13.8797 18.7469 13.5165C21.815 12.3949 24 9.45007 24 6V4L8 4ZM14.6377 12.4605C14.4722 12.0305 14.1087 11.7146 13.6838 11.5366C12.4687 11.0276 11.4566 10.1304 10.8027 9L21.1973 9C20.5435 10.1304 19.5314 11.0276 18.3163 11.5366C17.8914 11.7146 17.5279 12.0305 17.3624 12.4605C16.8823 13.7077 15.1177 13.7077 14.6377 12.4605ZM10 26C10 26 13.8151 22 16 22C18.1849 22 22 26 22 26H10Z" fill="black"/>
</svg>
