<svg width="32" height="32" viewBox="0 0 32 32" fill="none" xmlns="http://www.w3.org/2000/svg">
<path d="M27.175 9.72495C27.0875 9.23745 26.9876 8.82495 26.8876 8.52495C25.3376 3.92495 21.0501 0.799951 16.2126 0.762451H15.7751C10.9376 0.799951 6.65005 3.92495 5.10005 8.52495C5.00005 8.82495 4.90005 9.23745 4.81255 9.72495C4.47505 11.65 4.68755 13.5875 5.42505 15.3C5.45005 15.35 5.47505 15.4125 5.51255 15.5C6.11255 16.825 7.00005 18.3625 7.86255 19.85C8.60005 21.1375 9.36255 22.4625 9.91255 23.5875C10.0626 23.8874 10.4251 24.0124 10.7251 23.8624C11.0251 23.7125 11.1501 23.3499 11.0001 23.0499C10.4376 21.875 9.66255 20.5374 8.91255 19.2374C8.07505 17.775 7.20005 16.2625 6.62505 14.9875L6.55005 14.8375C5.88755 13.3125 5.70005 11.6125 6.00005 9.92495C6.07505 9.48745 6.15005 9.14995 6.23755 8.89995C7.62505 4.78745 11.4501 1.99995 15.7626 1.96245H16.1876C20.5001 1.99995 24.3375 4.78745 25.725 8.89995C25.8125 9.14995 25.8875 9.48745 25.9625 9.92495C26.2625 11.6125 26.0751 13.3125 25.4125 14.825C25.4 14.8625 25.375 14.9 25.3625 14.9375L25.3375 14.9875C24.75 16.2625 23.8875 17.775 23.05 19.2374C22.3 20.5374 21.5375 21.875 20.9625 23.0499C20.8125 23.3499 20.9375 23.7125 21.2375 23.8624C21.325 23.9 21.4125 23.9249 21.5 23.9249C21.725 23.9249 21.9375 23.7999 22.05 23.5875C22.6 22.4499 23.3626 21.125 24.1 19.85C24.9501 18.3625 25.8376 16.825 26.4501 15.4875L26.525 15.325C27.3 13.5875 27.5125 11.65 27.175 9.72495Z" fill="black"/>
<path d="M20.4125 25.3125H11.6C11.3 25.3125 11.025 25.45 10.825 25.675C10.6375 25.9 10.5625 26.2 10.6125 26.5L11.0375 28.725C11.125 29.2 11.5375 29.5375 12.025 29.5375H12.7C13.4625 30.6 14.7 31.2375 16.0125 31.2375C17.325 31.2375 18.5625 30.5875 19.325 29.5375H20C20.475 29.5375 20.8875 29.2 20.9875 28.725L21.4125 26.5C21.4625 26.2125 21.3875 25.9125 21.2 25.675C20.9875 25.4375 20.7 25.3125 20.4125 25.3125ZM19.8125 28.325H18.9875C18.775 28.325 18.575 28.4375 18.4625 28.625C17.95 29.4875 17.0125 30.0375 16 30.0375C15 30.0375 14.05 29.5 13.5375 28.625C13.425 28.4375 13.225 28.325 13.0125 28.325H12.1875L11.85 26.525H20.15L19.8125 28.325Z" fill="black"/>
<path d="M14.9502 13.3999C15.0752 13.5249 15.2252 13.5874 15.3877 13.5874C15.5377 13.5874 15.6877 13.5374 15.8002 13.4249L18.1752 11.1624C18.4127 10.9374 18.4252 10.5499 18.2002 10.3124C17.9752 10.0749 17.5877 10.0624 17.3377 10.2874L15.4002 12.1249L14.6752 11.3749C14.4377 11.1374 14.0627 11.1249 13.8127 11.3624C13.5752 11.5999 13.5627 11.9749 13.8002 12.2249L14.9502 13.3999Z" fill="black"/>
<path d="M10.9625 14.7624C10.75 14.9749 10.725 15.2999 10.9 15.5499C11.3 16.0999 11.7875 16.5874 12.3375 16.9874C12.575 17.1624 12.8625 17.1624 13.075 16.9624C13.1 16.9374 13.125 16.9249 13.15 16.8999C13.25 16.7999 13.35 16.6874 13.4625 16.5874C13.475 16.5749 13.4875 16.5624 13.5 16.5499C13.8125 16.7249 14.15 16.8499 14.4875 16.9624C14.4875 16.9999 14.4875 17.0249 14.4875 17.0624C14.4875 17.1999 14.4875 17.3249 14.4875 17.4874C14.4875 17.7874 14.7 18.0374 15 18.0874C15.325 18.1374 15.65 18.1624 16.0125 18.1624C16.35 18.1624 16.6875 18.1374 17.0125 18.0874C17.3125 18.0374 17.525 17.7624 17.525 17.4624C17.525 17.3249 17.525 17.1999 17.525 17.0624C17.525 17.0249 17.525 16.9999 17.525 16.9624C17.8625 16.8624 18.2 16.7249 18.5125 16.5499L18.525 16.5624C18.6375 16.6749 18.75 16.7874 18.8625 16.8999L18.875 16.9124C18.95 16.9999 19.0625 17.0499 19.175 17.0874C19.35 17.1249 19.525 17.0874 19.675 16.9874C20.2375 16.5874 20.7125 16.0999 21.1125 15.5499C21.2875 15.3124 21.2625 14.9749 21.05 14.7624L20.85 14.5499C20.7875 14.4874 20.7375 14.4374 20.6875 14.3749C20.8625 14.0624 21 13.7249 21.1 13.3749H21.6C21.6625 13.3749 21.7625 13.3624 21.825 13.3374C22.0375 13.2624 22.2 13.0874 22.2375 12.8624C22.3 12.5249 22.325 12.1874 22.325 11.8374C22.325 11.5124 22.3 11.1624 22.2375 10.8124C22.1875 10.5249 21.9375 10.2999 21.6375 10.2999H21.4C21.3 10.2999 21.2 10.2999 21.1 10.2999C21 9.96243 20.8625 9.63743 20.6875 9.32493C20.8125 9.19993 20.9375 9.07493 21.0625 8.96243C21.275 8.74993 21.3125 8.41243 21.1375 8.17493C20.7375 7.61243 20.25 7.13743 19.6875 6.72493C19.45 6.54993 19.1125 6.57493 18.9 6.79993C18.8 6.89993 18.6875 7.01243 18.5875 7.11243C18.5625 7.13743 18.55 7.14993 18.525 7.17493C18.2125 6.99993 17.875 6.87493 17.5375 6.76243V6.74993C17.5375 6.72493 17.5375 6.71243 17.5375 6.68743V6.52493C17.5375 6.43743 17.5375 6.34993 17.5375 6.22493C17.5375 5.92493 17.325 5.67493 17.025 5.62493C16.35 5.52493 15.7 5.52493 15.025 5.62493C14.725 5.67493 14.5 5.94993 14.5125 6.26243C14.5125 6.34993 14.5125 6.43743 14.5125 6.52493V6.76243C14.175 6.86243 13.8375 6.99993 13.525 7.16243C13.5125 7.14993 13.4875 7.12493 13.475 7.11243C13.3625 7.01243 13.2625 6.89993 13.1625 6.79993C12.95 6.58743 12.6125 6.54993 12.375 6.72493C11.8125 7.12493 11.325 7.61243 10.925 8.17493C10.75 8.42493 10.775 8.74993 11 8.96243C11.125 9.08743 11.25 9.19993 11.375 9.32493C11.2 9.63743 11.075 9.96243 10.9625 10.2999C10.8625 10.2999 10.7625 10.2999 10.6625 10.2999H10.425C10.125 10.2999 9.87505 10.5124 9.82505 10.7999C9.76255 11.1374 9.73755 11.4749 9.73755 11.8374C9.73755 12.1749 9.76255 12.5124 9.82505 12.8499C9.86255 13.0874 10.05 13.2874 10.275 13.3374C10.325 13.3499 10.4125 13.3499 10.4625 13.3624H10.95C11.05 13.7124 11.2 14.0499 11.3625 14.3624C11.3125 14.4124 11.2625 14.4624 11.2125 14.5124L10.9625 14.7624ZM10.925 12.1749C10.9125 12.0749 10.9125 11.9624 10.9125 11.8624C10.9125 11.7499 10.9125 11.6499 10.925 11.5374C11.05 11.5374 11.1625 11.5374 11.3 11.5499C11.3875 11.5499 11.475 11.5374 11.55 11.5249C11.775 11.4624 11.95 11.2874 11.9875 11.0624C12.0875 10.5374 12.3 10.0499 12.5875 9.61243C12.7125 9.41243 12.725 9.16243 12.6 8.96243C12.5375 8.86243 12.475 8.79993 12.4 8.72493C12.325 8.64993 12.2625 8.58743 12.1875 8.51243C12.325 8.34993 12.475 8.19993 12.6375 8.06243C12.725 8.14993 12.8 8.22493 12.875 8.29993C12.975 8.41243 13.075 8.48743 13.2 8.52493C13.375 8.58743 13.575 8.57493 13.7375 8.46243C14.1875 8.16243 14.6875 7.96243 15.2 7.86243C15.4 7.82493 15.5625 7.68743 15.65 7.49993C15.7 7.37493 15.7 7.26243 15.7 7.18743C15.7 7.11243 15.7 7.03743 15.7 6.97493V6.82493C15.9 6.81243 16.1 6.81243 16.3 6.82493V6.91243C16.3 6.99993 16.3 7.08743 16.3 7.18743C16.2875 7.29993 16.3125 7.41243 16.35 7.52493C16.425 7.71243 16.5875 7.84993 16.8 7.88743C17.3125 7.98743 17.8125 8.18743 18.2625 8.48743C18.4125 8.58743 18.6125 8.61243 18.7875 8.56243C18.9125 8.52493 19.025 8.43743 19.1125 8.34993C19.2 8.26243 19.275 8.17493 19.3625 8.09993C19.525 8.23743 19.675 8.38743 19.8125 8.54993C19.7375 8.62493 19.675 8.68743 19.6125 8.76243C19.5375 8.82493 19.4625 8.89993 19.4 8.99993C19.275 9.19993 19.2875 9.44993 19.4125 9.64993C19.7125 10.0874 19.9125 10.5749 20.0125 11.0999C20.0625 11.3249 20.225 11.5124 20.45 11.5624C20.525 11.5874 20.6125 11.5999 20.725 11.5874C20.8375 11.5874 20.95 11.5749 21.075 11.5749C21.0875 11.6874 21.0875 11.7874 21.0875 11.8999C21.0875 12.0124 21.0875 12.1124 21.075 12.2124H20.6375C20.55 12.2124 20.4375 12.2374 20.35 12.2749C20.175 12.3499 20.05 12.5124 20.0125 12.6999C19.9 13.2374 19.7 13.7249 19.4 14.1749C19.2625 14.3749 19.2625 14.6249 19.3875 14.8374C19.4375 14.9124 19.4875 14.9624 19.525 14.9999C19.6125 15.0874 19.7125 15.1749 19.8 15.2749C19.6625 15.4249 19.5125 15.5749 19.3625 15.7124C19.275 15.6249 19.175 15.5249 19.075 15.4249C19.025 15.3749 18.9625 15.3249 18.9125 15.2874C18.7125 15.1624 18.4625 15.1749 18.2625 15.2999C17.8125 15.5999 17.325 15.7999 16.8 15.8999C16.575 15.9374 16.4 16.1124 16.3375 16.3249C16.3125 16.4249 16.3 16.5249 16.3125 16.5999C16.3125 16.7249 16.3125 16.8374 16.3125 16.9624C16.1125 16.9749 15.9125 16.9749 15.7125 16.9624C15.7125 16.8374 15.7125 16.7124 15.7125 16.5749C15.7125 16.5249 15.7125 16.4249 15.6875 16.3249C15.625 16.1124 15.45 15.9499 15.225 15.8999C14.7 15.7999 14.2 15.5999 13.7625 15.2999C13.5625 15.1749 13.3125 15.1624 13.1125 15.2874C13.05 15.3249 13 15.3624 12.9375 15.4249C12.85 15.5249 12.75 15.6124 12.6625 15.6999C12.5 15.5624 12.3625 15.4124 12.225 15.2624C12.3125 15.1749 12.4125 15.0749 12.5125 14.9749C12.5375 14.9499 12.6 14.8874 12.6375 14.8124C12.75 14.6124 12.75 14.3624 12.6125 14.1624C12.3125 13.7124 12.1 13.2124 12 12.6874C11.9625 12.4749 11.8 12.2999 11.6 12.2374C11.5375 12.2124 11.4625 12.2124 11.375 12.1999L10.925 12.1749Z" fill="black"/>
</svg>
