<svg width="32" height="32" viewBox="0 0 32 32" fill="none" xmlns="http://www.w3.org/2000/svg">
<path d="M16 28C9.37258 28 4 22.6274 4 16C4 9.37258 9.37258 4 16 4C22.6274 4 28 9.37258 28 16C28 22.6274 22.6274 28 16 28ZM16 30C23.732 30 30 23.732 30 16C30 8.26801 23.732 2 16 2C8.26801 2 2 8.26801 2 16C2 23.732 8.26801 30 16 30ZM17.5 10.5C17.5 11.3284 16.8284 12 16 12C15.1716 12 14.5 11.3284 14.5 10.5C14.5 9.67157 15.1716 9 16 9C16.8284 9 17.5 9.67157 17.5 10.5ZM15.25 14H16.75C17.0261 14 17.25 14.2239 17.25 14.5V23.5C17.25 23.7761 17.0261 24 16.75 24H15.25C14.9739 24 14.75 23.7761 14.75 23.5V14.5C14.75 14.2239 14.9739 14 15.25 14Z" fill="black"/>
</svg>
