<svg width="32" height="32" viewBox="0 0 32 32" fill="none" xmlns="http://www.w3.org/2000/svg">
<path d="M30 16C30 23.732 23.732 30 16 30C8.26801 30 2 23.732 2 16C2 8.26801 8.26801 2 16 2C23.732 2 30 8.26801 30 16ZM17.5 10.5C17.5 9.67157 16.8284 9 16 9C15.1716 9 14.5 9.67157 14.5 10.5C14.5 11.3284 15.1716 12 16 12C16.8284 12 17.5 11.3284 17.5 10.5ZM15.25 14C14.9739 14 14.75 14.2239 14.75 14.5V23.5C14.75 23.7761 14.9739 24 15.25 24H16.75C17.0261 24 17.25 23.7761 17.25 23.5V14.5C17.25 14.2239 17.0261 14 16.75 14H15.25Z" fill="black"/>
</svg>
