<svg width="32" height="32" viewBox="0 0 32 32" fill="none" xmlns="http://www.w3.org/2000/svg">
<path d="M9.5 8.5C5.35786 8.5 2 11.8579 2 16C2 20.1421 5.35786 23.5 9.5 23.5C12.1729 23.5 14.5178 22.1015 15.8453 20H20C20.2652 20 20.5196 19.8946 20.7071 19.7071L21.4142 19H22.5858L23.2929 19.7071C23.4804 19.8946 23.7348 20 24 20H26C26.2652 20 26.5196 19.8946 26.7071 19.7071L29.7071 16.7071C30.0442 16.37 30.0965 15.8419 29.8321 15.4453L27.8321 12.4453C27.6466 12.1671 27.3344 12 27 12H15.8453C14.5178 9.89848 12.1729 8.5 9.5 8.5ZM9 16C9 17.1046 8.10457 18 7 18C5.89543 18 5 17.1046 5 16C5 14.8954 5.89543 14 7 14C8.10457 14 9 14.8954 9 16Z" fill="black"/>
</svg>
