<svg width="32" height="32" viewBox="0 0 32 32" fill="none" xmlns="http://www.w3.org/2000/svg">
<path d="M9.5 10.5C6.46243 10.5 4 12.9624 4 16C4 19.0376 6.46243 21.5 9.5 21.5C11.6205 21.5 13.4624 20.3002 14.381 18.5378C14.5533 18.2073 14.8951 18 15.2678 18H19.5858L20.2929 17.2929C20.4804 17.1054 20.7348 17 21 17H23C23.2652 17 23.5196 17.1054 23.7071 17.2929L24.4142 18H25.5858L27.7132 15.8726L26.4648 14H15.2678C14.8951 14 14.5533 13.7927 14.381 13.4622C13.4624 11.6998 11.6205 10.5 9.5 10.5ZM2 16C2 11.8579 5.35786 8.5 9.5 8.5C12.1729 8.5 14.5178 9.89848 15.8453 12H27C27.3344 12 27.6466 12.1671 27.8321 12.4453L29.8321 15.4453C30.0965 15.8419 30.0442 16.37 29.7071 16.7071L26.7071 19.7071C26.5196 19.8946 26.2652 20 26 20H24C23.7348 20 23.4804 19.8946 23.2929 19.7071L22.5858 19H21.4142L20.7071 19.7071C20.5196 19.8946 20.2652 20 20 20H15.8453C14.5178 22.1015 12.1729 23.5 9.5 23.5C5.35786 23.5 2 20.1421 2 16ZM10 16C10 17.1046 9.10457 18 8 18C6.89543 18 6 17.1046 6 16C6 14.8954 6.89543 14 8 14C9.10457 14 10 14.8954 10 16Z" fill="black"/>
</svg>
