<svg width="32" height="32" viewBox="0 0 32 32" fill="none" xmlns="http://www.w3.org/2000/svg">
<g clip-path="url(#clip0_541_270)">
<path fill-rule="evenodd" clip-rule="evenodd" d="M15.9998 18.8813C12.4437 18.8813 9.55615 15.9875 9.55615 12.4376V11.6688H22.4498V12.4376C22.4436 15.9875 19.5561 18.8813 15.9998 18.8813ZM13.7406 13.7212H13.2593C13.0531 13.7212 12.8843 13.5525 12.8843 13.3462C12.8843 13.14 13.0531 12.9712 13.2593 12.9712H13.7406C13.9469 12.9712 14.1156 13.14 14.1156 13.3462C14.1156 13.5525 13.9469 13.7212 13.7406 13.7212ZM18.7468 13.7212H18.2655C18.0593 13.7212 17.8905 13.5525 17.8905 13.3462C17.8905 13.14 18.0593 12.9712 18.2655 12.9712H18.7468C18.9531 12.9712 19.1218 13.14 19.1218 13.3462C19.1218 13.5525 18.9593 13.7212 18.7468 13.7212ZM16.003 16.7336C15.5718 16.7336 15.1343 16.5712 14.8094 16.2399C14.6656 16.0962 14.6656 15.8587 14.8094 15.7087C14.9531 15.5649 15.1906 15.5649 15.3406 15.7087C15.7094 16.0774 16.3031 16.0774 16.6718 15.7087C16.8155 15.5649 17.0531 15.5649 17.2031 15.7087C17.3468 15.8524 17.3468 16.0899 17.2031 16.2399C16.8718 16.5712 16.4343 16.7336 16.003 16.7336Z" fill="#0F3849"/>
<path fill-rule="evenodd" clip-rule="evenodd" d="M15.9999 23.3375C14.5499 23.3375 13.3687 22.1562 13.3687 20.7062V18.998C14.1824 19.3255 15.0703 19.5062 15.9999 19.5062C16.9289 19.5062 17.817 19.3257 18.631 18.9985V20.7062C18.6311 22.1563 17.4499 23.3375 15.9999 23.3375Z" fill="#0F3849"/>
<path fill-rule="evenodd" clip-rule="evenodd" d="M26.775 32.0001H22.7375L22.7376 26.3814C22.7376 26.3726 22.7373 26.3639 22.7366 26.3552L22.7364 26.3526L22.7362 26.3509L22.7359 26.3466V26.3465C22.7266 26.2472 22.6782 26.1587 22.6063 26.097L21.1375 24.4814V20.1504C24.4892 20.3575 27.15 23.147 27.15 26.5501V31.6251C27.15 31.8314 26.9813 32.0001 26.775 32.0001ZM21.9875 32.0001H16C15.7939 32.0001 15.6251 31.8313 15.6251 31.6251V29.6626H10.0126V32.0001L16 32.0001C16.2063 32.0001 16.375 31.8313 16.375 31.6251V29.6626H21.9875L21.9875 32.0001ZM10.0126 28.9126H15.6251V26.7563H10.0126V28.9126ZM9.26264 26.3813V26.377L9.26271 26.3726L9.26278 26.3717L9.26286 26.3682L9.26308 26.3638L9.26315 26.3621L9.2633 26.3595L9.26359 26.3551L9.26374 26.3526L9.26396 26.3509L9.26433 26.3465C9.27363 26.2472 9.32206 26.1588 9.39389 26.097L10.8627 24.4813V20.1504C7.51105 20.3574 4.8501 23.147 4.8501 26.5501V31.6251C4.8501 31.8314 5.01885 32.0001 5.2251 32.0001H9.26264V29.2876L9.26264 26.3813ZM10.4842 26.0063H15.6251V23.9408C14.006 23.7542 12.7439 22.3744 12.7439 20.7063V20.1376H11.6126V24.6251C11.6126 24.7189 11.5751 24.8063 11.5126 24.8751L10.4842 26.0063ZM16.375 23.9408V26.0063H21.5159L20.4875 24.8751C20.425 24.8063 20.3875 24.7188 20.3875 24.625V20.1376H19.2561V20.7063C19.2561 22.3744 17.9941 23.7541 16.375 23.9408ZM21.9875 26.7563H16.375V28.9126H21.9875V26.7563Z" fill="#0F3849"/>
<path fill-rule="evenodd" clip-rule="evenodd" d="M23.2376 11.0439H8.76257C8.4126 11.0439 8.13135 10.7627 8.13135 10.4127V9.19392C8.13135 8.84394 8.4126 8.5627 8.76257 8.5627L23.2376 8.56262C23.5876 8.56262 23.8688 8.84387 23.8688 9.19385V10.4126C23.8688 10.7627 23.5875 11.0439 23.2376 11.0439Z" fill="#0F3849"/>
<path fill-rule="evenodd" clip-rule="evenodd" d="M9.25294 7.93779C9.42265 6.57627 9.99652 5.30636 10.9168 4.27319L11.9811 6.35644C12.0499 6.48769 12.1811 6.56269 12.3186 6.56269C12.3749 6.56269 12.4374 6.55014 12.4875 6.52519C12.6687 6.43144 12.7437 6.20644 12.6499 6.01894L11.4748 3.71431C11.9979 3.2477 12.5889 2.86598 13.225 2.58052V5.88142C13.225 6.43262 13.6737 6.88137 14.225 6.88137C14.7762 6.88137 15.2249 6.43263 15.2249 5.88142V2.37073H16.7749V5.88142C16.7749 6.43262 17.2236 6.88137 17.7748 6.88137C18.3261 6.88137 18.7748 6.43263 18.7748 5.88142V2.57447C19.3926 2.85003 19.9644 3.21558 20.4748 3.66108L19.2937 6.01267C19.1999 6.20017 19.2687 6.42517 19.4562 6.51892C19.5124 6.55022 19.5687 6.56269 19.6249 6.56269C19.7624 6.56269 19.8936 6.48769 19.9624 6.35644L21.0388 4.21347C21.1108 4.29261 21.1812 4.37359 21.25 4.45641C22.0747 5.45016 22.5928 6.6622 22.753 7.93772L9.25294 7.93779Z" fill="#0F3849"/>
<path fill-rule="evenodd" clip-rule="evenodd" d="M17.775 6.25637C17.5687 6.25637 17.4 6.08762 17.4 5.88137V1.90635C17.4 1.26885 16.7688 0.750122 16 0.750122C15.2251 0.750122 14.6001 1.26885 14.6001 1.90635V5.88137C14.6001 6.08762 14.4313 6.25637 14.2251 6.25637C14.0188 6.25637 13.8501 6.08762 13.8501 5.88137V1.90635C13.8501 0.856347 14.8126 0.00012207 16 0.00012207C17.1875 0.00012207 18.15 0.856347 18.15 1.90635V5.88137C18.15 6.08762 17.9812 6.25637 17.775 6.25637Z" fill="#0F3849"/>
<path d="M10.7121 20.1908C4.05205 20.7078 3.91135 28.279 4.6735 32H27.3037C28.9922 22.2706 23.9424 20.0733 21.2064 20.1908H10.7121Z" fill="#0F3849" stroke="#0F3849"/>
<path d="M16.0572 21.2186C13.1614 21.2186 10.7812 23.5591 10.7812 26.4946C10.7812 29.4301 13.1217 31.7706 16.0572 31.7706C18.9531 31.7706 21.3332 29.3905 21.3332 26.4946C21.3332 23.5988 18.9531 21.2186 16.0572 21.2186ZM16.0572 26.0979C16.8903 26.0979 17.6043 26.7723 17.6043 27.645C17.6043 28.3591 17.1283 28.9144 16.4936 29.1128V29.6681C16.4936 29.9062 16.3349 30.0648 16.0969 30.0648C15.8986 30.0648 15.7002 29.9062 15.7002 29.6681V29.1128C15.0655 28.9541 14.5498 28.3591 14.5498 27.645C14.5498 27.407 14.7085 27.2483 14.9465 27.2483C15.1448 27.2483 15.3432 27.407 15.3432 27.645C15.3432 28.0417 15.6605 28.3591 16.0572 28.3591C16.4539 28.3591 16.8109 28.0417 16.8109 27.645C16.8109 27.2483 16.4936 26.931 16.0969 26.8913C15.2639 26.8913 14.5498 26.2169 14.5498 25.3839C14.5498 24.6698 15.0258 24.0748 15.7002 23.9161V23.4004C15.7002 23.1624 15.8986 23.0037 16.0969 23.0037C16.3349 23.0037 16.4936 23.1624 16.4936 23.4004V23.9161C17.1283 24.0748 17.6043 24.6698 17.6043 25.3839C17.6043 25.5822 17.4457 25.7806 17.2076 25.7806C17.0093 25.7806 16.8109 25.5822 16.8109 25.3839C16.8109 24.9872 16.4936 24.6302 16.0572 24.6302C15.6209 24.6302 15.3035 24.9475 15.3035 25.3839C15.3432 25.7409 15.6605 26.0979 16.0572 26.0979Z" fill="white"/>
</g>
<defs>
<clipPath id="clip0_541_270">
<rect width="32" height="32" fill="white"/>
</clipPath>
</defs>
</svg>
