<svg width="32" height="32" viewBox="0 0 32 32" fill="none" xmlns="http://www.w3.org/2000/svg">
<path d="M0 25.9206H1.49952V24.9212C1.49952 24.3703 1.72513 23.8692 2.08664 23.5086H2.08936C2.45178 23.1471 2.95192 22.9215 3.50008 22.9215H13.9985C14.5494 22.9215 15.0505 23.1471 15.4111 23.5086C15.7726 23.8702 15.9982 24.3703 15.9982 24.9212V25.9206H17.4977V26.9208H0.000906054V25.9206H0ZM11.8947 6.78561L16.4983 9.7937L17.3192 8.53701L17.3428 8.50077C17.4732 8.27969 17.5095 8.02237 17.4597 7.78498C17.408 7.53672 17.2585 7.30478 17.0293 7.15437L16.9831 7.12447L16.9813 7.12266L14.0991 5.23988C13.8699 5.08947 13.5962 5.04689 13.3471 5.09944C13.0979 5.15109 12.866 5.30058 12.7156 5.53072L11.8956 6.78651L11.8947 6.78561ZM15.952 10.6291L11.3474 7.62099L8.06478 12.646L12.6693 15.6532L15.952 10.6291ZM12.1248 16.4876L7.52024 13.4795L6.69936 14.7362L6.69845 14.7353C6.54896 14.9655 6.50637 15.2382 6.55892 15.4883C6.61147 15.7383 6.75916 15.9703 6.98839 16.1198H6.9902L9.92038 18.0343L9.91947 18.0352C10.1496 18.1847 10.4214 18.2273 10.6724 18.1747C10.9216 18.1231 11.1535 17.9736 11.3039 17.7434L12.1248 16.4867V16.4876ZM5.86307 14.1899L11.8784 4.98165C12.1783 4.52319 12.6413 4.22601 13.1423 4.1209C13.6424 4.0158 14.1852 4.10097 14.6445 4.40178L17.5747 6.31627L17.62 6.34617L17.6227 6.34889C18.0549 6.6497 18.334 7.09729 18.4355 7.58022C18.5397 8.07945 18.4536 8.62037 18.1546 9.07973L18.1537 9.08155L18.1546 9.08245L15.9909 12.3941L30.6029 20.2052L30.6373 20.2251L30.6418 20.2269C31.8242 20.9989 32.154 22.1541 31.9375 23.2151C31.8559 23.6174 31.6928 24.0061 31.4691 24.3495C31.2453 24.6928 30.9544 24.9982 30.6183 25.2347C29.7349 25.858 28.5452 26.0193 27.3628 25.2474L27.3365 25.231L27.3257 25.222L14.3021 14.98L12.1393 18.2907C11.8385 18.75 11.3755 19.0472 10.8745 19.1514C10.3752 19.2565 9.83431 19.1714 9.37403 18.8705H9.37222L6.44204 16.9561L6.44295 16.9552C5.98267 16.6543 5.68639 16.1913 5.58129 15.6912C5.47709 15.192 5.56226 14.6502 5.86217 14.1908V14.189L5.86307 14.1899ZM15.4446 13.2313L14.8502 14.141L27.93 24.4274C28.7056 24.9212 29.4766 24.8197 30.0447 24.4192C30.274 24.257 30.476 24.0441 30.6337 23.8031C30.7913 23.5612 30.9055 23.2912 30.9617 23.0157C31.1012 22.3299 30.8801 21.5778 30.0991 21.0659L15.4446 13.2322V13.2313ZM2.4989 25.9196H14.9961V24.9203C14.9961 24.6466 14.8828 24.3957 14.7016 24.2145C14.5213 24.0341 14.2703 23.92 13.9958 23.92H3.49737C3.22283 23.92 2.97186 24.0323 2.79065 24.2126L2.79155 24.2135C2.61125 24.3939 2.49708 24.6448 2.49708 24.9194V25.9187L2.4989 25.9196Z" fill="black"/>
</svg>
