<svg width="32" height="32" viewBox="0 0 32 32" fill="none" xmlns="http://www.w3.org/2000/svg">
<path d="M18.6415 5.42233C17.1827 4.63681 14.8175 4.63681 13.3586 5.42233L5.64147 9.57773C4.18266 10.3632 4.18266 11.6368 5.64147 12.4223L13.3586 16.5777C14.8175 17.3632 17.1827 17.3632 18.6415 16.5777L26.3586 12.4223C27.8175 11.6368 27.8175 10.3632 26.3587 9.57773L18.6415 5.42233ZM5.78579 14.5L5.64147 14.5777C4.18266 15.3633 4.18266 16.6368 5.64147 17.4223L13.3586 21.5777C14.8175 22.3633 17.1827 22.3633 18.6415 21.5777L26.3586 17.4223C27.8175 16.6368 27.8175 15.3633 26.3586 14.5777L26.2143 14.5L18.6415 18.5777C17.1827 19.3632 14.8175 19.3632 13.3586 18.5777L5.78579 14.5ZM5.78579 19.5L5.64147 19.5777C4.18266 20.3633 4.18266 21.6368 5.64147 22.4223L13.3586 26.5777C14.8175 27.3633 17.1827 27.3633 18.6415 26.5777L26.3586 22.4223C27.8175 21.6368 27.8175 20.3633 26.3586 19.5777L26.2143 19.5L18.6415 23.5777C17.1827 24.3632 14.8175 24.3632 13.3586 23.5777L5.78579 19.5Z" fill="black"/>
</svg>
