<svg width="32" height="32" viewBox="0 0 32 32" fill="none" xmlns="http://www.w3.org/2000/svg">
<path d="M17.8789 21.3333L13.7989 17.5068C13.5913 17.3146 13.4256 17.0815 13.3123 16.8222C13.1991 16.563 13.1406 16.2829 13.1406 16C13.1406 15.717 13.1991 15.4373 13.3123 15.178C13.4256 14.9187 13.5913 14.6857 13.7989 14.4934L17.8789 10.6666" stroke="black" stroke-width="1.5" stroke-linecap="round" stroke-linejoin="round"/>
<path d="M9.33333 28.0004L22.6667 28.0004C25.6122 28.0004 28 25.6126 28 22.667L28 9.3337C28 6.38818 25.6122 4.00037 22.6667 4.00037L9.33333 4.00037C6.38781 4.00037 4 6.38818 4 9.3337L4 22.667C4 25.6126 6.38781 28.0004 9.33333 28.0004Z" stroke="black" stroke-width="1.5" stroke-linecap="round" stroke-linejoin="round"/>
</svg>
