<svg width="32" height="32" viewBox="0 0 32 32" fill="none" xmlns="http://www.w3.org/2000/svg">
<path d="M12 2C11.5285 2 11.121 2.3294 11.0222 2.79047L10.3182 6.07561L21.9661 17.7235L24.8241 13.5665C25.0344 13.2605 25.0579 12.8631 24.885 12.5345C24.7121 12.2058 24.3714 12 24 12H18.2808L20.4702 3.24254C20.5448 2.94379 20.4777 2.6273 20.2882 2.38459C20.0987 2.14187 19.8079 2 19.5 2H12ZM8.02221 16.7905L8.82085 13.0635L13.7574 18H9.00001C8.69802 18 8.4122 17.8635 8.22234 17.6287C8.03249 17.3938 7.95893 17.0858 8.02221 16.7905ZM12.0136 28.8356L13.8107 18.0533L18.5092 22.7518L13.8241 29.5665C13.5585 29.9528 13.0603 30.1028 12.6256 29.9273C12.191 29.7518 11.9366 29.298 12.0136 28.8356ZM5.70711 4.29289C5.31658 3.90237 4.68342 3.90237 4.29289 4.29289C3.90237 4.68342 3.90237 5.31658 4.29289 5.70711L26.2929 27.7071C26.6834 28.0976 27.3166 28.0976 27.7071 27.7071C28.0976 27.3166 28.0976 26.6834 27.7071 26.2929L5.70711 4.29289Z" fill="black"/>
</svg>
