<svg width="32" height="32" viewBox="0 0 32 32" fill="none" xmlns="http://www.w3.org/2000/svg">
<path d="M11.0222 2.79047C11.121 2.3294 11.5285 2 12 2H19.5C19.8079 2 20.0987 2.14187 20.2882 2.38459C20.4777 2.6273 20.5448 2.94379 20.4702 3.24254L18.2808 12H24C24.3714 12 24.7121 12.2058 24.885 12.5345C25.0579 12.8631 25.0344 13.2605 24.8241 13.5665L21.9661 17.7235L20.5279 16.2852L22.099 14H18.2427L16.2239 11.9813L18.2192 4H12.8084L12.0027 7.76005L10.3183 6.0756L11.0222 2.79047ZM17.0709 21.3135L18.5092 22.7518L13.8241 29.5665C13.5585 29.9528 13.0603 30.1028 12.6256 29.9273C12.191 29.7518 11.9366 29.298 12.0136 28.8356L13.8107 18.0533L15.5486 19.7912L14.7265 24.7235L17.0709 21.3135ZM11.7574 16L13.7574 18H9.00001C8.69802 18 8.4122 17.8635 8.22234 17.6287C8.03249 17.3938 7.95893 17.0858 8.02221 16.7905L8.82085 13.0635L10.5053 14.7479L10.237 16H11.7574ZM5.70711 4.29289C5.31658 3.90237 4.68342 3.90237 4.29289 4.29289C3.90237 4.68342 3.90237 5.31658 4.29289 5.70711L26.2929 27.7071C26.6834 28.0976 27.3166 28.0976 27.7071 27.7071C28.0976 27.3166 28.0976 26.6834 27.7071 26.2929L5.70711 4.29289Z" fill="black"/>
</svg>
