<svg width="32" height="32" viewBox="0 0 32 32" fill="none" xmlns="http://www.w3.org/2000/svg">
<path d="M12 2C11.5285 2 11.121 2.3294 11.0222 2.79047L8.02221 16.7905C7.95893 17.0858 8.03249 17.3938 8.22234 17.6287C8.4122 17.8635 8.69802 18 9.00001 18H13.8195L12.0136 28.8356C11.9366 29.298 12.191 29.7518 12.6256 29.9273C13.0603 30.1028 13.5585 29.9528 13.8241 29.5665L24.8241 13.5665C25.0344 13.2605 25.0579 12.8631 24.885 12.5345C24.7121 12.2058 24.3714 12 24 12H18.2808L20.4702 3.24254C20.5448 2.94379 20.4777 2.6273 20.2882 2.38459C20.0987 2.14187 19.8079 2 19.5 2H12Z" fill="black"/>
</svg>
