<svg width="32" height="32" viewBox="0 0 32 32" fill="none" xmlns="http://www.w3.org/2000/svg">
<path d="M11.0222 2.79047C11.121 2.3294 11.5285 2 12 2H19.5C19.8079 2 20.0987 2.14187 20.2882 2.38459C20.4777 2.6273 20.5448 2.94379 20.4702 3.24254L18.2808 12H24C24.3714 12 24.7121 12.2058 24.885 12.5345C25.0579 12.8631 25.0344 13.2605 24.8241 13.5665L13.8241 29.5665C13.5585 29.9528 13.0603 30.1028 12.6256 29.9273C12.191 29.7518 11.9366 29.298 12.0136 28.8356L13.8195 18H9.00001C8.69802 18 8.4122 17.8635 8.22234 17.6287C8.03249 17.3938 7.95893 17.0858 8.02221 16.7905L11.0222 2.79047ZM12.8084 4L10.237 16H15C15.294 16 15.573 16.1293 15.763 16.3536C15.953 16.5779 16.0347 16.8744 15.9864 17.1644L14.7265 24.7235L22.099 14H17C16.6921 14 16.4013 13.8581 16.2118 13.6154C16.0223 13.3727 15.9552 13.0562 16.0299 12.7575L18.2192 4H12.8084Z" fill="black"/>
</svg>
