<svg width="32" height="32" viewBox="0 0 32 32" fill="none" xmlns="http://www.w3.org/2000/svg">
<path d="M20.4323 2.09823C20.8386 2.29301 21.0645 2.73551 20.9839 3.17887L19.1982 13H25C25.3915 13 25.747 13.2285 25.9097 13.5846C26.0723 13.9408 26.0121 14.3591 25.7557 14.6549L12.7557 29.6549C12.4606 29.9955 11.9741 30.0965 11.5678 29.9017C11.1614 29.707 10.9355 29.2645 11.0161 28.8211L12.8018 19H7.00002C6.6085 19 6.25299 18.7715 6.09036 18.4154C5.92774 18.0592 5.98791 17.6409 6.24433 17.3451L19.2443 2.34506C19.5395 2.00452 20.0259 1.90345 20.4323 2.09823ZM9.18998 17H14C14.2965 17 14.5778 17.1316 14.7678 17.3592C14.9578 17.5869 15.0369 17.8871 14.9839 18.1789L13.6376 25.5836L22.8101 15H18C17.7035 15 17.4223 14.8684 17.2323 14.6407C17.0423 14.4131 16.9631 14.1128 17.0161 13.8211L18.3625 6.41635L9.18998 17Z" fill="black"/>
</svg>
