<svg width="32" height="32" viewBox="0 0 32 32" fill="none" xmlns="http://www.w3.org/2000/svg">
<path d="M20.9839 3.17887C21.0645 2.73551 20.8386 2.29301 20.4323 2.09823C20.0259 1.90345 19.5395 2.00452 19.2443 2.34506L6.24433 17.3451C5.98791 17.6409 5.92774 18.0592 6.09036 18.4154C6.25299 18.7715 6.6085 19 7.00002 19H12.8018L11.0161 28.8211C10.9355 29.2645 11.1614 29.707 11.5678 29.9017C11.9741 30.0965 12.4606 29.9955 12.7557 29.6549L25.7557 14.6549C26.0121 14.3591 26.0723 13.9408 25.9097 13.5846C25.747 13.2285 25.3915 13 25 13H19.1982L20.9839 3.17887Z" fill="black"/>
</svg>
