<svg width="32" height="32" viewBox="0 0 32 32" fill="none" xmlns="http://www.w3.org/2000/svg">
<path d="M15 7.41422V23C15 23.5523 15.4477 24 16 24C16.5523 24 17 23.5523 17 23V7.41422L21.2929 11.7071C21.6834 12.0976 22.3166 12.0976 22.7071 11.7071C23.0976 11.3166 23.0976 10.6834 22.7071 10.2929L16.7071 4.29289C16.3166 3.90237 15.6834 3.90237 15.2929 4.29289L9.29289 10.2929C8.90237 10.6834 8.90237 11.3166 9.29289 11.7071C9.68342 12.0976 10.3166 12.0976 10.7071 11.7071L15 7.41422ZM7 26C6.44772 26 6 26.4477 6 27C6 27.5523 6.44772 28 7 28H25C25.5523 28 26 27.5523 26 27C26 26.4477 25.5523 26 25 26H7Z" fill="black"/>
</svg>
