<svg width="32" height="32" viewBox="0 0 32 32" fill="none" xmlns="http://www.w3.org/2000/svg">
<path d="M17 5C17 4.44772 16.5523 4 16 4C15.4477 4 15 4.44772 15 5V20.5858L10.7071 16.2929C10.3166 15.9024 9.68342 15.9024 9.29289 16.2929C8.90237 16.6834 8.90237 17.3166 9.29289 17.7071L15.2929 23.7071C15.6834 24.0976 16.3166 24.0976 16.7071 23.7071L22.7071 17.7071C23.0976 17.3166 23.0976 16.6834 22.7071 16.2929C22.3166 15.9024 21.6834 15.9024 21.2929 16.2929L17 20.5858V5ZM7 26C6.44772 26 6 26.4477 6 27C6 27.5523 6.44772 28 7 28H25C25.5523 28 26 27.5523 26 27C26 26.4477 25.5523 26 25 26H7Z" fill="black"/>
</svg>
