<svg width="32" height="32" viewBox="0 0 32 32" fill="none" xmlns="http://www.w3.org/2000/svg">
<path d="M21.6568 17.4143L25.8995 13.1717C27.8521 11.2191 27.8521 8.05323 25.8995 6.1006C23.9469 4.14798 20.781 4.14798 18.8284 6.10061L15.2043 9.72471C14.301 9.58286 13.3791 9.58698 12.4769 9.73706C12.6846 9.45474 12.9161 9.18447 13.1716 8.92903L17.4142 4.68639C20.1479 1.95272 24.58 1.95272 27.3137 4.68639C30.0474 7.42006 30.0474 11.8522 27.3137 14.5859L23.0711 18.8285C20.3374 21.5622 15.9052 21.5622 13.1716 18.8285C12.27 17.927 11.6658 16.8407 11.3589 15.6915L11.4039 15.6464C11.9105 15.1399 12.5337 14.821 13.1872 14.69C13.3503 15.6875 13.8165 16.645 14.5858 17.4143C16.5384 19.3669 19.7042 19.3669 21.6568 17.4143ZM18.8286 13.1715C19.7302 14.073 20.3344 15.1593 20.6413 16.3085L20.5963 16.3536C20.0897 16.8601 19.4664 17.179 18.813 17.3101C18.6499 16.3125 18.1837 15.355 17.4144 14.5857C15.4618 12.6331 12.296 12.6331 10.3433 14.5857L6.1007 18.8283C4.14807 20.7809 4.14808 23.9468 6.1007 25.8994C8.05332 27.852 11.2191 27.852 13.1718 25.8994L16.7959 22.2753C17.6992 22.4171 18.621 22.413 19.5233 22.2629C19.3156 22.5453 19.0841 22.8155 18.8286 23.071L14.586 27.3136C11.8523 30.0473 7.42015 30.0473 4.68648 27.3136C1.95281 24.5799 1.95281 20.1478 4.68648 17.4141L8.92912 13.1715C11.6628 10.4378 16.0949 10.4378 18.8286 13.1715Z" fill="black"/>
</svg>
