<svg width="32" height="32" viewBox="0 0 32 32" fill="none" xmlns="http://www.w3.org/2000/svg">
<path d="M6.66495 11.5V6.40912H5.65323L4.39293 7.20706V8.1616L5.55877 7.43078H5.5886V11.5H6.66495ZM12.2499 7.75003C11.5595 7.75003 10.9999 8.30967 10.9999 9.00003C10.9999 9.69038 11.5595 10.25 12.2499 10.25H26.7499C27.4402 10.25 27.9999 9.69038 27.9999 9.00003C27.9999 8.30967 27.4402 7.75003 26.7499 7.75003H12.2499ZM12.2499 14.75C11.5595 14.75 10.9999 15.3097 10.9999 16C10.9999 16.6904 11.5595 17.25 12.2499 17.25H26.7499C27.4402 17.25 27.9999 16.6904 27.9999 16C27.9999 15.3097 27.4402 14.75 26.7499 14.75H12.2499ZM10.9999 23C10.9999 22.3097 11.5595 21.75 12.2499 21.75H26.7499C27.4402 21.75 27.9999 22.3097 27.9999 23C27.9999 23.6904 27.4402 24.25 26.7499 24.25H12.2499C11.5595 24.25 10.9999 23.6904 10.9999 23ZM4.45792 18.5V17.7245L6.27006 16.0465C6.42418 15.8974 6.55344 15.7632 6.65785 15.6438C6.76391 15.5245 6.84428 15.4077 6.89897 15.2934C6.95366 15.1773 6.981 15.0522 6.981 14.918C6.981 14.7688 6.94703 14.6404 6.87908 14.5327C6.81114 14.4233 6.71834 14.3396 6.60068 14.2816C6.48301 14.222 6.34961 14.1921 6.20046 14.1921C6.04469 14.1921 5.9088 14.2236 5.79279 14.2866C5.67679 14.3496 5.5873 14.4399 5.52433 14.5576C5.46135 14.6752 5.42987 14.8153 5.42987 14.9777H4.4082C4.4082 14.6446 4.48361 14.3554 4.63441 14.1101C4.78522 13.8648 4.99651 13.6751 5.26829 13.5409C5.54007 13.4066 5.85328 13.3395 6.20792 13.3395C6.5725 13.3395 6.88986 13.4041 7.15998 13.5334C7.43176 13.661 7.64305 13.8383 7.79386 14.0654C7.94466 14.2924 8.02006 14.5526 8.02006 14.8459C8.02006 15.0381 7.98195 15.2279 7.90572 15.4152C7.83114 15.6024 7.69774 15.8104 7.5055 16.0391C7.31327 16.2661 7.04232 16.5387 6.69265 16.8569L5.9494 17.5853V17.6201H8.08718V18.5H4.45792ZM5.24529 25.3782C5.5353 25.5058 5.86592 25.5696 6.23713 25.5696C6.61828 25.5696 6.95635 25.505 7.25133 25.3757C7.54631 25.2465 7.77749 25.0692 7.94487 24.8438C8.1139 24.6184 8.19759 24.3607 8.19593 24.0707C8.19759 23.7542 8.09982 23.4907 7.90261 23.2802C7.70706 23.0681 7.42202 22.938 7.0475 22.8899V22.8502C7.33253 22.7988 7.56371 22.6778 7.74103 22.4872C7.92001 22.2967 8.00867 22.0589 8.00701 21.7738C8.00867 21.5054 7.93575 21.2634 7.78826 21.048C7.64243 20.8309 7.43777 20.6585 7.17427 20.5309C6.91078 20.4033 6.60337 20.3395 6.25204 20.3395C5.90403 20.3395 5.59165 20.4033 5.3149 20.5309C5.0398 20.6569 4.82105 20.8317 4.65865 21.0554C4.49624 21.2791 4.41255 21.5377 4.40758 21.831H5.43919C5.44416 21.7017 5.4831 21.589 5.55602 21.4929C5.62894 21.3968 5.72588 21.3231 5.84686 21.2717C5.96783 21.2187 6.10124 21.1921 6.24707 21.1921C6.39125 21.1921 6.51719 21.2195 6.62491 21.2742C6.73429 21.3289 6.8188 21.4051 6.87846 21.5029C6.93978 21.599 6.97044 21.7108 6.97044 21.8385C6.97044 21.9727 6.93564 22.0903 6.86603 22.1914C6.79643 22.2909 6.69866 22.3688 6.57271 22.4251C6.44842 22.4814 6.30507 22.5096 6.14267 22.5096H5.66788V23.3001H6.14267C6.3349 23.3001 6.50062 23.3299 6.63983 23.3896C6.78069 23.4492 6.88841 23.5321 6.96298 23.6382C7.03921 23.7426 7.07733 23.8627 7.07733 23.9986C7.07733 24.1328 7.0417 24.2513 6.97044 24.3541C6.89918 24.4568 6.80057 24.5372 6.67463 24.5952C6.54868 24.6532 6.40368 24.6822 6.23961 24.6822C6.08218 24.6822 5.94049 24.6565 5.81454 24.6051C5.6886 24.5538 5.58751 24.4817 5.51128 24.3889C5.4367 24.2944 5.3961 24.185 5.38947 24.0608H4.30566C4.31064 24.3574 4.39598 24.6192 4.5617 24.8463C4.72908 25.0716 4.95694 25.249 5.24529 25.3782Z" fill="black"/>
</svg>
