<svg width="32" height="32" viewBox="0 0 32 32" fill="none" xmlns="http://www.w3.org/2000/svg">
<path d="M8 9C8 10.1046 7.10457 11 6 11C4.89543 11 4 10.1046 4 9C4 7.89543 4.89543 7 6 7C7.10457 7 8 7.89543 8 9ZM12.25 7.75C11.5596 7.75 11 8.30964 11 9C11 9.69036 11.5596 10.25 12.25 10.25H26.75C27.4404 10.25 28 9.69036 28 9C28 8.30964 27.4404 7.75 26.75 7.75H12.25ZM12.25 14.75C11.5596 14.75 11 15.3096 11 16C11 16.6904 11.5596 17.25 12.25 17.25H26.75C27.4404 17.25 28 16.6904 28 16C28 15.3096 27.4404 14.75 26.75 14.75H12.25ZM11 23C11 22.3096 11.5596 21.75 12.25 21.75H26.75C27.4404 21.75 28 22.3096 28 23C28 23.6904 27.4404 24.25 26.75 24.25H12.25C11.5596 24.25 11 23.6904 11 23ZM6 18C7.10457 18 8 17.1046 8 16C8 14.8954 7.10457 14 6 14C4.89543 14 4 14.8954 4 16C4 17.1046 4.89543 18 6 18ZM6 25C7.10457 25 8 24.1046 8 23C8 21.8954 7.10457 21 6 21C4.89543 21 4 21.8954 4 23C4 24.1046 4.89543 25 6 25Z" fill="black"/>
</svg>
