<svg width="32" height="32" viewBox="0 0 32 32" fill="none" xmlns="http://www.w3.org/2000/svg">
<path d="M6.20424 6.59756C6.31298 6.33418 6.68702 6.33418 6.79576 6.59756L7.38912 8.03472H8.6795C8.97067 8.03472 9.1104 8.39115 8.89645 8.58811L7.81398 9.58464L8.3055 10.9735C8.40622 11.2582 8.091 11.5102 7.83436 11.3502L6.5 10.5185L5.16564 11.3502C4.909 11.5102 4.59378 11.2582 4.6945 10.9735L5.18602 9.58464L4.10355 8.58811C3.8896 8.39115 4.02933 8.03472 4.3205 8.03472H5.61088L6.20424 6.59756ZM12.25 7.75C11.5596 7.75 11 8.30964 11 9C11 9.69036 11.5596 10.25 12.25 10.25H26.75C27.4404 10.25 28 9.69036 28 9C28 8.30964 27.4404 7.75 26.75 7.75H12.25ZM12.25 14.75C11.5596 14.75 11 15.3096 11 16C11 16.6904 11.5596 17.25 12.25 17.25H26.75C27.4404 17.25 28 16.6904 28 16C28 15.3096 27.4404 14.75 26.75 14.75H12.25ZM11 23C11 22.3096 11.5596 21.75 12.25 21.75H26.75C27.4404 21.75 28 22.3096 28 23C28 23.6904 27.4404 24.25 26.75 24.25H12.25C11.5596 24.25 11 23.6904 11 23ZM6.79576 13.5976C6.68702 13.3342 6.31298 13.3342 6.20424 13.5976L5.61088 15.0347H4.3205C4.02933 15.0347 3.8896 15.3912 4.10355 15.5881L5.18602 16.5846L4.6945 17.9735C4.59378 18.2582 4.909 18.5102 5.16564 18.3502L6.5 17.5185L7.83436 18.3502C8.091 18.5102 8.40622 18.2582 8.3055 17.9735L7.81398 16.5846L8.89645 15.5881C9.1104 15.3912 8.97067 15.0347 8.6795 15.0347H7.38912L6.79576 13.5976ZM5.61088 22.0347L6.20424 20.5976C6.31298 20.3342 6.68702 20.3342 6.79576 20.5976L7.38912 22.0347H8.6795C8.97067 22.0347 9.1104 22.3912 8.89645 22.5881L7.81398 23.5846L8.3055 24.9735C8.40622 25.2582 8.091 25.5102 7.83436 25.3502L6.5 24.5185L5.16564 25.3502C4.909 25.5102 4.59378 25.2582 4.6945 24.9735L5.18602 23.5846L4.10355 22.5881C3.8896 22.3912 4.02933 22.0347 4.3205 22.0347H5.61088Z" fill="black"/>
</svg>
