<svg width="32" height="32" viewBox="0 0 32 32" fill="none" xmlns="http://www.w3.org/2000/svg">
<path d="M5.5 10H7.5V8H5.5V10ZM4 7.5C4 6.94772 4.44772 6.5 5 6.5H8C8.55228 6.5 9 6.94772 9 7.5V10.5C9 11.0523 8.55228 11.5 8 11.5H5C4.44772 11.5 4 11.0523 4 10.5V7.5ZM12.25 7.75C11.5596 7.75 11 8.30964 11 9C11 9.69036 11.5596 10.25 12.25 10.25H26.75C27.4404 10.25 28 9.69036 28 9C28 8.30964 27.4404 7.75 26.75 7.75H12.25ZM12.25 14.75C11.5596 14.75 11 15.3096 11 16C11 16.6904 11.5596 17.25 12.25 17.25H26.75C27.4404 17.25 28 16.6904 28 16C28 15.3096 27.4404 14.75 26.75 14.75H12.25ZM11 23C11 22.3096 11.5596 21.75 12.25 21.75H26.75C27.4404 21.75 28 22.3096 28 23C28 23.6904 27.4404 24.25 26.75 24.25H12.25C11.5596 24.25 11 23.6904 11 23ZM5.5 15H7.5V17H5.5V15ZM5 13.5C4.44772 13.5 4 13.9477 4 14.5V17.5C4 18.0523 4.44772 18.5 5 18.5H8C8.55228 18.5 9 18.0523 9 17.5V14.5C9 13.9477 8.55228 13.5 8 13.5H5ZM5.5 24H7.5V22H5.5V24ZM4 21.5C4 20.9477 4.44772 20.5 5 20.5H8C8.55228 20.5 9 20.9477 9 21.5V24.5C9 25.0523 8.55228 25.5 8 25.5H5C4.44772 25.5 4 25.0523 4 24.5V21.5Z" fill="black"/>
</svg>
