<svg width="32" height="32" viewBox="0 0 32 32" fill="none" xmlns="http://www.w3.org/2000/svg">
<path d="M5.40924 8.37674C5.11634 8.08385 4.64147 8.08385 4.34858 8.37674C4.05568 8.66964 4.05568 9.14451 4.34858 9.4374L5.76279 10.8516C6.05568 11.1445 6.53056 11.1445 6.82345 10.8516L9.65188 8.02319C9.94477 7.7303 9.94477 7.25542 9.65188 6.96253C9.35898 6.66964 8.88411 6.66964 8.59122 6.96253L6.29312 9.26063L5.40924 8.37674ZM12.2502 7.75003C11.5599 7.75003 11.0002 8.30967 11.0002 9.00003C11.0002 9.69038 11.5599 10.25 12.2502 10.25H26.7502C27.4406 10.25 28.0002 9.69038 28.0002 9.00003C28.0002 8.30967 27.4406 7.75003 26.7502 7.75003H12.2502ZM12.2502 14.75C11.5599 14.75 11.0002 15.3097 11.0002 16C11.0002 16.6904 11.5599 17.25 12.2502 17.25H26.7502C27.4406 17.25 28.0002 16.6904 28.0002 16C28.0002 15.3097 27.4406 14.75 26.7502 14.75H12.2502ZM11.0002 23C11.0002 22.3097 11.5599 21.75 12.2502 21.75H26.7502C27.4406 21.75 28.0002 22.3097 28.0002 23C28.0002 23.6904 27.4406 24.25 26.7502 24.25H12.2502C11.5599 24.25 11.0002 23.6904 11.0002 23ZM4.34858 15.4981C4.64147 15.2052 5.11634 15.2052 5.40924 15.4981L6.29312 16.382L8.59122 14.0839C8.88411 13.791 9.35898 13.791 9.65188 14.0839C9.94477 14.3768 9.94477 14.8516 9.65188 15.1445L6.82345 17.973C6.53056 18.2658 6.05568 18.2658 5.76279 17.973L4.34858 16.5587C4.05568 16.2658 4.05568 15.791 4.34858 15.4981ZM5.40924 22.4981C5.11634 22.2052 4.64147 22.2052 4.34858 22.4981C4.05568 22.791 4.05568 23.2658 4.34858 23.5587L5.76279 24.973C6.05568 25.2658 6.53056 25.2658 6.82345 24.973L9.65188 22.1445C9.94477 21.8516 9.94477 21.3768 9.65188 21.0839C9.35898 20.791 8.88411 20.791 8.59122 21.0839L6.29312 23.382L5.40924 22.4981Z" fill="black"/>
</svg>
