<svg width="32" height="32" viewBox="0 0 32 32" fill="none" xmlns="http://www.w3.org/2000/svg">
<path d="M13.9121 4.32935C11.7519 5.0381 10 6.8833 10 10V12H24C25.6569 12 27 13.3431 27 15V27C27 28.6569 25.6569 30 24 30H8C6.34315 30 5 28.6569 5 27V15C5 13.3431 6.34315 12 8 12V10C8 5.95561 10.369 3.38693 13.2886 2.42901C16.1399 1.49355 19.5665 2.07922 21.7843 4.29211C22.1752 4.6822 22.1759 5.31537 21.7859 5.70633C21.3958 6.09729 20.7626 6.09799 20.3716 5.7079C18.7532 4.09302 16.1408 3.59815 13.9121 4.32935ZM9 14L8.99605 14H8C7.44772 14 7 14.4477 7 15V27C7 27.5523 7.44772 28 8 28H24C24.5523 28 25 27.5523 25 27V15C25 14.4477 24.5523 14 24 14H9.00395L9 14ZM18 21C18 19.8954 17.1046 19 16 19C14.8954 19 14 19.8954 14 21C14 22.1046 14.8954 23 16 23C17.1046 23 18 22.1046 18 21ZM20 21C20 23.2091 18.2091 25 16 25C13.7909 25 12 23.2091 12 21C12 18.7909 13.7909 17 16 17C18.2091 17 20 18.7909 20 21Z" fill="black"/>
</svg>
