<svg width="32" height="32" viewBox="0 0 32 32" fill="none" xmlns="http://www.w3.org/2000/svg">
<path d="M11.8519 5.49741C12.9588 4.51344 14.4631 4 16 4C17.5369 4 19.0412 4.51344 20.1481 5.49741C21.2367 6.46502 22 7.93802 22 10V12H10V10C10 7.93802 10.7633 6.46502 11.8519 5.49741ZM8 10V12C6.34315 12 5 13.3431 5 15V27C5 28.6569 6.34315 30 8 30H24C25.6569 30 27 28.6569 27 27V15C27 13.3431 25.6569 12 24 12V10C24 7.39531 23.0133 5.36831 21.4769 4.00259C19.9588 2.65323 17.9631 2 16 2C14.0369 2 12.0412 2.65323 10.5231 4.00259C8.9867 5.36831 8 7.39531 8 10ZM8 14H24C24.5523 14 25 14.4477 25 15V27C25 27.5523 24.5523 28 24 28H8C7.44772 28 7 27.5523 7 27V15C7 14.4477 7.44772 14 8 14ZM18 21C18 19.8954 17.1046 19 16 19C14.8954 19 14 19.8954 14 21C14 22.1046 14.8954 23 16 23C17.1046 23 18 22.1046 18 21ZM20 21C20 23.2091 18.2091 25 16 25C13.7909 25 12 23.2091 12 21C12 18.7909 13.7909 17 16 17C18.2091 17 20 18.7909 20 21Z" fill="black"/>
</svg>
