<svg width="32" height="32" viewBox="0 0 32 32" fill="none" xmlns="http://www.w3.org/2000/svg">
<path d="M10 10C10 6.8833 11.7519 5.0381 13.9121 4.32935C16.1408 3.59815 18.7532 4.09302 20.3716 5.7079C20.7626 6.09799 21.3958 6.09729 21.7859 5.70633C22.1759 5.31537 22.1752 4.6822 21.7843 4.29211C19.5665 2.07922 16.1399 1.49355 13.2886 2.42901C10.369 3.38693 8 5.95561 8 10V12C6.34315 12 5 13.3431 5 15V27C5 28.6569 6.34315 30 8 30H24C25.6569 30 27 28.6569 27 27V15C27 13.3431 25.6569 12 24 12H10V10ZM16 23C17.1046 23 18 22.1046 18 21C18 19.8954 17.1046 19 16 19C14.8954 19 14 19.8954 14 21C14 22.1046 14.8954 23 16 23ZM16 25C13.7909 25 12 23.2091 12 21C12 18.7909 13.7909 17 16 17C18.2091 17 20 18.7909 20 21C20 23.2091 18.2091 25 16 25Z" fill="black"/>
</svg>
