<svg width="32" height="32" viewBox="0 0 32 32" fill="none" xmlns="http://www.w3.org/2000/svg">
<path d="M10 10V12H22V10C22 7.93802 21.2367 6.46502 20.1481 5.49741C19.0412 4.51344 17.5369 4 16 4C14.4631 4 12.9588 4.51344 11.8519 5.49741C10.7633 6.46502 10 7.93802 10 10ZM8 12V10C8 7.39531 8.9867 5.36831 10.5231 4.00259C12.0412 2.65323 14.0369 2 16 2C17.9631 2 19.9588 2.65323 21.4769 4.00259C23.0133 5.36831 24 7.39531 24 10V12C25.6569 12 27 13.3431 27 15V27C27 28.6569 25.6569 30 24 30H8C6.34315 30 5 28.6569 5 27V15C5 13.3431 6.34315 12 8 12ZM16 23C17.1046 23 18 22.1046 18 21C18 19.8954 17.1046 19 16 19C14.8954 19 14 19.8954 14 21C14 22.1046 14.8954 23 16 23ZM16 25C18.2091 25 20 23.2091 20 21C20 18.7909 18.2091 17 16 17C13.7909 17 12 18.7909 12 21C12 23.2091 13.7909 25 16 25Z" fill="black"/>
</svg>
