<svg width="32" height="32" viewBox="0 0 32 32" fill="none" xmlns="http://www.w3.org/2000/svg">
<path d="M14.1665 17.798C14.4054 17.3129 14.704 16.8623 15.0528 16.4561C14.5564 16.3903 14.0406 16.3556 13.5112 16.3556C10.307 16.3556 7.5978 17.6271 6.70871 19.3751C5.62247 17.9433 4.97789 16.158 4.97789 14.2222C4.97789 9.50939 8.79839 5.68888 13.5112 5.68888C18.224 5.68888 22.0446 9.50939 22.0446 14.2222C22.0446 14.3433 22.042 14.4639 22.037 14.5837C22.5255 14.7557 22.9869 14.9853 23.4129 15.2643C23.4485 14.9218 23.4668 14.5741 23.4668 14.2222C23.4668 8.72392 19.0095 4.26666 13.5112 4.26666C8.01292 4.26666 3.55566 8.72392 3.55566 14.2222C3.55566 16.9767 4.67434 19.47 6.48215 21.2724C6.70416 21.4938 6.93656 21.7047 7.17856 21.9044C8.89947 23.3246 11.1057 24.1778 13.5112 24.1778C13.8631 24.1778 14.2108 24.1595 14.5533 24.1239C14.2743 23.6979 14.0447 23.2365 13.8727 22.748C13.7529 22.753 13.6323 22.7556 13.5112 22.7556C11.326 22.7556 9.33267 21.9342 7.82304 20.5833C7.84056 20.1037 8.18379 19.4433 9.21463 18.8248C10.2453 18.2064 11.761 17.7778 13.5112 17.7778C13.7336 17.7778 13.9522 17.7847 14.1665 17.798ZM13.5112 13.5111C12.333 13.5111 11.3779 12.556 11.3779 11.3778C11.3779 10.1996 12.333 9.24444 13.5112 9.24444C14.6894 9.24444 15.6446 10.1996 15.6446 11.3778C15.6446 12.556 14.6894 13.5111 13.5112 13.5111ZM13.5112 14.9333C15.4749 14.9333 17.0668 13.3415 17.0668 11.3778C17.0668 9.41409 15.4749 7.82222 13.5112 7.82222C11.5475 7.82222 9.95566 9.41409 9.95566 11.3778C9.95566 13.3415 11.5475 14.9333 13.5112 14.9333Z" fill="black"/>
<path fill-rule="evenodd" clip-rule="evenodd" d="M15.1558 22.013C15.1558 21.722 15.3916 21.4861 15.6826 21.4861H24.1119C24.4028 21.4861 24.6387 21.722 24.6387 22.013C24.6387 22.3039 24.4028 22.5398 24.1119 22.5398H15.6826C15.3916 22.5398 15.1558 22.3039 15.1558 22.013Z" fill="black"/>
<path fill-rule="evenodd" clip-rule="evenodd" d="M21.281 19.182C21.4868 18.9762 21.8203 18.9762 22.026 19.182L24.4846 21.6405C24.6903 21.8463 24.6903 22.1798 24.4846 22.3855L22.026 24.8441C21.8203 25.0498 21.4868 25.0498 21.281 24.8441C21.0753 24.6383 21.0753 24.3048 21.281 24.099L23.367 22.013L21.281 19.927C21.0753 19.7213 21.0753 19.3877 21.281 19.182Z" fill="black"/>
<path fill-rule="evenodd" clip-rule="evenodd" d="M21.4093 16.9203C19.432 16.9203 17.7169 18.0471 16.8729 19.6962C16.7403 19.9552 16.4229 20.0577 16.1639 19.9251C15.9049 19.7925 15.8024 19.4751 15.9349 19.2161C16.9521 17.2288 19.0212 15.8666 21.4093 15.8666C24.8039 15.8666 27.5557 18.6185 27.5557 22.013C27.5557 22.8271 27.3971 23.6055 27.1087 24.318C26.9996 24.5877 26.6925 24.7178 26.4227 24.6086C26.1531 24.4995 26.0229 24.1923 26.1321 23.9226C26.3705 23.3336 26.502 22.6893 26.502 22.013C26.502 19.2004 24.222 16.9203 21.4093 16.9203ZM16.1639 24.1008C16.4229 23.9683 16.7403 24.0708 16.8729 24.3298C17.7169 25.9788 19.432 27.1057 21.4093 27.1057C22.3054 27.1057 23.1461 26.8747 23.8764 26.4694C24.1308 26.3282 24.4515 26.42 24.5927 26.6744C24.7338 26.9289 24.642 27.2495 24.3877 27.3907C23.5049 27.8806 22.4889 28.1593 21.4093 28.1593C19.0212 28.1593 16.9521 26.7972 15.9349 24.8099C15.8024 24.5508 15.9049 24.2334 16.1639 24.1008Z" fill="black"/>
</svg>
