<svg width="32" height="32" viewBox="0 0 32 32" fill="none" xmlns="http://www.w3.org/2000/svg">
<path d="M21 13C21 8.58172 17.4183 5 13 5C8.58172 5 5 8.58172 5 13C5 17.4183 8.58172 21 13 21C17.4183 21 21 17.4183 21 13ZM19.016 20.9887C17.3419 22.2514 15.2584 23 13 23C7.47715 23 3 18.5228 3 13C3 7.47715 7.47715 3 13 3C18.5228 3 23 7.47715 23 13C23 15.1821 22.3011 17.201 21.1149 18.845L28.0606 25.7908C28.6464 26.3765 28.6464 27.3263 28.0606 27.9121C27.4749 28.4979 26.5251 28.4979 25.9393 27.9121L19.016 20.9887ZM9 12C8.44772 12 8 12.4477 8 13C8 13.5523 8.44772 14 9 14H12V17C12 17.5523 12.4477 18 13 18C13.5523 18 14 17.5523 14 17V14H17C17.5523 14 18 13.5523 18 13C18 12.4477 17.5523 12 17 12H14V9C14 8.44772 13.5523 8 13 8C12.4477 8 12 8.44772 12 9V12H9Z" fill="black"/>
</svg>
