<svg width="32" height="32" viewBox="0 0 32 32" fill="none" xmlns="http://www.w3.org/2000/svg">
<path d="M21.1149 18.9935C22.3011 17.3496 23 15.3307 23 13.1486C23 7.62571 18.5228 3.14856 13 3.14856C7.47715 3.14856 3 7.62571 3 13.1486C3 18.6714 7.47715 23.1486 13 23.1486C15.2584 23.1486 17.3419 22.3999 19.016 21.1373L25.9393 28.0607C26.5251 28.6464 27.4749 28.6464 28.0607 28.0607C28.6464 27.4749 28.6464 26.5251 28.0607 25.9393L21.1149 18.9935ZM9 12.1486H12V9.14856C12 8.59627 12.4477 8.14856 13 8.14856C13.5523 8.14856 14 8.59627 14 9.14856V12.1486H17C17.5523 12.1486 18 12.5963 18 13.1486C18 13.7008 17.5523 14.1486 17 14.1486H14V17.1486C14 17.7008 13.5523 18.1486 13 18.1486C12.4477 18.1486 12 17.7008 12 17.1486V14.1486H9C8.44772 14.1486 8 13.7008 8 13.1486C8 12.5963 8.44772 12.1486 9 12.1486Z" fill="black"/>
</svg>
