<svg width="32" height="32" viewBox="0 0 32 32" fill="none" xmlns="http://www.w3.org/2000/svg">
<path d="M13 21C8.58172 21 5 17.4183 5 13C5 8.58172 8.58172 5 13 5C17.4183 5 21 8.58172 21 13C21 17.4183 17.4183 21 13 21ZM13 23C15.2584 23 17.3419 22.2514 19.016 20.9887L25.9393 27.9121C26.5251 28.4979 27.4749 28.4979 28.0606 27.9121C28.6464 27.3263 28.6464 26.3765 28.0606 25.7908L21.1149 18.845C22.3011 17.201 23 15.1821 23 13C23 7.47715 18.5228 3 13 3C7.47715 3 3 7.47715 3 13C3 18.5228 7.47715 23 13 23ZM9 12C8.44772 12 8 12.4477 8 13C8 13.5523 8.44772 14 9 14H17C17.5523 14 18 13.5523 18 13C18 12.4477 17.5523 12 17 12H9Z" fill="black"/>
</svg>
