<svg width="32" height="32" viewBox="0 0 32 32" fill="none" xmlns="http://www.w3.org/2000/svg">
<path d="M19.016 21.1373C17.3419 22.3999 15.2584 23.1486 13 23.1486C7.47715 23.1486 3 18.6714 3 13.1486C3 7.62571 7.47715 3.14856 13 3.14856C18.5228 3.14856 23 7.62571 23 13.1486C23 15.3307 22.3011 17.3496 21.1149 18.9935L28.0606 25.9393C28.6464 26.5251 28.6464 27.4749 28.0606 28.0606C27.4749 28.6464 26.5251 28.6464 25.9393 28.0606L19.016 21.1373ZM8 13.1486C8 13.7008 8.44772 14.1486 9 14.1486H17C17.5523 14.1486 18 13.7008 18 13.1486C18 12.5963 17.5523 12.1486 17 12.1486H9C8.44772 12.1486 8 12.5963 8 13.1486Z" fill="black"/>
</svg>
