<svg width="32" height="32" viewBox="0 0 32 32" fill="none" xmlns="http://www.w3.org/2000/svg">
<path d="M2.1758 7.98571C2.062 8.30252 2 8.64402 2 9V23C2 24.6569 3.34315 26 5 26H27C28.6569 26 30 24.6569 30 23V9C30 8.64402 29.938 8.30252 29.8242 7.98571L18.2188 15.7226C16.8752 16.6184 15.1248 16.6184 13.7812 15.7226L2.1758 7.98571ZM28.5504 6.43119C28.098 6.15751 27.5674 6 27 6H5C4.43262 6 3.90202 6.15751 3.44956 6.43119L14.8906 14.0585C15.5624 14.5064 16.4376 14.5064 17.1094 14.0585L28.5504 6.43119Z" fill="black"/>
</svg>
