<svg width="32" height="32" viewBox="0 0 32 32" fill="none" xmlns="http://www.w3.org/2000/svg">
<path d="M4 10.3541L11 7.55407L11 21.2691C10.8757 21.3035 10.7528 21.3448 10.6318 21.3932L4 24.0459V10.3541ZM13.4969 21.5124C13.3356 21.4317 13.1694 21.3642 13 21.3099L13 7.73607L18.5031 10.4876C18.6644 10.5683 18.8306 10.6358 19 10.6901V24.2639L13.4969 21.5124ZM21 24.4459V10.7309C21.1243 10.6965 21.2472 10.6552 21.3682 10.6068L28 7.95407V21.6459L21 24.4459ZM2.94291 8.62283C2.37343 8.85063 2 9.40219 2 10.0156V24.7845C2 25.8456 3.07179 26.5713 4.05709 26.1772L11.3746 23.2502C11.7724 23.091 12.2193 23.1096 12.6025 23.3012L19.3975 26.6988C19.7807 26.8904 20.2276 26.909 20.6254 26.7498L29.0571 23.3772C29.6266 23.1494 30 22.5978 30 21.9845V7.21555C30 6.15435 28.9282 5.42872 27.9429 5.82284L20.6254 8.74983C20.2276 8.90896 19.7807 8.89037 19.3975 8.69876L12.6025 5.30124C12.2193 5.10963 11.7724 5.09104 11.3746 5.25017L2.94291 8.62283Z" fill="black"/>
</svg>
