<svg width="32" height="32" viewBox="0 0 32 32" fill="none" xmlns="http://www.w3.org/2000/svg">
<path d="M19.2559 19.9248C21.3193 17.1344 23 13.8219 23 11C23 7.13401 19.866 4 16 4C12.134 4 9 7.13401 9 11C9 13.8219 10.6807 17.1344 12.7441 19.9248C13.745 21.2783 14.7676 22.4168 15.5761 23.2002C15.7293 23.3486 15.871 23.4807 16 23.5964C16.129 23.4807 16.2707 23.3486 16.4239 23.2002C17.2324 22.4168 18.255 21.2783 19.2559 19.9248ZM16 26C15.6469 26 14.3599 24.9375 12.865 23.25C11.6475 23.4523 10.5872 23.765 9.74966 24.1418C8.99913 24.4796 8.51413 24.8299 8.24316 25.1181C8.11273 25.2569 8.05118 25.3607 8.02377 25.421C7.99968 25.4739 7.99996 25.497 8 25.5002C7.99996 25.5035 7.99968 25.526 8.02377 25.579C8.05118 25.6393 8.11273 25.7431 8.24316 25.8818C8.51413 26.1701 8.99913 26.5204 9.74966 26.8581C11.2464 27.5316 13.4544 28 16 28C18.5456 28 20.7536 27.5316 22.2503 26.8581C23.0009 26.5204 23.4859 26.1701 23.7568 25.8818C23.8873 25.7431 23.9488 25.6393 23.9762 25.579C24.0003 25.526 24 25.503 24 25.4997C24 25.4964 24.0003 25.4739 23.9762 25.421C23.9488 25.3607 23.8873 25.2569 23.7568 25.1181C23.4859 24.8299 23.0009 24.4796 22.2503 24.1418C21.4128 23.765 20.3525 23.4523 19.135 23.25C17.6401 24.9375 16.3531 26 16 26ZM25 11C25 14.6423 22.8077 18.5737 20.5757 21.4976C23.7971 22.2449 26 23.7567 26 25.5C26 27.9853 21.5228 30 16 30C10.4772 30 6 27.9853 6 25.5C6 23.7567 8.20287 22.2449 11.4243 21.4976C9.19232 18.5737 7 14.6423 7 11C7 6.02944 11.0294 2 16 2C20.9706 2 25 6.02944 25 11ZM18 11C18 9.89543 17.1046 9 16 9C14.8954 9 14 9.89543 14 11C14 12.1046 14.8954 13 16 13C17.1046 13 18 12.1046 18 11ZM20 11C20 13.2091 18.2091 15 16 15C13.7909 15 12 13.2091 12 11C12 8.79086 13.7909 7 16 7C18.2091 7 20 8.79086 20 11Z" fill="black"/>
</svg>
