<svg width="32" height="32" viewBox="0 0 32 32" fill="none" xmlns="http://www.w3.org/2000/svg">
<path d="M25 11C25 17.9706 16.9706 26 16 26C15.0294 26 7 17.9706 7 11C7 6.02944 11.0294 2 16 2C20.9706 2 25 6.02944 25 11ZM16 13C17.1046 13 18 12.1046 18 11C18 9.89543 17.1046 9 16 9C14.8954 9 14 9.89543 14 11C14 12.1046 14.8954 13 16 13ZM16 15C18.2091 15 20 13.2091 20 11C20 8.79086 18.2091 7 16 7C13.7909 7 12 8.79086 12 11C12 13.2091 13.7909 15 16 15ZM22.2503 24.1419C21.8214 23.9489 21.3341 23.7727 20.7972 23.6196C21.2181 23.1188 21.6467 22.5783 22.07 22.0058L22.1183 21.9403C24.4798 22.7634 26 24.0518 26 25.5C26 27.9853 21.5228 30 16 30C10.4772 30 6 27.9853 6 25.5C6 24.0518 7.52019 22.7634 9.88165 21.9403L9.92997 22.0058C10.3533 22.5783 10.7819 23.1188 11.2028 23.6196C10.6659 23.7727 10.1786 23.9489 9.74966 24.1419C8.99913 24.4796 8.51413 24.8299 8.24316 25.1182C8.11273 25.2569 8.05118 25.3607 8.02377 25.421C7.99968 25.474 7.99996 25.4965 8 25.4998C7.99996 25.503 7.99968 25.5261 8.02377 25.579C8.05118 25.6393 8.11273 25.7431 8.24316 25.8819C8.51413 26.1701 8.99913 26.5204 9.74966 26.8581C11.2464 27.5317 13.4544 28 16 28C18.5456 28 20.7536 27.5317 22.2503 26.8581C23.0009 26.5204 23.4859 26.1701 23.7568 25.8819C23.8873 25.7431 23.9488 25.6393 23.9762 25.579C24.0003 25.5261 24 25.5036 24 25.5003C24 25.497 24.0003 25.474 23.9762 25.421C23.9488 25.3607 23.8873 25.2569 23.7568 25.1182C23.4859 24.8299 23.0009 24.4796 22.2503 24.1419Z" fill="black"/>
</svg>
