<svg width="32" height="34" viewBox="0 0 32 34" fill="none" xmlns="http://www.w3.org/2000/svg">
<path d="M2.27965 14.466C2.44659 14.4899 2.61563 14.4719 2.77707 14.4131C2.9385 14.3544 3.08917 14.2559 3.22042 14.1234C3.35167 13.9909 3.46093 13.827 3.54193 13.6411C3.62294 13.4551 3.6741 13.2508 3.69247 13.0399C4.00656 9.48625 6.20694 8.54472 6.32536 8.49661C6.65032 8.37395 6.9234 8.09325 7.08453 7.71625C7.24566 7.33925 7.28163 6.89683 7.18453 6.48633C7.08744 6.07582 6.86523 5.73086 6.56678 5.52732C6.26834 5.32378 5.91812 5.27834 5.59315 5.40099C5.43269 5.46065 1.65943 6.92618 1.15073 12.6813C1.11308 13.107 1.21088 13.5343 1.42259 13.869C1.6343 14.2037 1.9426 14.4184 2.27965 14.466Z" fill="#0F3849"/>
<path d="M25.6732 8.49464C25.7679 8.53248 27.9915 9.4638 28.3076 13.0365C28.3258 13.2476 28.3768 13.4522 28.4577 13.6384C28.5386 13.8246 28.6478 13.9888 28.7791 14.1216C28.9103 14.2544 29.061 14.3533 29.2225 14.4124C29.3841 14.4715 29.5533 14.4898 29.7204 14.4663C29.8876 14.4427 30.0494 14.3777 30.1966 14.275C30.3438 14.1723 30.4735 14.0339 30.5784 13.8678C30.6832 13.7017 30.761 13.5111 30.8074 13.3069C30.8538 13.1028 30.8678 12.8891 30.8487 12.678C30.3399 6.92549 26.5676 5.46095 26.4071 5.40132C26.2463 5.34046 26.0776 5.3202 25.9106 5.3417C25.7435 5.3632 25.5815 5.42603 25.4337 5.52662C25.2859 5.6272 25.1552 5.76357 25.0492 5.92793C24.9431 6.09229 24.8637 6.28142 24.8155 6.48454C24.7673 6.68765 24.7513 6.90076 24.7683 7.1117C24.7853 7.32264 24.8351 7.52728 24.9147 7.71393C24.9944 7.90059 25.1024 8.0656 25.2325 8.19956C25.3626 8.33351 25.5124 8.43378 25.6732 8.49464Z" fill="#0F3849"/>
<path d="M18.4138 5.21612C18.4138 3.77573 17.2478 2.60806 15.8096 2.60806C14.3714 2.60806 13.2054 3.77573 13.2054 5.21612C13.2054 5.3132 13.2107 5.40905 13.2211 5.50339C14.0538 5.31535 14.9201 5.21612 15.8096 5.21612C16.6991 5.21612 17.5654 5.31537 18.3981 5.50341C18.4085 5.40907 18.4138 5.31321 18.4138 5.21612ZM12.5748 5.66895C11.9358 5.85235 11.3191 6.08873 10.7298 6.37303C10.6457 6.00092 10.6013 5.61371 10.6013 5.21612C10.6013 2.33534 12.9331 0 15.8096 0C18.6861 0 21.0179 2.33534 21.0179 5.21612C21.0179 5.61373 20.9735 6.00095 20.8894 6.37307C24.8175 8.26833 27.5283 12.2933 27.5283 16.9524V18.7866C27.5283 20.1483 27.8831 21.4863 28.5577 22.6685L30.5102 26.0907C31.5023 27.8293 30.2487 29.9927 28.2492 29.9927H21.7783C20.7737 32.2955 18.4793 33.9048 15.8096 33.9048C13.1399 33.9048 10.8456 32.2955 9.84092 29.9927H3.36997C1.37044 29.9927 0.11688 27.8293 1.10893 26.0907L3.06151 22.6685C3.73605 21.4863 4.09086 20.1483 4.09086 18.7866V16.9524C4.09086 11.5944 7.67595 7.07498 12.5748 5.66895ZM12.898 29.9927C13.6133 30.793 14.6527 31.2967 15.8096 31.2967C16.9665 31.2967 18.0059 30.793 18.7212 29.9927H12.898Z" fill="#0F3849"/>
<path d="M9.73814 16.1004C9.73814 16.5002 9.8066 16.8925 9.93671 17.2619H8.66928C8.57354 16.8857 8.52386 16.4957 8.52386 16.1004C8.52386 14.0148 10.2145 12.1012 12.3001 12.1012C13.5481 12.1012 14.8989 12.7083 15.8095 13.6191C16.7203 12.7083 18.071 12.1012 19.3191 12.1012C21.4046 12.1012 23.0953 14.0148 23.0953 16.1004C23.0953 17.4208 22.5411 18.6806 21.5677 19.5729L16.4434 24.5403C16.0902 24.8827 15.5289 24.8827 15.1756 24.5403L10.1727 19.6905H11.9173L15.8095 23.4636L20.7347 18.6892L20.7472 18.6778C21.4697 18.0155 21.881 17.0804 21.881 16.1004C21.881 14.5941 20.6461 13.3155 19.3191 13.3155C18.4264 13.3155 17.3759 13.77 16.6681 14.4777L15.8095 15.3363L14.9509 14.4777C14.2432 13.77 13.1927 13.3155 12.3001 13.3155C10.9731 13.3155 9.73814 14.5941 9.73814 16.1004ZM14.2543 15.2306C14.1674 14.9948 13.9442 14.8369 13.6929 14.8334C13.4416 14.8299 13.2142 14.9817 13.1209 15.215L12.0592 17.8691H7.91671C7.5814 17.8691 7.30957 18.1409 7.30957 18.4762C7.30957 18.8115 7.5814 19.0833 7.91671 19.0833H12.4703C12.7185 19.0833 12.9418 18.9322 13.034 18.7017L13.6613 17.1335L15.2399 21.4182C15.3299 21.6626 15.5658 21.8224 15.8261 21.8153C16.0865 21.8082 16.3133 21.6358 16.3899 21.3869L17.2535 18.58L17.4489 18.8405C17.5635 18.9934 17.7435 19.0833 17.9346 19.0833H18.8453C19.1806 19.0833 19.4524 18.8115 19.4524 18.4762C19.4524 18.1409 19.1806 17.8691 18.8453 17.8691H18.2381L17.5096 16.8976C17.3726 16.7149 17.1446 16.6246 16.9196 16.6638C16.6947 16.703 16.5107 16.8651 16.4436 17.0834L15.7579 19.3118L14.2543 15.2306Z" fill="white"/>
</svg>
