<svg width="32" height="32" viewBox="0 0 32 32" fill="none" xmlns="http://www.w3.org/2000/svg">
<path d="M16 2C13.2386 2 11 4.23858 11 7V15C11 17.7614 13.2386 20 16 20C18.7614 20 21 17.7614 21 15V7C21 4.23858 18.7614 2 16 2ZM8 14V15C8 19.4183 11.5817 23 16 23C20.4183 23 24 19.4183 24 15V14C24 13.4477 24.4477 13 25 13C25.5523 13 26 13.4477 26 14V15C26 20.1853 22.0533 24.4489 17 24.9506V28H21C21.5523 28 22 28.4477 22 29C22 29.5523 21.5523 30 21 30H11C10.4477 30 10 29.5523 10 29C10 28.4477 10.4477 28 11 28H15V24.9506C9.94668 24.4489 6 20.1853 6 15V14C6 13.4477 6.44772 13 7 13C7.55228 13 8 13.4477 8 14Z" fill="black"/>
</svg>
