<svg width="32" height="32" viewBox="0 0 32 32" fill="none" xmlns="http://www.w3.org/2000/svg">
<path d="M19 7C19 5.34315 17.6569 4 16 4C14.3431 4 13 5.34315 13 7V15C13 16.6569 14.3431 18 16 18C17.6569 18 19 16.6569 19 15V7ZM11 7C11 4.23858 13.2386 2 16 2C18.7614 2 21 4.23858 21 7V15C21 17.7614 18.7614 20 16 20C13.2386 20 11 17.7614 11 15V7ZM8 14C8 13.4477 7.55228 13 7 13C6.44772 13 6 13.4477 6 14V15C6 20.1853 9.94668 24.4489 15 24.9506V28H11C10.4477 28 10 28.4477 10 29C10 29.5523 10.4477 30 11 30H21C21.5523 30 22 29.5523 22 29C22 28.4477 21.5523 28 21 28H17V24.9506C22.0533 24.4489 26 20.1853 26 15V14C26 13.4477 25.5523 13 25 13C24.4477 13 24 13.4477 24 14V15C24 19.4183 20.4183 23 16 23C11.5817 23 8 19.4183 8 15V14Z" fill="black"/>
</svg>
