<svg width="32" height="27" viewBox="0 0 32 27" fill="none" xmlns="http://www.w3.org/2000/svg">
<path d="M31.9632 21.0847L31.1271 18.1328C30.9327 17.4475 30.2996 16.9688 29.5878 16.9688H27.8628C27.6819 16.8558 27.4854 16.7706 27.2772 16.7124L27.2836 16.7095L25.9112 13.7166C25.6513 13.1498 25.0807 12.7835 24.457 12.7835H20.7979C20.2686 12.7835 19.8379 13.2138 19.8379 13.7422L19.8339 16.6232H18.8787C18.7018 16.6232 18.5587 16.7663 18.5587 16.9432C18.5587 17.1201 18.7018 17.2632 18.8787 17.2632H26.6849C27.4329 17.2632 28.0904 17.7941 28.2491 18.5253L29.2365 23.0971C29.2684 23.2471 29.4015 23.3495 29.5484 23.3495C29.5709 23.3495 29.594 23.3473 29.6165 23.3424C29.7889 23.3052 29.899 23.1349 29.8615 22.9621L29.7198 22.3062H31.0395C31.3426 22.3062 31.622 22.1675 31.805 21.9253C31.9881 21.6832 32.0457 21.3769 31.9632 21.0847ZM31.2946 21.5394C31.2333 21.62 31.1408 21.6662 31.0396 21.6662H29.5817L28.8741 18.3899C28.8121 18.1028 28.6905 17.8414 28.5311 17.6087H29.4404C29.4781 18.2121 29.5862 19.4049 29.871 19.8192C30.1035 20.1564 30.4684 20.256 30.7859 20.256C30.8832 20.256 30.9726 20.2451 31.0557 20.2303L31.3472 21.2591C31.3747 21.3563 31.3558 21.4584 31.2946 21.5394ZM0.761382 6.65966L0.458878 4.57266C0.433856 4.3977 0.555126 4.23547 0.730088 4.21019C0.893851 4.17986 1.06696 4.30516 1.09256 4.48082L1.24749 5.55076C2.23006 3.74501 3.62918 2.26916 5.3447 1.25171C8.17884 -0.429694 11.7354 0.0611463 11.8848 0.0836725C12.0597 0.109014 12.181 0.271178 12.156 0.44582C12.131 0.620462 11.9723 0.747684 11.7935 0.71671C11.7592 0.712359 8.30817 0.238028 5.67088 1.80226C3.76089 2.93496 2.5741 4.47321 1.84277 5.79918L2.84672 5.21542C2.99794 5.12666 3.19479 5.1776 3.28419 5.33106C3.37295 5.48388 3.32105 5.67977 3.16797 5.76853L1.23878 6.8903C1.18944 6.91903 1.13377 6.93375 1.07816 6.93375C1.03502 6.93375 0.991315 6.9253 0.950038 6.90687L0.944919 6.90329L0.938775 6.90188C0.929816 6.89753 0.925017 6.88844 0.916569 6.88338C0.884636 6.86406 0.856286 6.84211 0.833632 6.81433C0.823329 6.80179 0.816545 6.78822 0.808226 6.77427C0.791779 6.74656 0.779876 6.71815 0.772389 6.68692C0.770021 6.67726 0.762854 6.66958 0.761382 6.65966ZM9.59939 22.3828C9.59939 23.0886 9.02504 23.6626 8.3195 23.6626C7.61395 23.6626 7.0396 23.0886 7.0396 22.3828C7.0396 21.6769 7.61395 21.1029 8.3195 21.1029C9.02504 21.1029 9.59939 21.6769 9.59939 22.3828ZM24.9582 22.3828C24.9582 23.0886 24.3838 23.6626 23.6783 23.6626C22.9727 23.6626 22.3984 23.0886 22.3984 22.3828C22.3984 21.6769 22.9727 21.1029 23.6783 21.1029C24.3838 21.1029 24.9582 21.6769 24.9582 22.3828ZM23.6783 17.9031C22.4613 17.9031 21.3574 18.3925 20.5492 19.183H11.4485C10.7823 18.5314 9.91399 18.0891 8.94793 17.9524L8.95893 16.9454L17.0256 14.8461C17.1775 14.8068 17.2781 14.6634 17.2637 14.5071C17.2427 14.2786 16.8757 10.3608 16.2095 7.55264L22.7577 4.45452C22.8346 4.41798 22.8939 4.35232 22.9227 4.27201C22.9508 4.1917 22.9464 4.10326 22.9089 4.02672L21.9365 2.00282C21.8603 1.84411 21.6709 1.77723 21.5134 1.85128L14.8902 4.93948L14.8928 4.94504C14.8688 4.95618 14.8435 4.96475 14.8227 4.98165C14.7607 5.0322 14.5135 5.2343 14.1293 5.55184C13.6644 5.13108 12.5089 4.27662 11.0687 4.61105C10.1819 4.81853 9.78312 5.17978 9.43064 5.49847C9.07944 5.81691 8.80132 6.06841 8.03574 6.16402C6.42653 6.36528 5.98093 6.80365 5.58781 7.1905C5.3422 7.43233 5.12974 7.64108 4.58661 7.79608C3.04421 8.237 2.74241 9.06913 2.74241 10.3577C2.74241 11.3105 2.68302 11.3696 2.11308 11.9342L1.83182 12.2151C0.888795 13.1775 1.16999 14.2453 1.3756 15.0252C1.4531 15.318 1.45246 15.5536 1.45246 15.7817C1.45195 16.0955 1.46437 16.4216 1.66723 16.7978C1.01986 17.4891 0.468605 18.1257 0.0631975 18.6724C-0.018076 18.7814 -0.0211475 18.9296 0.0550704 19.042C0.115098 19.1314 0.215697 19.1829 0.320073 19.1829C0.346951 19.1829 0.373829 19.1795 0.400706 19.1726L6.28984 17.64L6.2812 18.3986C4.83414 19.1421 3.83986 20.647 3.83986 22.3827C3.83986 24.8528 5.84968 26.8623 8.3195 26.8623C10.1018 26.8623 11.6399 25.8133 12.3607 24.3025H19.6371C20.3579 25.8133 21.896 26.8623 23.6783 26.8623C26.1481 26.8623 28.1579 24.8528 28.1579 22.3827C28.1579 19.9125 26.1481 17.9031 23.6783 17.9031ZM10.7941 9.20768L13.8913 15.0006L10.0148 16.0094L7.7868 11.8419C8.82026 10.9188 9.84725 10.0225 10.7941 9.20768ZM7.2959 12.2821L9.37727 16.1754L5.50084 17.1842L4.34286 15.0184C5.27468 14.1236 6.28177 13.1949 7.2959 12.2821ZM22.1928 4.0136L16.0484 6.92069C15.8774 6.29534 15.6895 5.75611 15.4851 5.36786L21.4972 2.56495L22.1928 4.0136ZM14.9458 5.70844C15.7683 7.30364 16.3889 12.1411 16.6007 14.2956L14.529 14.8347L11.292 8.78039C12.9967 7.32092 14.3765 6.17739 14.9458 5.70844ZM3.8643 15.4816L4.86326 17.3501L1.17005 18.3111C1.87009 17.4845 2.80723 16.5129 3.8643 15.4816ZM6.9319 17.473L8.31719 17.1125L8.30855 17.9036C7.8252 17.9048 7.36066 17.985 6.92441 18.1285L6.9319 17.473ZM8.31956 24.3026C7.26089 24.3026 6.39971 23.4414 6.39971 22.3828C6.39971 21.3241 7.26089 20.4629 8.31956 20.4629C9.37823 20.4629 10.2394 21.3241 10.2394 22.3828C10.2394 23.4414 9.37823 24.3026 8.31956 24.3026ZM12.6105 23.6626C12.7319 23.2567 12.7992 22.8276 12.7992 22.3828C12.7992 21.431 12.4986 20.5494 11.9905 19.823H20.0075C19.4993 20.5494 19.1987 21.431 19.1987 22.3828C19.1987 22.8276 19.266 23.2567 19.3873 23.6626H12.6105ZM23.6783 24.3026C22.6197 24.3026 21.7585 23.4414 21.7585 22.3828C21.7585 21.3241 22.6197 20.4629 23.6783 20.4629C24.737 20.4629 25.5982 21.3241 25.5982 22.3828C25.5982 23.4414 24.737 24.3026 23.6783 24.3026Z" fill="#516678"/>
</svg>
