<svg width="32" height="32" viewBox="0 0 32 32" fill="none" xmlns="http://www.w3.org/2000/svg">
<path d="M4 20C4 21.1046 4.89543 22 6 22L26 22C27.1046 22 28 21.1046 28 20V12C28 10.8954 27.1046 10 26 10L6 10C4.89543 10 4 10.8954 4 12L4 20ZM6 24C3.79086 24 2 22.2091 2 20L2 12C2 9.79086 3.79086 8 6 8L26 8C28.2091 8 30 9.79086 30 12V20C30 22.2091 28.2091 24 26 24L6 24ZM26 16C26 15.1716 25.3284 14.5 24.5 14.5C23.6716 14.5 23 15.1716 23 16C23 16.8284 23.6716 17.5 24.5 17.5C25.3284 17.5 26 16.8284 26 16Z" fill="black"/>
</svg>
