<svg width="32" height="32" viewBox="0 0 32 32" fill="none" xmlns="http://www.w3.org/2000/svg">
<path d="M12 4C10.8954 4 10 4.89543 10 6V26C10 27.1046 10.8954 28 12 28H20C21.1046 28 22 27.1046 22 26V6C22 4.89543 21.1046 4 20 4H12ZM8 6C8 3.79086 9.79086 2 12 2H20C22.2091 2 24 3.79086 24 6V26C24 28.2091 22.2091 30 20 30H12C9.79086 30 8 28.2091 8 26V6ZM16 26C16.8284 26 17.5 25.3284 17.5 24.5C17.5 23.6716 16.8284 23 16 23C15.1716 23 14.5 23.6716 14.5 24.5C14.5 25.3284 15.1716 26 16 26Z" fill="black"/>
</svg>
