<svg width="32" height="32" viewBox="0 0 32 32" fill="none" xmlns="http://www.w3.org/2000/svg">
<path d="M12.6766 4.8056C13.0031 4.30079 12.9242 3.70982 12.6342 3.31315C12.3359 2.90498 11.7589 2.63827 11.1486 2.86373C5.80925 4.83625 2 9.97203 2 16C2 23.732 8.26801 30 16 30C22.0281 30 27.1639 26.1907 29.1364 20.8513C29.3618 20.241 29.0951 19.664 28.6869 19.3656C28.2903 19.0757 27.6993 18.9968 27.1945 19.3233C25.5546 20.3841 23.6008 21 21.5 21C15.701 21 11 16.299 11 10.5C11 8.39927 11.6159 6.44546 12.6766 4.8056Z" fill="black"/>
</svg>
