<svg width="32" height="32" viewBox="0 0 32 32" fill="none" xmlns="http://www.w3.org/2000/svg">
<path d="M12.6342 3.31315C12.9242 3.70982 13.0031 4.30079 12.6766 4.8056C11.6159 6.44546 11 8.39927 11 10.5C11 16.299 15.701 21 21.5 21C23.6008 21 25.5546 20.3841 27.1945 19.3233C27.6993 18.9968 28.2903 19.0757 28.6869 19.3656C29.0951 19.664 29.3618 20.241 29.1364 20.8513C27.1639 26.1907 22.0281 30 16 30C8.26801 30 2 23.732 2 16C2 9.97203 5.80925 4.83625 11.1486 2.86373C11.7589 2.63827 12.3359 2.90498 12.6342 3.31315ZM9.9934 5.60896C6.40933 7.68529 4 11.5622 4 16C4 22.6275 9.37258 28 16 28C20.4379 28 24.3149 25.5907 26.3912 22.0065C24.8883 22.6461 23.2347 23 21.5 23C14.5964 23 9 17.4035 9 10.5C9 8.76531 9.35385 7.11182 9.9934 5.60896Z" fill="black"/>
</svg>
