<svg width="32" height="32" viewBox="0 0 32 32" fill="none" xmlns="http://www.w3.org/2000/svg">
<path d="M13 6.65988V9.01842C13.1625 8.96109 13.3318 8.91714 13.5068 8.88797L23.5068 7.22131C24.0296 7.13417 24.5391 7.18722 25 7.35076V4.40988L13 6.65988ZM13 11.8472V26C13 28.2092 11.2091 30 9 30H7.81756C6.26146 30 5 28.7386 5 27.1825C5 25.346 6.32768 23.7787 8.13914 23.4768L10.1644 23.1393C10.6466 23.0589 11 22.6417 11 22.1529V5.82995C11 5.34874 11.3427 4.93577 11.8157 4.84708L25.8157 2.22208C26.4311 2.10669 27 2.57881 27 3.20495V23C27 25.2091 25.2091 27 23 27H21.8176C20.2615 27 19 25.7385 19 24.1824C19 22.346 20.3277 20.7787 22.1391 20.4768L24.1644 20.1393C24.6466 20.0589 25 19.6417 25 19.1529V10.1805C25 9.56255 24.4451 9.09251 23.8356 9.1941L13.8356 10.8608C13.3534 10.9411 13 11.3583 13 11.8472ZM25 21.9816C24.8375 22.0389 24.6682 22.0829 24.4932 22.1121L22.4679 22.4496C21.6209 22.5908 21 23.3237 21 24.1824C21 24.634 21.366 25 21.8176 25H23C24.1046 25 25 24.1046 25 23V21.9816ZM11 24.9816C10.8375 25.039 10.6682 25.0829 10.4932 25.1121L8.46794 25.4496C7.62086 25.5908 7 26.3237 7 27.1825C7 27.634 7.36603 28 7.81756 28H9C10.1046 28 11 27.1046 11 26V24.9816Z" fill="black"/>
</svg>
