<svg width="32" height="32" viewBox="0 0 32 32" fill="none" xmlns="http://www.w3.org/2000/svg">
<path d="M16 5.63963V8.00126C16.1439 7.95049 16.2932 7.91019 16.4471 7.88133L22 6.84017V4.43963L16 5.63963ZM13.4932 25.1121L11.4679 25.4496C10.6209 25.5908 10 26.3237 10 27.1825C10 27.634 10.366 28 10.8176 28H12C13.1046 28 14 27.1046 14 26V24.9816C13.8375 25.039 13.6682 25.0829 13.4932 25.1121ZM14 22.1529V4.81982C14 4.34314 14.3365 3.93273 14.8039 3.83924L22.8039 2.23924C23.4227 2.11548 24 2.58878 24 3.21982V7.67009C24 8.15131 23.6573 8.56428 23.1843 8.65296L16.8157 9.84707C16.3427 9.93575 16 10.3487 16 10.8299V26C16 28.2092 14.2091 30 12 30H10.8176C9.26146 30 8 28.7386 8 27.1825C8 25.346 9.32768 23.7787 11.1391 23.4768L13.1644 23.1393C13.6466 23.0589 14 22.6417 14 22.1529Z" fill="black"/>
</svg>
