<svg width="32" height="32" viewBox="0 0 32 32" fill="none" xmlns="http://www.w3.org/2000/svg">
<path d="M24 3.21982C24 2.58878 23.4227 2.11548 22.8039 2.23924L14.8039 3.83924C14.3365 3.93273 14 4.34314 14 4.81982V22.1529C14 22.6417 13.6466 23.0589 13.1644 23.1393L11.1391 23.4768C9.32768 23.7787 8 25.346 8 27.1825C8 28.7386 9.26146 30 10.8176 30H12C14.2091 30 16 28.2092 16 26V10.8299C16 10.3487 16.3427 9.93575 16.8157 9.84707L23.1843 8.65296C23.6573 8.56428 24 8.15131 24 7.67009V3.21982Z" fill="black"/>
</svg>
