<svg width="32" height="32" viewBox="0 0 32 32" fill="none" xmlns="http://www.w3.org/2000/svg">
<path d="M16 28C17.4806 28 18.7733 25.5868 19.4649 22H12.5351C13.2267 25.5868 14.5194 28 16 28ZM12.2276 20H19.7724C19.9198 18.7489 20 17.4025 20 16C20 14.5975 19.9198 13.2511 19.7724 12H12.2276C12.0802 13.2511 12 14.5975 12 16C12 17.4025 12.0802 18.7489 12.2276 20ZM10.2146 12H4.68282C4.24062 13.2511 4 14.5975 4 16C4 17.4025 4.24062 18.7489 4.68282 20H10.2146C10.0741 18.7291 10 17.3841 10 16C10 14.6159 10.0741 13.2709 10.2146 12ZM12.5351 10H19.4649C18.7733 6.41319 17.4806 4 16 4C14.5194 4 13.2267 6.41319 12.5351 10ZM12.2778 4.58848C9.44373 5.51228 7.07329 7.46243 5.60539 10H10.5011C10.7035 8.86384 10.9636 7.81415 11.2742 6.88226C11.5486 6.05914 11.8794 5.27589 12.2778 4.58848ZM19.7222 4.58848C20.1206 5.27589 20.4514 6.05914 20.7258 6.88226C21.0364 7.81415 21.2965 8.86384 21.4989 10H26.3946C24.9267 7.46243 22.5563 5.51228 19.7222 4.58848ZM21.7854 12C21.9259 13.2709 22 14.6159 22 16C22 17.3841 21.9259 18.7291 21.7854 20H27.3172C27.7594 18.7489 28 17.4025 28 16C28 14.5975 27.7594 13.2511 27.3172 12H21.7854ZM21.4989 22C21.2965 23.1362 21.0364 24.1859 20.7258 25.1177C20.4514 25.9409 20.1206 26.7241 19.7222 27.4115C22.5563 26.4877 24.9267 24.5376 26.3946 22H21.4989ZM12.2778 27.4115C11.8794 26.7241 11.5486 25.9409 11.2742 25.1177C10.9636 24.1859 10.7035 23.1362 10.5011 22H5.60539C7.07329 24.5376 9.44373 26.4877 12.2778 27.4115ZM30 16C30 23.732 23.732 30 16 30C8.26801 30 2 23.732 2 16C2 8.26801 8.26801 2 16 2C23.732 2 30 8.26801 30 16Z" fill="black"/>
</svg>
