<svg width="32" height="32" viewBox="0 0 32 32" fill="none" xmlns="http://www.w3.org/2000/svg">
<path d="M16 30C17.7058 30 19.1623 26.2627 19.7374 21H12.2626C12.8377 26.2627 14.2942 30 16 30ZM12.0921 19H19.9079C19.9682 18.0335 20 17.0297 20 16C20 14.9703 19.9682 13.9665 19.9079 13H12.0921C12.0318 13.9665 12 14.9703 12 16C12 17.0297 12.0318 18.0335 12.0921 19ZM10.0883 13C10.0302 13.973 10 14.9765 10 16C10 17.0235 10.0302 18.027 10.0883 19H2.32218C2.11118 18.0335 2 17.0297 2 16C2 14.9703 2.11118 13.9665 2.32218 13H10.0883ZM12.2626 11H19.7374C19.1623 5.73726 17.7058 2 16 2C14.2942 2 12.8377 5.73726 12.2626 11ZM19.5019 2.44154C20.0111 3.32282 20.4214 4.39576 20.7515 5.55106C21.1961 7.10724 21.5365 8.9614 21.7487 11H29.0807C27.4756 6.80315 23.9087 3.57644 19.5019 2.44154ZM21.9117 13C21.9698 13.973 22 14.9765 22 16C22 17.0235 21.9698 18.027 21.9117 19H29.6778C29.8888 18.0335 30 17.0297 30 16C30 14.9703 29.8888 13.9665 29.6778 13H21.9117ZM21.7487 21C21.5365 23.0386 21.1961 24.8928 20.7515 26.4489C20.4214 27.6042 20.0111 28.6772 19.5019 29.5585C23.9087 28.4236 27.4756 25.1968 29.0807 21H21.7487ZM12.4981 2.44154C11.9889 3.32282 11.5786 4.39576 11.2485 5.55106C10.8039 7.10724 10.4635 8.9614 10.2513 11H2.91926C4.52443 6.80315 8.09128 3.57644 12.4981 2.44154ZM10.2513 21C10.4635 23.0386 10.8039 24.8928 11.2485 26.4489C11.5786 27.6042 11.9889 28.6772 12.4981 29.5585C8.09128 28.4236 4.52443 25.1968 2.91926 21H10.2513Z" fill="black"/>
</svg>
