<svg width="32" height="32" viewBox="0 0 32 32" fill="none" xmlns="http://www.w3.org/2000/svg">
<path d="M28 16C28 9.37258 22.6274 4 16 4C9.37258 4 4 9.37258 4 16C4 22.6274 9.37258 28 16 28C22.6274 28 28 22.6274 28 16ZM30 16C30 23.732 23.732 30 16 30C8.26801 30 2 23.732 2 16C2 8.26801 8.26801 2 16 2C23.732 2 30 8.26801 30 16ZM12.7007 13.9091V19H11.771L9.55614 15.7958H9.51885V19H8.4425V13.9091H9.38711L11.5846 17.1108H11.6293V13.9091H12.7007ZM13.59 19V13.9091H17.0204V14.7965H14.6663V16.0096H16.8439V16.897H14.6663V18.1126H17.0303V19H13.59ZM17.4954 13.9091L18.9521 19H20.0011L20.968 15.6715H21.0078L21.9773 19H23.0263L24.4829 13.9091H23.3072L22.4645 17.4538H22.4197L21.4925 13.9091H20.4858L19.5561 17.4464H19.5138L18.6712 13.9091H17.4954Z" fill="black"/>
</svg>
