<svg width="32" height="32" viewBox="0 0 32 32" fill="none" xmlns="http://www.w3.org/2000/svg">
<path d="M7 6C6.44772 6 6 6.44772 6 7V25C6 25.5523 6.44772 26 7 26H25C25.5523 26 26 25.5523 26 25V7C26 6.44772 25.5523 6 25 6H7ZM4 7C4 5.34315 5.34315 4 7 4H25C26.6569 4 28 5.34315 28 7V25C28 26.6569 26.6569 28 25 28H7C5.34315 28 4 26.6569 4 25V7ZM12.7007 13.9091V19H11.771L9.55614 15.7958H9.51885V19H8.4425V13.9091H9.38711L11.5846 17.1108H11.6293V13.9091H12.7007ZM13.59 19V13.9091H17.0204V14.7965H14.6663V16.0096H16.8439V16.897H14.6663V18.1126H17.0303V19H13.59ZM17.4954 13.9091L18.9521 19H20.0011L20.968 15.6715H21.0078L21.9773 19H23.0263L24.4829 13.9091H23.3072L22.4645 17.4538H22.4197L21.4925 13.9091H20.4858L19.5561 17.4464H19.5138L18.6712 13.9091H17.4954Z" fill="black"/>
</svg>
