<svg width="32" height="32" viewBox="0 0 32 32" fill="none" xmlns="http://www.w3.org/2000/svg">
<path d="M7 4C5.34315 4 4 5.34315 4 7V25C4 26.6569 5.34315 28 7 28H25C26.6569 28 28 26.6569 28 25V7C28 5.34315 26.6569 4 25 4H7ZM12.7007 13.9091V19H11.771L9.55614 15.7958H9.51885V19H8.4425V13.9091H9.38711L11.5846 17.1108H11.6293V13.9091H12.7007ZM13.59 19V13.9091H17.0204V14.7965H14.6663V16.0096H16.8439V16.897H14.6663V18.1126H17.0303V19H13.59ZM17.4954 13.9091H18.6712L19.5138 17.4464H19.5561L20.4858 13.9091H21.4925L22.4197 17.4538H22.4645L23.3072 13.9091H24.4829L23.0263 19H21.9773L21.0078 15.6715H20.968L20.0011 19H18.9521L17.4954 13.9091Z" fill="black"/>
</svg>
