<svg width="32" height="38" viewBox="0 0 32 38" fill="none" xmlns="http://www.w3.org/2000/svg">
<path fill-rule="evenodd" clip-rule="evenodd" d="M24.6153 37.7435H3.28204C1.46954 37.7435 0 36.274 0 34.4615V3.28204C0 1.46954 1.46954 0 3.28204 0H18.8496C18.8512 0 18.8537 0 18.8553 0H18.8718C19.1343 0 19.3583 0.132102 19.5085 0.324102L27.5733 8.38891C27.7661 8.53906 27.8974 8.76306 27.8974 9.02562V9.04285C27.8974 9.04449 27.8974 9.04531 27.8974 9.04696V34.4615C27.8974 36.274 26.4278 37.7435 24.6153 37.7435ZM19.6923 2.77415V8.20511H25.1232L19.6923 2.77415ZM26.2564 9.84613H18.8718C18.418 9.84613 18.0512 9.47854 18.0512 9.02562V1.64102H3.28204C2.3762 1.64102 1.64102 2.3762 1.64102 3.28204V34.4615C1.64102 35.3673 2.3762 36.1025 3.28204 36.1025H24.6153C25.5212 36.1025 26.2564 35.3673 26.2564 34.4615V9.84613ZM21.3333 31.1794H6.56409C6.11035 31.1794 5.74358 30.8127 5.74358 30.3589C5.74358 29.906 6.11035 29.5384 6.56409 29.5384H21.3333C21.787 29.5384 22.1538 29.906 22.1538 30.3589C22.1538 30.8127 21.787 31.1794 21.3333 31.1794ZM21.3333 24.6153H6.56409C6.11035 24.6153 5.74358 24.2486 5.74358 23.7948C5.74358 23.3419 6.11035 22.9743 6.56409 22.9743H21.3333C21.787 22.9743 22.1538 23.3419 22.1538 23.7948C22.1538 24.2486 21.787 24.6153 21.3333 24.6153ZM21.3333 18.0512H6.56409C6.11035 18.0512 5.74358 17.6845 5.74358 17.2307C5.74358 16.7778 6.11035 16.4102 6.56409 16.4102H21.3333C21.787 16.4102 22.1538 16.7778 22.1538 17.2307C22.1538 17.6845 21.787 18.0512 21.3333 18.0512Z" fill="black"/>
<circle cx="23.795" cy="29.5385" r="6.20511" fill="white" stroke="black" stroke-width="4"/>
<rect x="23.0073" y="25.5673" width="1.57538" height="5.51383" rx="0.787691" fill="black"/>
<ellipse cx="23.795" cy="33.4442" rx="0.787691" ry="0.787691" fill="black"/>
</svg>
