<svg width="32" height="32" viewBox="0 0 32 32" fill="none" xmlns="http://www.w3.org/2000/svg">
<path d="M14.0813 26.3094C11.3477 29.0431 6.91552 29.043 4.18185 26.3094C1.44818 23.5757 1.44817 19.1436 4.18184 16.4099L14.7884 5.80329L16.2027 7.2175L5.59606 17.8241C3.64344 19.7767 3.64344 22.9425 5.59606 24.8952C7.54868 26.8478 10.7145 26.8478 12.6671 24.8952L26.8093 10.753C27.9808 9.58146 27.9808 7.68197 26.8093 6.51039C25.6377 5.33882 23.7382 5.33882 22.5666 6.51039L9.8387 19.2383C9.44817 19.6288 9.44817 20.262 9.8387 20.6525C10.2292 21.043 10.8624 21.043 11.2529 20.6525L20.4453 11.4601L21.8595 12.8744L12.6671 22.0667C11.4956 23.2383 9.59606 23.2383 8.42449 22.0667C7.25291 20.8952 7.25291 18.9957 8.42448 17.8241L21.1524 5.09618C23.105 3.14356 26.2708 3.14356 28.2235 5.09618C30.1761 7.0488 30.1761 10.2146 28.2235 12.1672L14.0813 26.3094Z" fill="black"/>
</svg>
