<svg width="32" height="32" viewBox="0 0 32 32" fill="none" xmlns="http://www.w3.org/2000/svg">
<path d="M27.8945 5.44718L28.3417 4.55275L26.5528 3.65833L26.1056 4.55275C25.2816 6.20086 24.3044 6.84907 23.2495 7.54884C23.19 7.5883 23.1303 7.62793 23.0703 7.66792C22.5022 8.04664 21.8681 8.48658 21.3173 9.13227C20.7536 9.79314 20.3133 10.6239 20.0299 11.7574L19.7874 12.7276L21.7276 13.2126L21.9702 12.2425C22.1868 11.376 22.4964 10.8318 22.839 10.4302C23.1945 10.0133 23.6228 9.70329 24.1797 9.33202C24.2434 9.28956 24.3082 9.2467 24.3739 9.20323C25.4702 8.4776 26.8288 7.5784 27.8945 5.44718ZM16.805 3.83728L16.9838 4.82115C17.1867 5.93697 17.027 7.59433 16.6614 9.16434C16.2935 10.7442 15.6699 12.4401 14.8 13.6L14.2 14.4L12.6 13.2L13.2 12.4C13.83 11.56 14.3731 10.1726 14.7135 8.71073C15.0562 7.23908 15.1466 5.89643 15.0161 5.17892L14.8372 4.19505L16.805 3.83728ZM9.5 5C9.77614 5 10 5.22386 10 5.5C10 5.77614 9.77614 6 9.5 6C9.22386 6 9 5.77614 9 5.5C9 5.22386 9.22386 5 9.5 5ZM9.5 7C10.3284 7 11 6.32843 11 5.5C11 4.67157 10.3284 4 9.5 4C8.67157 4 8 4.67157 8 5.5C8 6.32843 8.67157 7 9.5 7ZM13.2767 10.8753C13.161 10.8003 13.0465 10.728 12.9335 10.6585C12.2375 10.2307 11.5509 9.88261 10.947 9.69925C10.6466 9.60802 10.3145 9.54113 9.9842 9.55378C9.64943 9.56661 9.23231 9.66712 8.89941 10C8.59854 10.3009 8.48749 10.6706 8.45944 10.9861L3.63344 25.4641C3.11226 27.0276 4.59974 28.5151 6.16326 27.9939L20.6413 23.1679C20.9568 23.1399 21.3265 23.0288 21.6273 22.7279C21.9602 22.395 22.0607 21.9779 22.0736 21.6431C22.0862 21.3129 22.0193 20.9807 21.9281 20.6803C21.7543 20.1079 21.4324 19.461 21.0349 18.8023C20.9932 18.8382 20.9529 18.8755 20.9142 18.9142L19.5674 20.261C19.7281 20.5552 19.851 20.8158 19.9364 21.037C19.5925 20.9043 19.1536 20.681 18.6406 20.3656C17.3885 19.596 15.8766 18.3914 14.5563 17.0711C13.236 15.7508 12.0314 14.2388 11.2617 12.9867C10.9464 12.4737 10.7231 12.0349 10.5904 11.691C10.9343 11.8237 11.3731 12.047 11.8861 12.3623C11.9466 12.3995 12.0077 12.4377 12.0694 12.4769C12.1763 12.0809 12.4056 11.7141 12.7505 11.4382C12.9453 11.2823 13.1208 11.094 13.2767 10.8753ZM17.3847 14.2427C17.8176 14.6756 18.2406 15.1291 18.6439 15.5903C18.4517 15.7414 18.2652 15.9063 18.0858 16.0857L17.1971 16.9744C16.8073 16.5254 16.3948 16.0812 15.9705 15.6569C15.6548 15.3412 15.3282 15.0322 14.9968 14.7341C15.0839 14.6839 15.1683 14.6264 15.2493 14.5617C15.7118 14.1917 16.103 13.7776 16.4335 13.3368C16.7579 13.6313 17.0765 13.9345 17.3847 14.2427ZM5.5308 26.0965L9.55383 14.0275L9.5579 14.0341C10.4214 15.4389 11.7287 17.0719 13.1421 18.4853C14.5554 19.8987 16.1885 21.2059 17.5933 22.0694L17.5999 22.0735L5.5308 26.0965ZM25.9 18.3C24.2555 17.0667 21.7444 17.0667 20.1 18.3L19.3 18.9L18.1 17.3L18.9 16.7C21.2555 14.9333 24.7444 14.9333 27.1 16.7L27.9 17.3L26.7 18.9L25.9 18.3ZM26.5 27C26.2239 27 26 26.7761 26 26.5C26 26.2239 26.2239 26 26.5 26C26.7761 26 27 26.2239 27 26.5C27 26.7761 26.7761 27 26.5 27ZM26.5 28C27.3284 28 28 27.3284 28 26.5C28 25.6716 27.3284 25 26.5 25C25.6716 25 25 25.6716 25 26.5C25 27.3284 25.6716 28 26.5 28ZM21 6.5C21 6.22386 20.7761 6 20.5 6C20.2239 6 20 6.22386 20 6.5C20 6.77614 20.2239 7 20.5 7C20.7761 7 21 6.77614 21 6.5ZM22 6.5C22 7.32843 21.3284 8 20.5 8C19.6716 8 19 7.32843 19 6.5C19 5.67157 19.6716 5 20.5 5C21.3284 5 22 5.67157 22 6.5ZM26 20V22H24V20H26ZM28 13V11H26V13H28ZM11 7H13V9H11V7ZM6 8H4V10H6V8Z" fill="black"/>
</svg>
