<svg width="32" height="32" viewBox="0 0 32 32" fill="none" xmlns="http://www.w3.org/2000/svg">
<path d="M28 16C28 22.6274 22.6274 28 16 28C9.37258 28 4 22.6274 4 16C4 9.37258 9.37258 4 16 4C22.6274 4 28 9.37258 28 16ZM30 16C30 8.26801 23.732 2 16 2C8.26801 2 2 8.26801 2 16C2 23.732 8.26801 30 16 30C23.732 30 30 23.732 30 16ZM10 11C10 10.4477 10.4477 10 11 10H13C13.5523 10 14 10.4477 14 11V21C14 21.5523 13.5523 22 13 22H11C10.4477 22 10 21.5523 10 21V11ZM18 11C18 10.4477 18.4477 10 19 10H21C21.5523 10 22 10.4477 22 11V21C22 21.5523 21.5523 22 21 22H19C18.4477 22 18 21.5523 18 21V11Z" fill="black"/>
</svg>
