<svg width="32" height="32" viewBox="0 0 32 32" fill="none" xmlns="http://www.w3.org/2000/svg">
<path d="M30 16C30 23.732 23.732 30 16 30C8.26801 30 2 23.732 2 16C2 8.26801 8.26801 2 16 2C23.732 2 30 8.26801 30 16ZM10 11V21C10 21.5523 10.4477 22 11 22H13C13.5523 22 14 21.5523 14 21V11C14 10.4477 13.5523 10 13 10H11C10.4477 10 10 10.4477 10 11ZM19 10C18.4477 10 18 10.4477 18 11V21C18 21.5523 18.4477 22 19 22H21C21.5523 22 22 21.5523 22 21V11C22 10.4477 21.5523 10 21 10H19Z" fill="black"/>
</svg>
