<svg width="32" height="32" viewBox="0 0 32 32" fill="none" xmlns="http://www.w3.org/2000/svg">
<path d="M29.2551 29.25H26.9751V14.095H28.3701C28.4643 14.0955 28.5567 14.0694 28.6366 14.0197C28.7166 13.9701 28.781 13.8988 28.8222 13.8142C28.8635 13.7295 28.88 13.635 28.8699 13.5413C28.8598 13.4477 28.8235 13.3589 28.7651 13.285L25.6101 9.245C25.561 9.1885 25.5003 9.1432 25.4321 9.11215C25.364 9.08111 25.29 9.06505 25.2151 9.06505C25.1402 9.06505 25.0662 9.08111 24.9981 9.11215C24.9299 9.1432 24.8693 9.1885 24.8201 9.245L21.6651 13.285C21.6067 13.3589 21.5704 13.4477 21.5603 13.5413C21.5502 13.635 21.5667 13.7295 21.608 13.8142C21.6493 13.8988 21.7136 13.9701 21.7936 14.0197C21.8736 14.0694 21.966 14.0955 22.0601 14.095H23.4501V29.25H18.3951V18.64H19.7851C19.8795 18.6401 19.9719 18.6134 20.0516 18.5629C20.1313 18.5125 20.1949 18.4403 20.2351 18.355C20.2771 18.2714 20.2942 18.1775 20.2845 18.0844C20.2747 17.9914 20.2385 17.9031 20.1801 17.83L17.0251 13.79C16.976 13.7335 16.9153 13.6882 16.8471 13.6572C16.779 13.6261 16.705 13.61 16.6301 13.61C16.5552 13.61 16.4812 13.6261 16.4131 13.6572C16.3449 13.6882 16.2843 13.7335 16.2351 13.79L13.0801 17.83C13.0229 17.9042 12.9876 17.9929 12.9781 18.0861C12.9687 18.1793 12.9854 18.2733 13.0264 18.3575C13.0675 18.4417 13.1313 18.5127 13.2105 18.5627C13.2898 18.6126 13.3814 18.6394 13.4751 18.64H14.8701V29.25H10.3151V23.18H11.7101C11.8039 23.1805 11.8959 23.1545 11.9756 23.105C12.0552 23.0554 12.1192 22.9844 12.1601 22.9C12.1997 22.8158 12.2154 22.7224 12.2057 22.6298C12.196 22.5373 12.1613 22.4492 12.1051 22.375L8.94512 18.335C8.89716 18.2775 8.83714 18.2312 8.76932 18.1994C8.70149 18.1677 8.62751 18.1512 8.55262 18.1512C8.47772 18.1512 8.40374 18.1677 8.33592 18.1994C8.26809 18.2312 8.20807 18.2775 8.16012 18.335L5.00512 22.375C4.94674 22.4481 4.91053 22.5364 4.90078 22.6294C4.89104 22.7225 4.90816 22.8164 4.95012 22.9C4.98947 22.9845 5.0524 23.0559 5.13133 23.1056C5.21027 23.1553 5.30186 23.1811 5.39512 23.18H6.79012V29.25H3.24512V3.495C3.24512 3.36239 3.19244 3.23521 3.09867 3.14144C3.0049 3.04767 2.87773 2.995 2.74512 2.995C2.61251 2.995 2.48533 3.04767 2.39156 3.14144C2.2978 3.23521 2.24512 3.36239 2.24512 3.495V29.75C2.24512 29.8826 2.2978 30.0098 2.39156 30.1035C2.48533 30.1973 2.61251 30.25 2.74512 30.25H29.2551C29.3877 30.25 29.5149 30.1973 29.6087 30.1035C29.7024 30.0098 29.7551 29.8826 29.7551 29.75C29.7551 29.6174 29.7024 29.4902 29.6087 29.3964C29.5149 29.3027 29.3877 29.25 29.2551 29.25ZM9.31512 22.68V29.25H7.79012V22.68C7.79012 22.5474 7.73744 22.4202 7.64367 22.3264C7.5499 22.2327 7.42273 22.18 7.29012 22.18H6.42512L8.55512 19.455L10.6851 22.18H9.81512C9.68251 22.18 9.55533 22.2327 9.46156 22.3264C9.3678 22.4202 9.31512 22.5474 9.31512 22.68ZM17.3951 18.14V29.25H15.8701V18.14C15.8701 18.0074 15.8174 17.8802 15.7237 17.7864C15.6299 17.6927 15.5027 17.64 15.3701 17.64H14.5001L16.6301 14.91L18.7601 17.64H17.8951C17.8293 17.6393 17.764 17.6518 17.703 17.6767C17.642 17.7016 17.5866 17.7384 17.5401 17.785C17.4935 17.8315 17.4567 17.8869 17.4318 17.9479C17.4069 18.0088 17.3944 18.0741 17.3951 18.14ZM25.9751 13.595V29.25H24.4501V13.595C24.4508 13.5291 24.4383 13.4638 24.4134 13.4029C24.3885 13.3419 24.3517 13.2865 24.3052 13.24C24.2586 13.1934 24.2032 13.1566 24.1422 13.1317C24.0813 13.1068 24.016 13.0943 23.9501 13.095H23.0851L25.2151 10.365L27.3451 13.095H26.4751C26.3425 13.095 26.2153 13.1477 26.1216 13.2414C26.0278 13.3352 25.9751 13.4624 25.9751 13.595Z" fill="black"/>
<path d="M11.1002 12.455C11.0262 12.7094 10.8843 12.9389 10.6896 13.1187C10.4948 13.2984 10.2547 13.4216 9.99517 13.475V13.795C9.99517 13.9276 9.9425 14.0548 9.84873 14.1485C9.75496 14.2423 9.62778 14.295 9.49517 14.295C9.36257 14.295 9.23539 14.2423 9.14162 14.1485C9.04785 14.0548 8.99517 13.9276 8.99517 13.795V13.39C8.74545 13.29 8.506 13.1661 8.28017 13.02C8.19517 12.965 8.11017 12.915 8.03017 12.87C7.91414 12.8057 7.82841 12.6979 7.79184 12.5704C7.75527 12.4428 7.77086 12.306 7.83517 12.19C7.89949 12.0739 8.00726 11.9882 8.13479 11.9516C8.26231 11.9151 8.39914 11.9307 8.51517 11.995C8.61517 12.05 8.71017 12.11 8.81017 12.17C9.05569 12.363 9.34992 12.4842 9.66017 12.52C9.76319 12.5213 9.8641 12.4908 9.94913 12.4327C10.0341 12.3745 10.0991 12.2915 10.1352 12.195C10.1552 12.13 10.1602 12.025 10.0102 11.925L8.69517 11.045C8.54326 10.9489 8.41345 10.8216 8.31434 10.6717C8.21522 10.5217 8.14904 10.3524 8.12017 10.175C8.09373 10.008 8.10325 9.83736 8.14808 9.67438C8.19292 9.51141 8.27205 9.35989 8.38017 9.22997C8.54188 9.03067 8.75434 8.87866 8.99517 8.78997V8.34497C8.99517 8.21236 9.04785 8.08519 9.14162 7.99142C9.23539 7.89765 9.36257 7.84497 9.49517 7.84497C9.62778 7.84497 9.75496 7.89765 9.84873 7.99142C9.9425 8.08519 9.99517 8.21236 9.99517 8.34497V8.73497C10.1631 8.77385 10.3224 8.84335 10.4652 8.93997L10.9952 9.28997C11.1059 9.36357 11.1829 9.47814 11.2091 9.60848C11.2354 9.73881 11.2088 9.87424 11.1352 9.98497C11.0616 10.0957 10.947 10.1727 10.8167 10.1989C10.6863 10.2252 10.5509 10.1986 10.4402 10.125L9.91017 9.76997C9.79487 9.69551 9.65752 9.66283 9.52103 9.67739C9.38455 9.69195 9.25718 9.75286 9.16017 9.84997C9.13991 9.87307 9.12458 9.90006 9.11512 9.92929C9.10566 9.95852 9.10228 9.98938 9.10517 10.02C9.12708 10.101 9.1789 10.1707 9.25017 10.215L10.5702 11.095C10.7939 11.2337 10.9665 11.4413 11.062 11.6866C11.1576 11.9318 11.171 12.2015 11.1002 12.455Z" fill="black"/>
<path d="M9.49522 6.29504C8.55081 6.29504 7.62761 6.57509 6.84237 7.09978C6.05712 7.62446 5.4451 8.37021 5.08369 9.24273C4.72228 10.1152 4.62772 11.0753 4.81197 12.0016C4.99621 12.9279 5.45099 13.7787 6.11878 14.4465C6.78658 15.1143 7.6374 15.569 8.56366 15.7533C9.48992 15.9375 10.45 15.843 11.3225 15.4816C12.195 15.1202 12.9408 14.5081 13.4655 13.7229C13.9902 12.9376 14.2702 12.0144 14.2702 11.07C14.2694 9.80388 13.7661 8.5898 12.8708 7.69449C11.9755 6.79917 10.7614 6.29584 9.49522 6.29504ZM9.49522 14.845C8.74859 14.845 8.01873 14.6236 7.39794 14.2088C6.77714 13.794 6.29329 13.2045 6.00757 12.5147C5.72185 11.8249 5.64709 11.0659 5.79275 10.3336C5.93841 9.6013 6.29795 8.92866 6.82589 8.40072C7.35383 7.87277 8.02647 7.51324 8.75875 7.36758C9.49103 7.22192 10.2501 7.29668 10.9398 7.5824C11.6296 7.86812 12.2192 8.35197 12.634 8.97277C13.0488 9.59356 13.2702 10.3234 13.2702 11.07C13.2685 12.0707 12.8702 13.0299 12.1626 13.7375C11.4551 14.4451 10.4959 14.8433 9.49522 14.845Z" fill="black"/>
<path d="M18.1271 8.32405C18.2096 8.37005 18.2936 8.42405 18.3801 8.47405C18.605 8.6207 18.8436 8.74512 19.0926 8.84555V9.24555C19.0926 9.37816 19.1453 9.50533 19.239 9.5991C19.3328 9.69287 19.46 9.74555 19.5926 9.74555C19.7252 9.74555 19.8524 9.69287 19.9461 9.5991C20.0399 9.50533 20.0926 9.37816 20.0926 9.24555V8.92855C20.3518 8.87502 20.5917 8.75223 20.7867 8.57324C20.9817 8.39425 21.1246 8.16575 21.2001 7.91205C21.2697 7.65774 21.2553 7.38775 21.159 7.1423C21.0627 6.89686 20.8896 6.68912 20.6656 6.55005L19.3471 5.66755C19.3114 5.64681 19.2803 5.61891 19.2559 5.58562C19.2315 5.55232 19.2142 5.51434 19.2051 5.47405C19.2014 5.44373 19.2043 5.41299 19.2134 5.38385C19.2226 5.35472 19.2378 5.32786 19.2581 5.30505C19.355 5.20786 19.4824 5.14685 19.6189 5.1322C19.7553 5.11755 19.8927 5.15015 20.0081 5.22455L20.5346 5.57705C20.5891 5.61492 20.6506 5.64156 20.7156 5.6554C20.7805 5.66924 20.8476 5.67001 20.9128 5.65767C20.978 5.64532 21.0401 5.62011 21.0955 5.5835C21.1509 5.54689 21.1985 5.49961 21.2354 5.44443C21.2723 5.38925 21.2979 5.32727 21.3106 5.2621C21.3233 5.19694 21.3229 5.12989 21.3094 5.06488C21.2959 4.99987 21.2696 4.9382 21.2321 4.88345C21.1945 4.82871 21.1464 4.782 21.0906 4.74605L20.5641 4.39605C20.4193 4.30168 20.2595 4.23254 20.0916 4.19155V3.80005C20.0916 3.66744 20.0389 3.54026 19.9451 3.4465C19.8514 3.35273 19.7242 3.30005 19.5916 3.30005C19.459 3.30005 19.3318 3.35273 19.238 3.4465C19.1443 3.54026 19.0916 3.66744 19.0916 3.80005V4.25005C18.8506 4.33719 18.6374 4.48762 18.4746 4.68555C18.3678 4.81635 18.2897 4.96806 18.2452 5.13091C18.2006 5.29376 18.1907 5.46414 18.2161 5.63105C18.2459 5.80803 18.3125 5.9768 18.4115 6.12647C18.5105 6.27615 18.6399 6.40341 18.7911 6.50005L20.1086 7.38205C20.2586 7.48205 20.2521 7.58205 20.2341 7.65155C20.1975 7.74814 20.1321 7.83117 20.0468 7.88939C19.9615 7.94761 19.8604 7.97821 19.7571 7.97705C19.447 7.94045 19.153 7.81938 18.9071 7.62705C18.8071 7.56455 18.7071 7.50355 18.6131 7.45005C18.4975 7.3877 18.362 7.37334 18.2359 7.41007C18.1098 7.4468 18.0032 7.53167 17.9392 7.64635C17.8752 7.76102 17.8588 7.89628 17.8937 8.0229C17.9286 8.14952 18.0119 8.25734 18.1256 8.32305L18.1271 8.32405Z" fill="black"/>
<path d="M19.5901 1.75C18.6459 1.75099 17.7232 2.03188 16.9386 2.55716C16.154 3.08245 15.5428 3.82854 15.1821 4.70115C14.8215 5.57375 14.7276 6.53369 14.9124 7.45962C15.0972 8.38555 15.5524 9.2359 16.2204 9.9032C16.8884 10.5705 17.7392 11.0248 18.6654 11.2086C19.5915 11.3925 20.5513 11.2976 21.4235 10.936C22.2958 10.5745 23.0412 9.96246 23.5657 9.17733C24.0901 8.39219 24.3701 7.46919 24.3701 6.525C24.3685 5.25821 23.8642 4.04384 22.968 3.14855C22.0718 2.25327 20.8569 1.75026 19.5901 1.75ZM19.5901 10.3C18.8437 10.299 18.1143 10.0768 17.4942 9.66137C16.874 9.24597 16.3909 8.65605 16.106 7.96617C15.821 7.27629 15.747 6.51742 15.8932 5.78547C16.0394 5.05353 16.3994 4.38135 16.9275 3.85391C17.4557 3.32647 18.1283 2.96743 18.8604 2.82217C19.5926 2.67692 20.3514 2.75197 21.0409 3.03784C21.7304 3.3237 22.3196 3.80756 22.7342 4.42824C23.1488 5.04893 23.3701 5.77859 23.3701 6.525C23.3684 7.52653 22.9694 8.48647 22.2607 9.19419C21.5521 9.90191 20.5916 10.2996 19.5901 10.3Z" fill="black"/>
</svg>
