<svg width="32" height="32" viewBox="0 0 32 32" fill="none" xmlns="http://www.w3.org/2000/svg">
<path d="M16.6584 7.15735C13.1885 7.15735 10.3655 9.98035 10.3655 13.4503C10.3655 14.4516 10.6066 15.448 11.0625 16.3318C11.1696 16.5396 11.4252 16.621 11.6329 16.514C11.8407 16.4067 11.9224 16.1514 11.815 15.9436C11.4151 15.1683 11.2122 14.3295 11.2122 13.4503C11.2122 10.4472 13.6553 8.00416 16.6584 8.00416C19.6614 8.00416 22.1045 10.4472 22.1045 13.4503C22.1045 15.256 21.2119 16.9409 19.7164 17.9575C19.523 18.089 19.4729 18.3523 19.6043 18.5457C19.6863 18.6662 19.8192 18.731 19.9547 18.731C20.0368 18.731 20.1195 18.7073 20.1924 18.6578C21.92 17.4833 22.9514 15.5367 22.9514 13.4503C22.9514 9.98035 20.1284 7.15735 16.6584 7.15735Z" fill="black"/>
<path d="M18.0342 17.4653C18.0846 17.4653 18.1358 17.4561 18.1856 17.437C19.8251 16.8085 20.9265 15.2064 20.9265 13.4503C20.9265 11.0967 19.0118 9.18201 16.6583 9.18201C14.3048 9.18201 12.3899 11.0967 12.3899 13.4503C12.3899 14.5443 12.8034 15.5847 13.5543 16.3799C13.7146 16.55 13.9827 16.5579 14.1527 16.3972C14.3228 16.2366 14.3305 15.9688 14.1699 15.7988C13.5681 15.1612 13.2366 14.3271 13.2366 13.4503C13.2366 11.5637 14.7716 10.0288 16.6582 10.0288C18.5448 10.0288 20.0797 11.5637 20.0797 13.4503C20.0797 14.8582 19.1966 16.1425 17.8825 16.6464C17.6641 16.7301 17.555 16.975 17.6386 17.1933C17.7033 17.3618 17.8638 17.4653 18.0342 17.4653Z" fill="black"/>
<path d="M8.69705 18.2127C8.93086 18.2127 9.12042 18.0231 9.12042 17.7893C9.12042 17.5555 8.93086 17.366 8.69705 17.366H7.51242C7.27867 17.366 7.08911 17.5555 7.08911 17.7893V23.679C7.08911 23.9128 7.27867 24.1024 7.51242 24.1024H10.2426H17.9382C18.943 24.1024 19.9364 23.7667 20.7352 23.157L23.3054 21.1955C24.0211 20.6493 24.1699 19.6147 23.637 18.8891C23.1035 18.1625 22.0709 17.9953 21.335 18.5163L20.0193 19.4482C19.8285 19.5833 19.7834 19.8476 19.9185 20.0385C20.0538 20.2292 20.318 20.2743 20.5088 20.1392L21.8246 19.2073C22.1859 18.9513 22.6928 19.0338 22.9544 19.3903C23.2161 19.7465 23.1431 20.2543 22.7917 20.5223L20.2215 22.4838C19.5692 22.9815 18.7585 23.2556 17.9382 23.2556H10.666V18.2127H13.5322C14.0295 18.2127 14.4992 18.404 14.8547 18.7517C15.3696 19.2547 16.0495 19.5317 16.7692 19.5317H17.5894C17.9734 19.5317 18.2857 19.844 18.2857 20.2279C18.2857 20.7398 17.8694 21.1563 17.3574 21.1563H14.3867C14.1529 21.1563 13.9633 21.3458 13.9633 21.5796C13.9633 21.8134 14.1529 22.003 14.3867 22.003H17.3574C18.3362 22.003 19.1325 21.2067 19.1325 20.2279C19.1325 19.3772 18.4402 18.6849 17.5894 18.6849H16.7692C16.2719 18.6849 15.8022 18.4935 15.4465 18.146C14.932 17.6428 14.2521 17.3658 13.5322 17.3658H10.2425C10.0088 17.3658 9.81917 17.5554 9.81917 17.7892V23.2555H7.9358V18.2126H8.69705V18.2127Z" fill="black"/>
<path d="M16.6583 16.5619C16.8921 16.5619 17.0817 16.3723 17.0817 16.1386V15.7958C17.6779 15.6858 18.1312 15.1631 18.1312 14.5356C18.1312 13.8284 17.5559 13.2531 16.8486 13.2531H16.7832H16.5345H16.469C16.2287 13.2531 16.0332 13.0577 16.0332 12.8174C16.0332 12.5771 16.2287 12.3817 16.469 12.3817H17.459C17.6928 12.3817 17.8823 12.1921 17.8823 11.9583C17.8823 11.7246 17.6928 11.5349 17.459 11.5349H17.0818V11.2646C17.0818 11.0307 16.8922 10.8412 16.6584 10.8412C16.4246 10.8412 16.2351 11.0308 16.2351 11.2646V11.5574C15.6393 11.6678 15.1865 12.1903 15.1865 12.8174C15.1865 13.5246 15.7618 14.0999 16.4691 14.0999H16.5345H16.7833H16.8487C17.089 14.0999 17.2845 14.2954 17.2845 14.5357C17.2845 14.776 17.089 14.9714 16.8487 14.9714H15.8588C15.625 14.9714 15.4354 15.161 15.4354 15.3947C15.4354 15.6286 15.625 15.8181 15.8588 15.8181H16.2351V16.1386C16.235 16.3723 16.4246 16.5619 16.6583 16.5619Z" fill="black"/>
<path d="M27.4358 26.5681L23.979 24.1807C23.7866 24.0479 23.5228 24.0961 23.39 24.2885C23.2571 24.4809 23.3054 24.7446 23.4977 24.8776L26.4501 26.9165L24.1618 28.497V27.7812C24.1618 27.5474 23.9722 27.3578 23.7384 27.3578H10.4354V26.4751H23.7384C23.9722 26.4751 24.1618 26.2855 24.1618 26.0517C24.1618 25.818 23.9722 25.6284 23.7384 25.6284H10.0119C9.77819 25.6284 9.58862 25.818 9.58862 26.0517V27.7812C9.58862 28.0149 9.77819 28.2045 10.0119 28.2045H23.315V29.3039C23.315 29.4612 23.4023 29.6057 23.5417 29.6788C23.6035 29.7112 23.671 29.7272 23.7384 29.7272C23.8229 29.7272 23.9069 29.7019 23.979 29.6522L27.4358 27.2648C27.5503 27.1857 27.6186 27.0554 27.6186 26.9164C27.6186 26.7773 27.5503 26.6471 27.4358 26.5681Z" fill="black"/>
<path d="M8.22802 25.6284H6.3472C6.11345 25.6284 5.92383 25.818 5.92383 26.0517V27.7812C5.92383 28.015 6.11345 28.2045 6.3472 28.2045H8.22802C8.46177 28.2045 8.65133 28.015 8.65133 27.7812V26.0517C8.65133 25.818 8.46177 25.6284 8.22802 25.6284ZM7.80458 27.3579H6.77058V26.4752H7.80458V27.3579Z" fill="black"/>
<path d="M4.56302 25.6284C4.32927 25.6284 4.13965 25.818 4.13965 26.0517V27.7812C4.13965 28.015 4.32927 28.2045 4.56302 28.2045C4.79677 28.2045 4.9864 28.015 4.9864 27.7812V26.0517C4.9864 25.818 4.79677 25.6284 4.56302 25.6284Z" fill="black"/>
<path d="M4.5644 5.43184L8.02122 7.81928C8.09472 7.86997 8.17847 7.89428 8.26147 7.89428C8.39591 7.89428 8.52815 7.83047 8.61022 7.71153C8.74309 7.51909 8.69484 7.25547 8.50247 7.12253L5.55009 5.0834L7.8384 3.5029V4.21872C7.8384 4.45247 8.02803 4.64209 8.26178 4.64209H21.5648V5.52478H8.26184C8.02809 5.52478 7.83847 5.7144 7.83847 5.94815C7.83847 6.1819 8.02809 6.37153 8.26184 6.37153H21.9883C22.222 6.37153 22.4116 6.1819 22.4116 5.94815V4.21872C22.4116 3.9849 22.222 3.79534 21.9883 3.79534H8.68522V2.69597C8.68522 2.53859 8.59791 2.39415 8.45853 2.32097C8.31915 2.24797 8.15059 2.25815 8.02122 2.34759L4.5644 4.73509C4.4499 4.81409 4.38159 4.9444 4.38159 5.08347C4.38159 5.22253 4.4499 5.35278 4.5644 5.43184Z" fill="black"/>
<path d="M23.7723 6.37148H25.6531C25.8868 6.37148 26.0764 6.18185 26.0764 5.9481V4.21866C26.0764 3.98485 25.8868 3.79529 25.6531 3.79529H23.7723C23.5385 3.79529 23.3489 3.98491 23.3489 4.21866V5.9481C23.3489 6.18191 23.5385 6.37148 23.7723 6.37148ZM24.1957 4.64204H25.2297V5.52473H24.1957V4.64204Z" fill="black"/>
<path d="M27.437 3.79529C27.2033 3.79529 27.0137 3.98491 27.0137 4.21866V5.9481C27.0137 6.18185 27.2033 6.37148 27.437 6.37148C27.6708 6.37148 27.8604 6.18185 27.8604 5.9481V4.21866C27.8605 3.98485 27.6708 3.79529 27.437 3.79529Z" fill="black"/>
</svg>
