<svg width="32" height="32" viewBox="0 0 32 32" fill="none" xmlns="http://www.w3.org/2000/svg">
<path d="M16 28C9.37258 28 4 22.6274 4 16C4 9.37258 9.37258 4 16 4C22.6274 4 28 9.37258 28 16C28 22.6274 22.6274 28 16 28ZM16 30C23.732 30 30 23.732 30 16C30 8.26801 23.732 2 16 2C8.26801 2 2 8.26801 2 16C2 23.732 8.26801 30 16 30ZM17.5556 10.2018L21.7982 14.4444L13.8268 22.4159C13.2362 23.0065 12.426 23.3242 11.5914 23.2924L9.73939 23.2219C9.21697 23.202 8.79804 22.7831 8.77816 22.2606L8.70765 20.4087C8.67588 19.574 8.99353 18.7639 9.58416 18.1732L17.5556 10.2018ZM17.5556 13.0302L10.9984 19.5874C10.8015 19.7843 10.6956 20.0544 10.7062 20.3326L10.7415 21.2586L11.6674 21.2938C11.9457 21.3044 12.2157 21.1985 12.4126 21.0017L18.9698 14.4444L17.5556 13.0302ZM18.9698 8.78757L18.2627 9.49467L22.5054 13.7373L23.2125 13.0302C23.9935 12.2492 23.9935 10.9828 23.2125 10.2018L21.7982 8.78757C21.0172 8.00652 19.7509 8.00652 18.9698 8.78757Z" fill="black"/>
</svg>
