<svg width="32" height="32" viewBox="0 0 32 32" fill="none" xmlns="http://www.w3.org/2000/svg">
<path d="M16 30C23.732 30 30 23.732 30 16C30 8.26801 23.732 2 16 2C8.26801 2 2 8.26801 2 16C2 23.732 8.26801 30 16 30ZM18.2627 9.49468L18.9698 8.78757C19.7509 8.00652 21.0172 8.00652 21.7983 8.78757L23.2125 10.2018C23.9935 10.9828 23.9935 12.2492 23.2125 13.0302L22.5054 13.7373L18.2627 9.49468ZM21.7983 14.4444L13.8268 22.4159C13.2362 23.0065 12.4261 23.3242 11.5914 23.2924L9.73942 23.2219C9.217 23.202 8.79807 22.7831 8.77818 22.2606L8.70768 20.4087C8.6759 19.574 8.99355 18.7639 9.58419 18.1732L17.5556 10.2018L21.7983 14.4444Z" fill="black"/>
</svg>
