<svg width="32" height="32" viewBox="0 0 32 32" fill="none" xmlns="http://www.w3.org/2000/svg">
<path d="M21.6568 4.6863L20.9497 5.3934L26.6065 11.0503L27.3137 10.3432C28.4852 9.17158 28.4852 7.27208 27.3137 6.10051L25.8994 4.6863C24.7279 3.51472 22.8284 3.51472 21.6568 4.6863ZM11.0899 26.5671L25.1925 12.4645L19.5357 6.80762L5.43302 20.9103C4.90297 21.4403 4.59056 22.1496 4.55729 22.8985L4.39454 26.5622C4.38209 26.8426 4.48801 27.1153 4.68645 27.3137C4.88489 27.5122 5.15758 27.6181 5.43793 27.6056L9.10169 27.4429C9.85055 27.4096 10.5598 27.0972 11.0899 26.5671ZM6.84723 22.3245L19.5357 9.63605L22.3641 12.4645L9.67566 25.1529C9.49898 25.3296 9.26255 25.4338 9.01293 25.4448L6.44107 25.5591L6.55532 22.9872C6.56641 22.7376 6.67055 22.5012 6.84723 22.3245Z" fill="black"/>
</svg>
