<svg width="32" height="32" viewBox="0 0 32 32" fill="none" xmlns="http://www.w3.org/2000/svg">
<path d="M22.6066 5.12132L23.3137 4.41422C24.0947 3.63317 25.3611 3.63317 26.1421 4.41422L27.5563 5.82843C28.3374 6.60948 28.3374 7.87581 27.5563 8.65686L26.8492 9.36396L22.6066 5.12132ZM21.8995 5.82843L26.1421 10.0711L18.1707 18.0425C17.58 18.6332 16.7699 18.9508 15.9352 18.919L14.0833 18.8485C13.5608 18.8286 13.1419 18.4097 13.122 17.8873L13.0515 16.0353C13.0197 15.2006 13.3374 14.3905 13.928 13.7999L21.8995 5.82843ZM21.8995 8.65686L15.3422 15.2141C15.1454 15.411 15.0395 15.681 15.0501 15.9592L15.0853 16.8852L16.0113 16.9205C16.2895 16.9311 16.5596 16.8252 16.7565 16.6283L23.3137 10.0711L21.8995 8.65686ZM6 9C6 8.44772 6.44772 8 7 8H14.0909C14.6432 8 15.0909 7.55229 15.0909 7C15.0909 6.44772 14.6432 6 14.0909 6H7C5.34315 6 4 7.34315 4 9V25C4 26.6569 5.34315 28 7 28H23C24.6569 28 26 26.6569 26 25V17.9091C26 17.3568 25.5523 16.9091 25 16.9091C24.4477 16.9091 24 17.3568 24 17.9091V25C24 25.5523 23.5523 26 23 26H7C6.44772 26 6 25.5523 6 25V9Z" fill="black"/>
</svg>
