<svg width="32" height="32" viewBox="0 0 32 32" fill="none" xmlns="http://www.w3.org/2000/svg">
<g clip-path="url(#clip0_409_220)">
<path d="M16.0001 0.640015C14.1621 0.640015 12.3649 0.961295 10.6574 1.59489L11.1029 2.79489C12.667 2.21441 14.315 1.92001 16.0001 1.92001C23.764 1.92001 30.0801 8.23617 30.0801 16C30.0801 23.7639 23.764 30.08 16.0001 30.08C8.2363 30.08 1.92014 23.7639 1.92014 16C1.92014 11.7792 3.81646 7.81121 7.04014 5.14689V9.60001H8.32014V3.20001H1.92014V4.48001H5.84078C2.55566 7.37921 0.640137 11.5635 0.640137 16C0.640137 24.4691 7.53102 31.36 16.0001 31.36C24.4693 31.36 31.3601 24.4691 31.3601 16C31.3601 7.53089 24.4693 0.640015 16.0001 0.640015Z" fill="black"/>
<path d="M12.1604 21.12H10.8804V22.4H21.1204V21.12H19.8404V18.935L16.9053 16L19.8404 13.0649V10.88H21.1204V9.59998H10.8804V10.88H12.1604V13.0649L15.0954 16L12.1604 18.935V21.12ZM13.4404 12.535V10.88H18.5604V12.535L16.0004 15.095L13.4404 12.535ZM16.0004 16.9049L18.5604 19.4649V21.12H13.4404V19.4649L16.0004 16.9049Z" fill="black"/>
<path d="M13.4402 24.96H12.1602V26.24H13.4402V24.96Z" fill="black"/>
<path d="M16.6404 24.96H15.3604V26.24H16.6404V24.96Z" fill="black"/>
<path d="M19.8401 24.96H18.5601V26.24H19.8401V24.96Z" fill="black"/>
</g>
<defs>
<clipPath id="clip0_409_220">
<rect width="32" height="32" fill="white"/>
</clipPath>
</defs>
</svg>
