<svg width="32" height="32" viewBox="0 0 32 32" fill="none" xmlns="http://www.w3.org/2000/svg">
<path d="M10.6875 14.0662C13.8309 14.0662 16.375 11.522 16.375 8.37866C16.375 5.2353 13.8309 2.69116 10.6875 2.69116C7.54414 2.69116 5 5.2353 5 8.37866C5 11.522 7.54414 14.0662 10.6875 14.0662ZM10.6875 5.94116C12.0332 5.94116 13.125 7.03296 13.125 8.37866C13.125 9.72437 12.0332 10.8162 10.6875 10.8162C9.3418 10.8162 8.25 9.72437 8.25 8.37866C8.25 7.03296 9.3418 5.94116 10.6875 5.94116ZM22.0625 17.3162C18.9191 17.3162 16.375 19.8603 16.375 23.0037C16.375 26.147 18.9191 28.6912 22.0625 28.6912C25.2059 28.6912 27.75 26.147 27.75 23.0037C27.75 19.8603 25.2059 17.3162 22.0625 17.3162ZM22.0625 25.4412C20.7168 25.4412 19.625 24.3494 19.625 23.0037C19.625 21.658 20.7168 20.5662 22.0625 20.5662C23.4082 20.5662 24.5 21.658 24.5 23.0037C24.5 24.3494 23.4082 25.4412 22.0625 25.4412ZM24.9215 2.70132L26.5262 2.69624C27.5113 2.69116 28.0953 3.80327 27.5266 4.61577L8.93047 28.163C8.81834 28.3229 8.66936 28.4535 8.49611 28.5437C8.32287 28.6338 8.13046 28.6809 7.93516 28.681L6.23906 28.6861C5.24883 28.6861 4.66992 27.574 5.23867 26.7666L23.9262 3.21929C24.1547 2.89429 24.5254 2.70132 24.9215 2.70132Z" fill="black"/>
</svg>
