<svg width="32" height="32" viewBox="0 0 32 32" fill="none" xmlns="http://www.w3.org/2000/svg">
<path d="M30 16C30 16.4949 29.9743 16.9838 29.9242 17.4654C28.5093 16.5388 26.8176 16 25 16C22.2669 16 19.8184 17.2183 18.1678 19.1414C17.4698 19.0488 16.7444 19 16 19C11.4941 19 7.68425 20.7881 6.43398 23.2462C8.62531 26.1346 12.0948 28 16 28C16.1703 28 16.3398 27.9965 16.5084 27.9894C16.7502 28.6764 17.073 29.3251 17.4654 29.9242C16.9838 29.9743 16.4949 30 16 30C8.26801 30 2 23.732 2 16C2 8.26801 8.26801 2 16 2C23.732 2 30 8.26801 30 16ZM21 12C21 9.23858 18.7614 7 16 7C13.2386 7 11 9.23858 11 12C11 14.7614 13.2386 17 16 17C18.7614 17 21 14.7614 21 12ZM32 25C32 28.866 28.866 32 25 32C21.134 32 18 28.866 18 25C18 21.134 21.134 18 25 18C28.866 18 32 21.134 32 25ZM28.7019 22.2878C28.3086 21.9001 27.6754 21.9047 27.2878 22.2981L23.8201 25.8167L22.8298 24.3443C22.5215 23.886 21.9001 23.7644 21.4419 24.0727C20.9836 24.3809 20.862 25.0023 21.1702 25.4606L22.8436 27.9484C23.0112 28.1974 23.2817 28.358 23.5805 28.3859C23.8794 28.4138 24.175 28.3059 24.3856 28.0922L28.7122 23.7019C29.0999 23.3086 29.0953 22.6754 28.7019 22.2878Z" fill="black"/>
</svg>
