<svg width="32" height="32" viewBox="0 0 32 32" fill="none" xmlns="http://www.w3.org/2000/svg">
<path d="M28.3323 22H22.1041C21.806 21.2635 21.354 20.5936 20.7973 20H27.9491C27.827 19.5766 27.4578 19.0325 26.5958 18.4938C25.5132 17.8172 23.8932 17.3333 21.999 17.3333C20.5175 17.3333 19.2037 17.6293 18.1836 18.0819C17.4559 17.7107 16.6595 17.4019 15.8125 17.1629C17.2797 16.0459 19.5062 15.3333 21.999 15.3333C26.4172 15.3333 29.999 17.5719 29.999 20.3333C29.999 21.2538 29.2528 22 28.3323 22ZM23.999 10C23.999 8.89543 23.1035 8 21.999 8C20.8944 8 19.9989 8.89543 19.9989 10C19.9989 11.1046 20.8944 12 21.999 12C23.1035 12 23.999 11.1046 23.999 10ZM25.999 10C25.999 12.2091 24.2081 14 21.999 14C19.7898 14 17.9989 12.2091 17.9989 10C17.9989 7.79086 19.7898 6 21.999 6C24.2081 6 25.999 7.79086 25.999 10ZM11.5 14.5C9.98121 14.5 8.74999 13.2688 8.74999 11.75C8.74999 10.2312 9.98121 9 11.5 9C13.0188 9 14.25 10.2312 14.25 11.75C14.25 13.2688 13.0188 14.5 11.5 14.5ZM11.5 16.5C14.1234 16.5 16.25 14.3734 16.25 11.75C16.25 9.12665 14.1234 7 11.5 7C8.87664 7 6.74999 9.12665 6.74999 11.75C6.74999 14.3734 8.87664 16.5 11.5 16.5ZM18.9999 24.0001H4.00013C4.00918 23.3012 4.47392 22.3738 5.84249 21.5185C7.1965 20.6722 9.19153 20.0834 11.5 20.0834C13.8085 20.0834 15.8035 20.6722 17.1575 21.5185C18.5261 22.3738 18.9908 23.3012 18.9999 24.0001ZM11.5 18.0834C6.2533 18.0834 2 20.7417 2 24.0209C2 25.114 2.88609 26.0001 3.97916 26.0001H19.0208C20.1139 26.0001 21 25.114 21 24.0209C21 20.7417 16.7467 18.0834 11.5 18.0834Z" fill="black"/>
</svg>
