<svg width="32" height="32" viewBox="0 0 32 32" fill="none" xmlns="http://www.w3.org/2000/svg">
<path d="M16.9214 21.0285C17.2575 20.3462 17.6774 19.7127 18.1678 19.1414C17.4698 19.0488 16.7444 19 16 19C11.4941 19 7.68425 20.7881 6.43398 23.2462C4.90645 21.2327 4 18.7222 4 16C4 9.37258 9.37258 4 16 4C22.6274 4 28 9.37258 28 16C28 16.1703 27.9965 16.3398 27.9894 16.5084C28.6764 16.7502 29.3251 17.073 29.9242 17.4654C29.9743 16.9838 30 16.4949 30 16C30 8.26801 23.732 2 16 2C8.26801 2 2 8.26801 2 16C2 19.8736 3.57314 23.3797 6.11538 25.9143C6.42758 26.2256 6.75439 26.5222 7.0947 26.8031C9.51473 28.8003 12.6173 30 16 30C16.4949 30 16.9838 29.9743 17.4654 29.9242C17.073 29.3251 16.7502 28.6764 16.5084 27.9894C16.3398 27.9965 16.1703 28 16 28C12.9271 28 10.1239 26.8449 8.001 24.9453C8.02564 24.2709 8.50831 23.3421 9.95792 22.4723C11.4073 21.6027 13.5387 21 16 21C16.3127 21 16.6201 21.0097 16.9214 21.0285ZM16 15C14.3431 15 13 13.6569 13 12C13 10.3431 14.3431 9 16 9C17.6569 9 19 10.3431 19 12C19 13.6569 17.6569 15 16 15ZM16 17C18.7614 17 21 14.7614 21 12C21 9.23858 18.7614 7 16 7C13.2386 7 11 9.23858 11 12C11 14.7614 13.2386 17 16 17ZM32 25C32 28.866 28.866 32 25 32C21.134 32 18 28.866 18 25C18 21.134 21.134 18 25 18C28.866 18 32 21.134 32 25ZM22.1716 23.5858L26.4142 27.8284C26.8047 28.2189 27.4379 28.2189 27.8284 27.8284C28.2189 27.4379 28.2189 26.8047 27.8284 26.4142L23.5858 22.1716C23.1953 21.781 22.5621 21.781 22.1716 22.1716C21.781 22.5621 21.781 23.1952 22.1716 23.5858Z" fill="black"/>
</svg>
