<svg width="32" height="32" viewBox="0 0 32 32" fill="none" xmlns="http://www.w3.org/2000/svg">
<path d="M30 16C30 16.4949 29.9743 16.9838 29.9242 17.4654C28.5093 16.5388 26.8176 16 25 16C22.2669 16 19.8184 17.2183 18.1678 19.1414C17.4698 19.0488 16.7444 19 16 19C11.4941 19 7.68425 20.7881 6.43398 23.2462C8.62531 26.1346 12.0948 28 16 28C16.1703 28 16.3398 27.9965 16.5084 27.9894C16.7502 28.6764 17.073 29.3251 17.4654 29.9242C16.9838 29.9743 16.4949 30 16 30C8.26801 30 2 23.732 2 16C2 8.26801 8.26801 2 16 2C23.732 2 30 8.26801 30 16ZM21 12C21 9.23858 18.7614 7 16 7C13.2386 7 11 9.23858 11 12C11 14.7614 13.2386 17 16 17C18.7614 17 21 14.7614 21 12ZM25 32C28.866 32 32 28.866 32 25C32 21.134 28.866 18 25 18C21.134 18 18 21.134 18 25C18 28.866 21.134 32 25 32ZM25 21C25.5523 21 26 21.4477 26 22V24H28C28.5523 24 29 24.4477 29 25C29 25.5523 28.5523 26 28 26H26V28C26 28.5523 25.5523 29 25 29C24.4477 29 24 28.5523 24 28V26H22C21.4477 26 21 25.5523 21 25C21 24.4477 21.4477 24 22 24H24V22C24 21.4477 24.4477 21 25 21Z" fill="black"/>
</svg>
