<svg width="32" height="32" viewBox="0 0 32 32" fill="none" xmlns="http://www.w3.org/2000/svg">
<path d="M16 16C19.3137 16 22 13.3137 22 10C22 6.68629 19.3137 4 16 4C12.6863 4 9.99999 6.68629 9.99999 10C9.99999 13.3137 12.6863 16 16 16ZM16 18C9.37258 18 4 21.3579 4 25.5C4 26.8807 5.11927 28 6.49999 28H16.5121C16.1805 27.0617 16 26.0519 16 25C16 22.3091 17.1809 19.8941 19.0527 18.2448C18.078 18.0851 17.0549 18 16 18ZM32 25C32 28.866 28.866 32 25 32C21.134 32 18 28.866 18 25C18 21.134 21.134 18 25 18C28.866 18 32 21.134 32 25ZM22.1716 23.5858L26.4142 27.8284C26.8047 28.2189 27.4379 28.2189 27.8284 27.8284C28.2189 27.4379 28.2189 26.8047 27.8284 26.4142L23.5858 22.1716C23.1953 21.781 22.5621 21.781 22.1716 22.1716C21.781 22.5621 21.781 23.1952 22.1716 23.5858Z" fill="black"/>
</svg>
