<svg width="32" height="32" viewBox="0 0 32 32" fill="none" xmlns="http://www.w3.org/2000/svg">
<path d="M20.5 11.5C20.5 13.9853 18.4853 16 16 16C13.5147 16 11.5 13.9853 11.5 11.5C11.5 9.01472 13.5147 7 16 7C18.4853 7 20.5 9.01472 20.5 11.5ZM7.49999 14.5C9.01878 14.5 10.25 13.2688 10.25 11.75C10.25 10.2312 9.01878 9 7.49999 9C5.98121 9 4.74999 10.2312 4.74999 11.75C4.74999 13.2688 5.98121 14.5 7.49999 14.5ZM7.5 15.4167C4.46243 15.4167 2 16.9557 2 18.8542C2 19.487 2.513 20 3.14583 20H6.53067C7.12532 19.1579 7.93418 18.4423 8.84104 17.8755C9.67616 17.3536 10.6331 16.9285 11.6742 16.6158C10.6656 15.8817 9.16966 15.4167 7.5 15.4167ZM12.7725 17.8725C11.0259 18.292 9.54154 19.042 8.51555 20C7.55827 20.8938 7 21.9687 7 23.125C7 24.1605 7.83946 25 8.87499 25H23.125C24.1605 25 25 24.1605 25 23.125C25 21.9687 24.4417 20.8938 23.4844 20C22.4585 19.042 20.9741 18.292 19.2275 17.8725C18.2256 17.6319 17.1375 17.5 16 17.5C14.8625 17.5 13.7744 17.6319 12.7725 17.8725ZM25.4693 20C24.8747 19.1579 24.0658 18.4423 23.159 17.8755C22.3238 17.3536 21.3669 16.9285 20.3257 16.6158C21.3344 15.8817 22.8303 15.4167 24.5 15.4167C27.5376 15.4167 30 16.9557 30 18.8542C30 19.487 29.487 20 28.8542 20H25.4693ZM24.5 14.5C26.0188 14.5 27.25 13.2688 27.25 11.75C27.25 10.2312 26.0188 9 24.5 9C22.9812 9 21.75 10.2312 21.75 11.75C21.75 13.2688 22.9812 14.5 24.5 14.5Z" fill="black"/>
</svg>
