<svg width="32" height="32" viewBox="0 0 32 32" fill="none" xmlns="http://www.w3.org/2000/svg">
<path d="M30 16C30 23.732 23.732 30 16 30C8.26801 30 2 23.732 2 16C2 8.26801 8.26801 2 16 2C23.732 2 30 8.26801 30 16ZM21 12C21 9.23858 18.7614 7 16 7C13.2386 7 11 9.23858 11 12C11 14.7614 13.2386 17 16 17C18.7614 17 21 14.7614 21 12ZM16 28C19.9052 28 23.3747 26.1346 25.566 23.2462C24.3158 20.7881 20.5059 19 16 19C11.4941 19 7.68425 20.7881 6.43398 23.2462C8.62531 26.1346 12.0948 28 16 28Z" fill="black"/>
</svg>
