<svg width="32" height="32" viewBox="0 0 32 32" fill="none" xmlns="http://www.w3.org/2000/svg">
<path d="M28.3323 22H22.104C21.5289 20.579 20.3806 19.4054 19.0127 18.5504C18.0769 17.9655 16.994 17.4962 15.8125 17.1629C17.2797 16.0459 19.5062 15.3333 21.999 15.3333C26.4173 15.3333 29.999 17.5719 29.999 20.3333C29.999 21.2538 29.2528 22 28.3323 22ZM21.999 14C24.2081 14 25.999 12.2091 25.999 10C25.999 7.79086 24.2081 6 21.999 6C19.7898 6 17.999 7.79086 17.999 10C17.999 12.2091 19.7898 14 21.999 14ZM16.25 11.75C16.25 14.3734 14.1234 16.5 11.5 16.5C8.87664 16.5 6.74999 14.3734 6.74999 11.75C6.74999 9.12665 8.87664 7 11.5 7C14.1234 7 16.25 9.12665 16.25 11.75ZM2 24.0209C2 20.7417 6.2533 18.0834 11.5 18.0834C16.7467 18.0834 21 20.7417 21 24.0209C21 25.114 20.1139 26.0001 19.0208 26.0001H3.97916C2.88609 26.0001 2 25.114 2 24.0209Z" fill="black"/>
</svg>
