<svg width="32" height="32" viewBox="0 0 32 32" fill="none" xmlns="http://www.w3.org/2000/svg">
<path d="M16 16C19.3137 16 22 13.3137 22 10C22 6.68629 19.3137 4 16 4C12.6863 4 9.99999 6.68629 9.99999 10C9.99999 13.3137 12.6863 16 16 16ZM16 18C9.37258 18 4 21.3579 4 25.5C4 26.8807 5.11927 28 6.49999 28H16.5121C16.1805 27.0617 16 26.0519 16 25C16 22.3091 17.1809 19.8941 19.0527 18.2448C18.078 18.0851 17.0549 18 16 18ZM32 25C32 28.866 28.866 32 25 32C21.134 32 18 28.866 18 25C18 21.134 21.134 18 25 18C28.866 18 32 21.134 32 25ZM28.7019 22.2878C28.3086 21.9001 27.6754 21.9047 27.2878 22.2981L23.8201 25.8167L22.8298 24.3443C22.5215 23.886 21.9001 23.7644 21.4419 24.0727C20.9836 24.3809 20.862 25.0023 21.1702 25.4606L22.8436 27.9484C23.0112 28.1974 23.2817 28.358 23.5805 28.3859C23.8794 28.4138 24.175 28.3059 24.3856 28.0922L28.7122 23.7019C29.0999 23.3086 29.0953 22.6754 28.7019 22.2878Z" fill="black"/>
</svg>
