<svg width="32" height="32" viewBox="0 0 32 32" fill="none" xmlns="http://www.w3.org/2000/svg">
<path d="M18.5 11.5C18.5 10.1193 17.3807 9 16 9C14.6193 9 13.5 10.1193 13.5 11.5C13.5 12.8807 14.6193 14 16 14C17.3807 14 18.5 12.8807 18.5 11.5ZM20.5 11.5C20.5 13.9853 18.4853 16 16 16C13.5147 16 11.5 13.9853 11.5 11.5C11.5 9.01472 13.5147 7 16 7C18.4853 7 20.5 9.01472 20.5 11.5ZM8.74999 11.75C8.74999 11.0596 8.19035 10.5 7.49999 10.5C6.80964 10.5 6.24999 11.0596 6.24999 11.75C6.24999 12.4404 6.80964 13 7.49999 13C8.19035 13 8.74999 12.4404 8.74999 11.75ZM10.25 11.75C10.25 13.2688 9.01878 14.5 7.49999 14.5C5.98121 14.5 4.74999 13.2688 4.74999 11.75C4.74999 10.2312 5.98121 9 7.49999 9C9.01878 9 10.25 10.2312 10.25 11.75ZM9.84069 17.3248C9.1936 17.0758 8.39354 16.9167 7.5 16.9167C6.21737 16.9167 5.12735 17.2446 4.40591 17.6955C3.94317 17.9847 3.70537 18.2681 3.59185 18.5H7.96005C7.41215 18.9402 6.92444 19.4424 6.53067 20H3.14583C2.513 20 2 19.487 2 18.8542C2 16.9557 4.46243 15.4167 7.5 15.4167C9.16967 15.4167 10.6656 15.8817 11.6742 16.6158C11.0276 16.81 10.4134 17.0476 9.84069 17.3248ZM25 16C23.6083 16 22.2903 16.3159 21.1139 16.8799C20.8572 16.7846 20.5943 16.6964 20.3257 16.6158C21.3344 15.8817 22.8303 15.4167 24.5 15.4167C26.4487 15.4167 28.1606 16.0501 29.1376 17.0054C27.8988 16.363 26.4918 16 25 16ZM16 17.5C17.2172 17.5 18.378 17.651 19.437 17.9247C18.8121 18.4168 18.2539 18.9898 17.7784 19.628C17.2148 19.5451 16.6196 19.5 16 19.5C13.8296 19.5 11.9596 20.0538 10.696 20.8435C9.48966 21.5975 9.0573 22.3968 9.00543 23H16.223C16.0771 23.6432 16 24.3126 16 25H8.87499C7.83946 25 7 24.1605 7 23.125C7 20.0184 11.0294 17.5 16 17.5ZM25.75 11.75C25.75 11.0596 25.1903 10.5 24.5 10.5C23.8096 10.5 23.25 11.0596 23.25 11.75C23.25 12.4404 23.8096 13 24.5 13C25.1903 13 25.75 12.4404 25.75 11.75ZM27.25 11.75C27.25 13.2688 26.0188 14.5 24.5 14.5C22.9812 14.5 21.75 13.2688 21.75 11.75C21.75 10.2312 22.9812 9 24.5 9C26.0188 9 27.25 10.2312 27.25 11.75ZM25 32C28.866 32 32 28.866 32 25C32 21.134 28.866 18 25 18C21.134 18 18 21.134 18 25C18 28.866 21.134 32 25 32ZM25 21C25.5523 21 26 21.4477 26 22V24H28C28.5523 24 29 24.4477 29 25C29 25.5523 28.5523 26 28 26H26V28C26 28.5523 25.5523 29 25 29C24.4477 29 24 28.5523 24 28V26H22C21.4477 26 21 25.5523 21 25C21 24.4477 21.4477 24 22 24H24V22C24 21.4477 24.4477 21 25 21Z" fill="black"/>
</svg>
