<svg width="32" height="32" viewBox="0 0 32 32" fill="none" xmlns="http://www.w3.org/2000/svg">
<path d="M20 10C20 7.79086 18.2091 6 16 6C13.7908 6 12 7.79086 12 10C12 12.2091 13.7908 14 16 14C18.2091 14 20 12.2091 20 10ZM22 10C22 13.3137 19.3137 16 16 16C12.6863 16 9.99999 13.3137 9.99999 10C9.99999 6.68629 12.6863 4 16 4C19.3137 4 22 6.68629 22 10ZM6 25.5C6 24.3673 6.7401 23.0393 8.57471 21.8927C10.3811 20.7637 13.0012 20 16 20C16.5027 20 16.9947 20.0215 17.4741 20.0625C17.9175 19.388 18.4492 18.7766 19.0527 18.2448C18.078 18.0851 17.0549 18 16 18C9.37258 18 4 21.3579 4 25.5C4 26.8807 5.11927 28 6.49999 28H16.5121C16.287 27.3632 16.1316 26.6935 16.0549 26H6.49999C6.22386 26 6 25.7762 6 25.5ZM32 25C32 28.866 28.866 32 25 32C21.134 32 18 28.866 18 25C18 21.134 21.134 18 25 18C28.866 18 32 21.134 32 25ZM28 24H22C21.4477 24 21 24.4477 21 25C21 25.5523 21.4477 26 22 26H28C28.5523 26 29 25.5523 29 25C29 24.4477 28.5523 24 28 24Z" fill="black"/>
</svg>
