<svg width="32" height="32" viewBox="0 0 32 32" fill="none" xmlns="http://www.w3.org/2000/svg">
<path d="M25 16C25.4094 16 25.8125 16.0273 26.2074 16.0803C24.9849 15.6067 23.5429 15.3333 21.9988 15.3333C19.5061 15.3333 17.2796 16.0459 15.8124 17.1629C16.6594 17.4019 17.4557 17.7107 18.1835 18.0819C18.7119 17.8475 19.319 17.6551 19.9874 17.524C21.42 16.5616 23.1444 16 25 16ZM11.5 18.0834C13.9228 18.0834 16.1338 18.6503 17.8119 19.5833C17.4111 20.1143 17.0678 20.6911 16.7913 21.3045C15.4554 20.5746 13.6084 20.0834 11.5 20.0834C9.19153 20.0834 7.1965 20.6722 5.84249 21.5185C4.47392 22.3738 4.00918 23.3012 4.00013 24.0001H16.0549C16.0186 24.3284 16 24.662 16 25C16 25.338 16.0186 25.6717 16.0549 26.0001H3.97916C2.88609 26.0001 2 25.114 2 24.0209C2 20.7417 6.2533 18.0834 11.5 18.0834ZM23.9988 10C23.9988 8.89543 23.1034 8 21.9988 8C20.8943 8 19.9988 8.89543 19.9988 10C19.9988 11.1046 20.8943 12 21.9988 12C23.1034 12 23.9988 11.1046 23.9988 10ZM25.9988 10C25.9988 12.2091 24.208 14 21.9988 14C19.7897 14 17.9988 12.2091 17.9988 10C17.9988 7.79086 19.7897 6 21.9988 6C24.208 6 25.9988 7.79086 25.9988 10ZM11.5 14.5C9.98121 14.5 8.74999 13.2688 8.74999 11.75C8.74999 10.2312 9.98121 9 11.5 9C13.0188 9 14.25 10.2312 14.25 11.75C14.25 13.2688 13.0188 14.5 11.5 14.5ZM11.5 16.5C14.1234 16.5 16.25 14.3734 16.25 11.75C16.25 9.12665 14.1234 7 11.5 7C8.87664 7 6.74999 9.12665 6.74999 11.75C6.74999 14.3734 8.87664 16.5 11.5 16.5ZM32 25C32 28.866 28.866 32 25 32C21.134 32 18 28.866 18 25C18 21.134 21.134 18 25 18C28.866 18 32 21.134 32 25ZM28 24H22C21.4477 24 21 24.4477 21 25C21 25.5523 21.4477 26 22 26H28C28.5523 26 29 25.5523 29 25C29 24.4477 28.5523 24 28 24Z" fill="black"/>
</svg>
