<svg width="32" height="32" viewBox="0 0 32 32" fill="none" xmlns="http://www.w3.org/2000/svg">
<path d="M20.5 11.5C20.5 13.9853 18.4853 16 16 16C13.5147 16 11.5 13.9853 11.5 11.5C11.5 9.01472 13.5147 7 16 7C18.4853 7 20.5 9.01472 20.5 11.5ZM7.49999 14.5C9.01878 14.5 10.25 13.2688 10.25 11.75C10.25 10.2312 9.01878 9 7.49999 9C5.98121 9 4.74999 10.2312 4.74999 11.75C4.74999 13.2688 5.98121 14.5 7.49999 14.5ZM7.5 15.4167C4.46243 15.4167 2 16.9557 2 18.8542C2 19.487 2.513 20 3.14583 20H6.53068C7.12533 19.1579 7.9342 18.4423 8.84105 17.8755C9.67617 17.3536 10.6331 16.9285 11.6743 16.6158C10.6656 15.8817 9.16967 15.4167 7.5 15.4167ZM12.7725 17.8725C11.0259 18.292 9.54155 19.042 8.51556 20C7.55829 20.8938 7.00002 21.9687 7.00002 23.125C7.00002 24.1605 7.83947 25 8.875 25H16C16 22.1294 17.344 19.5727 19.437 17.9247C19.3676 17.9068 19.2978 17.8894 19.2275 17.8725C18.2256 17.6319 17.1375 17.5 16 17.5C14.8625 17.5 13.7744 17.6319 12.7725 17.8725ZM24.5 15.4167C26.4487 15.4167 28.1606 16.0501 29.1376 17.0054C27.8988 16.363 26.4918 16 25 16C23.6083 16 22.2903 16.3159 21.1139 16.8799C20.8572 16.7846 20.5943 16.6964 20.3257 16.6158C21.3344 15.8817 22.8303 15.4167 24.5 15.4167ZM24.5 14.5C26.0188 14.5 27.25 13.2688 27.25 11.75C27.25 10.2312 26.0188 9 24.5 9C22.9812 9 21.75 10.2312 21.75 11.75C21.75 13.2688 22.9812 14.5 24.5 14.5ZM32 25C32 28.866 28.866 32 25 32C21.134 32 18 28.866 18 25C18 21.134 21.134 18 25 18C28.866 18 32 21.134 32 25ZM28 24H22C21.4477 24 21 24.4477 21 25C21 25.5523 21.4477 26 22 26H28C28.5523 26 29 25.5523 29 25C29 24.4477 28.5523 24 28 24Z" fill="black"/>
</svg>
