<svg width="32" height="32" viewBox="0 0 32 32" fill="none" xmlns="http://www.w3.org/2000/svg">
<path d="M25 16C25.4095 16 25.8125 16.0273 26.2075 16.0803C24.9849 15.6067 23.543 15.3333 21.9989 15.3333C19.5061 15.3333 17.2796 16.0459 15.8124 17.1629C16.9202 17.4755 17.9413 17.9075 18.8358 18.4424C20.4463 16.9279 22.6148 16 25 16ZM16 25C16 22.9664 16.6745 21.0904 17.8119 19.5833C16.1338 18.6503 13.9228 18.0834 11.5 18.0834C6.2533 18.0834 2 20.7417 2 24.0209C2 25.114 2.88609 26.0001 3.97916 26.0001H16.0549C16.0186 25.6717 16 25.338 16 25ZM21.9988 14C24.208 14 25.9989 12.2091 25.9989 10C25.9989 7.79086 24.208 6 21.9988 6C19.7897 6 17.9988 7.79086 17.9988 10C17.9988 12.2091 19.7897 14 21.9988 14ZM16.25 11.75C16.25 14.3734 14.1234 16.5 11.5 16.5C8.87664 16.5 6.74999 14.3734 6.74999 11.75C6.74999 9.12665 8.87664 7 11.5 7C14.1234 7 16.25 9.12665 16.25 11.75ZM32 25C32 28.866 28.866 32 25 32C21.134 32 18 28.866 18 25C18 21.134 21.134 18 25 18C28.866 18 32 21.134 32 25ZM28 24H22C21.4477 24 21 24.4477 21 25C21 25.5523 21.4477 26 22 26H28C28.5523 26 29 25.5523 29 25C29 24.4477 28.5523 24 28 24Z" fill="black"/>
</svg>
