<svg width="32" height="32" viewBox="0 0 32 32" fill="none" xmlns="http://www.w3.org/2000/svg">
<path d="M16.9214 21.0285C16.6201 21.0097 16.3127 21 16 21C13.5387 21 11.4073 21.6027 9.95792 22.4723C8.50831 23.3421 8.02564 24.2709 8.001 24.9453C10.1239 26.8449 12.9271 28 16 28C16.1703 28 16.3398 27.9965 16.5084 27.9894C16.7502 28.6764 17.073 29.3251 17.4654 29.9242C16.9838 29.9743 16.4949 30 16 30C12.6173 30 9.51473 28.8003 7.0947 26.8031C6.75439 26.5222 6.42758 26.2256 6.11538 25.9143C3.57314 23.3797 2 19.8736 2 16C2 8.26801 8.26801 2 16 2C23.732 2 30 8.26801 30 16C30 16.4949 29.9743 16.9838 29.9242 17.4654C29.3251 17.073 28.6764 16.7502 27.9894 16.5084C27.9965 16.3398 28 16.1703 28 16C28 9.37258 22.6274 4 16 4C9.37258 4 4 9.37258 4 16C4 18.7222 4.90645 21.2327 6.43398 23.2462C7.68425 20.7881 11.4941 19 16 19C16.7444 19 17.4698 19.0488 18.1678 19.1414C17.6774 19.7127 17.2575 20.3462 16.9214 21.0285ZM16 15C14.3431 15 13 13.6569 13 12C13 10.3431 14.3431 9 16 9C17.6569 9 19 10.3431 19 12C19 13.6569 17.6569 15 16 15ZM16 17C18.7614 17 21 14.7614 21 12C21 9.23858 18.7614 7 16 7C13.2386 7 11 9.23858 11 12C11 14.7614 13.2386 17 16 17ZM32 25C32 28.866 28.866 32 25 32C21.134 32 18 28.866 18 25C18 21.134 21.134 18 25 18C28.866 18 32 21.134 32 25ZM28 24H22C21.4477 24 21 24.4477 21 25C21 25.5523 21.4477 26 22 26H28C28.5523 26 29 25.5523 29 25C29 24.4477 28.5523 24 28 24Z" fill="black"/>
</svg>
