<svg width="32" height="32" viewBox="0 0 32 32" fill="none" xmlns="http://www.w3.org/2000/svg">
<path d="M25.566 23.2462C27.0936 21.2327 28 18.7222 28 16C28 9.37258 22.6274 4 16 4C9.37258 4 4 9.37258 4 16C4 18.7222 4.90645 21.2327 6.43398 23.2462C7.68425 20.7881 11.4941 19 16 19C20.5059 19 24.3157 20.7881 25.566 23.2462ZM23.999 24.9453C23.9744 24.2709 23.4917 23.3421 22.0421 22.4723C20.5927 21.6027 18.4613 21 16 21C13.5387 21 11.4073 21.6027 9.95792 22.4723C8.50831 23.3421 8.02564 24.2709 8.001 24.9453C10.1239 26.8449 12.9271 28 16 28C19.0729 28 21.8761 26.8449 23.999 24.9453ZM6.11538 25.9143C3.57314 23.3797 2 19.8736 2 16C2 8.26801 8.26801 2 16 2C23.732 2 30 8.26801 30 16C30 19.8736 28.4269 23.3797 25.8846 25.9143C23.3523 28.4391 19.8584 30 16 30C12.6173 30 9.51473 28.8003 7.0947 26.8031C6.75439 26.5222 6.42758 26.2256 6.11538 25.9143ZM16 15C14.3431 15 13 13.6569 13 12C13 10.3431 14.3431 9 16 9C17.6569 9 19 10.3431 19 12C19 13.6569 17.6569 15 16 15ZM16 17C18.7614 17 21 14.7614 21 12C21 9.23858 18.7614 7 16 7C13.2386 7 11 9.23858 11 12C11 14.7614 13.2386 17 16 17Z" fill="black"/>
</svg>
