<svg width="32" height="32" viewBox="0 0 32 32" fill="none" xmlns="http://www.w3.org/2000/svg">
<path d="M30 16C30 16.4949 29.9743 16.9838 29.9242 17.4654C28.5093 16.5388 26.8176 16 25 16C22.2669 16 19.8184 17.2183 18.1678 19.1414C17.4698 19.0488 16.7444 19 16 19C11.4941 19 7.68425 20.7881 6.43398 23.2462C8.62531 26.1346 12.0948 28 16 28C16.1703 28 16.3398 27.9965 16.5084 27.9894C16.7502 28.6764 17.073 29.3251 17.4654 29.9242C16.9838 29.9743 16.4949 30 16 30C8.26801 30 2 23.732 2 16C2 8.26801 8.26801 2 16 2C23.732 2 30 8.26801 30 16ZM21 12C21 9.23858 18.7614 7 16 7C13.2386 7 11 9.23858 11 12C11 14.7614 13.2386 17 16 17C18.7614 17 21 14.7614 21 12ZM32 25C32 28.866 28.866 32 25 32C21.134 32 18 28.866 18 25C18 21.134 21.134 18 25 18C28.866 18 32 21.134 32 25ZM22.1716 23.5858L26.4142 27.8284C26.8047 28.2189 27.4379 28.2189 27.8284 27.8284C28.2189 27.4379 28.2189 26.8047 27.8284 26.4142L23.5858 22.1716C23.1953 21.781 22.5621 21.781 22.1716 22.1716C21.781 22.5621 21.781 23.1952 22.1716 23.5858Z" fill="black"/>
</svg>
