<svg width="32" height="32" viewBox="0 0 32 32" fill="none" xmlns="http://www.w3.org/2000/svg">
<path d="M18.5 11.5C18.5 10.1193 17.3807 9 16 9C14.6193 9 13.5 10.1193 13.5 11.5C13.5 12.8807 14.6193 14 16 14C17.3807 14 18.5 12.8807 18.5 11.5ZM20.5 11.5C20.5 13.9853 18.4853 16 16 16C13.5147 16 11.5 13.9853 11.5 11.5C11.5 9.01472 13.5147 7 16 7C18.4853 7 20.5 9.01472 20.5 11.5ZM8.74999 11.75C8.74999 11.0596 8.19035 10.5 7.49999 10.5C6.80964 10.5 6.24999 11.0596 6.24999 11.75C6.24999 12.4404 6.80964 13 7.49999 13C8.19035 13 8.74999 12.4404 8.74999 11.75ZM10.25 11.75C10.25 13.2688 9.01878 14.5 7.49999 14.5C5.98121 14.5 4.74999 13.2688 4.74999 11.75C4.74999 10.2312 5.98121 9 7.49999 9C9.01878 9 10.25 10.2312 10.25 11.75ZM12.7725 17.8725C12.2586 17.9959 11.7675 18.148 11.304 18.3255C11.1586 18.3812 11.0159 18.4394 10.8761 18.5C9.94691 18.9029 9.14498 19.4123 8.51555 20C7.55827 20.8938 7 21.9687 7 23.125C7 24.1605 7.83946 25 8.87499 25H23.125C24.1605 25 25 24.1605 25 23.125C25 21.9687 24.4417 20.8938 23.4844 20C22.855 19.4123 22.0531 18.9029 21.1239 18.5C20.9841 18.4394 20.8414 18.3812 20.696 18.3255C20.2325 18.148 19.7414 17.9959 19.2275 17.8725C18.2256 17.6319 17.1375 17.5 16 17.5C14.8625 17.5 13.7744 17.6319 12.7725 17.8725ZM7.96005 18.5H3.59185C3.70537 18.2681 3.94317 17.9847 4.40591 17.6955C5.12735 17.2446 6.21737 16.9167 7.5 16.9167C8.39354 16.9167 9.1936 17.0758 9.84069 17.3248C10.4134 17.0476 11.0276 16.81 11.6742 16.6158C10.6656 15.8817 9.16967 15.4167 7.5 15.4167C4.46243 15.4167 2 16.9557 2 18.8542C2 19.487 2.513 20 3.14583 20H6.53067C6.92444 19.4424 7.41215 18.9402 7.96005 18.5ZM25.4693 20H28.8542C29.487 20 30 19.487 30 18.8542C30 16.9557 27.5376 15.4167 24.5 15.4167C22.8303 15.4167 21.3344 15.8817 20.3257 16.6158C20.9724 16.81 21.5866 17.0476 22.1593 17.3248C22.8064 17.0758 23.6065 16.9167 24.5 16.9167C25.7826 16.9167 26.8726 17.2446 27.5941 17.6955C28.0568 17.9847 28.2946 18.2681 28.4081 18.5H24.0399C24.5878 18.9402 25.0755 19.4424 25.4693 20ZM25.75 11.75C25.75 11.0596 25.1903 10.5 24.5 10.5C23.8096 10.5 23.25 11.0596 23.25 11.75C23.25 12.4404 23.8096 13 24.5 13C25.1903 13 25.75 12.4404 25.75 11.75ZM27.25 11.75C27.25 13.2688 26.0188 14.5 24.5 14.5C22.9812 14.5 21.75 13.2688 21.75 11.75C21.75 10.2312 22.9812 9 24.5 9C26.0188 9 27.25 10.2312 27.25 11.75ZM22.9946 23H9.00543C9.0573 22.3968 9.48966 21.5975 10.696 20.8435C11.9596 20.0538 13.8296 19.5 16 19.5C18.1704 19.5 20.0404 20.0538 21.304 20.8435C22.5103 21.5975 22.9427 22.3968 22.9946 23Z" fill="black"/>
</svg>
