<svg width="32" height="32" viewBox="0 0 32 32" fill="none" xmlns="http://www.w3.org/2000/svg">
<path d="M16 16C19.3137 16 22 13.3137 22 10C22 6.68629 19.3137 4 16 4C12.6863 4 10 6.68629 10 10C10 13.3137 12.6863 16 16 16ZM4 25.5C4 22.5452 6.73384 19.9896 10.7069 18.7672L14 27L15.0476 21.4127L13.4543 18.7572C13.2544 18.424 13.4944 18 13.8831 18H18.1169C18.5056 18 18.7456 18.424 18.5457 18.7572L16.9524 21.4127L18 27L21.2931 18.7672C25.2661 19.9896 28 22.5452 28 25.5C28 26.8807 26.8807 28 25.5 28H6.49999C5.11927 28 4 26.8807 4 25.5Z" fill="black"/>
</svg>
