<svg width="32" height="32" viewBox="0 0 32 32" fill="none" xmlns="http://www.w3.org/2000/svg">
<path d="M27 8H5C4.44771 8 4 8.44772 4 9V22L8.37578 17.6242C8.73239 17.2676 9.29874 17.2323 9.69683 17.542L13.5 20.5L19.9263 14.0737C20.2606 13.7394 20.7835 13.6849 21.1796 13.9432L28 18.3913V9C28 8.44772 27.5523 8 27 8ZM30 23C30 24.6504 28.6673 25.9895 27.0194 25.9999C27.0129 26 27.0065 26 27 26H5C3.7703 26 2.71341 25.2601 2.25019 24.2013C2.08928 23.8335 2 23.4272 2 23V9C2 7.34315 3.34315 6 5 6H27C28.6569 6 30 7.34315 30 9V23ZM14 12.5C14 13.8807 12.8807 15 11.5 15C10.1193 15 9 13.8807 9 12.5C9 11.1193 10.1193 10 11.5 10C12.8807 10 14 11.1193 14 12.5Z" fill="black"/>
</svg>
