<svg width="32" height="32" viewBox="0 0 32 32" fill="none" xmlns="http://www.w3.org/2000/svg">
<path d="M5 6C3.34315 6 2 7.34315 2 9V23C2 24.6569 3.34315 26 5 26H27C28.6569 26 30 24.6569 30 23V9C30 7.34315 28.6569 6 27 6H5ZM11.5 15C10.1193 15 9 13.8807 9 12.5C9 11.1193 10.1193 10 11.5 10C12.8807 10 14 11.1193 14 12.5C14 13.8807 12.8807 15 11.5 15ZM28 18.3913V23C28 23.5523 27.5523 24 27 24H5C4.44772 24 4 23.5523 4 23V22L8.37578 17.6242C8.73239 17.2676 9.29874 17.2323 9.69683 17.542L13.5 20.5L19.9263 14.0737C20.2606 13.7394 20.7835 13.6849 21.1796 13.9432L28 18.3913Z" fill="black"/>
</svg>
