<svg width="32" height="32" viewBox="0 0 32 32" fill="none" xmlns="http://www.w3.org/2000/svg">
<path d="M22.3698 9.49999H7.94727L8.25757 7.74018C8.54528 6.10849 10.1013 5.01899 11.7329 5.3067L27.4899 8.08507C29.1215 8.37278 30.211 9.92875 29.9233 11.5604L28.1869 21.4085C27.9462 22.7735 26.8179 23.7591 25.5002 23.8763V12.6765C25.5002 10.9221 24.0986 9.49999 22.3698 9.49999ZM2 14V24C2 25.6569 3.34315 27 5 27H21C22.6569 27 24 25.6569 24 24V14C24 12.3431 22.6569 11 21 11H5C3.34315 11 2 12.3431 2 14ZM4 24V23L7.29292 19.7071C7.68345 19.3166 8.31661 19.3166 8.70714 19.7071L10.2929 21.2929C10.6834 21.6834 11.3166 21.6834 11.7071 21.2929L16.2929 16.7071C16.6834 16.3166 17.3166 16.3166 17.7071 16.7071L22 20.9999V24C22 24.5497 21.5564 24.9959 21.0076 25H4.99236C4.44359 24.9959 4 24.5497 4 24ZM8 15.5C8 16.3284 7.32843 17 6.5 17C5.67157 17 5 16.3284 5 15.5C5 14.6716 5.67157 14 6.5 14C7.32843 14 8 14.6716 8 15.5Z" fill="black"/>
</svg>
