<svg width="32" height="32" viewBox="0 0 32 32" fill="none" xmlns="http://www.w3.org/2000/svg">
<path d="M11.7219 11.7897L20.2072 20.275L25.8796 14.6026C28.2227 12.2595 28.2227 8.46049 25.8796 6.11735C23.5364 3.7742 19.7374 3.7742 17.3943 6.11734L11.7219 11.7897ZM16.0167 27.2939C12.8925 30.4181 7.8272 30.4181 4.70301 27.2939C1.57881 24.1697 1.57881 19.1044 4.70301 15.9802L15.9801 4.70313C16.1901 4.4931 16.4089 4.29718 16.6353 4.11539C19.6319 1.70925 23.9586 1.77669 26.8806 4.31771C27.0217 4.44042 27.1595 4.56889 27.2938 4.70313C27.4356 4.845 27.5711 4.99088 27.7001 5.14039C30.4115 8.28336 30.2761 13.0345 27.2938 16.0168L16.0167 27.2939Z" fill="black"/>
</svg>
