<svg width="32" height="32" viewBox="0 0 32 32" fill="none" xmlns="http://www.w3.org/2000/svg">
<path d="M7 3C7 2.44772 7.44772 2 8 2H24C24.5523 2 25 2.44772 25 3C25 3.55228 24.5523 4 24 4H22V15.3414C23.7048 15.944 25.056 17.2952 25.6586 19C25.8796 19.6255 26 20.2988 26 21H17V26.1115C17 27.3534 16.7108 28.5783 16.1554 29.6892L16 30L15.8446 29.6892C15.2892 28.5783 15 27.3534 15 26.1115V21H6C6 20.2988 6.12036 19.6255 6.34143 19C6.94395 17.2952 8.29516 15.944 10 15.3414V4H8C7.44772 4 7 3.55228 7 3Z" fill="black"/>
</svg>
