<svg width="32" height="32" viewBox="0 0 32 32" fill="none" xmlns="http://www.w3.org/2000/svg">
<path d="M8 2C7.44772 2 7 2.44772 7 3C7 3.55228 7.44772 4 8 4H10V15.3414C8.29517 15.944 6.94398 17.2952 6.34141 19C6.12031 19.6256 6 20.2987 6 21H15V26.1115C15 27.3534 15.2892 28.5783 15.8446 29.6892L16 30L16.1554 29.6892C16.7108 28.5783 17 27.3534 17 26.1115V21H26C26 20.2987 25.8797 19.6256 25.6586 19C25.056 17.2952 23.7048 15.944 22 15.3414V4H24C24.5523 4 25 3.55228 25 3C25 2.44772 24.5523 2 24 2H8ZM20 4V15H12V4H20ZM8.53513 19C9.22675 17.8044 10.5194 17 12 17H20C21.4806 17 22.7733 17.8044 23.4649 19H8.53513Z" fill="black"/>
</svg>
