<svg width="32" height="32" viewBox="0 0 32 32" fill="none" xmlns="http://www.w3.org/2000/svg">
<path d="M28 16C28 9.37258 22.6274 4 16 4C9.37258 4 4 9.37258 4 16C4 22.6274 9.37258 28 16 28C22.6274 28 28 22.6274 28 16ZM30 16C30 23.732 23.732 30 16 30C8.26801 30 2 23.732 2 16C2 8.26801 8.26801 2 16 2C23.732 2 30 8.26801 30 16ZM13.501 21.131C12.8344 21.5169 12 21.0359 12 20.2656V11.7344C12 10.9641 12.8344 10.4831 13.501 10.869L20.8688 15.1346C21.5341 15.5197 21.5341 16.4803 20.8688 16.8654L13.501 21.131Z" fill="black"/>
</svg>
