<svg width="32" height="32" viewBox="0 0 32 32" fill="none" xmlns="http://www.w3.org/2000/svg">
<path d="M25 6C25.5523 6 26 6.44772 26 7V25C26 25.5523 25.5523 26 25 26H7C6.44772 26 6 25.5523 6 25V7C6 6.44772 6.44772 6 7 6H25ZM7 4C5.34315 4 4 5.34315 4 7V25C4 26.6569 5.34315 28 7 28H25C26.6569 28 28 26.6569 28 25V7C28 5.34315 26.6569 4 25 4H7ZM9 16C9 15.4477 9.44772 15 10 15H15V10C15 9.44772 15.4477 9 16 9C16.5523 9 17 9.44772 17 10V15H22C22.5523 15 23 15.4477 23 16C23 16.5523 22.5523 17 22 17H17V22C17 22.5523 16.5523 23 16 23C15.4477 23 15 22.5523 15 22V17H10C9.44772 17 9 16.5523 9 16Z" fill="black"/>
</svg>
