<svg width="32" height="32" viewBox="0 0 32 32" fill="none" xmlns="http://www.w3.org/2000/svg">
<path d="M16 14C15.4485 14 15 13.5515 15 13H14C14 14.103 14.897 15 16 15C17.103 15 18 14.103 18 13H17C17 13.5515 16.5515 14 16 14Z" fill="black"/>
<path d="M24.107 19.342L23.5 19.1395V8C23.5 3.8645 20.1355 0.5 16 0.5C11.8645 0.5 8.5 3.8645 8.5 8V19.1395L7.893 19.342C6.4615 19.819 5.5 21.1535 5.5 22.6625V27C5.5 28.3785 6.6215 29.5 8 29.5H8.5V31.5H26.5V22.6625C26.5 21.1535 25.5385 19.819 24.107 19.342ZM25.5 22.6625V25.5H23.5V22.5H22.5V30.5H17.722C17.894 30.2045 18 29.866 18 29.5V24.5H19V21.5H18.207L18.525 21.182C19.146 20.561 19.49 19.7375 19.4985 18.86L23.7905 20.2905C24.813 20.6315 25.5 21.5845 25.5 22.6625ZM15 29.5V29.429C15.86 29.2055 16.5 28.429 16.5 27.5C16.5 26.571 15.86 25.7945 15 25.571V24.5H17V29.5C17 30.0515 16.5515 30.5 16 30.5C15.4485 30.5 15 30.0515 15 29.5ZM14.182 20.475C13.742 20.035 13.5 19.4505 13.5 18.8285C13.5 17.5445 14.5445 16.5 15.8285 16.5H16.172C17.4555 16.5 18.5 17.5445 18.5 18.8285C18.5 19.4505 18.258 20.0355 17.818 20.475L16.793 21.5H15.207L14.182 20.475ZM17.972 16.033C17.4525 15.6975 16.835 15.5 16.1715 15.5H15.828C15.1645 15.5 14.547 15.6975 14.0275 16.0335C12.4885 15.28 11.5 13.729 11.5 12V8.5H12C13.514 8.5 14.9685 7.864 16 6.774C17.0315 7.864 18.486 8.5 20 8.5H20.5V12C20.5 13.7305 19.512 15.28 17.972 16.033ZM14 23.5V22.5H18V23.5H14ZM19.315 17.7445C19.1895 17.381 19.004 17.0455 18.768 16.751C20.018 16.024 20.919 14.8435 21.298 13.4695C21.7465 13.4155 22.1565 13.247 22.5 12.987V18.806L19.315 17.7445ZM21.5 12V9.592C22.0805 9.799 22.5 10.349 22.5 11C22.5 11.6565 22.0735 12.21 21.4845 12.4125C21.495 12.276 21.5 12.1385 21.5 12ZM16 1.5C19.584 1.5 22.5 4.416 22.5 8V9.013C22.208 8.792 21.8715 8.6265 21.5 8.551V7.5H20C18.591 7.5 17.2455 6.827 16.4 5.7L16 5.1665L15.6 5.7C14.7545 6.827 13.409 7.5 12 7.5H10.5V8.5505C10.1285 8.6265 9.792 8.7915 9.5 9.0125V8C9.5 4.416 12.416 1.5 16 1.5ZM10.5155 12.4125C9.9265 12.21 9.5 11.6565 9.5 11C9.5 10.349 9.9195 9.799 10.5 9.592V12C10.5 12.1385 10.505 12.276 10.5155 12.4125ZM9.5 12.987C9.8435 13.247 10.2535 13.4155 10.702 13.4695C11.0815 14.8425 11.9825 16.0235 13.232 16.7505C12.996 17.045 12.8105 17.3805 12.6845 17.744L9.5 18.806V12.987ZM8.2095 20.2905L12.5015 18.86C12.5095 19.737 12.8535 20.5605 13.475 21.182L13.793 21.5H13V24.5H14V25.5H9.5V22.5H8.5V24.5H6.5V22.6625C6.5 21.5845 7.187 20.6315 8.2095 20.2905ZM6.5 27V25.5H8.5V26.5H14.5C15.0515 26.5 15.5 26.9485 15.5 27.5C15.5 28.0515 15.0515 28.5 14.5 28.5H8C7.173 28.5 6.5 27.827 6.5 27ZM9.5 29.5H14C14 29.866 14.106 30.2045 14.278 30.5H9.5V29.5ZM23.5 30.5V26.5H25.5V30.5H23.5Z" fill="black"/>
<path d="M13.5 11C13.7761 11 14 10.7761 14 10.5C14 10.2239 13.7761 10 13.5 10C13.2239 10 13 10.2239 13 10.5C13 10.7761 13.2239 11 13.5 11Z" fill="black"/>
<path d="M18.5 11C18.7761 11 19 10.7761 19 10.5C19 10.2239 18.7761 10 18.5 10C18.2239 10 18 10.2239 18 10.5C18 10.7761 18.2239 11 18.5 11Z" fill="black"/>
</svg>
