<svg width="32" height="32" viewBox="0 0 32 32" fill="none" xmlns="http://www.w3.org/2000/svg">
<path d="M9 6H23C23.5523 6 24 6.44772 24 7V10H8V7C8 6.44772 8.44772 6 9 6ZM6 7V10H5C3.34315 10 2 11.3431 2 13V21C2 22.6569 3.34315 24 5 24H6V25C6 26.6569 7.34315 28 9 28H23C24.6569 28 26 26.6569 26 25V24H27C28.6569 24 30 22.6569 30 21V13C30 11.3431 28.6569 10 27 10H26V7C26 5.34315 24.6569 4 23 4H9C7.34315 4 6 5.34315 6 7ZM26 22V16H6V22H5C4.44772 22 4 21.5523 4 21V13C4 12.4477 4.44772 12 5 12H27C27.5523 12 28 12.4477 28 13V21C28 21.5523 27.5523 22 27 22H26ZM8 25V18H24V25C24 25.5523 23.5523 26 23 26H9C8.44772 26 8 25.5523 8 25Z" fill="black"/>
</svg>
