<svg width="32" height="32" viewBox="0 0 32 32" fill="none" xmlns="http://www.w3.org/2000/svg">
<g clip-path="url(#clip0_542_294)">
<path d="M6.6248 31.7H31.6998V28L28.8248 22.575L27.1248 23.475L29.7748 28.475V29.775H25.5248L26.5248 17.775H5.1748L6.6248 31.7ZM24.4498 19.7L23.5998 29.775H8.3498L7.2998 19.7H24.4498Z" fill="black"/>
<path d="M22.6998 9.50005C22.6998 5.80005 19.6998 2.80005 15.9998 2.80005C12.2998 2.80005 9.2998 5.80005 9.2998 9.50005C9.2998 13.2 12.2998 16.2 15.9998 16.2C19.6998 16.2 22.6998 13.2 22.6998 9.50005ZM11.1998 9.50005C11.1998 6.85005 13.3498 4.70005 15.9998 4.70005C18.6498 4.70005 20.7998 6.85005 20.7998 9.50005C20.7998 12.15 18.6498 14.3 15.9998 14.3C13.3498 14.3 11.1998 12.15 11.1998 9.50005Z" fill="black"/>
<path d="M4.8499 23.5001L3.1499 22.6001L0.274902 28.0001V31.7001H4.4999V29.8001H2.1999V28.5001L4.8499 23.5001Z" fill="black"/>
<path d="M16.1671 22.7934C16.1406 22.7184 16.0915 22.6534 16.0266 22.6075C15.9616 22.5615 15.884 22.5369 15.8044 22.5369C15.7249 22.5369 15.6472 22.5615 15.5823 22.6075C15.5173 22.6534 15.4682 22.7184 15.4417 22.7934L14.644 25.0493L14.6338 25.0795L14.0492 26.7376C14.0315 26.7854 14.0236 26.8363 14.0257 26.8872C14.0279 26.9381 14.0402 26.9881 14.0619 27.0342C14.0836 27.0804 14.1142 27.1217 14.152 27.1559C14.1898 27.1901 14.234 27.2165 14.2821 27.2334C14.3301 27.2504 14.3811 27.2576 14.432 27.2547C14.4829 27.2518 14.5327 27.2388 14.5785 27.2164C14.6243 27.1941 14.6652 27.1629 14.6989 27.1246C14.7325 27.0863 14.7582 27.0418 14.7745 26.9935L15.0446 26.2293H16.5591L16.8292 26.9946C16.8455 27.0429 16.8712 27.0875 16.9048 27.1258C16.9385 27.164 16.9794 27.1953 17.0252 27.2176C17.071 27.2399 17.1208 27.2529 17.1717 27.2558C17.2226 27.2587 17.2736 27.2515 17.3216 27.2346C17.3697 27.2176 17.4139 27.1913 17.4517 27.1571C17.4895 27.1229 17.5202 27.0815 17.5418 27.0354C17.5635 26.9892 17.5758 26.9393 17.578 26.8883C17.5802 26.8374 17.5722 26.7866 17.5546 26.7387L16.1671 22.7934ZM15.3181 25.459L15.8041 24.0783L16.2907 25.459H15.3181Z" fill="#231F20"/>
<path d="M13.6598 22.5H11.3846C11.2826 22.5 11.1848 22.5405 11.1127 22.6127C11.0405 22.6848 11 22.7826 11 22.8846C11 22.9866 11.0405 23.0845 11.1127 23.1566C11.1848 23.2287 11.2826 23.2692 11.3846 23.2692H12.1385V26.8294C12.1385 26.9314 12.179 27.0292 12.2511 27.1013C12.3232 27.1734 12.4211 27.214 12.5231 27.214C12.6251 27.214 12.7229 27.1734 12.795 27.1013C12.8672 27.0292 12.9077 26.9314 12.9077 26.8294V23.2692H13.6598C13.7618 23.2692 13.8597 23.2287 13.9318 23.1566C14.0039 23.0845 14.0444 22.9866 14.0444 22.8846C14.0444 22.7826 14.0039 22.6848 13.9318 22.6127C13.8597 22.5405 13.7618 22.5 13.6598 22.5Z" fill="#231F20"/>
<path d="M20.9528 22.5542C20.8651 22.5022 20.7603 22.4871 20.6614 22.5122C20.5625 22.5373 20.4776 22.6005 20.4252 22.6881L19.5836 24.1023L18.742 22.6881C18.7162 22.6447 18.682 22.6068 18.6415 22.5766C18.601 22.5464 18.555 22.5244 18.506 22.512C18.4071 22.487 18.3023 22.5022 18.2147 22.5544C18.127 22.6067 18.0637 22.6915 18.0386 22.7904C18.0136 22.8893 18.0288 22.9941 18.081 23.0818L19.1363 24.8544L18.081 26.6282C18.0288 26.7159 18.0136 26.8207 18.0386 26.9196C18.0637 27.0185 18.127 27.1034 18.2147 27.1556C18.3023 27.2078 18.4071 27.2231 18.506 27.198C18.6049 27.1729 18.6898 27.1096 18.742 27.022L19.5836 25.6077L20.4252 27.022C20.4487 27.0697 20.4819 27.112 20.5226 27.1463C20.5632 27.1805 20.6106 27.206 20.6616 27.2211C20.7126 27.2361 20.7662 27.2405 20.8189 27.2338C20.8717 27.2271 20.9225 27.2096 20.9682 27.1823C21.0139 27.1551 21.0534 27.1186 21.0843 27.0753C21.1152 27.032 21.1367 26.9828 21.1477 26.9307C21.1586 26.8787 21.1586 26.8249 21.1477 26.7729C21.1369 26.7208 21.1153 26.6716 21.0845 26.6282L20.0292 24.8556L21.0845 23.0818C21.1367 22.9943 21.1521 22.8897 21.1274 22.7908C21.1028 22.692 21.04 22.6069 20.9528 22.5542Z" fill="#231F20"/>
</g>
<defs>
<clipPath id="clip0_542_294">
<rect width="32" height="32" fill="white"/>
</clipPath>
</defs>
</svg>
