<svg width="32" height="32" viewBox="0 0 32 32" fill="none" xmlns="http://www.w3.org/2000/svg">
<path d="M24.5 4.49998C22.8456 4.49998 21.5 5.84568 21.5 7.49998C21.5 8.65413 22.156 9.65638 23.1138 10.1579C21.3317 14.086 18.9972 18.2654 18.1537 18.4707C17.953 18.519 17.8505 18.4673 17.7768 18.4096C17.5712 18.2475 17.0923 17.5927 17.0923 15.0107C17.0923 12.4394 17.0922 10.5815 15.3452 10.5815C13.6616 10.5815 12.0107 13.518 11.1767 15.2685C10.3556 16.9905 8.9906 20.4004 8.4875 21.6703C8.1777 21.5619 7.84635 21.4999 7.5 21.4999C5.8457 21.4999 4.5 22.8456 4.5 24.4999C4.5 26.1542 5.8457 27.4999 7.5 27.4999C9.1543 27.4999 10.5 26.1542 10.5 24.4999C10.5 23.5527 10.0576 22.7081 9.36995 22.1579C9.82275 21.0145 11.2544 17.4288 12.0791 15.6991C13.2344 13.2748 14.5777 11.5814 15.3452 11.5814C15.9941 11.5814 16.0923 12.3539 16.0923 15.0106C16.0923 17.2938 16.4311 18.6234 17.1592 19.1957C17.5059 19.4676 17.9302 19.5541 18.3901 19.4423C20.0585 19.0365 22.9823 12.8838 24.0735 10.466C24.2132 10.486 24.3549 10.4999 24.5 10.4999C26.1543 10.4999 27.5 9.15418 27.5 7.49988C27.5 5.84558 26.1543 4.49998 24.5 4.49998ZM7.49995 26.5C6.3969 26.5 5.49995 25.603 5.49995 24.5C5.49995 23.3969 6.3969 22.5 7.49995 22.5C8.603 22.5 9.49995 23.3969 9.49995 24.5C9.49995 25.603 8.603 26.5 7.49995 26.5ZM24.5 9.49998C23.3969 9.49998 22.5 8.60303 22.5 7.49998C22.5 6.39693 23.3969 5.49998 24.5 5.49998C25.603 5.49998 26.5 6.39693 26.5 7.49998C26.5 8.60303 25.603 9.49998 24.5 9.49998Z" fill="black"/>
</svg>
