<svg width="32" height="32" viewBox="0 0 32 32" fill="none" xmlns="http://www.w3.org/2000/svg">
<g clip-path="url(#clip0_543_307)">
<path d="M22.8333 15.6666C22.7 15.6666 22.6 15.6666 22.4666 15.7C22.3666 15.3 22.1 14.9333 21.6666 14.7666L18.8333 13.6333L17 9.39996C16.6333 8.39996 15.6666 7.66663 14.5 7.66663C13.9 7.66663 13.3666 7.86663 12.9333 8.16663L8.43329 11.2C8.16663 11.4 7.96663 11.6666 7.86663 12L6.86663 16.3333C6.69996 17.0666 7.13329 17.7666 7.86663 17.9333C7.96663 17.9666 8.06663 17.9666 8.16663 17.9666C8.76663 17.9666 9.33329 17.5333 9.46663 16.9333L10.3333 13.1333L11.1666 12.5666C10.8333 14.8333 10.8 16.6333 10.8 16.9333L10.4666 22.7666L9.16663 28.6666C8.99996 29.4 9.46663 30.1 10.1666 30.2666C10.2666 30.3 10.3666 30.3 10.4666 30.3C11.0666 30.3 11.6333 29.8666 11.7666 29.2666L13.1 23.2666C13.1 23.2 13.1333 23.1333 13.1333 23.0666L13.3 19.8L15.4666 22.2L15.7666 28.4C15.8 29.1 16.4 29.6666 17.1 29.6666C17.1333 29.6666 17.1333 29.6666 17.1666 29.6666C17.9 29.6333 18.4666 29 18.4333 28.2666L18.1 21.6C18.1 21.3 17.9666 21 17.7666 20.7666L15.4333 18.2V12.8C15.4333 12.8 15.4666 12.8 15.4666 12.7666L16.5333 15.2C16.6666 15.5333 16.9333 15.7666 17.2666 15.9L20.5666 17.2333C20.4666 17.4666 20.4333 17.7333 20.4333 18C20.4333 18.7333 20.7666 19.3666 21.3 19.8L21.3333 19.8333C21.4333 19.9333 21.6 20 21.7666 20C22.1333 20 22.4333 19.7 22.4333 19.3333C22.4333 19.1 22.3333 18.9 22.1666 18.8C22 18.6 21.8333 18.3333 21.8333 18C21.8333 17.4333 22.2666 17 22.8333 17C23.4 17 23.8333 17.4333 23.8333 18V20.1V21V29.6666C23.8333 30.0333 24.1333 30.3333 24.5 30.3333C24.8666 30.3333 25.1666 30.0333 25.1666 29.6666V18C25.1666 16.7 24.1333 15.6666 22.8333 15.6666Z" fill="black"/>
<path d="M16.3332 7.33333C17.8059 7.33333 18.9998 6.13943 18.9998 4.66667C18.9998 3.19391 17.8059 2 16.3332 2C14.8604 2 13.6665 3.19391 13.6665 4.66667C13.6665 6.13943 14.8604 7.33333 16.3332 7.33333Z" fill="black"/>
<path d="M15.9997 32C19.6816 32 22.6663 29.0152 22.6663 25.3333C22.6663 21.6514 19.6816 18.6666 15.9997 18.6666C12.3178 18.6666 9.33301 21.6514 9.33301 25.3333C9.33301 29.0152 12.3178 32 15.9997 32Z" fill="black"/>
<path d="M15.8661 20C12.8656 20 10.3994 22.4251 10.3994 25.4667C10.3994 28.5083 12.8245 30.9333 15.8661 30.9333C18.8666 30.9333 21.3327 28.4672 21.3327 25.4667C21.3327 22.4662 18.8666 20 15.8661 20ZM15.8661 25.0556C16.7292 25.0556 17.4691 25.7544 17.4691 26.6586C17.4691 27.3985 16.9759 27.9739 16.3182 28.1794V28.7549C16.3182 29.0015 16.1538 29.1659 15.9072 29.1659C15.7017 29.1659 15.4962 29.0015 15.4962 28.7549V28.1794C14.8385 28.015 14.3042 27.3985 14.3042 26.6586C14.3042 26.412 14.4686 26.2476 14.7152 26.2476C14.9207 26.2476 15.1262 26.412 15.1262 26.6586C15.1262 27.0697 15.4551 27.3985 15.8661 27.3985C16.2771 27.3985 16.647 27.0697 16.647 26.6586C16.647 26.2476 16.3182 25.9188 15.9072 25.8777C15.044 25.8777 14.3042 25.1789 14.3042 24.3158C14.3042 23.5759 14.7974 22.9594 15.4962 22.795V22.2607C15.4962 22.014 15.7017 21.8496 15.9072 21.8496C16.1538 21.8496 16.3182 22.014 16.3182 22.2607V22.795C16.9759 22.9594 17.4691 23.5759 17.4691 24.3158C17.4691 24.5213 17.3047 24.7268 17.0581 24.7268C16.8525 24.7268 16.647 24.5213 16.647 24.3158C16.647 23.9048 16.3182 23.5348 15.8661 23.5348C15.4139 23.5348 15.0851 23.8637 15.0851 24.3158C15.1262 24.6857 15.4551 25.0556 15.8661 25.0556Z" fill="white"/>
</g>
<defs>
<clipPath id="clip0_543_307">
<rect width="32" height="32" fill="white"/>
</clipPath>
</defs>
</svg>
