<svg width="32" height="32" viewBox="0 0 32 32" fill="none" xmlns="http://www.w3.org/2000/svg">
<path d="M26 7C26 6.44772 25.5523 6 25 6L20 6C19.4477 6 19 5.55228 19 5C19 4.44772 19.4477 4 20 4L25 4C26.6569 4 28 5.34315 28 7V12C28 12.5523 27.5523 13 27 13C26.4477 13 26 12.5523 26 12V7ZM6 7C6 6.44772 6.44772 6 7 6H12C12.5523 6 13 5.55228 13 5C13 4.44772 12.5523 4 12 4H7C5.34315 4 4 5.34315 4 7V12C4 12.5523 4.44772 13 5 13C5.55228 13 6 12.5523 6 12V7ZM6 25C6 25.5523 6.44772 26 7 26H12C12.5523 26 13 26.4477 13 27C13 27.5523 12.5523 28 12 28H7C5.34315 28 4 26.6569 4 25V20C4 19.4477 4.44772 19 5 19C5.55228 19 6 19.4477 6 20V25ZM25 26C25.5523 26 26 25.5523 26 25V20C26 19.4477 26.4477 19 27 19C27.5523 19 28 19.4477 28 20V25C28 26.6569 26.6569 28 25 28H20C19.4477 28 19 27.5523 19 27C19 26.4477 19.4477 26 20 26H25ZM10 10H12V12H10V10ZM9 8C8.44772 8 8 8.44772 8 9V13C8 13.5523 8.44772 14 9 14H13C13.5523 14 14 13.5523 14 13V9C14 8.44772 13.5523 8 13 8H9ZM10 22H12V20H10V22ZM8 19C8 18.4477 8.44772 18 9 18H13C13.5523 18 14 18.4477 14 19V23C14 23.5523 13.5523 24 13 24H9C8.44772 24 8 23.5523 8 23V19ZM20 10H22V12H20V10ZM19 8C18.4477 8 18 8.44772 18 9V13C18 13.5523 18.4477 14 19 14H23C23.5523 14 24 13.5523 24 13V9C24 8.44772 23.5523 8 23 8H19ZM18.5 18C18.2239 18 18 18.2239 18 18.5V19.5C18 19.7761 18.2239 20 18.5 20H19.5C19.7761 20 20 19.7761 20 19.5V18.5C20 18.2239 19.7761 18 19.5 18H18.5ZM22 18.5C22 18.2239 22.2239 18 22.5 18H23.5C23.7761 18 24 18.2239 24 18.5V19.5C24 19.7761 23.7761 20 23.5 20H22.5C22.2239 20 22 19.7761 22 19.5V18.5ZM20.5 20C20.2239 20 20 20.2239 20 20.5V21.5C20 21.7761 20.2239 22 20.5 22H21.5C21.7761 22 22 21.7761 22 21.5V20.5C22 20.2239 21.7761 20 21.5 20H20.5ZM18 22.5C18 22.2239 18.2239 22 18.5 22H19.5C19.7761 22 20 22.2239 20 22.5V23.5C20 23.7761 19.7761 24 19.5 24H18.5C18.2239 24 18 23.7761 18 23.5V22.5ZM22.5 22C22.2239 22 22 22.2239 22 22.5V23.5C22 23.7761 22.2239 24 22.5 24H23.5C23.7761 24 24 23.7761 24 23.5V22.5C24 22.2239 23.7761 22 23.5 22H22.5Z" fill="black"/>
</svg>
