<svg width="32" height="32" viewBox="0 0 32 32" fill="none" xmlns="http://www.w3.org/2000/svg">
<path d="M12.18 10.2879C12.6531 9.06076 14.0979 8 15.9999 8C18.423 8 19.9999 9.65394 19.9999 11.25C19.9999 12.3085 19.3516 13.346 18.1796 13.971C16.6354 14.7945 14.4999 16.445 14.4999 19V19.5C14.4999 20.3284 15.1715 21 15.9999 21C16.8283 21 17.4999 20.3284 17.4999 19.5V19C17.4999 18.2413 18.2116 17.3539 19.5912 16.6181C21.5571 15.5698 22.9999 13.6103 22.9999 11.25C22.9999 7.59936 19.6519 5 15.9999 5C13.0421 5 10.3632 6.66096 9.38087 9.20858C9.08283 9.98154 9.46783 10.8498 10.2408 11.1478C11.0138 11.4458 11.882 11.0608 12.18 10.2879ZM15.9999 27C17.1045 27 17.9999 26.1046 17.9999 25C17.9999 23.8954 17.1045 23 15.9999 23C14.8953 23 13.9999 23.8954 13.9999 25C13.9999 26.1046 14.8953 27 15.9999 27Z" fill="black"/>
</svg>
