<svg width="32" height="32" viewBox="0 0 32 32" fill="none" xmlns="http://www.w3.org/2000/svg">
<path d="M16 30C23.732 30 30 23.732 30 16C30 8.26801 23.732 2 16 2C8.26801 2 2 8.26801 2 16C2 23.732 8.26801 30 16 30ZM16 10.25C14.7288 10.25 13.7579 10.945 13.4061 11.7549C13.1311 12.3881 12.3948 12.6785 11.7616 12.4034C11.1284 12.1284 10.838 11.3921 11.1131 10.7589C11.9073 8.9302 13.8535 7.75 16 7.75C18.7374 7.75 21.25 9.72508 21.25 12.5C21.25 14.4954 19.9173 16.105 18.1843 16.8215C17.8775 16.9483 17.6187 17.128 17.4521 17.3153C17.2921 17.495 17.25 17.6393 17.25 17.75C17.2499 18.4404 16.6903 19 15.9999 19C15.3096 19 14.7499 18.4403 14.75 17.75C14.75 16.0305 16.1495 14.9575 17.2291 14.5111C18.207 14.1069 18.75 13.3022 18.75 12.5C18.75 11.4089 17.6807 10.25 16 10.25ZM17.5 22.5C17.5 23.3284 16.8284 24 16 24C15.1715 24 14.5 23.3284 14.5 22.5C14.5 21.6716 15.1715 21 16 21C16.8284 21 17.5 21.6716 17.5 22.5Z" fill="black"/>
</svg>
