<svg width="32" height="32" viewBox="0 0 32 32" fill="none" xmlns="http://www.w3.org/2000/svg">
<path fill-rule="evenodd" clip-rule="evenodd" d="M27.7475 18.7764C27.5795 18.259 27.2882 17.785 26.8828 17.3564C26.4582 16.9084 25.9002 16.5617 25.2082 16.311C24.5155 16.0624 23.6262 15.9364 22.5302 15.9364H21.0428C21.2202 14.1057 21.8722 12.5477 23.0002 11.2597C24.1262 9.9757 25.6875 8.8457 27.6835 7.87637L26.4728 6.00037C23.8448 7.1197 21.5962 8.75703 19.7282 10.9197C17.8608 13.0844 16.9308 15.229 16.9308 17.3564C16.9308 19.6417 17.4702 21.4344 18.5575 22.7284C19.6448 24.0224 21.2022 24.667 23.2268 24.667C24.5115 24.667 25.6275 24.2384 26.5768 23.3817C27.5248 22.5264 28.0002 21.5244 28.0002 20.3817C28.0002 19.8304 27.9168 19.2937 27.7475 18.7764ZM14.1502 18.7764C13.9808 18.259 13.6902 17.785 13.2842 17.3564C12.8608 16.9084 12.3022 16.5617 11.6095 16.311C10.9182 16.0624 10.0288 15.9364 8.93217 15.9364H7.44417C7.62217 14.1057 8.2735 12.5477 9.40084 11.2597C10.5275 9.9757 12.0902 8.8457 14.0848 7.87637L12.8748 6.00037C10.2462 7.1197 7.99883 8.75703 6.13017 10.9197C4.26283 13.0844 3.3335 15.229 3.3335 17.3564C3.3335 19.6417 3.87149 21.4344 4.95949 22.7284C6.04549 24.0224 7.60284 24.667 9.62884 24.667C10.9128 24.667 12.0302 24.2384 12.9795 23.3817C13.9275 22.5264 14.4022 21.5244 14.4022 20.3817C14.4022 19.8304 14.3175 19.2937 14.1502 18.7764Z" fill="black"/>
</svg>
