<svg width="32" height="32" viewBox="0 0 32 32" fill="none" xmlns="http://www.w3.org/2000/svg">
<path d="M18.5711 7.29687C17.2671 5.99306 15.5513 5.18173 13.7162 5.00111C11.8811 4.82049 10.0401 5.28175 8.50689 6.3063C6.97371 7.33085 5.8432 8.8553 5.30798 10.6199C4.77275 12.3845 4.86593 14.2802 5.57163 15.9838C6.27734 17.6874 7.5519 19.0936 9.17817 19.9629C10.8044 20.8321 12.6818 21.1106 14.4904 20.7509C16.299 20.3912 17.9269 19.4155 19.0967 17.9901C20.2666 16.5647 20.906 14.7777 20.9061 12.9337C20.9089 11.8865 20.7039 10.849 20.3031 9.88145C19.9023 8.91388 19.3136 8.03541 18.5711 7.29687ZM9.1961 19.2081V16.4375C9.1961 15.4464 9.5898 14.4959 10.2906 13.7951C10.9914 13.0943 11.9419 12.7006 12.933 12.7006C13.9241 12.7006 14.8745 13.0943 15.5753 13.7951C16.2761 14.4959 16.6698 15.4464 16.6698 16.4375V19.2062C15.539 19.8776 14.2481 20.2318 12.933 20.2318C11.6178 20.2318 10.327 19.8776 9.1961 19.2062V19.2081ZM10.7448 9.80374C10.7448 9.37109 10.8731 8.94816 11.1135 8.58843C11.3539 8.2287 11.6955 7.94832 12.0952 7.78275C12.4949 7.61719 12.9348 7.57387 13.3591 7.65827C13.7834 7.74268 14.1732 7.95102 14.4791 8.25694C14.7851 8.56287 14.9934 8.95265 15.0778 9.37698C15.1622 9.80131 15.1189 10.2411 14.9533 10.6409C14.7878 11.0406 14.5074 11.3822 14.1477 11.6226C13.7879 11.8629 13.365 11.9912 12.9323 11.9912C12.3522 11.9912 11.7958 11.7608 11.3856 11.3505C10.9753 10.9403 10.7448 10.3839 10.7448 9.80374ZM18.0942 18.0956C17.8592 18.3309 17.6086 18.5501 17.3442 18.7519V16.4375C17.3426 15.521 17.0559 14.6277 16.5238 13.8814C15.9918 13.1351 15.2407 12.5728 14.3748 12.2725C14.9177 11.9555 15.3411 11.4685 15.5795 10.8868C15.8179 10.3051 15.8582 9.66113 15.694 9.0543C15.5298 8.44747 15.1703 7.91161 14.6711 7.52953C14.1718 7.14744 13.5607 6.9404 12.932 6.9404C12.3034 6.9404 11.6922 7.14744 11.193 7.52953C10.6938 7.91161 10.3343 8.44747 10.1701 9.0543C10.0059 9.66113 10.0461 10.3051 10.2846 10.8868C10.523 11.4685 10.9463 11.9555 11.4892 12.2725C10.624 12.5735 9.87381 13.136 9.34248 13.8823C8.81115 14.6285 8.52498 15.5214 8.5236 16.4375V18.75C8.25919 18.5483 8.00863 18.329 7.7736 18.0937C6.75219 17.0729 6.05649 15.772 5.77447 14.3558C5.49246 12.9395 5.63681 11.4714 6.18926 10.1371C6.74171 8.80287 7.67745 7.66244 8.87812 6.86006C10.0788 6.05768 11.4904 5.62941 12.9345 5.62941C14.3786 5.62941 15.7903 6.05768 16.9909 6.86006C18.1916 7.66244 19.1274 8.80287 19.6798 10.1371C20.2323 11.4714 20.3766 12.9395 20.0946 14.3558C19.8126 15.772 19.1169 17.0729 18.0955 18.0937L18.0942 18.0956Z" fill="black"/>
<path d="M28.6487 25.7731L21.4462 18.5712L21.4256 18.5531C24.0419 14.6012 23.6131 9.21247 20.1337 5.73435C16.1637 1.7656 9.70436 1.76372 5.73436 5.73435C1.76436 9.70497 1.76561 16.1637 5.73436 20.1331C7.39617 21.7902 9.57851 22.8236 11.9135 23.0591C14.2484 23.2947 16.5932 22.718 18.5525 21.4262C18.5587 21.4331 18.5644 21.44 18.5706 21.4462L25.7731 28.6487C26.1561 29.0213 26.6705 29.2282 27.2048 29.2245C27.7392 29.2208 28.2506 29.0069 28.6284 28.629C29.0063 28.2512 29.2202 27.7398 29.2239 27.2054C29.2276 26.6711 29.0207 26.1567 28.6481 25.7737L28.6487 25.7731ZM6.21123 19.6575C2.49998 15.95 2.49998 9.91747 6.21061 6.20997C7.99536 4.4298 10.4133 3.43009 12.934 3.43009C15.4548 3.43009 17.8727 4.4298 19.6575 6.20997C23.365 9.91747 23.365 15.95 19.6575 19.6575C15.95 23.365 9.91686 23.3656 6.21061 19.6575H6.21123ZM28.1737 28.1731C27.9182 28.4277 27.5722 28.5707 27.2115 28.5707C26.8508 28.5707 26.5049 28.4277 26.2494 28.1731L19.1069 21.0312C19.8309 20.4787 20.4778 19.8319 21.0306 19.1081L28.1725 26.25C28.4269 26.5053 28.5699 26.851 28.57 27.2114C28.5701 27.5718 28.4274 27.9176 28.1731 28.1731H28.1737Z" fill="black"/>
</svg>
