<svg width="32" height="32" viewBox="0 0 32 32" fill="none" xmlns="http://www.w3.org/2000/svg">
<path d="M19 8C19.5523 8 20 8.44772 20 9V11.9091C20 12.4614 20.4477 12.9091 21 12.9091C21.5523 12.9091 22 12.4614 22 11.9091V9C22 7.34315 20.6569 6 19 6H5C3.34315 6 2 7.34315 2 9V23C2 24.6569 3.34314 26 5 26H19C20.6569 26 22 24.6569 22 23V20.0909C22 19.5386 21.5523 19.0909 21 19.0909C20.4477 19.0909 20 19.5386 20 20.0909V23C20 23.5523 19.5523 24 19 24H5C4.44772 24 4 23.5523 4 23L4 9C4 8.44772 4.44772 8 5 8L19 8ZM29.7071 16.7071C29.8946 16.5196 30 16.2652 30 16C30 15.7348 29.8946 15.4804 29.7071 15.2929L25.7071 11.2929C25.3166 10.9024 24.6834 10.9024 24.2929 11.2929C23.9024 11.6834 23.9024 12.3166 24.2929 12.7071L26.5858 15H13C12.4477 15 12 15.4477 12 16C12 16.5523 12.4477 17 13 17H26.5858L24.2929 19.2929C23.9024 19.6834 23.9024 20.3166 24.2929 20.7071C24.6834 21.0976 25.3166 21.0976 25.7071 20.7071L29.7071 16.7071Z" fill="black"/>
</svg>
