<svg width="32" height="32" viewBox="0 0 32 32" fill="none" xmlns="http://www.w3.org/2000/svg">
<path d="M19 4C18.4477 4 18 4.44772 18 5C18 5.55228 18.4477 6 19 6H24.5858L13.2929 17.2929C12.9024 17.6834 12.9024 18.3166 13.2929 18.7071C13.6834 19.0976 14.3166 19.0976 14.7071 18.7071L26 7.41421V13C26 13.5523 26.4477 14 27 14C27.5523 14 28 13.5523 28 13V5C28 4.44772 27.5523 4 27 4H19ZM6 9C6 8.44772 6.44772 8 7 8H14.0909C14.6432 8 15.0909 7.55228 15.0909 7C15.0909 6.44772 14.6432 6 14.0909 6H7C5.34315 6 4 7.34315 4 9V25C4 26.6569 5.34315 28 7 28H23C24.6569 28 26 26.6569 26 25V17.9091C26 17.3568 25.5523 16.9091 25 16.9091C24.4477 16.9091 24 17.3568 24 17.9091V25C24 25.5523 23.5523 26 23 26H7C6.44772 26 6 25.5523 6 25V9Z" fill="black"/>
</svg>
