<svg width="32" height="32" viewBox="0 0 32 32" fill="none" xmlns="http://www.w3.org/2000/svg">
<path d="M16.7071 21.7071C16.5196 21.8946 16.2652 22 16 22C15.7348 22 15.4804 21.8946 15.2929 21.7071L11.2929 17.7071C10.9024 17.3166 10.9024 16.6834 11.2929 16.2929C11.6834 15.9024 12.3166 15.9024 12.7071 16.2929L15 18.5858V5C15 4.44772 15.4477 4 16 4C16.5523 4 17 4.44772 17 5V18.5858L19.2929 16.2929C19.6834 15.9024 20.3166 15.9024 20.7071 16.2929C21.0976 16.6834 21.0976 17.3166 20.7071 17.7071L16.7071 21.7071ZM8 13C8 12.4477 8.44772 12 9 12H11.9091C12.4614 12 12.9091 11.5523 12.9091 11C12.9091 10.4477 12.4614 10 11.9091 10H9C7.34315 10 6 11.3431 6 13V27C6 28.6569 7.34315 30 9 30H23C24.6569 30 26 28.6569 26 27V13C26 11.3431 24.6569 10 23 10H20.0909C19.5386 10 19.0909 10.4477 19.0909 11C19.0909 11.5523 19.5386 12 20.0909 12H23C23.5523 12 24 12.4477 24 13V27C24 27.5523 23.5523 28 23 28H9C8.44772 28 8 27.5523 8 27V13Z" fill="black"/>
</svg>
