<svg width="32" height="32" viewBox="0 0 32 32" fill="none" xmlns="http://www.w3.org/2000/svg">
<path d="M5 8C4.44771 8 4 8.44772 4 9V23C4 23.5523 4.44772 24 5 24H27C27.5523 24 28 23.5523 28 23V9C28 8.44772 27.5523 8 27 8H5ZM2 9C2 7.34315 3.34315 6 5 6H27C28.6569 6 30 7.34315 30 9V23C30 24.6569 28.6569 26 27 26H5C3.34315 26 2 24.6569 2 23V9ZM16.7071 10.2929C16.5196 10.1054 16.2652 10 16 10C15.7348 10 15.4804 10.1054 15.2929 10.2929L11.2929 14.2929C10.9024 14.6834 10.9024 15.3166 11.2929 15.7071C11.6834 16.0976 12.3166 16.0976 12.7071 15.7071L15 13.4142V21C15 21.5523 15.4477 22 16 22C16.5523 22 17 21.5523 17 21V13.4142L19.2929 15.7071C19.6834 16.0976 20.3166 16.0976 20.7071 15.7071C21.0976 15.3166 21.0976 14.6834 20.7071 14.2929L16.7071 10.2929Z" fill="black"/>
</svg>
