<svg width="32" height="32" viewBox="0 0 32 32" fill="none" xmlns="http://www.w3.org/2000/svg">
<path d="M13 24C12.4477 24 12 23.5523 12 23V20.0909C12 19.5386 11.5523 19.0909 11 19.0909C10.4477 19.0909 10 19.5386 10 20.0909V23C10 24.6569 11.3431 26 13 26H27C28.6569 26 30 24.6569 30 23V9C30 7.34315 28.6569 6 27 6H13C11.3431 6 10 7.34315 10 9V11.9091C10 12.4614 10.4477 12.9091 11 12.9091C11.5523 12.9091 12 12.4614 12 11.9091V9C12 8.44772 12.4477 8 13 8L27 8C27.5523 8 28 8.44772 28 9V23C28 23.5523 27.5523 24 27 24H13ZM21.7071 15.2929C21.8946 15.4804 22 15.7348 22 16C22 16.2652 21.8946 16.5196 21.7071 16.7071L17.7071 20.7071C17.3166 21.0976 16.6834 21.0976 16.2929 20.7071C15.9024 20.3166 15.9024 19.6834 16.2929 19.2929L18.5858 17H5C4.44772 17 4 16.5523 4 16C4 15.4477 4.44772 15 5 15H18.5858L16.2929 12.7071C15.9024 12.3166 15.9024 11.6834 16.2929 11.2929C16.6834 10.9024 17.3166 10.9024 17.7071 11.2929L21.7071 15.2929Z" fill="black"/>
</svg>
