<svg width="32" height="32" viewBox="0 0 32 32" fill="none" xmlns="http://www.w3.org/2000/svg">
<path d="M5 6C3.34315 6 2 7.34315 2 9V23C2 24.6569 3.34315 26 5 26H27C28.6569 26 30 24.6569 30 23V9C30 7.34315 28.6569 6 27 6H5ZM16.7071 10.2929L20.7071 14.2929C21.0976 14.6834 21.0976 15.3166 20.7071 15.7071C20.3166 16.0976 19.6834 16.0976 19.2929 15.7071L17 13.4142V21C17 21.5523 16.5523 22 16 22C15.4477 22 15 21.5523 15 21V13.4142L12.7071 15.7071C12.3166 16.0976 11.6834 16.0976 11.2929 15.7071C10.9024 15.3166 10.9024 14.6834 11.2929 14.2929L15.2929 10.2929C15.4804 10.1054 15.7348 10 16 10C16.2652 10 16.5196 10.1054 16.7071 10.2929Z" fill="black"/>
</svg>
