<svg width="32" height="32" viewBox="0 0 32 32" fill="none" xmlns="http://www.w3.org/2000/svg">
<path d="M16.7071 2.29289C16.5196 2.10536 16.2652 2 16 2C15.7348 2 15.4804 2.10536 15.2929 2.29289L11.2929 6.29289C10.9024 6.68342 10.9024 7.31658 11.2929 7.70711C11.6834 8.09763 12.3166 8.09763 12.7071 7.70711L15 5.41422V19C15 19.5523 15.4477 20 16 20C16.5523 20 17 19.5523 17 19V5.41421L19.2929 7.70711C19.6834 8.09763 20.3166 8.09763 20.7071 7.70711C21.0976 7.31658 21.0976 6.68342 20.7071 6.29289L16.7071 2.29289ZM8 13C8 12.4477 8.44772 12 9 12H11.9091C12.4614 12 12.9091 11.5523 12.9091 11C12.9091 10.4477 12.4614 10 11.9091 10H9C7.34315 10 6 11.3431 6 13V27C6 28.6569 7.34315 30 9 30H23C24.6569 30 26 28.6569 26 27V13C26 11.3431 24.6569 10 23 10H20.0909C19.5386 10 19.0909 10.4477 19.0909 11C19.0909 11.5523 19.5386 12 20.0909 12H23C23.5523 12 24 12.4477 24 13V27C24 27.5523 23.5523 28 23 28H9C8.44772 28 8 27.5523 8 27V13Z" fill="black"/>
</svg>
