<svg width="32" height="32" viewBox="0 0 32 32" fill="none" xmlns="http://www.w3.org/2000/svg">
<path d="M12 4C11.4477 4 11 4.44772 11 5V6H20C21.6569 6 23 7.34314 23 9V24H24C24.5523 24 25 23.5523 25 23V5C25 4.44772 24.5523 4 24 4H12ZM23 26V27C23 28.6569 21.6569 30 20 30H8C6.34315 30 5 28.6569 5 27V9C5 7.34315 6.34315 6 8 6H9V5C9 3.34315 10.3431 2 12 2H24C25.6569 2 27 3.34314 27 5V23C27 24.6569 25.6569 26 24 26H23ZM7 9V27C7 27.5523 7.44771 28 8 28H20C20.5523 28 21 27.5523 21 27V9C21 8.44772 20.5523 8 20 8H8C7.44772 8 7 8.44772 7 9Z" fill="black"/>
</svg>
