<svg width="32" height="32" viewBox="0 0 32 32" fill="none" xmlns="http://www.w3.org/2000/svg">
<path d="M9.59973 13.9467L5.33307 18.2133L1.06641 13.9467" stroke="black" stroke-width="1.5" stroke-linecap="round" stroke-linejoin="round"/>
<path d="M23.6268 8.46682C22.145 6.95136 20.2453 5.91167 18.1701 5.48049C16.0949 5.04931 13.9383 5.24618 11.9754 6.04592C10.0126 6.84566 8.33248 8.21205 7.1495 9.97073C5.96651 11.7294 5.33429 13.8004 5.3335 15.9199V18.2269" stroke="black" stroke-width="1.5" stroke-linecap="round" stroke-linejoin="round"/>
<path d="M22.3999 18.0534L26.6666 13.7734L30.9332 18.0534" stroke="black" stroke-width="1.5" stroke-linecap="round" stroke-linejoin="round"/>
<path d="M8.37354 23.5468C9.85535 25.0623 11.755 26.1017 13.8302 26.5328C15.9054 26.964 18.0621 26.7675 20.0249 25.9677C21.9878 25.168 23.6679 23.8016 24.8509 22.0429C26.0339 20.2842 26.6661 18.2129 26.6669 16.0934V13.7867" stroke="black" stroke-width="1.5" stroke-linecap="round" stroke-linejoin="round"/>
</svg>
