<svg width="50" height="50" viewBox="0 0 50 50" fill="none" xmlns="http://www.w3.org/2000/svg">
<path d="M45.3548 14.4082C45.2355 14.1826 45.0317 14.0133 44.788 13.9373C44.5443 13.8614 44.2804 13.8849 44.054 14.0028C43.8276 14.1206 43.657 14.3233 43.5794 14.5665C43.5018 14.8097 43.5236 15.0737 43.64 15.3009C45.7146 19.261 46.4664 23.7815 45.7851 28.1999C45.1038 32.6183 43.0252 36.7024 39.854 39.8536C31.6649 48.0418 18.3388 48.0444 10.1463 39.8527C10.0111 39.7176 9.8388 39.6255 9.65128 39.5883C9.46375 39.551 9.2694 39.5702 9.09279 39.6434C8.91619 39.7167 8.76528 39.8407 8.65915 39.9997C8.55302 40.1587 8.49644 40.3456 8.49658 40.5368V46.0935C8.49658 46.3498 8.5984 46.5956 8.77965 46.7768C8.9609 46.9581 9.20672 47.0599 9.46304 47.0599C9.71936 47.0599 9.96518 46.9581 10.1464 46.7768C10.3277 46.5956 10.4295 46.3498 10.4295 46.0935V42.7194C14.5143 46.0767 19.6332 47.9201 24.9205 47.938C30.2079 47.9559 35.3391 46.1471 39.4465 42.8176C43.5539 39.488 46.3853 34.8421 47.4619 29.6655C48.5385 24.4889 47.7942 19.0993 45.3548 14.4082Z" fill="black"/>
<path d="M10.1462 10.1467C18.3379 1.95592 31.6639 1.95678 39.8539 10.1459C39.9889 10.2812 40.1611 10.3735 40.3487 10.4109C40.5362 10.4483 40.7306 10.4293 40.9073 10.3561C41.0839 10.2829 41.2349 10.159 41.341 9.99991C41.4472 9.84086 41.5038 9.65388 41.5036 9.46266V3.90602C41.5036 3.6497 41.4017 3.40388 41.2205 3.22264C41.0392 3.04139 40.7934 2.93957 40.5371 2.93957C40.2808 2.93957 40.035 3.04139 39.8537 3.22264C39.6725 3.40388 39.5706 3.6497 39.5706 3.90602V7.28005C30.5687 -0.132345 17.1929 0.366336 8.77974 8.77945C5.31641 12.2204 3.04635 16.6802 2.30231 21.5053C1.55828 26.3303 2.37938 31.2668 4.64528 35.5912C4.76464 35.8169 4.9684 35.9862 5.2121 36.0621C5.4558 36.1381 5.71966 36.1146 5.94609 35.9967C6.17252 35.8789 6.34313 35.6762 6.4207 35.433C6.49827 35.1898 6.47649 34.9258 6.36013 34.6986C4.28541 30.7387 3.53363 26.2183 4.21496 21.8C4.89629 17.3816 6.97491 13.2977 10.1462 10.1467Z" fill="black"/>
<path d="M12.3438 24.859V35.5465C12.3458 36.2452 12.6243 36.9146 13.1183 37.4087C13.6123 37.9027 14.2818 38.1812 14.9805 38.1832H35.0194C35.718 38.1812 36.3876 37.9028 36.8816 37.4088C37.3757 36.9147 37.6541 36.2452 37.6561 35.5465V24.859C37.6541 24.1603 37.3756 23.4908 36.8816 22.9968C36.3875 22.5027 35.718 22.2243 35.0194 22.2223H14.9805C14.2818 22.2244 13.6123 22.5028 13.1183 22.9969C12.6243 23.4909 12.3458 24.1603 12.3438 24.859ZM32.0312 28.1378C32.4396 28.1378 32.8389 28.2589 33.1785 28.4858C33.5181 28.7127 33.7828 29.0352 33.9391 29.4126C34.0954 29.7899 34.1363 30.2052 34.0566 30.6057C33.9769 31.0063 33.7802 31.3743 33.4914 31.6631C33.2026 31.9519 32.8346 32.1486 32.434 32.2283C32.0334 32.3079 31.6182 32.267 31.2409 32.1107C30.8635 31.9544 30.541 31.6898 30.3141 31.3502C30.0872 31.0105 29.9661 30.6113 29.9661 30.2028C29.9666 29.6553 30.1843 29.1304 30.5715 28.7432C30.9587 28.356 31.4836 28.1383 32.0312 28.1378ZM24.9999 28.1378C25.4083 28.1378 25.8076 28.2589 26.1472 28.4858C26.4868 28.7127 26.7515 29.0352 26.9078 29.4126C27.0641 29.7899 27.105 30.2052 27.0253 30.6057C26.9456 31.0063 26.749 31.3743 26.4601 31.6631C26.1713 31.9519 25.8034 32.1486 25.4028 32.2283C25.0022 32.3079 24.587 32.267 24.2096 32.1107C23.8323 31.9544 23.5098 31.6898 23.2828 31.3502C23.0559 31.0105 22.9348 30.6113 22.9348 30.2028C22.9353 29.6553 23.1531 29.1304 23.5403 28.7432C23.9274 28.356 24.4524 28.1383 24.9999 28.1378ZM17.9687 28.1378C18.3771 28.1378 18.7764 28.2589 19.116 28.4858C19.4556 28.7127 19.7203 29.0352 19.8766 29.4126C20.0329 29.7899 20.0738 30.2052 19.9941 30.6057C19.9144 31.0063 19.7177 31.3743 19.4289 31.6631C19.1401 31.9519 18.7721 32.1486 18.3715 32.2283C17.9709 32.3079 17.5557 32.267 17.1784 32.1107C16.801 31.9544 16.4785 31.6898 16.2516 31.3502C16.0247 31.0105 15.9036 30.6113 15.9036 30.2028C15.9041 29.6553 16.1218 29.1304 16.509 28.7432C16.8962 28.356 17.4211 28.1383 17.9687 28.1378Z" fill="black"/>
<path d="M33.56 20.2887V16.7729C33.56 14.5027 32.6581 12.3254 31.0528 10.7201C29.4475 9.11486 27.2703 8.21301 25.0001 8.21301C22.7299 8.21301 20.5526 9.11486 18.9473 10.7201C17.342 12.3254 16.4402 14.5027 16.4402 16.7729V20.2887H18.3731V16.7729C18.3731 15.0153 19.0713 13.3297 20.3141 12.0869C21.5569 10.8441 23.2425 10.1459 25.0001 10.1459C26.7577 10.1459 28.4433 10.8441 29.6861 12.0869C30.9289 13.3297 31.6271 15.0153 31.6271 16.7729V20.2887H33.56Z" fill="black"/>
</svg>
