<svg width="50" height="50" viewBox="0 0 50 50" fill="none" xmlns="http://www.w3.org/2000/svg">
<path d="M25 1C22.128 1 19.32 1.502 16.652 2.492L17.348 4.367C19.792 3.46 22.367 3 25 3C37.131 3 47 12.869 47 25C47 37.131 37.131 47 25 47C12.869 47 3 37.131 3 25C3 18.405 5.963 12.205 11 8.042V15H13V5H3V7H9.126C3.993 11.53 1 18.068 1 25C1 38.233 11.767 49 25 49C38.233 49 49 38.233 49 25C49 11.767 38.233 1 25 1Z" fill="black"/>
<path d="M19 33H17V35H33V33H31V29.586L26.414 25L31 20.414V17H33V15H17V17H19V20.414L23.586 25L19 29.586V33ZM21 19.586V17H29V19.586L25 23.586L21 19.586ZM25 26.414L29 30.414V33H21V30.414L25 26.414Z" fill="black"/>
<path d="M21 39H19V41H21V39Z" fill="black"/>
<path d="M26 39H24V41H26V39Z" fill="black"/>
<path d="M31 39H29V41H31V39Z" fill="black"/>
</svg>
