<svg width="32" height="32" viewBox="0 0 32 32" fill="none" xmlns="http://www.w3.org/2000/svg">
<path d="M14.0808 10.6666L18.1608 14.4934C18.3721 14.6835 18.5409 14.9158 18.6566 15.1754C18.7722 15.435 18.8319 15.7158 18.8319 16C18.8319 16.2841 18.7722 16.5653 18.6566 16.8248C18.5409 17.0844 18.3721 17.3167 18.1608 17.5068L14.0808 21.3333" stroke="black" stroke-width="1.5" stroke-linecap="round" stroke-linejoin="round"/>
<path d="M22.6667 4H9.33333C6.38781 4 4 6.38781 4 9.33333V22.6667C4 25.6122 6.38781 28 9.33333 28H22.6667C25.6122 28 28 25.6122 28 22.6667V9.33333C28 6.38781 25.6122 4 22.6667 4Z" stroke="black" stroke-width="1.5" stroke-linecap="round" stroke-linejoin="round"/>
</svg>
