<svg width="32" height="32" viewBox="0 0 32 32" fill="none" xmlns="http://www.w3.org/2000/svg">
<path d="M26.4 11.0666C25.3333 6.26663 20.9333 2.66663 16 2.66663C10.1333 2.66663 5.33333 7.46663 5.33333 13.3333V13.4666C2.66667 14.1333 0 16.8 0 20C0 23.7333 2.93333 26.6666 6.53333 26.6666H11.8667V24H6.66667C4.4 24 2.66667 22.2666 2.66667 20C2.66667 17.7333 4.4 16 6.66667 16H8V13.3333C8 8.93329 11.6 5.33329 16 5.33329C20 5.33329 23.3333 8.26663 23.8667 12.2666L24 13.2L24.9333 13.3333C27.4667 13.8666 29.2 16 29.2 18.5333C29.2 21.4666 26.8 23.8666 23.8667 23.8666H19.8667V26.5333H23.8667C28.2667 26.5333 31.8667 22.9333 31.8667 18.5333C32 15.2 29.6 12.1333 26.4 11.0666ZM14.6667 25.3333H17.3333V14.6666H14.6667V25.3333ZM14.6667 30.6666H17.3333V28H14.6667V30.6666Z" fill="#1E232D"/>
</svg>
