<svg width="32" height="32" viewBox="0 0 32 32" fill="none" xmlns="http://www.w3.org/2000/svg">
<path d="M29.6653 9.41509C30.3556 8.21936 29.9459 6.69038 28.7502 6.00003C27.5545 5.30967 26.0255 5.71936 25.3351 6.91509L17.6787 20.1764C19.3807 20.5398 20.8822 21.4445 21.9943 22.7017L29.6653 9.41509ZM22.0001 28C22.0001 24.6863 19.3138 22 16.0001 22C12.6864 22 10.0001 24.6863 10.0001 28H22.0001ZM11.1053 5.66895H23.7451L20.8583 10.6689L12.5486 10.6689L11.4663 12.5436L11.6008 12.6212C12.5573 13.1735 12.8851 14.3967 12.3328 15.3533L9.8328 19.6834L7.23473 18.1834L8.66375 15.7083L6.06567 14.2083L4.63665 16.6834L2.03857 15.1834L4.53857 10.8533C5.06474 9.94194 6.19983 9.60136 7.1332 10.0487L8.94019 6.91895C9.38677 6.14544 10.2121 5.66895 11.1053 5.66895Z" fill="black"/>
</svg>
