<svg width="32" height="32" viewBox="0 0 32 32" fill="none" xmlns="http://www.w3.org/2000/svg">
<g clip-path="url(#clip0_543_314)">
<path d="M30 14H18V16H30V14Z" fill="black"/>
<path d="M26 19H18V21H26V19Z" fill="black"/>
<path d="M30 9H18V11H30V9Z" fill="black"/>
<path d="M22 24.0001V28.0001H6V16.0001H14V14.0001H10V8.00006C10.0001 7.08098 10.3167 6.18997 10.8965 5.47682C11.4762 4.76368 12.2838 4.2719 13.1835 4.08415C14.0832 3.89641 15.0202 4.02416 15.8367 4.44592C16.6533 4.86768 17.2998 5.55773 17.6675 6.40006L19.5005 5.60006C18.9489 4.33682 17.9792 3.30201 16.7544 2.66956C15.5296 2.0371 14.1244 1.84558 12.7751 2.12717C11.4257 2.40877 10.2144 3.14631 9.34484 4.21583C8.47525 5.28535 8.00036 6.62163 8 8.00006V14.0001H6C5.46975 14.0007 4.9614 14.2116 4.58646 14.5865C4.21152 14.9615 4.00061 15.4698 4 16.0001V28.0001C4.00061 28.5303 4.21152 29.0387 4.58646 29.4136C4.9614 29.7885 5.46975 29.9995 6 30.0001H22C22.5302 29.9995 23.0386 29.7885 23.4135 29.4136C23.7885 29.0387 23.9994 28.5303 24 28.0001V24.0001H22Z" fill="black"/>
</g>
<defs>
<clipPath id="clip0_543_314">
<rect width="32" height="32" fill="white"/>
</clipPath>
</defs>
</svg>
