<svg width="32" height="32" viewBox="0 0 32 32" fill="none" xmlns="http://www.w3.org/2000/svg">
<path d="M16.5998 15.9675C17.6096 15.4625 18.4932 14.7051 19.1875 13.8215C19.7556 13.001 20.1343 12.0542 20.3236 11.0444H23.2901C23.2901 11.0444 23.8581 10.287 24.868 8.7722C24.868 8.7722 24.868 8.70908 24.8049 8.70908H20.2605C20.0712 7.76234 19.6925 6.94182 19.0613 6.18443H23.2901C23.8581 5.42703 24.4262 4.66963 24.868 3.84912H8.96267C8.89956 3.84912 8.39463 4.60652 7.38477 6.12131V6.18443H11.5504C12.371 6.18443 13.1284 6.37378 13.8858 6.62624C14.9587 6.94182 15.8424 7.69922 16.4104 8.64597H8.96267C8.96267 8.64597 8.39463 9.40336 7.38477 10.9182C7.38477 10.9182 7.38477 10.9813 7.44788 10.9813H16.9153C16.9153 11.36 16.8522 11.6756 16.726 11.9911C15.9055 14.2633 13.6964 15.3994 10.225 15.3994C9.59384 15.3994 8.89956 15.3994 8.26839 15.2732V15.3363V17.5454C8.26839 17.6085 11.3611 21.2061 17.6096 28.4645H21.0179C21.081 28.4645 21.081 28.4645 21.081 28.4014V27.9596L13.2546 18.4921C12.8759 18.1134 12.4972 17.6085 12.1816 17.1036C13.6964 17.1036 15.2743 16.7249 16.5998 15.9675Z" fill="black"/>
</svg>
