<svg width="32" height="32" viewBox="0 0 32 32" fill="none" xmlns="http://www.w3.org/2000/svg">
<path d="M25.9772 23.7828C27.3786 24.4018 29.0212 23.8653 29.7873 22.5386L29.9407 22.2728L20.576 16.866L16.129 19.4335L25.9772 23.7828ZM9.56223 10.5072L12.82 12.3881L11.9273 12.7824C11.3929 13.0184 10.9372 13.3787 10.5893 13.8216C10.2623 13.3651 9.83831 12.976 9.3375 12.6869L8.08785 11.9654C6.89446 12.6431 5.38347 12.6883 4.10907 11.9525C2.1959 10.8479 1.5404 8.40157 2.64496 6.4884C3.74953 4.57523 6.1959 3.91973 8.10907 5.0243C10.0222 6.12887 10.6777 8.57523 9.57317 10.4884L9.56223 10.5072ZM5.10907 10.2205C6.06565 10.7727 7.28883 10.445 7.84112 9.4884C8.3934 8.53181 8.06565 7.30863 7.10907 6.75635C6.15248 6.20406 4.9293 6.53181 4.37702 7.4884C3.82473 8.44499 4.15248 9.66817 5.10907 10.2205ZM25.9772 8.21716C27.3786 7.59823 29.0212 8.13467 29.7873 9.46144L29.9407 9.72724L9.56223 21.4928L9.57318 21.5116C10.6777 23.4248 10.0222 25.8711 8.10907 26.9757C6.1959 28.0803 3.74954 27.4248 2.64497 25.5116C1.5404 23.5984 2.1959 21.1521 4.10907 20.0475C5.38348 19.3117 6.89447 19.3569 8.08785 20.0346L9.33751 19.3131C10.4957 18.6444 11.2431 17.4411 11.3292 16.1064L11.3454 15.8553C11.3934 15.1113 11.8513 14.4557 12.5333 14.1545L25.9772 8.21716ZM5.10907 21.7795C4.15249 22.3318 3.82474 23.555 4.37702 24.5116C4.92931 25.4682 6.15249 25.7959 7.10907 25.2437C8.06566 24.6914 8.39341 23.4682 7.84112 22.5116C7.28884 21.555 6.06566 21.2273 5.10907 21.7795Z" fill="black"/>
</svg>
