<svg width="32" height="22" viewBox="0 0 32 22" fill="none" xmlns="http://www.w3.org/2000/svg">
<path d="M21.976 11.4558H21.0213C20.7681 11.4558 20.5253 11.5564 20.3463 11.7354C20.1672 11.9145 20.0667 12.1573 20.0667 12.4105C20.0667 12.6637 20.1672 12.9065 20.3463 13.0855C20.5253 13.2645 20.7681 13.3651 21.0213 13.3651H21.976C22.2291 13.3651 22.472 13.2645 22.651 13.0855C22.83 12.9065 22.9306 12.6637 22.9306 12.4105C22.9306 12.1573 22.83 11.9145 22.651 11.7354C22.472 11.5564 22.2291 11.4558 21.976 11.4558Z" fill="#0F3849"/>
<path d="M21.976 7.63721H21.0213C20.7681 7.63721 20.5253 7.73779 20.3463 7.91682C20.1672 8.09585 20.0667 8.33867 20.0667 8.59186C20.0667 8.84505 20.1672 9.08787 20.3463 9.2669C20.5253 9.44594 20.7681 9.54651 21.0213 9.54651H21.976C22.2291 9.54651 22.472 9.44594 22.651 9.2669C22.83 9.08787 22.9306 8.84505 22.9306 8.59186C22.9306 8.33867 22.83 8.09585 22.651 7.91682C22.472 7.73779 22.2291 7.63721 21.976 7.63721Z" fill="#0F3849"/>
<path d="M21.976 3.8186H21.0213C20.7681 3.8186 20.5253 3.91918 20.3463 4.09822C20.1672 4.27725 20.0667 4.52007 20.0667 4.77326C20.0667 5.02645 20.1672 5.26927 20.3463 5.4483C20.5253 5.62733 20.7681 5.72791 21.0213 5.72791H21.976C22.2291 5.72791 22.472 5.62733 22.651 5.4483C22.83 5.26927 22.9306 5.02645 22.9306 4.77326C22.9306 4.52007 22.83 4.27725 22.651 4.09822C22.472 3.91918 22.2291 3.8186 21.976 3.8186Z" fill="#0F3849"/>
<path d="M18.1574 11.4558H17.2027C16.9495 11.4558 16.7067 11.5564 16.5277 11.7354C16.3486 11.9145 16.248 12.1573 16.248 12.4105C16.248 12.6637 16.3486 12.9065 16.5277 13.0855C16.7067 13.2645 16.9495 13.3651 17.2027 13.3651H18.1574C18.4105 13.3651 18.6534 13.2645 18.8324 13.0855C19.0114 12.9065 19.112 12.6637 19.112 12.4105C19.112 12.1573 19.0114 11.9145 18.8324 11.7354C18.6534 11.5564 18.4105 11.4558 18.1574 11.4558Z" fill="#0F3849"/>
<path d="M18.1574 7.63721H17.2027C16.9495 7.63721 16.7067 7.73779 16.5277 7.91682C16.3486 8.09585 16.248 8.33867 16.248 8.59186C16.248 8.84505 16.3486 9.08787 16.5277 9.2669C16.7067 9.44594 16.9495 9.54651 17.2027 9.54651H18.1574C18.4105 9.54651 18.6534 9.44594 18.8324 9.2669C19.0114 9.08787 19.112 8.84505 19.112 8.59186C19.112 8.33867 19.0114 8.09585 18.8324 7.91682C18.6534 7.73779 18.4105 7.63721 18.1574 7.63721Z" fill="#0F3849"/>
<path d="M18.1574 3.8186H17.2027C16.9495 3.8186 16.7067 3.91918 16.5277 4.09822C16.3486 4.27725 16.248 4.52007 16.248 4.77326C16.248 5.02645 16.3486 5.26927 16.5277 5.4483C16.7067 5.62733 16.9495 5.72791 17.2027 5.72791H18.1574C18.4105 5.72791 18.6534 5.62733 18.8324 5.4483C19.0114 5.26927 19.112 5.02645 19.112 4.77326C19.112 4.52007 19.0114 4.27725 18.8324 4.09822C18.6534 3.91918 18.4105 3.8186 18.1574 3.8186Z" fill="#0F3849"/>
<path d="M25.7948 11.4558H24.8402C24.587 11.4558 24.3441 11.5564 24.1651 11.7354C23.9861 11.9145 23.8855 12.1573 23.8855 12.4105C23.8855 12.6637 23.9861 12.9065 24.1651 13.0855C24.3441 13.2645 24.587 13.3651 24.8402 13.3651H25.7948C26.048 13.3651 26.2908 13.2645 26.4698 13.0855C26.6489 12.9065 26.7495 12.6637 26.7495 12.4105C26.7495 12.1573 26.6489 11.9145 26.4698 11.7354C26.2908 11.5564 26.048 11.4558 25.7948 11.4558Z" fill="#0F3849"/>
<path d="M25.7948 7.63721H24.8402C24.587 7.63721 24.3441 7.73779 24.1651 7.91682C23.9861 8.09585 23.8855 8.33867 23.8855 8.59186C23.8855 8.84505 23.9861 9.08787 24.1651 9.2669C24.3441 9.44594 24.587 9.54651 24.8402 9.54651H25.7948C26.048 9.54651 26.2908 9.44594 26.4698 9.2669C26.6489 9.08787 26.7495 8.84505 26.7495 8.59186C26.7495 8.33867 26.6489 8.09585 26.4698 7.91682C26.2908 7.73779 26.048 7.63721 25.7948 7.63721Z" fill="#0F3849"/>
<path d="M25.7948 3.8186H24.8402C24.587 3.8186 24.3441 3.91918 24.1651 4.09822C23.9861 4.27725 23.8855 4.52007 23.8855 4.77326C23.8855 5.02645 23.9861 5.26927 24.1651 5.4483C24.3441 5.62733 24.587 5.72791 24.8402 5.72791H25.7948C26.048 5.72791 26.2908 5.62733 26.4698 5.4483C26.6489 5.26927 26.7495 5.02645 26.7495 4.77326C26.7495 4.52007 26.6489 4.27725 26.4698 4.09822C26.2908 3.91918 26.048 3.8186 25.7948 3.8186Z" fill="#0F3849"/>
<path d="M31.0453 19.0931H30.0906V0.954654C30.0906 0.701464 29.9901 0.458644 29.811 0.279612C29.632 0.100579 29.3892 0 29.136 0H13.8615C13.6083 0 13.3655 0.100579 13.1865 0.279612C13.0074 0.458644 12.9069 0.701464 12.9069 0.954654V19.0931H11.9522C11.699 19.0931 11.4562 19.1937 11.2772 19.3727C11.0981 19.5517 10.9976 19.7945 10.9976 20.0477C10.9976 20.3009 11.0981 20.5437 11.2772 20.7228C11.4562 20.9018 11.699 21.0024 11.9522 21.0024H31.0453C31.2985 21.0024 31.5413 20.9018 31.7203 20.7228C31.8994 20.5437 31.9999 20.3009 31.9999 20.0477C31.9999 19.7945 31.8994 19.5517 31.7203 19.3727C31.5413 19.1937 31.2985 19.0931 31.0453 19.0931ZM19.5894 19.0931V17.1838H23.4081V19.0931H19.5894ZM25.3174 19.0931V16.2291C25.3174 15.9759 25.2168 15.7331 25.0378 15.5541C24.8587 15.375 24.6159 15.2745 24.3627 15.2745H18.6348C18.3816 15.2745 18.1388 15.375 17.9597 15.5541C17.7807 15.7331 17.6801 15.9759 17.6801 16.2291V19.0931H14.8162V1.90931H28.1813V19.0931H25.3174Z" fill="#0F3849"/>
<path d="M8.48343 13.6255H7.74574C7.5501 13.6255 7.36246 13.7032 7.22412 13.8416C7.08578 13.9799 7.00806 14.1675 7.00806 14.3632C7.00806 14.5588 7.08578 14.7465 7.22412 14.8848C7.36246 15.0231 7.5501 15.1009 7.74574 15.1009H8.48343C8.67908 15.1009 8.86671 15.0231 9.00506 14.8848C9.1434 14.7465 9.22112 14.5588 9.22112 14.3632C9.22112 14.1675 9.1434 13.9799 9.00506 13.8416C8.86671 13.7032 8.67908 13.6255 8.48343 13.6255Z" fill="#0F3849"/>
<path d="M8.48343 10.6747H7.74574C7.5501 10.6747 7.36246 10.7524 7.22412 10.8907C7.08578 11.0291 7.00806 11.2167 7.00806 11.4124C7.00806 11.608 7.08578 11.7957 7.22412 11.934C7.36246 12.0723 7.5501 12.1501 7.74574 12.1501H8.48343C8.67908 12.1501 8.86671 12.0723 9.00506 11.934C9.1434 11.7957 9.22112 11.608 9.22112 11.4124C9.22112 11.2167 9.1434 11.0291 9.00506 10.8907C8.86671 10.7524 8.67908 10.6747 8.48343 10.6747Z" fill="#0F3849"/>
<path d="M8.48343 7.724H7.74574C7.5501 7.724 7.36246 7.80172 7.22412 7.94006C7.08578 8.07841 7.00806 8.26604 7.00806 8.46169C7.00806 8.65733 7.08578 8.84497 7.22412 8.98331C7.36246 9.12165 7.5501 9.19938 7.74574 9.19938H8.48343C8.67908 9.19938 8.86671 9.12165 9.00506 8.98331C9.1434 8.84497 9.22112 8.65733 9.22112 8.46169C9.22112 8.26604 9.1434 8.07841 9.00506 7.94006C8.86671 7.80172 8.67908 7.724 8.48343 7.724Z" fill="#0F3849"/>
<path d="M5.53275 13.6255H4.79506C4.59941 13.6255 4.41178 13.7032 4.27344 13.8416C4.13509 13.9799 4.05737 14.1675 4.05737 14.3632C4.05737 14.5588 4.13509 14.7465 4.27344 14.8848C4.41178 15.0231 4.59941 15.1009 4.79506 15.1009H5.53275C5.7284 15.1009 5.91603 15.0231 6.05437 14.8848C6.19272 14.7465 6.27044 14.5588 6.27044 14.3632C6.27044 14.1675 6.19272 13.9799 6.05437 13.8416C5.91603 13.7032 5.7284 13.6255 5.53275 13.6255Z" fill="#0F3849"/>
<path d="M5.53275 10.6747H4.79506C4.59941 10.6747 4.41178 10.7524 4.27344 10.8907C4.13509 11.0291 4.05737 11.2167 4.05737 11.4124C4.05737 11.608 4.13509 11.7957 4.27344 11.934C4.41178 12.0723 4.59941 12.1501 4.79506 12.1501H5.53275C5.7284 12.1501 5.91603 12.0723 6.05437 11.934C6.19272 11.7957 6.27044 11.608 6.27044 11.4124C6.27044 11.2167 6.19272 11.0291 6.05437 10.8907C5.91603 10.7524 5.7284 10.6747 5.53275 10.6747Z" fill="#0F3849"/>
<path d="M5.53275 7.724H4.79506C4.59941 7.724 4.41178 7.80172 4.27344 7.94006C4.13509 8.07841 4.05737 8.26604 4.05737 8.46169C4.05737 8.65733 4.13509 8.84497 4.27344 8.98331C4.41178 9.12165 4.59941 9.19938 4.79506 9.19938H5.53275C5.7284 9.19938 5.91603 9.12165 6.05437 8.98331C6.19272 8.84497 6.27044 8.65733 6.27044 8.46169C6.27044 8.26604 6.19272 8.07841 6.05437 7.94006C5.91603 7.80172 5.7284 7.724 5.53275 7.724Z" fill="#0F3849"/>
<path d="M11.4341 13.6255H10.6964C10.5008 13.6255 10.3131 13.7032 10.1748 13.8416C10.0365 13.9799 9.95874 14.1675 9.95874 14.3632C9.95874 14.5588 10.0365 14.7465 10.1748 14.8848C10.3131 15.0231 10.5008 15.1009 10.6964 15.1009H11.4341C11.6298 15.1009 11.8174 15.0231 11.9557 14.8848C12.0941 14.7465 12.1718 14.5588 12.1718 14.3632C12.1718 14.1675 12.0941 13.9799 11.9557 13.8416C11.8174 13.7032 11.6298 13.6255 11.4341 13.6255Z" fill="#0F3849"/>
<path d="M11.4341 10.6747H10.6964C10.5008 10.6747 10.3131 10.7524 10.1748 10.8907C10.0365 11.0291 9.95874 11.2167 9.95874 11.4124C9.95874 11.608 10.0365 11.7957 10.1748 11.934C10.3131 12.0723 10.5008 12.1501 10.6964 12.1501H11.4341C11.6298 12.1501 11.8174 12.0723 11.9557 11.934C12.0941 11.7957 12.1718 11.608 12.1718 11.4124C12.1718 11.2167 12.0941 11.0291 11.9557 10.8907C11.8174 10.7524 11.6298 10.6747 11.4341 10.6747Z" fill="#0F3849"/>
<path d="M11.4341 7.724H10.6964C10.5008 7.724 10.3131 7.80172 10.1748 7.94006C10.0365 8.07841 9.95874 8.26604 9.95874 8.46169C9.95874 8.65733 10.0365 8.84497 10.1748 8.98331C10.3131 9.12165 10.5008 9.19938 10.6964 9.19938H11.4341C11.6298 9.19938 11.8174 9.12165 11.9557 8.98331C12.0941 8.84497 12.1718 8.65733 12.1718 8.46169C12.1718 8.26604 12.0941 8.07841 11.9557 7.94006C11.8174 7.80172 11.6298 7.724 11.4341 7.724Z" fill="#0F3849"/>
<path d="M15.4914 19.527H14.7538V5.51088C14.7538 5.31523 14.676 5.1276 14.5377 4.98926C14.3994 4.85091 14.2117 4.77319 14.0161 4.77319H2.21306C2.01742 4.77319 1.82978 4.85091 1.69144 4.98926C1.5531 5.1276 1.47538 5.31523 1.47538 5.51088V19.527H0.737688C0.542041 19.527 0.354407 19.6047 0.216064 19.743C0.0777204 19.8814 0 20.069 0 20.2646C0 20.4603 0.0777204 20.6479 0.216064 20.7863C0.354407 20.9246 0.542041 21.0023 0.737688 21.0023H15.4914C15.6871 21.0023 15.8747 20.9246 16.0131 20.7863C16.1514 20.6479 16.2291 20.4603 16.2291 20.2646C16.2291 20.069 16.1514 19.8814 16.0131 19.743C15.8747 19.6047 15.6871 19.527 15.4914 19.527ZM6.63919 19.527V18.0516H9.58994V19.527H6.63919ZM11.0653 19.527V17.3139C11.0653 17.1182 10.9876 16.9306 10.8493 16.7923C10.7109 16.6539 10.5233 16.5762 10.3276 16.5762H5.9015C5.70586 16.5762 5.51822 16.6539 5.37988 16.7923C5.24154 16.9306 5.16382 17.1182 5.16382 17.3139V19.527H2.95075V6.24857H13.2784V19.527H11.0653Z" fill="#0F3849"/>
<path d="M15.9997 8.86377C14.5266 8.86377 13.1223 9.1817 11.854 9.7502C8.52527 11.2418 6.11144 14.4743 5.6897 18.319C5.6897 19.625 6.6505 20.6828 7.92473 20.6828H24.0746C25.3493 20.6828 26.3102 19.625 26.3102 18.319C25.888 14.4743 23.4736 11.2418 20.1456 9.7502C18.8767 9.1817 17.4728 8.86377 15.9997 8.86377Z" fill="white"/>
<path d="M25.3645 19.2788C25.3645 19.5685 25.1303 19.8027 24.8406 19.8027H22.2866C21.9969 19.8027 21.7627 19.5685 21.7627 19.2788C21.7627 18.9891 21.9969 18.7549 22.2866 18.7549H24.3005C24.0291 14.4124 20.4095 10.962 15.9999 10.962C11.5903 10.962 7.97066 14.4124 7.69929 18.7549H9.71314C10.0023 18.7549 10.237 18.9891 10.237 19.2788C10.237 19.5685 10.0023 19.8027 9.71314 19.8027H7.15915C6.86996 19.8027 6.63525 19.5685 6.63525 19.2788C6.63525 14.1153 10.8364 9.91418 15.9999 9.91418C21.1634 9.91418 25.3645 14.1153 25.3645 19.2788ZM16.5238 13.516V12.4682C16.5238 12.1785 16.2891 11.9443 15.9999 11.9443C15.7107 11.9443 15.476 12.1785 15.476 12.4682V13.516C15.476 13.8057 15.7107 14.0399 15.9999 14.0399C16.2891 14.0399 16.5238 13.8057 16.5238 13.516ZM18.03 15.6969C17.779 15.5523 17.4589 15.6383 17.3143 15.8887L15.9595 18.2347C15.4005 18.2567 14.9521 18.7151 14.9521 19.2788C14.9521 19.5685 15.1868 19.8027 15.476 19.8027H16.5238C16.8135 19.8027 17.0477 19.5685 17.0477 19.2788C17.0477 19.0755 16.9869 18.8869 16.8863 18.7261L18.2217 16.4126C18.3668 16.1622 18.2809 15.8415 18.03 15.6969ZM19.6672 12.9266C19.4162 12.782 19.0961 12.8679 18.9515 13.1183L18.4276 14.0257C18.283 14.2767 18.3689 14.5968 18.6194 14.7414C18.7016 14.789 18.7917 14.8116 18.8808 14.8116C19.0621 14.8116 19.2381 14.7173 19.335 14.5496L19.8589 13.6422C20.004 13.3918 19.9181 13.0712 19.6672 12.9266ZM22.3521 15.6115C22.207 15.3606 21.8853 15.2747 21.6365 15.4198L20.7291 15.9437C20.4781 16.0883 20.3922 16.4084 20.5368 16.6593C20.6343 16.827 20.8098 16.9213 20.991 16.9213C21.0801 16.9213 21.1702 16.8988 21.2525 16.8511L22.1598 16.3272C22.4108 16.1826 22.4967 15.8625 22.3521 15.6115ZM13.0483 13.1183C12.9031 12.8679 12.583 12.7809 12.3326 12.9266C12.0822 13.0712 11.9963 13.3918 12.1409 13.6422L12.6648 14.5496C12.7622 14.7173 12.9377 14.8116 13.119 14.8116C13.2075 14.8116 13.2976 14.789 13.3804 14.7414C13.6308 14.5968 13.7167 14.2761 13.5722 14.0257L13.0483 13.1183ZM11.2712 15.9437L10.3638 15.4198C10.1134 15.2752 9.79277 15.3606 9.64818 15.6115C9.50358 15.8625 9.5895 16.1826 9.83992 16.3272L10.7473 16.8511C10.8296 16.8988 10.9202 16.9213 11.0087 16.9213C11.19 16.9213 11.366 16.8275 11.463 16.6593C11.6075 16.4084 11.5216 16.0883 11.2712 15.9437Z" fill="#0F3849"/>
</svg>
