<svg width="32" height="32" viewBox="0 0 32 32" fill="none" xmlns="http://www.w3.org/2000/svg">
<path d="M16.6667 17.3334H15.3333C14.9797 17.3334 14.6406 17.4739 14.3905 17.7239C14.1405 17.9739 14 18.3131 14 18.6667C14 19.0203 14.1405 19.3595 14.3905 19.6095C14.6406 19.8596 14.9797 20 15.3333 20H16.6667C17.0203 20 17.3594 19.8596 17.6095 19.6095C17.8595 19.3595 18 19.0203 18 18.6667C18 18.3131 17.8595 17.9739 17.6095 17.7239C17.3594 17.4739 17.0203 17.3334 16.6667 17.3334Z" fill="#0F3849"/>
<path d="M16.6667 12H15.3333C14.9797 12 14.6406 12.1405 14.3905 12.3905C14.1405 12.6406 14 12.9797 14 13.3333C14 13.687 14.1405 14.0261 14.3905 14.2761C14.6406 14.5262 14.9797 14.6667 15.3333 14.6667H16.6667C17.0203 14.6667 17.3594 14.5262 17.6095 14.2761C17.8595 14.0261 18 13.687 18 13.3333C18 12.9797 17.8595 12.6406 17.6095 12.3905C17.3594 12.1405 17.0203 12 16.6667 12Z" fill="#0F3849"/>
<path d="M16.6667 6.66675H15.3333C14.9797 6.66675 14.6406 6.80722 14.3905 7.05727C14.1405 7.30732 14 7.64646 14 8.00008C14 8.3537 14.1405 8.69284 14.3905 8.94289C14.6406 9.19294 14.9797 9.33342 15.3333 9.33342H16.6667C17.0203 9.33342 17.3594 9.19294 17.6095 8.94289C17.8595 8.69284 18 8.3537 18 8.00008C18 7.64646 17.8595 7.30732 17.6095 7.05727C17.3594 6.80722 17.0203 6.66675 16.6667 6.66675Z" fill="#0F3849"/>
<path d="M11.3332 17.3334H9.99984C9.64622 17.3334 9.30708 17.4739 9.05703 17.7239C8.80698 17.9739 8.6665 18.3131 8.6665 18.6667C8.6665 19.0203 8.80698 19.3595 9.05703 19.6095C9.30708 19.8596 9.64622 20 9.99984 20H11.3332C11.6868 20 12.0259 19.8596 12.276 19.6095C12.526 19.3595 12.6665 19.0203 12.6665 18.6667C12.6665 18.3131 12.526 17.9739 12.276 17.7239C12.0259 17.4739 11.6868 17.3334 11.3332 17.3334Z" fill="#0F3849"/>
<path d="M11.3332 12H9.99984C9.64622 12 9.30708 12.1405 9.05703 12.3905C8.80698 12.6406 8.6665 12.9797 8.6665 13.3333C8.6665 13.687 8.80698 14.0261 9.05703 14.2761C9.30708 14.5262 9.64622 14.6667 9.99984 14.6667H11.3332C11.6868 14.6667 12.0259 14.5262 12.276 14.2761C12.526 14.0261 12.6665 13.687 12.6665 13.3333C12.6665 12.9797 12.526 12.6406 12.276 12.3905C12.0259 12.1405 11.6868 12 11.3332 12Z" fill="#0F3849"/>
<path d="M11.3332 6.66675H9.99984C9.64622 6.66675 9.30708 6.80722 9.05703 7.05727C8.80698 7.30732 8.6665 7.64646 8.6665 8.00008C8.6665 8.3537 8.80698 8.69284 9.05703 8.94289C9.30708 9.19294 9.64622 9.33342 9.99984 9.33342H11.3332C11.6868 9.33342 12.0259 9.19294 12.276 8.94289C12.526 8.69284 12.6665 8.3537 12.6665 8.00008C12.6665 7.64646 12.526 7.30732 12.276 7.05727C12.0259 6.80722 11.6868 6.66675 11.3332 6.66675Z" fill="#0F3849"/>
<path d="M21.9999 17.3334H20.6666C20.313 17.3334 19.9738 17.4739 19.7238 17.7239C19.4737 17.9739 19.3333 18.3131 19.3333 18.6667C19.3333 19.0203 19.4737 19.3595 19.7238 19.6095C19.9738 19.8596 20.313 20 20.6666 20H21.9999C22.3535 20 22.6927 19.8596 22.9427 19.6095C23.1928 19.3595 23.3333 19.0203 23.3333 18.6667C23.3333 18.3131 23.1928 17.9739 22.9427 17.7239C22.6927 17.4739 22.3535 17.3334 21.9999 17.3334Z" fill="#0F3849"/>
<path d="M21.9999 12H20.6666C20.313 12 19.9738 12.1405 19.7238 12.3905C19.4737 12.6406 19.3333 12.9797 19.3333 13.3333C19.3333 13.687 19.4737 14.0261 19.7238 14.2761C19.9738 14.5262 20.313 14.6667 20.6666 14.6667H21.9999C22.3535 14.6667 22.6927 14.5262 22.9427 14.2761C23.1928 14.0261 23.3333 13.687 23.3333 13.3333C23.3333 12.9797 23.1928 12.6406 22.9427 12.3905C22.6927 12.1405 22.3535 12 21.9999 12Z" fill="#0F3849"/>
<path d="M21.9999 6.66675H20.6666C20.313 6.66675 19.9738 6.80722 19.7238 7.05727C19.4737 7.30732 19.3333 7.64646 19.3333 8.00008C19.3333 8.3537 19.4737 8.69284 19.7238 8.94289C19.9738 9.19294 20.313 9.33342 20.6666 9.33342H21.9999C22.3535 9.33342 22.6927 9.19294 22.9427 8.94289C23.1928 8.69284 23.3333 8.3537 23.3333 8.00008C23.3333 7.64646 23.1928 7.30732 22.9427 7.05727C22.6927 6.80722 22.3535 6.66675 21.9999 6.66675Z" fill="#0F3849"/>
<path d="M29.3333 28H27.9999V2.66671C27.9999 2.31309 27.8594 1.97395 27.6094 1.7239C27.3594 1.47385 27.0202 1.33337 26.6666 1.33337H5.33325C4.97963 1.33337 4.64049 1.47385 4.39044 1.7239C4.14039 1.97395 3.99992 2.31309 3.99992 2.66671V28H2.66659C2.31296 28 1.97382 28.1405 1.72378 28.3906C1.47373 28.6406 1.33325 28.9798 1.33325 29.3334C1.33325 29.687 1.47373 30.0261 1.72378 30.2762C1.97382 30.5262 2.31296 30.6667 2.66659 30.6667H29.3333C29.6869 30.6667 30.026 30.5262 30.2761 30.2762C30.5261 30.0261 30.6666 29.687 30.6666 29.3334C30.6666 28.9798 30.5261 28.6406 30.2761 28.3906C30.026 28.1405 29.6869 28 29.3333 28ZM13.3333 28V25.3334H18.6666V28H13.3333ZM21.3333 28V24C21.3333 23.6464 21.1928 23.3073 20.9427 23.0572C20.6927 22.8072 20.3535 22.6667 19.9999 22.6667H11.9999C11.6463 22.6667 11.3072 22.8072 11.0571 23.0572C10.8071 23.3073 10.6666 23.6464 10.6666 24V28H6.66659V4.00004H25.3333V28H21.3333Z" fill="#0F3849"/>
<path d="M15.9997 17.1005C14.3995 17.1005 12.8741 17.4458 11.4963 18.0634C7.88032 19.6837 5.25819 23.1951 4.80005 27.3717C4.80005 28.7904 5.84377 29.9395 7.22795 29.9395H24.7715C26.1562 29.9395 27.2 28.7904 27.2 27.3717C26.7414 23.1951 24.1186 19.6837 20.5034 18.0634C19.125 17.4458 17.6 17.1005 15.9997 17.1005Z" fill="white"/>
<path d="M26.1727 28.4143C26.1727 28.7291 25.9183 28.9834 25.6036 28.9834H22.8292C22.5145 28.9834 22.2601 28.7291 22.2601 28.4143C22.2601 28.0996 22.5145 27.8452 22.8292 27.8452H25.0168C24.722 23.1279 20.7901 19.3798 15.9999 19.3798C11.2098 19.3798 7.2778 23.1279 6.983 27.8452H9.17064C9.48479 27.8452 9.73975 28.0996 9.73975 28.4143C9.73975 28.7291 9.48479 28.9834 9.17064 28.9834H6.39625C6.08211 28.9834 5.82715 28.7291 5.82715 28.4143C5.82715 22.8052 10.3908 18.2416 15.9999 18.2416C21.609 18.2416 26.1727 22.8052 26.1727 28.4143ZM16.569 22.1542V21.016C16.569 20.7013 16.3141 20.4469 15.9999 20.4469C15.6858 20.4469 15.4308 20.7013 15.4308 21.016V22.1542C15.4308 22.4689 15.6858 22.7233 15.9999 22.7233C16.3141 22.7233 16.569 22.4689 16.569 22.1542ZM18.2052 24.5234C17.9326 24.3663 17.5849 24.4596 17.4278 24.7317L15.9561 27.2801C15.3489 27.304 14.8617 27.802 14.8617 28.4143C14.8617 28.7291 15.1167 28.9834 15.4308 28.9834H16.569C16.8837 28.9834 17.1381 28.7291 17.1381 28.4143C17.1381 28.1935 17.0721 27.9887 16.9628 27.8139L18.4135 25.3008C18.5711 25.0287 18.4778 24.6804 18.2052 24.5234ZM19.9837 21.5139C19.7111 21.3569 19.3633 21.4502 19.2063 21.7222L18.6371 22.7079C18.4801 22.9805 18.5734 23.3282 18.8454 23.4853C18.9348 23.5371 19.0327 23.5616 19.1294 23.5616C19.3263 23.5616 19.5176 23.4591 19.6228 23.277L20.1919 22.2913C20.3496 22.0193 20.2563 21.671 19.9837 21.5139ZM22.9003 24.4306C22.7427 24.158 22.3932 24.0647 22.1229 24.2223L21.1372 24.7914C20.8646 24.9485 20.7713 25.2962 20.9284 25.5688C21.0342 25.7509 21.2249 25.8534 21.4218 25.8534C21.5185 25.8534 21.6164 25.8289 21.7058 25.7771L22.6915 25.208C22.9641 25.0509 23.0574 24.7032 22.9003 24.4306ZM12.7936 21.7222C12.6359 21.4502 12.2882 21.3557 12.0162 21.5139C11.7441 21.671 11.6508 22.0193 11.8079 22.2913L12.377 23.277C12.4828 23.4591 12.6735 23.5616 12.8704 23.5616C12.9666 23.5616 13.0645 23.5371 13.1544 23.4853C13.4264 23.3282 13.5197 22.98 13.3627 22.7079L12.7936 21.7222ZM10.8632 24.7914L9.87747 24.2223C9.60544 24.0652 9.25715 24.158 9.10008 24.4306C8.943 24.7032 9.03634 25.0509 9.30837 25.208L10.2941 25.7771C10.3834 25.8289 10.4819 25.8534 10.578 25.8534C10.775 25.8534 10.9662 25.7515 11.0715 25.5688C11.2285 25.2962 11.1352 24.9485 10.8632 24.7914Z" fill="#0F3849"/>
</svg>
