<svg width="32" height="32" viewBox="0 0 32 32" fill="none" xmlns="http://www.w3.org/2000/svg">
<path d="M23 2C24.6569 2 26 3.34315 26 5V27C26 28.6569 24.6569 30 23 30H9C7.34315 30 6 28.6569 6 27V8.32843C6 7.53278 6.31607 6.76972 6.87868 6.20711L10.2071 2.87868C10.7697 2.31607 11.5328 2 12.3284 2H23ZM21 6V8C21 8.55228 21.4477 9 22 9C22.5523 9 23 8.55228 23 8V6C23 5.44772 22.5523 5 22 5C21.4477 5 21 5.44772 21 6ZM19 5C18.4477 5 18 5.44772 18 6V8C18 8.55228 18.4477 9 19 9C19.5523 9 20 8.55228 20 8V6C20 5.44772 19.5523 5 19 5ZM15 6V8C15 8.55228 15.4477 9 16 9C16.5523 9 17 8.55228 17 8V6C17 5.44772 16.5523 5 16 5C15.4477 5 15 5.44772 15 6ZM13 5C12.4477 5 12 5.44772 12 6V8C12 8.55228 12.4477 9 13 9C13.5523 9 14 8.55228 14 8V6C14 5.44772 13.5523 5 13 5Z" fill="black"/>
</svg>
