<svg width="32" height="32" viewBox="0 0 32 32" fill="none" xmlns="http://www.w3.org/2000/svg">
<path d="M23 4C23.5523 4 24 4.44771 24 5V27C24 27.5523 23.5523 28 23 28H9C8.44772 28 8 27.5523 8 27V8.32843C8 8.06321 8.10536 7.80886 8.29289 7.62132L11.6213 4.29289C11.8089 4.10536 12.0632 4 12.3284 4H23ZM26 5C26 3.34315 24.6569 2 23 2H12.3284C11.5328 2 10.7697 2.31607 10.2071 2.87868L6.87868 6.20711C6.31607 6.76972 6 7.53278 6 8.32843V27C6 28.6569 7.34315 30 9 30H23C24.6569 30 26 28.6569 26 27V5ZM21 6C21 5.44772 21.4477 5 22 5C22.5523 5 23 5.44772 23 6V8C23 8.55229 22.5523 9 22 9C21.4477 9 21 8.55229 21 8V6ZM19 5C18.4477 5 18 5.44772 18 6V8C18 8.55229 18.4477 9 19 9C19.5523 9 20 8.55229 20 8V6C20 5.44772 19.5523 5 19 5ZM15 6C15 5.44772 15.4477 5 16 5C16.5523 5 17 5.44772 17 6V8C17 8.55229 16.5523 9 16 9C15.4477 9 15 8.55229 15 8V6ZM13 5C12.4477 5 12 5.44772 12 6V8C12 8.55229 12.4477 9 13 9C13.5523 9 14 8.55229 14 8V6C14 5.44772 13.5523 5 13 5Z" fill="black"/>
</svg>
