<svg width="32" height="32" viewBox="0 0 32 32" fill="none" xmlns="http://www.w3.org/2000/svg">
<path d="M28.0188 26.5438L20.9375 19.4562C22.2375 17.8312 23.0188 15.7625 23.0188 13.5125C23.0188 8.25625 18.7625 4 13.5188 4C8.2688 4 4.0188 8.2625 4.0188 13.5125C4.0188 18.7625 8.27505 23.025 13.5188 23.025C15.7813 23.025 17.8563 22.2313 19.4875 20.9125L26.5625 28L28.0188 26.5438ZM7.5063 19.5375C5.90005 17.9313 5.0188 15.7938 5.0188 13.5188C5.0188 11.2438 5.9063 9.10625 7.5063 7.5C9.1063 5.89375 11.25 5 13.5188 5C15.7875 5 17.925 5.8875 19.5313 7.49375C21.1375 9.1 22.0188 11.2375 22.0188 13.5125C22.0188 15.7875 21.1313 17.925 19.5313 19.5312C17.925 21.1375 15.7875 22.025 13.5188 22.025C11.25 22.0312 9.11255 21.1438 7.5063 19.5375Z" fill="black"/>
</svg>
