<svg width="32" height="32" viewBox="0 0 32 32" fill="none" xmlns="http://www.w3.org/2000/svg">
<path d="M15.9998 4.00274L6.6591 8.31385C6.28563 8.48622 6.05581 8.86969 6.07987 9.2803L6.59697 18.1052C6.82527 22.0013 9.29934 25.4086 12.9334 26.8317L15.6852 27.9093C15.9196 28.0011 16.1801 28.0011 16.4145 27.9093L19.1334 26.8446C22.7815 25.4159 25.2593 21.9885 25.4721 18.0764L25.9502 9.29006C25.9725 8.88086 25.7428 8.4995 25.3707 8.32777L15.9998 4.00274ZM15.9998 2C16.2853 2 16.5674 2.06196 16.8266 2.18159L26.2089 6.51185C27.3251 7.02704 28.014 8.17113 27.9473 9.39872L27.4692 18.1851C27.2138 22.8796 24.2404 26.9925 19.8626 28.7069L17.1438 29.7716C16.4405 30.047 15.6592 30.047 14.9559 29.7716L12.2041 28.694C7.84324 26.9862 4.87435 22.8975 4.6004 18.2222L4.08329 9.3973C4.01111 8.16544 4.70059 7.01504 5.82098 6.49793L15.173 2.18159C15.4323 2.06196 15.7143 2 15.9998 2ZM11.0501 11.0502C11.4406 10.6597 12.0738 10.6597 12.4643 11.0502L15.9998 14.5858L19.5354 11.0502C19.9259 10.6597 20.5591 10.6597 20.9496 11.0502C21.3402 11.4407 21.3402 12.0739 20.9496 12.4644L17.4141 16L20.9496 19.5355C21.3401 19.9261 21.3401 20.5592 20.9496 20.9497C20.5591 21.3403 19.9259 21.3403 19.5354 20.9497L15.9998 17.4142L12.4643 20.9497C12.0738 21.3402 11.4407 21.3402 11.0501 20.9497C10.6596 20.5592 10.6596 19.926 11.0501 19.5355L14.5856 16L11.0501 12.4645C10.6596 12.0739 10.6596 11.4408 11.0501 11.0502Z" fill="black"/>
</svg>
