<svg width="32" height="32" viewBox="0 0 32 32" fill="none" xmlns="http://www.w3.org/2000/svg">
<path d="M16.0001 4.00274L6.65934 8.31385C6.28587 8.48622 6.05605 8.86969 6.08011 9.2803L6.59722 18.1052C6.82551 22.0013 9.29959 25.4086 12.9336 26.8317L15.6854 27.9093C15.9199 28.0011 16.1803 28.0011 16.4147 27.9093L19.1336 26.8446C22.7817 25.4159 25.2595 21.9885 25.4724 18.0764L25.9504 9.29006C25.9727 8.88086 25.7431 8.4995 25.371 8.32777L16.0001 4.00274ZM16.0001 2C16.2856 2 16.5677 2.06196 16.8269 2.18159L26.2091 6.51185C27.3253 7.02704 28.0143 8.17113 27.9475 9.39872L27.4694 18.1851C27.214 22.8796 24.2406 26.9925 19.8629 28.7069L17.144 29.7716C16.4407 30.047 15.6594 30.047 14.9561 29.7716L12.2044 28.694C7.84348 26.9862 4.8746 22.8975 4.60064 18.2222L4.08354 9.3973C4.01135 8.16544 4.70083 7.01504 5.82123 6.49793L15.1733 2.18159C15.4325 2.06196 15.7146 2 16.0001 2Z" fill="black"/>
</svg>
