<svg width="32" height="32" viewBox="0 0 32 32" fill="none" xmlns="http://www.w3.org/2000/svg">
<path d="M15.9999 4.00276V27.9769C16.1401 27.9839 16.2815 27.9614 16.4145 27.9093L19.1334 26.8446C22.7815 25.4159 25.2593 21.9885 25.4721 18.0764L25.9502 9.29006C25.9725 8.88086 25.7428 8.4995 25.3707 8.32777L15.9999 4.00276ZM15.9999 29.9778C15.6454 29.9718 15.2918 29.9031 14.9559 29.7716L12.2041 28.694C7.84324 26.9862 4.87435 22.8975 4.6004 18.2222L4.08329 9.3973C4.01111 8.16544 4.70059 7.01504 5.82098 6.49793L15.173 2.18159C15.4323 2.06196 15.7143 2 15.9998 2C15.9998 2 15.9999 2 15.9998 2C16.2853 2.00001 16.5674 2.06196 16.8266 2.18159L26.2089 6.51185C27.3251 7.02704 28.014 8.17113 27.9473 9.39872L27.4692 18.1851C27.2138 22.8796 24.2404 26.9925 19.8626 28.7069L17.1438 29.7716C16.7763 29.9155 16.3876 29.9842 15.9999 29.9778Z" fill="black"/>
</svg>
