<svg width="32" height="32" viewBox="0 0 32 32" fill="none" xmlns="http://www.w3.org/2000/svg">
<path d="M16.8266 2.18159C16.5674 2.06196 16.2853 2 15.9998 2C15.7143 2 15.4323 2.06196 15.173 2.18159L5.82098 6.49793C4.70059 7.01504 4.01111 8.16544 4.08329 9.3973L4.6004 18.2222C4.87435 22.8975 7.84324 26.9862 12.2041 28.694L14.9559 29.7716C15.6592 30.047 16.4405 30.047 17.1438 29.7716L19.8626 28.7069C24.2404 26.9925 27.2138 22.8796 27.4692 18.1851L27.9473 9.39872C28.014 8.17113 27.3251 7.02704 26.2089 6.51185L16.8266 2.18159ZM11.0501 11.0502C11.4406 10.6597 12.0738 10.6597 12.4643 11.0502L15.9998 14.5858L19.5354 11.0502C19.9259 10.6597 20.5591 10.6597 20.9496 11.0502C21.3402 11.4407 21.3402 12.0739 20.9496 12.4644L17.4141 16L20.9496 19.5355C21.3401 19.9261 21.3401 20.5592 20.9496 20.9497C20.5591 21.3403 19.9259 21.3403 19.5354 20.9497L15.9998 17.4142L12.4643 20.9497C12.0738 21.3402 11.4407 21.3402 11.0501 20.9497C10.6596 20.5592 10.6596 19.926 11.0501 19.5355L14.5856 16L11.0501 12.4645C10.6596 12.0739 10.6596 11.4408 11.0501 11.0502Z" fill="black"/>
</svg>
