<svg width="32" height="32" viewBox="0 0 32 32" fill="none" xmlns="http://www.w3.org/2000/svg">
<path d="M6.6591 8.31385L15.9998 4.00274L25.3707 8.32777C25.7428 8.4995 25.9725 8.88086 25.9502 9.29006L25.4721 18.0764C25.2593 21.9885 22.7815 25.4159 19.1334 26.8446L16.4145 27.9093C16.1801 28.0011 15.9196 28.0011 15.6852 27.9093L12.9334 26.8317C9.29934 25.4086 6.82527 22.0013 6.59697 18.1052L6.07987 9.2803C6.05581 8.86969 6.28563 8.48622 6.6591 8.31385ZM16.8266 2.18159C16.5674 2.06196 16.2853 2 15.9998 2C15.7143 2 15.4323 2.06196 15.173 2.18159L5.82098 6.49793C4.70059 7.01504 4.01111 8.16544 4.08329 9.3973L4.6004 18.2222C4.87435 22.8975 7.84324 26.9862 12.2041 28.694L14.9559 29.7716C15.6592 30.047 16.4405 30.047 17.1438 29.7716L19.8626 28.7069C24.2404 26.9925 27.2138 22.8796 27.4692 18.1851L27.9473 9.39872C28.014 8.17113 27.3251 7.02704 26.2089 6.51185L16.8266 2.18159ZM22.6455 12.7019C23.0331 12.3086 23.0285 11.6754 22.6351 11.2878C22.2418 10.9001 21.6086 10.9047 21.221 11.2981L14.1959 18.4264L11.8296 14.9085C11.5214 14.4503 10.9 14.3287 10.4417 14.6369C9.98347 14.9452 9.86186 15.5665 10.1701 16.0248L13.2194 20.5581C13.3869 20.8072 13.6574 20.9678 13.9563 20.9957C14.2552 21.0236 14.5507 20.9157 14.7614 20.7019L22.6455 12.7019Z" fill="black"/>
</svg>
