<svg width="32" height="32" viewBox="0 0 32 32" fill="none" xmlns="http://www.w3.org/2000/svg">
<path d="M15.9998 2C16.2853 2 16.5674 2.06196 16.8266 2.18159L26.2089 6.51185C27.3251 7.02704 28.014 8.17113 27.9473 9.39872L27.4692 18.1851C27.2138 22.8796 24.2404 26.9925 19.8626 28.7069L17.1438 29.7716C16.4405 30.047 15.6592 30.047 14.9559 29.7716L12.2041 28.694C7.84324 26.9862 4.87435 22.8975 4.6004 18.2222L4.08329 9.3973C4.01111 8.16544 4.70059 7.01504 5.82098 6.49793L15.173 2.18159C15.4323 2.06196 15.7143 2 15.9998 2ZM22.6455 12.7019C23.0331 12.3086 23.0285 11.6754 22.6351 11.2878C22.2418 10.9001 21.6086 10.9047 21.221 11.2981L14.1959 18.4264L11.8296 14.9085C11.5214 14.4503 10.9 14.3287 10.4417 14.6369C9.98347 14.9452 9.86186 15.5665 10.1701 16.0248L13.2194 20.5581C13.3869 20.8072 13.6574 20.9678 13.9563 20.9957C14.2552 21.0236 14.5507 20.9157 14.7614 20.7019L22.6455 12.7019Z" fill="black"/>
</svg>
