<svg width="32" height="32" viewBox="0 0 32 32" fill="none" xmlns="http://www.w3.org/2000/svg">
<path d="M15.9998 2C16.2853 2 16.5674 2.06196 16.8266 2.18159L26.2089 6.51185C27.3251 7.02704 28.014 8.17113 27.9473 9.39872L27.4692 18.1851C27.2138 22.8796 24.2404 26.9925 19.8626 28.7069L17.1438 29.7716C16.4405 30.047 15.6592 30.047 14.9559 29.7716L12.2041 28.694C7.84324 26.9862 4.87435 22.8975 4.6004 18.2222L4.08329 9.3973C4.01111 8.16544 4.70059 7.01504 5.82098 6.49793L15.173 2.18159C15.4323 2.06196 15.7143 2 15.9998 2ZM14.1989 10.9901L14.9003 18.005C14.9568 18.5698 15.4322 19 15.9998 19C16.5675 19 17.0429 18.5698 17.0994 18.005L17.8008 10.9901C17.9074 9.92457 17.0707 9 15.9998 9C14.929 9 14.0923 9.92457 14.1989 10.9901ZM17.4998 22.5C17.4998 21.6716 16.8283 21 15.9998 21C15.1714 21 14.4998 21.6716 14.4998 22.5C14.4998 23.3284 15.1714 24 15.9998 24C16.8283 24 17.4998 23.3284 17.4998 22.5Z" fill="black"/>
</svg>
