<svg width="32" height="32" viewBox="0 0 32 32" fill="none" xmlns="http://www.w3.org/2000/svg">
<path d="M23.7553 25.1575C23.7211 25.1312 23.6882 25.1024 23.6569 25.0711L6.83696 8.25114C5.06716 10.3418 4 13.0463 4 16C4 22.6274 9.37258 28 16 28C18.9568 28 21.6638 26.9306 23.7553 25.1575ZM25.1576 23.7553C26.9306 21.6637 28 18.9568 28 16C28 9.37258 22.6274 4 16 4C13.0463 4 10.3419 5.06715 8.25118 6.83693L25.0711 23.6569C25.1025 23.6882 25.1313 23.7211 25.1576 23.7553ZM30 16C30 23.732 23.732 30 16 30C8.26801 30 2 23.732 2 16C2 8.26801 8.26801 2 16 2C23.732 2 30 8.26801 30 16Z" fill="black"/>
</svg>
