<svg width="32" height="32" viewBox="0 0 32 32" fill="none" xmlns="http://www.w3.org/2000/svg">
<path d="M15 3C15 2.44771 15.4477 2 16 2C16.5523 2 17 2.44772 17 3V6.76256L18.3813 5.38128C18.723 5.03957 19.277 5.03957 19.6187 5.38128C19.9604 5.72299 19.9604 6.27701 19.6187 6.61872L17 9.23744V14.2679L21.3565 11.7527L22.315 8.17542C22.4401 7.70863 22.9199 7.43162 23.3867 7.5567C23.8535 7.68177 24.1305 8.16157 24.0054 8.62835L23.4998 10.5152L26.7583 8.63393C27.2366 8.35779 27.8482 8.52167 28.1243 8.99996C28.4004 9.47825 28.2366 10.0898 27.7583 10.366L24.4998 12.2473L26.3867 12.7528C26.8535 12.8779 27.1305 13.3577 27.0054 13.8245C26.8803 14.2913 26.4005 14.5683 25.9337 14.4432L22.3565 13.4847L18 16L23.2226 19.0152L26.7998 18.0567C27.2666 17.9316 27.7464 18.2087 27.8715 18.6754C27.9965 19.1422 27.7195 19.622 27.2528 19.7471L25.3659 20.2527L27.7583 21.634C28.2366 21.9101 28.4005 22.5217 28.1244 23C27.8482 23.4783 27.2366 23.6421 26.7583 23.366L24.3659 21.9847L24.8715 23.8716C24.9965 24.3384 24.7195 24.8182 24.2528 24.9432C23.786 25.0683 23.3062 24.7913 23.1811 24.3245L22.2226 20.7473L17 17.732V23.7626L19.6187 26.3813C19.9604 26.723 19.9604 27.277 19.6187 27.6187C19.277 27.9604 18.723 27.9604 18.3813 27.6187L17 26.2374V29C17 29.5523 16.5523 30 16 30C15.4477 30 15 29.5523 15 29V26.2374L13.6187 27.6187C13.277 27.9604 12.723 27.9604 12.3813 27.6187C12.0396 27.277 12.0396 26.723 12.3813 26.3813L15 23.7626V17.732L9.77738 20.7473L8.81886 24.3245C8.69378 24.7913 8.21399 25.0683 7.74721 24.9432C7.28042 24.8181 7.00341 24.3384 7.12849 23.8716L7.63407 21.9847L5.24162 23.366C4.76333 23.6421 4.15174 23.4783 3.8756 23C3.59945 22.5217 3.76333 21.9101 4.24162 21.6339L6.63407 20.2527L4.74721 19.7471C4.28042 19.622 4.00341 19.1422 4.12849 18.6754C4.25356 18.2086 4.73336 17.9316 5.20014 18.0567L8.77738 19.0152L14 16L9.64345 13.4847L6.06622 14.4432C5.59944 14.5683 5.11964 14.2913 4.99457 13.8245C4.86949 13.3577 5.1465 12.8779 5.61329 12.7529L7.50015 12.2473L4.24168 10.366C3.76338 10.0899 3.59951 9.47827 3.87565 8.99998C4.15179 8.52169 4.76338 8.35781 5.24168 8.63396L8.50015 10.5152L7.99457 8.62837C7.86949 8.16159 8.1465 7.68179 8.61329 7.55672C9.08007 7.43164 9.55986 7.70865 9.68494 8.17544L10.6435 11.7527L15 14.2679V9.23744L12.3813 6.61872C12.0396 6.27701 12.0396 5.72299 12.3813 5.38128C12.723 5.03957 13.277 5.03957 13.6187 5.38128L15 6.76256V3Z" fill="black"/>
</svg>
