<svg width="32" height="32" viewBox="0 0 32 32" fill="none" xmlns="http://www.w3.org/2000/svg">
<path d="M10.6546 19.4836C11.1374 21.1984 11.5971 22.8308 12.6066 22.8309C13.6161 22.8309 14.0753 21.1986 14.5576 19.484C14.9388 18.1293 15.3343 16.7231 16.0273 16.0301C16.7207 15.3367 18.1247 14.9411 19.4779 14.5598C21.1887 14.0777 22.8183 13.6185 22.8281 12.6094C22.8378 11.5994 21.2028 11.1398 19.4842 10.6567C18.1277 10.2754 16.7192 9.87947 16.0265 9.18673C15.3333 8.49358 14.9373 7.08728 14.5558 5.7324C14.0729 4.01766 13.6133 2.38527 12.6038 2.38513C11.5943 2.38499 11.1351 4.01727 10.6528 5.73189C10.2716 7.0867 9.87605 8.49293 9.18308 9.18589C8.49012 9.87885 7.08391 10.2744 5.7291 10.6555C4.01447 11.1379 2.38218 11.5971 2.38232 12.6066C2.38246 13.6161 4.01486 14.0758 5.72961 14.5586C7.08449 14.9401 8.49077 15.3361 9.18392 16.0293C9.87706 16.7224 10.273 18.1287 10.6546 19.4836ZM21.7697 27.6557C22.0916 28.7989 22.398 29.8872 23.0711 29.8872C23.7441 29.8873 24.0502 28.7991 24.3718 27.656C24.6258 26.7528 24.8896 25.8154 25.3515 25.3534C25.8138 24.8912 26.7498 24.6274 27.6519 24.3732C28.7925 24.0518 29.8789 23.7457 29.8854 23.073C29.8919 22.3996 28.8018 22.0932 27.6561 21.7711C26.7518 21.5169 25.8128 21.253 25.351 20.7912C24.8889 20.3291 24.6249 19.3915 24.3705 18.4883C24.0486 17.3451 23.7422 16.2569 23.0692 16.2568C22.3962 16.2567 22.0901 17.3449 21.7685 18.4879C21.5144 19.3911 21.2507 20.3286 20.7887 20.7906C20.3268 21.2526 19.3893 21.5163 18.4861 21.7704C17.343 22.0919 16.2548 22.398 16.2549 23.0711C16.255 23.7441 17.3433 24.0505 18.4864 24.3724C19.3897 24.6268 20.3272 24.8908 20.7893 25.3529C21.2514 25.8149 21.5154 26.7525 21.7697 27.6557Z" fill="black"/>
</svg>
