<svg width="32" height="32" viewBox="0 0 32 32" fill="none" xmlns="http://www.w3.org/2000/svg">
<path d="M13.3562 21.1432C13.3561 21.1438 13.3513 21.1381 13.3419 21.1242C13.3515 21.1357 13.3562 21.1426 13.3562 21.1432ZM12.5926 18.9867L12.6062 19.0348L12.6194 18.9876C12.7873 18.3903 12.9814 17.6998 13.2004 17.0845C13.4698 16.3275 13.8867 15.3423 14.6131 14.6159C15.3387 13.8902 16.3217 13.4733 17.0781 13.2036C17.6932 12.9843 18.3833 12.7899 18.9802 12.6219L19.032 12.6073L18.9884 12.5951C18.3907 12.4272 17.6998 12.2331 17.0843 12.0144C16.3265 11.745 15.3393 11.328 14.6122 10.6009C13.8859 9.87463 13.4688 8.88962 13.1992 8.1325C12.9801 7.51718 12.7858 6.82668 12.6177 6.22934L12.6042 6.18122L12.591 6.22832C12.4231 6.82563 12.229 7.51615 12.01 8.13147C11.7406 8.88851 11.3237 9.87371 10.5973 10.6001C9.8709 11.3265 8.8857 11.7434 8.12866 12.0128C7.51335 12.2318 6.82283 12.4259 6.22553 12.5937L6.17837 12.607L6.22654 12.6206C6.82387 12.7886 7.51437 12.9829 8.12969 13.202C8.8868 13.4716 9.87182 13.8887 10.5981 14.615C11.3245 15.3414 11.7415 16.3264 12.0112 17.0835C12.2303 17.6988 12.4246 18.3893 12.5926 18.9867ZM21.1441 13.3566C21.1435 13.3567 21.1368 13.3522 21.1257 13.3429C21.1391 13.3519 21.1447 13.3566 21.1441 13.3566ZM21.1176 11.872C21.1293 11.862 21.1364 11.8572 21.1371 11.8572C21.1377 11.8573 21.1319 11.8623 21.1176 11.872ZM13.3536 4.07243C13.3537 4.07304 13.349 4.07996 13.3394 4.09135C13.3487 4.07752 13.3535 4.07182 13.3536 4.07243ZM11.8685 4.09177C11.8588 4.08035 11.8541 4.07341 11.8542 4.07279C11.8542 4.07218 11.8591 4.07789 11.8685 4.09177ZM4.06999 11.857C4.07061 11.8569 4.07754 11.8616 4.08897 11.8713C4.07509 11.8619 4.06938 11.8571 4.06999 11.857ZM4.08855 13.3422C4.07716 13.3518 4.07025 13.3565 4.06964 13.3564C4.06903 13.3563 4.07472 13.3515 4.08855 13.3422ZM11.871 21.1246C11.8616 21.1384 11.8568 21.1441 11.8568 21.1435C11.8567 21.1429 11.8614 21.136 11.871 21.1246ZM12.6066 22.8309C11.5971 22.8308 11.1374 21.1984 10.6546 19.4836C10.273 18.1287 9.87706 16.7224 9.18392 16.0293C8.49077 15.3361 7.08449 14.9401 5.72961 14.5586C4.01486 14.0758 2.38246 13.6161 2.38232 12.6066C2.38218 11.5971 4.01447 11.1379 5.7291 10.6555C7.08391 10.2744 8.49012 9.87885 9.18308 9.18589C9.87605 8.49293 10.2716 7.0867 10.6528 5.73189C11.1351 4.01727 11.5943 2.38499 12.6038 2.38513C13.6133 2.38527 14.0729 4.01766 14.5558 5.7324C14.9373 7.08728 15.3333 8.49357 16.0265 9.18673C16.7192 9.87947 18.1277 10.2754 19.4842 10.6567C21.2028 11.1398 22.8378 11.5994 22.8281 12.6094C22.8183 13.6185 21.1887 14.0777 19.4779 14.5598C18.1247 14.9411 16.7207 15.3367 16.0273 16.0301C15.3343 16.7231 14.9388 18.1293 14.5576 19.484C14.0753 21.1986 13.6161 22.8309 12.6066 22.8309ZM24.1247 28.3938C24.1247 28.3941 24.1216 28.3896 24.1156 28.3793C24.1218 28.3884 24.1247 28.3935 24.1247 28.3938ZM22.2035 23.9386C22.6027 24.3379 22.8772 24.8191 23.0706 25.2496C23.2639 24.8192 23.5383 24.3382 23.9373 23.9392C24.3365 23.54 24.8175 23.2655 25.2478 23.0721C24.8171 22.8788 24.3358 22.6044 23.9368 22.2054C23.5375 21.8062 23.263 21.3249 23.0697 20.8944C22.8764 21.3248 22.602 21.8058 22.2029 22.2048C21.8039 22.6039 21.3229 22.8782 20.8925 23.0715C21.3231 23.2649 21.8043 23.5394 22.2035 23.9386ZM28.3948 24.1254C28.3945 24.1254 28.3897 24.1226 28.3813 24.1169C28.3909 24.1225 28.3951 24.1254 28.3948 24.1254ZM28.3894 22.0178C28.3891 22.0178 28.3836 22.021 28.3741 22.0274C28.3811 22.0234 28.3856 22.0206 28.3878 22.0191C28.389 22.0183 28.3895 22.0178 28.3894 22.0178ZM24.1231 17.7498C24.1232 17.7501 24.1202 17.7552 24.1141 17.7642C24.12 17.754 24.1231 17.7495 24.1231 17.7498ZM22.0246 17.7647C22.0185 17.7557 22.0155 17.7505 22.0155 17.7502C22.0156 17.7499 22.0186 17.7544 22.0246 17.7647ZM17.7483 22.0174C17.7487 22.0174 17.7538 22.0204 17.7628 22.0265C17.7525 22.0205 17.748 22.0175 17.7483 22.0174ZM17.7547 24.121C17.7568 24.1197 17.7594 24.118 17.7624 24.116C17.7521 24.1219 17.7476 24.1249 17.748 24.125C17.7482 24.125 17.7505 24.1237 17.7547 24.121ZM22.0262 28.3798C22.0202 28.39 22.0172 28.3945 22.0172 28.3942C22.0171 28.3938 22.0201 28.3887 22.0262 28.3798ZM23.0711 29.8872C22.398 29.8872 22.0916 28.7989 21.7697 27.6557C21.5154 26.7525 21.2514 25.8149 20.7893 25.3529C20.3272 24.8908 19.3897 24.6268 18.4864 24.3724C17.3433 24.0505 16.255 23.7441 16.2549 23.0711C16.2548 22.398 17.343 22.0919 18.4861 21.7704C19.3893 21.5163 20.3268 21.2526 20.7887 20.7906C21.2507 20.3286 21.5144 19.3911 21.7685 18.4879C22.0901 17.3449 22.3962 16.2567 23.0692 16.2568C23.7422 16.2569 24.0486 17.3451 24.3705 18.4883C24.6249 19.3915 24.8889 20.3291 25.351 20.7912C25.8128 21.253 26.7518 21.5169 27.6561 21.7712C28.8018 22.0932 29.8919 22.3996 29.8854 23.073C29.8789 23.7457 28.7925 24.0518 27.6519 24.3732C26.7498 24.6274 25.8138 24.8912 25.3515 25.3534C24.8896 25.8154 24.6258 26.7528 24.3718 27.656C24.0502 28.7991 23.7441 29.8873 23.0711 29.8872Z" fill="black"/>
</svg>
