<svg width="32" height="32" viewBox="0 0 32 32" fill="none" xmlns="http://www.w3.org/2000/svg">
<path d="M5.70711 4.29289C5.31658 3.90237 4.68342 3.90237 4.29289 4.29289C3.90237 4.68342 3.90237 5.31658 4.29289 5.70711L26.2929 27.7071C26.6834 28.0976 27.3166 28.0976 27.7071 27.7071C28.0976 27.3166 28.0976 26.6834 27.7071 26.2929L5.70711 4.29289ZM8 12.5C8 12.4172 8.00403 12.3353 8.0119 12.2545L22.1529 26.3955C21.9391 26.3445 21.7298 26.2432 21.5397 26.0848L16.777 22.1159C16.6872 22.041 16.5739 22 16.4569 22H10.5C9.11929 22 8 20.8807 8 19.5V12.5ZM24 7.0675V19.7574L14.2426 9.99998H16.4569C16.5739 9.99998 16.6872 9.95897 16.777 9.88409L21.5397 5.91517C22.5167 5.10101 24 5.79575 24 7.0675Z" fill="black"/>
</svg>
