<svg width="32" height="32" viewBox="0 0 32 32" fill="none" xmlns="http://www.w3.org/2000/svg">
<path d="M18 7.06756C18 5.79581 16.5167 5.10107 15.5397 5.91523L10.777 9.88415C10.6872 9.95904 10.5739 10 10.4569 10H4.5C3.11929 10 2 11.1193 2 12.5V19.5C2 20.8808 3.11929 22 4.5 22H10.4569C10.5739 22 10.6872 22.0411 10.777 22.1159L15.5397 26.0849C16.5167 26.899 18 26.2043 18 24.9325V7.06756ZM20 11.5001C20 10.9478 20.4477 10.5001 21 10.5001C21.5523 10.5001 22 10.9478 22 11.5001V20.5001C22 21.0523 21.5523 21.5001 21 21.5001C20.4477 21.5001 20 21.0523 20 20.5001V11.5001Z" fill="black"/>
</svg>
