<svg width="32" height="32" viewBox="0 0 32 32" fill="none" xmlns="http://www.w3.org/2000/svg">
<path d="M12.0574 11.4206L16 8.13509V23.865L12.0574 20.5795C11.6081 20.2051 11.0418 20 10.4569 20H4.5C4.22386 20 4 19.7762 4 19.5V12.5C4 12.2239 4.22386 12 4.5 12H10.4569C11.0418 12 11.6081 11.795 12.0574 11.4206ZM18 7.06756C18 5.79581 16.5167 5.10107 15.5397 5.91523L10.777 9.88415C10.6872 9.95904 10.5739 10 10.4569 10H4.5C3.11929 10 2 11.1193 2 12.5V19.5C2 20.8808 3.11929 22 4.5 22H10.4569C10.5739 22 10.6872 22.0411 10.777 22.1159L15.5397 26.0849C16.5167 26.899 18 26.2043 18 24.9325V7.06756ZM28 7.00006C28 6.44778 28.4477 6.00006 29 6.00006C29.5523 6.00006 30 6.44778 30 7.00006V25.0001C30 25.5523 29.5523 26.0001 29 26.0001C28.4477 26.0001 28 25.5523 28 25.0001V7.00006ZM25 8.00006C24.4477 8.00006 24 8.44778 24 9.00006V23.0001C24 23.5523 24.4477 24.0001 25 24.0001C25.5523 24.0001 26 23.5523 26 23.0001V9.00006C26 8.44778 25.5523 8.00006 25 8.00006ZM21 10.5001C20.4477 10.5001 20 10.9478 20 11.5001V20.5001C20 21.0523 20.4477 21.5001 21 21.5001C21.5523 21.5001 22 21.0523 22 20.5001V11.5001C22 10.9478 21.5523 10.5001 21 10.5001Z" fill="black"/>
</svg>
