<svg width="32" height="32" viewBox="0 0 32 32" fill="none" xmlns="http://www.w3.org/2000/svg">
<path d="M15.5397 5.91523C16.5167 5.10107 18 5.79581 18 7.06756V24.9325C18 26.2043 16.5167 26.899 15.5397 26.0849L10.777 22.1159C10.6872 22.0411 10.5739 22 10.4569 22H4.5C3.11929 22 2 20.8808 2 19.5V12.5C2 11.1193 3.11929 10 4.5 10H10.4569C10.5739 10 10.6872 9.95904 10.777 9.88415L15.5397 5.91523ZM28 7.00006C28 6.44778 28.4477 6.00006 29 6.00006C29.5523 6.00006 30 6.44778 30 7.00006V25.0001C30 25.5523 29.5523 26.0001 29 26.0001C28.4477 26.0001 28 25.5523 28 25.0001V7.00006ZM25 8.00006C24.4477 8.00006 24 8.44778 24 9.00006V23.0001C24 23.5523 24.4477 24.0001 25 24.0001C25.5523 24.0001 26 23.5523 26 23.0001V9.00006C26 8.44778 25.5523 8.00006 25 8.00006ZM21 10.5001C20.4477 10.5001 20 10.9478 20 11.5001V20.5001C20 21.0523 20.4477 21.5001 21 21.5001C21.5523 21.5001 22 21.0523 22 20.5001V11.5001C22 10.9478 21.5523 10.5001 21 10.5001Z" fill="black"/>
</svg>
