<svg width="32" height="32" viewBox="0 0 32 32" fill="none" xmlns="http://www.w3.org/2000/svg">
<path d="M5.70711 4.29289C5.31658 3.90237 4.68342 3.90237 4.29289 4.29289C3.90237 4.68342 3.90237 5.31658 4.29289 5.70711L26.2929 27.7071C26.6834 28.0976 27.3166 28.0976 27.7071 27.7071C28.0976 27.3166 28.0976 26.6834 27.7071 26.2929L5.70711 4.29289ZM8 12.5C8 12.4172 8.00403 12.3353 8.0119 12.2545L10 14.2426V19.5C10 19.7761 10.2239 20 10.5 20H15.7574L22.1529 26.3955C21.9391 26.3445 21.7298 26.2432 21.5397 26.0848L16.777 22.1159C16.6872 22.041 16.5739 22 16.4569 22H10.5C9.11929 22 8 20.8807 8 19.5V12.5ZM22 8.13502V17.7573L24 19.7573V7.0675C24 5.79575 22.5167 5.10101 21.5397 5.91517L16.777 9.88409C16.6872 9.95897 16.5739 9.99998 16.4569 9.99998H14.2426L16.2426 12H16.4569C17.0418 12 17.6081 11.7949 18.0574 11.4205L22 8.13502Z" fill="black"/>
</svg>
