<svg width="32" height="32" viewBox="0 0 32 32" fill="none" xmlns="http://www.w3.org/2000/svg">
<path d="M4 7C4 5.34315 5.34315 4 7 4H7.5C8.05229 4 8.5 4.44772 8.5 5C8.5 5.55228 8.05229 6 7.5 6H7C6.44772 6 6 6.44772 6 7V7.5C6 8.05229 5.55229 8.5 5 8.5C4.44772 8.5 4 8.05229 4 7.5V7ZM25 4C26.6569 4 28 5.34315 28 7V7.5C28 8.05229 27.5523 8.5 27 8.5C26.4477 8.5 26 8.05229 26 7.5V7C26 6.44772 25.5523 6 25 6H24.5C23.9477 6 23.5 5.55228 23.5 5C23.5 4.44772 23.9477 4 24.5 4H25ZM28 25C28 26.6569 26.6569 28 25 28H24.5C23.9477 28 23.5 27.5523 23.5 27C23.5 26.4477 23.9477 26 24.5 26H25C25.5523 26 26 25.5523 26 25V24.5C26 23.9477 26.4477 23.5 27 23.5C27.5523 23.5 28 23.9477 28 24.5V25ZM7 28C5.34315 28 4 26.6569 4 25V24.5C4 23.9477 4.44772 23.5 5 23.5C5.55229 23.5 6 23.9477 6 24.5V25C6 25.5523 6.44772 26 7 26H7.5C8.05229 26 8.5 26.4477 8.5 27C8.5 27.5523 8.05229 28 7.5 28H7ZM10.5 27C10.5 26.4477 10.9477 26 11.5 26H13.75C14.3023 26 14.75 26.4477 14.75 27C14.75 27.5523 14.3023 28 13.75 28H11.5C10.9477 28 10.5 27.5523 10.5 27ZM18.25 26C17.6977 26 17.25 26.4477 17.25 27C17.25 27.5523 17.6977 28 18.25 28H20.5C21.0523 28 21.5 27.5523 21.5 27C21.5 26.4477 21.0523 26 20.5 26H18.25ZM11.5 4C10.9477 4 10.5 4.44772 10.5 5C10.5 5.55228 10.9477 6 11.5 6H13.75C14.3023 6 14.75 5.55228 14.75 5C14.75 4.44772 14.3023 4 13.75 4H11.5ZM17.25 5C17.25 4.44772 17.6977 4 18.25 4H20.5C21.0523 4 21.5 4.44772 21.5 5C21.5 5.55228 21.0523 6 20.5 6H18.25C17.6977 6 17.25 5.55228 17.25 5ZM27 10.5C27.5523 10.5 28 10.9477 28 11.5V13.75C28 14.3023 27.5523 14.75 27 14.75C26.4477 14.75 26 14.3023 26 13.75V11.5C26 10.9477 26.4477 10.5 27 10.5ZM28 18.25C28 17.6977 27.5523 17.25 27 17.25C26.4477 17.25 26 17.6977 26 18.25V20.5C26 21.0523 26.4477 21.5 27 21.5C27.5523 21.5 28 21.0523 28 20.5V18.25ZM6 11.5C6 10.9477 5.55229 10.5 5 10.5C4.44772 10.5 4 10.9477 4 11.5V13.75C4 14.3023 4.44772 14.75 5 14.75C5.55229 14.75 6 14.3023 6 13.75L6 11.5ZM5 17.25C5.55228 17.25 6 17.6977 6 18.25L6 20.5C6 21.0523 5.55228 21.5 5 21.5C4.44772 21.5 4 21.0523 4 20.5V18.25C4 17.6977 4.44772 17.25 5 17.25Z" fill="black"/>
</svg>
