<svg width="32" height="32" viewBox="0 0 32 32" fill="none" xmlns="http://www.w3.org/2000/svg">
<path d="M20.6719 18.4384C20.4671 18.3808 20.2367 18.4704 20.1279 18.6624L17.2223 23.6928L14.3167 18.6624C14.2079 18.4704 13.9839 18.3808 13.7727 18.4384C8.24313 19.968 4.35193 25.0496 4.30713 30.7968C4.30713 30.9248 4.35833 31.0464 4.44793 31.136C4.53753 31.2256 4.65913 31.2768 4.78713 31.2768H29.6511C29.7791 31.2768 29.9007 31.2256 29.9903 31.136C30.0799 31.0464 30.1311 30.9248 30.1311 30.7968C30.0927 25.0496 26.2015 19.968 20.6719 18.4384ZM25.2927 30.3232V27.9168C25.2927 27.6544 25.0751 27.4368 24.8127 27.4368C24.5503 27.4368 24.3327 27.6544 24.3327 27.9168V30.3232H10.1119V27.9168C10.1119 27.6544 9.89433 27.4368 9.63193 27.4368C9.36953 27.4368 9.15193 27.6544 9.15193 27.9168V30.3232H5.27993C5.51673 25.3248 8.89593 20.9536 13.6767 19.4688L16.8063 24.896C16.8895 25.0432 17.0495 25.1392 17.2223 25.1392C17.3951 25.1392 17.5551 25.0496 17.6383 24.896L20.7679 19.4688C25.5423 20.9472 28.9215 25.3248 29.1583 30.3168H25.2927V30.3232Z" fill="black"/>
<path d="M9.01125 10.8416L11.2512 11.264C11.3728 11.6736 11.5328 12.064 11.7376 12.4416L10.4512 14.3296C10.3232 14.5216 10.3424 14.7776 10.5088 14.9376L11.7632 16.192C11.9296 16.352 12.1856 16.3776 12.3712 16.2496L14.2593 14.9632C14.6369 15.168 15.0273 15.3344 15.4369 15.4496L15.8593 17.696C15.9041 17.92 16.1025 18.0864 16.3329 18.0864H18.1057C18.3361 18.0864 18.5345 17.92 18.5793 17.696L19.0017 15.4496C19.4113 15.328 19.8017 15.168 20.1793 14.9632L22.0672 16.2496C22.2592 16.3776 22.5153 16.3584 22.6753 16.192L23.9296 14.9376C24.0896 14.7776 24.1152 14.5216 23.9872 14.3296L22.7009 12.4416C22.9057 12.064 23.072 11.6736 23.1872 11.264L25.4272 10.8416C25.6512 10.7968 25.8176 10.5984 25.8176 10.368V8.59525C25.8176 8.36485 25.6512 8.16645 25.4272 8.12165L23.1872 7.69925C23.0656 7.28965 22.9057 6.89925 22.7009 6.52165L23.9872 4.64005C24.1152 4.44805 24.096 4.19205 23.9296 4.03205L22.6753 2.77765C22.5089 2.61125 22.2529 2.59205 22.0609 2.72005L20.1793 4.01285C19.8081 3.80805 19.4113 3.64805 19.0017 3.52645L18.5793 1.28005C18.5345 1.05605 18.3361 0.889648 18.1057 0.889648H16.3329C16.1025 0.889648 15.9041 1.05605 15.8593 1.28005L15.4369 3.52645C15.0273 3.64805 14.6305 3.80805 14.2593 4.01285L12.3776 2.72005C12.1856 2.59205 11.9296 2.61125 11.7632 2.77765L10.5088 4.03205C10.3488 4.19205 10.3232 4.44805 10.4512 4.64005L11.7376 6.52165C11.5328 6.89925 11.3664 7.28965 11.2512 7.69925L9.01125 8.12165C8.78725 8.16645 8.62085 8.36485 8.62085 8.59525V10.368C8.62085 10.5984 8.78725 10.7968 9.01125 10.8416ZM9.58085 8.99205L11.7248 8.58885C11.9104 8.55685 12.0576 8.40965 12.1024 8.23045C12.224 7.71205 12.4289 7.21925 12.7105 6.75845C12.8128 6.59845 12.8064 6.39365 12.6976 6.23365L11.4688 4.42885L12.16 3.73765L13.9648 4.97285C14.1248 5.08165 14.3232 5.08165 14.4896 4.98565C14.944 4.70405 15.4433 4.49925 15.9681 4.37765C16.1537 4.33285 16.2945 4.18565 16.3265 4.00005L16.7296 1.84965H17.7088L18.1121 4.00005C18.144 4.18565 18.2913 4.33285 18.4705 4.37765C18.9953 4.50565 19.4945 4.71045 19.9489 4.98565C20.1089 5.08805 20.3137 5.08165 20.4737 4.97285L22.2785 3.73765L22.9696 4.42885L21.7409 6.23365C21.6321 6.38725 21.6321 6.59205 21.7281 6.75845C22.0097 7.21925 22.2145 7.71205 22.3361 8.23045C22.3809 8.41605 22.5281 8.55685 22.7137 8.58885L24.8577 8.99205V9.97125L22.7137 10.3744C22.5281 10.4064 22.3809 10.5536 22.3361 10.7328C22.2145 11.2512 22.0097 11.7504 21.7281 12.2048C21.6257 12.3648 21.6321 12.5696 21.7409 12.7296L22.9761 14.5408L22.2848 15.232L20.4737 13.9968C20.3201 13.888 20.1152 13.888 19.9552 13.984C19.4944 14.2656 19.0016 14.4704 18.4832 14.592C18.2976 14.6368 18.1568 14.784 18.1249 14.9696L17.7217 17.12H16.7424L16.3393 14.9696C16.3073 14.784 16.16 14.6368 15.9808 14.592C15.4624 14.4704 14.9696 14.2656 14.5089 13.984C14.3488 13.888 14.1441 13.888 13.9905 13.9968L12.1793 15.232L11.4881 14.5408L12.7232 12.7296C12.832 12.576 12.832 12.3712 12.736 12.2048C12.4544 11.7504 12.2497 11.2512 12.1281 10.7328C12.0833 10.5472 11.9361 10.4064 11.7505 10.3744L9.60645 9.97125V8.99205H9.58085Z" fill="black"/>
<path d="M17.2222 12.6209C18.9566 12.6209 20.3646 11.2129 20.3646 9.47846C20.3646 7.74406 18.9566 6.33606 17.2222 6.33606C15.4878 6.33606 14.0798 7.75046 14.0798 9.48486C14.0798 11.2193 15.4942 12.6209 17.2222 12.6209ZM17.2222 7.30246C18.4254 7.30246 19.4046 8.28166 19.4046 9.48486C19.4046 10.6881 18.4254 11.6673 17.2222 11.6673C16.019 11.6673 15.0398 10.6881 15.0398 9.48486C15.0398 8.28166 16.019 7.30246 17.2222 7.30246Z" fill="black"/>
</svg>
