<svg width="32" height="32" viewBox="0 0 32 32" fill="none" xmlns="http://www.w3.org/2000/svg">
<path d="M14.6131 5.24211C15.123 4.00361 16.8771 4.0036 17.3871 5.24211L20.1698 12H26.2212C27.5867 12 28.242 13.6761 27.2387 14.6022L22.1622 19.2882L24.4673 25.8191C24.9396 27.1575 23.4613 28.3426 22.2578 27.5904L16.0001 23.6793L9.74236 27.5904C8.5388 28.3426 7.06051 27.1575 7.53288 25.8191L9.83792 19.2882L4.76148 14.6022C3.75813 13.6761 4.41344 12 5.7789 12H11.8304L14.6131 5.24211ZM16.0001 7.12643L13.5522 13.0712C13.3208 13.6332 12.7731 14 12.1652 14H7.05772L11.4364 18.0419C11.8768 18.4484 12.033 19.0781 11.8335 19.6433L9.89466 25.1367L15.2051 21.8177C15.6915 21.5137 16.3087 21.5137 16.7951 21.8177L22.1055 25.1367L20.1667 19.6433C19.9672 19.0781 20.1233 18.4484 20.5637 18.0419L24.9424 14H19.8349C19.2271 14 18.6793 13.6332 18.4479 13.0712L16.0001 7.12643Z" fill="black"/>
</svg>
