<svg width="32" height="32" viewBox="0 0 32 32" fill="none" xmlns="http://www.w3.org/2000/svg">
<path d="M23.9792 9.99344C24.1724 10.6794 24.3562 11.3323 24.7601 11.3323C25.1639 11.3324 25.3475 10.6795 25.5405 9.99362C25.6929 9.4517 25.8511 8.88923 26.1283 8.61204C26.4057 8.33469 26.9673 8.17644 27.5086 8.02391C28.1929 7.83107 28.8447 7.64739 28.8486 7.24376C28.8525 6.83977 28.1985 6.65592 27.5111 6.46268C26.9685 6.31016 26.4051 6.15179 26.128 5.87469C25.8507 5.59743 25.6923 5.03491 25.5397 4.49296C25.3466 3.80707 25.1627 3.15411 24.7589 3.15405C24.3551 3.154 24.1715 3.80691 23.9785 4.49276C23.8261 5.03468 23.6678 5.59717 23.3906 5.87436C23.1135 6.15154 22.551 6.30977 22.0091 6.46222C21.3232 6.65515 20.6703 6.83882 20.6703 7.24263C20.6704 7.64645 21.3234 7.83031 22.0093 8.02345C22.5512 8.17605 23.1137 8.33445 23.391 8.61171C23.6682 8.88896 23.8266 9.45148 23.9792 9.99344ZM17.7929 9.79272C18.1835 9.40219 18.8166 9.40219 19.2072 9.79272L22.0356 12.6211C22.4261 13.0117 22.4261 13.6448 22.0356 14.0354L7.89344 28.1775C7.50292 28.568 6.86975 28.568 6.47923 28.1775L3.6508 25.3491C3.26028 24.9585 3.26028 24.3254 3.6508 23.9349L17.7929 9.79272ZM18.5 11.914L15.6716 14.7424L17.0859 16.1567L19.9143 13.3282L18.5 11.914ZM24.7541 24.845C24.3503 24.845 24.1664 24.192 23.9733 23.5061C23.8207 22.9642 23.6623 22.4017 23.385 22.1244C23.1077 21.8471 22.5452 21.6888 22.0033 21.5361C21.3174 21.343 20.6644 21.1591 20.6644 20.7553C20.6643 20.3515 21.3172 20.1679 22.0031 19.9749C22.545 19.8225 23.1075 19.6642 23.3847 19.3871C23.6619 19.1099 23.8201 18.5474 23.9725 18.0055C24.1655 17.3196 24.3491 16.6667 24.7529 16.6667C25.1567 16.6668 25.3406 17.3198 25.5338 18.0057C25.6864 18.5476 25.8448 19.1101 26.122 19.3874C26.3991 19.6645 26.9625 19.8229 27.5051 19.9754C28.1925 20.1686 28.8466 20.3525 28.8427 20.7565C28.8388 21.1601 28.1869 21.3438 27.5026 21.5366C26.9613 21.6891 26.3997 21.8474 26.1224 22.1247C25.8452 22.4019 25.6869 22.9644 25.5345 23.5063C25.3416 24.1922 25.1579 24.8451 24.7541 24.845ZM8.4619 11.9934C8.65504 12.6794 8.8389 13.3323 9.24272 13.3323C9.64653 13.3324 9.8302 12.6795 10.0231 11.9936C10.1756 11.4517 10.3338 10.8892 10.611 10.612C10.8883 10.3347 11.4499 10.1764 11.9912 10.0239C12.6755 9.83107 13.3274 9.64739 13.3313 9.24376C13.3352 8.83977 12.6812 8.65592 11.9938 8.46268C11.4512 8.31016 10.8878 8.15179 10.6107 7.87469C10.3334 7.59743 10.175 7.03491 10.0224 6.49296C9.82926 5.80706 9.6454 5.15411 9.24159 5.15405C8.83779 5.154 8.65412 5.80691 8.46118 6.49276C8.30873 7.03468 8.1505 7.59717 7.87332 7.87436C7.59613 8.15154 7.03364 8.30977 6.49172 8.46222C5.80587 8.65515 5.15296 8.83882 5.15301 9.24263C5.15307 9.64645 5.80603 9.83031 6.49193 10.0234C7.03388 10.1761 7.59639 10.3344 7.87365 10.6117C8.15091 10.889 8.3093 11.4515 8.4619 11.9934Z" fill="black"/>
</svg>
