<svg width="32" height="32" viewBox="0 0 32 32" fill="none" xmlns="http://www.w3.org/2000/svg">
<path d="M7 26C6.44772 26 6 25.5523 6 25V7C6 6.44772 6.44771 6 7 6H25C25.5523 6 26 6.44772 26 7V18H21C19.3431 18 18 19.3431 18 21V26H7ZM20 24.5858V21C20 20.4477 20.4477 20 21 20H24.5858L20 24.5858ZM4 25C4 26.6569 5.34315 28 7 28H19C19.2652 28 19.5196 27.8946 19.7071 27.7071L27.7071 19.7071C27.8946 19.5196 28 19.2652 28 19V7C28 5.34315 26.6569 4 25 4H7C5.34315 4 4 5.34315 4 7V25Z" fill="black"/>
</svg>
