<svg width="32" height="32" viewBox="0 0 32 32" fill="none" xmlns="http://www.w3.org/2000/svg">
<path d="M17 5.04107V4H19C19.5523 4 20 3.55228 20 3C20 2.44772 19.5523 2 19 2H13C12.4477 2 12 2.44772 12 3C12 3.55228 12.4477 4 13 4H15V5.04107C8.84047 5.54922 4 10.7093 4 17C4 23.6274 9.37258 29 16 29C22.6274 29 28 23.6274 28 17C28 14.0463 26.9328 11.3418 25.1631 9.25116L26.7071 7.70711C27.0976 7.31658 27.0976 6.68342 26.7071 6.29289C26.3166 5.90237 25.6834 5.90237 25.2929 6.29289L23.7488 7.83695C21.8965 6.26893 19.5624 5.25247 17 5.04107ZM16 7C21.5228 7 26 11.4772 26 17C26 22.5228 21.5228 27 16 27C10.4772 27 6 22.5228 6 17C6 11.4772 10.4772 7 16 7ZM17 10C17 9.44771 16.5523 9 16 9C15.4477 9 15 9.44771 15 10V15.2676C14.4022 15.6134 14 16.2597 14 17C14 18.1046 14.8954 19 16 19C17.1046 19 18 18.1046 18 17C18 16.2597 17.5978 15.6134 17 15.2676V10Z" fill="black"/>
</svg>
