<svg width="32" height="32" viewBox="0 0 32 32" fill="none" xmlns="http://www.w3.org/2000/svg">
<path d="M13 2C12.4477 2 12 2.44772 12 3C12 3.55228 12.4477 4 13 4H15V5.04107C8.84047 5.54922 4 10.7093 4 17C4 23.6274 9.37258 29 16 29C22.6274 29 28 23.6274 28 17C28 14.0463 26.9328 11.3418 25.1631 9.25116L26.7071 7.70711C27.0976 7.31658 27.0976 6.68342 26.7071 6.29289C26.3166 5.90237 25.6834 5.90237 25.2929 6.29289L23.7488 7.83695C21.8965 6.26893 19.5624 5.25247 17 5.04107V4H19C19.5523 4 20 3.55228 20 3C20 2.44772 19.5523 2 19 2H13ZM17 10V15.2676C17.5978 15.6134 18 16.2597 18 17C18 18.1046 17.1046 19 16 19C14.8954 19 14 18.1046 14 17C14 16.2597 14.4022 15.6134 15 15.2676V10C15 9.44772 15.4477 9 16 9C16.5523 9 17 9.44772 17 10Z" fill="black"/>
</svg>
