<svg width="32" height="32" viewBox="0 0 32 32" fill="none" xmlns="http://www.w3.org/2000/svg">
<path d="M18 5V9H14V5H18ZM14 3C12.8954 3 12 3.89543 12 5V9C12 10.1046 12.8954 11 14 11H15V15.1136H7.5C6.67157 15.1136 6 15.7852 6 16.6136V21H5C3.89543 21 3 21.8954 3 23V27C3 28.1046 3.89543 29 5 29H9C10.1046 29 11 28.1046 11 27V23C11 21.8954 10.1046 21 9 21H8V17.1136H15V21H14C12.8954 21 12 21.8954 12 23V27C12 28.1046 12.8954 29 14 29H18C19.1046 29 20 28.1046 20 27V23C20 21.8954 19.1046 21 18 21H17V17.1136H24V21H23C21.8954 21 21 21.8954 21 23V27C21 28.1046 21.8954 29 23 29H27C28.1046 29 29 28.1046 29 27V23C29 21.8954 28.1046 21 27 21H26V16.6136C26 15.7852 25.3284 15.1136 24.5 15.1136H17V11H18C19.1046 11 20 10.1046 20 9V5C20 3.89543 19.1046 3 18 3H14ZM9 27H5V23H9V27ZM14 27V23H18V27H14ZM27 27H23V23H27V27Z" fill="black"/>
</svg>
