<svg width="32" height="32" viewBox="0 0 32 32" fill="none" xmlns="http://www.w3.org/2000/svg">
<path d="M2 9C2 7.34315 3.34315 6 5 6H27C28.6569 6 30 7.34315 30 9V23C30 24.6569 28.6569 26 27 26H5C3.34315 26 2 24.6569 2 23V9ZM6 21C6 21.5523 6.44772 22 7 22H19C19.5523 22 20 21.5523 20 21C20 20.4477 19.5523 20 19 20H7C6.44772 20 6 20.4477 6 21ZM15 16C14.4477 16 14 16.4477 14 17C14 17.5523 14.4477 18 15 18L25 18C25.5523 18 26 17.5523 26 17C26 16.4477 25.5523 16 25 16L15 16ZM22 21C22 21.5523 22.4477 22 23 22H25C25.5523 22 26 21.5523 26 21C26 20.4477 25.5523 20 25 20H23C22.4477 20 22 20.4477 22 21ZM7 16C6.44772 16 6 16.4477 6 17C6 17.5523 6.44772 18 7 18H11C11.5523 18 12 17.5523 12 17C12 16.4477 11.5523 16 11 16H7Z" fill="black"/>
</svg>
