<svg width="32" height="32" viewBox="0 0 32 32" fill="none" xmlns="http://www.w3.org/2000/svg">
<path d="M27 8C27.5523 8 28 8.44772 28 9V23C28 23.5523 27.5523 24 27 24H5C4.44772 24 4 23.5523 4 23V9C4 8.44772 4.44771 8 5 8H27ZM5 6C3.34315 6 2 7.34315 2 9V23C2 24.6569 3.34315 26 5 26H27C28.6569 26 30 24.6569 30 23V9C30 7.34315 28.6569 6 27 6H5ZM6 21C6 20.4477 6.44772 20 7 20H19C19.5523 20 20 20.4477 20 21C20 21.5523 19.5523 22 19 22H7C6.44772 22 6 21.5523 6 21ZM15 16C14.4477 16 14 16.4477 14 17C14 17.5523 14.4477 18 15 18L25 18C25.5523 18 26 17.5523 26 17C26 16.4477 25.5523 16 25 16L15 16ZM22 21C22 20.4477 22.4477 20 23 20H25C25.5523 20 26 20.4477 26 21C26 21.5523 25.5523 22 25 22H23C22.4477 22 22 21.5523 22 21ZM7 16C6.44772 16 6 16.4477 6 17C6 17.5523 6.44772 18 7 18H11C11.5523 18 12 17.5523 12 17C12 16.4477 11.5523 16 11 16H7Z" fill="black"/>
</svg>
