<svg width="32" height="32" viewBox="0 0 32 32" fill="none" xmlns="http://www.w3.org/2000/svg">
<path d="M15 3C15 2.44772 15.4477 2 16 2C16.5523 2 17 2.44772 17 3V6C17 6.55228 16.5523 7 16 7C15.4477 7 15 6.55228 15 6V3ZM23 16C23 19.866 19.866 23 16 23C12.134 23 9 19.866 9 16C9 12.134 12.134 9 16 9C19.866 9 23 12.134 23 16ZM6.10048 6.10051C5.70995 6.49103 5.70995 7.1242 6.10048 7.51472L8.2218 9.63604C8.61232 10.0266 9.24549 10.0266 9.63601 9.63604C10.0265 9.24552 10.0265 8.61236 9.63601 8.22183L7.51469 6.10051C7.12417 5.70999 6.491 5.70999 6.10048 6.10051ZM24.4853 6.10048C24.8758 5.70995 25.509 5.70995 25.8995 6.10048C26.29 6.491 26.29 7.12417 25.8995 7.51469L23.7782 9.63601C23.3876 10.0265 22.7545 10.0265 22.364 9.63601C21.9734 9.24549 21.9734 8.61232 22.364 8.2218L24.4853 6.10048ZM16 25C15.4477 25 15 25.4477 15 26V29C15 29.5523 15.4477 30 16 30C16.5523 30 17 29.5523 17 29V26C17 25.4477 16.5523 25 16 25ZM22.364 23.7782C21.9734 23.3876 21.9734 22.7545 22.364 22.3639C22.7545 21.9734 23.3877 21.9734 23.7782 22.3639L25.8995 24.4853C26.29 24.8758 26.29 25.5089 25.8995 25.8995C25.509 26.29 24.8758 26.29 24.4853 25.8995L22.364 23.7782ZM9.63606 22.364C9.24554 21.9734 8.61237 21.9734 8.22185 22.364L6.10053 24.4853C5.71 24.8758 5.71 25.509 6.10053 25.8995C6.49105 26.29 7.12422 26.29 7.51474 25.8995L9.63606 23.7782C10.0266 23.3877 10.0266 22.7545 9.63606 22.364ZM29 15C29.5523 15 30 15.4477 30 16C30 16.5523 29.5523 17 29 17H26C25.4477 17 25 16.5523 25 16C25 15.4477 25.4477 15 26 15H29ZM7 16C7 15.4477 6.55228 15 6 15H3C2.44772 15 2 15.4477 2 16C2 16.5523 2.44772 17 3 17H6C6.55228 17 7 16.5523 7 16Z" fill="black"/>
</svg>
