<svg width="32" height="32" viewBox="0 0 32 32" fill="none" xmlns="http://www.w3.org/2000/svg">
<path d="M9 4C7.89543 4 7 4.89543 7 6V26C7 27.1046 7.89543 28 9 28H23C24.1046 28 25 27.1046 25 26V6C25 4.89543 24.1046 4 23 4H9ZM5 6C5 3.79086 6.79086 2 9 2H23C25.2091 2 27 3.79086 27 6V26C27 28.2091 25.2091 30 23 30H9C6.79086 30 5 28.2091 5 26V6ZM16 26C16.8284 26 17.5 25.3284 17.5 24.5C17.5 23.6716 16.8284 23 16 23C15.1716 23 14.5 23.6716 14.5 24.5C14.5 25.3284 15.1716 26 16 26Z" fill="black"/>
</svg>
