<svg width="32" height="32" viewBox="0 0 32 32" fill="none" xmlns="http://www.w3.org/2000/svg">
<path d="M4 23C4 24.1046 4.89543 25 6 25L26 25C27.1046 25 28 24.1046 28 23V9C28 7.89543 27.1046 7 26 7L6 7C4.89543 7 4 7.89543 4 9L4 23ZM6 27C3.79086 27 2 25.2091 2 23V9C2 6.79086 3.79086 5 6 5H26C28.2091 5 30 6.79086 30 9V23C30 25.2091 28.2091 27 26 27L6 27ZM26 16C26 15.1716 25.3284 14.5 24.5 14.5C23.6716 14.5 23 15.1716 23 16C23 16.8284 23.6716 17.5 24.5 17.5C25.3284 17.5 26 16.8284 26 16Z" fill="black"/>
</svg>
