<svg width="32" height="32" viewBox="0 0 32 32" fill="none" xmlns="http://www.w3.org/2000/svg">
<path d="M18.5 10H13.5V14H18.5V10ZM20.5 10V14H26V10H20.5ZM18.5 16H13.5L13.5 20H18.5V16ZM20.5 20H26V16H20.5V20ZM18.5 22H13.5V26H18.5V22ZM20.5 26H25C25.5523 26 26 25.5523 26 25V22H20.5V26ZM6 10V14H11.5V10H6ZM6 16V20H11.5L11.5 16H6ZM6 22V25C6 25.5523 6.44772 26 7 26H11.5V22H6ZM28 25C28 26.6569 26.6569 28 25 28H7C5.34315 28 4 26.6569 4 25V7C4 5.34315 5.34315 4 7 4H25C26.6569 4 28 5.34315 28 7V25Z" fill="black"/>
</svg>
