<svg width="32" height="32" viewBox="0 0 32 32" fill="none" xmlns="http://www.w3.org/2000/svg">
<path d="M4 7C4 5.34315 5.34315 4 7 4H15.1716C15.9672 4 16.7303 4.31607 17.2929 4.87868L28.2929 15.8787C29.4645 17.0503 29.4645 18.9498 28.2929 20.1213L20.1213 28.2929C18.9497 29.4645 17.0503 29.4645 15.8787 28.2929L4.87868 17.2929C4.31607 16.7303 4 15.9672 4 15.1716V7ZM13 11C13 9.89543 12.1046 9 11 9C9.89543 9 9 9.89543 9 11C9 12.1046 9.89543 13 11 13C12.1046 13 13 12.1046 13 11Z" fill="black"/>
</svg>
