<svg width="32" height="32" viewBox="0 0 32 32" fill="none" xmlns="http://www.w3.org/2000/svg">
<path d="M6 7C6 6.44772 6.44772 6 7 6H15.1716C15.4368 6 15.6911 6.10536 15.8787 6.29289L26.8787 17.2929C27.2692 17.6834 27.2692 18.3166 26.8787 18.7071L18.7071 26.8787C18.3166 27.2692 17.6834 27.2692 17.2929 26.8787L6.29289 15.8787C6.10536 15.6911 6 15.4368 6 15.1716V7ZM7 4C5.34315 4 4 5.34315 4 7V15.1716C4 15.9672 4.31607 16.7303 4.87868 17.2929L15.8787 28.2929C17.0503 29.4645 18.9497 29.4645 20.1213 28.2929L28.2929 20.1213C29.4645 18.9497 29.4645 17.0503 28.2929 15.8787L17.2929 4.87868C16.7303 4.31607 15.9672 4 15.1716 4H7ZM13 11C13 12.1046 12.1046 13 11 13C9.89543 13 9 12.1046 9 11C9 9.89543 9.89543 9 11 9C12.1046 9 13 9.89543 13 11Z" fill="black"/>
</svg>
