<svg width="32" height="32" viewBox="0 0 32 32" fill="none" xmlns="http://www.w3.org/2000/svg">
<path d="M7.70711 7.29289L14.7071 14.2929C15.0976 14.6834 15.0976 15.3166 14.7071 15.7071L7.70711 22.7071C7.31658 23.0976 6.68342 23.0976 6.29289 22.7071C5.90237 22.3166 5.90237 21.6834 6.29289 21.2929L12.5858 15L6.29289 8.70711C5.90237 8.31658 5.90237 7.68342 6.29289 7.29289C6.68342 6.90237 7.31658 6.90237 7.70711 7.29289ZM15 23C14.4477 23 14 23.4477 14 24C14 24.5523 14.4477 25 15 25H25.5C26.0523 25 26.5 24.5523 26.5 24C26.5 23.4477 26.0523 23 25.5 23H15Z" fill="black"/>
</svg>
