<svg width="32" height="32" viewBox="0 0 32 32" fill="none" xmlns="http://www.w3.org/2000/svg">
<path d="M6 7C6 6.44772 6.44772 6 7 6H27C27.5523 6 28 6.44772 28 7C28 7.55228 27.5523 8 27 8H7C6.44772 8 6 7.55228 6 7ZM10 13C10 12.4477 10.4477 12 11 12H23C23.5523 12 24 12.4477 24 13C24 13.5523 23.5523 14 23 14H11C10.4477 14 10 13.5523 10 13ZM6 19C6 18.4477 6.44772 18 7 18H27C27.5523 18 28 18.4477 28 19C28 19.5523 27.5523 20 27 20H7C6.44772 20 6 19.5523 6 19ZM12 25C12 24.4477 12.4477 24 13 24H21C21.5523 24 22 24.4477 22 25C22 25.5523 21.5523 26 21 26H13C12.4477 26 12 25.5523 12 25Z" fill="black"/>
</svg>
