<svg width="32" height="32" viewBox="0 0 32 32" fill="none" xmlns="http://www.w3.org/2000/svg">
<path d="M6 7C6 6.44772 6.44772 6 7 6H27C27.5523 6 28 6.44772 28 7C28 7.55228 27.5523 8 27 8H7C6.44772 8 6 7.55228 6 7ZM6 13C6 12.4477 6.44772 12 7 12H19C19.5523 12 20 12.4477 20 13C20 13.5523 19.5523 14 19 14H7C6.44772 14 6 13.5523 6 13ZM6 19C6 18.4477 6.44772 18 7 18H27C27.5523 18 28 18.4477 28 19C28 19.5523 27.5523 20 27 20H7C6.44772 20 6 19.5523 6 19ZM6 25C6 24.4477 6.44772 24 7 24H15C15.5523 24 16 24.4477 16 25C16 25.5523 15.5523 26 15 26H7C6.44772 26 6 25.5523 6 25Z" fill="black"/>
</svg>
