<svg width="32" height="32" viewBox="0 0 32 32" fill="none" xmlns="http://www.w3.org/2000/svg">
<path d="M6 7C6 6.44772 6.44772 6 7 6H27C27.5523 6 28 6.44772 28 7C28 7.55228 27.5523 8 27 8H7C6.44772 8 6 7.55228 6 7ZM14 13C14 12.4477 14.4477 12 15 12H27C27.5523 12 28 12.4477 28 13C28 13.5523 27.5523 14 27 14H15C14.4477 14 14 13.5523 14 13ZM6 19C6 18.4477 6.44772 18 7 18H27C27.5523 18 28 18.4477 28 19C28 19.5523 27.5523 20 27 20H7C6.44772 20 6 19.5523 6 19ZM18 25C18 24.4477 18.4477 24 19 24H27C27.5523 24 28 24.4477 28 25C28 25.5523 27.5523 26 27 26H19C18.4477 26 18 25.5523 18 25Z" fill="black"/>
</svg>
