<svg width="50" height="50" viewBox="0 0 50 50" fill="none" xmlns="http://www.w3.org/2000/svg">
<g clip-path="url(#clip0_1207_15)">
<path d="M25 5C11.3499 5 2.49975e-06 13.789 2.49975e-06 25V25.005C0.00529457 26.2523 0.155792 27.4982 0.449221 28.7208C0.490283 28.8918 0.566971 29.0523 0.674273 29.1916C0.781575 29.331 0.917075 29.4461 1.07192 29.5296C1.22676 29.613 1.39747 29.6628 1.57287 29.6757C1.74828 29.6886 1.92444 29.6644 2.08985 29.6046C2.5073 29.4545 2.92635 29.3182 3.35449 29.1993C11.471 27.0256 19.3209 30.829 21.0791 37.3927C21.5789 39.2762 21.5411 41.2746 20.9619 43.2472C20.9101 43.4235 20.8977 43.609 20.9258 43.7906C20.9538 43.9722 21.0215 44.1453 21.124 44.2978C21.2266 44.4502 21.3615 44.5782 21.5192 44.6725C21.6768 44.7669 21.8533 44.8254 22.0361 44.8438C23.0166 44.9429 24.0022 44.9941 24.9902 45H25C38.6501 45 50 36.211 50 25C50 13.789 38.6501 5 25 5ZM25 7.5C37.5834 7.5 47.5 15.5004 47.5 25C47.5 34.4971 37.5884 42.4957 25.0098 42.5C24.4695 42.4967 23.9319 42.4457 23.3936 42.4121C23.7255 40.5126 23.9789 38.5858 23.4912 36.748C21.3206 28.6449 11.9373 24.3234 2.71973 26.7871C2.6374 26.1895 2.50255 25.5963 2.5 24.9951C2.50337 15.4976 12.4187 7.5 25 7.5ZM23.75 10C21.6937 10 20 11.6937 20 13.75C20 15.8063 21.6937 17.5 23.75 17.5C25.8063 17.5 27.5 15.8063 27.5 13.75C27.5 11.6937 25.8063 10 23.75 10ZM13.75 12.5C11.6937 12.5 10 14.1937 10 16.25C10 18.3063 11.6937 20 13.75 20C15.8063 20 17.5 18.3063 17.5 16.25C17.5 14.1937 15.8063 12.5 13.75 12.5ZM23.75 12.5C24.4552 12.5 25 13.0448 25 13.75C25 14.4552 24.4552 15 23.75 15C23.0448 15 22.5 14.4552 22.5 13.75C22.5 13.0448 23.0448 12.5 23.75 12.5ZM33.75 12.5C31.6937 12.5 30 14.1937 30 16.25C30 18.3063 31.6937 20 33.75 20C35.8063 20 37.5 18.3063 37.5 16.25C37.5 14.1937 35.8063 12.5 33.75 12.5ZM13.75 15C14.4552 15 15 15.5448 15 16.25C15 16.9552 14.4552 17.5 13.75 17.5C13.0448 17.5 12.5 16.9552 12.5 16.25C12.5 15.5448 13.0448 15 13.75 15ZM33.75 15C34.4552 15 35 15.5448 35 16.25C35 16.9552 34.4552 17.5 33.75 17.5C33.0448 17.5 32.5 16.9552 32.5 16.25C32.5 15.5448 33.0448 15 33.75 15ZM41.25 20C39.1937 20 37.5 21.6937 37.5 23.75C37.5 25.8063 39.1937 27.5 41.25 27.5C43.3063 27.5 45 25.8063 45 23.75C45 21.6937 43.3063 20 41.25 20ZM41.25 22.5C41.9552 22.5 42.5 23.0448 42.5 23.75C42.5 24.4552 41.9552 25 41.25 25C40.5448 25 40 24.4552 40 23.75C40 23.0448 40.5448 22.5 41.25 22.5ZM33.75 30C31.6937 30 30 31.6937 30 33.75C30 35.8063 31.6937 37.5 33.75 37.5C35.8063 37.5 37.5 35.8063 37.5 33.75C37.5 31.6937 35.8063 30 33.75 30ZM33.75 32.5C34.4552 32.5 35 33.0448 35 33.75C35 34.4552 34.4552 35 33.75 35C33.0448 35 32.5 34.4552 32.5 33.75C32.5 33.0448 33.0448 32.5 33.75 32.5Z" fill="#222222"/>
</g>
<defs>
<clipPath id="clip0_1207_15">
<rect width="50" height="50" fill="white"/>
</clipPath>
</defs>
</svg>
