<svg width="32" height="32" viewBox="0 0 32 32" fill="none" xmlns="http://www.w3.org/2000/svg">
<path d="M13.3338 21.0181L14 20.4218V6C14 4.89543 14.8954 4 16 4C17.1046 4 18 4.89543 18 6V20.4218L18.6662 21.0181C19.4877 21.7533 20 22.8155 20 24C20 26.2091 18.2091 28 16 28C13.7909 28 12 26.2091 12 24C12 22.8155 12.5123 21.7533 13.3338 21.0181ZM16 2C13.7909 2 12 3.79086 12 6V19.5278C10.7725 20.6264 10 22.223 10 24C10 27.3137 12.6863 30 16 30C19.3137 30 22 27.3137 22 24C22 22.223 21.2275 20.6264 20 19.5278V6C20 3.79086 18.2091 2 16 2ZM16 12C15.4477 12 15 12.4477 15 13V21.1707C13.8348 21.5825 13 22.6938 13 24C13 25.6569 14.3431 27 16 27C17.6569 27 19 25.6569 19 24C19 22.6938 18.1652 21.5825 17 21.1707V13C17 12.4477 16.5523 12 16 12ZM22 11C21.4477 11 21 11.4477 21 12C21 12.5523 21.4477 13 22 13H26C26.5523 13 27 12.5523 27 12C27 11.4477 26.5523 11 26 11H22ZM21 15C21 14.4477 21.4477 14 22 14H24C24.5523 14 25 14.4477 25 15C25 15.5523 24.5523 16 24 16H22C21.4477 16 21 15.5523 21 15ZM22 8C21.4477 8 21 8.44772 21 9C21 9.55228 21.4477 10 22 10H24C24.5523 10 25 9.55228 25 9C25 8.44772 24.5523 8 24 8H22ZM21 6C21 5.44772 21.4477 5 22 5H24C24.5523 5 25 5.44772 25 6C25 6.55228 24.5523 7 24 7H22C21.4477 7 21 6.55228 21 6ZM22 17C21.4477 17 21 17.4477 21 18C21 18.5523 21.4477 19 22 19H24C24.5523 19 25 18.5523 25 18C25 17.4477 24.5523 17 24 17H22Z" fill="black"/>
</svg>
