<svg width="32" height="32" viewBox="0 0 32 32" fill="none" xmlns="http://www.w3.org/2000/svg">
<path d="M18 6.90569V12H24.6017C26.4061 12 27.8023 13.5815 27.5785 15.3721L26.219 26.2481C26.0939 27.2489 25.2431 28 24.2344 28H6C4.89543 28 4 27.1046 4 26V18C4 16.8954 4.89543 16 6 16H9L12.3377 5.98683C12.7332 4.80032 13.8436 4 15.0943 4C16.6991 4 18 5.30092 18 6.90569ZM11 16.3246V26H24.2344L25.5939 15.124C25.6685 14.5272 25.2032 14 24.6017 14H18C16.8954 14 16 13.1046 16 12V6.90569C16 6.40549 15.5945 6 15.0943 6C14.7045 6 14.3584 6.24946 14.2351 6.61929L11 16.3246ZM9 18H6L6 26H9V18Z" fill="black"/>
</svg>
