<svg width="32" height="32" viewBox="0 0 32 32" fill="none" xmlns="http://www.w3.org/2000/svg">
<path d="M15.9999 2C15.4477 2 14.9999 2.44772 14.9999 3V7C14.9999 7.55228 15.4477 8 15.9999 8C16.5522 8 16.9999 7.55228 16.9999 7V3C16.9999 2.44772 16.5522 2 15.9999 2ZM16 23.9999C15.4477 23.9999 15 24.4477 15 24.9999V28.9999C15 29.5522 15.4477 29.9999 16 29.9999C16.5523 29.9999 17 29.5522 17 28.9999V24.9999C17 24.4477 16.5523 23.9999 16 23.9999ZM28.9999 15C29.5522 15 29.9999 15.4477 29.9999 16C29.9999 16.5523 29.5522 17 28.9999 17H24.9999C24.4477 17 23.9999 16.5523 23.9999 16C23.9999 15.4477 24.4477 15 24.9999 15H28.9999ZM8 16.0001C8 15.4478 7.55228 15.0001 7 15.0001H3C2.44772 15.0001 2 15.4478 2 16.0001C2 16.5523 2.44772 17.0001 3 17.0001H7C7.55228 17.0001 8 16.5523 8 16.0001ZM25.8995 24.4853C26.29 24.8758 26.29 25.509 25.8995 25.8995C25.5089 26.29 24.8758 26.29 24.4852 25.8995L21.6568 23.0711C21.2663 22.6805 21.2663 22.0474 21.6568 21.6568C22.0473 21.2663 22.6805 21.2663 23.071 21.6568L25.8995 24.4853ZM28.9286 21.371C29.1405 20.861 28.8988 20.2758 28.3888 20.0639L26.5418 19.2966C26.0318 19.0847 25.4466 19.3264 25.2347 19.8364C25.0228 20.3465 25.2645 20.9317 25.7745 21.1436L27.6215 21.9109C28.1315 22.1228 28.7167 21.8811 28.9286 21.371ZM21.8594 27.5329C22.0708 28.0432 21.8285 28.6281 21.3182 28.8395C20.808 29.0508 20.223 28.8085 20.0117 28.2983L19.2463 26.4505C19.035 25.9403 19.2773 25.3553 19.7875 25.144C20.2978 24.9326 20.8827 25.1749 21.0941 25.6851L21.8594 27.5329ZM6.10039 25.8994C6.49091 26.2899 7.12408 26.2899 7.5146 25.8994L10.343 23.071C10.7336 22.6804 10.7336 22.0473 10.343 21.6568C9.95251 21.2662 9.31934 21.2662 8.92882 21.6568L6.10039 24.4852C5.70986 24.8757 5.70986 25.5089 6.10039 25.8994ZM11.9883 28.2983C11.777 28.8085 11.192 29.0508 10.6818 28.8395C10.1715 28.6281 9.92923 28.0432 10.1406 27.5329L10.9059 25.6852C11.1173 25.1749 11.7023 24.9326 12.2125 25.144C12.7228 25.3553 12.9651 25.9403 12.7537 26.4505L11.9883 28.2983ZM3.16053 21.3184C3.37188 21.8286 3.95685 22.0709 4.46709 21.8596L6.31485 21.0942C6.8251 20.8828 7.0674 20.2979 6.85605 19.7876C6.6447 19.2774 6.05973 19.0351 5.54948 19.2464L3.70173 20.0118C3.19148 20.2232 2.94918 20.8081 3.16053 21.3184ZM3.60686 11.9491C3.09662 11.7377 2.85432 11.1528 3.06567 10.6425C3.27702 10.1323 3.86199 9.88998 4.37223 10.1013L6.21999 10.8667C6.73023 11.078 6.97254 11.663 6.76119 12.1733C6.54983 12.6835 5.96487 12.9258 5.45462 12.7145L3.60686 11.9491ZM6.10054 6.10045C5.71002 6.49097 5.71002 7.12414 6.10054 7.51466L8.92897 10.3431C9.31949 10.7336 9.95266 10.7336 10.3432 10.3431C10.7337 9.95257 10.7337 9.3194 10.3432 8.92888L7.51475 6.10045C7.12423 5.70993 6.49106 5.70993 6.10054 6.10045ZM10.1404 4.46715C9.92902 3.95691 10.1713 3.37194 10.6816 3.16059C11.1918 2.94924 11.7768 3.19154 11.9881 3.70179L12.7535 5.54955C12.9648 6.05979 12.7225 6.64476 12.2123 6.85611C11.7021 7.06746 11.1171 6.82516 10.9057 6.31491L10.1404 4.46715ZM25.8996 6.1006C25.509 5.71008 24.8759 5.71008 24.4853 6.1006L21.6569 8.92903C21.2664 9.31955 21.2664 9.95272 21.6569 10.3432C22.0474 10.7338 22.6806 10.7338 23.0711 10.3432L25.8996 7.51481C26.2901 7.12429 26.2901 6.49113 25.8996 6.1006ZM27.6276 10.1013C28.1378 9.8899 28.7228 10.1322 28.9341 10.6424C29.1455 11.1527 28.9032 11.7377 28.3929 11.949L26.5452 12.7144C26.0349 12.9257 25.45 12.6834 25.2386 12.1732C25.0273 11.6629 25.2696 11.078 25.7798 10.8666L27.6276 10.1013ZM21.2927 3.25048C20.7824 3.03913 20.1974 3.28143 19.9861 3.79168L19.2207 5.63944C19.0094 6.14968 19.2517 6.73465 19.7619 6.946C20.2722 7.15735 20.8571 6.91505 21.0685 6.4048L21.8339 4.55704C22.0452 4.0468 21.8029 3.46183 21.2927 3.25048Z" fill="black"/>
</svg>
