<svg width="32" height="32" viewBox="0 0 32 32" fill="none" xmlns="http://www.w3.org/2000/svg">
<g clip-path="url(#clip0_498_232)">
<path d="M11.9998 23.75L5.0773 30.7175C4.57321 31.2192 3.89097 31.5008 3.1798 31.5008C2.46863 31.5008 1.78639 31.2192 1.2823 30.7175C0.780646 30.2134 0.499023 29.5312 0.499023 28.82C0.499023 28.1088 0.780646 27.4266 1.2823 26.9225L8.2498 20" fill="white"/>
<path d="M3.17976 32C2.55094 31.9994 1.9364 31.8125 1.41372 31.4629C0.891027 31.1133 0.483614 30.6167 0.2429 30.0358C0.00218661 29.4549 -0.0610381 28.8157 0.0612062 28.1989C0.183451 27.582 0.485684 27.0152 0.92976 26.57L7.89726 19.645C7.94388 19.5987 7.99916 19.5621 8.05995 19.5372C8.12073 19.5122 8.18583 19.4995 8.25153 19.4998C8.31723 19.5 8.38223 19.5132 8.44284 19.5385C8.50345 19.5639 8.55847 19.6009 8.60476 19.6475C8.65105 19.6942 8.68771 19.7494 8.71263 19.8102C8.73756 19.871 8.75027 19.9361 8.75004 20.0018C8.74981 20.0675 8.73664 20.1325 8.71128 20.1931C8.68593 20.2537 8.64888 20.3087 8.60226 20.355L1.63476 27.2775C1.23458 27.6888 1.01247 28.2411 1.0165 28.8149C1.02053 29.3887 1.25039 29.9379 1.65631 30.3435C2.06223 30.7491 2.61156 30.9785 3.18537 30.982C3.75919 30.9856 4.31133 30.763 4.72226 30.3625L11.6448 23.3975C11.7382 23.3034 11.8653 23.2502 11.998 23.2498C12.1307 23.2493 12.2581 23.3015 12.3523 23.395C12.4464 23.4885 12.4996 23.6156 12.5 23.7483C12.5005 23.881 12.4482 24.0084 12.3548 24.1025L5.42976 31.07C5.13485 31.3661 4.78413 31.6008 4.39792 31.7604C4.01171 31.9201 3.59766 32.0015 3.17976 32Z" fill="#0F3849"/>
<path d="M27.8388 21.8387C32.7203 16.9572 32.7203 9.0426 27.8388 4.16104C22.9572 -0.72051 15.0427 -0.72051 10.1611 4.16104C5.27955 9.0426 5.27955 16.9572 10.1611 21.8387C15.0427 26.7203 22.9572 26.7203 27.8388 21.8387Z" fill="white"/>
<path d="M19.0002 26C15.9925 25.9988 13.0782 24.9547 10.754 23.0457C8.42986 21.1366 6.83954 18.4807 6.25407 15.5306C5.66859 12.5804 6.12419 9.51848 7.54323 6.86658C8.96228 4.21467 11.257 2.13686 14.0363 0.987188C16.8156 -0.16248 19.9075 -0.312864 22.7853 0.561661C25.663 1.43619 28.1485 3.28151 29.8182 5.78319C31.4879 8.28487 32.2385 11.2881 31.9421 14.2812C31.6457 17.2742 30.3206 20.0719 28.1927 22.1975C26.9864 23.4055 25.5533 24.3633 23.9758 25.0159C22.3983 25.6684 20.7073 26.0029 19.0002 26ZM19.0002 1C16.2236 1.00335 13.5342 1.96941 11.3901 3.73355C9.24607 5.49769 7.78011 7.95074 7.24208 10.6747C6.70404 13.3986 7.12723 16.2248 8.43951 18.6716C9.7518 21.1185 11.872 23.0345 14.4387 24.0933C17.0055 25.1521 19.8599 25.288 22.5157 24.4779C25.1714 23.6678 27.4641 21.9619 29.0029 19.6508C30.5418 17.3398 31.2316 14.5666 30.9549 11.8039C30.6781 9.04115 29.4519 6.4599 27.4852 4.5C26.3709 3.38673 25.0478 2.50446 23.5917 1.90384C22.1356 1.30322 20.5753 0.996061 19.0002 1Z" fill="#0F3849"/>
<path d="M25.7175 19.7174C29.4275 16.0074 29.4275 9.99234 25.7175 6.28236C22.0075 2.57238 15.9924 2.57238 12.2825 6.28236C8.57248 9.99234 8.57248 16.0074 12.2825 19.7174C15.9924 23.4274 22.0075 23.4274 25.7175 19.7174Z" fill="white"/>
<path d="M19.0001 23C16.6864 22.9993 14.4446 22.1964 12.6565 20.7281C10.8685 19.2597 9.64497 17.2168 9.1944 14.9474C8.74383 12.6781 9.09411 10.3227 10.1856 8.28262C11.277 6.24257 13.0421 4.6441 15.18 3.7596C17.3179 2.87509 19.6964 2.75929 21.9101 3.43192C24.1239 4.10455 26.0359 5.52399 27.3204 7.44836C28.6048 9.37274 29.1823 11.683 28.9543 13.9854C28.7263 16.2878 27.707 18.4399 26.0701 20.075C25.1424 21.0042 24.0402 21.7409 22.8269 22.2429C21.6136 22.7449 20.3131 23.0022 19.0001 23ZM19.0001 4C16.9179 4.00106 14.9004 4.72407 13.2915 6.04585C11.6826 7.36762 10.5818 9.20637 10.1767 11.2488C9.77152 13.2912 10.0871 15.4109 11.0696 17.2467C12.0521 19.0826 13.6408 20.5209 15.5649 21.3167C17.4891 22.1126 19.6296 22.2166 21.6219 21.6111C23.6141 21.0055 25.3347 19.728 26.4906 17.9961C27.6465 16.2641 28.1661 14.185 27.9608 12.1129C27.7556 10.0408 26.8382 8.10403 25.3651 6.6325C24.5298 5.79607 23.5376 5.13292 22.4453 4.68115C21.3529 4.22938 20.1821 3.9979 19.0001 4Z" fill="#0F3849"/>
<path d="M26.5 13C26.5 13 23.575 17.5 19 17.5C14.425 17.5 11.5 13 11.5 13C11.5 13 14.425 8.5 19 8.5C23.575 8.5 26.5 13 26.5 13Z" fill="white"/>
<path d="M18.9998 18C14.2098 18 11.2073 13.465 11.0798 13.2725C11.0271 13.1914 10.999 13.0967 10.999 13C10.999 12.9033 11.0271 12.8086 11.0798 12.7275C11.2073 12.535 14.2098 8 18.9998 8C23.7898 8 26.7923 12.535 26.9198 12.7275C26.9725 12.8086 27.0006 12.9033 27.0006 13C27.0006 13.0967 26.9725 13.1914 26.9198 13.2725C26.7923 13.465 23.7898 18 18.9998 18ZM12.1148 13C12.8198 13.9425 15.3923 17 18.9998 17C22.6073 17 25.1773 13.9425 25.8848 13C25.1773 12.0575 22.6048 9 18.9998 9C15.3948 9 12.8223 12.0575 12.1148 13Z" fill="#0F3849"/>
<path d="M19 15.5C20.3807 15.5 21.5 14.3807 21.5 13C21.5 11.6193 20.3807 10.5 19 10.5C17.6193 10.5 16.5 11.6193 16.5 13C16.5 14.3807 17.6193 15.5 19 15.5Z" fill="white"/>
<path d="M19 16C18.4067 16 17.8266 15.8241 17.3333 15.4944C16.8399 15.1648 16.4554 14.6962 16.2284 14.1481C16.0013 13.5999 15.9419 12.9967 16.0576 12.4147C16.1734 11.8328 16.4591 11.2982 16.8787 10.8787C17.2982 10.4591 17.8328 10.1734 18.4147 10.0576C18.9967 9.94189 19.5999 10.0013 20.1481 10.2284C20.6962 10.4554 21.1648 10.8399 21.4944 11.3333C21.8241 11.8266 22 12.4067 22 13C22 13.7957 21.6839 14.5587 21.1213 15.1213C20.5587 15.6839 19.7957 16 19 16ZM19 11C18.6044 11 18.2178 11.1173 17.8889 11.3371C17.56 11.5568 17.3036 11.8692 17.1522 12.2346C17.0009 12.6001 16.9613 13.0022 17.0384 13.3902C17.1156 13.7781 17.3061 14.1345 17.5858 14.4142C17.8655 14.6939 18.2219 14.8844 18.6098 14.9616C18.9978 15.0387 19.3999 14.9991 19.7654 14.8478C20.1308 14.6964 20.4432 14.44 20.6629 14.1111C20.8827 13.7822 21 13.3956 21 13C21 12.4696 20.7893 11.9609 20.4142 11.5858C20.0391 11.2107 19.5304 11 19 11Z" fill="#0F3849"/>
</g>
<defs>
<clipPath id="clip0_498_232">
<rect width="32" height="32" fill="white"/>
</clipPath>
</defs>
</svg>
