<svg width="32" height="32" viewBox="0 0 32 32" fill="none" xmlns="http://www.w3.org/2000/svg">
<path d="M17.4196 10.7683H23.3905V2.64872H1.85197V29.3513H16.6331V11.5549C16.6331 11.1206 16.9853 10.7683 17.4196 10.7683ZM4.76941 17.8565H13.1596C13.5939 17.8565 13.9462 18.2088 13.9462 18.6427V21.5151C13.9462 21.9494 13.5939 22.3013 13.1596 22.3013H4.76941C4.33514 22.3013 3.98326 21.9494 3.98326 21.5151V18.6427C3.98326 18.2088 4.33514 17.8565 4.76941 17.8565ZM12.3735 19.4292H5.55594V20.7286H12.3735V19.4292ZM4.76941 11.545H13.1596C13.5939 11.545 13.9462 11.8969 13.9462 12.3312V15.2037C13.9462 15.6379 13.5939 15.9898 13.1596 15.9898H4.76941C4.33514 15.9898 3.98326 15.6379 3.98326 15.2037V12.3312C3.98326 11.8969 4.33514 11.545 4.76941 11.545ZM12.3735 13.1177H5.55594V14.4171H12.3735V13.1177ZM4.76941 5.23356H13.1596C13.5939 5.23356 13.9462 5.58544 13.9462 6.01971V8.89218C13.9462 9.32607 13.5939 9.67832 13.1596 9.67832H4.76941C4.33514 9.67832 3.98326 9.32607 3.98326 8.89218V6.01971C3.98326 5.58544 4.33514 5.23356 4.76941 5.23356ZM12.3735 6.80624H5.55594V8.10565H12.3735V6.80624ZM24.9632 10.7683H30.9342C31.3684 10.7683 31.7207 11.1206 31.7207 11.5549V30.1378C31.7207 30.5721 31.3684 30.924 30.9342 30.924C20.978 30.924 11.0219 30.924 1.06582 30.924C0.631552 30.924 0.279297 30.5721 0.279297 30.1378V1.8622C0.279297 1.4283 0.631552 1.07605 1.06582 1.07605H24.1771C24.611 1.07605 24.9632 1.4283 24.9632 1.8622V10.7683ZM25.2909 29.3513V26.0672H23.0628V29.3513H25.2909ZM21.4902 29.3513V25.2807C21.4902 24.8464 21.842 24.4946 22.2763 24.4946H26.0774C26.5117 24.4946 26.8636 24.8464 26.8636 25.2807V29.3513H30.148V12.341H24.1771H18.2057V29.3513H21.4902ZM20.4463 18.6521H22.7692C23.2034 18.6521 23.5553 19.004 23.5553 19.4383V21.7612C23.5553 22.1955 23.2034 22.5477 22.7692 22.5477H20.4463C20.012 22.5477 19.6597 22.1955 19.6597 21.7612V19.4383C19.6597 19.004 20.012 18.6521 20.4463 18.6521ZM21.9826 20.2248H21.2324V20.975H21.9826V20.2248ZM25.5846 18.6521H27.9075C28.3418 18.6521 28.694 19.004 28.694 19.4383V21.7612C28.694 22.1955 28.3418 22.5477 27.9075 22.5477H25.5846C25.1503 22.5477 24.7984 22.1955 24.7984 21.7612V19.4383C24.7984 19.004 25.1503 18.6521 25.5846 18.6521ZM27.1213 20.2248H26.3711V20.975H27.1213V20.2248ZM20.4463 14.0766H22.7692C23.2034 14.0766 23.5553 14.4288 23.5553 14.8631V17.186C23.5553 17.6203 23.2034 17.9722 22.7692 17.9722H20.4463C20.012 17.9722 19.6597 17.6203 19.6597 17.186V14.8631C19.6597 14.4288 20.012 14.0766 20.4463 14.0766ZM21.9826 15.6493H21.2324V16.3995H21.9826V15.6493ZM25.5846 14.0766H27.9075C28.3418 14.0766 28.694 14.4288 28.694 14.8631V17.186C28.694 17.6203 28.3418 17.9722 27.9075 17.9722H25.5846C25.1503 17.9722 24.7984 17.6203 24.7984 17.186V14.8631C24.7984 14.4288 25.1503 14.0766 25.5846 14.0766ZM27.1213 15.6493H26.3711V16.3995H27.1213V15.6493Z" fill="#0F3849"/>
</svg>
