<svg width="32" height="32" viewBox="0 0 32 32" fill="none" xmlns="http://www.w3.org/2000/svg">
<path d="M15 6C15.5523 6 16 6.44772 16 7V8.17071C14.8667 8.57126 14.046 9.63342 14.0019 10.8931H10.6274V9.26807H9.35201V10.8931H5.31001V12.1067H6.79392C7.34895 13.6169 8.05724 14.9076 8.98918 15.9675C7.93999 16.7678 6.65737 17.3501 5.12488 17.7532C5.37172 18.0515 5.76255 18.648 5.90654 18.9565C7.47632 18.4654 8.81243 17.7911 9.9292 16.8922C11.0138 17.8123 12.3468 18.4955 14 18.9304V22H5C4.44772 22 4 21.5523 4 21V7C4 6.44772 4.44771 6 5 6H15ZM18 8V7C18 5.34315 16.6569 4 15 4H5C3.34315 4 2 5.34315 2 7V21C2 22.6569 3.34315 24 5 24H14V25C14 26.6569 15.3431 28 17 28H27C28.6569 28 30 26.6569 30 25V11C30 9.34315 28.6569 8 27 8H18ZM14 12.1067V17.4584C12.8256 17.0956 11.8189 16.5761 10.9694 15.9211C11.9214 14.8909 12.6678 13.6324 13.2222 12.1067H14ZM8.16407 12.1067H11.7757C11.3405 13.2677 10.7529 14.2405 10.0031 15.0484C9.21059 14.2116 8.60219 13.2218 8.16407 12.1067ZM22.7466 14.1797L25.6685 22H23.9497L23.4074 20.3511H20.5967L20.0557 22H18.3423L21.248 14.1797H22.7466ZM22.9922 19.0889H21.0108L22.0002 16.073L22.9922 19.0889Z" fill="black"/>
</svg>
