<svg width="32" height="32" viewBox="0 0 32 32" fill="none" xmlns="http://www.w3.org/2000/svg">
<path d="M13 4C12.4477 4 12 4.44772 12 5V6H20V5C20 4.44772 19.5523 4 19 4H13ZM5 6H10V5C10 3.34315 11.3431 2 13 2H19C20.6569 2 22 3.34315 22 5V6H27C27.5523 6 28 6.44772 28 7C28 7.55228 27.5523 8 27 8H26V27C26 28.6569 24.6569 30 23 30H9C7.34315 30 6 28.6569 6 27V8H5C4.44772 8 4 7.55228 4 7C4 6.44772 4.44772 6 5 6ZM12.4644 13.0502C12.0739 12.6597 11.4407 12.6597 11.0502 13.0502C10.6597 13.4407 10.6597 14.0739 11.0502 14.4644L14.5858 18L11.0503 21.5355C10.6598 21.926 10.6598 22.5592 11.0503 22.9497C11.4408 23.3402 12.074 23.3402 12.4645 22.9497L16 19.4142L19.5355 22.9497C19.926 23.3402 20.5592 23.3402 20.9497 22.9497C21.3402 22.5592 21.3402 21.926 20.9497 21.5355L17.4142 18L20.9498 14.4644C21.3403 14.0739 21.3403 13.4407 20.9498 13.0502C20.5593 12.6597 19.9261 12.6597 19.5356 13.0502L16 16.5858L12.4644 13.0502Z" fill="black"/>
</svg>
