<svg width="32" height="32" viewBox="0 0 32 32" fill="none" xmlns="http://www.w3.org/2000/svg">
<path d="M13 4C12.4477 4 12 4.44772 12 5V6H20V5C20 4.44772 19.5523 4 19 4H13ZM5 6H10V5C10 3.34315 11.3431 2 13 2H19C20.6569 2 22 3.34315 22 5V6H27C27.5523 6 28 6.44772 28 7C28 7.55228 27.5523 8 27 8H26V27C26 28.6569 24.6569 30 23 30H9C7.34315 30 6 28.6569 6 27V8H5C4.44772 8 4 7.55228 4 7C4 6.44772 4.44772 6 5 6ZM14 13C14 12.4477 13.5523 12 13 12C12.4477 12 12 12.4477 12 13V23C12 23.5523 12.4477 24 13 24C13.5523 24 14 23.5523 14 23V13ZM19 12C18.4477 12 18 12.4477 18 13V23C18 23.5523 18.4477 24 19 24C19.5523 24 20 23.5523 20 23V13C20 12.4477 19.5523 12 19 12Z" fill="black"/>
</svg>
