<svg width="32" height="32" viewBox="0 0 32 32" fill="none" xmlns="http://www.w3.org/2000/svg">
<path d="M16 28C9.37258 28 4 22.6274 4 16C4 9.37258 9.37258 4 16 4C22.6274 4 28 9.37258 28 16C28 22.6274 22.6274 28 16 28ZM16 30C23.732 30 30 23.732 30 16C30 8.26801 23.732 2 16 2C8.26801 2 2 8.26801 2 16C2 23.732 8.26801 30 16 30ZM22.1464 14.3536L16.7071 19.7929C16.3166 20.1834 15.6834 20.1834 15.2929 19.7929L9.85355 14.3536C9.53857 14.0386 9.76165 13.5 10.2071 13.5H21.7929C22.2383 13.5 22.4614 14.0386 22.1464 14.3536Z" fill="black"/>
</svg>
