<svg width="32" height="32" viewBox="0 0 32 32" fill="none" xmlns="http://www.w3.org/2000/svg">
<path d="M7 6C6.44772 6 6 6.44772 6 7V25C6 25.5523 6.44772 26 7 26H25C25.5523 26 26 25.5523 26 25V7C26 6.44772 25.5523 6 25 6H7ZM4 7C4 5.34315 5.34315 4 7 4H25C26.6569 4 28 5.34315 28 7V25C28 26.6569 26.6569 28 25 28H7C5.34315 28 4 26.6569 4 25V7ZM9.8536 17.6464L15.2929 12.2071C15.6835 11.8166 16.3166 11.8166 16.7072 12.2071L22.1465 17.6464C22.4615 17.9614 22.2384 18.5 21.7929 18.5H10.2072C9.7617 18.5 9.53862 17.9614 9.8536 17.6464Z" fill="black"/>
</svg>
