<svg width="32" height="32" viewBox="0 0 32 32" fill="none" xmlns="http://www.w3.org/2000/svg">
<path d="M28 16C28 9.37258 22.6274 4 16 4C9.37258 4 4 9.37258 4 16C4 22.6274 9.37258 28 16 28C22.6274 28 28 22.6274 28 16ZM30 16C30 23.732 23.732 30 16 30C8.26801 30 2 23.732 2 16C2 8.26801 8.26801 2 16 2C23.732 2 30 8.26801 30 16ZM9.85355 17.6464L15.2929 12.2071C15.6834 11.8166 16.3166 11.8166 16.7071 12.2071L22.1464 17.6464C22.4614 17.9614 22.2383 18.5 21.7929 18.5H10.2071C9.76165 18.5 9.53857 17.9614 9.85355 17.6464Z" fill="black"/>
</svg>
