<svg width="32" height="32" viewBox="0 0 32 32" fill="none" xmlns="http://www.w3.org/2000/svg">
<path d="M4.55276 2.10555C5.04674 1.85856 5.64741 2.05878 5.8944 2.55276L7.8944 6.55276C7.96383 6.69162 7.99997 6.84473 7.99997 6.99997V22H25C25.5523 22 26 22.4477 26 23C26 23.5523 25.5523 24 25 24H6.99997C6.44769 24 5.99997 23.5523 5.99997 23V7.23604L4.10555 3.44719C3.85856 2.95321 4.05878 2.35254 4.55276 2.10555ZM8 30C9.10457 30 10 29.1046 10 28C10 26.8954 9.10457 26 8 26C6.89543 26 6 26.8954 6 28C6 29.1046 6.89543 30 8 30ZM26 28C26 29.1046 25.1046 30 24 30C22.8954 30 22 29.1046 22 28C22 26.8954 22.8954 26 24 26C25.1046 26 26 26.8954 26 28ZM10 5C10 4.44772 10.4477 4 11 4H25C25.5523 4 26 4.44772 26 5V19C26 19.5523 25.5523 20 25 20H11C10.4477 20 10 19.5523 10 19V5ZM19 6H17V10H19V6ZM15 6H12V18H24V6H21V11C21 11.5523 20.5523 12 20 12H16C15.4477 12 15 11.5523 15 11V6Z" fill="black"/>
</svg>
