<svg width="32" height="32" viewBox="0 0 32 32" fill="none" xmlns="http://www.w3.org/2000/svg">
<path d="M28 22H26C26 19.7909 24.2091 18 22 18V12H24.5194L28 16.3508V22ZM25.4649 24H29C29.5523 24 30 23.5523 30 23V16C30 15.7729 29.9227 15.5526 29.7809 15.3753L25.7809 10.3753C25.5911 10.1381 25.3038 10 25 10H22V9C22 7.34315 20.6569 6 19 6H5C3.34315 6 2 7.34315 2 9V21C2 22.6569 3.34315 24 5 24H6.53513C7.22675 25.1956 8.51944 26 10 26C11.4806 26 12.7733 25.1956 13.4649 24H18.5351C19.2267 25.1956 20.5194 26 22 26C23.4806 26 24.7733 25.1956 25.4649 24ZM10 24C8.89543 24 8 23.1046 8 22C8 20.8954 8.89543 20 10 20C11.1046 20 12 20.8954 12 22C12 23.1046 11.1046 24 10 24ZM24 22C24 23.1046 23.1046 24 22 24C20.8954 24 20 23.1046 20 22C20 20.8954 20.8954 20 22 20C23.1046 20 24 20.8954 24 22Z" fill="black"/>
</svg>
