<svg width="32" height="32" viewBox="0 0 32 32" fill="none" xmlns="http://www.w3.org/2000/svg">
<path d="M8 22V22.5381L8.26634 22.9985C8.61517 23.6016 9.26224 24 10 24C10.7378 24 11.3848 23.6016 11.7337 22.9985L12 22.5381V22C12 20.8954 11.1046 20 10 20C8.89543 20 8 20.8954 8 22ZM20 22V22.5381L20.2663 22.9985C20.6152 23.6016 21.2622 24 22 24C22.7378 24 23.3848 23.6016 23.7337 22.9985L24 22.5381V22C24 20.8954 23.1046 20 22 20H21.4619L21.0015 20.2663C20.3984 20.6152 20 21.2622 20 22ZM20 18.5351V9C20 8.44772 19.5523 8 19 8H5C4.44772 8 4 8.44772 4 9V21C4 21.0999 4.01464 21.1963 4.04189 21.2873C4.16533 21.6996 4.54758 22 5 22H6C6 19.7909 7.79086 18 10 18C12.2091 18 14 19.7909 14 22H18C18 20.5194 18.8044 19.2267 20 18.5351ZM29.7809 15.3753C29.9227 15.5526 30 15.7729 30 16V23C30 23.5523 29.5523 24 29 24H25.4649C24.7733 25.1956 23.4806 26 22 26C20.5194 26 19.2267 25.1956 18.5351 24H13.4649C12.7733 25.1956 11.4806 26 10 26C8.51944 26 7.22675 25.1956 6.53513 24H5C3.34315 24 2 22.6569 2 21V9C2 7.34315 3.34315 6 5 6H19C20.6569 6 22 7.34315 22 9V10H25C25.3038 10 25.5911 10.1381 25.7809 10.3753L29.7809 15.3753ZM22 18C24.2091 18 26 19.7909 26 22H28V16.3508L24.5194 12H22V18Z" fill="black"/>
</svg>
