<svg width="32" height="32" viewBox="0 0 32 32" fill="none" xmlns="http://www.w3.org/2000/svg">
<path d="M10.6667 17.9199L14.4934 13.8402C14.6835 13.6289 14.9158 13.46 15.1754 13.3444C15.4349 13.2288 15.7159 13.1689 16.0001 13.1689C16.2842 13.1689 16.5652 13.2288 16.8248 13.3444C17.0844 13.46 17.3167 13.6289 17.5068 13.8402L21.3334 17.9199" stroke="black" stroke-width="1.5" stroke-linecap="round" stroke-linejoin="round"/>
<path d="M4 9.33333L4 22.6667C4 25.6122 6.38781 28 9.33333 28H22.6667C25.6122 28 28 25.6122 28 22.6667V9.33333C28 6.38781 25.6122 4 22.6667 4H9.33333C6.38781 4 4 6.38781 4 9.33333Z" stroke="black" stroke-width="1.5" stroke-linecap="round" stroke-linejoin="round"/>
</svg>
