<svg width="32" height="32" viewBox="0 0 32 32" fill="none" xmlns="http://www.w3.org/2000/svg">
<path d="M13.5988 16C17.2807 16 20.2655 13.0153 20.2655 9.33335C20.2655 5.65146 17.2807 2.66669 13.5988 2.66669C9.9169 2.66669 6.93213 5.65146 6.93213 9.33335C6.93213 13.0153 9.9169 16 13.5988 16Z" stroke="black" stroke-width="1.5" stroke-linecap="round" stroke-linejoin="round"/>
<path d="M1.3335 29.3333C2.094 26.711 3.66409 24.3962 5.81934 22.7199C7.97458 21.0436 10.6046 20.0916 13.3335 20C18.8268 20 23.5068 23.88 25.3335 29.3333" stroke="black" stroke-width="1.5" stroke-linecap="round" stroke-linejoin="round"/>
<path d="M23.7608 5.9201C24.7765 6.44081 25.5984 7.2736 26.1055 8.29608C26.6127 9.31856 26.7785 10.4767 26.5785 11.6004C26.3786 12.7242 25.8234 13.754 24.9946 14.5388C24.1658 15.3235 23.1071 15.8216 21.9741 15.96" stroke="black" stroke-width="1.5" stroke-linecap="round" stroke-linejoin="round"/>
<path d="M23.0938 19.4268C24.8723 19.88 26.5039 20.7844 27.8306 22.0527C29.1573 23.3211 30.1343 24.9103 30.6671 26.6667" stroke="black" stroke-width="1.5" stroke-linecap="round" stroke-linejoin="round"/>
</svg>
