<svg width="32" height="32" viewBox="0 0 32 32" fill="none" xmlns="http://www.w3.org/2000/svg">
<path d="M15.9998 28.3334C22.8113 28.3334 28.3332 22.8115 28.3332 16C28.3332 9.18851 22.8113 3.66669 15.9998 3.66669C9.18832 3.66669 3.6665 9.18851 3.6665 16C3.6665 22.8115 9.18832 28.3334 15.9998 28.3334Z" stroke="black" stroke-width="1.5" stroke-linecap="round" stroke-linejoin="round"/>
<path d="M16.1737 17.3333C18.4271 17.3333 20.2537 15.5067 20.2537 13.2533C20.2537 11 18.4271 9.17334 16.1737 9.17334C13.9204 9.17334 12.0938 11 12.0938 13.2533C12.0938 15.5067 13.9204 17.3333 16.1737 17.3333Z" stroke="black" stroke-width="1.5" stroke-linecap="round" stroke-linejoin="round"/>
<path d="M8.6665 25.48C9.0761 23.8452 10.0202 22.3941 11.3489 21.3573C12.6775 20.3204 14.3145 19.7573 15.9998 19.7573C17.6852 19.7573 19.3221 20.3204 20.6508 21.3573C21.9794 22.3941 22.9236 23.8452 23.3332 25.48" stroke="black" stroke-width="1.5" stroke-linecap="round" stroke-linejoin="round"/>
</svg>
