<svg width="32" height="32" viewBox="0 0 32 32" fill="none" xmlns="http://www.w3.org/2000/svg">
<path d="M5 8C4.44771 8 4 8.44772 4 9V23C4 23.5523 4.44772 24 5 24H21C21.5523 24 22 23.5523 22 23V9C22 8.44772 21.5523 8 21 8H5ZM24 20.5V23C24 24.6569 22.6569 26 21 26H5C3.34315 26 2 24.6569 2 23V9C2 7.34315 3.34315 6 5 6H21C22.6569 6 24 7.34315 24 9V11.5L28.4 8.20001C28.703 7.97274 29.1084 7.93619 29.4472 8.10558C29.786 8.27497 30 8.62123 30 9.00001V23C30 23.3788 29.786 23.725 29.4472 23.8944C29.1084 24.0638 28.703 24.0273 28.4 23.8L24 20.5ZM24 18L28 21V11L24 14V18Z" fill="black"/>
</svg>
