<svg width="32" height="32" viewBox="0 0 32 32" fill="none" xmlns="http://www.w3.org/2000/svg">
<path d="M5 8H21C21.5523 8 22 8.44772 22 9V16.5121C22.6368 16.287 23.3065 16.1316 24 16.0549V14L28 11V16.5121C28.7121 16.7638 29.383 17.1025 30 17.5155V9C30 8.62123 29.786 8.27496 29.4472 8.10557C29.1084 7.93618 28.703 7.97274 28.4 8.2L24 11.5V9C24 7.34315 22.6569 6 21 6H5C3.34315 6 2 7.34315 2 9V23C2 24.6569 3.34315 26 5 26H16.0549C16.0186 25.6717 16 25.338 16 25C16 24.662 16.0186 24.3283 16.0549 24H5C4.44772 24 4 23.5523 4 23V9C4 8.44772 4.44771 8 5 8ZM25 32C28.866 32 32 28.866 32 25C32 21.134 28.866 18 25 18C21.134 18 18 21.134 18 25C18 28.866 21.134 32 25 32ZM25 21C25.5523 21 26 21.4477 26 22V24H28C28.5523 24 29 24.4477 29 25C29 25.5523 28.5523 26 28 26H26V28C26 28.5523 25.5523 29 25 29C24.4477 29 24 28.5523 24 28V26H22C21.4477 26 21 25.5523 21 25C21 24.4477 21.4477 24 22 24H24V22C24 21.4477 24.4477 21 25 21Z" fill="black"/>
</svg>
