<svg width="32" height="32" viewBox="0 0 32 32" fill="none" xmlns="http://www.w3.org/2000/svg">
<g clip-path="url(#clip0_541_276)">
<path d="M15.999 0C15.1197 0.00394959 14.5645 0.0952441 14.1396 0.328125C13.7148 0.561006 13.5071 0.944196 13.3799 1.23633C13.2527 1.52846 13.1698 1.75991 12.9404 2.01855C12.711 2.2772 12.3227 2.578 11.5566 2.88672C10.7792 3.20004 10.2865 3.25273 9.93945 3.22266C9.59243 3.19258 9.36905 3.0771 9.06543 2.95312C8.76181 2.82915 8.32677 2.70812 7.85059 2.85645C7.3744 3.00477 6.89706 3.35152 6.23438 4.00098C5.57169 4.65043 5.21386 5.1187 5.05664 5.5918C4.89942 6.0649 5.01456 6.50464 5.13379 6.80957C5.25302 7.1145 5.36449 7.33901 5.38867 7.68457C5.41285 8.03013 5.35081 8.51686 5.02344 9.28613C4.69734 10.0524 4.3907 10.4094 4.12988 10.6113C3.86906 10.8132 3.63244 10.8753 3.31445 10.999C2.99646 11.1227 2.58495 11.3705 2.3623 11.8477C2.13965 12.3248 2.05176 12.9639 2.05176 14C2.05176 14.0991 2.05402 14.1912 2.05566 14.2832C0.610528 14.8042 0 16.0257 0 17V21.085C0 21.9689 0.397577 23.0581 0.771484 24.1152C0.958439 24.6438 1.14579 25.1571 1.28027 25.585C1.41475 26.0128 1.4873 26.378 1.4873 26.5039V26.999C1.21577 27.006 0.999409 27.2284 1 27.5V31.4971C0.998405 31.7736 1.22154 31.9989 1.49805 32H9.50098C9.77748 31.9989 10.0006 31.7736 9.99902 31.4971V27.5C9.99962 27.2558 9.82372 27.0469 9.58301 27.0059C9.64522 26.8887 9.7254 26.7557 9.8252 26.585C10.0578 26.187 10.337 25.6289 10.4482 24.7949C10.7376 24.8341 11.0977 24.9274 11.5566 25.1123C12.3227 25.421 12.711 25.7208 12.9404 25.9795C13.1698 26.2381 13.2527 26.4696 13.3799 26.7617C13.5071 27.0539 13.7148 27.437 14.1396 27.6699C14.5645 27.9028 15.1207 27.994 16 27.998C16.8793 27.9941 17.4345 27.9028 17.8594 27.6699C18.2842 27.437 18.4929 27.0539 18.6201 26.7617C18.7473 26.4696 18.8292 26.2381 19.0586 25.9795C19.288 25.7208 19.6773 25.421 20.4434 25.1123C20.9024 24.9273 21.2624 24.8341 21.5518 24.7949C21.663 25.6289 21.9413 26.187 22.1738 26.585C22.2882 26.7806 22.3542 26.8814 22.4189 27.0107C22.133 27.0563 22.0025 27.2803 22.001 27.5V31.4971C21.9994 31.7736 22.2225 31.9989 22.499 32H30.4971C30.7751 32.001 31.0006 31.7751 30.999 31.4971V27.5C30.9924 27.2337 30.778 27.0194 30.5117 27.0127V26.5039C30.5117 26.378 30.5843 26.0128 30.7188 25.585C30.8532 25.1571 31.0377 24.6438 31.2246 24.1152C31.5985 23.0581 32 21.9689 32 21.085V17C32 16.0259 31.3888 14.8044 29.9443 14.2832C29.946 14.1912 29.9473 14.0991 29.9473 14C29.9473 12.9639 29.8604 12.3248 29.6377 11.8477C29.4149 11.3705 29.0026 11.1227 28.6846 10.999C28.3666 10.8753 28.13 10.8132 27.8692 10.6113C27.6083 10.4094 27.3027 10.0524 26.9766 9.28613C26.6492 8.51686 26.5862 8.03013 26.6104 7.68457C26.6346 7.33901 26.7421 7.1145 26.8613 6.80957C26.9806 6.50464 27.0967 6.0649 26.9395 5.5918C26.7822 5.1187 26.4283 4.65043 25.7656 4.00098C25.1029 3.35152 24.6246 3.00477 24.1484 2.85645C23.6723 2.70812 23.2382 2.82914 22.9346 2.95312C22.6309 3.0771 22.4066 3.19258 22.0596 3.22266C21.7125 3.25273 21.2208 3.20004 20.4434 2.88672C19.6773 2.578 19.288 2.2772 19.0586 2.01855C18.8292 1.75991 18.7473 1.52846 18.6201 1.23633C18.493 0.944196 18.2842 0.561006 17.8594 0.328125C17.4345 0.0952439 16.8783 0.00395753 15.999 0ZM15.9951 1C16.7944 1.00362 17.2025 1.1059 17.3799 1.20312C17.5572 1.30035 17.5907 1.38089 17.7012 1.63477C17.8117 1.88864 17.9578 2.28695 18.3096 2.68359C18.6614 3.08024 19.2037 3.46327 20.0703 3.8125C20.9498 4.16693 21.6119 4.26491 22.1445 4.21875C22.6771 4.17259 23.0574 3.98227 23.3106 3.87891C23.5637 3.77554 23.6374 3.7464 23.8496 3.8125C24.0618 3.8786 24.4527 4.11329 25.0645 4.71289C25.6763 5.31249 25.9207 5.69978 25.9902 5.90918C26.0598 6.11858 26.031 6.19043 25.9316 6.44434C25.8324 6.69824 25.6515 7.08175 25.6143 7.61426C25.577 8.14677 25.6831 8.80681 26.0537 9.67773C26.4256 10.5517 26.8368 11.0762 27.2568 11.4014C27.6768 11.7265 28.0825 11.8351 28.3232 11.9287C28.564 12.0224 28.6242 12.0385 28.7334 12.2725C28.8426 12.5064 28.9473 13.0277 28.9473 14C28.9473 14.9668 28.8421 15.488 28.7334 15.7236C28.6387 15.9291 28.5754 15.9675 28.4063 16.0352C28.2995 16.0578 28.1935 16.0901 28.0908 16.1318C27.2616 16.4686 26.5426 17.4202 26.5 18.8379V20.9893C26.5 21.073 26.4567 21.177 26.3008 21.3662C26.1448 21.5554 25.8928 21.7947 25.625 22.0967C25.2936 22.4704 24.9429 22.9598 24.7227 23.6055C24.2604 24.0126 23.9621 24.1623 23.7979 24.2002C23.6175 24.2418 23.5265 24.2089 23.2666 24.1006C23.0067 23.9922 22.6258 23.8132 22.1006 23.7764C21.5753 23.7395 20.924 23.8415 20.0703 24.1855C19.2037 24.5348 18.6613 24.9188 18.3096 25.3154C17.9578 25.7121 17.8117 26.1094 17.7012 26.3633C17.5907 26.6172 17.5572 26.6977 17.3799 26.7949C17.2034 26.8917 16.7939 26.9934 16.0029 26.998C15.2036 26.9944 14.7975 26.8922 14.6201 26.7949C14.4428 26.6977 14.4094 26.6172 14.2988 26.3633C14.1883 26.1094 14.0373 25.7121 13.6855 25.3154C13.3338 24.9188 12.7953 24.5348 11.9287 24.1855C11.075 23.8415 10.4247 23.7395 9.89941 23.7764C9.37416 23.8132 8.99228 23.9922 8.73242 24.1006C8.47256 24.209 8.38157 24.2418 8.20117 24.2002C8.03652 24.1623 7.73839 24.0117 7.27441 23.6025C7.053 22.9583 6.70098 22.4699 6.37012 22.0967C6.10235 21.7947 5.85517 21.5554 5.69922 21.3662C5.54326 21.177 5.49902 21.073 5.49902 20.9893V18.8447H5.5V18.8437V18.8427V18.8417V18.8407V18.8397V18.8387V18.8377V18.8367V18.8357V18.8347V18.8337V18.8327V18.8317V18.8307L5.499 18.8297C5.45643 17.4204 4.73839 16.4686 3.90918 16.1318C3.80612 16.09 3.6999 16.0568 3.59277 16.0342C3.42418 15.9667 3.36119 15.9288 3.2666 15.7236C3.15795 15.488 3.05273 14.9668 3.05273 14C3.05273 13.0277 3.15744 12.5064 3.2666 12.2725C3.37577 12.0385 3.43502 12.0224 3.67578 11.9287C3.91654 11.8351 4.32316 11.7265 4.74316 11.4014C5.16316 11.0762 5.57438 10.5517 5.94629 9.67773C6.31692 8.80681 6.423 8.14677 6.38574 7.61426C6.34848 7.08175 6.16764 6.69824 6.06836 6.44434C5.96908 6.19043 5.9353 6.11858 6.00488 5.90918C6.07447 5.69978 6.31983 5.31249 6.93164 4.71289C7.54345 4.11329 7.93331 3.8786 8.14551 3.8125C8.3577 3.7464 8.43144 3.77554 8.68457 3.87891C8.9377 3.98227 9.31897 4.17259 9.85156 4.21875C10.3842 4.26491 11.0492 4.16693 11.9287 3.8125C12.7953 3.46327 13.3338 3.08024 13.6855 2.68359C14.0373 2.28695 14.1883 1.88864 14.2988 1.63477C14.4093 1.38089 14.4428 1.30035 14.6201 1.20312C14.7965 1.10641 15.2041 1.00464 15.9951 1ZM13.6348 4.50098C13.3874 4.5127 13.1289 4.57559 12.874 4.70605C12.4146 4.94128 12.0107 5.47527 12.0107 6.17871C12.0107 6.4496 12.0446 6.70434 12.0996 6.94531C9.93156 8.0646 8.34239 10.0699 7.75098 12.4531C7.12832 14.9623 7.68138 17.6171 9.25098 19.667C10.0641 22.2346 12.5384 23.9971 15.999 23.9971C19.4533 23.9971 21.9572 22.2049 22.7393 19.6816C24.3171 17.6301 24.8717 14.9677 24.2481 12.4531C23.6589 10.0775 22.0775 8.0794 19.9199 6.95801C19.9733 6.72677 20.0077 6.48242 20.0117 6.20117C20.0122 5.47528 19.6606 4.9739 19.1475 4.70605C18.688 4.48197 18.1948 4.45858 17.8369 4.55469C17.025 4.73603 16.5536 5.30019 16.0098 5.75684C15.9084 5.67436 15.8103 5.58925 15.7119 5.50293C15.2833 5.1269 14.844 4.70679 14.1846 4.55859C14.0867 4.53331 13.9838 4.51489 13.8779 4.50586C13.7986 4.49908 13.7172 4.49707 13.6348 4.50098ZM18.2783 5.5C18.473 5.5009 18.6226 5.56447 18.6934 5.59961C18.8378 5.67725 19.0107 5.80075 19.0107 6.17871C19.0079 6.29629 18.9939 6.42847 18.7783 6.52539C18.5652 6.62118 18.0592 6.67037 17.2168 6.44824C17.105 6.41054 17.0005 6.36839 16.9004 6.32324C17.3189 5.93512 17.7084 5.60221 18.0703 5.52344C18.1439 5.50651 18.2134 5.49969 18.2783 5.5ZM13.6758 5.5039C13.7888 5.49602 13.8904 5.5076 13.9512 5.52343C14.2967 5.5986 14.6117 5.86641 15.0557 6.25585C15.4996 6.6453 16.0691 7.12653 16.9277 7.41113C17.5939 7.59028 18.1553 7.64543 18.6006 7.59472C18.4659 7.88222 18.3079 8.18124 18.1904 8.50585C16.7092 8.49106 15.1347 8.49036 13.8408 8.5088C13.5218 7.7227 13.0107 6.92595 13.0107 6.17872C13.0107 5.80076 13.2123 5.66061 13.332 5.59962C13.4387 5.53913 13.5627 5.51178 13.6758 5.5039ZM13.9863 9.50097H18C18.2898 9.50097 18.498 9.71165 18.498 10.001C18.498 10.2903 18.2898 10.501 18 10.501H14C13.7102 10.501 13.502 10.2903 13.502 10.001C13.502 9.72017 13.6969 9.51359 13.9863 9.50097ZM18.3145 11.4668C18.77 12.6026 19.6435 13.5036 20.3955 14.4238C21.2746 15.4995 22.001 16.5567 22.001 17.9775C22.001 20.6685 19.7898 22.9971 15.999 22.9971C12.2082 22.9971 9.98843 20.6788 9.99902 17.9814C10.0045 16.5792 10.7323 15.5206 11.6152 14.4424C12.3712 13.5192 13.2455 12.6104 13.7031 11.4717C13.7991 11.4911 13.8988 11.501 14 11.501H18C18.1078 11.501 18.2127 11.4887 18.3145 11.4668ZM15.999 12.999C15.721 12.9979 15.4964 13.2239 15.498 13.5019V14H15C14.1777 14 13.502 14.6757 13.502 15.498V16.4971C13.502 17.3194 14.1777 18 15 18H15.498V20H15C14.7143 20 14.502 19.7837 14.502 19.498C14.5009 19.2219 14.2761 18.9989 14 19C13.7254 19.0011 13.503 19.2234 13.502 19.498C13.502 20.3204 14.1777 21.001 15 21.001H15.498V21.499C15.4969 21.7767 15.7214 22.0021 15.999 22.001C16.2752 21.9999 16.4981 21.7752 16.4971 21.499V21.001H17C17.8223 21.001 18.498 20.3204 18.498 19.498V18.498C18.498 17.6757 17.8223 17 17 17H16.4971V15H17C17.2856 15 17.498 15.2124 17.498 15.498C17.4969 15.7757 17.7223 16.0001 18 15.999C18.2761 15.9979 18.4991 15.7742 18.498 15.498C18.498 14.6757 17.8223 14 17 14H16.4971V13.502C16.4987 13.2254 16.2755 13.0001 15.999 12.999ZM15 15H15.498V17H15C14.7143 17 14.502 16.7827 14.502 16.4971V15.498C14.502 15.2124 14.7144 15 15 15ZM2.13184 15.3311C2.18316 15.6953 2.28282 16.0287 2.43945 16.2949C2.15372 16.5438 2.00098 16.926 2.00098 17.3428V20.9932C2.00205 21.2678 2.22441 21.4901 2.49902 21.4912C2.77516 21.4923 2.9999 21.2693 3.00098 20.9932V17.3428C3.00098 17.1025 3.05528 17.0681 3.11914 17.0332C3.183 16.9983 3.3313 16.977 3.53223 17.0586C3.93408 17.2218 4.46608 17.7698 4.49902 18.8594V20.9893C4.49902 21.4054 4.70959 21.7402 4.92773 22.0049C5.14588 22.2696 5.3935 22.4996 5.625 22.7607C6.08801 23.283 6.49747 23.876 6.5 24.9902C6.5011 25.2664 6.72582 25.4894 7.00195 25.4883C7.2743 25.4872 7.49575 25.2684 7.5 24.9961C7.66243 25.0797 7.81927 25.1385 7.97656 25.1748C8.43542 25.2806 8.82944 25.143 9.11621 25.0234C9.22271 24.979 9.32083 24.9371 9.41895 24.9004C9.31996 25.4359 9.14594 25.7642 8.96191 26.0791C8.80317 26.3507 8.60946 26.6388 8.50781 26.998H2.4873V26.5039C2.4873 26.1299 2.37805 25.7424 2.2334 25.2822C2.08875 24.822 1.90104 24.3069 1.71582 23.7832C1.34538 22.7359 1 21.6189 1 21.085V17C1 16.4681 1.28654 15.7406 2.13184 15.3311ZM29.8682 15.333C30.7145 15.7376 30.999 16.469 30.999 17V21.085C30.999 21.6189 30.6536 22.7359 30.2832 23.7832C30.098 24.3069 29.9113 24.822 29.7666 25.2822C29.6219 25.7424 29.5117 26.1299 29.5117 26.5039V26.998H23.4922C23.3905 26.6388 23.1968 26.3507 23.0381 26.0791C22.8542 25.7644 22.6791 25.4354 22.5801 24.9004C22.6785 24.9372 22.776 24.9789 22.8828 25.0234C23.1696 25.143 23.5646 25.2805 24.0234 25.1748C24.181 25.1385 24.3383 25.0799 24.501 24.9961C24.5053 25.268 24.7261 25.4867 24.998 25.4883C25.2742 25.4894 25.4989 25.2664 25.5 24.9902C25.5025 23.876 25.912 23.283 26.375 22.7607C26.6065 22.4996 26.8541 22.2696 27.0723 22.0049C27.2904 21.7402 27.5 21.4054 27.5 20.9893V18.8594C27.5329 17.7698 28.0649 17.2218 28.4668 17.0586C28.6677 16.977 28.817 16.9983 28.8809 17.0332C28.9219 17.0616 28.999 17.1025 28.999 17.3428V20.9932C29.0001 21.2693 29.2248 21.4923 29.501 21.4912C29.7756 21.4902 29.998 21.2678 29.999 20.9932V17.3428C29.999 16.9261 29.8438 16.5337 29.5605 16.2949C29.7364 16.0018 29.8111 15.6667 29.8682 15.333ZM16.4971 18H17C17.2856 18 17.498 18.2124 17.498 18.498V19.498C17.498 19.7837 17.2857 20 17 20H16.4971V18Z" fill="black"/>
</g>
<defs>
<clipPath id="clip0_541_276">
<rect width="32" height="32" fill="white"/>
</clipPath>
</defs>
</svg>
