<svg width="32" height="32" viewBox="0 0 32 32" fill="none" xmlns="http://www.w3.org/2000/svg">
<path d="M10.2194 2.80388C10.3129 2.33646 10.7233 2 11.2 2H20.8C21.2767 2 21.6871 2.33646 21.7806 2.80388L22.9806 8.80388C22.9835 8.8183 22.986 8.8327 22.9883 8.84709C24.8465 10.6628 26 13.1967 26 16C26 18.8033 24.8465 21.3372 22.9883 23.1529C22.986 23.1673 22.9835 23.1817 22.9806 23.1961L21.7806 29.1961C21.6871 29.6635 21.2767 30 20.8 30H11.2C10.7233 30 10.3129 29.6635 10.2194 29.1961L9.01943 23.1961C9.01655 23.1817 9.014 23.1673 9.01176 23.1529C7.1535 21.3372 6 18.8033 6 16C6 13.1967 7.1535 10.6628 9.01176 8.84706C9.01399 8.83268 9.01655 8.81829 9.01943 8.80388L10.2194 2.80388ZM11.3957 24.8793L12.0198 28H19.9802L20.6044 24.8793C19.2262 25.5953 17.6604 26 16 26C14.3396 26 12.7738 25.5953 11.3957 24.8793ZM19.9802 4H12.0198L11.3957 7.12073C12.7738 6.40466 14.3396 6 16 6C17.6604 6 19.2262 6.40466 20.6044 7.12074L19.9802 4ZM24 16C24 11.5817 20.4183 8 16 8C11.5817 8 8 11.5817 8 16C8 20.4183 11.5817 24 16 24C20.4183 24 24 20.4183 24 16ZM17 11C17 10.4477 16.5523 10 16 10C15.4477 10 15 10.4477 15 11V15H12C11.4477 15 11 15.4477 11 16C11 16.5523 11.4477 17 12 17H16C16.5523 17 17 16.5523 17 16V11Z" fill="black"/>
</svg>
