<svg width="32" height="32" viewBox="0 0 32 32" fill="none" xmlns="http://www.w3.org/2000/svg">
<path d="M10.2194 2.80388C10.3129 2.33646 10.7233 2 11.2 2H20.8C21.2767 2 21.6871 2.33646 21.7806 2.80388L22.3877 5.83955C20.538 4.6742 18.3477 4 16 4C13.6523 4 11.462 4.6742 9.6123 5.83954L10.2194 2.80388ZM16 6C18.7195 6 21.1855 7.08559 22.9882 8.84706C24.8465 10.6628 26 13.1967 26 16C26 18.8033 24.8465 21.3372 22.9882 23.1529C21.1855 24.9144 18.7195 26 16 26C13.2805 26 10.8145 24.9144 9.01177 23.153C7.15351 21.3372 6 18.8033 6 16C6 13.1967 7.15351 10.6628 9.01177 8.84704C10.8145 7.08558 13.2805 6 16 6ZM16 10C15.4477 10 15 10.4477 15 11V15H12C11.4477 15 11 15.4477 11 16C11 16.5523 11.4477 17 12 17H16C16.5523 17 17 16.5523 17 16V11C17 10.4477 16.5523 10 16 10ZM16 28C13.6523 28 11.462 27.3258 9.6123 26.1605L10.2194 29.1961C10.3129 29.6635 10.7233 30 11.2 30H20.8C21.2767 30 21.6871 29.6635 21.7806 29.1961L22.3877 26.1604C20.538 27.3258 18.3477 28 16 28Z" fill="black"/>
</svg>
