<svg width="32" height="32" viewBox="0 0 32 32" fill="none" xmlns="http://www.w3.org/2000/svg">
<path d="M15 5C15 4.44772 15.4477 4 16 4C16.5523 4 17 4.44772 17 5V27C17 27.5523 16.5523 28 16 28C15.4477 28 15 27.5523 15 27V5ZM24 8C23.4477 8 23 8.44771 23 9V23C23 23.5523 23.4477 24 24 24C24.5523 24 25 23.5523 25 23V9C25 8.44771 24.5523 8 24 8ZM3 15C3 14.4477 3.44772 14 4 14C4.55228 14 5 14.4477 5 15V17C5 17.5523 4.55228 18 4 18C3.44772 18 3 17.5523 3 17V15ZM27 15C27 14.4477 27.4477 14 28 14C28.5523 14 29 14.4477 29 15V17C29 17.5523 28.5523 18 28 18C27.4477 18 27 17.5523 27 17V15ZM12 9C11.4477 9 11 9.44772 11 10V22C11 22.5523 11.4477 23 12 23C12.5523 23 13 22.5523 13 22V10C13 9.44772 12.5523 9 12 9ZM7 13C7 12.4477 7.44772 12 8 12C8.55229 12 9 12.4477 9 13V19C9 19.5523 8.55229 20 8 20C7.44772 20 7 19.5523 7 19V13ZM20 12C19.4477 12 19 12.4477 19 13V19C19 19.5523 19.4477 20 20 20C20.5523 20 21 19.5523 21 19V13C21 12.4477 20.5523 12 20 12Z" fill="black"/>
</svg>
