<svg width="175" height="175" viewBox="0 0 175 175" fill="none" xmlns="http://www.w3.org/2000/svg">
<path d="M17.1467 118.923L12.7821 164.44H17.8741L22.0309 121.21C22.1971 115.972 26.6033 113.901 28.7856 113.52L62.7672 107.285L69.4181 123.912L79.6021 133.784V164.44H84.6942V133.784H89.8901V164.44H94.8783V133.784L105.166 123.912L111.817 107.077L146.214 113.624C150.87 114.372 152.45 118.923 152.657 121.106L156.71 164.44H162.01L157.749 120.586C157.417 113.686 151.93 110.021 149.228 109.051L112.648 102.192C110.57 102.442 109.773 98.7631 109.635 96.8926L105.166 99.8023C105.333 102.38 106.621 104.132 107.245 104.687L100.802 121.002L92.696 128.692H81.6805L73.7827 121.002L67.3397 104.687C68.753 103.523 69.3141 100.945 69.4181 99.8023L64.9495 96.8926C64.7833 100.966 62.8711 102.123 61.9359 102.192L28.7856 108.324C20.4721 109.82 17.5624 116.014 17.1467 118.923Z" fill="#516678"/>
<path fill-rule="evenodd" clip-rule="evenodd" d="M42.8147 100.634L48.0107 99.6991V53.3511C54.1766 52.7969 69.3973 48.5916 80.9531 36.2045C86.634 43.7213 103.711 59.0459 126.574 60.2098V99.5952C128.132 99.803 131.333 100.281 131.666 100.53V51.2727C131.666 37.0358 120.338 7.52275 86.6686 7.00315C71.3925 6.76698 43.9578 19.7852 43.0226 50.7532L42.8147 100.634ZM48.3224 48.2587C54.4537 47.3927 69.2726 42.6263 79.4982 30.4885C79.9485 29.9689 81.5766 28.8257 82.9276 30.4885C88.0889 38.1092 104.023 53.7041 126.47 55.1174C127.509 40.7764 118.572 13.3417 87.1882 12.0948C75.9303 12.0602 52.3961 19.2444 48.3224 48.2587Z" fill="#516678"/>
<path d="M60.5849 55.2212C59.5873 55.8031 56.3589 56.7107 54.8694 57.0917C54.4537 57.5074 54.2458 61.6642 54.2458 64.5739C56.3242 93.2556 77.212 99.3869 87.2922 99.3869C108.284 99.3869 117.81 80.9585 119.715 71.5365C120.235 69.2503 120.2 66.202 120.235 64.5739C119.237 64.5739 116.493 63.8811 115.246 63.5347V65.3533V67.1719C112.545 88.4753 95.6057 94.6066 87.5 94.2948C67.215 94.2948 60.481 76.2129 59.6497 67.1719C59.3248 63.6386 60.0653 57.8538 60.5849 55.2212Z" fill="#516678"/>
<path d="M78.563 57.7231H70.6651C69.7298 57.7232 68.1742 58.1939 68.171 60.3134C68.1678 62.4428 69.8337 62.9114 70.6651 62.9115H78.563C79.1865 62.9115 81.057 62.3463 81.057 60.3134C81.057 58.2804 79.3943 57.7231 78.563 57.7231Z" fill="#20A2DC"/>
<path d="M103.919 57.7153H96.0214C95.0861 57.7154 93.5305 58.186 93.5273 60.3056C93.5241 62.435 95.19 62.9036 96.0214 62.9037H103.919C104.543 62.9037 106.413 62.3385 106.413 60.3056C106.413 58.2726 104.751 57.7153 103.919 57.7153Z" fill="#20A2DC"/>
<path d="M77.212 77.8756C74.7179 77.8756 73.9905 80.2657 74.7179 81.5128C76.7963 84.5264 80.7245 87.9142 87.2922 88.1636C93.8599 88.413 98.4115 83.8336 99.8664 81.5128C100.906 78.8111 98.2037 77.3908 96.7488 77.8756C95.8135 78.1873 95.3979 79.0689 94.8783 79.6422C93.8737 80.7507 90.9501 82.9884 87.2922 83.0715C83.6342 83.1547 80.7799 80.82 79.81 79.6422C78.6669 78.0836 77.8355 77.8756 77.212 77.8756Z" fill="#20A2DC"/>
<path d="M172.254 164.136H2.96843C2.01663 164.065 0.0910724 164.454 0.00321413 166.571C-0.0846441 168.689 1.65056 169.289 2.52914 169.324H172.804C173.536 169.254 175 168.604 175 166.571C175 164.538 173.17 164.101 172.254 164.136Z" fill="#20A2DC"/>
</svg>
