<svg width="175" height="176" viewBox="0 0 175 176" fill="none" xmlns="http://www.w3.org/2000/svg">
<path d="M14.7146 37.6021L13.5773 38.1716L15.1885 40.2599H12.7244V41.304L15.1885 40.8294L13.5773 43.2025L14.7146 43.772L15.6623 41.304L16.7996 43.772L17.9369 43.0126L16.3257 40.8294L18.9794 41.304V40.2599H16.3257L17.9369 38.1716L17.0839 37.6021L15.6623 39.8802L14.7146 37.6021Z" fill="#20A2DC"/>
<path d="M40.949 14.4764L39.8117 15.046L41.4228 17.1343H38.9587V18.1784L41.4228 17.7038L39.8117 20.0769L40.949 20.6464L41.8967 18.1784L43.034 20.6464L44.1712 19.887L42.5601 17.7038L45.2137 18.1784V17.1343H42.5601L44.1712 15.046L43.3183 14.4764L41.8967 16.7546L40.949 14.4764Z" fill="#20A2DC"/>
<path d="M157.025 35.7395L155.888 36.309L157.499 38.3973H155.035V39.4415L157.499 38.9669L155.888 41.3399L157.025 41.9095L157.973 39.4415L159.11 41.9095L160.248 41.1501L158.637 38.9669L161.29 39.4415V38.3973H158.637L160.248 36.309L159.395 35.7395L157.973 38.0176L157.025 35.7395Z" fill="#20A2DC"/>
<path d="M108.716 19.2253L107.578 19.7949L109.189 21.8832H106.725V22.9273L109.189 22.4527L107.578 24.8258L108.716 25.3953L109.663 22.9273L110.801 25.3953L111.938 24.6359L110.327 22.4527L112.98 22.9273V21.8832H110.327L111.938 19.7949L111.085 19.2253L109.663 21.5035L108.716 19.2253Z" fill="#20A2DC"/>
<path d="M83.198 2.95776L82.681 3.23815L83.4134 4.26623H82.2933V4.78027L83.4134 4.54662L82.681 5.71489L83.198 5.99528L83.6288 4.78027L84.1457 5.99528L84.6627 5.62143L83.9303 4.54662L85.1365 4.78027V4.26623H83.9303L84.6627 3.23815L84.2749 2.95776L83.6288 4.07931L83.198 2.95776Z" fill="#20A2DC"/>
<path fill-rule="evenodd" clip-rule="evenodd" d="M20.8201 11.2858C22.0763 11.2858 23.0947 10.2658 23.0947 9.00763C23.0947 7.74945 22.0763 6.72949 20.8201 6.72949C19.5639 6.72949 18.5456 7.74945 18.5456 9.00763C18.5456 10.2658 19.5639 11.2858 20.8201 11.2858ZM20.7902 9.72704C21.2034 9.72704 21.5384 9.39153 21.5384 8.97765C21.5384 8.56378 21.2034 8.22827 20.7902 8.22827C20.377 8.22827 20.042 8.56378 20.042 8.97765C20.042 9.39153 20.377 9.72704 20.7902 9.72704Z" fill="#516678"/>
<path fill-rule="evenodd" clip-rule="evenodd" d="M12.6267 54.6374C13.8829 54.6374 14.9012 53.6175 14.9012 52.3593C14.9012 51.1011 13.8829 50.0812 12.6267 50.0812C11.3705 50.0812 10.3521 51.1011 10.3521 52.3593C10.3521 53.6175 11.3705 54.6374 12.6267 54.6374ZM12.5967 53.0787C13.0099 53.0787 13.3449 52.7432 13.3449 52.3293C13.3449 51.9155 13.0099 51.58 12.5967 51.58C12.1835 51.58 11.8485 51.9155 11.8485 52.3293C11.8485 52.7432 12.1835 53.0787 12.5967 53.0787Z" fill="#516678"/>
<path fill-rule="evenodd" clip-rule="evenodd" d="M85.8381 29.1842C88.0512 29.1842 89.8452 27.3873 89.8452 25.1708C89.8452 22.9542 88.0512 21.1573 85.8381 21.1573C83.625 21.1573 81.831 22.9542 81.831 25.1708C81.831 27.3873 83.625 29.1842 85.8381 29.1842ZM85.7853 26.4381C86.5133 26.4381 87.1034 25.847 87.1034 25.1179C87.1034 24.3888 86.5133 23.7977 85.7853 23.7977C85.0573 23.7977 84.4672 24.3888 84.4672 25.1179C84.4672 25.847 85.0573 26.4381 85.7853 26.4381Z" fill="#516678"/>
<path fill-rule="evenodd" clip-rule="evenodd" d="M158.257 57.5793C159.579 57.5793 160.65 56.5063 160.65 55.1826C160.65 53.8588 159.579 52.7858 158.257 52.7858C156.935 52.7858 155.864 53.8588 155.864 55.1826C155.864 56.5063 156.935 57.5793 158.257 57.5793ZM158.225 55.9392C158.66 55.9392 159.013 55.5862 159.013 55.1508C159.013 54.7154 158.66 54.3624 158.225 54.3624C157.791 54.3624 157.438 54.7154 157.438 55.1508C157.438 55.5862 157.791 55.9392 158.225 55.9392Z" fill="#516678"/>
<path fill-rule="evenodd" clip-rule="evenodd" d="M147.569 17.8569C148.891 17.8569 149.962 16.7839 149.962 15.4601C149.962 14.1364 148.891 13.0634 147.569 13.0634C146.247 13.0634 145.176 14.1364 145.176 15.4601C145.176 16.7839 146.247 17.8569 147.569 17.8569ZM147.538 16.2168C147.972 16.2168 148.325 15.8638 148.325 15.4284C148.325 14.9929 147.972 14.6399 147.538 14.6399C147.103 14.6399 146.75 14.9929 146.75 15.4284C146.75 15.8638 147.103 16.2168 147.538 16.2168Z" fill="#516678"/>
<path fill-rule="evenodd" clip-rule="evenodd" d="M39.2945 42.9221C39.2007 43.8305 40.0371 44.3447 40.467 44.4883C41.2095 48.0905 43.9062 55.9605 50.1593 55.7256C55.9044 55.5098 58.9267 48.3515 59.9298 44.4491C60.8365 44.3238 61.1414 43.4572 61.1804 43.0396L61.0241 39.7506C60.9929 38.6229 60.2816 38.2105 59.9298 38.1452C60.1174 34.9502 57.2983 32.0894 55.8653 31.0583C55.1149 29.3042 53.7288 28.6829 53.1295 28.5916H47.3845C46.1026 28.6229 44.9223 30.3535 44.4924 31.2149C41.5534 33.0943 40.5321 36.6443 40.3888 38.1844C39.6384 38.341 39.4248 39.2155 39.4117 39.6331C39.4117 40.351 39.3883 42.0137 39.2945 42.9221ZM50.0811 53.8462C44.1318 53.6924 42.6306 45.5321 42.4677 44.6468L42.4601 44.6057L44.9223 45.702H55.7089L57.8585 44.6057C57.3895 47.6989 54.0284 53.9482 50.0811 53.8462ZM41.1704 42.648C41.2017 42.5227 41.2616 40.8469 41.2876 40.0247C41.5482 40.0377 42.124 39.8994 42.3429 39.2416V37.9495C42.4601 36.8009 43.359 34.0888 46.0166 32.4287C46.212 31.998 46.7122 31.0661 47.15 30.7842C47.2021 31.6326 47.6971 33.3371 49.2604 33.3684V33.9557V35.0129H51.1754V33.3684C51.8007 33.3423 53.1061 32.7889 53.3249 30.7842C53.6246 31.0191 54.2316 31.6378 54.2629 32.2329C55.5396 33.0943 58.0929 35.4593 58.0929 38.0278V39.2807C58.145 39.5287 58.429 40.0325 59.1482 40.0638L59.2263 42.6089H57.7021L55.2399 43.8227H45.2349L42.8118 42.648H41.1704Z" fill="#516678"/>
<path fill-rule="evenodd" clip-rule="evenodd" d="M50.2374 39.7506C51.8779 39.7506 53.2077 38.4183 53.2077 36.7748C53.2077 35.1314 51.8779 33.7991 50.2374 33.7991C48.597 33.7991 47.2672 35.1314 47.2672 36.7748C47.2672 38.4183 48.597 39.7506 50.2374 39.7506ZM50.1983 37.7145C50.7379 37.7145 51.1754 37.2762 51.1754 36.7356C51.1754 36.195 50.7379 35.7568 50.1983 35.7568C49.6587 35.7568 49.2213 36.195 49.2213 36.7356C49.2213 37.2762 49.6587 37.7145 50.1983 37.7145Z" fill="#20A2DC"/>
<path fill-rule="evenodd" clip-rule="evenodd" d="M30.7557 72.102L32.2002 62.067C32.3015 60.952 33.2493 58.5699 36.2294 57.9617L42.7674 56.7454C43.7557 57.3789 46.0972 58.6459 47.5568 58.6459L50.2936 62.7512L52.8784 58.6459C53.9427 58.4685 56.3907 57.8401 57.6679 56.7454C60.1513 57.2775 65.1941 58.3418 65.4982 58.3418C66.3091 58.6206 67.9918 59.6798 68.235 61.6869L69.7555 72.102H30.7557ZM34.6329 71.95L36.0013 61.991L44.2878 60.2424L49.1533 67.9207C49.432 68.2248 50.248 68.6506 51.2819 67.9207L56.2994 60.2424L64.3579 61.991L65.8783 71.95H34.6329Z" fill="#516678"/>
<path fill-rule="evenodd" clip-rule="evenodd" d="M63.0331 40.7489L69.2895 40.7489C70.7825 40.7489 71.849 40.7489 71.849 43.3084V69.6137C71.849 70.8223 71.849 71.9599 69.5028 71.9599H30.5425C29.476 71.9599 28.4807 71.7466 28.4807 69.9692V42.6685C28.4807 41.8154 28.694 40.7489 30.3292 40.7489H37.5809C37.5809 40.7489 37.5809 40.7489 37.5809 40.7489C37.5809 39.541 37.7492 38.3724 38.0636 37.2653H27.2136C25.3157 37.2653 25.0681 38.5722 25.0681 39.6177V73.075C25.0681 75.2533 26.2234 75.5146 27.4611 75.5146H72.6807C75.4037 75.5146 75.4037 74.1206 75.4037 72.6394V40.4019C75.4037 37.2653 74.166 37.2653 72.4331 37.2653H62.5504C62.8648 38.3724 63.0331 39.541 63.0331 40.7489Z" fill="#516678"/>
<path fill-rule="evenodd" clip-rule="evenodd" d="M113.676 42.9221C113.582 43.8305 114.419 44.3447 114.849 44.4883C115.591 48.0905 118.288 55.9605 124.541 55.7256C130.286 55.5098 133.308 48.3515 134.311 44.4491C135.218 44.3238 135.523 43.4572 135.562 43.0396L135.406 39.7506C135.375 38.6229 134.663 38.2105 134.311 38.1452C134.499 34.9502 131.68 32.0894 130.247 31.0583C129.497 29.3042 128.11 28.6829 127.511 28.5916H121.766C120.484 28.6229 119.304 30.3535 118.874 31.2149C115.935 33.0943 114.914 36.6443 114.77 38.1844C114.02 38.341 113.806 39.2155 113.793 39.6331C113.793 40.351 113.77 42.0137 113.676 42.9221ZM124.463 53.8462C118.513 53.6924 117.012 45.5321 116.849 44.6468L116.842 44.6057L119.304 45.702H130.091L132.24 44.6057C131.771 47.6989 128.41 53.9482 124.463 53.8462ZM115.552 42.648C115.583 42.5227 115.643 40.8469 115.669 40.0247C115.93 40.0377 116.506 39.8994 116.724 39.2416V37.9495C116.842 36.8009 117.741 34.0888 120.398 32.4287C120.594 31.998 121.094 31.0661 121.532 30.7842C121.584 31.6326 122.079 33.3371 123.642 33.3684V33.9557V35.0129H125.557V33.3684C126.182 33.3423 127.488 32.7889 127.707 30.7842C128.006 31.0191 128.613 31.6378 128.645 32.2329C129.921 33.0943 132.475 35.4593 132.475 38.0278V39.2807C132.527 39.5287 132.811 40.0325 133.53 40.0638L133.608 42.6089H132.084L129.622 43.8227H119.617L117.193 42.648H115.552Z" fill="#516678"/>
<path fill-rule="evenodd" clip-rule="evenodd" d="M124.619 39.7506C126.26 39.7506 127.589 38.4183 127.589 36.7748C127.589 35.1314 126.26 33.7991 124.619 33.7991C122.979 33.7991 121.649 35.1314 121.649 36.7748C121.649 38.4183 122.979 39.7506 124.619 39.7506ZM124.58 37.7145C125.12 37.7145 125.557 37.2762 125.557 36.7356C125.557 36.195 125.12 35.7568 124.58 35.7568C124.04 35.7568 123.603 36.195 123.603 36.7356C123.603 37.2762 124.04 37.7145 124.58 37.7145Z" fill="#20A2DC"/>
<path fill-rule="evenodd" clip-rule="evenodd" d="M105.138 72.102L106.582 62.067C106.683 60.952 107.631 58.5699 110.611 57.9617L117.149 56.7454C118.137 57.3789 120.479 58.6459 121.939 58.6459L124.675 62.7512L127.26 58.6459C128.325 58.4685 130.772 57.8401 132.05 56.7454C134.533 57.2775 139.576 58.3418 139.88 58.3418C140.691 58.6206 142.374 59.6798 142.617 61.6869L144.137 72.102H105.138ZM109.015 71.95L110.383 61.991L118.67 60.2424L123.535 67.9207C123.814 68.2248 124.63 68.6506 125.664 67.9207L130.681 60.2424L138.74 61.991L140.26 71.95H109.015Z" fill="#516678"/>
<path fill-rule="evenodd" clip-rule="evenodd" d="M137.415 40.7489C137.415 40.7489 137.415 40.7489 137.415 40.7489C137.415 39.541 137.247 38.3724 136.932 37.2653H146.815C148.548 37.2653 149.785 37.2653 149.785 40.4019V72.6394C149.785 74.1206 149.785 75.5146 147.062 75.5146H101.843C100.605 75.5146 99.4498 75.2533 99.4498 73.075V39.6177C99.4498 38.5722 99.6974 37.2653 101.595 37.2653H112.445C112.131 38.3724 111.963 39.541 111.963 40.7489C111.963 40.7489 111.963 40.7489 111.963 40.7489H104.711C103.076 40.7489 102.862 41.8154 102.862 42.6685V69.9692C102.862 71.7466 103.858 71.9599 104.924 71.9599H143.885C146.231 71.9599 146.231 70.8223 146.231 69.6137V43.3084C146.231 40.7489 145.164 40.7489 143.671 40.7489H137.415Z" fill="#516678"/>
<path d="M48.0952 81.8421V73.3264H52.4399V81.4076C52.4399 84.6227 55.0468 85.6654 56.2633 85.6654H71.9912C77.4656 85.6654 79.9855 91.2267 79.9855 93.7466V116.639C78.5952 116.917 76.5677 118.783 75.7277 119.68V104.126H63.6493C62.6935 104.126 61.8245 105.343 61.8245 106.212V109.34C61.8245 113.076 58.0012 114.641 56.2633 114.641H50.3545V110.47H55.655C57.0454 110.47 57.7405 109.34 57.7405 108.732V105.604C57.7405 101.606 61.8245 99.9554 63.6493 99.9554H75.7277V94.6156C75.7277 90.6184 73.1208 90.0102 71.3829 90.0102H56.7847C50.3545 90.0102 48.0952 84.4489 48.0952 81.8421Z" fill="#516678"/>
<path fill-rule="evenodd" clip-rule="evenodd" d="M24.8943 107.863C24.8943 106.299 26.4584 104.126 28.8046 104.126H42.0995C43.6636 104.126 46.0097 105.43 46.0097 107.863V116.726C46.0097 118.203 45.5752 121.158 42.0995 121.158H28.9784C27.0667 121.158 24.8943 119.854 24.8943 117.161V107.863ZM29.1522 108.471V116.9H41.8388V108.471H29.1522Z" fill="#20A2DC"/>
<path d="M126.735 81.929V73.4133H122.39V81.4945C122.39 84.7096 119.783 85.7524 118.567 85.7524H102.839C97.3644 85.7524 94.8445 91.3136 94.8445 93.8335V116.552C96.2348 116.83 98.2623 118.696 99.1023 119.594V115.857H111.181C112.136 115.857 113.005 117.074 113.005 117.943V121.071C113.005 124.807 116.829 126.371 118.567 126.371H124.475V122.2H119.175C117.785 122.2 117.089 121.071 117.089 120.463V117.334C117.089 113.337 113.005 111.686 111.181 111.686H99.1023V108.764H111.354C114.917 108.764 117.089 104.593 117.089 102.507V100.335C117.089 99.0313 118.219 98.1624 119.262 98.1624H124.389V93.9915H118.567C115.004 93.9915 112.832 97.8148 112.832 99.8134V102.507C112.832 103.811 111.702 104.593 110.92 104.593H99.1023V94.7025C99.1023 90.7053 101.709 90.0971 103.447 90.0971H118.045C124.475 90.0971 126.735 84.5358 126.735 81.929Z" fill="#516678"/>
<path fill-rule="evenodd" clip-rule="evenodd" d="M128.733 93.6757C128.733 92.1116 130.297 89.9392 132.644 89.9392H145.938C147.503 89.9392 149.849 91.2426 149.849 93.6757V102.539C149.849 104.016 149.414 106.971 145.938 106.971H132.817C130.906 106.971 128.733 105.667 128.733 102.973V93.6757ZM132.991 94.2839V102.713H145.678V94.2839H132.991Z" fill="#20A2DC"/>
<path fill-rule="evenodd" clip-rule="evenodd" d="M128.733 118.085C128.733 116.521 130.297 114.348 132.644 114.348H145.938C147.503 114.348 149.849 115.652 149.849 118.085V126.948C149.849 128.425 149.414 131.38 145.938 131.38H132.817C130.906 131.38 128.733 130.076 128.733 127.382V118.085ZM132.991 118.693V127.122H145.678V118.693H132.991Z" fill="#20A2DC"/>
<path fill-rule="evenodd" clip-rule="evenodd" d="M57.306 158.609C56.2633 157.827 51.3103 153.222 51.3103 147.747C51.3103 142.621 55.3943 136.712 62.3459 136.19C62.7804 132.106 66.2562 124.234 76.6835 125.415C77.8131 123.272 81.567 119.003 87.5453 119.072C93.5237 119.142 97.3354 123.33 98.494 125.415C102.578 124.575 111.268 125.537 113.353 136.103C116.684 136.683 123.346 139.84 123.346 147.834C123.346 155.829 116.221 158.348 112.658 158.609H57.306ZM62.8674 155.046C60.695 154.844 56.2982 153.1 56.0896 147.747C55.8932 142.707 60.4342 140.361 62.8674 140.361H64.8659C65.6479 140.361 66.7776 139.927 66.7776 138.45V136.364C66.7776 133.584 69.2106 128.283 76.7705 129.673C76.8897 129.695 77.0116 129.72 77.1351 129.746C78.2707 129.98 79.5406 130.242 80.1594 128.283C80.763 126.371 82.8878 123.313 87.5454 123.243C92.2029 123.174 94.3231 126.289 94.9314 128.283C95.3556 129.673 96.2347 130.569 98.9286 129.847C101.883 129.055 108.4 129.673 108.835 136.017V138.71C108.835 139.84 109.46 140.657 111.615 140.448C114.048 140.213 118.656 141.838 119.001 147.574C119.146 149.978 117.872 154.838 111.615 155.046L62.8674 155.046Z" fill="#516678"/>
<path d="M84.4238 137.328L82.5075 144.168C82.493 144.211 82.5002 144.255 82.5293 144.298C82.5583 144.342 82.5946 144.364 82.6381 144.364H86.2531C86.2966 144.364 86.3329 144.342 86.3619 144.298C86.391 144.255 86.3982 144.211 86.3837 144.168L84.4674 137.328C84.4674 137.314 84.4601 137.307 84.4456 137.307C84.4311 137.307 84.4238 137.314 84.4238 137.328ZM78.7837 150.528C78.4788 150.528 78.2393 150.405 78.0651 150.158C77.8909 149.911 77.8546 149.642 77.9562 149.352L82.4639 135.804C82.5946 135.455 82.8051 135.172 83.0955 134.954C83.4003 134.736 83.7342 134.627 84.0972 134.627H84.8811C85.2586 134.627 85.5925 134.736 85.8829 134.954C86.1877 135.172 86.3982 135.455 86.5144 135.804L91.0221 149.352C91.1238 149.642 91.0875 149.911 90.9132 150.158C90.739 150.405 90.4995 150.528 90.1946 150.528H89.4107C89.0622 150.528 88.7356 150.419 88.4307 150.201C88.1404 149.969 87.9444 149.678 87.8428 149.33L87.1459 146.869C87.1314 146.752 87.0515 146.694 86.9064 146.694H81.9849C81.8542 146.694 81.7743 146.752 81.7453 146.869L81.0485 149.33C80.9614 149.678 80.7654 149.969 80.4605 150.201C80.1701 150.419 79.8435 150.528 79.4805 150.528H78.7837Z" fill="#20A2DC"/>
<path d="M94.8618 150.528C94.5279 150.528 94.2375 150.405 93.9907 150.158C93.7439 149.911 93.6205 149.62 93.6205 149.286V140.443C93.6205 140.109 93.7439 139.819 93.9907 139.572C94.2375 139.325 94.5279 139.202 94.8618 139.202H95.428C95.7619 139.202 96.0522 139.325 96.299 139.572C96.5458 139.819 96.6692 140.109 96.6692 140.443V149.286C96.6692 149.62 96.5458 149.911 96.299 150.158C96.0522 150.405 95.7619 150.528 95.428 150.528H94.8618ZM94.8618 136.806C94.5279 136.806 94.2375 136.682 93.9907 136.435C93.7439 136.188 93.6205 135.898 93.6205 135.564V135.433C93.6205 135.099 93.7439 134.809 93.9907 134.562C94.2375 134.315 94.5279 134.192 94.8618 134.192H95.428C95.7619 134.192 96.0522 134.315 96.299 134.562C96.5458 134.809 96.6692 135.099 96.6692 135.433V135.564C96.6692 135.898 96.5458 136.188 96.299 136.435C96.0522 136.682 95.7619 136.806 95.428 136.806H94.8618Z" fill="#20A2DC"/>
<rect x="15.912" y="156.268" width="143.033" height="4.26364" rx="2.13182" fill="#516678"/>
<rect x="161.158" y="156.268" width="7.15163" height="4.26364" rx="2.13182" fill="#20A2DC"/>
<rect x="6.71698" y="156.268" width="7.15163" height="4.26364" rx="2.13182" fill="#20A2DC"/>
<rect x="64.4409" y="164.454" width="45.6342" height="4.26364" rx="2.13182" fill="#20A2DC"/>
<rect x="72.7845" y="170.764" width="30.139" height="4.26364" rx="2.13182" fill="#20A2DC"/>
<rect x="83.1713" y="167.353" width="8.68413" height="4.26364" fill="#20A2DC"/>
<rect x="112.118" y="164.454" width="12.6005" height="4.26364" rx="2.13182" fill="#20A2DC"/>
<rect x="49.7971" y="164.454" width="12.6005" height="4.26364" rx="2.13182" fill="#20A2DC"/>
<rect x="170.353" y="156.268" width="4.25692" height="4.26364" rx="2.12846" fill="#20A2DC"/>
<rect x="0.24646" y="156.268" width="4.25692" height="4.26364" rx="2.12846" fill="#20A2DC"/>
</svg>
