<svg width="175" height="175" viewBox="0 0 175 175" fill="none" xmlns="http://www.w3.org/2000/svg">
<path fill-rule="evenodd" clip-rule="evenodd" d="M51.0665 30.7588H89.5904V28.4141H109.215C114.637 28.4141 114.884 32.4789 114.884 35.6831V55.155C113.405 54.3662 111.31 54.8263 110.447 55.155V35.6831C110.447 34.081 109.585 33.1285 108.229 33.1285H27.6775C26.6403 33.1285 25.226 33.6 25.226 35.2972V150.991C25.226 152.311 25.226 153.631 27.4889 153.631H107.541C108.767 153.631 110.275 153.631 110.275 151.462V141.75C110.841 142.096 112.576 142.58 114.99 141.75V154.621C114.99 155.941 113.245 157.544 112.491 157.544H106.598H23.6861C22.2718 157.544 20.6058 156.318 20.6058 154.15V35.2972C20.6058 31.7395 21.222 28.4141 27.0175 28.4141H51.0665V30.7588Z" fill="#516678"/>
<path fill-rule="evenodd" clip-rule="evenodd" d="M80.3854 72.8245C80.3854 71.6931 81.4225 70.5523 82.4598 70.7502C98.7718 73.8617 107.949 65.1556 110.841 60.3783C112.35 58.7942 113.858 59.7183 114.424 60.3783C121.213 71.2405 136.048 71.8188 142.616 70.7502C144.502 70.7502 144.879 72.1645 144.879 73.2017V98.5656C144.72 100.614 144.401 102.584 143.947 104.476C142.497 104.037 140.981 103.752 139.416 103.641C139.723 102.279 139.945 100.874 140.071 99.4253V77.867V75.559C133.753 76.5018 119.421 74.5217 112.632 65.4699C110.173 69.5305 99.0548 77.2561 85.2061 75.7475V77.5465C85.2061 77.7437 85.2053 78.312 85.2041 79.1531L85.2041 79.1559V79.156C85.1985 83.2471 85.1839 93.7767 85.2061 99.4253C85.5002 107.066 91.5116 123.458 112.638 132.793C114.203 132.156 116.056 131.256 118.05 130.098C118.47 131.535 119.041 132.909 119.745 134.199C117.108 135.712 114.657 136.846 112.632 137.601C87.6645 127.946 80.7311 107.555 80.3854 98.5656C80.3593 91.9197 80.3764 79.531 80.3831 74.7179C80.3844 73.7267 80.3854 73.0568 80.3854 72.8245Z" fill="#20A2DC"/>
<path d="M117.185 83.1415V85.0471C120.308 85.7277 120.918 88.0416 120.715 89.2667C120.308 91.7168 118.271 92.8057 116.778 92.1251C114.878 91.0362 113.384 90.9001 112.434 90.9001C111.063 90.9001 109.583 91.5806 109.583 92.5334C109.583 93.214 110.941 94.1668 116.371 95.6641C121.394 97.0491 123.023 101.653 122.887 103.967C122.583 109.139 118.271 111.635 116.371 111.998V114.312C116.371 115.537 114.823 116.898 112.977 116.898C111.131 116.898 109.719 115.537 109.719 114.312V111.998C106.189 111.726 104.696 109.003 104.696 107.506C104.696 105.328 107.411 103.559 108.633 104.239C110.84 105.469 112.841 105.737 113.113 105.737C113.384 105.737 115.828 106.145 116.099 103.831C116.316 101.98 110.85 100.428 108.09 99.8837C106.416 99.4299 103.04 97.2703 102.931 92.2612C102.823 87.2522 107.954 84.8202 110.533 84.2304V83.1415C110.533 81.6442 111.837 80.4192 113.792 80.4192C115.746 80.4192 117.185 81.7803 117.185 83.1415Z" fill="#516678"/>
<path fill-rule="evenodd" clip-rule="evenodd" d="M137.822 140.591C146.883 140.591 154.228 133.246 154.228 124.185C154.228 115.124 146.883 107.778 137.822 107.778C128.761 107.778 121.416 115.124 121.416 124.185C121.416 133.246 128.761 140.591 137.822 140.591ZM137.916 136.442C144.634 136.442 150.08 130.997 150.08 124.279C150.08 117.561 144.634 112.116 137.916 112.116C131.199 112.116 125.753 117.561 125.753 124.279C125.753 130.997 131.199 136.442 137.916 136.442Z" fill="#516678"/>
<path d="M132.167 125.426C132.113 124.242 133.222 123.811 133.783 123.744C134.052 123.711 134.321 123.744 134.725 124.013L136.745 125.494L140.987 120.041C141.661 119.435 142.738 119.637 143.209 120.041C143.815 120.647 143.681 121.657 143.411 122.061L137.957 129.196C136.988 129.681 136.207 129.308 135.937 129.061L132.705 126.638C132.234 126.234 132.179 125.696 132.167 125.426Z" fill="#20A2DC"/>
<path d="M49.5527 73.0212C49.5527 71.397 50.5247 70.8679 51.0106 70.8064H76.0678C75.8661 71.7807 75.5231 74.0122 75.7652 75.1437H74.3706H51.0106C50.5247 75.113 49.5527 74.6454 49.5527 73.0212Z" fill="#20A2DC"/>
<circle cx="37.8593" cy="73.0246" r="2.46479" fill="#516678"/>
<path d="M49.5527 83.6198C49.5527 81.9956 50.5247 81.4666 51.0106 81.405H75.7652V85.7424H74.3706H51.0106C50.5247 85.7116 49.5527 85.244 49.5527 83.6198Z" fill="#516678"/>
<circle cx="37.8593" cy="83.6232" r="2.46479" fill="#516678"/>
<path d="M49.5527 94.4648C49.5527 92.8406 50.5247 92.3115 51.0106 92.25H75.7652V96.5873H74.3706H51.0106C50.5247 96.5566 49.5527 96.089 49.5527 94.4648Z" fill="#20A2DC"/>
<circle cx="37.8593" cy="94.4682" r="2.46479" fill="#516678"/>
<path d="M49.5527 108.768C49.5527 110.392 50.5247 110.921 51.0106 110.982H77.8396C77.4624 109.474 77.0852 109.191 76.7081 106.645H74.3706H51.0106C50.5247 106.676 49.5527 107.143 49.5527 108.768Z" fill="#516678"/>
<circle cx="37.8593" cy="108.764" r="2.46479" fill="#516678"/>
<path d="M49.5527 119.613C49.5527 121.237 50.5247 121.766 51.0106 121.827H84.0627C83.3829 120.507 82.3655 119.847 81.5168 117.49H74.3706H51.0106C50.5247 117.521 49.5527 117.988 49.5527 119.613Z" fill="#20A2DC"/>
<circle cx="37.8593" cy="119.609" r="2.46479" fill="#516678"/>
<path d="M49.5527 130.211C49.5527 131.835 50.5247 132.365 51.0106 132.426H94.8117C93.7745 131.672 91.8887 130.257 90.0029 128.089H74.3706H51.0106C50.5247 128.119 49.5527 128.587 49.5527 130.211Z" fill="#516678"/>
<circle cx="37.8593" cy="130.208" r="2.46479" fill="#516678"/>
<path d="M57.1876 35.6882H56.1951C55.1037 35.6882 53.7364 35.9167 53.6472 37.4395C53.5581 38.9623 54.7195 39.4192 55.7493 39.4192H57.7448C58.5137 39.4192 59.7388 38.7447 59.6662 37.4395C59.5893 36.0564 58.0527 35.6882 57.1876 35.6882Z" fill="#20A2DC"/>
<path d="M66.3714 35.6882H65.3789C64.2875 35.6882 62.9202 35.9167 62.8311 37.4395C62.7419 38.9623 63.9034 39.4192 64.9332 39.4192H66.9286C67.6975 39.4192 68.9226 38.7447 68.8501 37.4395C68.7732 36.0564 67.2365 35.6882 66.3714 35.6882Z" fill="#516678"/>
<path d="M75.5553 35.6882H74.5628C73.4714 35.6882 72.1041 35.9167 72.015 37.4395C71.9258 38.9623 73.0873 39.4192 74.1171 39.4192H76.1125C76.8814 39.4192 78.1065 38.7447 78.034 37.4395C77.9571 36.0564 76.4204 35.6882 75.5553 35.6882Z" fill="#20A2DC"/>
<path d="M84.7392 35.6882H83.7467C82.6553 35.6882 81.288 35.9167 81.1989 37.4395C81.1097 38.9623 82.2712 39.4192 83.301 39.4192H85.2964C86.0653 39.4192 87.2904 38.7447 87.2179 37.4395C87.141 36.0564 85.6043 35.6882 84.7392 35.6882Z" fill="#516678"/>
<path d="M57.1875 49.4641H56.195C55.1036 49.4641 53.7363 49.6925 53.6472 51.2154C53.558 52.7382 54.7195 53.1951 55.7493 53.1951H57.7447C58.5136 53.1951 59.7387 52.5206 59.6662 51.2154C59.5893 49.8323 58.0526 49.4641 57.1875 49.4641Z" fill="#20A2DC"/>
<path d="M66.3714 49.4641H65.3789C64.2875 49.4641 62.9202 49.6925 62.831 51.2154C62.7419 52.7382 63.9033 53.1951 64.9331 53.1951H66.9286C67.6975 53.1951 68.9226 52.5206 68.85 51.2154C68.7731 49.8323 67.2365 49.4641 66.3714 49.4641Z" fill="#516678"/>
<path d="M75.5553 49.4641H74.5628C73.4714 49.4641 72.1041 49.6925 72.0149 51.2154C71.9258 52.7382 73.0872 53.1951 74.117 53.1951H76.1125C76.8814 53.1951 78.1065 52.5206 78.0339 51.2154C77.957 49.8323 76.4204 49.4641 75.5553 49.4641Z" fill="#20A2DC"/>
<path d="M84.7392 49.4641H83.7467C82.6553 49.4641 81.288 49.6925 81.1988 51.2154C81.1096 52.7382 82.2711 53.1951 83.3009 53.1951H85.2964C86.0653 53.1951 87.2904 52.5206 87.2178 51.2154C87.1409 49.8323 85.6043 49.4641 84.7392 49.4641Z" fill="#516678"/>
<path d="M57.1875 42.5762H56.195C55.1036 42.5762 53.7363 42.8046 53.6472 44.3274C53.558 45.8503 54.7195 46.3071 55.7493 46.3071H57.7447C58.5136 46.3071 59.7387 45.6326 59.6662 44.3274C59.5893 42.9443 58.0526 42.5762 57.1875 42.5762Z" fill="#516678"/>
<path d="M66.3714 42.5762H65.3789C64.2875 42.5762 62.9202 42.8046 62.831 44.3274C62.7419 45.8503 63.9033 46.3071 64.9331 46.3071H66.9286C67.6975 46.3071 68.9226 45.6326 68.85 44.3274C68.7731 42.9443 67.2365 42.5762 66.3714 42.5762Z" fill="#20A2DC"/>
<path d="M75.5553 42.5762H74.5628C73.4714 42.5762 72.1041 42.8046 72.0149 44.3274C71.9258 45.8503 73.0872 46.3071 74.117 46.3071H76.1125C76.8814 46.3071 78.1065 45.6326 78.0339 44.3274C77.957 42.9443 76.4204 42.5762 75.5553 42.5762Z" fill="#516678"/>
<path d="M84.7392 42.5762H83.7467C82.6553 42.5762 81.288 42.8046 81.1988 44.3274C81.1096 45.8503 82.2711 46.3071 83.3009 46.3071H85.2964C86.0653 46.3071 87.2904 45.6326 87.2178 44.3274C87.1409 42.9443 85.6043 42.5762 84.7392 42.5762Z" fill="#20A2DC"/>
<path fill-rule="evenodd" clip-rule="evenodd" d="M47.472 21.9125C47.472 18.6838 50.6289 17.3206 52.2792 17.3206H87.9384C91.8845 17.3206 92.9608 20.5493 92.9608 22.7735V53.482C92.9608 58.0022 90.0908 59.222 88.0101 59.222H52.2074C48.9786 59.222 47.4719 56.065 47.472 54.056V21.9125ZM89.5904 30.7591H51.0665V23.4592C51.0665 21.1779 51.9274 20.9042 53.0752 20.9042H87.4383C89.3752 20.9042 89.5904 22.2729 89.5904 23.4592V30.7591ZM50.9877 32.2443H89.4451V54.056C89.4451 54.6061 89.072 55.7062 87.5797 55.7062H52.8532C52.2313 55.7302 50.9877 55.3475 50.9877 53.6255V32.2443Z" fill="#516678"/>
</svg>
