<svg width="175" height="176" viewBox="0 0 175 176" fill="none" xmlns="http://www.w3.org/2000/svg">
<path d="M14.8071 77.8873L13.6698 78.4569L15.281 80.5452H12.8169V81.5893L15.281 81.1147L13.6698 83.4877L14.8071 84.0573L15.7548 81.5893L16.8921 84.0573L18.0294 83.2979L16.4183 81.1147L19.0719 81.5893V80.5452H16.4183L18.0294 78.4569L17.1764 77.8873L15.7548 80.1655L14.8071 77.8873Z" fill="#20A2DC"/>
<path d="M44.8776 13.5564L43.7403 14.1259L45.3514 16.2142H42.8873V17.2584L45.3514 16.7838L43.7403 19.1568L44.8776 19.7263L45.8253 17.2584L46.9626 19.7263L48.0998 18.967L46.4887 16.7838L49.1423 17.2584V16.2142H46.4887L48.0998 14.1259L47.2469 13.5564L45.8253 15.8345L44.8776 13.5564Z" fill="#20A2DC"/>
<path d="M129.42 9.85913L128.283 10.4287L129.894 12.517H127.43V13.5611L129.894 13.0865L128.283 15.4595L129.42 16.0291L130.368 13.5611L131.505 16.0291L132.642 15.2697L131.031 13.0865L133.685 13.5611V12.517H131.031L132.642 10.4287L131.789 9.85913L130.368 12.1373L129.42 9.85913Z" fill="#20A2DC"/>
<path d="M114.231 26.6198L113.093 27.1893L114.705 29.2776H112.24V30.3217L114.705 29.8471L113.093 32.2202L114.231 32.7897L115.178 30.3217L116.316 32.7897L117.453 32.0303L115.842 29.8471L118.495 30.3217V29.2776H115.842L117.453 27.1893L116.6 26.6198L115.178 28.8979L114.231 26.6198Z" fill="#20A2DC"/>
<path d="M88.7131 2.95776L88.1962 3.23815L88.9285 4.26623H87.8085V4.78027L88.9285 4.54662L88.1962 5.71489L88.7131 5.99528L89.1439 4.78027L89.6608 5.99528L90.1778 5.62143L89.4455 4.54662L90.6517 4.78027V4.26623H89.4455L90.1778 3.23815L89.7901 2.95776L89.1439 4.07931L88.7131 2.95776Z" fill="#20A2DC"/>
<path fill-rule="evenodd" clip-rule="evenodd" d="M19.0351 30.6831C20.2913 30.6831 21.3096 29.6631 21.3096 28.405C21.3096 27.1468 20.2913 26.1268 19.0351 26.1268C17.7789 26.1268 16.7606 27.1468 16.7606 28.405C16.7606 29.6631 17.7789 30.6831 19.0351 30.6831ZM19.0052 29.1244C19.4184 29.1244 19.7534 28.7889 19.7534 28.375C19.7534 27.9611 19.4184 27.6256 19.0052 27.6256C18.592 27.6256 18.257 27.9611 18.257 28.375C18.257 28.7889 18.592 29.1244 19.0052 29.1244Z" fill="#516678"/>
<path fill-rule="evenodd" clip-rule="evenodd" d="M12.6267 64.6971C13.8829 64.6971 14.9012 63.6772 14.9012 62.419C14.9012 61.1608 13.8829 60.1409 12.6267 60.1409C11.3705 60.1409 10.3521 61.1608 10.3521 62.419C10.3521 63.6772 11.3705 64.6971 12.6267 64.6971ZM12.5967 63.1384C13.0099 63.1384 13.3449 62.8029 13.3449 62.389C13.3449 61.9752 13.0099 61.6396 12.5967 61.6396C12.1835 61.6396 11.8485 61.9752 11.8485 62.389C11.8485 62.8029 12.1835 63.1384 12.5967 63.1384Z" fill="#516678"/>
<path fill-rule="evenodd" clip-rule="evenodd" d="M79.0292 21.7899C81.2423 21.7899 83.0363 19.9931 83.0363 17.7765C83.0363 15.5599 81.2423 13.7631 79.0292 13.7631C76.8161 13.7631 75.0221 15.5599 75.0221 17.7765C75.0221 19.9931 76.8161 21.7899 79.0292 21.7899ZM78.9764 19.0438C79.7044 19.0438 80.2945 18.4527 80.2945 17.7236C80.2945 16.9945 79.7044 16.4034 78.9764 16.4034C78.2484 16.4034 77.6583 16.9945 77.6583 17.7236C77.6583 18.4527 78.2484 19.0438 78.9764 19.0438Z" fill="#516678"/>
<path fill-rule="evenodd" clip-rule="evenodd" d="M157.921 57.7865C159.243 57.7865 160.314 56.7134 160.314 55.3897C160.314 54.066 159.243 52.9929 157.921 52.9929C156.6 52.9929 155.528 54.066 155.528 55.3897C155.528 56.7134 156.6 57.7865 157.921 57.7865ZM157.89 56.1463C158.324 56.1463 158.677 55.7934 158.677 55.3579C158.677 54.9225 158.324 54.5695 157.89 54.5695C157.455 54.5695 157.103 54.9225 157.103 55.3579C157.103 55.7934 157.455 56.1463 157.89 56.1463Z" fill="#516678"/>
<path fill-rule="evenodd" clip-rule="evenodd" d="M153.084 17.8569C154.406 17.8569 155.477 16.7839 155.477 15.4601C155.477 14.1364 154.406 13.0634 153.084 13.0634C151.763 13.0634 150.691 14.1364 150.691 15.4601C150.691 16.7839 151.763 17.8569 153.084 17.8569ZM153.053 16.2168C153.487 16.2168 153.84 15.8638 153.84 15.4284C153.84 14.9929 153.487 14.6399 153.053 14.6399C152.618 14.6399 152.265 14.9929 152.265 15.4284C152.265 15.8638 152.618 16.2168 153.053 16.2168Z" fill="#516678"/>
<path fill-rule="evenodd" clip-rule="evenodd" d="M108.413 45.4606L108.421 46.0404L105.081 48.1397C104.924 47.666 104.585 47.254 104.258 46.9268L97.0741 39.7429C95.6772 38.346 94.879 38.1465 93.8812 39.1442L90.0897 42.9358C87.2161 39.4236 80.112 37.7474 76.9191 37.3483V32.559C76.9191 31.0567 76.051 30.5634 74.9236 30.5634H64.1477C62.232 30.5634 61.9526 31.7608 61.9526 32.559V37.3483C57.0037 37.6676 51.2432 41.0733 48.9816 42.7362L45.7888 39.5434C44.3919 38.1465 42.7955 38.9447 42.1968 39.5434L35.0129 46.9268C33.616 48.3237 34.0151 49.3215 34.6138 49.9201L38.0062 53.5121C35.1326 56.8646 33.3499 63.5563 32.8178 66.4831L28.0285 66.2835C26.4321 66.2835 25.6338 67.2813 25.6338 68.2791V79.2545C25.6338 80.851 26.8312 81.6492 27.8289 81.6492H32.8178C33.2967 86.5981 36.6093 92.3586 38.2057 94.6202L34.6138 97.813C33.616 99.0103 34.2147 100.607 34.8133 101.205L41.9973 108.389C42.995 109.387 44.5914 109.587 45.3897 108.788L48.9816 105.197C52.3341 108.549 59.0258 110.185 61.9526 110.584V115.773C61.9526 117.05 62.9504 117.569 63.549 117.569H74.9236C76.7196 117.569 77.1187 116.372 77.1187 115.573V110.584C82.5466 110.106 88.0276 106.793 90.0897 105.197L93.6817 108.988C94.6794 109.986 95.8767 109.587 96.4754 108.988L104.058 101.405C105.256 100.008 105.056 98.8108 104.458 98.2121L100.666 94.6202C102.153 93.3314 103.666 89.9751 104.774 86.7878L111.432 88.2812C109.34 88.8316 107.324 90.1053 109.418 94.1181C110.129 95.1849 110.841 99.6301 108.885 101.586L98.0384 112.788C96.0825 114.744 91.2817 115.277 88.4368 113.321C87.3699 112.729 85.0584 112.183 84.3472 114.744C83.4581 117.944 79.1908 121.678 76.168 121.678H63.5436C61.0544 121.678 55.9634 118.833 55.3645 115.988C54.7282 112.966 52.164 112.255 50.2081 113.321C48.442 114.285 44.8739 114.744 42.2067 112.966C38.6506 110.476 32.0352 104.159 30.6492 101.942C28.8712 99.0967 28.2758 95.3627 30.1158 92.34C31.5228 90.0285 29.938 89.1928 27.9821 88.606C26.0262 88.0193 21.9366 84.1609 21.9366 80.7825V67.4469C21.9366 64.7798 24.6038 60.1568 29.2268 58.9121C30.2343 58.6158 31.8583 57.5252 30.2936 55.5338C30.1158 55.356 27.2709 50.5552 30.2936 46.4656C33.3756 42.7909 39.7174 35.9749 41.4955 34.9081C43.4514 33.7345 46.6519 32.561 50.9193 34.5525C52.3418 35.2163 54.5285 35.6922 55.0089 33.13C55.2968 31.5944 58.0316 26.5511 62.4768 26.3733H76.7014C80.0798 26.3733 83.8525 30.433 83.9916 32.241C84.1306 34.0489 85.2362 36.3661 88.7924 34.3746C90.3799 33.4856 95.5491 32.7744 97.8606 34.9081L108.413 45.4606ZM109.535 58.476L105.039 60.7566C105.756 62.6044 106.254 64.5824 106.254 66.4831H111.242C112.041 66.4831 113.437 66.5629 113.437 68.4786V77.2051L117.242 77.6723V66.7357C117.242 63.0017 113.152 60.1568 111.374 59.4456C110.553 59.1583 109.956 58.8291 109.535 58.476Z" fill="#516678"/>
<path fill-rule="evenodd" clip-rule="evenodd" d="M92.3174 56.1605C86.9963 49.8302 79.0981 45.7142 70.1814 45.4618C53.6099 44.9929 39.7959 58.0466 39.3269 74.6181C38.858 91.1896 51.9117 105.004 68.4832 105.473C81.9447 105.853 93.5866 97.3111 97.7335 85.2084L94.5519 84.4947C90.778 95.1301 80.4825 102.608 68.5935 102.271C53.8333 101.854 42.2063 89.5496 42.624 74.7893C43.0417 60.029 55.3459 48.402 70.1062 48.8197C77.8572 49.0391 84.7442 52.5363 89.4768 57.9456L92.3174 56.1605ZM96.0828 75.0737C96.03 71.9466 95.4372 68.9439 94.3917 66.1581L97.345 64.6599C98.6434 68.0212 99.3528 71.6697 99.3499 75.4749L96.0828 75.0737Z" fill="#20A2DC"/>
<path fill-rule="evenodd" clip-rule="evenodd" d="M81.3692 63.0406C78.4217 60.1275 74.4055 58.2821 69.9363 58.1556C60.5787 57.8908 52.7783 65.2619 52.5134 74.6195C52.2486 83.977 59.6198 91.7775 68.9773 92.0423C75.9284 92.239 82.0203 88.2222 84.8024 82.3076L80.5947 81.3637C78.3591 85.35 74.0404 87.9906 69.1551 87.8523C62.1465 87.654 56.6256 81.8116 56.824 74.803C57.0223 67.7943 62.8647 62.2735 69.8733 62.4719C72.8266 62.5554 75.5158 63.6412 77.6241 65.3941L81.3692 63.0406ZM82.0822 73.3542C82.0403 73.0601 81.9882 72.7691 81.9264 72.4817L85.7829 70.5253C86.085 71.605 86.2826 72.7273 86.3643 73.8801L82.0822 73.3542Z" fill="#516678"/>
<path fill-rule="evenodd" clip-rule="evenodd" d="M132.551 38.0603L141.216 33.1659C142.378 32.6267 143.305 33.4115 143.562 33.7165C144.127 34.3867 144.282 35.7559 143.683 36.2314L133.803 41.9158L140.02 44.9654C142.207 46.2682 140.214 48.1247 139.445 48.5379L125.165 56.4323C123.708 57.2496 122.813 57.2692 122.364 56.9119L114.248 52.935L76.8897 73.8781L119.466 81.7919L125.309 75.7481C126.052 74.8158 127.413 74.8849 128.002 75.036L144.987 78.0924C146.821 78.7334 146.728 80.2612 146.451 80.945L141.645 86.056L150.053 87.553C151.765 87.6859 152.147 88.7575 152.124 89.2767C152.235 91.4175 150.544 91.6576 149.684 91.51L140.946 89.9688L143.901 95.9157C144.436 98.335 142.594 98.7824 141.606 98.7037L124.871 95.7005C123.145 95.4388 122.539 94.3055 122.451 93.7716L118.453 85.8217L70.2803 76.7457C69.4112 76.273 69.3216 76.2015 69.0331 75.0922C68.8023 74.2047 69.6088 73.4501 70.041 73.1837L112.612 49.2861L113.627 41.6669C113.623 39.5937 114.527 39.1534 115.342 38.7566L115.342 38.7565C115.392 38.7319 115.442 38.7075 115.492 38.6828L130.711 30.4375C132.84 29.7891 133.408 31.9273 133.186 32.8497L132.551 38.0603ZM116.993 46.9149L117.602 42.1966L128.815 36.0354L128.188 40.5926L116.993 46.9149ZM118.638 50.6443L129.439 44.4481L134.51 46.73L123.315 53.0523L118.638 50.6443ZM136.9 85.2055L124.301 82.7138L127.785 78.8942L140.473 81.4574L136.9 85.2055ZM123.431 86.5643L125.903 91.8318L138.644 94.1442L136.182 88.9573L123.431 86.5643Z" fill="#20A2DC"/>
<path d="M44.1699 118.556L28.2103 156.435L33.3618 156.536L48.7154 120.274C48.0689 120.193 45.4157 119.095 44.1699 118.556Z" fill="#516678"/>
<path d="M94.6752 118.657L110.635 156.536L105.483 156.637L90.1297 120.375C90.7762 120.294 93.4294 119.196 94.6752 118.657Z" fill="#516678"/>
<path d="M71.7458 123.91C70.7176 124.154 68.2197 124.012 67.0993 123.91V156.435H71.7458V123.91Z" fill="#516678"/>
<rect x="15.912" y="156.268" width="143.033" height="4.26364" rx="2.13182" fill="#516678"/>
<rect x="161.158" y="156.268" width="7.15163" height="4.26364" rx="2.13182" fill="#20A2DC"/>
<rect x="6.71698" y="156.268" width="7.15163" height="4.26364" rx="2.13182" fill="#20A2DC"/>
<rect x="64.4409" y="164.454" width="45.6342" height="4.26364" rx="2.13182" fill="#20A2DC"/>
<rect x="72.7845" y="170.764" width="30.139" height="4.26364" rx="2.13182" fill="#20A2DC"/>
<rect x="83.1713" y="167.353" width="8.68413" height="4.26364" fill="#20A2DC"/>
<rect x="112.118" y="164.454" width="12.6005" height="4.26364" rx="2.13182" fill="#20A2DC"/>
<rect x="49.7971" y="164.454" width="12.6005" height="4.26364" rx="2.13182" fill="#20A2DC"/>
<rect x="170.353" y="156.268" width="4.25692" height="4.26364" rx="2.12846" fill="#20A2DC"/>
<rect x="0.24646" y="156.268" width="4.25692" height="4.26364" rx="2.12846" fill="#20A2DC"/>
</svg>
