<svg width="175" height="175" viewBox="0 0 175 175" fill="none" xmlns="http://www.w3.org/2000/svg">
<path d="M35.1996 117.701C36.6958 117.446 40.252 115.097 41.5745 114.355C42.0154 114.108 42.2934 113.741 42.8453 114.34L43.3972 114.939C44.724 114.559 48.6919 112.352 48.6873 111.969C48.6829 111.606 45.8674 108.976 44.6398 107.538C43.66 106.581 42.5737 106.837 41.8533 107.33L34.882 111.409C33.2453 112.203 32.3424 111.601 32.0955 111.2L29.006 105.91C28.312 104.562 29.0202 103.73 29.461 103.483L37.0303 98.7913C38.6553 97.0283 37.8329 95.0687 37.2186 94.3093C36.1384 93.0631 34.8227 86.3069 34.2999 83.0845C34.1763 80.8583 32.6096 80.078 31.8417 79.9661L22.7649 80.0751C21.4107 80.1882 21.1373 78.9242 21.1699 78.2781L21.0943 71.9832C21.0792 70.7243 22.1243 70.3969 22.6487 70.3906L31.3638 70.4071C33.586 69.993 34.0395 68.1149 33.9885 67.2277C33.7612 64.4215 36.1338 57.7179 37.3485 54.7168C38.1045 53.158 37.3165 52.0536 36.8281 51.6962L28.539 46.8317C27.5626 46.1655 27.8727 45.1044 28.1497 44.6571L31.4686 38.8058C31.9411 37.8315 33.1975 38.3007 33.7666 38.6571C34.1539 38.6525 38.5588 41.2632 40.7129 42.5691C41.9347 43.5231 43.8607 42.6322 44.4573 41.9188C45.8892 40.2066 51.3068 34.4108 54.3816 31.7506C55.4361 30.8662 55.1195 29.3607 54.8294 28.7184L50.381 21.1442C49.8818 19.8911 50.3208 19.4903 50.6027 19.4465L55.7689 16.2366C57.2072 15.0571 58.1413 15.5624 58.4285 15.9626L63.4893 24.1348C63.8625 24.9778 65.4403 25.3331 66.4011 24.7052C69.5717 22.6331 76.4884 21.3959 79.5504 21.0362C81.292 20.9185 81.9563 19.7966 82.0657 18.8267L81.9539 9.50544C82.1335 8.34099 83.1476 8.11895 83.6322 8.1535L90.1674 8.07505C91.5229 8.05878 91.6313 9.02606 91.6386 9.63134L91.7432 18.3474C91.7592 19.679 92.9493 20.5122 93.9492 20.6213C97.9488 21.0575 104.264 22.7978 106.578 23.9808C107.066 24.3382 109.373 24.9158 110.207 23.8162L114.596 16.378C115.656 13.9438 117.609 15.2522 117.73 15.2507L122.361 17.8588C122.97 18.2147 123.964 18.8196 123.835 19.6572C123.61 21.1127 121.116 25.0977 119.568 27.2149C118.423 28.6815 118.874 29.9272 119.243 30.3667L122.057 32.8755L126.221 36.942L130.512 41.4913C131.492 42.4481 132.778 42.0291 133.298 41.7L140.867 37.0083C141.928 36.6082 142.442 37.0701 142.566 37.3512L146.022 42.879C146.514 43.5996 146.901 44.3214 146.53 44.9312C146.056 45.7117 141.526 48.1391 139.32 49.2553C136.07 50.7472 137.321 54.1895 138.308 55.6843C139.417 57.366 140.369 62.6818 140.984 66.912C141.143 67.9997 142.219 68.9554 143.187 68.9438L152.385 68.8334C153.353 68.8217 153.846 69.5423 153.852 70.0265L153.938 77.1688C153.948 78.0162 153.228 78.5091 152.501 78.5178L145.24 78.605C141.609 78.6486 141.021 80.0473 141.051 82.5296C141.067 83.8612 139.686 89.8104 138.627 92.3656C136.733 95.8995 138.324 97.3817 139.665 98.1647C140.274 98.5206 142.472 100.068 144.175 100.774C146.971 101.83 147.467 102.793 147.352 103.279C146.529 105.347 143.696 111.313 142.234 110.54C141.46 110.452 137.536 108.125 134.935 106.582L134.924 106.576C134.11 105.98 132.148 105.204 130.812 106.867L127.112 111.149L132.712 113.867L133.787 112.643C134.469 113.022 137.485 114.859 138.907 115.729C145.479 118.677 148.936 114.277 150.939 109.652C155.462 103.302 152.584 98.8571 150.548 97.3076C149.962 96.8303 146.161 94.8177 144.334 93.8711C145.285 92.4068 146.472 87.146 146.765 84.6403L153.3 84.5619C157.657 84.5096 160.022 79.8804 160 78.0646L159.89 68.8644C159.851 65.5959 155.822 62.7385 153.402 62.7675L146.503 62.8503C146.576 60.8154 144.845 55.8076 143.971 53.5581C149.385 50.8295 151.176 48.7497 151.886 47.4094C153.758 43.8758 151.557 40.149 150.075 37.7453C148.886 35.435 147.158 33.3813 146.505 32.7031C143.565 29.8326 139.706 30.9686 137.902 31.9588C137.613 32.0592 135.097 33.5665 132.731 34.8056C131.742 33.074 127.748 29.6996 125.874 28.2289C127.114 26.6643 127.536 25.5453 128.483 23.7179C130.739 20.0586 129.488 16.6836 128.502 15.2425C127.027 13.3231 124.955 12.1372 123.128 11.1905C122.726 10.9823 121.544 10.3217 119.962 9.65458C118.745 9.06383 116.075 8.4575 113.3 9.25026C111.973 9.6294 110.659 11.0678 109.83 12.5609C109.451 13.2434 107.775 16.1774 106.985 17.559C105.618 16.6069 100.264 15.6218 97.758 15.2483L97.6766 8.46921C97.6272 4.35332 92.7573 1.99031 90.6999 2.015L82.1073 2.11814C79.4448 2.1501 75.8577 5.82535 75.8911 8.60963L75.9739 15.5098C73.5549 15.6599 68.972 17.0467 66.8067 18.1624C66.5603 17.8021 65.1553 15.0343 64.3339 13.8334C62.6047 10.9484 59.9236 9.59261 58.7131 9.42118C55.5607 8.97474 52.3192 11.193 50.2764 12.4282C47.0318 14.3901 45.5957 15.7534 44.8827 16.8516C44.0007 18.21 43.8487 21.4648 44.4698 22.7891C44.9699 24.1149 46.6577 26.9197 48.0565 29.1629C46.7138 30.2445 43.034 34.2679 41.362 36.1445C39.5038 34.617 35.8753 32.8203 33.9317 32.2382C33.1811 32.0135 32.114 32.0717 31.2692 32.2702C28.0103 33.0358 25.9877 35.9658 24.5689 38.7675C22.3189 42.911 21.7687 44.9758 21.8813 46.7906C22.1064 50.4201 27.7333 53.6619 30.8162 55.0374C29.6263 56.7467 28.7148 61.4795 28.3866 64.3892L21.9709 64.3451C17.1315 64.5243 15.1249 68.7859 15.1555 71.3281L15.2557 79.6809C15.2891 82.4652 19.6881 85.9235 21.7455 85.8988L28.7663 85.9356C28.791 87.9936 30.297 92.4552 31.2986 95.2279C31.0116 95.5219 27.8118 97.1723 26.252 98.3153C25.4784 98.8821 24.0968 100.278 23.3823 101.255C22.3107 102.721 22.2334 106.38 23.0977 107.797C23.6842 108.758 24.7429 110.4 25.5647 111.642C26.6771 113.565 28.5288 116.57 30.5963 117.393C31.2457 117.708 32.9045 118.091 35.1996 117.701Z" fill="#516678"/>
<path fill-rule="evenodd" clip-rule="evenodd" d="M61.1339 80.288C60.8889 82.6613 63.074 84.0048 64.1972 84.3799C66.1372 93.7914 73.1828 114.353 89.5203 113.74C104.53 113.176 112.427 94.4734 115.048 84.2776C117.417 83.9503 118.213 81.6861 118.315 80.5949L117.907 72.0018C117.825 69.0556 115.967 67.9781 115.048 67.8076C115.538 59.46 108.172 51.9854 104.428 49.2915C102.468 44.7085 98.8463 43.0854 97.2806 42.8467H82.2705C78.9213 42.9285 75.8376 47.4501 74.7144 49.7007C67.0358 54.611 64.3673 63.8861 63.9929 67.9099C62.0324 68.319 61.4742 70.6037 61.4402 71.6949C61.4402 73.5704 61.379 77.9147 61.1339 80.288ZM89.3161 108.829C73.7722 108.427 69.8501 87.107 69.4246 84.794L69.4047 84.6867L75.8376 87.5511H104.02L109.636 84.6867C108.411 92.7683 99.6291 109.096 89.3161 108.829ZM66.0351 79.5717C66.1168 79.2444 66.2734 74.866 66.3414 72.7177C67.0222 72.7518 68.5266 72.3904 69.0984 70.6717V67.2959C69.4047 64.2951 71.7532 57.2092 78.6967 52.8718C79.2072 51.7465 80.5142 49.3118 81.6578 48.5752C81.794 50.7917 83.0874 55.2451 87.1718 55.3269V56.8614V59.6235H92.1751V55.3269C93.8089 55.2587 97.2193 53.8129 97.7911 48.5752C98.574 49.189 100.16 50.8053 100.242 52.3603C103.577 54.6108 110.248 60.7897 110.248 67.5005V70.774C110.385 71.4219 111.127 72.7382 113.005 72.82L113.21 79.4694H109.227L102.794 82.6407H76.6545L70.3237 79.5717H66.0351Z" fill="#516678"/>
<path fill-rule="evenodd" clip-rule="evenodd" d="M89.7244 72.0018C94.0103 72.0018 97.4847 68.5209 97.4847 64.2271C97.4847 59.9332 94.0103 56.4524 89.7244 56.4524C85.4385 56.4524 81.9641 59.9332 81.9641 64.2271C81.9641 68.5209 85.4385 72.0018 89.7244 72.0018ZM89.6223 66.6822C91.0322 66.6822 92.1751 65.5372 92.1751 64.1247C92.1751 62.7123 91.0322 61.5672 89.6223 61.5672C88.2125 61.5672 87.0696 62.7123 87.0696 64.1247C87.0696 65.5372 88.2125 66.6822 89.6223 66.6822Z" fill="#20A2DC"/>
<path d="M51.2292 134.097L55.8241 170.822L58.3768 173.073C60.385 172.323 64.0133 170.679 62.4612 170.106C60.9092 169.534 60.5211 168.436 60.5211 167.958L56.2325 132.46C56.1509 130.66 57.9003 130.142 58.7853 130.108H121.48C123.033 130.68 123.284 132.188 123.216 132.87L119.132 166.935C118.969 169.472 117.566 170.106 116.886 170.106L116.375 172.562L123.523 170.516L128.322 132.051C127.668 126.732 123.693 125.265 121.787 125.197H58.7853C51.5968 125.197 50.7527 131.131 51.2292 134.097Z" fill="#20A2DC"/>
<path d="M71.7532 111.182L68.4857 107.602L42.9583 120.491C36.5867 124.011 34.9938 131.71 34.9938 135.12V167.856C34.9938 170.67 35.9845 173.955 39.895 173.955H137.968C140.805 173.955 144.389 172.312 144.557 167.549L144.251 134.097C144.251 126.814 139.622 122.196 137.307 120.798L110.044 107.193L106.879 110.671L133.836 124.788C137.838 126.097 139.316 131.949 139.554 134.711V167.856C139.227 169.738 137.512 170.072 136.695 170.004H42.3457C40.4668 170.004 39.895 169.625 39.895 167.856V135.12C39.895 129.146 43.5029 125.743 45.3068 124.788L71.7532 111.182Z" fill="#516678"/>
<path fill-rule="evenodd" clip-rule="evenodd" d="M89.7244 158.751C94.5742 158.751 98.5058 154.812 98.5058 149.953C98.5058 145.095 94.5742 141.156 89.7244 141.156C84.8746 141.156 80.943 145.095 80.943 149.953C80.943 154.812 84.8746 158.751 89.7244 158.751ZM89.7244 153.841C91.8673 153.841 93.6045 152.101 93.6045 149.954C93.6045 147.807 91.8673 146.066 89.7244 146.066C87.5814 146.066 85.8442 147.807 85.8442 149.954C85.8442 152.101 87.5814 153.841 89.7244 153.841Z" fill="#20A2DC"/>
</svg>
