<svg width="175" height="176" viewBox="0 0 175 176" fill="none" xmlns="http://www.w3.org/2000/svg">
<path d="M41.8273 44.9965L40.69 45.566L42.3011 47.6543H39.837V48.6984L42.3011 48.2238L40.69 50.5969L41.8273 51.1664L42.775 48.6984L43.9123 51.1664L45.0495 50.407L43.4384 48.2238L46.092 48.6984V47.6543H43.4384L45.0495 45.566L44.1966 44.9965L42.775 47.2746L41.8273 44.9965Z" fill="#20A2DC"/>
<path d="M40.949 15.4624L39.8117 16.0319L41.4228 18.1202H38.9587V19.1644L41.4228 18.6898L39.8117 21.0628L40.949 21.6324L41.8967 19.1644L43.034 21.6324L44.1712 20.873L42.5601 18.6898L45.2137 19.1644V18.1202H42.5601L44.1712 16.0319L43.3183 15.4624L41.8967 17.7405L40.949 15.4624Z" fill="#20A2DC"/>
<path d="M160.63 65.5742L159.492 66.1438L161.103 68.232H158.639V69.2762L161.103 68.8016L159.492 71.1746L160.63 71.7442L161.577 69.2762L162.715 71.7442L163.852 70.9848L162.241 68.8016L164.894 69.2762V68.232H162.241L163.852 66.1438L162.999 65.5742L161.577 67.8524L160.63 65.5742Z" fill="#20A2DC"/>
<path d="M121.943 18.3826L120.806 18.9521L122.417 21.0404H119.953V22.0845L122.417 21.6099L120.806 23.983L121.943 24.5525L122.891 22.0845L124.028 24.5525L125.166 23.7931L123.555 21.6099L126.208 22.0845V21.0404H123.555L125.166 18.9521L124.313 18.3826L122.891 20.6607L121.943 18.3826Z" fill="#20A2DC"/>
<path d="M83.198 2.46484L82.681 2.74523L83.4134 3.77331H82.2933V4.28735L83.4134 4.0537L82.681 5.22197L83.198 5.50236L83.6288 4.28735L84.1457 5.50236L84.6627 5.12851L83.9303 4.0537L85.1365 4.28735V3.77331H83.9303L84.6627 2.74523L84.2749 2.46484L83.6288 3.58639L83.198 2.46484Z" fill="#20A2DC"/>
<path fill-rule="evenodd" clip-rule="evenodd" d="M20.8201 11.2858C22.0763 11.2858 23.0947 10.2658 23.0947 9.00763C23.0947 7.74945 22.0763 6.72949 20.8201 6.72949C19.5639 6.72949 18.5456 7.74945 18.5456 9.00763C18.5456 10.2658 19.5639 11.2858 20.8201 11.2858ZM20.7902 9.72704C21.2034 9.72704 21.5384 9.39153 21.5384 8.97765C21.5384 8.56378 21.2034 8.22827 20.7902 8.22827C20.377 8.22827 20.042 8.56378 20.042 8.97765C20.042 9.39153 20.377 9.72704 20.7902 9.72704Z" fill="#516678"/>
<path fill-rule="evenodd" clip-rule="evenodd" d="M12.6267 54.6374C13.8829 54.6374 14.9012 53.6175 14.9012 52.3593C14.9012 51.1011 13.8829 50.0812 12.6267 50.0812C11.3705 50.0812 10.3521 51.1011 10.3521 52.3593C10.3521 53.6175 11.3705 54.6374 12.6267 54.6374ZM12.5967 53.0787C13.0099 53.0787 13.3449 52.7432 13.3449 52.3293C13.3449 51.9155 13.0099 51.58 12.5967 51.58C12.1835 51.58 11.8485 51.9155 11.8485 52.3293C11.8485 52.7432 12.1835 53.0787 12.5967 53.0787Z" fill="#516678"/>
<path fill-rule="evenodd" clip-rule="evenodd" d="M79.9944 46.4378C82.2074 46.4378 84.0015 44.6409 84.0015 42.4243C84.0015 40.2078 82.2074 38.4109 79.9944 38.4109C77.7813 38.4109 75.9872 40.2078 75.9872 42.4243C75.9872 44.6409 77.7813 46.4378 79.9944 46.4378ZM79.9415 43.6917C80.6695 43.6917 81.2597 43.1006 81.2597 42.3715C81.2597 41.6423 80.6695 41.0512 79.9415 41.0512C79.2136 41.0512 78.6234 41.6423 78.6234 42.3715C78.6234 43.1006 79.2136 43.6917 79.9415 43.6917Z" fill="#516678"/>
<path fill-rule="evenodd" clip-rule="evenodd" d="M136.074 50.1851C137.395 50.1851 138.467 49.112 138.467 47.7883C138.467 46.4646 137.395 45.3915 136.074 45.3915C134.752 45.3915 133.681 46.4646 133.681 47.7883C133.681 49.112 134.752 50.1851 136.074 50.1851ZM136.042 48.5449C136.477 48.5449 136.829 48.1919 136.829 47.7565C136.829 47.3211 136.477 46.9681 136.042 46.9681C135.608 46.9681 135.255 47.3211 135.255 47.7565C135.255 48.1919 135.608 48.5449 136.042 48.5449Z" fill="#516678"/>
<path fill-rule="evenodd" clip-rule="evenodd" d="M159.316 34.8597C160.638 34.8597 161.709 33.7867 161.709 32.463C161.709 31.1392 160.638 30.0662 159.316 30.0662C157.994 30.0662 156.923 31.1392 156.923 32.463C156.923 33.7867 157.994 34.8597 159.316 34.8597ZM159.285 33.2196C159.719 33.2196 160.072 32.8666 160.072 32.4312C160.072 31.9957 159.719 31.6428 159.285 31.6428C158.85 31.6428 158.497 31.9957 158.497 32.4312C158.497 32.8666 158.85 33.2196 159.285 33.2196Z" fill="#516678"/>
<path fill-rule="evenodd" clip-rule="evenodd" d="M19.9648 153.955C19.9648 154.821 20.5704 156.637 22.1275 156.637H152.931C153.623 156.637 154.921 155.513 154.921 153.956V148.727C154.921 147.986 154.661 146.516 153.19 146.516H150.768L21.695 146.516C20.3973 146.516 19.9648 147.813 19.9648 148.592V153.955ZM24.1173 150.668V153.09C24.1173 153.955 24.7229 155.253 26.28 155.253H148.778C149.47 155.253 150.768 154.561 150.768 153.004V150.668L24.1173 150.668Z" fill="#516678"/>
<path d="M26.3732 147.293H30.5257V63.0054C30.5257 61.206 31.8234 60.9292 32.5155 60.9292H142.383C143.854 60.9292 144.373 62.3133 144.373 62.9189V140.287C144.373 141.434 145.303 142.363 146.449 142.363C147.596 142.363 148.526 141.434 148.526 140.287V62.2268C148.526 58.5069 144.633 56.6902 142.816 56.6902H32.2559C28.1899 56.6902 26.3732 60.2371 26.3732 62.2268V147.293Z" fill="#516678"/>
<path d="M132.232 93.4809C131.054 94.2904 131.496 95.7807 131.864 96.4247C133.925 100.472 134.44 105.9 134.44 108.108C133.428 128.899 116.501 134.694 107.669 134.694C86.4739 133.59 81.0524 116.51 80.9911 108.108C81.8006 86.9125 98.8073 81.2456 107.209 81.0616C106.749 81.7056 106.106 83.2879 107.209 84.4654C108.313 85.6429 109.693 84.9561 110.245 84.4654C111.196 83.8215 113.52 82.1656 115.213 80.6936C116.906 79.2217 115.918 77.6885 115.213 77.1059L110.245 73.3341C109.724 72.9968 108.387 72.5797 107.209 73.6101C106.032 74.6404 106.719 76.1859 107.209 76.8299C83.0701 78.0074 76.6673 98.1726 76.4833 108.108C77.2929 132.027 97.6114 138.742 107.669 139.11C132.618 137.491 138.917 117.767 138.948 108.108C138.653 100.16 136.249 94.9221 135.084 93.2969C134.624 93.0209 133.409 92.6713 132.232 93.4809Z" fill="#20A2DC"/>
<path fill-rule="evenodd" clip-rule="evenodd" d="M130.141 108.944C130.141 121.059 120.154 130.88 107.835 130.88C95.5151 130.88 85.5282 121.059 85.5282 108.944C85.5282 96.8286 95.5151 87.0072 107.835 87.0072C120.154 87.0072 130.141 96.8286 130.141 108.944ZM97.1512 100.432C94.6189 99.8481 92.2053 98.5997 91.315 98.0485C89.1388 100.578 88.1331 105.523 87.9023 107.679H96.3599C96.3203 105.889 96.871 102.102 97.1512 100.432ZM91.315 119.791C92.2053 119.239 94.6189 117.991 97.1512 117.407C96.871 115.737 96.3203 111.95 96.3599 110.16H87.9023C88.1331 112.316 89.1388 117.261 91.315 119.791ZM92.8482 96.0542C95.0739 93.1358 99.5748 90.8984 101.603 90.3147C100.218 91.7739 98.3383 95.957 97.7448 98.0971C95.9147 97.6107 93.7385 96.6379 92.8482 96.0542ZM101.603 127.573C99.5748 126.989 95.0739 124.752 92.8482 121.833C93.7385 121.25 95.9147 120.277 97.7448 119.791C98.3383 121.931 100.218 126.114 101.603 127.573ZM118.369 100.432C120.902 99.8481 123.315 98.5997 124.206 98.0485C126.382 100.578 127.388 105.523 127.618 107.679H119.161C119.2 105.889 118.65 102.102 118.369 100.432ZM124.206 119.791C123.315 119.239 120.902 117.991 118.369 117.407C118.65 115.737 119.2 111.95 119.161 110.16H127.618C127.388 112.316 126.382 117.261 124.206 119.791ZM122.672 96.0542C120.447 93.1358 115.946 90.8984 113.918 90.3147C115.303 91.7739 117.182 95.957 117.776 98.0971C119.606 97.6107 121.782 96.6379 122.672 96.0542ZM113.918 127.573C115.946 126.989 120.447 124.752 122.672 121.833C121.782 121.25 119.606 120.277 117.776 119.791C117.182 121.931 115.303 126.114 113.918 127.573ZM100.119 98.6321C101.464 92.8732 104.999 90.1364 106.598 89.4878V99.4104C103.749 99.3715 101.092 98.8753 100.119 98.6321ZM106.647 128.351C105.048 127.703 101.514 124.966 100.168 119.207C101.141 118.964 103.799 118.467 106.647 118.429V128.351ZM106.549 101.745C102.236 101.667 100.102 101.161 99.5748 100.918C99.1791 101.424 98.8824 105.669 98.7834 107.728H106.549V101.745ZM99.5748 116.969C100.102 116.726 102.236 116.22 106.549 116.143V110.16H98.7834C98.8824 112.219 99.1791 116.464 99.5748 116.969ZM115.501 98.5835C114.155 92.8245 110.621 90.0877 109.022 89.4392V99.3617C111.87 99.3228 114.528 98.8267 115.501 98.5835ZM108.972 128.302C110.571 127.654 114.106 124.917 115.451 119.158C114.479 118.915 111.821 118.419 108.972 118.38V128.302ZM109.071 101.696C113.384 101.619 115.517 101.113 116.045 100.87C116.44 101.375 116.737 105.62 116.836 107.679H109.071V101.696ZM116.045 116.921C115.517 116.678 113.384 116.172 109.071 116.094V110.111H116.836C116.737 112.17 116.44 116.415 116.045 116.921Z" fill="#516678"/>
<path d="M30.0499 95.2729C30.0499 94.3832 29.3372 93.662 28.4581 93.662C27.5789 93.662 26.8662 94.3832 26.8662 95.2729L26.8662 137.157C26.8662 138.046 27.5789 138.768 28.4581 138.768C29.3372 138.768 30.0499 138.046 30.0499 137.157L30.0499 121.232H49.3831C49.8227 121.232 50.179 120.872 50.179 120.427V119.291C50.179 118.847 49.8227 118.486 49.3831 118.486H30.0499V112.042H62.1178C62.5574 112.042 62.9137 111.682 62.9137 111.237V110.101C62.9137 109.656 62.5574 109.296 62.1178 109.296L30.0499 109.296V102.852L71.6689 102.852C72.1085 102.852 72.4648 102.492 72.4648 102.047V100.911C72.4648 100.466 72.1085 100.106 71.6689 100.106L30.0499 100.106V95.2729Z" fill="#516678"/>
<path d="M72.7735 123.008C73.2691 122.388 73.168 121.483 72.5476 120.988C71.9272 120.492 71.0225 120.593 70.5268 121.213L55.9112 138.267L45.6869 130.86C45.4126 130.579 45.0348 130.422 44.6416 130.426C44.2485 130.43 43.8742 130.595 43.6059 130.883L33.4372 141.779C32.8954 142.36 32.9269 143.27 33.5074 143.812C34.088 144.353 34.9978 144.322 35.5395 143.741L44.6795 133.947L54.988 141.44C55.2758 141.735 55.6766 141.893 56.0885 141.873C56.5004 141.853 56.8838 141.656 57.1412 141.334L72.7735 123.008Z" fill="#20A2DC"/>
<path fill-rule="evenodd" clip-rule="evenodd" d="M63.3086 78.4374C60.9694 78.4374 59.0732 80.3336 59.0732 82.6728V100.471H60.9191V82.9389C60.9191 81.6177 61.9901 80.5466 63.3113 80.5466C64.6325 80.5466 65.7035 81.6177 65.7035 82.9389V100.471H67.544V82.6728C67.544 80.3336 65.6477 78.4374 63.3086 78.4374Z" fill="#516678"/>
<path d="M62.3754 87.0164C62.3754 86.475 62.8143 86.036 63.3558 86.036C63.8973 86.036 64.3362 86.475 64.3362 87.0164V100.464H62.3754V87.0164Z" fill="#516678"/>
<path fill-rule="evenodd" clip-rule="evenodd" d="M52.7986 88.9446C50.4594 88.9446 48.5632 90.8408 48.5632 93.18V100.471H50.3886V93.0377C50.3886 91.7075 51.467 90.6291 52.7972 90.6291C54.1274 90.6291 55.2058 91.7075 55.2058 93.0377V100.471H57.034V93.18C57.034 90.8408 55.1377 88.9446 52.7986 88.9446Z" fill="#516678"/>
<path d="M51.8449 95.6424C51.8449 95.1009 52.2839 94.662 52.8253 94.662C53.3668 94.662 53.8057 95.1009 53.8057 95.6424V100.543H51.8449V95.6424Z" fill="#516678"/>
<path fill-rule="evenodd" clip-rule="evenodd" d="M42.2101 81.1818C39.8709 81.1818 37.9747 83.078 37.9747 85.4172V100.471H39.858V85.4034C39.858 84.0823 40.9291 83.0112 42.2502 83.0112C43.5714 83.0112 44.6425 84.0823 44.6425 85.4034V100.471H46.4455V85.4172C46.4455 83.078 44.5492 81.1818 42.2101 81.1818Z" fill="#516678"/>
<path d="M41.2024 91.6094C41.2024 91.068 41.6413 90.629 42.1828 90.629C42.7243 90.629 43.1632 91.068 43.1632 91.6094V100.509H41.2024V91.6094Z" fill="#516678"/>
<path d="M45.1513 76.4769L50.877 81.1424L52.0535 81.2208L53.23 81.2992L53.8574 80.5151L59.3478 73.1444L60.7203 74.4774L54.9555 82.1618L52.0535 81.2208L49.073 82.1618L43.7787 77.8491L45.1513 76.4769Z" fill="#20A2DC"/>
<path d="M33.303 80.2663C33.0151 79.8078 33.1534 79.2028 33.6119 78.915L38.5099 75.8406L39.5526 77.5008L34.6546 80.5752C34.196 80.863 33.5909 80.7247 33.303 80.2663Z" fill="#20A2DC"/>
<path d="M70.8489 72.982C70.7732 73.518 70.2773 73.8912 69.7413 73.8156L64.6763 73.1009L64.9504 71.1599L70.0153 71.8745C70.5514 71.9501 70.9245 72.446 70.8489 72.982Z" fill="#20A2DC"/>
<path fill-rule="evenodd" clip-rule="evenodd" d="M52.2887 87.3762C54.3463 87.3762 56.0143 85.7087 56.0143 83.6517C56.0143 81.5947 54.3463 79.9271 52.2887 79.9271C50.2311 79.9271 48.5631 81.5947 48.5631 83.6517C48.5631 85.7087 50.2311 87.3762 52.2887 87.3762ZM52.3279 85.416C53.3242 85.416 54.1319 84.6085 54.1319 83.6125C54.1319 82.6165 53.3242 81.809 52.3279 81.809C51.3316 81.809 50.524 82.6165 50.524 83.6125C50.524 84.6085 51.3316 85.416 52.3279 85.416Z" fill="#20A2DC"/>
<path fill-rule="evenodd" clip-rule="evenodd" d="M61.8576 75.3008C63.9152 75.3008 65.5832 73.6333 65.5832 71.5762C65.5832 69.5192 63.9152 67.8517 61.8576 67.8517C59.8 67.8517 58.132 69.5192 58.132 71.5762C58.132 73.6333 59.8 75.3008 61.8576 75.3008ZM61.8968 73.3405C62.8931 73.3405 63.7008 72.5331 63.7008 71.537C63.7008 70.541 62.8931 69.7336 61.8968 69.7336C60.9005 69.7336 60.0928 70.541 60.0928 71.537C60.0928 72.5331 60.9005 73.3405 61.8968 73.3405Z" fill="#20A2DC"/>
<path fill-rule="evenodd" clip-rule="evenodd" d="M41.8571 78.9861C43.9147 78.9861 45.5827 77.3186 45.5827 75.2615C45.5827 73.2045 43.9147 71.537 41.8571 71.537C39.7995 71.537 38.1315 73.2045 38.1315 75.2615C38.1315 77.3186 39.7995 78.9861 41.8571 78.9861ZM41.8963 77.0259C42.8926 77.0259 43.7003 76.2184 43.7003 75.2224C43.7003 74.2264 42.8926 73.4189 41.8963 73.4189C40.9 73.4189 40.0924 74.2264 40.0924 75.2224C40.0924 76.2184 40.9 77.0259 41.8963 77.0259Z" fill="#20A2DC"/>
<rect x="15.912" y="156.268" width="143.033" height="4.26364" rx="2.13182" fill="#516678"/>
<rect x="161.158" y="156.268" width="7.15163" height="4.26364" rx="2.13182" fill="#20A2DC"/>
<rect x="6.71698" y="156.268" width="7.15163" height="4.26364" rx="2.13182" fill="#20A2DC"/>
<rect x="64.4409" y="164.454" width="45.6342" height="4.26364" rx="2.13182" fill="#20A2DC"/>
<rect x="72.7845" y="170.764" width="30.139" height="4.26364" rx="2.13182" fill="#20A2DC"/>
<rect x="83.1713" y="167.353" width="8.68413" height="4.26364" fill="#20A2DC"/>
<rect x="112.118" y="164.454" width="12.6005" height="4.26364" rx="2.13182" fill="#20A2DC"/>
<rect x="49.7971" y="164.454" width="12.6005" height="4.26364" rx="2.13182" fill="#20A2DC"/>
<rect x="170.353" y="156.268" width="4.25692" height="4.26364" rx="2.12846" fill="#20A2DC"/>
<rect x="0.24646" y="156.268" width="4.25692" height="4.26364" rx="2.12846" fill="#20A2DC"/>
</svg>
