<svg width="175" height="175" viewBox="0 0 175 175" fill="none" xmlns="http://www.w3.org/2000/svg">
<path fill-rule="evenodd" clip-rule="evenodd" d="M21.5382 84.907C23.0013 84.8711 24.6016 84.8354 26.2732 84.8009L26.9612 68.8962L38.4662 65.7504C39.3029 66.5869 40.047 77.4232 40.4107 84.553C41.6091 84.5351 42.741 84.5191 43.7762 84.5052C44.1091 84.1422 44.5611 83.7224 45.1348 83.2625C44.8987 78.2229 43.7418 69.4753 43.0879 65.0622L44.4645 58.2791C45.8805 58.7509 50.299 58.4757 52.3312 58.2791L53.7079 64.5707C52.7276 67.1841 51.9057 74.4563 51.4676 79.4546C52.9197 78.7669 54.5662 78.0792 56.4118 77.4227C56.8685 72.8346 57.814 67.7864 58.3296 65.7504L70.0312 68.8962V70.1507L65.4096 71.4522C63.2856 71.6095 62.6235 72.894 62.5579 73.5166L62.4779 75.596C65.5845 74.8147 69.0815 74.1523 72.9813 73.6915H74.9075L78.7829 72.6318C78.8239 72.6729 78.8647 72.7379 78.9053 72.8253L78.9796 72.8068L79.1108 73.4625C79.1687 73.6955 79.2258 73.9705 79.2822 74.2824C80.5126 74.4543 82.9075 74.8486 83.8678 75.2069C83.7001 73.9787 83.5413 72.8665 83.4046 71.9437L84.7813 65.1606C86.1973 65.6324 90.6157 65.3572 92.648 65.1606L94.0246 71.4522C94.0189 71.4673 94.0133 71.4827 94.0076 71.4981C95.5185 71.0591 96.8551 70.7916 97.7613 70.8406C100.636 70.8808 106.798 72.0476 114.871 75.6471V73.9098C114.478 72.4156 113.855 71.9765 113.593 71.9437L108.775 70.5889V68.8962L120.476 65.7504C121.074 68.1086 122.247 74.5077 122.571 79.5524C123.856 80.2831 125.172 81.0702 126.514 81.9175L127.556 82.1676C127.229 77.6127 126.278 67.7165 125.098 64.5707L126.475 58.2791C128.507 58.4757 132.925 58.7509 134.341 58.2791L135.718 65.0622C134.939 70.3168 133.448 81.7163 133.646 85.6849H138.339C138.678 78.6358 139.457 66.6326 140.34 65.7504L151.845 68.8962L152.571 85.6849H154.303C154.999 85.6576 156.093 85.762 157.315 86.1312L156.565 66.6351C156.499 66.0125 155.837 64.728 153.713 64.5707L139.75 60.6384L138.963 56.9028C142.11 55.6248 148.285 49.5298 147.813 35.3737C148.764 34.5544 150.606 31.8739 150.37 27.7057C150.468 25.0515 149.662 19.5266 145.65 18.6615C146.043 16.466 143.565 12.1143 130.506 12.2716C124.869 11.9439 113.18 14.4147 111.528 26.9193C113.495 28.9182 116.74 35.0394 113.986 43.5331C114.576 47.0066 116.995 54.4451 121.951 56.4113L121.263 60.6384L105.53 65.0622C105.267 65.095 104.645 65.5341 104.251 67.0284V69.3171L97.8596 67.5199L97.1713 63.2927C102.127 61.3266 104.546 53.8881 105.136 50.4146C102.383 41.9209 105.628 35.7997 107.595 33.8008C105.943 21.2962 94.2541 18.8254 88.6163 19.1531C75.5576 18.9958 73.0796 23.3475 73.4729 25.543C69.4609 26.4081 68.6546 31.9329 68.7529 34.5872C68.5169 38.7554 70.359 41.4359 71.3096 42.2551C70.8376 56.4113 77.0129 62.5063 80.1596 63.7843L79.3729 67.5199L74.5546 68.8768V67.0284C74.1613 65.5341 73.5385 65.095 73.2762 65.0622L57.5429 60.6384L56.8546 56.4113C61.8106 54.4451 64.2296 47.0066 64.8196 43.5331C62.0662 35.0394 65.3112 28.9182 67.2779 26.9193C65.6259 14.4147 53.9373 11.9439 48.2995 12.2716C35.2409 12.1143 32.7629 16.466 33.1562 18.6615C29.1442 19.5266 28.3378 25.0515 28.4362 27.7057C28.2002 31.8739 30.0423 34.5544 30.9928 35.3737C30.5208 49.5298 36.6962 55.6248 39.8429 56.9028L39.0562 60.6384L25.0928 64.5707C22.9688 64.728 22.3067 66.0125 22.2412 66.6351L21.5382 84.907ZM33.5495 31.1465C33.1234 29.2459 32.4679 25.4447 34.1395 23.1836C34.6312 23.0853 35.8112 23.3802 36.9912 23.8718C38.1712 23.8718 39.3512 23.1836 39.4496 21.8073C39.4496 20.6277 39.3906 20.0575 37.5812 18.9565C38.3351 18.3011 41.5342 16.9707 48.2996 16.892C50.7907 16.892 56.4023 17.5212 58.9196 20.0378C60.1979 21.0209 62.8529 25.2481 62.8529 30.7532C62.2843 30.2722 61.6719 29.7234 61.0427 29.1596C58.8431 27.1883 56.439 25.0338 54.9863 24.9532C54.3962 24.9204 52.9212 25.0515 52.6262 26.9193L52.4296 28.2956C50.8562 28.099 47.5916 26.8406 46.3329 24.9532C45.9396 24.4288 44.1696 23.0853 43.3829 22.5938C42.5962 22.1023 41.6129 22.5938 41.6129 22.5938C40.6296 23.3147 38.6432 25.0121 38.5646 26.0345C37.319 27.7385 34.5722 31.1465 33.5495 31.1465ZM35.7128 35.3736C38.1515 34.5872 41.4489 30.1961 42.7928 28.0989C46.4902 31.8739 51.0856 33.0143 52.9212 33.1126C54.7305 33.2699 56.2973 32.3917 56.8545 31.9329C57.2478 32.4834 59.6406 34.4561 60.7878 35.3736C60.9802 45.8542 57.1496 51.4273 53.9046 52.924C51.4629 54.0501 49.319 54.2144 47.9062 54.1502C43.5796 53.9536 41.9079 52.924 40.3345 51.4273C37.0895 48.1535 35.3792 39.8424 35.7128 35.3736ZM144.666 23.1836C146.338 25.4447 145.682 29.2459 145.256 31.1465C144.234 31.1465 141.487 27.7385 140.241 26.0345C140.163 25.0121 138.176 23.3147 137.193 22.5938C137.193 22.5938 136.21 22.1023 135.423 22.5938C134.636 23.0853 132.866 24.4288 132.473 24.9532C131.214 26.8406 127.95 28.099 126.376 28.2956L126.18 26.9193C125.885 25.0515 124.41 24.9204 123.82 24.9532C122.367 25.0338 119.963 27.1883 117.763 29.1596C117.134 29.7234 116.522 30.2722 115.953 30.7532C115.953 25.2481 118.608 21.0209 119.886 20.0378C122.404 17.5212 128.015 16.892 130.506 16.892C137.272 16.9707 140.471 18.3011 141.225 18.9565C139.415 20.0575 139.356 20.6277 139.356 21.8073C139.455 23.1836 140.635 23.8718 141.815 23.8718C142.995 23.3802 144.175 23.0853 144.666 23.1836ZM136.013 28.0989C137.357 30.1961 140.654 34.5872 143.093 35.3736C143.427 39.8424 141.716 48.1535 138.471 51.4273C136.898 52.924 135.226 53.9536 130.9 54.1502C129.487 54.2144 127.343 54.0501 124.901 52.924C121.656 51.4273 117.826 45.8542 118.018 35.3736C119.165 34.4561 121.558 32.4834 121.951 31.9329C122.509 32.3917 124.075 33.2699 125.885 33.1126C127.72 33.0143 132.316 31.8739 136.013 28.0989ZM74.4562 30.0651C72.7846 32.3262 73.4401 36.1273 73.8662 38.0279C74.8889 38.0279 77.6357 34.62 78.8813 32.916C78.9599 31.8936 80.9463 30.1962 81.9296 29.4753C81.9296 29.4753 82.9129 28.9837 83.6996 29.4753C84.4863 29.9668 86.2563 31.3103 86.6496 31.8346C87.9083 33.7221 91.1729 34.9804 92.7463 35.177L92.943 33.8008C93.238 31.9329 94.713 31.8019 95.303 31.8346C96.7558 31.9153 99.1599 34.0698 101.359 36.041C101.989 36.6049 102.601 37.1537 103.17 37.6347C103.17 32.1295 100.515 27.9024 99.2363 26.9193C96.719 24.4027 91.1074 23.7735 88.6163 23.7735C81.8509 23.8521 78.6518 25.1825 77.8979 25.8379C79.7073 26.939 79.7663 27.5091 79.7663 28.6888C79.6679 30.0651 78.4879 30.7532 77.3079 30.7532C76.1279 30.2617 74.9479 29.9668 74.4562 30.0651ZM83.1096 34.9804C81.7657 37.0776 78.4682 41.4686 76.0295 42.2551C75.696 46.7239 77.4063 55.0349 80.6513 58.3088C82.2246 59.8054 83.8963 60.835 88.2229 61.0316C89.6357 61.0958 91.7796 60.9316 94.2213 59.8054C97.4663 58.3088 101.297 52.7356 101.105 42.2551C99.9574 41.3376 97.5646 39.3649 97.1712 38.8144C96.614 39.2731 95.0472 40.1513 93.2379 39.994C91.4024 39.8957 86.8069 38.7554 83.1096 34.9804Z" fill="#516678"/>
<path fill-rule="evenodd" clip-rule="evenodd" d="M61.4762 81.2611C54.6322 82.1262 47.9389 87.1268 45.4478 89.5189H22.5361H20.9628C18.3668 89.5189 17.6522 91.8782 17.6194 93.0579V134.248C17.6194 137.001 20.045 137.558 21.2578 137.492H42.9895C41.9668 139.223 41.7112 140.9 41.7112 141.621C42.4978 149.014 48.5945 150.666 51.5445 150.567C54.9272 157.016 60.1651 156.072 62.3612 154.794C62.5972 156.053 64.6229 157.678 65.6062 158.333C65.6062 158.333 67.9394 159.471 69.4326 159.471C70.9258 159.471 73.9121 159.023 73.9121 159.023C73.9121 159.023 78.5409 162.607 79.4368 162.607C79.5304 162.607 79.65 162.623 79.798 162.643C81.0677 162.816 84.4285 163.274 91.3822 156.186C91.932 155.626 92.4407 155.046 92.9138 154.467C93.5852 155.675 96.3276 157.758 97.2056 157.978C98.1015 158.202 98.9974 158.277 98.9974 158.277C104.189 158.041 106.251 154.86 106.808 153.516C112.079 154.539 115.166 151.452 116.051 149.781C122.581 149.624 125.491 141.916 125.491 141.916L129.72 137.886L153.713 138.181C156.152 138.023 156.696 135.559 156.663 134.347V94.041C156.742 91.603 154.729 90.7313 153.713 90.6003H130.31C122.286 84.1513 107.758 78.2792 101.498 76.1492C97.2499 75.0482 95.5979 75.6904 95.3029 76.1492L85.1746 80.7696C83.2079 79.4326 75.4395 78.7052 71.8012 78.5086C69.5199 78.9018 63.9673 80.5075 61.4762 81.2611ZM22.5361 94.1393V132.676H27.2561V112.621C27.9772 112.949 29.9308 113.407 31.9761 112.621V132.676H47.7094L53.0195 128.252C55.0189 127.793 59.5095 127.8 61.4761 131.496L68.0645 124.516C70.3262 122.714 76.0295 120.466 80.7495 125.892C81.9623 124.123 85.7449 121.193 91.1729 123.631C91.257 123.684 91.3439 123.741 91.4332 123.802L94.6561 127.179C95.5884 128.739 96.0715 130.639 95.3029 132.676C97.5973 133.495 102.245 136.195 101.695 140.442C101.144 144.689 100.351 146.209 100.023 146.438L97.6535 150.363C97.6535 150.363 96.9069 151.881 98.1015 152.453C99.296 153.025 100.023 152.927 100.023 152.927C100.81 153.025 102.462 152.691 102.776 150.567C103.091 148.444 102.055 138.869 101.498 134.347L94.6561 127.179C93.7592 125.678 92.4467 124.491 91.4332 123.802L89.2062 121.469C89.1079 120.158 89.6192 117.713 92.4512 118.421L106.021 132.676L107.398 148.896C108.48 149.06 110.958 148.955 112.216 147.225L110.84 127.76L96.1879 113.014C96.024 111.835 96.3649 109.554 99.0395 109.868L115.461 125.892L116.838 144.964C117.952 144.767 120.28 143.823 120.673 141.621L119.788 121.469L105.235 105.936C105.038 104.855 105.333 102.692 108.086 102.692L124.508 119.306L125.098 135.526L127.655 133.265H142.11V128.547C142.864 128.973 144.883 129.569 146.928 128.547V133.265H151.746V95.319H146.928V114.784C145.846 114.456 143.368 113.997 142.11 114.784V95.319H128.736C122.738 91.1246 108.244 82.2639 98.2529 80.3764C96.9745 80.4092 93.4935 81.1629 89.7962 83.9155L77.7012 90.6003C75.3412 96.171 70.7392 107.981 71.2112 110.655C71.4406 111.31 72.7845 112.346 76.3245 111.245C76.8015 111.096 77.1731 110.983 77.4553 110.9C77.1143 111.095 76.8033 111.248 76.5267 111.362C76.3584 111.423 76.1903 111.483 76.0295 111.54C76.1797 111.496 76.3459 111.437 76.5267 111.362C77.7828 110.911 79.0534 110.428 77.4553 110.9C80.2467 109.306 85.0509 104.905 89.5012 95.6139C89.6323 94.893 90.5238 93.5692 93.0412 94.041C95.5585 94.5129 100.121 95.8761 99.1379 95.6139L101.695 96.3021C102.743 97.449 103.976 99.9198 100.515 100.628L93.0412 99.0547C90.4517 104.855 83.0505 116.494 74.1612 116.652C73.4728 116.652 66.2945 116.16 66.4911 110.655C66.8189 108.033 67.8875 102.102 69.5395 99.3496L73.2762 88.1426C73.8989 87.389 75.9312 85.567 79.0778 84.3087C79.2089 84.0465 78.0552 83.5026 72.3912 83.4239C69.0806 84.0793 61.4171 85.7636 57.2478 87.2579C53.0785 88.7521 49.4139 92.2715 48.1028 93.8444L31.9761 94.041V99.0547C31.5172 98.6287 29.9308 98.0323 27.2561 99.0547V94.1393H22.5361ZM61.6729 149.682C58.2902 152.671 56.2646 149.879 55.6746 148.11C57.8379 143.391 67.9663 130.808 71.5063 127.858C74.9676 126.128 76.9474 128.383 77.5046 129.726L61.6729 149.682ZM77.7995 156.269L92.8446 137.492C94.7457 137.263 98.2136 137.945 96.8762 142.506L89.9929 150.567L82.8146 158.235C81.569 158.432 78.8222 158.314 77.7995 156.269ZM73.2762 154.008C69.8936 156.997 66.8846 153.418 66.2946 151.649C68.0177 149.115 71.4909 144.911 75.2064 140.413L75.2064 140.413C78.7 136.184 82.4077 131.695 85.0763 128.093C88.5376 126.363 92.1563 128.842 90.5829 132.282L89.3046 134.347L87.5346 136.608L82.2246 143.194L73.2762 154.008ZM54.7895 132.774L47.6111 139.262C47.0867 139.885 46.1558 141.484 46.6278 142.899C47.0539 143.817 48.5945 145.691 51.3478 145.849L58.4278 135.625C58.1656 134.576 57.0708 132.538 54.7895 132.774Z" fill="#516678"/>
<ellipse cx="29.7144" cy="105.838" rx="2.55667" ry="2.55597" fill="#20A2DC"/>
<ellipse cx="144.568" cy="121.96" rx="2.55667" ry="2.55597" fill="#20A2DC"/>
</svg>
