<svg width="175" height="175" viewBox="0 0 175 175" fill="none" xmlns="http://www.w3.org/2000/svg">
<path d="M117.63 83.645C119.633 85.3598 120.776 85.3598 123.416 85.3598V16.9586C123.416 12.773 119.969 11.0496 117.63 11.0496H57.4321C52.7542 11.0496 51.4 14.6196 51.4 16.9586V85.3598C53.3254 85.3598 56.0405 84.6453 57.4321 83.645V16.9586H117.63V83.645Z" fill="#516678"/>
<path d="M69.6164 25.3401C67.3538 25.3401 66.0438 27.6938 66.0438 29.0388V38.958C66.0438 39.9668 67.2347 42.4886 69.6164 42.4886C71.9982 42.4886 73.189 40.1349 73.189 38.958V29.0388C73.189 27.6938 71.8791 25.3401 69.6164 25.3401Z" fill="#20A2DC"/>
<path d="M81.6806 25.3401C79.418 25.3401 78.108 27.6938 78.108 29.0388V38.958C78.108 39.9668 79.2989 42.4886 81.6806 42.4886C84.0624 42.4886 85.2532 40.1349 85.2532 38.958V29.0388C85.2532 27.6938 83.9433 25.3401 81.6806 25.3401Z" fill="#516678"/>
<path d="M93.745 25.3401C91.4823 25.3401 90.1724 27.6938 90.1724 29.0388V38.958C90.1724 39.9668 91.3632 42.4886 93.745 42.4886C96.1267 42.4886 97.3176 40.1349 97.3176 38.958V29.0388C97.3176 27.6938 96.0076 25.3401 93.745 25.3401Z" fill="#20A2DC"/>
<path d="M105.809 25.3401C103.547 25.3401 102.237 27.6938 102.237 29.0388V38.958C102.237 39.9668 103.427 42.4886 105.809 42.4886C108.191 42.4886 109.382 40.1349 109.382 38.958V29.0388C109.382 27.6938 108.072 25.3401 105.809 25.3401Z" fill="#516678"/>
<path d="M69.0448 48.2053C66.7821 48.2053 65.4722 50.559 65.4722 51.904V61.8233C65.4722 62.832 66.663 65.3538 69.0448 65.3538C71.4265 65.3538 72.6174 63.0001 72.6174 61.8233V51.904C72.6174 50.559 71.3074 48.2053 69.0448 48.2053Z" fill="#20A2DC"/>
<path d="M81.109 48.2053C78.8463 48.2053 77.5364 50.559 77.5364 51.904V61.8233C77.5364 62.832 78.7272 65.3538 81.109 65.3538C83.4907 65.3538 84.6816 63.0001 84.6816 61.8233V51.904C84.6816 50.559 83.3716 48.2053 81.109 48.2053Z" fill="#516678"/>
<path d="M93.1733 48.2053C90.9107 48.2053 89.6007 50.559 89.6007 51.904V61.8233C89.6007 62.832 90.7916 65.3538 93.1733 65.3538C95.5551 65.3538 96.7459 63.0001 96.7459 61.8233V51.904C96.7459 50.559 95.436 48.2053 93.1733 48.2053Z" fill="#20A2DC"/>
<path d="M105.238 48.2053C102.975 48.2053 101.665 50.559 101.665 51.904V61.8233C101.665 62.832 102.856 65.3538 105.238 65.3538C107.619 65.3538 108.81 63.0001 108.81 61.8233V51.904C108.81 50.559 107.5 48.2053 105.238 48.2053Z" fill="#516678"/>
<path d="M138.558 65.0924H129.571V71.1245H159.486V160.528C161.751 161.02 164.369 159.52 165.395 160.956V70.8783C165.395 65.8557 161.948 65.0924 159.978 65.0924H144.467V61.6455C144.467 60.6607 143.728 59.0603 141.512 59.0603C139.05 59.0603 138.558 60.7838 138.558 61.6455V65.0924Z" fill="#516678"/>
<path d="M138.21 77.0718C135.948 77.0718 134.638 79.4255 134.638 80.7705V90.6897C134.638 91.6985 135.829 94.2203 138.21 94.2203C140.592 94.2203 141.783 91.8666 141.783 90.6897V80.7705C141.783 79.4255 140.473 77.0718 138.21 77.0718Z" fill="#20A2DC"/>
<path d="M151.072 77.0718C148.809 77.0718 147.499 79.4255 147.499 80.7705V90.6897C147.499 91.6985 148.69 94.2203 151.072 94.2203C153.454 94.2203 154.644 91.8666 154.644 90.6897V80.7705C154.644 79.4255 153.335 77.0718 151.072 77.0718Z" fill="#516678"/>
<path d="M138.211 122.801C135.948 122.801 134.638 125.155 134.638 126.5V136.419C134.638 137.428 135.829 139.95 138.211 139.95C140.592 139.95 141.783 137.596 141.783 136.419V126.5C141.783 125.155 140.473 122.801 138.211 122.801Z" fill="#20A2DC"/>
<path d="M151.072 122.801C148.809 122.801 147.499 125.155 147.499 126.5V136.419C147.499 137.428 148.69 139.95 151.072 139.95C153.454 139.95 154.644 137.596 154.644 136.419V126.5C154.644 125.155 153.335 122.801 151.072 122.801Z" fill="#516678"/>
<path d="M138.211 99.9363C135.948 99.9363 134.638 102.29 134.638 103.635V113.554C134.638 114.563 135.829 117.085 138.211 117.085C140.592 117.085 141.783 114.731 141.783 113.554V103.635C141.783 102.29 140.473 99.9363 138.211 99.9363Z" fill="#516678"/>
<path d="M151.072 99.9363C148.809 99.9363 147.499 102.29 147.499 103.635V113.554C147.499 114.563 148.69 117.085 151.072 117.085C153.454 117.085 154.644 114.731 154.644 113.554V103.635C154.644 102.29 153.335 99.9363 151.072 99.9363Z" fill="#20A2DC"/>
<path d="M138.21 145.666C135.948 145.666 134.638 148.019 134.638 149.364V151.567H141.783V149.364C141.783 148.019 140.473 145.666 138.21 145.666Z" fill="#516678"/>
<path d="M151.072 145.666C148.809 145.666 147.499 148.019 147.499 149.364V151.567H154.644V149.364C154.644 148.019 153.335 145.666 151.072 145.666Z" fill="#20A2DC"/>
<path d="M36.2581 65.215H45.2448V71.2471H15.3304V160.67C13.0653 161.162 10.4473 159.948 9.42139 161.384V71.0009C9.42139 65.9782 12.8683 65.215 14.838 65.215H30.3491V61.7681C30.3491 60.7832 31.0878 59.1829 33.3036 59.1829C35.7657 59.1829 36.2581 60.9063 36.2581 61.7681V65.215Z" fill="#516678"/>
<path d="M24.1727 77.0713C21.9101 77.0713 20.6001 79.425 20.6001 80.77V90.6892C20.6001 91.698 21.791 94.2198 24.1727 94.2198C26.5544 94.2198 27.7453 91.8661 27.7453 90.6892V80.77C27.7453 79.425 26.4354 77.0713 24.1727 77.0713Z" fill="#20A2DC"/>
<path d="M37.0342 77.0713C34.7715 77.0713 33.4615 79.425 33.4615 80.77V90.6892C33.4615 91.698 34.6524 94.2198 37.0342 94.2198C39.4159 94.2198 40.6068 91.8661 40.6068 90.6892V80.77C40.6068 79.425 39.2968 77.0713 37.0342 77.0713Z" fill="#516678"/>
<path d="M24.1727 145.665C21.9101 145.665 20.6001 148.019 20.6001 149.364V151.566H27.7453V149.364C27.7453 148.019 26.4354 145.665 24.1727 145.665Z" fill="#516678"/>
<path d="M37.0342 145.665C34.7715 145.665 33.4615 148.019 33.4615 149.364V151.566H40.6068V149.364C40.6068 148.019 39.2968 145.665 37.0342 145.665Z" fill="#20A2DC"/>
<path d="M24.1727 122.801C21.9101 122.801 20.6001 125.154 20.6001 126.499V136.418C20.6001 137.427 21.791 139.949 24.1727 139.949C26.5544 139.949 27.7453 137.595 27.7453 136.418V126.499C27.7453 125.154 26.4354 122.801 24.1727 122.801Z" fill="#20A2DC"/>
<path d="M37.034 122.801C34.7714 122.801 33.4614 125.154 33.4614 126.499V136.418C33.4614 137.427 34.6523 139.949 37.034 139.949C39.4158 139.949 40.6066 137.595 40.6066 136.418V126.499C40.6066 125.154 39.2967 122.801 37.034 122.801Z" fill="#516678"/>
<path d="M24.1727 99.9358C21.9101 99.9358 20.6001 102.29 20.6001 103.634V113.554C20.6001 114.562 21.791 117.084 24.1727 117.084C26.5544 117.084 27.7453 114.731 27.7453 113.554V103.634C27.7453 102.29 26.4354 99.9358 24.1727 99.9358Z" fill="#516678"/>
<path d="M37.034 99.9358C34.7714 99.9358 33.4614 102.29 33.4614 103.634V113.554C33.4614 114.562 34.6523 117.084 37.034 117.084C39.4158 117.084 40.6066 114.731 40.6066 113.554V103.634C40.6066 102.29 39.2967 99.9358 37.034 99.9358Z" fill="#20A2DC"/>
<circle cx="85.3302" cy="79.2392" r="1.38664" fill="#516678"/>
<circle cx="81.6696" cy="83.3437" r="1.38664" fill="#D9D9D9"/>
<circle cx="81.6696" cy="83.3437" r="1.38664" fill="#20A2DC"/>
<circle cx="93.3174" cy="86.7824" r="1.38664" fill="#516678"/>
<circle cx="77.4541" cy="86.7824" r="1.38664" fill="#516678"/>
<circle cx="72.6842" cy="89.7778" r="1.38664" fill="#20A2DC"/>
<circle cx="67.6923" cy="91.9963" r="1.38664" fill="#516678"/>
<circle cx="62.3676" cy="93.6603" r="1.38664" fill="#20A2DC"/>
<circle cx="56.9319" cy="94.4367" r="1.38664" fill="#516678"/>
<circle cx="57.2648" cy="99.8722" r="1.38664" fill="#20A2DC"/>
<circle cx="57.8194" cy="105.197" r="1.38664" fill="#516678"/>
<circle cx="58.8178" cy="110.411" r="1.38664" fill="#20A2DC"/>
<circle cx="60.038" cy="115.624" r="1.38664" fill="#516678"/>
<circle cx="61.591" cy="120.838" r="1.38664" fill="#20A2DC"/>
<circle cx="63.477" cy="125.83" r="1.38664" fill="#516678"/>
<circle cx="65.8063" cy="130.601" r="1.38664" fill="#20A2DC"/>
<circle cx="68.6906" cy="135.148" r="1.38664" fill="#516678"/>
<circle cx="72.1294" cy="139.364" r="1.38664" fill="#20A2DC"/>
<circle cx="76.012" cy="143.025" r="1.38664" fill="#516678"/>
<circle cx="80.4493" cy="146.02" r="1.38664" fill="#20A2DC"/>
<circle cx="85.3302" cy="148.127" r="1.38664" fill="#516678"/>
<circle cx="90.2113" cy="146.02" r="1.38664" fill="#20A2DC"/>
<circle cx="94.6485" cy="143.025" r="1.38664" fill="#516678"/>
<circle cx="98.5311" cy="139.364" r="1.38664" fill="#20A2DC"/>
<circle cx="113.729" cy="94.5478" r="1.38664" fill="#516678"/>
<circle cx="108.293" cy="93.6603" r="1.38664" fill="#20A2DC"/>
<circle cx="103.079" cy="91.9963" r="1.38664" fill="#516678"/>
<circle cx="97.9765" cy="89.7778" r="1.38664" fill="#20A2DC"/>
<circle cx="89.102" cy="83.3437" r="1.38664" fill="#20A2DC"/>
<path d="M50.2761 88.9456C69.1344 86.7269 80.6713 75.8557 84.332 70.8638C84.9421 69.8654 85.885 70.1342 86.4397 70.8638C95.7169 83.0662 111.621 88.0581 120.662 88.9456C122.381 89.1143 122.573 89.8335 122.548 90.3877L121.938 99.8723C121.531 99.5765 120.418 98.9405 119.22 98.763L119.885 91.497C112.287 90.9978 96.257 86.7269 85.3303 73.9144C81.4662 78.8878 69.3562 89.5002 50.8862 91.5524C51.5518 108.969 58.3187 145.077 85.3858 154.173C88.9171 153.156 97.6104 148.904 104.133 140.473L106.352 141.971C103.856 145.668 96.1684 153.785 85.3858 156.669C56.4327 148.793 48.5752 109.283 48.1684 90.3877C48.1409 89.1119 49.444 89.0434 50.2761 88.9456Z" fill="#516678"/>
<path fill-rule="evenodd" clip-rule="evenodd" d="M115.615 124.998C122.323 124.998 127.761 119.56 127.761 112.851C127.761 106.142 122.323 100.704 115.615 100.704C108.906 100.704 103.468 106.142 103.468 112.851C103.468 119.56 108.906 124.998 115.615 124.998ZM115.632 122.229C120.762 122.229 124.92 118.07 124.92 112.94C124.92 107.81 120.762 103.652 115.632 103.652C110.502 103.652 106.343 107.81 106.343 112.94C106.343 118.07 110.502 122.229 115.632 122.229Z" fill="#516678"/>
<path d="M110.346 113.739C110.296 112.665 111.318 112.274 111.835 112.213C112.084 112.184 112.332 112.213 112.704 112.457L114.566 113.8L118.475 108.857C119.096 108.308 120.089 108.491 120.523 108.857C121.082 109.406 120.957 110.321 120.709 110.688L115.683 117.156C114.789 117.596 114.069 117.258 113.821 117.034L110.842 114.837C110.408 114.471 110.357 113.983 110.346 113.739Z" fill="#20A2DC"/>
<path fill-rule="evenodd" clip-rule="evenodd" d="M79.7847 120.994H73.9643C73.2051 121.163 71.6741 121.892 71.6235 123.461V127.257C71.5602 128.248 71.9398 130.205 73.9643 130.104H97.1194C97.7521 130.167 99.0806 129.687 99.3337 127.257V123.714C99.3126 122.892 98.8402 121.196 97.1194 120.994H91.2357C90.35 119.792 88.9582 116.186 91.7419 111.504C96.55 106.063 94.0827 96.8103 85.4786 96.5102C80.0377 96.3204 72.4459 103.216 79.2786 111.82C80.3752 113.507 82.0117 117.704 79.7847 120.994ZM74.6602 123.967V127.067H96.1704V123.967H91.0459C89.7174 123.946 87.0349 122.525 86.9337 117.008C87.0391 115.511 87.6296 111.985 89.148 109.859C90.0969 108.91 91.1725 107.075 91.1725 105.114C91.1725 103.28 90.0337 99.3495 85.4153 99.2938C83.4541 99.2702 79.9745 100.559 79.6581 104.988C79.6581 106 79.8479 108.024 81.8724 109.859C82.1888 110.146 84.1483 114.161 84.0235 117.008C83.918 119.412 82.9986 124.17 80.1643 123.967H74.6602Z" fill="#20A2DC"/>
<path d="M108.201 128.946C108.201 130.303 109.613 131.089 110.42 131.089H124.946C125.551 131.089 127.064 130.375 127.064 128.946C127.064 127.517 125.652 126.802 124.946 126.802H110.42C109.613 126.802 108.201 127.588 108.201 128.946Z" fill="#516678"/>
<path d="M101.627 135.805C101.627 137.163 103.039 137.948 103.846 137.948H118.372C118.977 137.948 120.49 137.234 120.49 135.805C120.49 134.376 119.078 133.661 118.372 133.661H103.846C103.039 133.661 101.627 134.447 101.627 135.805Z" fill="#516678"/>
<path d="M165.523 159.106H9.92941C9.04373 159.038 7.25192 159.412 7.17017 161.452C7.08841 163.493 8.70308 164.071 9.52064 164.105H166.034C166.715 164.037 168.077 163.411 168.077 161.452C168.077 159.493 166.374 159.072 165.523 159.106Z" fill="#516678"/>
</svg>
