<svg width="175" height="176" viewBox="0 0 175 176" fill="none" xmlns="http://www.w3.org/2000/svg">
<path d="M10.3705 67.1794L9.2332 67.749L10.8443 69.8373H8.38025V70.8814L10.8443 70.4068L9.2332 72.7799L10.3705 73.3494L11.3182 70.8814L12.4555 73.3494L13.5927 72.59L11.9816 70.4068L14.6352 70.8814V69.8373H11.9816L13.5927 67.749L12.7398 67.1794L11.3182 69.4576L10.3705 67.1794Z" fill="#20A2DC"/>
<path d="M65.6743 39.6831L64.537 40.2526L66.1482 42.3409H63.6841V43.3851L66.1482 42.9105L64.537 45.2835L65.6743 45.8531L66.622 43.3851L67.7593 45.8531L68.8966 45.0937L67.2854 42.9105L69.9391 43.3851V42.3409H67.2854L68.8966 40.2526L68.0436 39.6831L66.622 41.9612L65.6743 39.6831Z" fill="#20A2DC"/>
<path d="M162.541 35.7395L161.403 36.309L163.014 38.3973H160.55V39.4415L163.014 38.9669L161.403 41.3399L162.541 41.9095L163.488 39.4415L164.626 41.9095L165.763 41.1501L164.152 38.9669L166.805 39.4415V38.3973H164.152L165.763 36.309L164.91 35.7395L163.488 38.0176L162.541 35.7395Z" fill="#20A2DC"/>
<path d="M114.231 19.2253L113.093 19.7949L114.704 21.8832H112.24V22.9273L114.704 22.4527L113.093 24.8258L114.231 25.3953L115.178 22.9273L116.316 25.3953L117.453 24.6359L115.842 22.4527L118.495 22.9273V21.8832H115.842L117.453 19.7949L116.6 19.2253L115.178 21.5035L114.231 19.2253Z" fill="#20A2DC"/>
<path d="M88.7131 2.95776L88.1962 3.23815L88.9285 4.26623H87.8085V4.78027L88.9285 4.54662L88.1962 5.71489L88.7131 5.99528L89.1439 4.78027L89.6608 5.99528L90.1778 5.62143L89.4455 4.54662L90.6517 4.78027V4.26623H89.4455L90.1778 3.23815L89.7901 2.95776L89.1439 4.07931L88.7131 2.95776Z" fill="#20A2DC"/>
<path fill-rule="evenodd" clip-rule="evenodd" d="M21.4056 23.6097C22.6618 23.6097 23.6802 22.5898 23.6802 21.3316C23.6802 20.0734 22.6618 19.0535 21.4056 19.0535C20.1495 19.0535 19.1311 20.0734 19.1311 21.3316C19.1311 22.5898 20.1495 23.6097 21.4056 23.6097ZM21.3757 22.051C21.7889 22.051 22.1239 21.7155 22.1239 21.3016C22.1239 20.8878 21.7889 20.5522 21.3757 20.5522C20.9625 20.5522 20.6275 20.8878 20.6275 21.3016C20.6275 21.7155 20.9625 22.051 21.3757 22.051Z" fill="#516678"/>
<path fill-rule="evenodd" clip-rule="evenodd" d="M35.3953 52.1726C36.6515 52.1726 37.6698 51.1526 37.6698 49.8945C37.6698 48.6363 36.6515 47.6163 35.3953 47.6163C34.1391 47.6163 33.1207 48.6363 33.1207 49.8945C33.1207 51.1526 34.1391 52.1726 35.3953 52.1726ZM35.3653 50.6139C35.7785 50.6139 36.1135 50.2784 36.1135 49.8645C36.1135 49.4506 35.7785 49.1151 35.3653 49.1151C34.9521 49.1151 34.6171 49.4506 34.6171 49.8645C34.6171 50.2784 34.9521 50.6139 35.3653 50.6139Z" fill="#516678"/>
<path fill-rule="evenodd" clip-rule="evenodd" d="M91.3532 24.2547C93.5662 24.2547 95.3603 22.4578 95.3603 20.2412C95.3603 18.0247 93.5662 16.2278 91.3532 16.2278C89.1401 16.2278 87.3461 18.0247 87.3461 20.2412C87.3461 22.4578 89.1401 24.2547 91.3532 24.2547ZM91.3004 21.5085C92.0284 21.5085 92.6185 20.9175 92.6185 20.1883C92.6185 19.4592 92.0284 18.8681 91.3004 18.8681C90.5724 18.8681 89.9822 19.4592 89.9822 20.1883C89.9822 20.9175 90.5724 21.5085 91.3004 21.5085Z" fill="#516678"/>
<path fill-rule="evenodd" clip-rule="evenodd" d="M152.098 64.688C153.42 64.688 154.491 63.6149 154.491 62.2912C154.491 60.9675 153.42 59.8944 152.098 59.8944C150.777 59.8944 149.705 60.9675 149.705 62.2912C149.705 63.6149 150.777 64.688 152.098 64.688ZM152.067 63.0478C152.502 63.0478 152.854 62.6948 152.854 62.2594C152.854 61.824 152.502 61.471 152.067 61.471C151.632 61.471 151.28 61.824 151.28 62.2594C151.28 62.6948 151.632 63.0478 152.067 63.0478Z" fill="#516678"/>
<path fill-rule="evenodd" clip-rule="evenodd" d="M153.084 17.8569C154.406 17.8569 155.477 16.7839 155.477 15.4601C155.477 14.1364 154.406 13.0634 153.084 13.0634C151.763 13.0634 150.691 14.1364 150.691 15.4601C150.691 16.7839 151.763 17.8569 153.084 17.8569ZM153.053 16.2168C153.487 16.2168 153.84 15.8638 153.84 15.4284C153.84 14.9929 153.487 14.6399 153.053 14.6399C152.618 14.6399 152.265 14.9929 152.265 15.4284C152.265 15.8638 152.618 16.2168 153.053 16.2168Z" fill="#516678"/>
<path fill-rule="evenodd" clip-rule="evenodd" d="M89.4064 95.6824L87.4242 99.715C87.0824 100.33 87.219 101.971 88.5861 101.971H93.7124C95.0794 102.928 97.3349 103.796 99.7956 103.748C103.418 103.676 110.267 101.424 110.595 92.9484C110.725 89.5992 108.613 82.3562 99.7956 82.0807C96.2413 81.9696 88.9279 84.8831 88.9279 92.9484C88.9507 93.7458 89.0783 95.409 89.4064 95.6824ZM92.6869 95.0672L92.687 96.1608L91.6618 98.4847H94.5325L95.6261 99.1682C96.5871 99.8382 98.0567 100.364 99.7865 100.33C102.333 100.28 107.148 98.8384 107.378 92.9043C107.469 90.5594 105.985 85.4882 99.7865 85.2953C97.2878 85.2175 92.5504 87.2069 92.3453 92.675C92.3471 92.7385 92.3485 92.8132 92.3501 92.8964C92.3623 93.5442 92.3842 94.7038 92.6869 95.0672Z" fill="#20A2DC"/>
<path fill-rule="evenodd" clip-rule="evenodd" d="M81.7032 77.5168V51.0099C81.7032 49.0352 83.3742 45.8452 87.1717 45.8452H115.046C117.02 45.8452 120.59 47.3642 120.59 51.0099V66.5039C120.59 68.1748 119.071 71.7445 115.046 71.7445H93.5516L84.0577 79.1877C82.9944 79.7194 81.7032 79.0358 81.7032 77.5168ZM85.4248 51.3897V73.3395L92.3364 67.947H115.046C115.881 67.947 116.869 67.4153 116.869 66.2001V51.3897C116.869 50.5542 116.261 49.415 115.046 49.415H87.3236C86.4882 49.415 85.4249 49.9466 85.4248 51.3897Z" fill="#516678"/>
<path d="M93.7794 55.0352C93.7794 53.5922 94.9187 53.2124 95.6782 53.2124H106.767C107.451 53.2124 108.514 53.577 108.514 55.0352C108.514 56.4935 107.375 56.934 106.767 56.934H95.6782C95.0706 56.934 93.7794 56.5542 93.7794 55.0352Z" fill="#516678"/>
<path d="M93.7035 62.4786C93.7035 61.0355 94.8428 60.6558 95.6023 60.6558H106.691C107.375 60.6558 108.438 61.0203 108.438 62.4786C108.438 63.9368 107.299 64.3774 106.691 64.3774H95.6023C94.9947 64.3774 93.7035 63.9976 93.7035 62.4786Z" fill="#20A2DC"/>
<path fill-rule="evenodd" clip-rule="evenodd" d="M46.9463 80.817C46.9463 77.0601 50.7032 69.8878 58.3878 69.8878C67.2678 69.8878 69.8293 78.4263 69.8293 80.817V87.6478C69.8293 91.4901 67.0117 99.0039 58.3878 99.0039C49.5078 99.0039 46.9463 90.9778 46.9463 87.6478V80.817ZM51.2155 80.9878C51.2155 78.3216 53.5132 74.157 58.3878 74.157C64.0206 74.1571 65.7309 79.2911 65.7309 80.9878V87.6478C65.7309 90.3746 63.9435 94.8201 58.4732 94.8201C52.8403 94.8201 51.2155 90.011 51.2155 87.6478V80.9878Z" fill="#20A2DC"/>
<path fill-rule="evenodd" clip-rule="evenodd" d="M30.3816 126.156H34.48V118.472C34.48 117.703 34.9924 115.568 37.127 114.032L48.3123 103.871L54.1185 107.201L51.0447 121.631L56.2531 126.156H60.5223L65.7308 121.631L62.9131 107.201L68.6339 103.871L79.7339 114.032C80.6446 114.715 82.3808 116.593 82.3808 118.472V126.156H86.5646V118.472C86.5646 117.105 86.1377 114.458 84.1739 112.495L71.5369 100.968C71.0816 100.512 70.2562 99.3454 70.0854 98.15C68.8046 99.5446 65.7308 102.078 62.4008 102.675L58.5585 104.981L54.8016 102.761C54.7197 102.738 54.6357 102.716 54.5497 102.693C52.6639 102.184 49.8207 101.416 46.9462 98.15C46.8039 98.8616 46.4339 100.028 45.4093 100.968L32.7724 112.495C31.7477 113.434 30.3816 115.739 30.3816 118.472V126.156ZM57.8754 109.506H58.9854L61.2908 120.179L58.5585 122.485L55.6554 120.179L57.8754 109.506Z" fill="#516678"/>
<path d="M40.7132 89.7824C42.3526 89.7824 42.8478 88.3308 42.8478 87.5624V80.2193C42.8478 75.5231 47.7148 65.7893 58.3878 65.7893C69.4024 65.7893 74.0986 76.1208 74.0986 79.8778V87.5624C74.0986 88.6724 74.5938 89.697 76.2332 89.697C77.8726 89.697 78.197 88.4162 78.197 87.5624V80.2193C78.197 73.7301 72.1347 61.6055 58.3878 61.6055C44.6409 61.6055 38.7494 73.9008 38.7494 80.2193V87.5624C38.7494 88.587 39.0739 89.7824 40.7132 89.7824Z" fill="#516678"/>
<path d="M25.1732 134.524V156.468H29.2716V134.524L87.5893 134.438V156.211H91.6877V134.438H95.0177C95.6723 134.41 96.9816 133.96 96.9816 132.389C96.9816 130.818 95.6723 130.368 95.0177 130.34H21.9286C21.274 130.397 19.9647 130.904 19.9647 132.475C19.9647 134.046 21.274 134.495 21.9286 134.524H25.1732Z" fill="#516678"/>
<path d="M44.7263 126.156H40.7986V121.545C40.7986 120.862 41.4817 119.923 42.8478 119.923C44.214 119.923 44.7263 120.862 44.7263 121.545V126.156Z" fill="#20A2DC"/>
<path d="M75.977 126.156H72.0493V121.545C72.0493 120.862 72.7324 119.923 74.0985 119.923C75.4647 119.923 75.977 120.862 75.977 121.545V126.156Z" fill="#20A2DC"/>
<path fill-rule="evenodd" clip-rule="evenodd" d="M98.863 123.49C98.2677 124.019 98.2382 125.825 99.6568 126.069C99.9968 126.128 100.534 126.114 101.26 126.095H101.26H101.26C104.629 126.006 112.052 125.811 122.61 132.287C122.455 132.971 122.517 134.642 123.999 135.859L132.135 142.474L125.52 150.742C124.748 152.087 123.787 155.438 126.115 158.084C128.444 160.73 133.215 159.716 135.31 158.878L142.123 150.411C142.652 150.72 144.12 151.046 145.761 149.882L154.029 139.629C154.602 138.814 155.405 136.759 154.029 135.065L135.971 120.315C135.464 119.94 134.145 119.336 132.928 119.918C129.643 116.655 123.006 107.813 122.147 98.8172C122.147 98.288 121.22 96.9651 119.699 97.825L98.863 123.49ZM103.493 122.894L119.633 102.852C120.383 106.512 123.721 115.473 130.547 122.034L124.395 129.641C121.088 127.194 112.092 122.894 103.493 122.894ZM151.582 137.38L133.987 122.96L125.851 133.015L143.512 147.501L151.582 137.38ZM134.648 144.524C136.324 145.891 139.649 148.612 139.543 148.559C139.437 148.506 135.266 153.785 133.193 156.431C132.519 157.291 130.349 157.778 128.761 156.431C127.107 155.028 127.901 152.66 128.563 152.065L134.648 144.524Z" fill="#516678"/>
<path d="M131.562 76.1544C131.562 74.8759 132.439 74.5394 133.024 74.5394H141.56C142.086 74.5394 142.904 74.8624 142.904 76.1544C142.904 77.4463 142.028 77.8366 141.56 77.8366H133.024C132.556 77.8366 131.562 77.5001 131.562 76.1544Z" fill="#20A2DC"/>
<path d="M131.562 82.7487C131.562 81.4702 132.439 81.1338 133.024 81.1338H141.56C142.086 81.1338 142.904 81.4568 142.904 82.7487C142.904 84.0407 142.028 84.431 141.56 84.431H133.024C132.556 84.431 131.562 84.0945 131.562 82.7487Z" fill="#20A2DC"/>
<path d="M131.562 89.3431C131.562 88.0646 132.439 87.7281 133.024 87.7281H141.56C142.086 87.7281 142.904 88.0511 142.904 89.3431C142.904 90.635 142.028 91.0253 141.56 91.0253H133.024C132.556 91.0253 131.562 90.6889 131.562 89.3431Z" fill="#20A2DC"/>
<path fill-rule="evenodd" clip-rule="evenodd" d="M128.793 68.2748C127.21 68.2748 124.308 69.6596 124.308 72.9568V92.41C124.308 94.1245 125.561 97.1579 129.452 97.1579H145.674C147.257 97.1579 150.026 95.3775 150.026 92.41V72.9568C150.026 71.5719 148.773 68.2748 145.608 68.2748H128.793ZM127.54 73.1546C127.54 72.2973 127.935 71.4401 129.188 71.4401H145.213C146.004 71.4401 146.795 72.0995 146.795 73.1546V92.3441C146.795 93.0695 146.268 93.9927 145.147 93.9927H129.32C128.397 93.9927 127.54 93.3992 127.54 92.3441L127.54 73.1546Z" fill="#516678"/>
<rect x="15.912" y="156.268" width="143.033" height="4.26364" rx="2.13182" fill="#516678"/>
<rect x="161.158" y="156.268" width="7.15163" height="4.26364" rx="2.13182" fill="#20A2DC"/>
<rect x="6.71698" y="156.268" width="7.15163" height="4.26364" rx="2.13182" fill="#20A2DC"/>
<rect x="64.4409" y="164.454" width="45.6342" height="4.26364" rx="2.13182" fill="#20A2DC"/>
<rect x="72.7844" y="170.764" width="30.139" height="4.26364" rx="2.13182" fill="#20A2DC"/>
<rect x="83.1714" y="167.353" width="8.68413" height="4.26364" fill="#20A2DC"/>
<rect x="112.118" y="164.454" width="12.6005" height="4.26364" rx="2.13182" fill="#20A2DC"/>
<rect x="49.7971" y="164.454" width="12.6005" height="4.26364" rx="2.13182" fill="#20A2DC"/>
<rect x="170.353" y="156.268" width="4.25692" height="4.26364" rx="2.12846" fill="#20A2DC"/>
<rect x="0.24646" y="156.268" width="4.25692" height="4.26364" rx="2.12846" fill="#20A2DC"/>
</svg>
