<svg width="175" height="175" viewBox="0 0 175 175" fill="none" xmlns="http://www.w3.org/2000/svg">
<path fill-rule="evenodd" clip-rule="evenodd" d="M90.1084 78.8984L87.7068 83.7843C87.2926 84.5297 87.4582 86.5172 89.1146 86.5172H95.3256C96.9819 87.6766 99.7147 88.7292 102.696 88.6703C107.085 88.5837 115.383 85.8547 115.781 75.5858C115.938 71.528 113.379 62.7523 102.696 62.4185C98.3896 62.2839 89.5286 65.8138 89.5286 75.5858C89.5563 76.552 89.7109 78.5671 90.1084 78.8984ZM94.0831 78.1531L94.0832 79.4781L92.8411 82.2937H96.3192L97.6443 83.1219C98.8086 83.9336 100.589 84.5709 102.685 84.5297C105.77 84.469 111.604 82.7223 111.883 75.5325C111.994 72.6914 110.195 66.5471 102.685 66.3133C99.6576 66.2191 93.9177 68.6295 93.6692 75.2546C93.6714 75.3316 93.6731 75.4221 93.675 75.5229C93.6898 76.3078 93.7163 77.7127 94.0831 78.1531Z" fill="#20A2DC"/>
<path fill-rule="evenodd" clip-rule="evenodd" d="M80.7754 56.8888V24.7729C80.7754 22.3803 82.7999 18.5154 87.401 18.5154H121.173C123.566 18.5154 127.891 20.3558 127.891 24.7729V43.5455C127.891 45.57 126.05 49.8951 121.173 49.8951H95.1309L83.6281 58.9133C82.3398 59.5574 80.7754 58.7292 80.7754 56.8888ZM85.2845 25.2331V51.8276L93.6585 45.294H121.173C122.186 45.294 123.382 44.6499 123.382 43.1775V25.2331C123.382 24.2209 122.646 22.8405 121.173 22.8405H87.585C86.5729 22.8405 85.2845 23.4847 85.2845 25.2331Z" fill="#516678"/>
<path d="M95.407 29.6502C95.407 27.9018 96.7873 27.4417 97.7075 27.4417H111.143C111.971 27.4417 113.259 27.8834 113.259 29.6502C113.259 31.417 111.879 31.9508 111.143 31.9508H97.7075C96.9714 31.9508 95.407 31.4906 95.407 29.6502Z" fill="#516678"/>
<path d="M95.3149 38.6685C95.3149 36.9201 96.6953 36.46 97.6155 36.46H111.051C111.879 36.46 113.167 36.9017 113.167 38.6685C113.167 40.4353 111.787 40.9691 111.051 40.9691H97.6155C96.8793 40.9691 95.3149 40.509 95.3149 38.6685Z" fill="#20A2DC"/>
<path fill-rule="evenodd" clip-rule="evenodd" d="M38.6636 60.8874C38.6636 56.3355 43.2155 47.6455 52.5262 47.6455C63.2852 47.6455 66.3888 57.9907 66.3888 60.8874V69.1636C66.3888 73.8189 62.9749 82.9227 52.5262 82.9227C41.7671 82.9227 38.6636 73.1982 38.6636 69.1636V60.8874ZM43.8362 61.0943C43.8362 57.8639 46.6201 52.8181 52.5262 52.8181C59.3509 52.8181 61.4231 59.0386 61.4231 61.0943V69.1636C61.4231 72.4674 59.2575 77.8536 52.6296 77.8536C45.8049 77.8536 43.8362 72.0269 43.8362 69.1636V61.0943Z" fill="#20A2DC"/>
<path fill-rule="evenodd" clip-rule="evenodd" d="M18.5938 115.821H23.5595V106.51C23.5595 105.579 24.1802 102.992 26.7665 101.13L40.3188 88.8195L47.3535 92.8541L43.6293 110.338L49.9398 115.821H55.1125L61.423 110.338L58.0091 92.8541L64.9404 88.8195L78.3892 101.13C79.4927 101.958 81.5962 104.234 81.5962 106.51V115.821H86.6654V106.51C86.6654 104.855 86.1481 101.648 83.7687 99.2682L68.4578 85.3021C67.9061 84.7504 66.906 83.3365 66.6991 81.8882C65.1473 83.5779 61.423 86.647 57.3884 87.3712L52.7331 90.1644L48.1812 87.4746C48.0819 87.4475 47.9802 87.4201 47.876 87.392C45.5912 86.7754 42.1463 85.8458 38.6635 81.8882C38.4911 82.7503 38.0428 84.1641 36.8014 85.3021L21.4905 99.2682C20.249 100.406 18.5938 103.199 18.5938 106.51V115.821ZM51.9054 95.6474H53.2503L56.0435 108.579L52.7331 111.372L49.2157 108.579L51.9054 95.6474Z" fill="#516678"/>
<path d="M31.1116 71.7498C33.0979 71.7498 33.6979 69.9912 33.6979 69.0601V60.1632C33.6979 54.4733 39.5947 42.6798 52.5262 42.6798C65.8715 42.6798 71.5614 55.1975 71.5614 59.7494V69.0601C71.5614 70.405 72.1614 71.6464 74.1477 71.6464C76.134 71.6464 76.5271 70.0946 76.5271 69.0601V60.1632C76.5271 52.3008 69.182 37.6106 52.5262 37.6106C35.8704 37.6106 28.7322 52.5077 28.7322 60.1632V69.0601C28.7322 70.3015 29.1253 71.7498 31.1116 71.7498Z" fill="#516678"/>
<path d="M12.2832 125.959V152.546H17.249V125.959L87.9068 125.855V152.236H92.8725V125.855H96.9072C97.7003 125.821 99.2866 125.276 99.2866 123.373C99.2866 121.469 97.7003 120.924 96.9072 120.89H8.35206C7.55892 120.959 5.97266 121.572 5.97266 123.476C5.97266 125.379 7.55892 125.924 8.35206 125.959H12.2832Z" fill="#516678"/>
<path d="M35.9738 115.821H31.215V110.234C31.215 109.407 32.0426 108.269 33.6979 108.269C35.3531 108.269 35.9738 109.407 35.9738 110.234V115.821Z" fill="#20A2DC"/>
<path d="M73.8374 115.821H69.0786V110.234C69.0786 109.407 69.9062 108.269 71.5614 108.269C73.2166 108.269 73.8374 109.407 73.8374 110.234V115.821Z" fill="#20A2DC"/>
<path fill-rule="evenodd" clip-rule="evenodd" d="M101.566 112.59C100.845 113.231 100.809 115.419 102.528 115.715C102.94 115.786 103.591 115.769 104.471 115.746C108.552 115.639 117.546 115.403 130.337 123.249C130.15 124.077 130.225 126.102 132.02 127.577L141.878 135.591L133.864 145.609C132.929 147.238 131.764 151.299 134.585 154.505C137.406 157.71 143.187 156.482 145.725 155.466L153.98 145.208C154.621 145.582 156.4 145.977 158.388 144.567L168.405 132.145C169.1 131.156 170.072 128.667 168.405 126.615L146.526 108.743C145.912 108.289 144.314 107.557 142.84 108.262C138.859 104.308 130.818 93.5959 129.776 82.6964C129.776 82.0553 128.654 80.4524 126.811 81.4943L101.566 112.59ZM107.176 111.868L126.731 87.585C127.639 92.0196 131.684 102.876 139.955 110.827L132.501 120.043C128.494 117.078 117.595 111.868 107.176 111.868ZM165.44 129.42L144.122 111.949L134.265 124.13L155.663 141.682L165.44 129.42ZM144.924 138.075C146.954 139.732 150.982 143.028 150.854 142.964C150.726 142.9 145.672 149.295 143.16 152.501C142.344 153.543 139.714 154.133 137.791 152.501C135.787 150.801 136.749 147.933 137.55 147.212L144.924 138.075Z" fill="#516678"/>
<path d="M141.185 55.2382C141.185 53.6891 142.247 53.2815 142.956 53.2815H153.298C153.935 53.2815 154.927 53.6728 154.927 55.2382C154.927 56.8035 153.864 57.2764 153.298 57.2764H142.956C142.389 57.2764 141.185 56.8687 141.185 55.2382Z" fill="#20A2DC"/>
<path d="M141.185 63.2279C141.185 61.6789 142.247 61.2712 142.956 61.2712H153.298C153.935 61.2712 154.927 61.6626 154.927 63.2279C154.927 64.7932 153.864 65.2661 153.298 65.2661H142.956C142.389 65.2661 141.185 64.8585 141.185 63.2279Z" fill="#20A2DC"/>
<path d="M141.185 71.2177C141.185 69.6686 142.247 69.261 142.956 69.261H153.298C153.935 69.261 154.927 69.6523 154.927 71.2177C154.927 72.783 153.864 73.2558 153.298 73.2558H142.956C142.389 73.2558 141.185 72.8482 141.185 71.2177Z" fill="#20A2DC"/>
<path fill-rule="evenodd" clip-rule="evenodd" d="M137.829 45.6912C135.911 45.6912 132.396 47.369 132.396 51.3639V74.9335C132.396 77.0108 133.914 80.6861 138.628 80.6861H158.283C160.2 80.6861 163.556 78.5289 163.556 74.9335V51.3639C163.556 49.686 162.038 45.6912 158.203 45.6912H137.829ZM136.311 51.6036C136.311 50.5649 136.791 49.5262 138.309 49.5262H157.724C158.682 49.5262 159.641 50.3252 159.641 51.6036V74.8536C159.641 75.7325 159.002 76.8511 157.644 76.8511H138.468C137.35 76.8511 136.311 76.132 136.311 74.8536L136.311 51.6036Z" fill="#516678"/>
</svg>
