<svg width="175" height="176" viewBox="0 0 175 176" fill="none" xmlns="http://www.w3.org/2000/svg">
<path d="M10.3705 67.1794L9.23323 67.749L10.8444 69.8373H8.38028V70.8814L10.8444 70.4068L9.23323 72.7799L10.3705 73.3494L11.3182 70.8814L12.4555 73.3494L13.5928 72.59L11.9816 70.4068L14.6353 70.8814V69.8373H11.9816L13.5928 67.749L12.7398 67.1794L11.3182 69.4576L10.3705 67.1794Z" fill="#20A2DC"/>
<path d="M65.6743 39.6831L64.537 40.2526L66.1482 42.3409H63.6841V43.3851L66.1482 42.9105L64.537 45.2835L65.6743 45.8531L66.622 43.3851L67.7593 45.8531L68.8966 45.0937L67.2854 42.9105L69.9391 43.3851V42.3409H67.2854L68.8966 40.2526L68.0436 39.6831L66.622 41.9612L65.6743 39.6831Z" fill="#20A2DC"/>
<path d="M147.752 35.7395L146.615 36.309L148.226 38.3973H145.762V39.4415L148.226 38.9669L146.615 41.3399L147.752 41.9095L148.7 39.4415L149.837 41.9095L150.974 41.1501L149.363 38.9669L152.017 39.4415V38.3973H149.363L150.974 36.309L150.121 35.7395L148.7 38.0176L147.752 35.7395Z" fill="#20A2DC"/>
<path d="M114.231 26.6198L113.093 27.1893L114.705 29.2776H112.24V30.3217L114.705 29.8471L113.093 32.2202L114.231 32.7897L115.178 30.3217L116.316 32.7897L117.453 32.0303L115.842 29.8471L118.495 30.3217V29.2776H115.842L117.453 27.1893L116.6 26.6198L115.178 28.8979L114.231 26.6198Z" fill="#20A2DC"/>
<path d="M88.7131 2.95776L88.1962 3.23815L88.9285 4.26623H87.8085V4.78027L88.9285 4.54662L88.1962 5.71489L88.7131 5.99528L89.1439 4.78027L89.6608 5.99528L90.1778 5.62143L89.4455 4.54662L90.6517 4.78027V4.26623H89.4455L90.1778 3.23815L89.7901 2.95776L89.1439 4.07931L88.7131 2.95776Z" fill="#20A2DC"/>
<path fill-rule="evenodd" clip-rule="evenodd" d="M21.4056 23.6097C22.6618 23.6097 23.6802 22.5898 23.6802 21.3316C23.6802 20.0734 22.6618 19.0535 21.4056 19.0535C20.1494 19.0535 19.1311 20.0734 19.1311 21.3316C19.1311 22.5898 20.1494 23.6097 21.4056 23.6097ZM21.3757 22.051C21.7889 22.051 22.1239 21.7155 22.1239 21.3016C22.1239 20.8878 21.7889 20.5522 21.3757 20.5522C20.9625 20.5522 20.6275 20.8878 20.6275 21.3016C20.6275 21.7155 20.9625 22.051 21.3757 22.051Z" fill="#516678"/>
<path fill-rule="evenodd" clip-rule="evenodd" d="M35.3953 52.1726C36.6515 52.1726 37.6698 51.1526 37.6698 49.8945C37.6698 48.6363 36.6515 47.6163 35.3953 47.6163C34.1391 47.6163 33.1207 48.6363 33.1207 49.8945C33.1207 51.1526 34.1391 52.1726 35.3953 52.1726ZM35.3653 50.6139C35.7785 50.6139 36.1135 50.2784 36.1135 49.8645C36.1135 49.4506 35.7785 49.1151 35.3653 49.1151C34.9521 49.1151 34.6171 49.4506 34.6171 49.8645C34.6171 50.2784 34.9521 50.6139 35.3653 50.6139Z" fill="#516678"/>
<path fill-rule="evenodd" clip-rule="evenodd" d="M79.0292 34.1138C81.2423 34.1138 83.0363 32.3169 83.0363 30.1003C83.0363 27.8838 81.2423 26.0869 79.0292 26.0869C76.8162 26.0869 75.0221 27.8838 75.0221 30.1003C75.0221 32.3169 76.8162 34.1138 79.0292 34.1138ZM78.9764 31.3677C79.7044 31.3677 80.2946 30.7766 80.2946 30.0475C80.2946 29.3183 79.7044 28.7273 78.9764 28.7273C78.2484 28.7273 77.6583 29.3183 77.6583 30.0475C77.6583 30.7766 78.2484 31.3677 78.9764 31.3677Z" fill="#516678"/>
<path fill-rule="evenodd" clip-rule="evenodd" d="M153.824 64.688C155.145 64.688 156.217 63.6149 156.217 62.2912C156.217 60.9675 155.145 59.8944 153.824 59.8944C152.502 59.8944 151.431 60.9675 151.431 62.2912C151.431 63.6149 152.502 64.688 153.824 64.688ZM153.792 63.0478C154.227 63.0478 154.579 62.6948 154.579 62.2594C154.579 61.824 154.227 61.471 153.792 61.471C153.357 61.471 153.005 61.824 153.005 62.2594C153.005 62.6948 153.357 63.0478 153.792 63.0478Z" fill="#516678"/>
<path fill-rule="evenodd" clip-rule="evenodd" d="M153.084 17.8569C154.406 17.8569 155.477 16.7839 155.477 15.4601C155.477 14.1364 154.406 13.0634 153.084 13.0634C151.763 13.0634 150.691 14.1364 150.691 15.4601C150.691 16.7839 151.763 17.8569 153.084 17.8569ZM153.053 16.2168C153.487 16.2168 153.84 15.8638 153.84 15.4284C153.84 14.9929 153.487 14.6399 153.053 14.6399C152.618 14.6399 152.265 14.9929 152.265 15.4284C152.265 15.8638 152.618 16.2168 153.053 16.2168Z" fill="#516678"/>
<path d="M80.9551 102.108V97.9976L83.2282 100.077V102.979C83.7311 104.333 86.2428 105.671 87.4358 106.171C89.7572 105.242 91.0147 103.85 91.3532 103.269H96.7216L101.461 105.397C102.893 105.823 103.476 106.606 103.589 106.945H98.8496L93.4329 104.478C93.0073 105.329 91.6434 106.477 91.0147 106.945H83.8569C83.0831 106.713 81.8579 105.204 81.342 104.478L75.9736 106.945H71.1856C71.5339 106.364 72.5237 105.8 72.9751 105.591L80.9551 102.108Z" fill="#516678"/>
<path fill-rule="evenodd" clip-rule="evenodd" d="M84.3405 101.915C84.0503 101.544 83.557 100.348 83.9052 98.5292C83.2443 97.8521 81.8353 95.7822 81.4871 92.9191C81.7289 92.242 83.6634 90.646 85.1143 90.9845C87.1456 91.9518 88.5965 92.2903 91.3532 91.4681C92.0303 91.3714 93.191 91.8067 93.191 92.5321C93.1588 93.4188 92.8622 95.3953 92.3205 96.2078H94.9321C95.1578 95.708 95.5125 94.4667 95.6092 92.5321V91.178V89.7754C95.6092 87.5991 93.1427 82.1985 87.3874 82.0856C81.6322 81.9728 79.1172 87.7442 79.1172 90.114V92.6772C79.2462 94.8858 80.4714 99.8254 84.3405 101.915ZM81.5839 89.4855C81.8096 87.8412 83.2863 84.5525 87.3875 84.5525C91.4888 84.5525 92.9655 87.7444 93.1912 89.3404C92.901 89.2437 92.2508 89.0839 91.9821 89.0503C91.5952 89.0019 91.0148 89.0019 89.5155 89.4855C88.6601 89.7615 87.3522 89.2995 86.3389 88.9415C85.9313 88.7976 85.5715 88.6705 85.3079 88.615L84.6792 88.5666H84.3406H84.0504C83.6152 88.5989 82.5028 88.9052 81.5839 89.4855Z" fill="#20A2DC"/>
<path fill-rule="evenodd" clip-rule="evenodd" d="M75.0064 92.7741C75.0547 93.161 75.3449 93.9252 76.1187 93.8865C76.8926 93.8478 77.2795 93.1933 77.3762 92.8709V89.1952C77.5858 86.1161 79.8814 79.9191 87.3875 79.7643C94.5739 79.6162 97.3987 86.4385 97.3987 89.1952V98.1425L97.0602 98.5778H89.3341C88.9984 98.1369 88.468 97.8524 87.8711 97.8524C86.8561 97.8524 86.0333 98.6752 86.0333 99.6902C86.0333 100.705 86.8561 101.528 87.8711 101.528C88.3997 101.528 88.8762 101.305 89.2115 100.948H97.2053C97.9791 100.948 99.7685 99.8836 99.7685 98.1425V89.3403C99.7685 85.3745 96.2863 77.3945 87.3875 77.3945C78.4886 77.3945 75.0064 85.1811 75.0064 89.7756V92.7741Z" fill="#516678"/>
<path fill-rule="evenodd" clip-rule="evenodd" d="M72.2982 109.218C70.7505 109.218 68.1874 110.621 68.3323 113.474L69.88 122.07C70.1631 123.446 70.7997 124.965 72.2171 125.476C72.1167 125.274 72.0405 125.028 71.9993 124.73L70.7023 113.039C70.7023 112.41 71.2826 111.588 72.4434 111.588H102.961C103.831 111.588 104.756 112.265 104.654 113.329C104.537 114.529 103.792 120.974 103.308 124.923C103.298 125.008 103.278 125.103 103.248 125.203C104.375 124.637 105.159 123.559 105.427 122.07L107.072 113.474C107.265 112.023 105.863 109.218 103.057 109.218H72.2982ZM89.873 128.054L87.3713 128.412L82.5788 127.693L86.9955 128.662L89.873 128.054Z" fill="#516678"/>
<circle cx="87.6779" cy="119.809" r="1.83782" fill="#20A2DC"/>
<path fill-rule="evenodd" clip-rule="evenodd" d="M87.5953 130.26C104.419 130.26 118.057 116.622 118.057 99.799C118.057 82.9757 104.419 69.3378 87.5953 69.3378C70.772 69.3378 57.134 82.9757 57.134 99.799C57.134 116.622 70.772 130.26 87.5953 130.26ZM87.5201 126.951C102.391 126.951 114.446 114.896 114.446 100.025C114.446 85.1537 102.391 73.0984 87.5201 73.0984C72.6491 73.0984 60.5938 85.1537 60.5938 100.025C60.5938 114.896 72.6491 126.951 87.5201 126.951Z" fill="#516678"/>
<path fill-rule="evenodd" clip-rule="evenodd" d="M85.7902 129.884H89.3252V133.795H90.4534C91.3559 133.795 93.9132 134.848 93.9132 137.105V157.412L81.127 157.563V137.105C81.127 136.052 82.2551 133.795 84.662 133.795H85.7902V129.884ZM90.3781 137.481H84.6619V155.983H90.3781V137.481Z" fill="#516678"/>
<path fill-rule="evenodd" clip-rule="evenodd" d="M46.9854 114.729C49.9212 114.729 55.4165 116.686 55.4165 122.257C55.4165 126.623 53.8357 135.258 46.9854 134.903C40.0597 134.545 38.8554 126.773 38.8553 122.257C38.8553 119.547 40.9631 114.729 46.9854 114.729ZM42.6193 121.805C42.5189 124.992 43.0709 131.139 46.9854 131.139C51.6527 131.139 51.6527 124.906 51.6527 122.041V122.031C51.6527 120.826 50.5235 118.417 47.2113 118.417C44.271 118.417 42.6596 120.525 42.6193 121.805Z" fill="#20A2DC"/>
<path d="M32.4568 156.508V146.27C32.4568 145.518 33.9624 144.388 35.2421 143.786L42.1677 140.7L46.6091 144.388H47.4372L52.1044 140.7L57.5998 143.184C60.6861 144.388 61.8153 145.743 61.8153 146.27V156.583C61.8153 157.186 62.4929 158.24 63.6973 158.24C64.9017 158.24 65.504 157.261 65.504 156.508V145.743C65.504 144.163 62.7186 141.528 61.4389 140.926L52.1044 136.71H51.4269L47.0608 140.022L42.9958 136.71H42.1677L33.3602 140.7C29.8974 142.281 28.8435 144.765 28.8435 145.743V156.508C28.7933 157.01 29.0692 158.164 30.5749 158.164C31.9298 158.164 32.4568 157.11 32.4568 156.508Z" fill="#516678"/>
<path fill-rule="evenodd" clip-rule="evenodd" d="M127.614 114.766C130.547 114.766 136.038 116.722 136.038 122.288C136.038 126.65 134.458 135.277 127.614 134.923C120.694 134.566 119.491 126.8 119.491 122.288C119.491 119.58 121.597 114.766 127.614 114.766ZM123.252 121.836C123.151 125.02 123.703 131.163 127.614 131.163C132.277 131.163 132.277 124.935 132.277 122.072V122.062C132.277 120.859 131.149 118.452 127.84 118.452C124.902 118.452 123.292 120.558 123.252 121.836Z" fill="#20A2DC"/>
<path d="M113.098 156.51V146.281C113.098 145.528 114.602 144.4 115.881 143.799L122.8 140.715L127.238 144.4H128.065L132.728 140.715L138.219 143.197C141.303 144.4 142.431 145.754 142.431 146.281V156.585C142.431 157.186 143.108 158.239 144.311 158.239C145.515 158.239 146.116 157.262 146.116 156.51V145.754C146.116 144.175 143.333 141.542 142.055 140.94L132.728 136.729H132.052L127.689 140.038L123.628 136.729H122.8L114 140.715C110.541 142.294 109.488 144.776 109.488 145.754V156.51C109.438 157.011 109.713 158.164 111.218 158.164C112.571 158.164 113.098 157.111 113.098 156.51Z" fill="#516678"/>
<path fill-rule="evenodd" clip-rule="evenodd" d="M48.729 43.3804C51.536 43.3804 56.7902 45.2517 56.7902 50.5779C56.7902 54.7525 55.2787 63.0085 48.729 62.6697C42.1072 62.3272 40.9557 54.8964 40.9557 50.5779C40.9557 47.9868 42.971 43.3804 48.729 43.3804ZM44.5545 50.146C44.4585 53.193 44.9863 59.071 48.729 59.071C53.1915 59.071 53.1915 53.1109 53.1915 50.3715V50.362C53.1915 49.2104 52.1119 46.9072 48.945 46.9072C46.1338 46.9072 44.593 48.9225 44.5545 50.146Z" fill="#20A2DC"/>
<path fill-rule="evenodd" clip-rule="evenodd" d="M111.995 77.589V73.5379C111.995 72.8182 113.435 71.7386 114.658 71.1628L121.28 68.2118L125.527 71.7386H126.318L130.781 68.2118L136.035 70.587C138.986 71.7386 140.066 73.0341 140.066 73.5379V83.3986C140.066 83.9744 140.713 84.982 141.865 84.982C143.017 84.982 143.592 84.0463 143.592 83.3266V73.0341C143.592 71.5226 140.929 69.0035 139.706 68.4277L130.781 64.3971H130.133L125.958 67.564L122.072 64.3971H121.28L112.859 68.2118C109.548 69.7233 108.54 72.0984 108.54 73.0341V74.1607C109.776 75.2157 110.931 76.3619 111.995 77.589Z" fill="#516678"/>
<path fill-rule="evenodd" clip-rule="evenodd" d="M34.8379 73.5379V83.3266C34.8379 83.9024 34.334 84.91 33.0385 84.91C31.599 84.91 31.3351 83.8064 31.3831 83.3266V73.0341C31.3831 72.0984 32.3908 69.7233 35.7016 68.2118L44.1227 64.3971H44.9144L48.8011 67.564L52.9757 64.3971H53.6234L62.5484 68.4277C63.7719 69.0035 66.435 71.5226 66.435 73.0341V74.2134C65.1711 75.2982 63.9917 76.4788 62.9082 77.744V73.5379C62.9082 73.0341 61.8286 71.7386 58.8776 70.587L53.6234 68.2118L49.161 71.7386H48.3693L44.1227 68.2118L37.501 71.1628C36.2774 71.7386 34.8379 72.8182 34.8379 73.5379Z" fill="#516678"/>
<path fill-rule="evenodd" clip-rule="evenodd" d="M125.887 43.3804C128.694 43.3804 133.948 45.2517 133.948 50.5779C133.948 54.7525 132.436 63.0085 125.887 62.6697C119.265 62.3272 118.113 54.8964 118.113 50.5779C118.113 47.9868 120.128 43.3804 125.887 43.3804ZM121.712 50.146C121.616 53.193 122.144 59.071 125.887 59.071C130.349 59.071 130.349 53.1109 130.349 50.3715V50.362C130.349 49.2104 129.269 46.9072 126.102 46.9072C123.291 46.9072 121.75 48.9225 121.712 50.146Z" fill="#20A2DC"/>
<rect x="15.912" y="156.268" width="143.033" height="4.26364" rx="2.13182" fill="#516678"/>
<rect x="161.158" y="156.268" width="7.15163" height="4.26364" rx="2.13182" fill="#20A2DC"/>
<rect x="6.71698" y="156.268" width="7.15163" height="4.26364" rx="2.13182" fill="#20A2DC"/>
<rect x="64.4409" y="164.454" width="45.6342" height="4.26364" rx="2.13182" fill="#20A2DC"/>
<rect x="72.7845" y="170.764" width="30.139" height="4.26364" rx="2.13182" fill="#20A2DC"/>
<rect x="83.1714" y="167.353" width="8.68413" height="4.26364" fill="#20A2DC"/>
<rect x="112.118" y="164.454" width="12.6005" height="4.26364" rx="2.13182" fill="#20A2DC"/>
<rect x="49.7971" y="164.454" width="12.6005" height="4.26364" rx="2.13182" fill="#20A2DC"/>
<rect x="170.353" y="156.268" width="4.25692" height="4.26364" rx="2.12846" fill="#20A2DC"/>
<rect x="0.24646" y="156.268" width="4.25692" height="4.26364" rx="2.12846" fill="#20A2DC"/>
</svg>
