<svg width="175" height="175" viewBox="0 0 175 175" fill="none" xmlns="http://www.w3.org/2000/svg">
<path fill-rule="evenodd" clip-rule="evenodd" d="M5.67407 146.218C5.67407 147.266 6.40778 149.467 8.29447 149.467H166.776C167.615 149.467 169.187 148.104 169.187 146.218V137.195C169.187 136.298 168.873 134.516 167.091 134.516H164.156L7.77039 134.516C6.19815 134.516 5.67407 136.088 5.67407 137.031V146.218ZM10.7053 139.547V142.482C10.7053 143.53 11.439 145.102 13.3257 145.102H161.745C162.584 145.102 164.156 144.264 164.156 142.377V139.547L10.7053 139.547Z" fill="#516678"/>
<path d="M13.4386 135.457H18.4697V33.3342C18.4697 31.154 20.042 30.8186 20.8805 30.8186H153.997C155.779 30.8186 156.408 32.4957 156.408 33.2294V126.969C156.408 128.358 157.534 129.484 158.923 129.484C160.313 129.484 161.439 128.358 161.439 126.969V32.3908C161.439 27.8838 156.722 25.6826 154.521 25.6826H20.5661C15.6397 25.6826 13.4386 29.9801 13.4386 32.3908V135.457Z" fill="#516678"/>
<path d="M26.8618 93.9252C24.0072 93.6397 23.2935 91.4274 23.2935 90.4015V38.8842C23.2935 36.5202 25.2115 35.7173 26.4158 35.7173H48.3608C51.6615 35.7173 53.2226 38.7949 53.2226 40.6237V42.7647H59.8686C60.27 42.7647 60.8053 43.0501 60.8053 43.8352C60.8053 44.6202 60.27 44.9057 59.8686 44.9057H52.1075C51.1798 44.9057 51.037 44.1325 51.0817 43.746V40.8021C51.0817 38.7057 49.0299 37.8583 48.0932 37.8583H26.6388C25.7467 37.8583 25.4791 38.5719 25.4791 38.8842V90.4015C25.4791 91.2489 26.386 91.6206 26.8172 91.695C27.4863 91.8103 28.1107 91.846 28.1107 92.8101C28.1107 93.7468 27.3971 93.9787 26.8618 93.9252Z" fill="#516678"/>
<path d="M30.9209 76.4405C30.0645 76.4405 29.8058 77.065 29.8058 77.4218L29.8058 96.646C29.8058 99.2509 32.482 99.7832 33.8201 99.7237L61.7197 96.0216C62.4147 95.5631 62.1161 93.8806 61.1845 93.8806L33.0172 97.6273C32.3393 97.8057 32.0508 97.3151 31.9913 97.0475V77.4218C31.9913 77.065 31.7772 76.4405 30.9209 76.4405Z" fill="#516678"/>
<path d="M89.5302 41.159C90.556 41.159 90.6899 41.7388 90.6899 42.1403V76.7269C91.3823 77.4957 92.4275 77.4218 92.8755 76.8384V42.1403C92.8755 39.9636 91.1804 38.9734 89.7978 38.9734H68.0758C64.329 38.9734 62.8125 42.3633 62.8125 43.8798V47.0913H33.151C30.6978 47.0913 29.8058 49.0984 29.8058 50.3027V68.9025C29.8058 69.1701 29.8656 70.0176 30.8316 70.0176C31.8575 70.0176 31.9913 69.1701 31.9913 68.9025V50.3027C31.9913 49.4553 32.6603 49.2769 33.151 49.2769H63.9276C64.6412 49.2769 64.9981 48.697 64.9981 48.2956V44.1028C64.9981 42.2295 66.8268 41.159 68.0758 41.159H89.5302Z" fill="#516678"/>
<circle cx="30.9208" cy="73.2736" r="1.2043" fill="#20A2DC"/>
<path d="M39.9379 70.5242C40.4598 70.5242 40.7642 70.1139 40.8512 69.9088C43.1825 79.2271 51.2171 81.293 54.943 81.1612C66.3382 80.7579 69.6437 71.1835 69.6437 66.6122C69.6437 66.0408 69.3131 65.5134 68.5129 65.5134C67.8605 65.5134 67.4255 65.865 67.4255 66.5243C67.4255 70.8758 64.0766 78.9634 54.943 78.9634C47.8536 78.9634 43.9827 73.3812 43.1564 70.3044C43.4608 70.6121 43.8088 70.5647 43.9827 70.5242C44.5481 70.3923 44.6931 69.9528 44.7656 69.733L44.7656 69.733C44.8961 69.2934 44.6351 68.8685 44.5047 68.6781L42.5475 65.3375C42.156 64.8101 41.1992 64.9859 41.0252 65.3375L39.1115 68.6781C38.8506 69.2495 38.7744 69.3813 38.8506 69.689C38.9919 70.2604 39.2855 70.5242 39.9379 70.5242Z" fill="#20A2DC"/>
<path d="M81.2942 66.2507C80.7659 66.2507 80.4578 66.661 80.3697 66.8661C78.0101 57.5478 69.8775 55.4819 66.1061 55.6137C54.5719 56.017 51.2261 65.5914 51.2261 70.1627C51.2261 70.7341 51.5607 71.2615 52.3708 71.2615C53.0311 71.2615 53.4713 70.9099 53.4713 70.2506C53.4713 65.8991 56.8612 57.8115 66.1061 57.8115C73.2819 57.8115 77.2 63.3937 78.0365 66.4705C77.7283 66.1628 77.3761 66.2102 77.2 66.2507C76.6277 66.3826 76.481 66.8221 76.4076 67.0419L76.4076 67.0419C76.2755 67.4815 76.5397 67.9064 76.6717 68.0968L78.6528 71.4374C79.049 71.9648 80.0175 71.789 80.1936 71.4374L82.1307 68.0968C82.3948 67.5254 82.4718 67.3936 82.3948 67.0859C82.2517 66.5145 81.9546 66.2507 81.2942 66.2507Z" fill="#20A2DC"/>
<path fill-rule="evenodd" clip-rule="evenodd" d="M115.051 58.6603C114.23 58.6153 112.565 58.012 112.47 55.9584C112.374 53.9047 114.087 53.0735 114.932 53.0732L123.192 53.0244L123.18 45.0966C123.211 44.1201 123.861 42.194 126.217 42.3018C127.012 42.3216 128.654 42.8655 128.858 44.8828L128.855 53.0371L136.752 53.0489C137.663 53.0233 139.507 53.5551 139.59 55.8866C139.58 56.7624 139.03 58.5415 136.916 58.6511L128.852 58.6847L128.819 66.537C128.809 67.4933 128.193 69.4093 125.813 69.4224C124.952 69.3573 123.225 68.6896 123.202 66.5393L123.205 58.6871L115.051 58.6603ZM114.961 57.6033C114.477 57.5733 113.587 57.1177 113.527 56.0184C113.452 54.6443 114.479 54.1002 115.007 54.1151L123.705 54.1114C123.886 54.1114 124.258 53.9934 124.294 53.5223L124.298 44.9452C124.328 44.4217 124.721 43.3685 126.05 43.3438C126.523 43.3134 127.539 43.5939 127.816 44.9588L127.798 53.5812C127.803 53.7473 127.909 54.0795 128.296 54.0793L137.039 54.0907C137.542 54.1509 138.552 54.5945 138.563 55.8871C138.575 57.1797 137.4 57.5939 136.811 57.6394L128.264 57.6128C128.108 57.628 127.79 57.7489 127.766 58.1114L127.792 66.8092C127.747 67.4284 127.202 68.4856 125.874 68.3654C124.545 68.2451 124.243 67.1782 124.259 66.6597L124.262 58.1128C124.242 57.9417 124.114 57.6025 123.764 57.6147L114.961 57.6033Z" fill="#20A2DC"/>
<path fill-rule="evenodd" clip-rule="evenodd" d="M117.805 38.7758C118.42 39.0629 119.366 39.2687 119.573 38.1607C119.698 37.4967 120.881 35.3159 122.803 35.239H128.954C130.415 35.239 132.046 36.9945 132.106 37.7763C132.166 38.5581 132.644 39.5601 134.182 38.6989C134.869 38.3145 137.104 38.007 138.103 38.9296L142.793 43.6197C143.255 44.0811 143.86 46.4782 143.101 47.541C142.686 48.1225 142.409 49.0018 143.947 49.5401C144.716 49.8476 146.484 51.0778 146.484 52.6924V58.3052C146.484 59.151 145.331 61.7651 144.024 61.9958C143.101 62.2265 142.178 62.7647 143.101 64.5331C143.409 64.9944 143.716 66.9166 142.87 67.7623L138.18 72.6063C137.334 73.452 135.258 73.6827 134.028 72.8369C133.567 72.5806 132.567 72.3448 132.26 73.452C131.875 74.836 130.03 76.4506 128.723 76.4506H123.264C122.188 76.4506 119.986 75.2204 119.727 73.9902C119.452 72.6831 118.343 72.3756 117.497 72.8369C116.734 73.2534 115.191 73.452 114.038 72.6831C112.5 71.6067 109.639 68.8751 109.04 67.9161C108.271 66.6859 108.014 65.0713 108.809 63.7642C109.418 62.7647 108.732 62.4033 107.887 62.1496C107.041 61.8958 105.272 60.2274 105.272 58.7665V53C105.272 51.8467 106.426 49.8476 108.425 49.3094C108.861 49.1812 109.563 48.7097 108.886 47.8485C108.809 47.7716 107.579 45.6957 108.886 43.9273C110.219 42.3383 112.961 39.3909 113.73 38.9296C114.576 38.4221 115.96 37.9147 117.805 38.7758ZM122.576 39.9848V37.9138C122.576 37.5686 122.697 37.0509 123.525 37.0509H128.185C128.672 37.0509 129.048 37.2642 129.048 37.9138V39.9848C130.428 40.1573 133.5 40.8822 134.743 42.4009L136.382 40.7614C136.814 40.3299 137.159 40.4162 137.763 41.0203L140.87 44.1267C141.201 44.4577 141.56 44.9896 140.87 45.5937L139.403 46.9743C140.179 47.9235 141.732 50.3741 141.732 52.5832H143.89C144.235 52.5832 144.839 52.6177 144.839 53.4461V58.0195C144.839 58.4509 144.666 59.1413 143.89 59.1413H141.732C141.416 60.637 140.352 63.8527 139.316 64.7502L140.956 66.3034C141.215 66.5623 141.301 67.08 140.783 67.684L137.504 70.9631C137.245 71.222 136.728 71.3945 136.296 70.9631L134.743 69.3236C133.851 70.0139 131.481 71.4463 129.134 71.6534V73.8107C129.134 74.1558 128.961 74.6736 128.185 74.6736H123.266C123.007 74.6736 122.576 74.4492 122.576 73.897V71.6534C121.31 71.4808 118.417 70.7732 116.967 69.3236L115.414 70.8768C115.069 71.222 114.378 71.1357 113.947 70.7042L110.84 67.5977C110.582 67.3389 110.323 66.6486 110.754 66.1308L112.307 64.7502C111.617 63.7722 110.185 61.2813 109.978 59.1413H107.82C107.389 59.1413 106.871 58.7961 106.871 58.1058V53.3598C106.871 52.9284 107.216 52.4969 107.907 52.4969L109.978 52.5832C110.208 51.3176 110.979 48.424 112.221 46.9743L110.754 45.4211C110.495 45.1622 110.323 44.7307 110.927 44.1267L114.033 40.934C114.292 40.6751 114.982 40.3299 115.586 40.934L116.967 42.3146C117.945 41.5955 120.436 40.1228 122.576 39.9848Z" fill="#516678"/>
<path fill-rule="evenodd" clip-rule="evenodd" d="M71.8726 79.4246C68.0862 79.4246 66.7769 82.7975 66.5956 84.4839V131.269C66.9003 135.447 70.0954 136.492 71.655 136.492H97.7133V137.937H120.344V136.492H146.24C150.418 136.274 151.426 132.956 151.408 131.324V84.5383C151.364 80.6214 147.908 79.4971 146.185 79.4246H71.8726ZM71.7637 82.1446C69.7618 82.1446 69.2975 83.813 69.3157 84.6471V128.44H148.742V84.8647C148.742 82.5581 146.82 82.0902 145.859 82.1446H71.7637ZM69.2614 131.215C69.2251 131.995 69.6313 133.565 71.5462 133.826H146.403C147.092 133.808 148.546 133.26 148.851 131.215H69.2614Z" fill="#516678"/>
<path fill-rule="evenodd" clip-rule="evenodd" d="M74.2118 111.304C74.2118 104.694 79.5702 99.3354 86.1801 99.3354C90.7447 99.3354 94.6086 102.124 96.5629 106.027H99.4813H105.438H117.352C117.661 105.954 118.527 106.038 119.528 106.952L122.684 109.236C123.155 109.78 123.815 111.206 122.684 112.555L119.528 115.384C118.404 116.417 115.785 118.104 114.306 116.581L112.728 115.003C111.84 116.145 109.453 117.636 107.451 114.894C106.563 116.399 104.231 118.604 102.011 115.384C101.503 116.055 100.281 117.353 99.4541 117.179H96.6357C94.6805 120.853 90.7694 123.272 86.1801 123.272C79.5702 123.272 74.2118 117.914 74.2118 111.304ZM96.2988 114.459V114.459H99.0733L101.902 111.685C102.174 111.413 102.773 111.249 103.262 111.685L105.057 113.643L106.526 111.685C106.798 111.304 107.614 110.977 108.267 111.685L110.062 113.752L112.075 111.902C112.347 111.63 113 111.358 113.49 111.902L115.72 114.296H116.591L120.562 110.923L117.298 108.692H105.411H99.4677H96.496H96.1357L96.1356 108.693C96.1229 108.693 96.1102 108.693 96.0976 108.692H96.0268L96.0271 108.692C95.3619 108.685 94.7532 108.596 94.3404 107.822L93.7964 106.734C92.4208 103.992 89.8585 101.947 86.4307 101.947C81.1245 101.947 76.8231 106.185 76.8231 111.413C76.8231 116.64 80.9284 120.498 86.2345 120.498C89.3374 120.498 91.7835 119.138 93.4155 117.125C93.6001 116.862 93.8816 116.433 94.1461 116.03L94.1461 116.03C94.3753 115.681 94.5916 115.351 94.7212 115.166C95.102 114.568 95.5372 114.459 96.2988 114.459Z" fill="#20A2DC"/>
<path fill-rule="evenodd" clip-rule="evenodd" d="M85.4185 116.744C88.423 116.744 90.8587 114.308 90.8587 111.304C90.8587 108.299 88.423 105.864 85.4185 105.864C82.414 105.864 79.9784 108.299 79.9784 111.304C79.9784 114.308 82.414 116.744 85.4185 116.744ZM85.4728 114.024C87.0051 114.024 88.2473 112.782 88.2473 111.25C88.2473 109.717 87.0051 108.475 85.4728 108.475C83.9405 108.475 82.6983 109.717 82.6983 111.25C82.6983 112.782 83.9405 114.024 85.4728 114.024Z" fill="#20A2DC"/>
<path fill-rule="evenodd" clip-rule="evenodd" d="M111.967 103.307H114.578V102.001C114.578 100.804 115.231 99.3355 117.189 99.3355H138.623C139.766 99.3355 141.126 100.097 141.126 102.164V120.552C141.126 121.531 140.691 123.218 138.243 123.218H117.135C116.391 123.236 114.85 122.772 114.632 120.77V119.518C114.106 119.41 112.946 119.051 112.511 118.485C112.42 118.612 112.184 118.855 111.967 118.811V121.042C112.075 122.656 113.261 125.883 117.135 125.883H138.623C140.255 125.883 143.846 124.85 143.846 120.552V102.001C143.846 100.26 142.323 96.7242 138.895 96.7242H137.862V89.7064C137.862 88.1288 136.284 84.7559 132.966 84.7559H122.738C121.215 84.7559 117.951 86.1703 117.951 89.7064V96.7242H116.808C115.122 96.7242 111.967 98.2474 111.967 102.001V103.307ZM120.617 89.9241V96.7242H135.196C135.196 96.7242 135.178 92.1364 135.196 89.9241C135.202 89.1624 134.489 87.4216 132.694 87.4216H123.01C122.194 87.4216 120.617 87.9656 120.617 89.9241Z" fill="#516678"/>
<path fill-rule="evenodd" clip-rule="evenodd" d="M129.785 109.551L128.81 108.007C128.527 107.559 128.317 106.787 129.263 106.19C129.86 105.813 130.714 105.622 131.248 106.467L132.332 108.184L133.501 106.347C133.786 105.9 134.395 105.381 135.338 105.982C135.934 106.361 136.471 107.052 135.934 107.896L134.88 109.551H136.711C137.24 109.551 138.006 109.787 138.006 110.905C138.006 111.611 137.711 112.435 136.711 112.435H135.016L135.962 113.932C136.307 114.479 136.341 115.305 135.422 115.943C134.938 116.279 134.12 116.417 133.617 115.621L132.322 113.569L131.193 115.343C130.845 115.889 130.113 116.272 129.143 115.712C128.633 115.418 128.159 114.737 128.665 113.943L129.625 112.435H127.883C127.236 112.435 126.519 112.023 126.47 110.905C126.445 110.316 126.765 109.551 127.706 109.551H129.785Z" fill="#20A2DC"/>
</svg>
