<svg width="175" height="176" viewBox="0 0 175 176" fill="none" xmlns="http://www.w3.org/2000/svg">
<path d="M14.8071 77.8873L13.6698 78.4569L15.281 80.5452H12.8169V81.5893L15.281 81.1147L13.6698 83.4877L14.8071 84.0573L15.7548 81.5893L16.8921 84.0573L18.0294 83.2979L16.4183 81.1147L19.0719 81.5893V80.5452H16.4183L18.0294 78.4569L17.1764 77.8873L15.7548 80.1655L14.8071 77.8873Z" fill="#20A2DC"/>
<path d="M44.8776 28.3451L43.7403 28.9146L45.3514 31.0029H42.8873V32.0471L45.3514 31.5725L43.7403 33.9455L44.8776 34.515L45.8253 32.0471L46.9626 34.515L48.0998 33.7557L46.4887 31.5725L49.1423 32.0471V31.0029H46.4887L48.0998 28.9146L47.2469 28.3451L45.8253 30.6232L44.8776 28.3451Z" fill="#20A2DC"/>
<path d="M139.279 30.0704L138.142 30.64L139.753 32.7283H137.289V33.7724L139.753 33.2978L138.142 35.6709L139.279 36.2404L140.227 33.7724L141.364 36.2404L142.501 35.481L140.89 33.2978L143.544 33.7724V32.7283H140.89L142.501 30.64L141.648 30.0704L140.227 32.3486L139.279 30.0704Z" fill="#20A2DC"/>
<path d="M114.231 26.6198L113.093 27.1893L114.705 29.2776H112.24V30.3217L114.705 29.8471L113.093 32.2202L114.231 32.7897L115.178 30.3217L116.316 32.7897L117.453 32.0303L115.842 29.8471L118.495 30.3217V29.2776H115.842L117.453 27.1893L116.6 26.6198L115.178 28.8979L114.231 26.6198Z" fill="#20A2DC"/>
<path d="M88.7131 2.95776L88.1962 3.23815L88.9285 4.26623H87.8085V4.78027L88.9285 4.54662L88.1962 5.71489L88.7131 5.99528L89.1439 4.78027L89.6608 5.99528L90.1778 5.62143L89.4455 4.54662L90.6517 4.78027V4.26623H89.4455L90.1778 3.23815L89.7901 2.95776L89.1439 4.07931L88.7131 2.95776Z" fill="#20A2DC"/>
<path fill-rule="evenodd" clip-rule="evenodd" d="M19.0352 30.6831C20.2914 30.6831 21.3097 29.6631 21.3097 28.405C21.3097 27.1468 20.2914 26.1268 19.0352 26.1268C17.779 26.1268 16.7606 27.1468 16.7606 28.405C16.7606 29.6631 17.779 30.6831 19.0352 30.6831ZM19.0052 29.1244C19.4185 29.1244 19.7534 28.7889 19.7534 28.375C19.7534 27.9611 19.4185 27.6256 19.0052 27.6256C18.592 27.6256 18.257 27.9611 18.257 28.375C18.257 28.7889 18.592 29.1244 19.0052 29.1244Z" fill="#516678"/>
<path fill-rule="evenodd" clip-rule="evenodd" d="M34.8098 64.6971C36.066 64.6971 37.0843 63.6772 37.0843 62.419C37.0843 61.1608 36.066 60.1409 34.8098 60.1409C33.5536 60.1409 32.5352 61.1608 32.5352 62.419C32.5352 63.6772 33.5536 64.6971 34.8098 64.6971ZM34.7798 63.1384C35.193 63.1384 35.528 62.8029 35.528 62.389C35.528 61.9752 35.193 61.6396 34.7798 61.6396C34.3666 61.6396 34.0316 61.9752 34.0316 62.389C34.0316 62.8029 34.3666 63.1384 34.7798 63.1384Z" fill="#516678"/>
<path fill-rule="evenodd" clip-rule="evenodd" d="M79.0292 34.1138C81.2423 34.1138 83.0363 32.3169 83.0363 30.1003C83.0363 27.8838 81.2423 26.0869 79.0292 26.0869C76.8161 26.0869 75.0221 27.8838 75.0221 30.1003C75.0221 32.3169 76.8161 34.1138 79.0292 34.1138ZM78.9764 31.3677C79.7044 31.3677 80.2945 30.7766 80.2945 30.0475C80.2945 29.3183 79.7044 28.7273 78.9764 28.7273C78.2484 28.7273 77.6583 29.3183 77.6583 30.0475C77.6583 30.7766 78.2484 31.3677 78.9764 31.3677Z" fill="#516678"/>
<path fill-rule="evenodd" clip-rule="evenodd" d="M157.921 57.7865C159.243 57.7865 160.314 56.7134 160.314 55.3897C160.314 54.066 159.243 52.9929 157.921 52.9929C156.6 52.9929 155.528 54.066 155.528 55.3897C155.528 56.7134 156.6 57.7865 157.921 57.7865ZM157.89 56.1463C158.325 56.1463 158.677 55.7934 158.677 55.3579C158.677 54.9225 158.325 54.5695 157.89 54.5695C157.455 54.5695 157.103 54.9225 157.103 55.3579C157.103 55.7934 157.455 56.1463 157.89 56.1463Z" fill="#516678"/>
<path fill-rule="evenodd" clip-rule="evenodd" d="M153.084 17.8569C154.406 17.8569 155.477 16.7839 155.477 15.4601C155.477 14.1364 154.406 13.0634 153.084 13.0634C151.763 13.0634 150.691 14.1364 150.691 15.4601C150.691 16.7839 151.763 17.8569 153.084 17.8569ZM153.053 16.2168C153.487 16.2168 153.84 15.8638 153.84 15.4284C153.84 14.9929 153.487 14.6399 153.053 14.6399C152.618 14.6399 152.266 14.9929 152.266 15.4284C152.266 15.8638 152.618 16.2168 153.053 16.2168Z" fill="#516678"/>
<path fill-rule="evenodd" clip-rule="evenodd" d="M63.1042 104.89C70.9142 104.89 77.2454 98.5587 77.2454 90.7487C77.2454 82.9387 70.9142 76.6074 63.1042 76.6074C55.2942 76.6074 48.9629 82.9387 48.9629 90.7487C48.9629 98.5587 55.2942 104.89 63.1042 104.89ZM63.1841 100.895C68.7437 100.895 73.2507 96.3883 73.2507 90.8286C73.2507 85.269 68.7437 80.762 63.1841 80.762C57.6244 80.762 53.1174 85.269 53.1174 90.8286C53.1174 96.3883 57.6244 100.895 63.1841 100.895Z" fill="#20A2DC"/>
<path d="M54.3957 75.5688C55.4183 74.674 57.4317 74.0242 58.3105 73.8111V53.5979C58.3105 50.8495 60.7606 49.8429 61.9856 49.6831H142.279C145.219 50.0027 145.901 52.4794 145.875 53.6778V111.761C145.875 115.084 143.318 115.915 142.04 115.915H118.551C118.998 117.002 118.737 119.031 118.551 119.91H142.04C148.431 119.463 149.869 114.291 149.789 111.761V53.6778C149.47 47.2223 144.436 45.7683 141.96 45.8482H61.9856C56.425 45.976 54.6087 50.7483 54.3957 53.1185V75.5688Z" fill="#516678"/>
<path d="M53.7565 105.449C52.4782 104.73 51.0401 103.532 50.1613 102.413C42.0121 105.449 37.7777 111.521 36.2597 114.717C33.2237 122.28 27.1518 137.471 27.1518 137.726C25.7936 140.922 25.2343 143.106 25.1544 144.278C24.942 147.394 27.2317 151.868 31.546 151.868C34.9814 151.868 37.1386 149.711 38.0973 148.352C38.9761 147.234 41.0534 141.881 42.2518 138.925V151.069C42.2518 155.223 44.7285 157.141 46.0068 157.141H78.4438C82.5983 157.396 83.85 152.933 83.9565 150.669V134.69L87.9512 141.561C88.9899 143.159 90.733 144.278 92.9846 144.278C95.5412 144.278 97.1391 143.479 98.0978 142.28L112.559 123.425C114.636 121.188 116.154 115.516 112.798 112.64C108.313 108.796 104.25 111.601 102.732 113.359L94.7423 123.585C91.2269 117.274 87.0724 110.882 83.7968 107.127C82.4223 105.551 78.1243 103.345 75.9671 102.573C74.6249 104.49 72.9045 105.236 72.2121 105.449C75.4878 106.168 79.2428 108.245 80.6809 109.524C81.4898 110.243 90.0285 123.638 94.3428 130.376L106.007 115.516C106.726 115.01 108.516 114.301 109.922 115.516C111.328 116.73 110.987 118.578 110.641 119.351L96.1804 138.445C94.199 141.066 92.3455 140.842 91.3068 139.644L79.9618 120.389V151.069C79.3866 154.073 77.059 154.93 75.9671 154.984H49.9216C46.7898 154.664 46.1666 152.241 46.2465 151.069V119.351L35.7804 144.278C35.0613 145.876 33.783 148.352 31.1465 147.873C28.5378 147.399 28.8296 143.798 29.3089 142.68L39.2158 117.993C42.4915 109.923 50.1613 106.195 53.7565 105.449Z" fill="#516678"/>
<path fill-rule="evenodd" clip-rule="evenodd" d="M112.27 56.294C113.188 55.7298 115.052 54.94 117.143 56.1529L134.621 66.449C135.751 67.0837 137.199 68.1768 137.199 70.7861V91.9071C137.175 92.7299 136.733 94.6152 135.151 95.5742L116.931 106.293C116.166 106.681 114.24 107.224 112.658 106.293L94.5793 95.6095C93.9319 95.2687 92.5948 94.051 92.4254 91.9071V70.504C92.4254 69.6107 92.9338 67.5562 94.9677 66.4843L112.27 56.294ZM112.442 57.9543C113.298 57.4275 115.036 56.6901 116.985 57.8226L133.281 67.4357C134.335 68.0283 135.685 69.0489 135.685 71.4851V91.2052C135.663 91.9734 135.25 93.7336 133.775 94.6291L116.787 104.637C116.074 104.999 114.279 105.506 112.804 104.637L95.948 94.662C95.3444 94.3437 94.0978 93.2068 93.9398 91.2052V71.2217C93.9398 70.3877 94.4138 68.4695 96.3101 67.4686L112.442 57.9543Z" fill="#516678"/>
<path d="M100.938 68.7271C100.641 68.1345 100.905 67.7394 101.267 67.509L113.119 60.5954C114.666 59.8053 115.884 60.2333 116.411 60.5954L128.394 67.509C128.757 67.7723 129.013 68.2003 128.724 68.7271C128.434 69.2538 127.868 69.0892 127.538 68.9246L115.917 62.1756C115.094 61.6818 114.37 61.7477 113.909 62.011L102.09 68.9246C101.629 69.1551 101.168 69.188 100.938 68.7271Z" fill="#20A2DC"/>
<path d="M100.862 93.5643C100.566 94.1569 100.829 94.552 101.192 94.7824L113.043 101.696C114.591 102.486 115.809 102.058 116.336 101.696L128.319 94.7824C128.681 94.519 128.938 94.0911 128.648 93.5643C128.359 93.0376 127.792 93.2022 127.463 93.3668L115.842 100.116C115.019 100.61 114.294 100.544 113.834 100.28L102.015 93.3668C101.554 93.1363 101.093 93.1034 100.862 93.5643Z" fill="#20A2DC"/>
<path d="M128.056 76.2672C128.964 76.2672 129.803 76.4787 130.56 76.9078H130.559C131.321 77.3346 131.923 77.9308 132.36 78.6891C132.811 79.4485 133.032 80.3019 133.032 81.235C133.032 82.1756 132.812 83.0361 132.362 83.8033C131.924 84.5561 131.32 85.1488 130.557 85.5758C129.794 86.0032 128.957 86.2155 128.056 86.2155C127.156 86.2154 126.318 86.0032 125.555 85.5758C124.793 85.149 124.186 84.5566 123.74 83.8053L123.739 83.8033C123.289 83.0361 123.068 82.1756 123.068 81.235C123.068 80.3019 123.289 79.4485 123.74 78.6891C124.185 77.9304 124.793 77.334 125.555 76.9069C126.318 76.4795 127.156 76.2672 128.056 76.2672ZM100.118 76.3922C101.102 76.3922 101.99 76.5844 102.765 76.985C103.55 77.3859 104.161 77.9658 104.587 78.7184H104.588C105.023 79.4644 105.232 80.3213 105.232 81.2721C105.232 82.2225 105.022 83.079 104.588 83.8248C104.161 84.5628 103.549 85.1325 102.766 85.5328L102.767 85.5338C101.991 85.9352 101.103 86.1276 100.118 86.1276H96.5592V76.3922H100.118ZM111.624 76.3795V78.8063H108.301V79.9967H111.248V82.3854H108.301V83.7008H111.624V86.1276H105.546V76.3795H111.624ZM115.042 76.3922L115.172 76.6949L117.495 82.1178L119.819 76.6949L119.949 76.3922H122.759V86.1276H120.004V82.4694L118.622 85.818L118.494 86.1276H116.497L116.369 85.819L114.973 82.4547V86.1276H112.218V76.3922H115.042ZM128.056 78.8444C127.608 78.8444 127.228 78.9412 126.903 79.1256L126.904 79.1266C126.592 79.3085 126.343 79.5725 126.158 79.9352L126.156 79.9391C125.974 80.2891 125.874 80.7158 125.874 81.235C125.874 81.7539 125.974 82.1871 126.158 82.5475C126.342 82.9074 126.589 83.1755 126.9 83.3658C127.226 83.5515 127.606 83.651 128.056 83.651C128.506 83.651 128.88 83.5525 129.195 83.3698C129.509 83.1791 129.758 82.9097 129.943 82.5475C130.127 82.1871 130.227 81.7539 130.227 81.235C130.227 80.7159 130.127 80.289 129.945 79.9391L129.943 79.9352C129.758 79.5725 129.509 79.3085 129.197 79.1266C128.882 78.9432 128.507 78.8444 128.056 78.8444ZM99.3141 83.6383H100.055C100.883 83.6383 101.451 83.4153 101.834 83.0338C102.217 82.6516 102.439 82.0882 102.439 81.2721C102.439 80.4567 102.217 79.8873 101.831 79.4957L101.828 79.4928C101.445 79.0978 100.879 78.8688 100.055 78.8688H99.3141V83.6383Z" fill="#20A2DC" stroke="#516678"/>
<rect x="15.912" y="156.268" width="143.033" height="4.26364" rx="2.13182" fill="#516678"/>
<rect x="161.158" y="156.268" width="7.15163" height="4.26364" rx="2.13182" fill="#20A2DC"/>
<rect x="6.71698" y="156.268" width="7.15163" height="4.26364" rx="2.13182" fill="#20A2DC"/>
<rect x="64.4409" y="164.454" width="45.6342" height="4.26364" rx="2.13182" fill="#20A2DC"/>
<rect x="72.7845" y="170.764" width="30.139" height="4.26364" rx="2.13182" fill="#20A2DC"/>
<rect x="83.1713" y="167.353" width="8.68413" height="4.26364" fill="#20A2DC"/>
<rect x="112.118" y="164.454" width="12.6005" height="4.26364" rx="2.13182" fill="#20A2DC"/>
<rect x="49.7971" y="164.454" width="12.6005" height="4.26364" rx="2.13182" fill="#20A2DC"/>
<rect x="170.353" y="156.268" width="4.25692" height="4.26364" rx="2.12846" fill="#20A2DC"/>
<rect x="0.24646" y="156.268" width="4.25692" height="4.26364" rx="2.12846" fill="#20A2DC"/>
</svg>
