<svg width="175" height="175" viewBox="0 0 175 175" fill="none" xmlns="http://www.w3.org/2000/svg">
<path fill-rule="evenodd" clip-rule="evenodd" d="M53.9194 39.3129C53.7244 29.5623 62.722 25.933 67.2452 25.3371C68.9354 17.5366 80.8961 15.749 86.6652 15.8302C111.757 16.9353 117.055 31.9458 116.567 39.3129C116.697 42.2381 115.484 46.653 114.861 48.4948C116.811 50.5099 117.19 54.9139 117.136 56.864C116.941 67.1347 112.396 68.9981 110.148 68.646C109.043 72.5463 103.241 80.7259 100.479 84.3282C99.1785 87.6434 99.6118 90.3682 99.991 91.3162L110.148 97.2478C126.225 99.0294 133.949 108.728 137.217 118.12H132.904C127.996 105.772 116.513 101.648 109.417 101.31L97.5413 118.12H92.6199L105.841 99.4417L101.291 96.6791L94.0594 105.942C93.5718 106.511 92.7593 106.186 92.4343 105.942L84.7151 99.9293L77.1583 105.942C76.5083 106.43 75.777 106.267 75.5332 105.942L68.2203 96.7603L63.5888 99.4417L76.8802 118.12H71.8517L59.851 101.31C46.5547 102.761 39.7203 109.933 36.5555 118.12H32.2472C37.3458 103.075 51.5131 97.8819 59.3635 97.2478L69.5204 91.3162C70.4305 90.0161 69.7371 86.1158 69.2766 84.3282C65.8314 81.4031 61.0699 72.6546 59.1198 68.646C53.9194 68.646 52.5381 63.0394 52.4569 56.864C52.3918 51.9237 54.3257 48.6844 55.3008 47.6822C54.1307 45.1471 53.8923 41.0464 53.9194 39.3129ZM79.3761 118.12H83.8531C83.8209 117.829 83.7516 117.585 83.6587 117.399L81.221 111.873L84.715 108.704L88.3715 111.873L85.9338 117.399C85.8008 117.665 85.7137 117.903 85.6611 118.12H90.0601C90.1464 117.791 90.283 117.443 90.4842 117.074L92.4343 112.605C92.4554 112.557 92.478 112.508 92.5014 112.456C92.8371 111.715 93.3458 110.592 92.4343 109.924L85.9339 104.317C85.4464 103.83 84.4713 103.423 83.4962 104.317L77.1583 109.924C76.5083 110.492 76.2645 111.061 76.9958 112.605L78.8647 117.074L78.9051 117.149L78.9414 117.216L78.9415 117.216C79.1045 117.516 79.2616 117.806 79.3761 118.12ZM70.4954 32L67.8952 29.156C59.1847 30.3911 57.6029 36.9836 57.9009 40.1255C57.9009 44.5132 59.9052 48.7927 61.1511 50.6886C61.0698 41.0193 67.164 34.4376 70.4954 32ZM70.9829 26.5559C71.1996 24.3078 74.5419 19.8117 86.1776 19.8117C100.722 19.8117 112.423 27.2059 112.585 38.8254C112.694 43.2673 111.367 52.0374 105.191 51.5824C102.645 51.447 97.0658 49.876 90.4841 44.6757C86.3401 41.4797 78.4584 34.7626 77.3208 33.3C75.4249 31.4041 71.503 27.4009 70.9829 26.5559ZM65.1326 51.0135C64.7425 42.628 70.4412 36.7939 73.3393 34.9251C100.521 62.3837 109.358 55.0491 111.871 52.9641C112.303 52.6058 112.548 52.4025 112.667 52.5574C113.317 53.4024 112.938 58.8682 112.667 61.4954C112.017 65.7207 109.254 64.7727 107.954 63.7706C107.791 65.1519 97.6346 89.2034 84.5525 89.1222C74.0869 89.0572 64.7534 72.194 61.3948 63.7706C60.0297 64.6156 59.2009 64.6644 58.9572 64.5831C56.9837 64.2674 56.6974 60.8073 56.4591 57.9282L56.4383 57.6765C56.2433 55.3363 56.8445 52.8553 57.1696 51.9073C58.1988 53.5325 60.7285 56.7664 62.6136 56.7014C64.4988 56.6364 65.0784 55.2659 65.1326 54.5888C65.0784 53.4512 65.0026 51.1436 65.1326 51.0135ZM73.9081 88.8787C73.9623 90.3954 73.6156 93.6727 71.7955 94.6478L76.6708 101.067L83.6587 95.5416C84.1462 95.1353 84.9588 94.8915 85.8526 95.5416L92.7593 101.067L97.6346 94.729C96.8762 94.1873 95.3919 92.2589 95.5219 88.8787C94.1406 90.2871 90.0616 93.1039 84.7963 93.1039C79.531 93.1039 75.3436 90.2871 73.9081 88.8787Z" fill="#516678"/>
<path d="M72.6625 59.6097C72.6625 60.5009 73.5895 61.313 74.1193 61.313H78.6826C79.0799 61.313 80.0732 60.5478 80.0732 59.6097C80.0732 58.6716 79.1461 57.9065 78.6826 57.9065H74.1193C73.5895 57.9065 72.6625 58.7186 72.6625 59.6097Z" fill="#20A2DC"/>
<path d="M89.5039 59.6097C89.5039 60.5009 90.431 61.313 90.9607 61.313H95.524C95.9213 61.313 96.9146 60.5478 96.9146 59.6097C96.9146 58.6716 95.9876 57.9065 95.524 57.9065H90.9607C90.431 57.9065 89.5039 58.7186 89.5039 59.6097Z" fill="#20A2DC"/>
<path d="M84.8339 81.8778C78.986 82.0999 75.3371 77.2394 74.0787 75.759C72.9396 73.9517 75.2704 72.7989 76.3211 74.3346C77.2834 75.7411 79.6522 78.8387 84.6118 79.2202C88.6091 79.5277 92.135 75.7651 93.4206 74.3347C94.3684 73.2801 96.2526 73.9517 95.5714 75.759C93.5727 78.0537 90.6818 81.6558 84.8339 81.8778Z" fill="#20A2DC"/>
<path d="M81.0677 69.5275C81.0677 70.4187 81.9948 71.2307 82.5246 71.2307H87.0879C87.4852 71.2307 88.4785 70.4656 88.4785 69.5275C88.4785 68.5894 87.5514 67.8242 87.0879 67.8242H82.5246C81.9948 67.8242 81.0677 68.6363 81.0677 69.5275Z" fill="#516678"/>
<path d="M98.1664 126.396V121.45H27.3818C20.6185 121.45 19.71 126.8 19.71 129.222V150.32C19.71 157.285 24.8581 158.396 27.3818 158.396H99.5394C98.673 158.081 98.081 155.115 97.7713 153.564L97.7483 153.449H27.3818C24.6563 153.449 24.6563 151.531 24.6563 150.32V129.222C24.6563 126.901 26.1704 126.396 27.3818 126.396H98.1664Z" fill="#516678"/>
<path fill-rule="evenodd" clip-rule="evenodd" d="M102.098 116.313V152.813C102.156 154.933 103.596 159.172 108.893 159.172H147.919C150.358 159.172 155.062 157.953 155.062 152.465V127.115C155.062 125.024 154.016 120.93 148.79 120.93H114.468C112.029 120.93 107.586 119.885 106.366 116.662C106.105 115.616 105.495 114.658 104.189 114.658C103.492 114.658 102.098 114.919 102.098 116.313ZM106.192 122.759C107.325 123.572 110.6 125.199 114.642 125.199H148.441C149.4 125.199 150.793 125.46 150.793 126.854V152.464C150.793 153.423 150.445 154.904 148.267 154.904H108.719C107.847 154.904 106.192 154.303 106.192 152.56V122.759Z" fill="#516678"/>
<path d="M145.273 150.108H112.055C111.516 150.15 110.425 149.921 110.375 148.678C110.326 147.434 111.309 147.082 111.806 147.061H145.584C145.999 147.102 146.828 147.484 146.828 148.678C146.828 149.872 145.792 150.129 145.273 150.108Z" fill="#20A2DC"/>
<path d="M145.273 144.443H112.055C111.516 144.484 110.425 144.256 110.375 143.012C110.326 141.768 111.309 141.416 111.806 141.395H145.584C145.999 141.437 146.828 141.818 146.828 143.012C146.828 144.206 145.792 144.463 145.273 144.443Z" fill="#20A2DC"/>
<path d="M145.273 138.778H112.055C111.516 138.819 110.425 138.591 110.375 137.347C110.326 136.104 111.309 135.751 111.806 135.73H145.584C145.999 135.772 146.828 136.153 146.828 137.347C146.828 138.541 145.792 138.798 145.273 138.778Z" fill="#20A2DC"/>
<path d="M145.273 133.113H112.055C111.516 133.154 110.425 132.926 110.375 131.683C110.326 130.439 111.309 130.086 111.806 130.066H145.584C145.999 130.107 146.828 130.489 146.828 131.683C146.828 132.877 145.792 133.134 145.273 133.113Z" fill="#20A2DC"/>
<path d="M78.1852 135.771C79.3634 135.825 79.7918 134.812 79.8588 134.299C80.2872 131.3 82.4918 131.487 83.5405 131.956C85.5488 133.227 84.3438 135.024 83.5405 135.637C81.1307 137.476 80.6844 139.654 80.6621 140.792V143.402C80.6621 143.938 81.2913 144.741 82.2017 144.741C83.1121 144.741 83.9422 144.072 83.9422 143.402V140.792C83.9422 140.122 84.8793 138.855 85.5488 138.315C87.6239 136.641 88.0256 134.968 88.0256 133.763C88.0256 132.023 86.6868 128.408 82.4025 128.408C78.0514 128.408 76.5117 132.223 76.5117 134.299C76.5117 134.901 77.0071 135.718 78.1852 135.771Z" fill="#20A2DC"/>
<circle cx="82.2685" cy="149.695" r="1.74047" fill="#20A2DC"/>
<path d="M56.4368 135.771C57.615 135.825 58.0434 134.812 58.1104 134.299C58.5388 131.3 60.7434 131.487 61.7921 131.956C63.8003 133.227 62.5954 135.024 61.7921 135.637C59.3822 137.476 58.936 139.654 58.9136 140.792V143.402C58.9136 143.938 59.5429 144.741 60.4533 144.741C61.3637 144.741 62.1938 144.072 62.1938 143.402V140.792C62.1938 140.122 63.1309 138.855 63.8003 138.315C65.8755 136.641 66.2772 134.968 66.2772 133.763C66.2772 132.023 64.9383 128.408 60.6541 128.408C56.3029 128.408 54.7633 132.223 54.7633 134.299C54.7633 134.901 55.2587 135.718 56.4368 135.771Z" fill="#20A2DC"/>
<circle cx="60.5201" cy="149.695" r="1.74047" fill="#20A2DC"/>
<path d="M34.6884 135.771C35.8666 135.825 36.295 134.812 36.3619 134.299C36.7904 131.3 38.995 131.487 40.0437 131.956C42.0519 133.227 40.847 135.024 40.0437 135.637C37.6338 137.476 37.1876 139.654 37.1652 140.792V143.402C37.1652 143.938 37.7945 144.741 38.7049 144.741C39.6153 144.741 40.4453 144.072 40.4453 143.402V140.792C40.4453 140.122 41.3825 138.855 42.0519 138.315C44.1271 136.641 44.5287 134.968 44.5287 133.763C44.5287 132.023 43.1899 128.408 38.9057 128.408C34.5545 128.408 33.0149 132.223 33.0149 134.299C33.0149 134.901 33.5103 135.718 34.6884 135.771Z" fill="#20A2DC"/>
<circle cx="38.7718" cy="149.695" r="1.74047" fill="#20A2DC"/>
</svg>
