<svg width="175" height="176" viewBox="0 0 175 176" fill="none" xmlns="http://www.w3.org/2000/svg">
<path d="M41.8273 44.9964L40.69 45.5659L42.3011 47.6542H39.837V48.6984L42.3011 48.2238L40.69 50.5968L41.8273 51.1663L42.775 48.6984L43.9123 51.1663L45.0495 50.407L43.4384 48.2238L46.092 48.6984V47.6542H43.4384L45.0495 45.5659L44.1966 44.9964L42.775 47.2745L41.8273 44.9964Z" fill="#20A2DC"/>
<path d="M40.949 15.4623L39.8117 16.0319L41.4228 18.1202H38.9587V19.1643L41.4228 18.6897L39.8117 21.0628L40.949 21.6323L41.8967 19.1643L43.034 21.6323L44.1712 20.8729L42.5601 18.6897L45.2137 19.1643V18.1202H42.5601L44.1712 16.0319L43.3183 15.4623L41.8967 17.7405L40.949 15.4623Z" fill="#20A2DC"/>
<path d="M160.63 65.5742L159.492 66.1437L161.103 68.232H158.639V69.2761L161.103 68.8015L159.492 71.1746L160.63 71.7441L161.577 69.2761L162.715 71.7441L163.852 70.9847L162.241 68.8015L164.894 69.2761V68.232H162.241L163.852 66.1437L162.999 65.5742L161.577 67.8523L160.63 65.5742Z" fill="#20A2DC"/>
<path d="M136.732 15.9177L135.595 16.4872L137.206 18.5755H134.742V19.6196L137.206 19.145L135.595 21.5181L136.732 22.0876L137.68 19.6196L138.817 22.0876L139.954 21.3282L138.343 19.145L140.997 19.6196V18.5755H138.343L139.954 16.4872L139.101 15.9177L137.68 18.1958L136.732 15.9177Z" fill="#20A2DC"/>
<path d="M83.198 2.46478L82.681 2.74517L83.4134 3.77325H82.2933V4.28729L83.4134 4.05364L82.681 5.22191L83.198 5.5023L83.6288 4.28729L84.1457 5.5023L84.6627 5.12845L83.9303 4.05364L85.1365 4.28729V3.77325H83.9303L84.6627 2.74517L84.2749 2.46478L83.6288 3.58633L83.198 2.46478Z" fill="#20A2DC"/>
<path fill-rule="evenodd" clip-rule="evenodd" d="M20.8201 11.2857C22.0763 11.2857 23.0947 10.2658 23.0947 9.0076C23.0947 7.74942 22.0763 6.72946 20.8201 6.72946C19.5639 6.72946 18.5456 7.74942 18.5456 9.0076C18.5456 10.2658 19.5639 11.2857 20.8201 11.2857ZM20.7902 9.72701C21.2034 9.72701 21.5384 9.3915 21.5384 8.97762C21.5384 8.56375 21.2034 8.22824 20.7902 8.22824C20.377 8.22824 20.042 8.56375 20.042 8.97762C20.042 9.3915 20.377 9.72701 20.7902 9.72701Z" fill="#516678"/>
<path fill-rule="evenodd" clip-rule="evenodd" d="M12.6267 54.6374C13.8829 54.6374 14.9012 53.6174 14.9012 52.3593C14.9012 51.1011 13.8829 50.0811 12.6267 50.0811C11.3705 50.0811 10.3521 51.1011 10.3521 52.3593C10.3521 53.6174 11.3705 54.6374 12.6267 54.6374ZM12.5967 53.0787C13.0099 53.0787 13.3449 52.7432 13.3449 52.3293C13.3449 51.9154 13.0099 51.5799 12.5967 51.5799C12.1835 51.5799 11.8485 51.9154 11.8485 52.3293C11.8485 52.7432 12.1835 53.0787 12.5967 53.0787Z" fill="#516678"/>
<path fill-rule="evenodd" clip-rule="evenodd" d="M104.642 11.9307C106.855 11.9307 108.649 10.1338 108.649 7.91727C108.649 5.70071 106.855 3.90384 104.642 3.90384C102.429 3.90384 100.635 5.70071 100.635 7.91727C100.635 10.1338 102.429 11.9307 104.642 11.9307ZM104.589 9.1846C105.317 9.1846 105.908 8.59352 105.908 7.86439C105.908 7.13526 105.317 6.54418 104.589 6.54418C103.861 6.54418 103.271 7.13526 103.271 7.86439C103.271 8.59352 103.861 9.1846 104.589 9.1846Z" fill="#516678"/>
<path fill-rule="evenodd" clip-rule="evenodd" d="M136.074 50.185C137.395 50.185 138.467 49.1119 138.467 47.7882C138.467 46.4645 137.395 45.3914 136.074 45.3914C134.752 45.3914 133.681 46.4645 133.681 47.7882C133.681 49.1119 134.752 50.185 136.074 50.185ZM136.042 48.5448C136.477 48.5448 136.829 48.1919 136.829 47.7564C136.829 47.321 136.477 46.968 136.042 46.968C135.608 46.968 135.255 47.321 135.255 47.7564C135.255 48.1919 135.608 48.5448 136.042 48.5448Z" fill="#516678"/>
<path fill-rule="evenodd" clip-rule="evenodd" d="M159.316 34.8596C160.638 34.8596 161.709 33.7866 161.709 32.4629C161.709 31.1391 160.638 30.0661 159.316 30.0661C157.994 30.0661 156.923 31.1391 156.923 32.4629C156.923 33.7866 157.994 34.8596 159.316 34.8596ZM159.285 33.2195C159.719 33.2195 160.072 32.8665 160.072 32.4311C160.072 31.9956 159.719 31.6427 159.285 31.6427C158.85 31.6427 158.497 31.9956 158.497 32.4311C158.497 32.8665 158.85 33.2195 159.285 33.2195Z" fill="#516678"/>
<path fill-rule="evenodd" clip-rule="evenodd" d="M57.7818 38.1521C57.5939 28.7591 66.2616 25.2628 70.6189 24.6888C72.247 17.1745 83.769 15.4524 89.3265 15.5307C113.498 16.5952 118.601 31.0552 118.132 38.1521C118.257 40.97 117.088 45.2229 116.488 46.9971C118.366 48.9383 118.732 53.1808 118.68 55.0594C118.492 64.9534 114.114 66.7485 111.948 66.4093C110.883 70.1665 105.295 78.0461 102.633 81.5163C101.381 84.7099 101.798 87.3347 102.164 88.2479L111.948 93.962C127.435 95.6782 134.876 105.021 138.024 114.068H133.87C129.141 102.174 118.079 98.2012 111.243 97.8757L99.804 114.068H95.0629L107.799 96.0754L103.416 93.414L96.4495 102.337C95.9798 102.885 95.1971 102.572 94.884 102.337L87.4479 96.545L80.1684 102.337C79.5422 102.807 78.8377 102.65 78.6029 102.337L71.5581 93.4923L67.0965 96.0754L79.9003 114.068H75.056L63.4958 97.8757C50.6874 99.2736 44.1037 106.182 41.0549 114.068H36.9045C41.8162 99.575 55.4638 94.5729 63.0262 93.962L72.8106 88.2479C73.6872 86.9955 73.0193 83.2383 72.5757 81.5163C69.2569 78.6984 64.67 70.2708 62.7914 66.4093C57.7818 66.4093 56.4511 61.0083 56.3729 55.0594C56.3103 50.3003 58.1732 47.1798 59.1125 46.2144C57.9853 43.7722 57.7557 39.8219 57.7818 38.1521ZM82.3047 114.068H86.6175C86.5865 113.789 86.5197 113.553 86.4303 113.374L84.082 108.051L87.4479 104.999L90.9702 108.051L88.622 113.374C88.4939 113.63 88.4101 113.859 88.3594 114.068H92.5969C92.6801 113.751 92.8116 113.416 93.0054 113.061L94.884 108.756L94.9153 108.686L94.9486 108.612C95.272 107.899 95.7621 106.817 94.884 106.173L88.622 100.772C88.1524 100.302 87.2131 99.9108 86.2738 100.772L80.1684 106.173C79.5422 106.721 79.3073 107.269 80.0118 108.756L81.8121 113.061L81.8435 113.119L81.8861 113.198C82.0431 113.487 82.1945 113.766 82.3047 114.068ZM73.7498 31.1074L71.245 28.3677C62.8539 29.5575 61.3302 35.9082 61.6172 38.9348C61.6172 43.1617 63.548 47.2841 64.7482 49.1105C64.6699 39.7958 70.5406 33.4556 73.7498 31.1074ZM74.2195 25.8629C74.4282 23.6973 77.6479 19.3661 88.8568 19.3661C102.868 19.3661 114.14 26.4891 114.296 37.6824C114.4 41.9614 113.122 50.4099 107.173 49.9716C104.721 49.8411 99.3457 48.3278 93.0054 43.3182C89.0134 40.2394 81.4207 33.7687 80.3249 32.3597C78.4985 30.5333 74.7204 26.677 74.2195 25.8629ZM68.5837 49.4236C68.2079 41.3457 73.6976 35.7256 76.4894 33.9253C102.674 60.3767 111.187 53.3112 113.608 51.3026C114.024 50.9575 114.26 50.7617 114.374 50.9109C115.001 51.7249 114.635 56.9902 114.374 59.5211C113.748 63.5914 111.087 62.6782 109.834 61.7128C109.678 63.0434 99.8936 86.2128 87.2913 86.1345C77.2095 86.0719 68.2184 69.8273 64.983 61.7128C63.668 62.5268 62.8696 62.5738 62.6348 62.4955C60.7337 62.1913 60.4579 58.8582 60.2284 56.0846L60.2083 55.8422C60.0204 53.5879 60.5996 51.1979 60.9127 50.2847C61.9042 51.8502 64.3412 54.9655 66.1571 54.9029C67.9731 54.8403 68.5315 53.52 68.5837 52.8677C68.5315 51.7719 68.4584 49.5489 68.5837 49.4236ZM77.0373 85.8997C77.0895 87.3608 76.7555 90.5179 75.0022 91.4572L79.6987 97.6409L86.4303 92.3182C86.8999 91.9268 87.6827 91.692 88.5437 92.3182L95.197 97.6409L99.8935 91.5354C99.163 91.0136 97.7331 89.1559 97.8584 85.8997C96.5277 87.2564 92.5983 89.9699 87.5261 89.9699C82.4539 89.9699 78.4202 87.2564 77.0373 85.8997Z" fill="#516678"/>
<path d="M75.8374 57.7043C75.8374 58.5628 76.7305 59.3451 77.2408 59.3451H81.6367C82.0195 59.3451 82.9763 58.608 82.9763 57.7043C82.9763 56.8006 82.0832 56.0636 81.6367 56.0636H77.2408C76.7305 56.0636 75.8374 56.8458 75.8374 57.7043Z" fill="#20A2DC"/>
<path d="M92.0611 57.7043C92.0611 58.5628 92.9542 59.3451 93.4645 59.3451H97.8604C98.2432 59.3451 99.2 58.608 99.2 57.7043C99.2 56.8006 98.3069 56.0636 97.8604 56.0636H93.4645C92.9542 56.0636 92.0611 56.8458 92.0611 57.7043Z" fill="#20A2DC"/>
<path d="M87.5623 79.1557C81.9289 79.3696 78.4139 74.6874 77.2016 73.2612C76.1043 71.5202 78.3496 70.4097 79.3618 71.8892C80.2888 73.244 82.5707 76.228 87.3484 76.5955C91.1991 76.8917 94.5956 73.2672 95.8341 71.8892C96.7472 70.8733 98.5622 71.5202 97.906 73.2612C95.9807 75.4718 93.1957 78.9417 87.5623 79.1557Z" fill="#20A2DC"/>
<path d="M83.9344 67.2584C83.9344 68.1169 84.8275 68.8991 85.3378 68.8991H89.7338C90.1165 68.8991 91.0734 68.1621 91.0734 67.2584C91.0734 66.3547 90.1803 65.6176 89.7338 65.6176H85.3378C84.8275 65.6176 83.9344 66.3999 83.9344 67.2584Z" fill="#516678"/>
<path d="M121.424 122.041C121.657 119.552 123.012 117.827 123.66 117.276H32.5313C26.0161 117.276 25.1409 122.43 25.1409 124.764V145.088C25.1409 151.797 30.1002 152.867 32.5313 152.867H119.382C118.526 152.556 117.729 149.561 117.437 148.102H32.5313C29.9058 148.102 29.9058 146.255 29.9058 145.088V124.764C29.9058 122.527 31.3644 122.041 32.5313 122.041H121.424Z" fill="#516678"/>
<path fill-rule="evenodd" clip-rule="evenodd" d="M127.328 123.597C127.328 119.707 131.412 117.374 133.551 117.374H139.969C144.053 117.374 146.387 121.944 146.387 123.986V129.626C148.954 130.326 149.888 133.127 149.888 134.488V147.519C149.888 150.922 146.29 152.964 144.637 152.964H128.689C125.674 152.964 123.632 149.269 123.632 147.519V134.683C123.632 131.882 126.096 130.145 127.328 129.626V123.597ZM141.428 129.14H132.092V124.57C132.092 122.858 133.551 122.138 134.426 122.138H139.094C141.039 122.138 141.46 123.759 141.428 124.57V129.14ZM128.494 135.169C128.494 134.717 128.981 133.905 129.661 133.905H143.859C144.345 133.905 145.026 134.391 145.026 135.266V146.935C145.026 147.519 144.831 148.102 143.859 148.102H139.191V145.088C139.191 144.504 138.51 143.435 136.857 143.435C135.107 143.435 134.329 144.504 134.329 145.088V148.102H129.759C129.175 148.102 128.494 147.811 128.494 146.741V135.169Z" fill="#20A2DC"/>
<path fill-rule="evenodd" clip-rule="evenodd" d="M97.4118 132.835L95.8008 130.284C95.3335 129.544 94.9874 128.268 96.5496 127.281C97.5362 126.658 98.9469 126.342 99.8296 127.74L101.62 130.576L103.553 127.541C104.023 126.803 105.03 125.945 106.588 126.938C107.572 127.564 108.46 128.706 107.572 130.1L105.831 132.835H108.856C109.731 132.835 110.995 133.224 110.995 135.072C110.995 136.239 110.509 137.6 108.856 137.6H106.056L107.618 140.073C108.189 140.978 108.245 142.342 106.726 143.396C105.927 143.951 104.576 144.18 103.745 142.864L101.604 139.474L99.738 142.404C99.1635 143.307 97.9536 143.94 96.3519 143.015C95.5089 142.529 94.7263 141.404 95.562 140.091L97.1481 137.6H94.2696C93.1999 137.6 92.0162 136.919 91.9358 135.072C91.8935 134.099 92.4219 132.835 93.9779 132.835H97.4118Z" fill="#516678"/>
<path fill-rule="evenodd" clip-rule="evenodd" d="M69.9473 132.835L68.3362 130.284C67.869 129.544 67.5228 128.268 69.085 127.281C70.0717 126.658 71.4824 126.342 72.3651 127.74L74.1559 130.576L76.088 127.541C76.558 126.803 77.5651 125.945 79.1236 126.938C80.1079 127.564 80.9952 128.706 80.1074 130.1L78.366 132.835H81.3915C82.2667 132.835 83.5309 133.224 83.5309 135.072C83.5309 136.239 83.0446 137.6 81.3915 137.6H78.5916L80.1533 140.073C80.7244 140.978 80.7809 142.342 79.2616 143.396C78.462 143.951 77.111 144.18 76.2802 142.864L74.1394 139.474L72.2735 142.404C71.699 143.307 70.4891 143.94 68.8874 143.015C68.0444 142.529 67.2618 141.404 68.0975 140.091L69.6836 137.6H66.8051C65.7354 137.6 64.5517 136.919 64.4713 135.072C64.429 134.099 64.9574 132.835 66.5134 132.835H69.9473Z" fill="#20A2DC"/>
<path fill-rule="evenodd" clip-rule="evenodd" d="M42.4827 132.835L40.8717 130.284C40.4044 129.544 40.0583 128.268 41.6205 127.281C42.6072 126.658 44.0179 126.342 44.9006 127.74L46.6914 130.576L48.6235 127.541C49.0935 126.803 50.1006 125.945 51.6591 126.938C52.6435 127.564 53.5307 128.706 52.6429 130.1L50.9015 132.835H53.9271C54.8022 132.835 56.0664 133.224 56.0664 135.072C56.0664 136.239 55.5802 137.6 53.9271 137.6H51.1271L52.6887 140.073C53.2599 140.978 53.3164 142.342 51.7971 143.396C50.9975 143.951 49.6465 144.18 48.8157 142.864L46.6749 139.474L44.809 142.404C44.2345 143.307 43.0246 143.94 41.4229 143.015C40.5799 142.529 39.7973 141.404 40.633 140.091L42.2192 137.6H39.3407C38.271 137.6 37.0873 136.919 37.0068 135.072C36.9645 134.099 37.4929 132.835 39.0489 132.835H42.4827Z" fill="#516678"/>
<rect x="15.912" y="156.268" width="143.033" height="4.26364" rx="2.13182" fill="#516678"/>
<rect x="161.158" y="156.268" width="7.15163" height="4.26364" rx="2.13182" fill="#20A2DC"/>
<rect x="6.71698" y="156.268" width="7.15163" height="4.26364" rx="2.13182" fill="#20A2DC"/>
<rect x="64.4409" y="164.454" width="45.6342" height="4.26364" rx="2.13182" fill="#20A2DC"/>
<rect x="72.7845" y="170.764" width="30.139" height="4.26364" rx="2.13182" fill="#20A2DC"/>
<rect x="83.1713" y="167.353" width="8.68413" height="4.26364" fill="#20A2DC"/>
<rect x="112.118" y="164.454" width="12.6005" height="4.26364" rx="2.13182" fill="#20A2DC"/>
<rect x="49.7971" y="164.454" width="12.6005" height="4.26364" rx="2.13182" fill="#20A2DC"/>
<rect x="170.353" y="156.268" width="4.25692" height="4.26364" rx="2.12846" fill="#20A2DC"/>
<rect x="0.24646" y="156.268" width="4.25692" height="4.26364" rx="2.12846" fill="#20A2DC"/>
</svg>
