<svg width="175" height="176" viewBox="0 0 175 176" fill="none" xmlns="http://www.w3.org/2000/svg">
<path d="M89.3612 148.766C88.8693 147.864 88.8147 145.112 88.8488 143.848H53.0862C52.4031 143.951 51.0573 144.606 51.1393 146.409C51.2213 148.212 52.4714 148.732 53.0862 148.766H89.3612Z" fill="#516678"/>
<path d="M88.7464 138.828C88.5824 137.025 89.088 134.799 89.3612 133.911H53.3937C52.6422 133.979 51.1393 134.567 51.1393 136.37C51.1393 138.173 52.5056 138.76 53.1888 138.828H88.7464Z" fill="#20A2DC"/>
<path d="M92.7427 158.702C91.9229 157.637 91.0349 155.048 90.6933 153.887H53.2912C52.5397 153.99 51.0573 154.625 51.1393 156.346C51.2212 158.067 52.4714 158.634 53.0862 158.702H92.7427Z" fill="#20A2DC"/>
<path d="M22.9596 27.7798H38.7403V32.5946H23.6769C20.1519 32.6766 18.8608 35.7021 18.6558 37.2046V165.464C19.0657 168.742 21.9008 169.971 23.267 170.176V170.893C21.5933 171.371 17.8156 172.041 16.094 170.893C14.3725 169.746 13.8055 166.796 13.7372 165.464V36.4875C14.8849 29.9311 20.3637 27.9505 22.9596 27.7798Z" fill="#516678"/>
<path d="M98.6862 32.7994V27.6772C100.531 27.7455 106.576 27.6773 113.647 27.6772C120.205 27.6772 123.279 33.5166 123.484 36.3849V102.871C120.615 102.871 119.146 103.417 118.668 103.69V37.2045C118.094 33.6804 115.355 32.7994 114.057 32.7994H98.6862Z" fill="#516678"/>
<path fill-rule="evenodd" clip-rule="evenodd" d="M48.1678 15.1794C46.8698 15.3502 44.1714 16.4907 43.7615 19.687V35.9755C43.864 37.1024 44.8887 39.52 48.1678 40.1757H88.6441C89.8737 40.244 92.5995 39.4995 93.6652 35.9755V19.2772C93.4261 18.082 92.2101 15.5892 89.2589 15.1794H78.7043C76.7915 16.5454 72.3511 18.9699 68.5596 18.9699C64.1943 18.9699 60.3989 16.3891 58.668 15.2122L58.6199 15.1794H48.1678ZM48.6802 22.6624V32.6742V35.2558H52.2089H84.6231H88.6441V32.6742V22.4105V19.8919H85.1155H80.4754C80.3265 19.9831 80.1791 20.0736 80.0328 20.1635C76.7276 22.194 74.0145 23.8607 68.5391 23.8607C62.8213 23.8607 59.3373 21.4285 57.3 19.8919H52.2089H48.6802V22.6624Z" fill="#516678"/>
<path d="M108.626 54.0052H53.9061C53.018 53.9369 51.2213 54.3125 51.1394 56.3614C51.0574 58.4103 52.6764 58.9908 53.4962 59.0249H109.138C109.821 58.9566 111.188 58.3283 111.188 56.3614C111.188 54.3945 109.48 53.9711 108.626 54.0052Z" fill="#20A2DC"/>
<path d="M108.629 73.9891H53.9091C53.021 73.9208 51.2243 74.2964 51.1423 76.3453C51.0603 78.3941 52.6794 78.9747 53.4992 79.0088H109.141C109.824 78.9405 111.191 78.3122 111.191 76.3453C111.191 74.3784 109.483 73.9549 108.629 73.9891Z" fill="#20A2DC"/>
<path d="M108.629 63.9495H53.9091C53.021 63.8812 51.2243 64.2569 51.1423 66.3057C51.0603 68.3546 52.6794 68.9351 53.4992 68.9693H109.141C109.824 68.901 111.191 68.2726 111.191 66.3057C111.191 64.3388 109.483 63.9154 108.629 63.9495Z" fill="#516678"/>
<path d="M108.629 93.8631H53.9091C53.021 93.7948 51.2243 94.1704 51.1423 96.2193C51.0603 98.2682 52.6794 98.8487 53.4992 98.8828H109.141C109.824 98.8145 111.191 98.1862 111.191 96.2193C111.191 94.2524 109.483 93.829 108.629 93.8631Z" fill="#20A2DC"/>
<path d="M100.431 113.942H53.9091C53.021 113.874 51.2243 114.249 51.1424 116.298C51.0604 118.347 52.6794 118.928 53.4992 118.962H95.82C96.9823 117.325 99.5318 114.03 100.431 113.942Z" fill="#20A2DC"/>
<path d="M108.629 103.903H53.9091C53.021 103.834 51.2243 104.21 51.1424 106.259C51.0604 108.308 52.6794 108.888 53.4992 108.922H106.272C107.674 108.035 110.619 106.259 111.191 106.259C111.191 104.292 109.483 103.869 108.629 103.903Z" fill="#516678"/>
<path d="M26.2387 67.7325C26.1568 65.9295 27.8441 65.2738 28.6981 65.1714C29.108 65.1222 29.5179 65.1714 30.1327 65.5812L33.2068 67.8349L39.6626 59.537C40.6873 58.615 42.3269 58.9223 43.0441 59.537C43.9664 60.459 43.7614 61.9956 43.3515 62.6103L35.0513 73.4693C33.5757 74.2069 32.3871 73.64 31.9772 73.2644L27.0585 69.5765C26.3413 68.9618 26.2574 68.1422 26.2387 67.7325Z" fill="#516678"/>
<path d="M26.8535 138.418C25.7878 139.566 26.307 141.048 26.751 141.594L31.4647 146.409L26.4436 151.326C25.9313 152.043 25.8145 153.051 26.8535 154.297C27.8783 155.526 29.6203 155.117 30.1326 154.604L34.8463 149.79L39.8674 154.707C40.6872 155.219 42.2448 155.342 43.1465 154.195C44.0483 153.047 43.7613 151.736 43.3514 151.326L38.4328 146.409L43.3514 141.287C43.7613 140.672 43.8638 139.217 43.044 138.316C42.2243 137.414 40.6872 137.291 39.8674 137.906L34.8463 142.721L30.2351 138.213C29.4153 137.599 27.9192 137.271 26.8535 138.418Z" fill="#516678"/>
<path d="M26.1391 107.755C26.0571 105.952 27.7445 105.296 28.5984 105.194C29.0084 105.145 29.4182 105.194 30.0331 105.604L33.1072 107.857L39.5629 99.5594C40.5877 98.6374 42.2273 98.9448 42.9445 99.5594C43.8668 100.481 43.6618 102.018 43.2519 102.633L34.9517 113.492C33.4761 114.229 32.2875 113.663 31.8776 113.287L26.9589 109.599C26.2417 108.984 26.1578 108.165 26.1391 107.755Z" fill="#20A2DC"/>
<path fill-rule="evenodd" clip-rule="evenodd" d="M127.276 174.991C145.895 174.991 160.989 159.901 160.989 141.287C160.989 122.673 145.895 107.583 127.276 107.583C108.657 107.583 93.5627 122.673 93.5627 141.287C93.5627 159.901 108.657 174.991 127.276 174.991ZM127.195 170.066C143.098 170.066 155.989 157.174 155.989 141.271C155.989 125.369 143.098 112.477 127.195 112.477C111.292 112.477 98.4004 125.369 98.4004 141.271C98.4004 157.174 111.292 170.066 127.195 170.066Z" fill="#516678"/>
<path d="M139.71 128.792L129.048 141.976C125.5 146.363 119.011 146.905 114.785 143.168C113.487 142.021 111.609 140.757 110.3 141.891C109.387 142.682 109.256 144.075 109.32 144.593C109.413 145.334 119.447 153.843 121.394 155.488C121.613 155.673 121.812 155.879 122.057 156.027C122.765 156.454 123.706 156.338 124.281 155.763C124.828 155.216 138.461 138.191 143.522 131.866C144.742 130.341 146.086 128.01 144.574 126.775C144.546 126.752 144.518 126.731 144.49 126.71C142.909 125.553 140.942 127.268 139.71 128.792Z" fill="#20A2DC"/>
<path d="M163.969 170.23H11.248C10.3225 170.159 8.45033 170.549 8.3649 172.681C8.27948 174.813 9.96661 175.417 10.8209 175.453H164.503C165.214 175.382 166.638 174.728 166.638 172.681C166.638 170.635 164.859 170.194 163.969 170.23Z" fill="#516678"/>
</svg>
