<svg width="175" height="175" viewBox="0 0 175 175" fill="none" xmlns="http://www.w3.org/2000/svg">
<path fill-rule="evenodd" clip-rule="evenodd" d="M108.413 45.4606L108.421 46.0403L105.081 48.1397C104.924 47.666 104.585 47.254 104.258 46.9268L97.0741 39.7429C95.6772 38.346 94.879 38.1465 93.8812 39.1442L90.0896 42.9358C87.2161 39.4236 80.112 37.7474 76.9191 37.3483V32.559C76.9191 31.0567 76.051 30.5634 74.9236 30.5634H64.1477C62.232 30.5634 61.9526 31.7608 61.9526 32.559V37.3483C57.0037 37.6676 51.2432 41.0733 48.9816 42.7362L45.7887 39.5434C44.3919 38.1465 42.7954 38.9447 42.1968 39.5434L35.0129 46.9268C33.616 48.3237 34.0151 49.3215 34.6137 49.9201L38.0062 53.5121C35.1326 56.8646 33.3499 63.5563 32.8178 66.4831L28.0285 66.2835C26.432 66.2835 25.6338 67.2813 25.6338 68.2791V79.2545C25.6338 80.851 26.8312 81.6492 27.8289 81.6492H32.8178C33.2967 86.5981 36.6093 92.3586 38.2057 94.6202L34.6138 97.813C33.616 99.0103 34.2146 100.607 34.8133 101.205L41.9972 108.389C42.995 109.387 44.5914 109.587 45.3896 108.788L48.9816 105.197C52.3341 108.549 59.0258 110.185 61.9526 110.584V115.773C61.9526 117.05 62.9504 117.569 63.549 117.569H74.9236C76.7196 117.569 77.1187 116.372 77.1187 115.573V110.584C82.5465 110.106 88.0276 106.793 90.0897 105.197L93.6816 108.988C94.6794 109.986 95.8767 109.587 96.4754 108.988L104.058 101.405C105.256 100.008 105.056 98.8108 104.458 98.2121L100.666 94.6202C102.153 93.3314 103.666 89.9751 104.774 86.7877L111.432 88.2812C109.34 88.8316 107.324 90.1052 109.418 94.1181C110.129 95.1849 110.841 99.6301 108.885 101.586L98.0384 112.788C96.0825 114.744 91.2817 115.277 88.4367 113.321C87.3699 112.729 85.0584 112.183 84.3472 114.744C83.4581 117.944 79.1908 121.678 76.168 121.678H63.5436C61.0544 121.678 55.9634 118.833 55.3645 115.988C54.7281 112.966 52.164 112.255 50.208 113.321C48.442 114.285 44.8738 114.744 42.2067 112.966C38.6506 110.476 32.0352 104.159 30.6492 101.942C28.8711 99.0967 28.2758 95.3627 30.1158 92.34C31.5228 90.0285 29.938 89.1928 27.9821 88.606C26.0262 88.0193 21.9366 84.1609 21.9366 80.7825V67.4469C21.9366 64.7798 24.6037 60.1568 29.2268 58.9121C30.2343 58.6158 31.8583 57.5252 30.2936 55.5338C30.1158 55.356 27.2709 50.5552 30.2936 46.4656C33.3756 42.7909 39.7174 35.9749 41.4955 34.9081C43.4514 33.7345 46.6519 32.561 50.9193 34.5525C52.3418 35.2163 54.5284 35.6922 55.0089 33.13C55.2968 31.5944 58.0316 26.5511 62.4768 26.3733H76.7014C80.0798 26.3733 83.8525 30.433 83.9915 32.241C84.1306 34.0489 85.2362 36.3661 88.7924 34.3746C90.3799 33.4856 95.5491 32.7744 97.8606 34.9081L108.413 45.4606ZM109.535 58.476L105.039 60.7566C105.756 62.6044 106.254 64.5824 106.254 66.4831H111.242C112.041 66.4831 113.437 66.5629 113.437 68.4786V77.205L117.242 77.6722V66.7357C117.242 63.0017 113.152 60.1568 111.374 59.4456C110.553 59.1583 109.956 58.8291 109.535 58.476Z" fill="#516678"/>
<path fill-rule="evenodd" clip-rule="evenodd" d="M92.3174 56.1606C86.9963 49.8303 79.0981 45.7143 70.1815 45.462C53.61 44.993 39.7959 58.0467 39.327 74.6182C38.858 91.1897 51.9117 105.004 68.4832 105.473C81.9448 105.854 93.5867 97.3112 97.7336 85.2085L94.552 84.4948C90.778 95.1302 80.4825 102.608 68.5936 102.272C53.8333 101.854 42.2063 89.5497 42.624 74.7894C43.0417 60.0291 55.3459 48.4021 70.1062 48.8198C77.8573 49.0392 84.7443 52.5363 89.4768 57.9457L92.3174 56.1606ZM96.0828 75.0737C96.03 71.9466 95.4372 68.944 94.3918 66.1581L97.345 64.66C98.6435 68.0213 99.3529 71.6698 99.3499 75.475L96.0828 75.0737Z" fill="#20A2DC"/>
<path fill-rule="evenodd" clip-rule="evenodd" d="M81.3692 63.0406C78.4217 60.1275 74.4056 58.2821 69.9363 58.1556C60.5788 57.8908 52.7783 65.2619 52.5135 74.6195C52.2487 83.977 59.6198 91.7775 68.9774 92.0423C75.9284 92.239 82.0203 88.2222 84.8024 82.3076L80.5947 81.3637C78.3592 85.35 74.0405 87.9906 69.1551 87.8523C62.1465 87.654 56.6257 81.8116 56.824 74.803C57.0223 67.7943 62.8647 62.2735 69.8734 62.4719C72.8267 62.5554 75.5158 63.6412 77.6241 65.3941L81.3692 63.0406ZM82.0823 73.3542C82.0403 73.0601 81.9882 72.7691 81.9264 72.4817L85.7829 70.5253C86.0851 71.605 86.2826 72.7273 86.3643 73.8801L82.0823 73.3542Z" fill="#516678"/>
<path fill-rule="evenodd" clip-rule="evenodd" d="M132.551 38.0604L141.216 33.166C142.378 32.6268 143.305 33.4116 143.562 33.7166C144.127 34.3868 144.282 35.756 143.683 36.2316L133.803 41.9159L140.02 44.9655C142.207 46.2683 140.214 48.1248 139.445 48.538L125.165 56.4325C123.708 57.2497 122.813 57.2693 122.364 56.9121L114.248 52.9351L76.8897 73.8782L119.466 81.792L125.309 75.7482C126.052 74.816 127.413 74.885 128.002 75.0361L144.987 78.0925C146.821 78.7336 146.728 80.2613 146.451 80.9451L141.645 86.0561L150.053 87.5531C151.765 87.686 152.147 88.7576 152.124 89.2768C152.235 91.4176 150.544 91.6577 149.684 91.5101L140.946 89.9689L143.901 95.9158C144.436 98.3351 142.594 98.7825 141.606 98.7038L124.871 95.7006C123.145 95.4389 122.539 94.3056 122.451 93.7717L118.453 85.8218L70.2803 76.7459C69.4112 76.2731 69.3216 76.2016 69.0331 75.0923C68.8023 74.2048 69.6088 73.4502 70.041 73.1839L112.612 49.2862L113.627 41.6671C113.623 39.5938 114.527 39.1536 115.342 38.7567L115.342 38.7566C115.392 38.732 115.442 38.7076 115.492 38.6829L130.711 30.4376C132.84 29.7892 133.408 31.9274 133.186 32.8498L132.551 38.0604ZM116.993 46.915L117.602 42.1967L128.815 36.0355L128.188 40.5927L116.993 46.915ZM118.638 50.6444L129.439 44.4482L134.51 46.7302L123.315 53.0525L118.638 50.6444ZM136.9 85.2057L124.301 82.7139L127.785 78.8943L140.473 81.4575L136.9 85.2057ZM123.431 86.5644L125.902 91.8319L138.644 94.1444L136.182 88.9574L123.431 86.5644Z" fill="#20A2DC"/>
<path d="M44.1699 118.556L28.2103 156.435L33.3618 156.536L48.7154 120.274C48.069 120.193 45.4157 119.095 44.1699 118.556Z" fill="#516678"/>
<path d="M94.6752 118.657L110.635 156.536L105.483 156.637L90.1297 120.375C90.7762 120.294 93.4294 119.196 94.6752 118.657Z" fill="#516678"/>
<path d="M71.7458 123.91C70.7177 124.154 68.2198 124.012 67.0993 123.91V156.435H71.7458V123.91Z" fill="#516678"/>
</svg>
