<svg width="175" height="175" viewBox="0 0 175 175" fill="none" xmlns="http://www.w3.org/2000/svg">
<path fill-rule="evenodd" clip-rule="evenodd" d="M58.7974 42.0584C58.5866 44.0997 60.4661 45.2552 61.4322 45.5779C63.1008 53.6727 69.1607 71.3582 83.2126 70.8303C96.1228 70.3452 102.915 54.2593 105.169 45.4899C107.206 45.2083 107.891 43.2609 107.979 42.3223L107.628 34.9314C107.558 32.3974 105.959 31.4706 105.169 31.3239C105.59 24.1441 99.2553 17.7152 96.035 15.3982C94.3488 11.4564 91.2339 10.0603 89.8873 9.85498H76.9771C74.0964 9.92537 71.4441 13.8144 70.478 15.7501C63.8736 19.9735 61.5785 27.9511 61.2565 31.4119C59.5702 31.7638 59.0901 33.7289 59.0608 34.6674C59.0609 36.2805 59.0082 40.0171 58.7974 42.0584ZM83.037 66.6067C69.6677 66.2611 66.2942 47.9234 65.9283 45.9339L65.9112 45.8417L71.4442 48.3053H95.6838L100.514 45.8417C99.4602 52.7927 91.9073 66.836 83.037 66.6067ZM63.013 41.4423C63.0832 41.1607 63.2179 37.3949 63.2764 35.5471C63.8619 35.5764 65.1559 35.2656 65.6477 33.7874V30.8838C65.9112 28.3028 67.9312 22.2082 73.9032 18.4776C74.3424 17.5097 75.4665 15.4156 76.4501 14.7821C76.5672 16.6885 77.6797 20.5189 81.1927 20.5893V21.9091V24.2847H85.4961V20.5893C86.9013 20.5306 89.8346 19.287 90.3264 14.7821C90.9998 15.31 92.364 16.7002 92.4342 18.0376C95.3032 19.9733 101.041 25.2878 101.041 31.0598V33.8754C101.158 34.4326 101.796 35.5647 103.412 35.6351L103.588 41.3543H100.163L94.6298 44.0819H72.1467L66.7016 41.4423H63.013Z" fill="#516678"/>
<path fill-rule="evenodd" clip-rule="evenodd" d="M83.3882 34.9312C87.0745 34.9312 90.0629 31.9373 90.0629 28.2442C90.0629 24.551 87.0745 21.5571 83.3882 21.5571C79.7019 21.5571 76.7135 24.551 76.7135 28.2442C76.7135 31.9373 79.7019 34.9312 83.3882 34.9312ZM83.3005 30.3559C84.5131 30.3559 85.4961 29.3711 85.4961 28.1562C85.4961 26.9414 84.5131 25.9566 83.3005 25.9566C82.0879 25.9566 81.1048 26.9414 81.1048 28.1562C81.1048 29.3711 82.0879 30.3559 83.3005 30.3559Z" fill="#20A2DC"/>
<path fill-rule="evenodd" clip-rule="evenodd" d="M126.085 85.3085C126.085 83.7224 124.609 81.4595 121.166 80.3333L97.9808 68.191L100.703 65.1995L124.153 76.9018L124.348 77.0192L124.351 77.0213C126.396 78.2508 130.125 80.493 130.125 85.2891L126.085 85.3085ZM64.9587 65.5514L67.7691 68.631L45.0225 80.3333C43.4709 81.1545 40.3678 84.0816 40.3678 89.22V89.4079C40.3971 90.0238 40.8596 91.2556 42.4756 91.2556L39.3989 93.0965C37.969 93.9521 36.1522 92.9219 36.1522 91.2556V89.4079V89.22C36.1522 86.2871 37.5223 79.6646 43.0025 76.6378L64.9587 65.5514Z" fill="#516678"/>
<path d="M19.6514 146.361C19.7539 147.639 20.8788 150.348 21.6187 152.028L25.3973 152.028C24.6732 151.3 23.4311 146.335 22.9697 144.354C22.7986 142.976 21.7919 142.558 21.3099 142.521L15.6736 142.973C14.8367 143.1 14.6133 142.326 14.6062 141.924L14.2926 138.015C14.2299 137.233 14.8655 136.985 15.1912 136.959L20.6081 136.6C21.9715 136.249 22.1739 135.062 22.1046 134.513C21.8445 132.779 23.0351 128.512 23.6629 126.596C24.0667 125.595 23.5302 124.942 23.2116 124.741L17.8541 122.068C17.2191 121.696 17.3669 121.023 17.5201 120.733L19.3349 116.956C19.5873 116.331 20.3879 116.569 20.7567 116.767C20.9972 116.747 23.8453 118.183 25.2393 118.904C26.039 119.445 27.1982 118.81 27.5388 118.341C28.3562 117.216 31.4776 113.385 33.2758 111.602C33.8937 111.007 33.6332 110.085 33.4257 109.698L30.3404 105.179C29.9771 104.422 30.2329 104.154 30.4063 104.115L33.481 101.901C34.3249 101.107 34.9268 101.382 35.1222 101.618L38.6134 106.483C38.8811 106.991 39.8767 107.145 40.4472 106.714C42.3298 105.292 46.576 104.23 48.4637 103.877C49.5411 103.73 49.9064 103.005 49.9333 102.397L49.469 96.6092C49.5314 95.8779 50.1522 95.6969 50.4548 95.6979L54.5129 95.3724C55.3546 95.3048 55.463 95.9014 55.4931 96.2772L55.9273 101.69C55.9936 102.516 56.7685 102.984 57.3946 103.009C59.8986 103.111 63.8969 103.925 65.3851 104.562C65.7038 104.764 67.1618 105.025 67.6336 104.306L70.0463 99.4978C70.6021 97.9402 71.8708 98.6706 71.946 98.6646L74.9343 100.089C75.3282 100.285 75.9714 100.618 75.9266 101.144C75.8486 102.059 74.4675 104.641 73.595 106.022C72.9459 106.982 73.2788 107.737 73.5263 107.995L75.3814 109.435L80.2413 109.103C79.3385 108.381 78.1762 106.806 77.5571 106.385C78.2615 105.36 78.4766 104.647 78.9873 103.471C80.2343 101.102 79.3139 99.057 78.6404 98.2032C77.6421 97.0728 76.3042 96.4236 75.1287 95.9127C74.8701 95.8002 74.1076 95.4398 73.0964 95.0922C72.3148 94.7766 70.6297 94.5129 68.9391 95.123C68.1305 95.4149 67.3747 96.3644 66.9225 97.3275C66.7158 97.7677 65.7988 99.662 65.3661 100.554C64.4762 100.02 61.1073 99.6349 59.5341 99.5089L59.1964 95.2993C58.9914 92.7435 55.8648 91.4812 54.5872 91.5837L49.2515 92.0117C47.5982 92.1443 45.5246 94.5803 45.6633 96.3092L46.007 100.594C44.51 100.79 41.7206 101.846 40.4222 102.631C40.2538 102.417 39.2634 100.757 38.7021 100.045C37.5053 98.3254 35.7816 97.5963 35.0221 97.541C33.044 97.3971 31.1235 98.9129 29.9062 99.7671C27.9729 101.124 27.1382 102.032 26.7415 102.745C26.2509 103.626 26.2943 105.655 26.7364 106.452C27.1033 107.255 28.2711 108.926 29.2353 110.261C28.4467 110.99 26.3303 113.647 25.3706 114.884C24.1511 114.013 21.82 113.05 20.5874 112.771C20.1115 112.663 19.4508 112.744 18.9341 112.903C16.9412 113.517 15.8084 115.424 15.0453 117.225C13.8224 119.895 13.568 121.202 13.7148 122.325C14.0084 124.571 17.6427 126.347 19.6168 127.072C18.9497 128.184 18.5837 131.164 18.503 132.986L14.514 133.231C11.514 133.547 10.4475 136.28 10.5741 137.859L10.9901 143.046C11.1288 144.775 14.0091 146.738 15.2867 146.635L19.6514 146.361Z" fill="#516678"/>
<circle cx="48.9554" cy="114.415" r="0.679752" fill="#516678"/>
<circle cx="47.1607" cy="116.427" r="0.679752" fill="#D9D9D9"/>
<circle cx="47.1607" cy="116.427" r="0.679752" fill="#20A2DC"/>
<circle cx="52.8708" cy="118.112" r="0.679752" fill="#516678"/>
<circle cx="45.0943" cy="118.112" r="0.679752" fill="#516678"/>
<circle cx="42.756" cy="119.581" r="0.679752" fill="#20A2DC"/>
<circle cx="40.309" cy="120.669" r="0.679752" fill="#516678"/>
<circle cx="37.6987" cy="121.484" r="0.679752" fill="#20A2DC"/>
<circle cx="35.034" cy="121.865" r="0.679752" fill="#516678"/>
<circle cx="35.1972" cy="124.529" r="0.679752" fill="#20A2DC"/>
<circle cx="35.469" cy="127.139" r="0.679752" fill="#516678"/>
<circle cx="35.9586" cy="129.695" r="0.679752" fill="#20A2DC"/>
<circle cx="47.3511" cy="132.006" r="0.815702" fill="#20A2DC"/>
<circle cx="36.5567" cy="132.251" r="0.679752" fill="#516678"/>
<circle cx="37.3181" cy="134.807" r="0.679752" fill="#20A2DC"/>
<circle cx="38.2424" cy="137.254" r="0.679752" fill="#516678"/>
<circle cx="39.3844" cy="139.592" r="0.679752" fill="#20A2DC"/>
<circle cx="40.7983" cy="141.822" r="0.679752" fill="#516678"/>
<circle cx="42.4842" cy="143.889" r="0.679752" fill="#20A2DC"/>
<circle cx="44.3875" cy="145.683" r="0.679752" fill="#516678"/>
<circle cx="46.5627" cy="147.151" r="0.679752" fill="#20A2DC"/>
<circle cx="48.9554" cy="148.185" r="0.679752" fill="#516678"/>
<circle cx="51.3481" cy="147.151" r="0.679752" fill="#20A2DC"/>
<circle cx="53.5233" cy="145.683" r="0.679752" fill="#516678"/>
<circle cx="55.4265" cy="143.889" r="0.679752" fill="#20A2DC"/>
<circle cx="62.8768" cy="121.919" r="0.679752" fill="#516678"/>
<circle cx="60.2121" cy="121.484" r="0.679752" fill="#20A2DC"/>
<circle cx="57.6562" cy="120.669" r="0.679752" fill="#516678"/>
<circle cx="55.1547" cy="119.581" r="0.679752" fill="#20A2DC"/>
<circle cx="50.8045" cy="116.427" r="0.679752" fill="#20A2DC"/>
<path d="M31.7714 119.173C41.016 118.085 46.6716 112.756 48.4661 110.309C48.7652 109.819 49.2274 109.951 49.4993 110.309C54.0472 116.291 61.8436 118.738 66.2756 119.173C67.1185 119.256 67.2126 119.608 67.2001 119.88L66.9009 124.529C66.7015 124.384 66.1559 124.072 65.5686 123.985L65.8949 120.424C62.1699 120.179 54.3119 118.085 48.9555 111.804C47.0612 114.242 41.1247 119.445 32.0704 120.451C32.3967 128.988 35.714 146.689 48.9827 151.148C50.7138 150.65 54.9754 148.565 58.1729 144.432L59.2605 145.166C58.037 146.979 54.2685 150.958 48.9827 152.372C34.7895 148.511 30.9376 129.142 30.7382 119.88C30.7247 119.254 31.3635 119.221 31.7714 119.173Z" fill="#516678"/>
<path fill-rule="evenodd" clip-rule="evenodd" d="M63.8012 136.845C67.0898 136.845 69.7558 134.179 69.7558 130.891C69.7558 127.602 67.0898 124.936 63.8012 124.936C60.5126 124.936 57.8466 127.602 57.8466 130.891C57.8466 134.179 60.5126 136.845 63.8012 136.845ZM63.8096 135.488C66.3244 135.488 68.3631 133.45 68.3631 130.935C68.3631 128.42 66.3244 126.381 63.8096 126.381C61.2948 126.381 59.2561 128.42 59.2561 130.935C59.2561 133.45 61.2948 135.488 63.8096 135.488Z" fill="#516678"/>
<path d="M61.2185 131.326C61.1942 130.8 61.6951 130.608 61.9486 130.578C62.0703 130.564 62.192 130.578 62.3745 130.698L63.2871 131.356L65.2036 128.933C65.5078 128.664 65.9945 128.754 66.2075 128.933C66.4813 129.202 66.4204 129.651 66.2987 129.831L63.8347 133.002C63.3966 133.217 63.0437 133.051 62.9221 132.942L61.4619 131.865C61.2489 131.685 61.224 131.446 61.2185 131.326Z" fill="#20A2DC"/>
<path fill-rule="evenodd" clip-rule="evenodd" d="M42.5659 132.849L46.5628 127.031L45.9374 126.514C45.8015 126.405 45.622 126.068 45.9918 125.589L47.3241 123.713C47.5416 123.387 48.3247 122.941 49.1731 123.55L54.4751 127.221C54.8014 127.493 55.1005 128.308 54.4751 129.151L53.3059 130.892C53.17 131.082 52.7349 131.354 52.2727 130.946L51.9192 130.647L51.2123 131.598L67.2272 141.632C68.1084 142.142 68.6139 143.671 67.8328 144.731C67.7406 144.87 67.6749 144.973 67.6179 145.062C67.5191 145.217 67.4468 145.33 67.3088 145.52C67.2869 145.55 67.2654 145.58 67.2443 145.609C66.8977 146.086 66.6632 146.409 66.33 146.716C65.4327 147.668 64.5082 147.369 63.2847 146.526L48.5477 135.568L47.9223 136.493L48.4117 136.873C48.6202 137.009 48.912 137.423 48.4117 137.988L47.3785 139.484C47.0794 139.891 46.2256 140.549 45.2033 139.919L40.3635 136.601C39.9284 136.348 39.2487 135.536 40.01 134.317L41.1792 132.632C41.3695 132.36 41.6958 132.061 42.5659 132.849ZM47.3785 125.943L48.1398 124.828C48.1942 124.738 48.3682 124.611 48.6292 124.828L53.2516 127.982C53.3694 128.037 53.5561 128.2 53.3603 128.417L52.599 129.505L52.0008 129.097C51.883 129.006 51.593 128.885 51.3754 129.124L49.7169 131.463C49.6262 131.626 49.5156 132.006 49.7984 132.224C49.7984 132.224 66.2892 142.611 66.6563 142.855C67.0234 143.1 67.0641 143.589 66.6563 144.133L65.6774 145.574C65.3512 146.009 64.8889 146.118 64.182 145.574L48.8468 134.182C48.6474 134.018 48.1616 133.801 47.8135 134.236L46.3725 136.357C46.2728 136.484 46.1332 136.803 46.3725 137.064L47.0794 137.58L46.2909 138.722C46.2365 138.84 46.0408 138.983 45.6927 138.614L41.1792 135.514C41.0885 135.469 40.9508 135.329 41.1248 135.133L41.8861 134.018L42.4299 134.399C42.5568 134.517 42.9465 134.589 43.1641 134.345L48.0311 127.303C48.167 127.158 48.3574 126.775 48.0311 126.405L47.3785 125.943Z" fill="#516678"/>
<path fill-rule="evenodd" clip-rule="evenodd" d="M110.604 147.612C110.3 147.462 109.91 147.373 109.413 147.373H75.6556C73.0866 147.373 71.4938 148.709 71.4938 150.867V155.131C71.4938 156.262 72.4186 158.728 75.707 158.728H109.926C110.317 158.728 111.093 158.342 111.443 157.751H103.267H99.504C98.7254 157.751 98.7254 157.234 98.7254 156.328V156.058H75.2979C74.8949 156.058 74.0783 155.826 74.0363 154.898V151.217C74.0363 150.796 74.2886 149.956 75.2979 149.956H109.371C109.547 148.832 110.037 148.076 110.604 147.612Z" fill="#516678"/>
<path fill-rule="evenodd" clip-rule="evenodd" d="M109.068 138.638H78.2246C75.6555 138.638 74.0627 139.974 74.0627 142.132V146.397C74.0627 147.527 74.9876 149.993 78.2759 149.993H109.365C109.563 148.67 110.193 147.852 110.877 147.414H77.8225C77.4252 147.414 76.6203 147.143 76.5788 146.061V141.766C76.5788 141.275 76.8275 140.295 77.8225 140.295H110.221C109.808 139.568 109.4 139.023 109.068 138.638ZM111.92 145.208V147.024C112.001 147.014 112.08 147.009 112.156 147.009C112.1 146.371 112.02 145.771 111.92 145.208Z" fill="#20A2DC"/>
<path fill-rule="evenodd" clip-rule="evenodd" d="M105.82 129.698H75.6556C73.0866 129.698 71.4938 131.034 71.4938 133.192V137.457C71.4938 138.587 72.4186 141.053 75.707 141.053H109.926C110.083 141.053 110.303 140.991 110.532 140.878C109.98 139.776 109.403 139.013 108.977 138.535C108.962 138.518 108.947 138.501 108.932 138.484H75.2445C74.8505 138.484 74.0524 138.248 74.0113 137.303V133.552C74.0113 133.124 74.2579 132.267 75.2445 132.267H105.897C105.766 131.383 105.768 130.629 105.798 130.06C105.804 129.938 105.811 129.818 105.82 129.698Z" fill="#516678"/>
<path fill-rule="evenodd" clip-rule="evenodd" d="M110.446 120.861H78.2246C75.6556 120.861 74.0628 122.196 74.0628 124.354V128.619C74.0628 129.749 74.9877 132.216 78.276 132.216H105.89C105.766 131.354 105.769 130.617 105.798 130.059C105.805 129.92 105.813 129.783 105.824 129.647H77.8134C77.4195 129.647 76.6214 129.41 76.5803 128.465V124.714C76.5803 124.286 76.8269 123.43 77.8134 123.43H107.913C108.642 122.385 109.511 121.537 110.446 120.861Z" fill="#20A2DC"/>
<path fill-rule="evenodd" clip-rule="evenodd" d="M71.4938 115.671C71.4938 113.513 73.0866 112.177 75.6556 112.177H109.413C111.262 112.177 111.622 113.41 111.622 114.386V120.114C110.215 120.893 108.88 122.006 107.842 123.532H75.707C72.4186 123.532 71.4938 121.066 71.4938 119.935V115.671ZM74.0113 119.781C74.0524 120.727 74.8505 120.963 75.2445 120.963H109.053V114.746H75.2445C74.2579 114.746 74.0113 115.602 74.0113 116.031V119.781Z" fill="#516678"/>
<path d="M104.069 109.711H101.551V90.6487C101.551 88.3879 103.812 87.1548 105.199 87.1548H148.051C150.722 87.1548 151.647 89.6724 151.647 90.9056V154.926C151.647 156.57 150.877 157.34 150.157 157.34H147.64V156.056C148.873 156.056 149.13 155.388 149.13 154.823V90.9056C149.13 89.9807 148.359 89.6724 147.794 89.6724H105.302C104.377 89.6724 104.069 90.4945 104.069 91.0597V109.711Z" fill="#516678"/>
<path d="M110.44 97.8138C110.44 96.8548 111.254 96.5424 111.554 96.5061H141.838C142.124 96.5969 142.913 96.9856 142.913 97.8138C142.913 98.642 142.124 98.9944 141.838 99.0671C141.838 99.0671 111.854 99.0852 111.554 99.0671C111.254 99.0489 110.44 98.7728 110.44 97.8138Z" fill="#20A2DC"/>
<path d="M110.44 104.082C110.44 103.123 111.254 102.81 111.554 102.774H141.838C142.124 102.865 142.913 103.254 142.913 104.082C142.913 104.91 142.124 105.262 141.838 105.335C141.838 105.335 111.854 105.353 111.554 105.335C111.254 105.317 110.44 105.041 110.44 104.082Z" fill="#516678"/>
<path d="M110.44 110.351C110.44 109.392 111.254 109.079 111.554 109.043H141.838C142.124 109.134 142.913 109.522 142.913 110.351C142.913 111.179 142.124 111.531 141.838 111.604C141.838 111.604 111.854 111.622 111.554 111.604C111.254 111.586 110.44 111.31 110.44 110.351Z" fill="#20A2DC"/>
<path d="M110.44 116.619C110.44 115.66 111.254 115.348 111.554 115.311H141.838C142.124 115.402 142.913 115.791 142.913 116.619C142.913 117.447 142.124 117.8 141.838 117.872C141.838 117.872 111.854 117.89 111.554 117.872C111.254 117.854 110.44 117.578 110.44 116.619Z" fill="#516678"/>
<path fill-rule="evenodd" clip-rule="evenodd" d="M125.805 149.222C131.685 149.224 141.837 149.214 141.837 149.214C142.124 149.142 142.913 148.789 142.913 147.961C142.913 147.133 142.124 146.744 141.837 146.653H123.345C123.309 146.865 123.277 147.062 123.251 147.241H123.446C124.694 147.34 125.419 148.272 125.805 149.222Z" fill="#20A2DC"/>
<path fill-rule="evenodd" clip-rule="evenodd" d="M124.234 142.954C130.912 142.955 141.838 142.946 141.838 142.946C142.124 142.873 142.913 142.521 142.913 141.692C142.913 140.864 142.124 140.476 141.838 140.385H125.222C124.84 141.174 124.511 142.063 124.234 142.954Z" fill="#516678"/>
<path fill-rule="evenodd" clip-rule="evenodd" d="M127.931 136.684C135.069 136.682 141.838 136.678 141.838 136.678C142.125 136.605 142.913 136.253 142.913 135.424C142.913 134.596 142.125 134.208 141.838 134.117H129.067C128.782 135.104 128.377 135.966 127.931 136.684Z" fill="#20A2DC"/>
<path fill-rule="evenodd" clip-rule="evenodd" d="M129.478 130.415C136.016 130.412 141.837 130.409 141.837 130.409C142.124 130.336 142.912 129.984 142.912 129.156C142.912 128.327 142.124 127.939 141.837 127.848H129.182C129.375 128.752 129.465 129.626 129.478 130.415Z" fill="#516678"/>
<path fill-rule="evenodd" clip-rule="evenodd" d="M127.819 124.147C134.998 124.144 141.838 124.14 141.838 124.14C142.125 124.068 142.913 123.715 142.913 122.887C142.913 122.059 142.125 121.67 141.838 121.579H125.756C126.612 122.353 127.29 123.228 127.819 124.147Z" fill="#20A2DC"/>
<path d="M105.302 155.388C105.302 156.261 106.381 156.159 106.381 156.518H103.401C102.784 156.518 102.784 156.107 102.784 155.388V150.558C102.784 148.092 104.583 147.321 105.867 147.321H111.159V146.499C111.159 144.238 112.547 143.416 113.42 143.416C113.091 139.635 111.679 137.559 110.903 136.686C108.436 133.911 108.316 131.291 108.385 129.955C108.751 122.813 114.602 120.719 117.788 120.86C125.289 121.194 127.139 126.872 127.139 130.314C127.262 133.233 125.957 135.408 124.878 136.429C123.357 137.867 122.463 141.755 122.206 143.519H122.36C123.922 143.642 124.45 145.42 124.518 146.294V147.321H129.554C132.267 147.28 132.911 149.325 132.893 150.353V155.85C132.852 156.261 132.328 156.467 132.123 156.518H129.143C130.211 156.19 130.376 155.457 130.324 155.131V150.712C130.365 149.849 129.828 149.736 129.554 149.788H123.285C122.34 149.788 122.001 149 121.949 148.606V145.985H120.716C119.894 145.862 119.586 145.112 119.534 144.752C119.37 141.669 121.179 137.713 122.206 135.658C124.261 133.243 124.673 131.702 124.673 130.314C124.159 124.714 119.637 123.349 117.788 123.378C112.341 123.464 110.903 128.139 110.903 130.314C110.903 132.781 112.084 133.911 113.317 135.658C115.566 138.844 116.024 143.057 116.143 144.752C116.143 145.523 115.527 145.985 115.013 145.985H113.677V148.606C113.677 149.531 113.009 149.788 112.547 149.788H106.124C105.508 149.788 105.302 150.147 105.302 150.558V155.388Z" fill="#516678"/>
<circle cx="117.89" cy="130.366" r="1.38727" fill="#20A2DC"/>
<circle cx="117.89" cy="147.835" r="1.38727" fill="#20A2DC"/>
<path d="M165.523 155.821H9.92948C9.04379 155.753 7.25198 156.127 7.17023 158.167C7.08847 160.207 8.70314 160.786 9.5207 160.82H166.034C166.715 160.752 168.078 160.126 168.078 158.167C168.078 156.208 166.374 155.787 165.523 155.821Z" fill="#516678"/>
</svg>
