<svg width="175" height="175" viewBox="0 0 175 175" fill="none" xmlns="http://www.w3.org/2000/svg">
<path fill-rule="evenodd" clip-rule="evenodd" d="M2.68762 148.182C2.68762 149.271 3.44972 151.557 5.40942 151.557H170.024C170.895 151.557 172.528 150.142 172.528 148.182V139.121C172.528 138.189 172.201 136.338 170.35 136.338H167.302L4.86506 136.338C3.23198 136.338 2.68762 137.971 2.68762 138.951V148.182ZM7.9136 141.564V144.612C7.9136 145.701 8.6757 147.334 10.6354 147.334H164.798C165.669 147.334 167.302 146.463 167.302 144.503V141.564L7.9136 141.564Z" fill="#516678"/>
<path d="M10.7527 137.316H15.9785V31.2411C15.9785 28.9766 17.6116 28.6282 18.4826 28.6282H156.75C158.601 28.6282 159.254 30.3701 159.254 31.1322V128.499C159.254 129.942 160.424 131.112 161.867 131.112C163.31 131.112 164.48 129.942 164.48 128.499V30.2613C164.48 25.5798 159.58 23.2935 157.294 23.2935H18.156C13.039 23.2935 10.7527 27.7572 10.7527 30.2613V137.316Z" fill="#516678"/>
<path d="M143.974 69.594C142.492 70.6128 143.048 72.4883 143.511 73.2988C146.104 78.3928 146.753 85.2234 146.753 88.002C145.479 114.167 124.177 121.461 113.063 121.461C86.3884 120.071 79.5655 98.576 79.4883 88.002C80.5071 61.3278 101.91 54.1961 112.484 53.9646C111.905 54.775 111.095 56.7663 112.484 58.2482C113.873 59.7301 115.61 58.8656 116.304 58.2482C117.501 57.4378 120.426 55.3538 122.556 53.5015C124.686 51.6491 123.444 49.7195 122.556 48.9863L116.304 44.2396C115.648 43.8151 113.966 43.2902 112.484 44.5869C111.002 45.8836 111.866 47.8286 112.484 48.639C82.1048 50.1209 74.047 75.4985 73.8154 88.002C74.8342 118.103 100.405 126.555 113.063 127.018C144.461 124.98 152.387 100.158 152.426 88.002C152.055 77.9992 149.03 71.4078 147.563 69.3625C146.984 69.0151 145.456 68.5752 143.974 69.594Z" fill="#20A2DC"/>
<path fill-rule="evenodd" clip-rule="evenodd" d="M141.343 89.0537C141.343 104.301 128.774 116.661 113.271 116.661C97.7667 116.661 85.1984 104.301 85.1984 89.0537C85.1984 73.8068 97.7667 61.4468 113.271 61.4468C128.774 61.4468 141.343 73.8068 141.343 89.0537ZM99.8257 78.3417C96.6388 77.6072 93.6012 76.036 92.4808 75.3423C89.7421 78.5253 88.4765 84.7486 88.186 87.4624H98.8298C98.78 85.2098 99.473 80.4433 99.8257 78.3417ZM92.4808 102.704C93.6012 102.011 96.6388 100.44 99.8257 99.705C99.473 97.6034 98.78 92.837 98.8298 90.5844H88.186C88.4765 93.2981 89.7421 99.5214 92.4808 102.704ZM94.4104 72.8326C97.2114 69.1598 102.876 66.344 105.428 65.6095C103.685 67.4458 101.32 72.7101 100.573 75.4035C98.2695 74.7914 95.5308 73.5671 94.4104 72.8326ZM105.428 112.498C102.876 111.764 97.2114 108.948 94.4104 105.275C95.5308 104.541 98.2695 103.317 100.573 102.704C101.32 105.398 103.685 110.662 105.428 112.498ZM126.529 78.3417C129.715 77.6072 132.753 76.036 133.873 75.3423C136.612 78.5253 137.878 84.7486 138.168 87.4624H127.524C127.574 85.2098 126.881 80.4433 126.529 78.3417ZM133.873 102.704C132.753 102.011 129.715 100.44 126.529 99.705C126.881 97.6034 127.574 92.837 127.524 90.5844H138.168C137.878 93.2981 136.612 99.5214 133.873 102.704ZM131.944 72.8326C129.143 69.1598 123.479 66.344 120.927 65.6095C122.669 67.4458 125.035 72.7101 125.782 75.4035C128.085 74.7914 130.823 73.5671 131.944 72.8326ZM120.927 112.498C123.479 111.764 129.143 108.948 131.944 105.275C130.823 104.541 128.085 103.317 125.782 102.704C125.035 105.398 122.669 110.662 120.927 112.498ZM103.56 76.0769C105.254 68.8293 109.702 65.3851 111.714 64.5689V77.0563C108.129 77.0074 104.785 76.383 103.56 76.0769ZM111.777 113.478C109.764 112.662 105.316 109.217 103.623 101.97C104.847 101.664 108.191 101.039 111.777 100.99V113.478ZM111.652 79.9946C106.224 79.8967 103.54 79.2601 102.876 78.954C102.378 79.5906 102.004 84.9325 101.88 87.5238H111.652V79.9946ZM102.876 99.1539C103.54 98.8479 106.224 98.2112 111.652 98.1133V90.5841H101.88C102.004 93.1755 102.378 98.5173 102.876 99.1539ZM122.918 76.0158C121.225 68.7682 116.777 65.324 114.764 64.5078V76.9952C118.35 76.9462 121.694 76.3219 122.918 76.0158ZM114.702 113.417C116.715 112.601 121.163 109.156 122.856 101.909C121.632 101.603 118.287 100.978 114.702 100.929V113.417ZM114.827 79.9335C120.254 79.8355 122.939 79.1989 123.603 78.8929C124.101 79.5295 124.474 84.8713 124.599 87.4626H114.827V79.9335ZM123.603 99.0928C122.939 98.7867 120.254 98.1501 114.827 98.0522V90.523H124.599C124.474 93.1144 124.101 98.4562 123.603 99.0928Z" fill="#516678"/>
<path d="M15.3797 71.8496C15.3797 70.7299 14.4828 69.8223 13.3764 69.8223C12.27 69.8223 11.373 70.7299 11.373 71.8496L11.373 124.56C11.373 125.679 12.27 126.587 13.3764 126.587C14.4828 126.587 15.3797 125.679 15.3797 124.56L15.3797 104.519H39.7102C40.2634 104.519 40.7119 104.065 40.7119 103.506V102.077C40.7119 101.517 40.2634 101.063 39.7102 101.063H15.3797V92.9536H55.7367C56.2899 92.9536 56.7384 92.4998 56.7384 91.9399V90.5108C56.7384 89.951 56.2899 89.4972 55.7367 89.4972L15.3797 89.4972V81.3879L67.7566 81.3879C68.3098 81.3879 68.7582 80.9341 68.7582 80.3743V78.9452C68.7582 78.3854 68.3098 77.9315 67.7566 77.9315L15.3797 77.9315V71.8496Z" fill="#516678"/>
<path d="M69.1468 106.754C69.7705 105.973 69.6433 104.835 68.8625 104.211C68.0818 103.587 66.9432 103.715 66.3194 104.495L47.9258 125.957L35.0588 116.636C34.7135 116.282 34.2381 116.084 33.7433 116.089C33.2485 116.095 32.7774 116.302 32.4398 116.664L19.6426 130.377C18.9608 131.108 19.0004 132.253 19.731 132.935C20.4616 133.617 21.6066 133.577 22.2884 132.846L33.7909 120.521L46.7641 129.95C47.1262 130.322 47.6306 130.52 48.149 130.495C48.6674 130.469 49.1498 130.223 49.4738 129.817L69.1468 106.754Z" fill="#20A2DC"/>
<path fill-rule="evenodd" clip-rule="evenodd" d="M57.2355 50.6621C54.2917 50.6621 51.9053 53.0485 51.9053 55.9923V78.3912H54.2284V56.3272C54.2284 54.6645 55.5762 53.3166 57.2389 53.3166C58.9016 53.3166 60.2495 54.6645 60.2495 56.3272V78.3912H62.5656V55.9923C62.5656 53.0485 60.1792 50.6621 57.2355 50.6621Z" fill="#516678"/>
<path d="M56.0609 61.4589C56.0609 60.7775 56.6133 60.2251 57.2948 60.2251C57.9762 60.2251 58.5286 60.7775 58.5286 61.4589V78.3822H56.0609V61.4589Z" fill="#516678"/>
<path fill-rule="evenodd" clip-rule="evenodd" d="M44.0084 63.885C41.0646 63.885 38.6782 66.2714 38.6782 69.2152V78.391H40.9756V69.036C40.9756 67.3619 42.3327 66.0048 44.0067 66.0048C45.6808 66.0048 47.0379 67.3619 47.0379 69.036V78.391H49.3386V69.2152C49.3386 66.2714 46.9522 63.885 44.0084 63.885Z" fill="#516678"/>
<path d="M42.8082 72.3142C42.8082 71.6327 43.3606 71.0803 44.0421 71.0803C44.7235 71.0803 45.2759 71.6327 45.2759 72.3142V78.4813H42.8082V72.3142Z" fill="#516678"/>
<path fill-rule="evenodd" clip-rule="evenodd" d="M30.6828 54.116C27.7391 54.116 25.3527 56.5024 25.3527 59.4461V78.3913H27.7227V59.4287C27.7227 57.766 29.0706 56.4182 30.7333 56.4182C32.396 56.4182 33.7439 57.766 33.7439 59.4287V78.3913H36.013V59.4462C36.013 56.5024 33.6266 54.116 30.6828 54.116Z" fill="#516678"/>
<path d="M29.4149 67.2387C29.4149 66.5573 29.9673 66.0049 30.6488 66.0049C31.3302 66.0049 31.8826 66.5573 31.8826 67.2387V78.4386H29.4149V67.2387Z" fill="#516678"/>
<path d="M34.3845 48.1951L41.5901 54.0666L43.0707 54.1653L44.5513 54.264L45.341 53.2772L52.2505 44.0012L53.9779 45.6788L46.7229 55.3494L43.0707 54.1653L39.3198 55.3494L32.6571 49.922L34.3845 48.1951Z" fill="#20A2DC"/>
<path d="M19.4737 52.9641C19.1114 52.3871 19.2854 51.6258 19.8624 51.2636L26.0266 47.3944L27.3387 49.4838L21.1746 53.3529C20.5976 53.7151 19.8361 53.541 19.4737 52.9641Z" fill="#20A2DC"/>
<path d="M66.7246 43.7969C66.6293 44.4715 66.0053 44.9412 65.3307 44.846L58.9565 43.9466L59.3014 41.5038L65.6756 42.4032C66.3501 42.4984 66.8198 43.1224 66.7246 43.7969Z" fill="#20A2DC"/>
<path fill-rule="evenodd" clip-rule="evenodd" d="M43.3668 61.9117C45.9563 61.9117 48.0554 59.8131 48.0554 57.2244C48.0554 54.6357 45.9563 52.5371 43.3668 52.5371C40.7774 52.5371 38.6782 54.6357 38.6782 57.2244C38.6782 59.8131 40.7774 61.9117 43.3668 61.9117ZM43.4161 59.4446C44.6699 59.4446 45.6863 58.4285 45.6863 57.175C45.6863 55.9215 44.6699 54.9053 43.4161 54.9053C42.1622 54.9053 41.1458 55.9215 41.1458 57.175C41.1458 58.4285 42.1622 59.4446 43.4161 59.4446Z" fill="#20A2DC"/>
<path fill-rule="evenodd" clip-rule="evenodd" d="M55.4092 46.7152C57.9986 46.7152 60.0978 44.6166 60.0978 42.0279C60.0978 39.4392 57.9986 37.3406 55.4092 37.3406C52.8197 37.3406 50.7206 39.4392 50.7206 42.0279C50.7206 44.6166 52.8197 46.7152 55.4092 46.7152ZM55.4584 44.2481C56.7123 44.2481 57.7287 43.2319 57.7287 41.9784C57.7287 40.725 56.7123 39.7088 55.4584 39.7088C54.2046 39.7088 53.1882 40.725 53.1882 41.9784C53.1882 43.2319 54.2046 44.2481 55.4584 44.2481Z" fill="#20A2DC"/>
<path fill-rule="evenodd" clip-rule="evenodd" d="M30.2389 51.3531C32.8283 51.3531 34.9275 49.2545 34.9275 46.6658C34.9275 44.0771 32.8283 41.9785 30.2389 41.9785C27.6494 41.9785 25.5503 44.0771 25.5503 46.6658C25.5503 49.2545 27.6494 51.3531 30.2389 51.3531ZM30.2881 48.886C31.542 48.886 32.5584 47.8699 32.5584 46.6164C32.5584 45.3629 31.542 44.3467 30.2881 44.3467C29.0343 44.3467 28.0179 45.3629 28.0179 46.6164C28.0179 47.8699 29.0343 48.886 30.2881 48.886Z" fill="#20A2DC"/>
</svg>
