<svg width="175" height="175" viewBox="0 0 175 175" fill="none" xmlns="http://www.w3.org/2000/svg">
<path fill-rule="evenodd" clip-rule="evenodd" d="M50.9607 121.508H70.6641C71.4602 121.508 72.8534 122.105 72.8534 123.697V143.202C72.8534 144.097 72.4554 145.789 70.4651 145.789H50.9607C49.866 145.789 48.5724 144.993 48.5724 143.6V123.697C48.5725 122.962 49.269 121.508 50.9607 121.508ZM68.0768 126.284H53.349V141.012H68.0768V126.284Z" fill="#516678"/>
<path d="M55.739 134.32C55.6913 133.283 56.6721 132.906 57.1685 132.847C57.4068 132.818 57.645 132.847 58.0024 133.082L59.7893 134.379L63.5418 129.605C64.1375 129.074 65.0905 129.251 65.5074 129.605C66.0435 130.135 65.9244 131.019 65.6861 131.373L60.8615 137.621C60.0037 138.046 59.3128 137.719 59.0746 137.503L56.2155 135.381C55.7986 135.028 55.7498 134.556 55.739 134.32Z" fill="#20A2DC"/>
<path fill-rule="evenodd" clip-rule="evenodd" d="M60.7129 16.3233C60.7129 13.935 63.3997 9.85498 66.9822 9.85498H111.862C114.251 9.85498 118.928 11.3477 118.928 16.3233V26.175C118.928 27.6677 118.828 29.2599 116.241 29.2599H63.4992C62.5705 29.2599 60.7129 28.8419 60.7129 27.1701V16.3233ZM67.6787 14.6317C65.987 14.6317 65.4894 16.0249 65.4894 17.02V24.3839H114.052V16.821C114.052 15.4278 112.957 14.6317 112.061 14.6317H67.6787Z" fill="#516678"/>
<path d="M55.7373 23.1897V18.4131H43.3978C37.8251 18.4131 36.4319 23.1897 36.4319 25.578V47.0727C36.9095 45.9581 39.8153 43.2248 41.2085 42.097C41.1753 37.0882 41.1289 26.792 41.2085 25.2794C41.2881 23.7669 42.7343 23.2229 43.3978 23.1897H55.7373Z" fill="#516678"/>
<path d="M123.804 23.1897V18.4131H136.342C141.039 18.4131 143.109 22.9907 143.109 25.1799V158.527C143.109 160.517 143.109 164.996 138.232 164.996H41.2095C36.4319 164.996 36.4319 159.422 36.4319 158.128V99.1176C36.5911 99.6749 39.6826 102.468 41.2085 103.795V158.128C41.2085 159.8 42.8007 160.285 43.5968 160.318H135.944C137.696 160.318 138.333 158.527 138.333 157.631V25.578C138.333 23.9858 137.039 23.1897 136.143 23.1897H123.804Z" fill="#516678"/>
<path d="M100.319 96.2317L96.3384 91.9526L92.9549 95.5351L96.8359 99.4161L92.9549 103.297L88.9744 99.217L84.8944 102.202L89.3725 106.68L87.5813 108.472C86.8847 109.069 87.0837 110.263 87.5813 110.76L120.122 142.903C123.008 144.794 124.898 140.614 123.207 139.221L93.353 109.666L102.807 100.61L115.544 113.248C117.335 114.741 120.221 111.557 118.928 109.964L104.001 95.0375C103.404 94.3409 102.11 94.54 101.613 95.0375L100.319 96.2317Z" fill="#516678"/>
<path fill-rule="evenodd" clip-rule="evenodd" d="M66.9822 108.372C86.4927 108.372 102.309 92.5559 102.309 73.0454C102.309 53.5349 86.4927 37.7185 66.9822 37.7185C47.4717 37.7185 31.6553 53.5349 31.6553 73.0454C31.6553 92.5559 47.4717 108.372 66.9822 108.372ZM66.9821 103.397C83.7447 103.397 97.3334 89.8079 97.3334 73.0454C97.3334 56.2828 83.7447 42.6941 66.9821 42.6941C50.2196 42.6941 36.6309 56.2828 36.6309 73.0454C36.6309 89.8079 50.2196 103.397 66.9821 103.397Z" fill="#516678"/>
<path d="M79.6301 60.3621L68.7616 73.7998C65.1803 78.2277 58.5941 78.7439 54.3275 74.9718C53.0173 73.8135 51.116 72.5314 49.788 73.6692C48.8543 74.4692 48.7197 75.8899 48.7856 76.4169C48.8795 77.168 59.0693 85.808 61.0339 87.4675C61.2523 87.652 61.4519 87.8584 61.6963 88.0068C62.4158 88.4437 63.3728 88.3268 63.9575 87.7423C64.5134 87.1865 78.3869 69.863 83.4972 63.4772C84.7175 61.9523 86.055 59.6418 84.5678 58.3759C84.519 58.3344 84.4687 58.2956 84.4171 58.2594C82.8122 57.1349 80.8625 58.8385 79.6301 60.3621Z" fill="#20A2DC"/>
<path d="M106.489 68.0698C106.568 66.2388 105.925 64.1225 105.593 63.2932H124.102C124.898 63.2932 126.192 64.0694 126.192 65.582C126.192 67.0946 124.898 68.0698 124.102 68.0698H106.489Z" fill="#516678"/>
<path d="M106.489 77.7224C106.688 76.0307 106.787 73.9409 106.688 72.9458H124.003C124.799 72.9458 126.093 73.722 126.093 75.2346C126.093 76.7472 124.799 77.7224 124.003 77.7224H106.489Z" fill="#20A2DC"/>
<path d="M101.115 131.26C99.0251 128.971 98.03 128.374 96.5373 126.484H84.6953C83.8992 126.484 82.6056 127.26 82.6056 128.772C82.6056 130.285 83.8992 131.26 84.6953 131.26H101.115Z" fill="#516678"/>
<path d="M110.867 140.813C108.777 138.525 107.782 137.928 106.29 136.037H84.6954C83.8993 136.037 82.6056 136.813 82.6056 138.326C82.6056 139.838 83.8993 140.813 84.6954 140.813H110.867Z" fill="#20A2DC"/>
<circle cx="123.704" cy="117.826" r="2.48781" fill="#20A2DC"/>
</svg>
