<svg width="175" height="176" viewBox="0 0 175 176" fill="none" xmlns="http://www.w3.org/2000/svg">
<path d="M41.8273 44.9963L40.69 45.5659L42.3012 47.6542H39.8371V48.6983L42.3012 48.2237L40.69 50.5968L41.8273 51.1663L42.775 48.6983L43.9123 51.1663L45.0496 50.4069L43.4384 48.2237L46.0921 48.6983V47.6542H43.4384L45.0496 45.5659L44.1966 44.9963L42.775 47.2745L41.8273 44.9963Z" fill="#20A2DC"/>
<path d="M40.949 15.4624L39.8117 16.0319L41.4228 18.1202H38.9587V19.1644L41.4228 18.6898L39.8117 21.0628L40.949 21.6324L41.8967 19.1644L43.034 21.6324L44.1712 20.873L42.5601 18.6898L45.2137 19.1644V18.1202H42.5601L44.1712 16.0319L43.3183 15.4624L41.8967 17.7405L40.949 15.4624Z" fill="#20A2DC"/>
<path d="M160.63 65.5742L159.492 66.1438L161.103 68.232H158.639V69.2762L161.103 68.8016L159.492 71.1746L160.63 71.7442L161.577 69.2762L162.715 71.7442L163.852 70.9848L162.241 68.8016L164.894 69.2762V68.232H162.241L163.852 66.1438L162.999 65.5742L161.577 67.8524L160.63 65.5742Z" fill="#20A2DC"/>
<path d="M136.732 15.9177L135.595 16.4873L137.206 18.5755H134.742V19.6197L137.206 19.1451L135.595 21.5181L136.732 22.0877L137.68 19.6197L138.817 22.0877L139.954 21.3283L138.343 19.1451L140.997 19.6197V18.5755H138.343L139.954 16.4873L139.101 15.9177L137.68 18.1959L136.732 15.9177Z" fill="#20A2DC"/>
<path d="M83.198 2.46484L82.6811 2.74523L83.4134 3.77331H82.2934V4.28735L83.4134 4.0537L82.6811 5.22197L83.198 5.50236L83.6288 4.28735L84.1457 5.50236L84.6627 5.12851L83.9303 4.0537L85.1365 4.28735V3.77331H83.9303L84.6627 2.74523L84.275 2.46484L83.6288 3.58639L83.198 2.46484Z" fill="#20A2DC"/>
<path fill-rule="evenodd" clip-rule="evenodd" d="M20.8201 11.2858C22.0763 11.2858 23.0947 10.2658 23.0947 9.00763C23.0947 7.74945 22.0763 6.72949 20.8201 6.72949C19.5639 6.72949 18.5456 7.74945 18.5456 9.00763C18.5456 10.2658 19.5639 11.2858 20.8201 11.2858ZM20.7902 9.72704C21.2034 9.72704 21.5384 9.39153 21.5384 8.97765C21.5384 8.56378 21.2034 8.22827 20.7902 8.22827C20.377 8.22827 20.042 8.56378 20.042 8.97765C20.042 9.39153 20.377 9.72704 20.7902 9.72704Z" fill="#516678"/>
<path fill-rule="evenodd" clip-rule="evenodd" d="M12.6267 54.6373C13.8829 54.6373 14.9012 53.6174 14.9012 52.3592C14.9012 51.101 13.8829 50.0811 12.6267 50.0811C11.3705 50.0811 10.3521 51.101 10.3521 52.3592C10.3521 53.6174 11.3705 54.6373 12.6267 54.6373ZM12.5967 53.0786C13.0099 53.0786 13.3449 52.7431 13.3449 52.3292C13.3449 51.9153 13.0099 51.5798 12.5967 51.5798C12.1835 51.5798 11.8485 51.9153 11.8485 52.3292C11.8485 52.7431 12.1835 53.0786 12.5967 53.0786Z" fill="#516678"/>
<path fill-rule="evenodd" clip-rule="evenodd" d="M104.642 11.9308C106.855 11.9308 108.649 10.1339 108.649 7.91737C108.649 5.70081 106.855 3.90393 104.642 3.90393C102.429 3.90393 100.635 5.70081 100.635 7.91737C100.635 10.1339 102.429 11.9308 104.642 11.9308ZM104.589 9.18469C105.317 9.18469 105.908 8.59361 105.908 7.86448C105.908 7.13535 105.317 6.54427 104.589 6.54427C103.861 6.54427 103.271 7.13535 103.271 7.86448C103.271 8.59361 103.861 9.18469 104.589 9.18469Z" fill="#516678"/>
<path fill-rule="evenodd" clip-rule="evenodd" d="M136.074 50.1849C137.395 50.1849 138.467 49.1119 138.467 47.7881C138.467 46.4644 137.395 45.3914 136.074 45.3914C134.752 45.3914 133.681 46.4644 133.681 47.7881C133.681 49.1119 134.752 50.1849 136.074 50.1849ZM136.042 48.5448C136.477 48.5448 136.829 48.1918 136.829 47.7564C136.829 47.321 136.477 46.968 136.042 46.968C135.608 46.968 135.255 47.321 135.255 47.7564C135.255 48.1918 135.608 48.5448 136.042 48.5448Z" fill="#516678"/>
<path fill-rule="evenodd" clip-rule="evenodd" d="M159.316 34.8597C160.638 34.8597 161.709 33.7867 161.709 32.463C161.709 31.1392 160.638 30.0662 159.316 30.0662C157.994 30.0662 156.923 31.1392 156.923 32.463C156.923 33.7867 157.994 34.8597 159.316 34.8597ZM159.285 33.2196C159.719 33.2196 160.072 32.8666 160.072 32.4312C160.072 31.9957 159.719 31.6428 159.285 31.6428C158.85 31.6428 158.497 31.9957 158.497 32.4312C158.497 32.8666 158.85 33.2196 159.285 33.2196Z" fill="#516678"/>
<path fill-rule="evenodd" clip-rule="evenodd" d="M59.5014 36.7374C59.3253 27.9318 67.4509 24.6541 71.5357 24.116C73.062 17.0715 83.8635 15.4572 89.0735 15.5306C111.733 16.5285 116.518 30.0843 116.077 36.7374C116.195 39.3791 115.099 43.366 114.536 45.0293C116.297 46.8491 116.64 50.8263 116.591 52.5875C116.415 61.8627 112.31 63.5455 110.28 63.2276C109.282 66.7498 104.043 74.1367 101.548 77.3899C100.374 80.3838 100.765 82.8445 101.108 83.7006L110.28 89.0573C124.828 90.6695 131.803 99.4602 134.744 107.958H130.852C126.43 96.7673 116.038 93.0319 109.62 92.7263L98.8593 107.958H94.4146L106.391 91.0386L102.282 88.5437L95.7511 96.909C95.3108 97.4226 94.577 97.1291 94.2835 96.909L87.3124 91.4789L80.488 96.909C79.901 97.3493 79.2406 97.2025 79.0204 96.909L72.4162 88.617L68.2336 91.0386L80.2734 107.958H75.7322L64.858 92.7263C50.5917 94.2833 44.5628 103.132 42.5424 112.148H38.8275C41.9796 95.275 56.6356 89.686 64.4178 89.0573L73.5903 83.7006C74.4122 82.5265 73.786 79.0043 73.3702 77.3899C70.2589 74.7482 65.9588 66.8476 64.1977 63.2276C59.5014 63.2276 58.2539 58.1643 58.1806 52.5875C58.1218 48.1259 59.8683 45.2005 60.7489 44.2955C59.6922 42.0061 59.4769 38.3028 59.5014 36.7374ZM82.5091 107.958H86.5392C86.5129 107.673 86.4477 107.434 86.3584 107.256L84.157 102.266L87.3124 99.4039L90.6145 102.266L88.4131 107.256C88.2824 107.517 88.2008 107.748 88.155 107.958H92.1262C92.2032 107.646 92.3301 107.314 92.5223 106.962L94.2835 102.926L94.3147 102.856L94.344 102.792C94.6472 102.122 95.1067 101.108 94.2835 100.505L88.4131 95.4414C87.9728 95.0011 87.0922 94.6342 86.2117 95.4414L80.488 100.505C79.901 101.018 79.6808 101.532 80.3413 102.926L82.029 106.962C82.052 107.005 82.075 107.047 82.0979 107.089L82.0984 107.09C82.2544 107.378 82.4045 107.654 82.5091 107.958ZM74.4709 30.1332L72.1227 27.5649C64.2564 28.6803 62.8279 34.6338 63.097 37.4712C63.097 41.4337 64.907 45.2984 66.0322 47.0106C65.9588 38.2784 71.4623 32.3346 74.4709 30.1332ZM74.9112 25.2167C75.1069 23.1866 78.1253 19.1262 88.6333 19.1262C101.768 19.1262 112.335 25.8038 112.482 36.2971C112.58 40.3086 111.381 48.2287 105.804 47.8178C103.505 47.6955 98.4662 46.2768 92.5224 41.5805C88.78 38.6942 81.6622 32.6281 80.6349 31.3073C78.9227 29.5951 75.3809 25.9799 74.9112 25.2167ZM69.6278 47.3041C69.2755 39.7313 74.4219 34.4626 77.0392 32.7749C101.586 57.5723 109.567 50.9486 111.836 49.0656C112.226 48.742 112.447 48.5584 112.555 48.6983C113.142 49.4615 112.8 54.3975 112.555 56.7701C111.968 60.5859 109.473 59.7298 108.299 58.8248C108.152 60.0722 98.9798 81.7927 87.1656 81.7193C77.7142 81.6606 69.2853 66.4318 66.2523 58.8248C65.0195 59.5879 64.271 59.632 64.0509 59.5586C62.2686 59.2734 62.0101 56.1487 61.795 53.5486L61.7761 53.3213C61.6 51.2079 62.143 48.9674 62.4365 48.1113C63.366 49.5789 65.6506 52.4994 67.353 52.4407C69.0554 52.382 69.5788 51.1443 69.6278 50.5328C69.5788 49.5055 69.5104 47.4215 69.6278 47.3041ZM77.5528 81.4991C77.6017 82.8689 77.2886 85.8286 75.6449 86.7091L80.0477 92.5061L86.3584 87.5163C86.7987 87.1494 87.5325 86.9293 88.3397 87.5163L94.577 92.5061L98.9798 86.7825C98.2949 86.2933 96.9545 84.5518 97.0719 81.4991C95.8244 82.7711 92.1408 85.3149 87.3857 85.3149C82.6307 85.3149 78.8492 82.7711 77.5528 81.4991Z" fill="#516678"/>
<path d="M76.4279 55.0671C76.4279 55.8719 77.2651 56.6052 77.7435 56.6052H81.8646C82.2234 56.6052 83.1204 55.9142 83.1204 55.0671C83.1204 54.2199 82.2832 53.5289 81.8646 53.5289H77.7435C77.2651 53.5289 76.4279 54.2622 76.4279 55.0671Z" fill="#20A2DC"/>
<path d="M91.6371 55.0671C91.6371 55.8719 92.4743 56.6052 92.9527 56.6052H97.0737C97.4325 56.6052 98.3295 55.9142 98.3295 55.0671C98.3295 54.2199 97.4923 53.5289 97.0737 53.5289H92.9527C92.4743 53.5289 91.6371 54.2622 91.6371 55.0671Z" fill="#20A2DC"/>
<path d="M87.4196 75.1768C82.1384 75.3774 78.8432 70.988 77.7067 69.651C76.678 68.0188 78.7829 66.9778 79.7318 68.3647C80.6009 69.6348 82.7401 72.4322 87.219 72.7768C90.8289 73.0544 94.0131 69.6565 95.1741 68.3647C96.0301 67.4123 97.7316 68.0188 97.1164 69.651C95.3115 71.7233 92.7007 74.9763 87.4196 75.1768Z" fill="#20A2DC"/>
<path d="M84.0187 64.0236C84.0187 64.8284 84.8559 65.5618 85.3343 65.5618H89.4553C89.8142 65.5618 90.7112 64.8708 90.7112 64.0236C90.7112 63.1764 89.874 62.4854 89.4553 62.4854H85.3343C84.8559 62.4854 84.0187 63.2188 84.0187 64.0236Z" fill="#516678"/>
<path d="M78.1338 122.041V117.276H32.5313C26.0161 117.276 25.1409 122.43 25.1409 124.764V145.088C25.1409 151.797 30.1002 152.867 32.5313 152.867H78.1338V148.102H32.5313C29.9058 148.102 29.9058 146.255 29.9058 145.088V124.764C29.9058 122.527 31.3644 122.041 32.5313 122.041H78.1338Z" fill="#516678"/>
<path d="M60.5206 131.072C61.6555 131.124 62.0682 130.148 62.1327 129.654C62.5454 126.765 64.6692 126.945 65.6795 127.396C67.614 128.622 66.4533 130.353 65.6795 130.943C63.358 132.715 62.9281 134.812 62.9066 135.909V138.424C62.9066 138.939 63.5127 139.713 64.3897 139.713C65.2667 139.713 66.0664 139.068 66.0664 138.424V135.909C66.0664 135.264 66.9692 134.043 67.614 133.523C69.6131 131.911 70 130.298 70 129.138C70 127.461 68.7103 123.979 64.5832 123.979C60.3916 123.979 58.9084 127.654 58.9084 129.654C58.9084 130.234 59.3856 131.021 60.5206 131.072Z" fill="#20A2DC"/>
<circle cx="64.4541" cy="144.485" r="1.67663" fill="#20A2DC"/>
<path d="M39.5699 131.072C40.7049 131.124 41.1176 130.148 41.1821 129.654C41.5948 126.765 43.7185 126.945 44.7288 127.396C46.6633 128.622 45.5026 130.353 44.7288 130.943C42.4073 132.715 41.9774 134.812 41.9559 135.909V138.424C41.9559 138.939 42.562 139.713 43.4391 139.713C44.3161 139.713 45.1157 139.068 45.1157 138.424V135.909C45.1157 135.264 46.0185 134.043 46.6633 133.523C48.6624 131.911 49.0493 130.298 49.0493 129.138C49.0493 127.461 47.7596 123.979 43.6325 123.979C39.4409 123.979 37.9578 127.654 37.9578 129.654C37.9578 130.234 38.435 131.021 39.5699 131.072Z" fill="#20A2DC"/>
<circle cx="43.5036" cy="144.485" r="1.67663" fill="#20A2DC"/>
<rect x="15.912" y="156.268" width="143.033" height="4.26364" rx="2.13182" fill="#516678"/>
<rect x="161.158" y="156.268" width="7.15163" height="4.26364" rx="2.13182" fill="#20A2DC"/>
<rect x="6.71698" y="156.268" width="7.15163" height="4.26364" rx="2.13182" fill="#20A2DC"/>
<rect x="64.4409" y="164.454" width="45.6342" height="4.26364" rx="2.13182" fill="#20A2DC"/>
<rect x="72.7845" y="170.764" width="30.139" height="4.26364" rx="2.13182" fill="#20A2DC"/>
<rect x="83.1714" y="167.353" width="8.68413" height="4.26364" fill="#20A2DC"/>
<rect x="112.118" y="164.454" width="12.6005" height="4.26364" rx="2.13182" fill="#20A2DC"/>
<rect x="49.7971" y="164.454" width="12.6005" height="4.26364" rx="2.13182" fill="#20A2DC"/>
<rect x="170.353" y="156.268" width="4.25692" height="4.26364" rx="2.12846" fill="#20A2DC"/>
<rect x="0.24646" y="156.268" width="4.25692" height="4.26364" rx="2.12846" fill="#20A2DC"/>
<path fill-rule="evenodd" clip-rule="evenodd" d="M118.298 138.771H103.289C102.919 138.742 102.171 138.899 102.136 139.752C102.102 140.605 102.777 140.847 103.118 140.861H118.792C118.584 140.182 118.419 139.484 118.298 138.771Z" fill="#20A2DC"/>
<path fill-rule="evenodd" clip-rule="evenodd" d="M103.196 147.547H121.057C121.413 147.533 122.124 147.709 122.124 148.528C122.124 149.348 121.555 149.609 121.27 149.638H103.025C102.684 149.624 102.009 149.382 102.043 148.528C102.078 147.675 102.826 147.519 103.196 147.547Z" fill="#20A2DC"/>
<path fill-rule="evenodd" clip-rule="evenodd" d="M119.661 143.111H103.196C102.826 143.082 102.078 143.239 102.043 144.092C102.009 144.945 102.684 145.187 103.025 145.201H120.839C120.399 144.536 120.005 143.838 119.661 143.111Z" fill="#516678"/>
<path fill-rule="evenodd" clip-rule="evenodd" d="M103.289 122.503H121.15C121.506 122.489 122.217 122.665 122.217 123.484C122.217 124.304 121.648 124.565 121.363 124.594H103.118C102.777 124.58 102.102 124.338 102.136 123.484C102.17 122.631 102.919 122.475 103.289 122.503Z" fill="#20A2DC"/>
<path fill-rule="evenodd" clip-rule="evenodd" d="M118.726 131.279H103.196C102.826 131.251 102.078 131.407 102.043 132.261C102.009 133.114 102.684 133.356 103.025 133.37H118.262C118.373 132.657 118.528 131.96 118.726 131.279Z" fill="#20A2DC"/>
<path fill-rule="evenodd" clip-rule="evenodd" d="M120.757 126.843H103.196C102.826 126.814 102.078 126.971 102.043 127.824C102.009 128.678 102.684 128.919 103.025 128.934H119.603C119.939 128.207 120.325 127.509 120.757 126.843Z" fill="#516678"/>
<path d="M92.02 141.06C91.5762 141.538 91.7924 142.155 91.9773 142.383L93.9406 144.388L91.8493 146.436C91.6359 146.735 91.5873 147.155 92.02 147.674C92.4468 148.186 93.1724 148.015 93.3858 147.802L95.349 145.796L97.4403 147.845C97.7817 148.058 98.4305 148.109 98.806 147.631C99.1816 147.153 99.0621 146.607 98.8914 146.436L96.8428 144.388L98.8914 142.255C99.0621 141.999 99.1048 141.393 98.7634 141.018C98.4219 140.642 97.7817 140.591 97.4403 140.847L95.349 142.852L93.4284 140.975C93.087 140.719 92.4639 140.582 92.02 141.06Z" fill="#516678"/>
<path d="M91.7226 128.289C91.6885 127.538 92.3912 127.265 92.7469 127.222C92.9176 127.202 93.0884 127.222 93.3444 127.393L94.6248 128.332L97.3136 124.876C97.7404 124.492 98.4233 124.62 98.722 124.876C99.1062 125.26 99.0208 125.9 98.8501 126.156L95.393 130.678C94.7785 130.986 94.2834 130.75 94.1127 130.593L92.064 129.057C91.7653 128.801 91.7304 128.46 91.7226 128.289Z" fill="#20A2DC"/>
<path fill-rule="evenodd" clip-rule="evenodd" d="M133.812 147.922C140.436 147.922 145.805 142.552 145.805 135.929C145.805 129.305 140.436 123.936 133.812 123.936C127.189 123.936 121.819 129.305 121.819 135.929C121.819 142.552 127.189 147.922 133.812 147.922ZM133.838 145.669C139.283 145.669 143.697 141.255 143.697 135.81C143.697 130.365 139.283 125.951 133.838 125.951C128.393 125.951 123.979 130.365 123.979 135.81C123.979 141.255 128.393 145.669 133.838 145.669Z" fill="#516678"/>
<path d="M138.17 131.318L134.325 136.065C133.041 137.65 130.695 137.846 129.165 136.496C128.696 136.082 128.017 135.625 127.543 136.035C127.212 136.32 127.165 136.823 127.188 137.01C127.219 137.257 130.321 139.9 131.348 140.769C131.566 140.954 131.769 141.193 132.053 141.227C132.251 141.251 132.457 141.187 132.6 141.044C132.798 140.847 137.707 134.727 139.548 132.43C139.997 131.869 140.436 130.785 139.786 130.479C139.135 130.171 138.623 130.759 138.17 131.318Z" fill="#20A2DC"/>
<path d="M82.1067 117.239C82.6802 112.364 86.8265 111.324 88.8279 111.414L149.444 111.503C153.674 111.933 155.09 115.984 155.269 117.956V154.623C154.695 158.495 151.326 160.239 149.713 160.628H137.166L134.209 156.236H148.727C150.232 156.236 150.848 154.922 150.967 154.265V117.956C150.896 116.02 149.265 115.715 148.458 115.805H88.8279C86.6054 115.948 86.2888 117.418 86.4083 118.224V153.638C86.1215 155.788 87.8421 156.266 88.7383 156.236H133.274L130.137 160.448H87.6629C82.7161 159.516 81.8976 155.52 82.1067 153.638V117.239Z" fill="#516678"/>
</svg>
