<svg width="175" height="176" viewBox="0 0 175 176" fill="none" xmlns="http://www.w3.org/2000/svg">
<path d="M48.2357 43.0246L47.0984 43.5941L48.7096 45.6824H46.2455V46.7266L48.7096 46.252L47.0984 48.625L48.2357 49.1945L49.1834 46.7266L50.3207 49.1945L51.458 48.4352L49.8468 46.252L52.5005 46.7266V45.6824H49.8468L51.458 43.5941L50.605 43.0246L49.1834 45.3027L48.2357 43.0246Z" fill="#20A2DC"/>
<path d="M47.3574 13.4905L46.2201 14.0601L47.8313 16.1484H45.3672V17.1925L47.8313 16.7179L46.2201 19.091L47.3574 19.6605L48.3051 17.1925L49.4424 19.6605L50.5797 18.9011L48.9686 16.7179L51.6222 17.1925V16.1484H48.9686L50.5797 14.0601L49.7267 13.4905L48.3051 15.7687L47.3574 13.4905Z" fill="#20A2DC"/>
<path d="M167.038 63.6024L165.901 64.1719L167.512 66.2602H165.048V67.3043L167.512 66.8297L165.901 69.2028L167.038 69.7723L167.986 67.3043L169.123 69.7723L170.26 69.0129L168.649 66.8297L171.303 67.3043V66.2602H168.649L170.26 64.1719L169.407 63.6024L167.986 65.8805L167.038 63.6024Z" fill="#20A2DC"/>
<path d="M128.352 16.4106L127.215 16.9802L128.826 19.0685H126.362V20.1126L128.826 19.638L127.215 22.0111L128.352 22.5806L129.3 20.1126L130.437 22.5806L131.574 21.8212L129.963 19.638L132.617 20.1126V19.0685H129.963L131.574 16.9802L130.721 16.4106L129.3 18.6888L128.352 16.4106Z" fill="#20A2DC"/>
<path d="M89.6064 0.492981L89.0895 0.773367L89.8218 1.80145H88.7018V2.31549L89.8218 2.08183L89.0895 3.25011L89.6064 3.5305L90.0372 2.31549L90.5542 3.5305L91.0711 3.15665L90.3388 2.08183L91.545 2.31549V1.80145H90.3388L91.0711 0.773367L90.6834 0.492981L90.0372 1.61452L89.6064 0.492981Z" fill="#20A2DC"/>
<path fill-rule="evenodd" clip-rule="evenodd" d="M27.2285 9.31396C28.4847 9.31396 29.5031 8.29401 29.5031 7.03583C29.5031 5.77765 28.4847 4.75769 27.2285 4.75769C25.9723 4.75769 24.954 5.77765 24.954 7.03583C24.954 8.29401 25.9723 9.31396 27.2285 9.31396ZM27.1986 7.75524C27.6118 7.75524 27.9468 7.41973 27.9468 7.00585C27.9468 6.59198 27.6118 6.25647 27.1986 6.25647C26.7854 6.25647 26.4504 6.59198 26.4504 7.00585C26.4504 7.41973 26.7854 7.75524 27.1986 7.75524Z" fill="#516678"/>
<path fill-rule="evenodd" clip-rule="evenodd" d="M19.0351 52.6656C20.2913 52.6656 21.3096 51.6456 21.3096 50.3874C21.3096 49.1293 20.2913 48.1093 19.0351 48.1093C17.7789 48.1093 16.7606 49.1293 16.7606 50.3874C16.7606 51.6456 17.7789 52.6656 19.0351 52.6656ZM19.0051 51.1069C19.4184 51.1069 19.7534 50.7714 19.7534 50.3575C19.7534 49.9436 19.4184 49.6081 19.0051 49.6081C18.5919 49.6081 18.2569 49.9436 18.2569 50.3575C18.2569 50.7714 18.5919 51.1069 19.0051 51.1069Z" fill="#516678"/>
<path fill-rule="evenodd" clip-rule="evenodd" d="M86.4029 27.2125C88.6159 27.2125 90.41 25.4157 90.41 23.1991C90.41 20.9825 88.6159 19.1857 86.4029 19.1857C84.1898 19.1857 82.3958 20.9825 82.3958 23.1991C82.3958 25.4157 84.1898 27.2125 86.4029 27.2125ZM86.3501 24.4664C87.0781 24.4664 87.6682 23.8753 87.6682 23.1462C87.6682 22.4171 87.0781 21.826 86.3501 21.826C85.6221 21.826 85.032 22.4171 85.032 23.1462C85.032 23.8753 85.6221 24.4664 86.3501 24.4664Z" fill="#516678"/>
<path fill-rule="evenodd" clip-rule="evenodd" d="M142.482 48.2132C143.804 48.2132 144.875 47.1401 144.875 45.8164C144.875 44.4927 143.804 43.4196 142.482 43.4196C141.161 43.4196 140.089 44.4927 140.089 45.8164C140.089 47.1401 141.161 48.2132 142.482 48.2132ZM142.451 46.5731C142.886 46.5731 143.238 46.2201 143.238 45.7847C143.238 45.3492 142.886 44.9962 142.451 44.9962C142.016 44.9962 141.664 45.3492 141.664 45.7847C141.664 46.2201 142.016 46.5731 142.451 46.5731Z" fill="#516678"/>
<path fill-rule="evenodd" clip-rule="evenodd" d="M165.725 32.8878C167.046 32.8878 168.118 31.8147 168.118 30.491C168.118 29.1673 167.046 28.0942 165.725 28.0942C164.403 28.0942 163.332 29.1673 163.332 30.491C163.332 31.8147 164.403 32.8878 165.725 32.8878ZM165.693 31.2477C166.128 31.2477 166.48 30.8947 166.48 30.4592C166.48 30.0238 166.128 29.6708 165.693 29.6708C165.258 29.6708 164.906 30.0238 164.906 30.4592C164.906 30.8947 165.258 31.2477 165.693 31.2477Z" fill="#516678"/>
<path fill-rule="evenodd" clip-rule="evenodd" d="M87.1635 117.127C93.8407 117.127 99.2537 111.714 99.2537 105.037C99.2537 98.36 93.8407 92.9471 87.1635 92.9471C80.4863 92.9471 75.0734 98.36 75.0734 105.037C75.0734 111.714 80.4863 117.127 87.1635 117.127ZM87.1635 113.008C91.3676 113.008 94.7758 109.6 94.7758 105.395C94.7758 101.191 91.3676 97.783 87.1635 97.783C82.9593 97.783 79.5512 101.191 79.5512 105.395C79.5512 109.6 82.9593 113.008 87.1635 113.008Z" fill="#516678"/>
<path d="M76.148 116.948C74.7151 116.017 73.7002 114.351 73.3718 113.635C64.7027 118.936 62.2369 128.979 62.0876 133.337V137.725C62.3742 141.236 65.1923 141.994 66.5655 141.935H107.941C111.451 142.006 112.329 138.919 112.329 137.367V132.8C111.469 121.838 104.508 115.456 101.134 113.635C101.206 114.279 99.4328 116.112 98.5372 116.948C105.63 121.032 107.762 129.576 107.941 133.337V137.725H66.5655V133.337C66.8521 124.525 73.0733 118.739 76.148 116.948Z" fill="#516678"/>
<path fill-rule="evenodd" clip-rule="evenodd" d="M51.2513 106.201C57.9285 106.201 63.3414 100.789 63.3414 94.1113C63.3414 87.4341 57.9285 82.0212 51.2513 82.0212C44.5741 82.0212 39.1611 87.4341 39.1611 94.1113C39.1611 100.789 44.5741 106.201 51.2513 106.201ZM51.2512 102.082C55.4554 102.082 58.8635 98.6738 58.8635 94.4697C58.8635 90.2655 55.4554 86.8573 51.2512 86.8573C47.0471 86.8573 43.6389 90.2655 43.6389 94.4697C43.6389 98.6738 47.0471 102.082 51.2512 102.082Z" fill="#516678"/>
<path d="M40.1462 106.112C39.2148 105.539 37.8476 103.604 37.2804 102.709C28.6113 107.867 26.2052 117.993 26.0858 122.411V127.247C26.444 130.041 28.7427 130.979 29.8472 131.098H58.0575C58.1292 128.949 58.6844 127.277 58.9531 126.71H30.5636V121.426C30.9935 113.115 37.1311 107.754 40.1462 106.112Z" fill="#516678"/>
<path d="M62.3562 106.022C63.2159 105.378 64.5653 103.545 65.1325 102.709C68.858 104.786 71.0432 108.052 71.6701 109.425C71.0253 109.425 69.1924 111.097 68.3565 111.933C67.5684 109.999 64.0279 107.187 62.3562 106.022Z" fill="#516678"/>
<path fill-rule="evenodd" clip-rule="evenodd" d="M123.344 106.201C130.021 106.201 135.434 100.789 135.434 94.1113C135.434 87.4341 130.021 82.0212 123.344 82.0212C116.667 82.0212 111.254 87.4341 111.254 94.1113C111.254 100.789 116.667 106.201 123.344 106.201ZM123.344 102.082C127.548 102.082 130.957 98.6738 130.957 94.4697C130.957 90.2655 127.548 86.8573 123.344 86.8573C119.14 86.8573 115.732 90.2655 115.732 94.4697C115.732 98.6738 119.14 102.082 123.344 102.082Z" fill="#516678"/>
<path d="M134.36 106.201C135.291 105.628 136.658 103.694 137.226 102.798C145.895 107.957 148.301 118.083 148.42 122.501V127.337C148.062 130.131 145.763 131.068 144.659 131.188H116.448C116.377 129.038 115.822 127.367 115.553 126.8H143.942V121.516C143.512 113.205 137.375 107.843 134.36 106.201Z" fill="#516678"/>
<path d="M112.15 106.112C111.29 105.467 109.941 103.634 109.373 102.798C105.648 104.876 103.463 108.142 102.836 109.515C103.481 109.515 105.314 111.187 106.149 112.023C106.937 110.088 110.478 107.276 112.15 106.112Z" fill="#516678"/>
<path d="M59.0543 66.3488V62.05H31.9186C21.1718 62.05 17.5 71.0953 17.5 75.985V137.188C17.5 147.129 26.187 151.338 30.8439 151.338H142.073C153.895 151.338 157.208 142.114 157.208 137.188V75.4835C157.208 65.8114 148.253 62.4978 143.775 62.05H115.654V66.3488H142.252C151.924 66.4204 153.328 74.0805 152.82 77.9016V137.188C152.82 144.8 146.282 146.95 142.073 146.95H31.9186C23.769 146.95 21.8883 140.054 21.8883 137.099V76.1104C21.8883 69.125 28.2468 66.3488 31.9186 66.3488H59.0543Z" fill="#516678"/>
<path fill-rule="evenodd" clip-rule="evenodd" d="M77.7256 44.0492C78.4421 44.3835 79.5435 44.6232 79.7855 43.3327C79.9305 42.5593 81.3079 40.0191 83.5468 39.9296H90.7114C92.4129 39.9296 94.3131 41.9743 94.3832 42.8849C94.4532 43.7956 95.0101 44.9626 96.8012 43.9596C97.6008 43.5118 100.204 43.1536 101.369 44.2283L106.832 49.6912C107.369 50.2286 108.074 53.0207 107.19 54.2586C106.706 54.9359 106.384 55.9602 108.175 56.5871C109.07 56.9453 111.13 58.3782 111.13 60.2589V66.7966C111.13 67.7817 109.787 70.8266 108.264 71.0953C107.19 71.3639 106.115 71.9908 107.19 74.0506C107.548 74.588 107.906 76.8269 106.921 77.812L101.458 83.4541C100.473 84.4392 98.055 84.7079 96.6221 83.7228C96.0848 83.4242 94.9205 83.1496 94.5623 84.4392C94.1145 86.0512 91.9652 87.9319 90.4427 87.9319H84.0842C82.8304 87.9319 80.2662 86.499 79.9646 85.0661C79.6441 83.5436 78.3526 83.1854 77.3674 83.7228C76.4779 84.2079 74.6807 84.4392 73.3374 83.5436C71.5463 82.2898 68.2143 79.1081 67.5162 77.9911C66.6206 76.5582 66.3208 74.6775 67.2475 73.1551C67.9562 71.9908 67.158 71.5699 66.1729 71.2744C65.1877 70.9788 63.1279 69.0355 63.1279 67.3339V60.6171C63.1279 59.2738 64.4713 56.9453 66.7998 56.3184C67.3072 56.1692 68.1252 55.6199 67.3371 54.6169C67.2475 54.5273 65.8146 52.1093 67.3371 50.0495C68.8894 48.1986 72.0836 44.7656 72.9792 44.2283C73.9643 43.6372 75.5763 43.0461 77.7256 44.0492ZM83.75 46.9647V44.7476C83.75 44.3781 83.8793 43.8239 84.7661 43.8239H89.7544C90.2763 43.8239 90.6782 44.0522 90.6782 44.7476V46.9647C92.1562 47.1494 95.4448 47.9254 96.775 49.5512L98.5302 47.796C98.992 47.3342 99.3615 47.4265 100.008 48.0732L103.334 51.3987C103.688 51.753 104.073 52.3225 103.334 52.9691L101.763 54.4471C102.595 55.4633 104.257 58.0868 104.257 60.4516H106.567C106.936 60.4516 107.583 60.4885 107.583 61.3753V66.2713C107.583 66.7332 107.398 67.4722 106.567 67.4722H104.257C103.919 69.0734 102.779 72.5159 101.671 73.4766L103.426 75.1394C103.703 75.4165 103.796 75.9708 103.241 76.6174L99.731 80.1277C99.4539 80.4049 98.8997 80.5896 98.4378 80.1277L96.775 78.3726C95.8204 79.1116 93.2832 80.645 90.7705 80.8667V83.1761C90.7705 83.5457 90.5858 84.0999 89.7544 84.0999H84.489C84.2118 84.0999 83.75 83.8597 83.75 83.2685V80.8667C82.3951 80.682 79.2974 79.9245 77.7455 78.3726L76.0827 80.0354C75.7132 80.4049 74.9742 80.3125 74.5123 79.8506L71.1868 76.5251C70.9096 76.2479 70.6325 75.5089 71.0944 74.9547L72.7572 73.4766C72.0182 72.4297 70.4847 69.7631 70.263 67.4722H67.9536C67.4917 67.4722 66.9375 67.1027 66.9375 66.3637V61.283C66.9375 60.8211 67.307 60.3592 68.046 60.3592L70.263 60.4516C70.5094 59.0967 71.3346 55.9991 72.6648 54.4471L71.0944 52.7844C70.8173 52.5072 70.6325 52.0453 71.2792 51.3987L74.6047 47.9808C74.8818 47.7037 75.6208 47.3342 76.2675 47.9808L77.7455 49.4588C78.7924 48.689 81.459 47.1125 83.75 46.9647Z" fill="#516678"/>
<path d="M96.6874 70.0378L88.0338 70.0378C86.9849 70.0332 86.1982 70.2954 86.1982 71.6066C86.1982 72.9177 86.9849 73.18 88.0338 73.18H96.6874C97.9986 73.18 98.523 72.9177 98.523 71.6066C98.523 70.2954 97.9986 70.0332 96.6874 70.0378Z" fill="#516678"/>
<path d="M96.6874 62.1755L88.0338 62.1755C86.9849 62.1709 86.1982 62.4331 86.1982 63.7443C86.1982 65.0554 86.9849 65.3177 88.0338 65.3177H96.6874C97.9986 65.3177 98.523 65.0554 98.523 63.7443C98.523 62.4331 97.9986 62.1709 96.6874 62.1755Z" fill="#20A2DC"/>
<path d="M96.6874 54.3132L88.0338 54.3132C86.9849 54.3086 86.1982 54.5708 86.1982 55.882C86.1982 57.1931 86.9849 57.4554 88.0338 57.4554H96.6874C97.9986 57.4554 98.523 57.1931 98.523 55.882C98.523 54.5708 97.9986 54.3086 96.6874 54.3132Z" fill="#516678"/>
<path d="M75.5922 72.4553C75.5553 71.643 76.3155 71.3477 76.7002 71.3015C76.8849 71.2794 77.0695 71.3015 77.3465 71.4861L78.7314 72.5015L81.6398 68.7632C82.1014 68.3478 82.8401 68.4863 83.1632 68.7632C83.5787 69.1785 83.4863 69.8708 83.3017 70.1477L79.5624 75.0398C78.8976 75.3721 78.3621 75.1167 78.1775 74.9475L75.9616 73.286C75.6384 73.0091 75.6006 72.6399 75.5922 72.4553Z" fill="#20A2DC"/>
<path d="M75.5922 64.4435C75.5553 63.6313 76.3155 63.3359 76.7002 63.2897C76.8849 63.2676 77.0695 63.2897 77.3465 63.4743L78.7314 64.4897L81.6398 60.7514C82.1014 60.336 82.8401 60.4745 83.1632 60.7514C83.5787 61.1668 83.4863 61.859 83.3017 62.136L79.5624 67.028C78.8976 67.3603 78.3621 67.1049 78.1775 66.9357L75.9616 65.2743C75.6384 64.9973 75.6006 64.6281 75.5922 64.4435Z" fill="#20A2DC"/>
<path d="M75.5922 56.4318C75.5553 55.6195 76.3155 55.3242 76.7002 55.278C76.8849 55.2559 77.0695 55.278 77.3465 55.4626L78.7314 56.478L81.6398 52.7397C82.1014 52.3243 82.8401 52.4628 83.1632 52.7397C83.5787 53.1551 83.4863 53.8473 83.3017 54.1242L79.5624 59.0163C78.8976 59.3486 78.3621 59.0932 78.1775 58.924L75.9616 57.2625C75.6384 56.9856 75.6006 56.6164 75.5922 56.4318Z" fill="#20A2DC"/>
<rect x="15.912" y="156.268" width="143.033" height="4.26364" rx="2.13182" fill="#516678"/>
<rect x="161.158" y="156.268" width="7.15163" height="4.26364" rx="2.13182" fill="#20A2DC"/>
<rect x="6.71698" y="156.268" width="7.15163" height="4.26364" rx="2.13182" fill="#20A2DC"/>
<rect x="64.4409" y="164.454" width="45.6342" height="4.26364" rx="2.13182" fill="#20A2DC"/>
<rect x="72.7844" y="170.764" width="30.139" height="4.26364" rx="2.13182" fill="#20A2DC"/>
<rect x="83.1714" y="167.353" width="8.68413" height="4.26364" fill="#20A2DC"/>
<rect x="112.118" y="164.454" width="12.6005" height="4.26364" rx="2.13182" fill="#20A2DC"/>
<rect x="49.7971" y="164.454" width="12.6005" height="4.26364" rx="2.13182" fill="#20A2DC"/>
<rect x="170.353" y="156.268" width="4.25692" height="4.26364" rx="2.12846" fill="#20A2DC"/>
<rect x="0.24646" y="156.268" width="4.25692" height="4.26364" rx="2.12846" fill="#20A2DC"/>
</svg>
