<svg width="175" height="175" viewBox="0 0 175 175" fill="none" xmlns="http://www.w3.org/2000/svg">
<path fill-rule="evenodd" clip-rule="evenodd" d="M86.9577 110.574C96.3261 110.574 103.921 102.98 103.921 93.6112C103.921 84.2428 96.3261 76.6482 86.9577 76.6482C77.5893 76.6482 69.9948 84.2428 69.9948 93.6112C69.9948 102.98 77.5893 110.574 86.9577 110.574ZM87.0947 103.734C92.6099 103.734 97.0809 99.263 97.0809 93.7478C97.0809 88.2325 92.6099 83.7615 87.0947 83.7615C81.5794 83.7615 77.1084 88.2325 77.1084 93.7478C77.1084 99.263 81.5794 103.734 87.0947 103.734Z" fill="#20A2DC"/>
<path fill-rule="evenodd" clip-rule="evenodd" d="M56.8623 157.906C55.7679 150.2 53.6339 133.967 53.8527 132.325C54.1263 130.273 55.3575 127.811 57.4095 126.853V120.424C57.8199 117.095 60.6653 109.945 68.7637 107.975C70.1773 109.662 73.4969 113.201 75.4668 113.857C72.3205 113.538 65.6447 114.541 64.1126 121.108V125.212H110.487V121.518C110.305 118.965 107.861 113.857 99.5433 113.857C101.595 112.261 105.699 108.851 105.699 107.975C109.21 108.659 116.452 112.325 117.327 121.518V126.853C118.467 127.4 120.72 129.48 120.61 133.42C119.561 141.445 117.546 157.578 117.874 157.906H111.217L113.907 134.104C113.998 133.42 113.88 132.052 112.676 132.052H62.1973C61.6045 132.052 60.4736 132.462 60.6925 134.104L63.3821 157.906H56.8623Z" fill="#516678"/>
<path d="M45.6447 160.275C45.6447 161.228 46.5492 163.652 48.3806 163.652H126.356C128.407 163.652 129.091 161.278 129.091 160.275C129.091 159.271 128.407 157.085 126.346 157.085H48.3806C46.686 157.085 45.6447 159.322 45.6447 160.275Z" fill="#20A2DC"/>
<circle cx="87.3681" cy="145.458" r="3.41995" fill="#20A2DC"/>
<path fill-rule="evenodd" clip-rule="evenodd" d="M16.6609 76.2387H21.5092C20.9587 79.6937 20.6728 83.2369 20.6728 86.8469C20.6728 109.705 32.1372 129.886 49.6299 141.952V147.52C29.3727 134.878 15.8944 112.389 15.8944 86.7514C15.8944 83.18 16.156 79.6697 16.6609 76.2387ZM153.631 76.2387H158.288C158.793 79.6697 159.055 83.18 159.055 86.7514C159.055 112.504 145.456 135.08 125.047 147.69V142.269C142.8 130.241 154.468 109.906 154.468 86.8469C154.468 83.2369 154.182 79.6937 153.631 76.2387ZM118.013 21.9938C108.751 17.6181 98.3984 15.1711 87.4746 15.1711C76.6888 15.1711 66.4602 17.5567 57.2876 21.8289C57.4677 22.7675 57.562 23.7366 57.562 24.7277C57.562 25.5473 57.4975 26.3518 57.3734 27.1364C66.4448 22.5398 76.705 19.9495 87.5702 19.9495C98.5186 19.9495 108.853 22.5796 117.975 27.2425C117.84 26.4243 117.77 25.5842 117.77 24.7277C117.77 23.7945 117.853 22.8809 118.013 21.9938Z" fill="#516678"/>
<path fill-rule="evenodd" clip-rule="evenodd" d="M132.682 35.0489C139.227 35.0489 144.533 29.7433 144.533 23.1985C144.533 16.6537 139.227 11.3481 132.682 11.3481C126.138 11.3481 120.832 16.6537 120.832 23.1985C120.832 29.7433 126.138 35.0489 132.682 35.0489ZM132.778 30.2706C136.631 30.2706 139.755 27.1471 139.755 23.2941C139.755 19.4411 136.631 16.3177 132.778 16.3177C128.925 16.3177 125.802 19.4411 125.802 23.2941C125.802 27.1471 128.925 30.2706 132.778 30.2706Z" fill="#20A2DC"/>
<path fill-rule="evenodd" clip-rule="evenodd" d="M111.658 68.1151C110.893 62.7315 109.402 51.3908 109.555 50.244C109.746 48.8104 110.607 47.0902 112.04 46.4213V41.9296C112.327 39.6041 114.315 34.6091 119.972 33.2329C120.96 34.4116 123.279 36.8836 124.655 37.3423C122.457 37.1193 117.793 37.8202 116.723 42.4074V45.2744H149.12V42.6941C148.993 40.9102 147.285 37.3423 141.475 37.3423C142.908 36.2274 145.775 33.8445 145.775 33.2329C148.228 33.7107 153.287 36.272 153.899 42.6941V46.4213C154.695 46.8035 156.269 48.2562 156.192 51.0085C155.46 56.6151 154.052 67.8858 154.281 68.1151H149.631L151.51 51.4867C151.573 51.0089 151.491 50.0532 150.65 50.0532H115.385C114.971 50.0532 114.181 50.3399 114.334 51.4867L116.213 68.1151H111.658Z" fill="#516678"/>
<path d="M103.821 69.7697C103.821 70.4354 104.453 72.1289 105.733 72.1289H160.206C161.64 72.1289 162.117 70.4705 162.117 69.7697C162.117 69.0689 161.64 67.5417 160.199 67.5417H105.733C104.549 67.5417 103.821 69.104 103.821 69.7697Z" fill="#20A2DC"/>
<circle cx="132.969" cy="59.4187" r="2.38919" fill="#20A2DC"/>
<path fill-rule="evenodd" clip-rule="evenodd" d="M41.7028 35.0489C48.2475 35.0489 53.5532 29.7433 53.5532 23.1985C53.5532 16.6537 48.2475 11.3481 41.7028 11.3481C35.158 11.3481 29.8524 16.6537 29.8524 23.1985C29.8524 29.7433 35.158 35.0489 41.7028 35.0489ZM41.7983 30.2706C45.6513 30.2706 48.7747 27.1471 48.7747 23.2941C48.7747 19.4411 45.6513 16.3177 41.7983 16.3177C37.9453 16.3177 34.8219 19.4411 34.8219 23.2941C34.8219 27.1471 37.9453 30.2706 41.7983 30.2706Z" fill="#20A2DC"/>
<path fill-rule="evenodd" clip-rule="evenodd" d="M20.6778 68.1151C19.9133 62.7315 18.4224 51.3908 18.5753 50.244C18.7664 48.8104 19.6266 47.0902 21.0601 46.4213V41.9296C21.3468 39.6041 23.3346 34.6091 28.9922 33.2329C29.9797 34.4116 32.2988 36.8836 33.675 37.3423C31.477 37.1193 26.8132 37.8202 25.7429 42.4074V45.2744H58.1404V42.6941C58.0129 40.9102 56.3055 37.3423 50.4949 37.3423C51.9284 36.2274 54.7955 33.8445 54.7955 33.2329C57.2484 33.7107 62.3071 36.272 62.9187 42.6941V46.4213C63.7151 46.8035 65.2888 48.2562 65.2124 51.0085C64.4797 56.6151 63.0716 67.8858 63.301 68.1151H58.6505L60.5295 51.4867C60.5932 51.0089 60.5103 50.0532 59.6693 50.0532H24.4049C23.9907 50.0532 23.2007 50.3399 23.3536 51.4867L25.2325 68.1151H20.6778Z" fill="#516678"/>
<path d="M12.8413 69.7697C12.8413 70.4354 13.4733 72.1289 14.7527 72.1289H69.2263C70.6598 72.1289 71.1376 70.4705 71.1376 69.7697C71.1376 69.0689 70.6598 67.5417 69.2193 67.5417H14.7527C13.5688 67.5417 12.8413 69.104 12.8413 69.7697Z" fill="#20A2DC"/>
<circle cx="41.9895" cy="59.4187" r="2.38919" fill="#20A2DC"/>
</svg>
