<svg width="175" height="175" viewBox="0 0 175 175" fill="none" xmlns="http://www.w3.org/2000/svg">
<path fill-rule="evenodd" clip-rule="evenodd" d="M20.9727 12.1543C12.6884 12.1543 5.97269 18.87 5.97269 27.1543V73.449C5.97269 81.7333 12.6884 88.449 20.9727 88.449H67.2883C75.5726 88.449 82.2883 81.7333 82.2883 73.449V27.1543C82.2883 18.87 75.5726 12.1543 67.2883 12.1543H20.9727ZM76.643 17.38H10.7816V83.2233H76.643V17.38Z" fill="#516678"/>
<path fill-rule="evenodd" clip-rule="evenodd" d="M69.7433 49.8836H48.4168C47.3713 49.9881 45.2387 49.591 45.0714 47.1663V24.5914C45.2108 23.6856 45.9496 21.9159 47.7895 22.0831C55.5605 22.2921 71.3742 27.476 72.4614 46.5392C72.775 47.654 72.6705 49.8836 69.7433 49.8836ZM50.0894 27.3088V44.7625H67.1297C65.9797 32.639 55.2119 27.901 50.0894 27.3088Z" fill="#516678"/>
<path fill-rule="evenodd" clip-rule="evenodd" d="M41.3079 34.6248V52.9146H59.6027C60.5087 52.9843 62.279 53.7925 62.1117 56.4681C61.5193 63.993 55.9228 79.022 38.2761 78.9384C30.8885 78.9036 15.8833 74.1308 14.9633 55.3184C14.7891 48.2812 19.2077 33.7887 38.2761 32.1165C39.2867 32.0119 41.3079 32.3673 41.3079 34.6248ZM36.1853 37.2375V55.7364C36.1504 56.4331 36.5616 57.8684 38.4852 58.0356H56.6755C56.0831 63.2961 51.6993 73.859 38.9034 74.0262C32.8399 74.6533 20.504 68.8005 20.504 55.7364C20.504 50.5107 23.6402 39.495 36.1853 37.2375Z" fill="#516678"/>
<path d="M168.326 70.2637L142.504 53.1235L139.368 57.095L165.399 74.5488C168.326 74.9668 169.685 71.7269 168.326 70.2637Z" fill="#516678"/>
<path fill-rule="evenodd" clip-rule="evenodd" d="M118.251 68.3825C133.84 68.3825 146.477 55.7486 146.477 40.1639C146.477 24.5792 133.84 11.9453 118.251 11.9453C102.662 11.9453 90.0244 24.5792 90.0244 40.1639C90.0244 55.7486 102.662 68.3825 118.251 68.3825ZM118.355 63.1569C131.115 63.1569 141.459 52.8158 141.459 40.0595C141.459 27.3031 131.115 16.962 118.355 16.962C105.595 16.962 95.2515 27.3031 95.2515 40.0595C95.2515 52.8158 105.595 63.1569 118.355 63.1569Z" fill="#516678"/>
<path d="M115.533 22.6058C109.762 23.8599 106.542 26.4728 105.81 27.8314C104.974 30.4443 107.483 31.8029 108.946 31.1759C112.187 28.7721 114.627 27.9011 115.533 27.8314C118.355 27.6144 118.564 26.1592 118.564 25.3231C118.732 23.1492 116.892 22.3968 115.533 22.6058Z" fill="#20A2DC"/>
<path fill-rule="evenodd" clip-rule="evenodd" d="M116.578 111.442C110.342 111.442 105.288 116.497 105.288 122.732V170.178H110.208V123.442C110.208 119.92 113.063 117.065 116.585 117.065C120.107 117.065 122.962 119.92 122.962 123.442V170.178H127.869V122.732C127.869 116.497 122.814 111.442 116.578 111.442Z" fill="#516678"/>
<path d="M114.09 134.311C114.09 132.868 115.26 131.698 116.704 131.698C118.147 131.698 119.317 132.868 119.317 134.311V170.159H114.09V134.311Z" fill="#516678"/>
<path fill-rule="evenodd" clip-rule="evenodd" d="M88.5608 139.451C82.3252 139.451 77.2703 144.506 77.2703 150.742V170.178H82.1364V150.363C82.1364 146.817 85.0111 143.942 88.5571 143.942C92.1031 143.942 94.9777 146.817 94.9777 150.363V170.178H99.8513V150.742C99.8513 144.506 94.7964 139.451 88.5608 139.451Z" fill="#516678"/>
<path d="M86.0187 157.306C86.0187 155.863 87.1888 154.693 88.6322 154.693C90.0756 154.693 91.2458 155.863 91.2458 157.306V170.37H86.0187V157.306Z" fill="#516678"/>
<path fill-rule="evenodd" clip-rule="evenodd" d="M60.3345 118.758C54.0989 118.758 49.0439 123.813 49.0439 130.048V170.178H54.0648V130.012C54.0648 126.49 56.9199 123.635 60.4418 123.635C63.9638 123.635 66.8189 126.49 66.8189 130.012V170.178H71.625V130.048C71.625 123.813 66.5701 118.758 60.3345 118.758Z" fill="#516678"/>
<path d="M57.6483 146.555C57.6483 145.112 58.8185 143.942 60.2619 143.942C61.7053 143.942 62.8754 145.112 62.8754 146.555V170.279H57.6483V146.555Z" fill="#516678"/>
<path d="M68.1751 106.216L83.4383 118.653L86.5745 118.862L89.7108 119.072L91.3834 116.981L106.019 97.3328L109.678 100.886L94.3106 121.371L86.5745 118.862L78.6293 121.371L64.5162 109.874L68.1751 106.216Z" fill="#516678"/>
<path d="M36.5905 116.317C35.8229 115.095 36.1916 113.483 37.4139 112.715L50.4709 104.52L53.2503 108.945L40.1934 117.141C38.9711 117.908 37.358 117.539 36.5905 116.317Z" fill="#516678"/>
<path d="M136.679 96.8996C136.477 98.3285 135.155 99.3234 133.726 99.1218L120.224 97.2167L120.955 92.0423L134.457 93.9474C135.885 94.149 136.88 95.4708 136.679 96.8996Z" fill="#516678"/>
<path fill-rule="evenodd" clip-rule="evenodd" d="M87.2017 135.271C92.6868 135.271 97.1332 130.826 97.1332 125.342C97.1332 119.859 92.6868 115.413 87.2017 115.413C81.7167 115.413 77.2703 119.859 77.2703 125.342C77.2703 130.826 81.7167 135.271 87.2017 135.271ZM87.3063 130.045C89.9622 130.045 92.1152 127.893 92.1152 125.238C92.1152 122.582 89.9622 120.43 87.3063 120.43C84.6504 120.43 82.4974 122.582 82.4974 125.238C82.4974 127.893 84.6504 130.045 87.3063 130.045Z" fill="#516678"/>
<path fill-rule="evenodd" clip-rule="evenodd" d="M112.71 103.081C118.195 103.081 122.641 98.6357 122.641 93.1521C122.641 87.6686 118.195 83.2234 112.71 83.2234C107.225 83.2234 102.779 87.6686 102.779 93.1521C102.779 98.6357 107.225 103.081 112.71 103.081ZM112.814 97.8553C115.47 97.8553 117.623 95.7029 117.623 93.0477C117.623 90.3926 115.47 88.2401 112.814 88.2401C110.159 88.2401 108.006 90.3926 108.006 93.0477C108.006 95.7029 110.159 97.8553 112.814 97.8553Z" fill="#516678"/>
<path fill-rule="evenodd" clip-rule="evenodd" d="M59.3936 112.905C64.8786 112.905 69.3251 108.46 69.3251 102.976C69.3251 97.4929 64.8786 93.0476 59.3936 93.0476C53.9086 93.0476 49.4622 97.4929 49.4622 102.976C49.4622 108.46 53.9086 112.905 59.3936 112.905ZM59.4981 107.68C62.154 107.68 64.3071 105.527 64.3071 102.872C64.3071 100.217 62.154 98.0643 59.4981 98.0643C56.8423 98.0643 54.6892 100.217 54.6892 102.872C54.6892 105.527 56.8423 107.68 59.4981 107.68Z" fill="#516678"/>
<path d="M163.969 169.632H11.248C10.3226 169.561 8.45034 169.952 8.36491 172.084C8.27949 174.216 9.96662 174.82 10.8209 174.856H164.503C165.214 174.784 166.638 174.131 166.638 172.084C166.638 170.037 164.859 169.597 163.969 169.632Z" fill="#516678"/>
</svg>
