<svg width="175" height="175" viewBox="0 0 175 175" fill="none" xmlns="http://www.w3.org/2000/svg">
<path d="M25.2614 12.8413C20.5137 12.8413 18.5413 17.0247 18.5485 19.4569C18.6782 63.8204 18.8598 153.54 18.5485 157.509C18.2371 161.479 20.1695 161.86 22.4093 161.86L26.1424 161.412L26.5261 160.317C23.4129 159.227 23.1534 157.801 23.4129 156.925V36.4824H151.444V31.8126H23.4129V20.4298C23.4129 17.7057 24.8722 17.6084 26.9153 17.6084H149.109C151.542 17.6084 151.542 19.4569 151.542 21.0135V157.412C151.542 159.358 149.693 158.844 148.526 158.844H146.58L146.872 161.86C149.142 161.73 153.954 162.133 155.044 161.199C156.134 160.265 156.309 159.066 156.309 157.412C156.309 113.405 156.417 24.2228 156.309 19.5542C156.212 15.3708 152.028 12.8413 149.596 12.8413H25.2614Z" fill="#516678"/>
<path d="M152.931 156.791H21.7119C20.7865 156.72 18.9142 157.111 18.8288 159.243C18.7434 161.375 20.4305 161.979 21.2848 162.014H153.465C154.177 161.943 155.6 161.289 155.6 159.243C155.6 157.196 153.821 156.755 152.931 156.791Z" fill="#516678"/>
<path fill-rule="evenodd" clip-rule="evenodd" d="M77.8945 63.334C77.8945 60.9018 80.5212 56.6211 84.7047 56.6211H90.1528C93.1687 56.6211 96.963 59.637 96.963 63.334V69.074C98.1305 69.4632 100.465 70.9614 100.465 73.8411V86.5859C100.465 88.3047 99.2006 92.4232 94.8226 92.4232H80.424C78.6727 92.4232 74.3921 90.9639 74.3921 87.1697V74.133C74.3272 72.8358 74.9369 70.008 77.8945 69.074V63.334ZM82.7588 68.6849V63.5286C82.7588 62.8476 83.4398 61.4856 85.191 61.4856H89.7636C90.6392 61.4856 92.0985 61.8942 92.0985 63.5286V68.6849H82.7588Z" fill="#516678"/>
<path d="M73.2246 108.573V111.881L70.1114 109.935C68.3603 108.962 66.3173 112.076 67.3873 113.243L71.0843 116.064L67.4847 118.788C66.1225 119.956 67.8737 123.166 70.1115 121.999L73.2246 120.248V123.653C73.2246 124.723 74.001 125.696 75.5595 125.696C77.1161 125.696 77.8945 124.529 77.8945 123.653V120.248L80.8131 121.999C83.4398 123.264 84.8991 119.956 83.7318 118.886L80.1321 116.064L83.5372 113.632C85.4829 111.978 82.3697 108.768 80.7159 110.13L77.8945 111.881V108.573C77.9269 107.86 77.5053 106.433 75.5595 106.433C73.6138 106.433 73.1922 107.86 73.2246 108.573Z" fill="#516678"/>
<path d="M49.4789 108.573V111.881L46.3657 109.935C44.6146 108.962 42.5715 112.076 43.6416 113.243L47.3385 116.064L43.739 118.788C42.3768 119.956 44.128 123.166 46.3657 121.999L49.4789 120.248V123.653C49.4789 124.723 50.2553 125.696 51.8138 125.696C53.3703 125.696 54.1488 124.529 54.1488 123.653V120.248L57.0674 121.999C59.6941 123.264 61.1534 119.956 59.9861 118.886L56.3864 116.064L59.7915 113.632C61.7372 111.978 58.6239 108.768 56.9701 110.13L54.1488 111.881V108.573C54.1812 107.86 53.7596 106.433 51.8138 106.433C49.868 106.433 49.4465 107.86 49.4789 108.573Z" fill="#20A2DC"/>
<path d="M96.9556 108.573V111.881L93.8424 109.935C92.0913 108.962 90.0482 112.076 91.1183 113.243L94.8152 116.064L91.2156 118.788C89.8535 119.956 91.6046 123.166 93.8424 121.999L96.9556 120.248V123.653C96.9556 124.723 97.732 125.696 99.2905 125.696C100.847 125.696 101.625 124.529 101.625 123.653V120.248L104.544 121.999C107.171 123.264 108.63 119.956 107.463 118.886L103.863 116.064L107.268 113.632C109.214 111.978 106.101 108.768 104.447 110.13L101.625 111.881V108.573C101.658 107.86 101.236 106.433 99.2905 106.433C97.3447 106.433 96.9232 107.86 96.9556 108.573Z" fill="#20A2DC"/>
<path d="M120.694 108.573V111.881L117.581 109.935C115.83 108.962 113.787 112.076 114.857 113.243L118.554 116.064L114.954 118.788C113.592 119.956 115.343 123.166 117.581 121.999L120.694 120.248V123.653C120.694 124.723 121.47 125.696 123.029 125.696C124.585 125.696 125.364 124.529 125.364 123.653V120.248L128.283 121.999C130.909 123.264 132.369 119.956 131.201 118.886L127.601 116.064L131.007 113.632C132.952 111.978 129.839 108.768 128.185 110.13L125.364 111.881V108.573C125.396 107.86 124.975 106.433 123.029 106.433C121.083 106.433 120.662 107.86 120.694 108.573Z" fill="#516678"/>
<path d="M47.054 144.622C47.054 142.8 48.5457 142.207 49.2916 142.138H125.663C126.376 142.31 127.803 143.048 127.803 144.622C127.803 146.195 126.376 146.864 125.663 147.002H49.2916C48.5457 146.968 47.054 146.443 47.054 144.622Z" fill="#516678"/>
<circle cx="35.1848" cy="24.8077" r="2.43221" fill="#20A2DC"/>
<circle cx="44.9137" cy="24.8077" r="2.43221" fill="#516678"/>
<circle cx="54.6425" cy="24.8077" r="2.43221" fill="#20A2DC"/>
<path d="M94.5307 24.7105C94.6085 23.1539 95.6982 22.4729 96.5737 22.4729H140.354C141.035 22.4729 142.007 23.3074 142.007 24.7105C142.007 26.2671 140.84 27.0455 140.354 27.0455H96.5737C95.5036 27.0455 94.4529 26.2671 94.5307 24.7105Z" fill="#20A2DC"/>
</svg>
