<svg width="175" height="175" viewBox="0 0 175 175" fill="none" xmlns="http://www.w3.org/2000/svg">
<path d="M3.02174 23.4887C3.71665 17.582 8.74024 16.3225 11.1652 16.4311L165.239 16.5397C170.364 17.0608 172.079 21.9686 172.297 24.3574V133.588C171.602 138.279 167.519 140.392 165.565 140.863H150.364L146.781 135.542H164.37C166.194 135.542 166.94 133.95 167.085 133.154V24.3574C166.998 22.012 165.022 21.6429 164.045 21.7515H11.1652C8.47241 21.9252 8.08877 23.7059 8.23354 24.6831V132.394C7.88609 134.999 9.97081 135.579 11.0566 135.542H94.8797L91.0794 140.646H9.75365C3.76008 139.516 2.76839 134.674 3.02174 132.394V23.4887Z" fill="#516678"/>
<path fill-rule="evenodd" clip-rule="evenodd" d="M96.2912 126.639L94.9883 125.01H18.7657V52.9135L39.2872 32.3921L135.923 32.1749L156.444 52.9135V125.01H146.346L145.043 126.639V130.222C147.07 130.258 152.209 130.309 156.553 130.222C160.896 130.135 161.837 126.566 161.764 124.793V32.1749C161.678 28.1792 158.181 27.0355 156.444 26.9631H18.9829C14.3791 27.1369 13.3729 30.6548 13.4453 32.3921V125.01C13.4453 129.093 17.3542 130.33 19.3086 130.222H96.2912V126.639ZM156.444 32.3921H143.632L156.444 45.313V32.3921ZM31.5781 32.3921H18.7657V45.313L31.5781 32.3921Z" fill="#20A2DC"/>
<path d="M130.357 52.1616H44.9555C43.4132 52.1616 41.4808 52.4935 41.3548 54.7062C41.2289 56.9188 42.8703 57.5826 44.3256 57.5826H131.144C132.231 57.5826 133.962 56.6026 133.86 54.7062C133.751 52.6965 131.579 52.1616 130.357 52.1616Z" fill="#20A2DC"/>
<path d="M130.359 65.1831H44.9576C43.4152 65.1831 41.4829 65.515 41.3569 67.7276C41.2309 69.9403 42.8723 70.6041 44.3277 70.6041H131.146C132.233 70.6041 133.964 69.6241 133.862 67.7276C133.753 65.718 131.581 65.1831 130.359 65.1831Z" fill="#516678"/>
<path d="M80.6296 78.647H44.9576C43.4152 78.647 41.4829 78.9789 41.3569 81.1915C41.2309 83.4041 42.8723 84.0679 44.3277 84.0679H81.4171C82.5037 84.0679 84.2351 83.088 84.1325 81.1915C84.0238 79.1819 81.8522 78.647 80.6296 78.647Z" fill="#20A2DC"/>
<path fill-rule="evenodd" clip-rule="evenodd" d="M51.1223 118.387C57.5987 118.387 62.8488 113.137 62.8488 106.66C62.8488 100.184 57.5987 94.9338 51.1223 94.9338C44.6459 94.9338 39.3958 100.184 39.3958 106.66C39.3958 113.137 44.6459 118.387 51.1223 118.387ZM51.1223 112.089C54.1206 112.089 56.5512 109.659 56.5512 106.66C56.5512 103.662 54.1206 101.231 51.1223 101.231C48.124 101.231 45.6933 103.662 45.6933 106.66C45.6933 109.659 48.124 112.089 51.1223 112.089Z" fill="#516678"/>
<path fill-rule="evenodd" clip-rule="evenodd" d="M123.776 97.3836C126.02 96.7537 128.685 96.9354 130.679 99.4695C132.007 101.157 133.849 102.511 135.859 103.265C137.918 104.037 139.808 105.611 140.009 108.441C140.161 110.583 140.78 112.78 141.997 114.55C143.507 116.746 144.278 119.755 142.029 122.892C140.777 124.639 140.16 126.845 139.975 128.987C139.799 131.022 138.756 133.084 135.882 133.986C133.94 134.596 132.144 135.77 130.863 137.352C129.284 139.302 126.847 140.872 123.657 139.944C121.737 139.386 119.634 139.254 117.698 139.756C115.257 140.388 112.319 140.221 110.236 137.611C108.975 136.03 107.301 134.707 105.413 133.982C103.332 133.182 101.4 131.615 101.243 128.852C101.115 126.6 100.549 124.247 99.3466 122.337C98.0353 120.254 97.4483 117.484 99.444 114.578C100.665 112.801 101.269 110.588 101.386 108.435C101.497 106.39 102.439 104.302 105.157 103.323C107.216 102.582 109.105 101.217 110.481 99.5154C111.967 97.6769 114.329 96.3167 117.672 97.3567C119.631 97.9664 121.8 97.9383 123.776 97.3836ZM129.184 106.842C129.347 106.968 129.516 107.089 129.69 107.205C131.769 108.582 133.892 110.436 134.192 112.912C134.246 113.35 134.311 113.828 134.381 114.334C134.76 117.094 135.25 120.666 134.437 122.933C133.628 125.185 132.128 128.678 129.995 129.763C129.602 129.963 129.221 130.195 128.857 130.466C126.765 132.022 124.503 133.6 121.925 133.209C119.179 132.793 114.46 131.53 112.136 130.01C111.998 129.92 111.856 129.833 111.708 129.75C109.504 128.518 107.314 126.585 106.991 124.081C106.928 123.59 106.847 123.053 106.761 122.487C106.359 119.826 105.859 116.528 106.672 114.346C107.546 112 109.346 108.328 111.508 107.065C111.662 106.975 111.815 106.88 111.967 106.78C114.276 105.253 117.023 103.778 119.77 104.123C122.491 104.464 127.014 105.165 129.184 106.842Z" fill="#516678"/>
<path fill-rule="evenodd" clip-rule="evenodd" d="M120.722 128.593C126.178 128.593 130.602 124.169 130.602 118.712C130.602 113.256 126.178 108.832 120.722 108.832C115.265 108.832 110.841 113.256 110.841 118.712C110.841 124.169 115.265 128.593 120.722 128.593ZM120.722 122.73C122.94 122.73 124.739 120.931 124.739 118.713C124.739 116.494 122.94 114.695 120.722 114.695C118.503 114.695 116.704 116.494 116.704 118.713C116.704 120.931 118.503 122.73 120.722 122.73Z" fill="#20A2DC"/>
<path d="M136.504 139.343C139.023 138.735 140.739 137.569 141.282 137.062L148.013 146.4C149.924 149.527 148.013 152.154 145.625 151.938L139.001 151.286L138.35 154.544L137.698 156.932C136.927 159.023 132.447 158.724 130.357 156.335L128.686 154.001L122.063 144.88C124.321 145.923 127.637 145.532 129.012 145.206L133.681 151.504C133.681 144.902 138.893 145.351 141.499 146.4L136.504 139.343Z" fill="#516678"/>
<path d="M105.086 139.343C102.567 138.735 100.852 137.569 100.309 137.062L93.5769 146.4C91.6659 149.527 93.5769 152.154 95.9656 151.938L102.589 151.286L103.24 154.544L103.892 156.932C104.663 159.023 109.143 158.724 111.233 156.335L112.904 154.001L119.527 144.88C117.269 145.923 113.954 145.532 112.578 145.206L107.909 151.504C107.909 144.902 102.698 145.351 100.092 146.4L105.086 139.343Z" fill="#516678"/>
</svg>
