<svg width="175" height="175" viewBox="0 0 175 175" fill="none" xmlns="http://www.w3.org/2000/svg">
<rect x="26.138" y="49.7043" width="26.6061" height="4.77074" fill="#20A2DC"/>
<rect x="86.6899" y="60.7146" width="26.6061" height="4.77074" fill="#20A2DC"/>
<path fill-rule="evenodd" clip-rule="evenodd" d="M97.5667 88.0544H115.681V83.2837H97.5667V88.0544Z" fill="#20A2DC"/>
<path fill-rule="evenodd" clip-rule="evenodd" d="M49.3255 72.0911H26.1381V76.8618H43.8253L49.3255 72.0911Z" fill="#20A2DC"/>
<path fill-rule="evenodd" clip-rule="evenodd" d="M22.7435 95.147V44.567C22.7435 41.9981 25.5876 38.5118 29.0739 38.5118H32.7437V35.7595C32.7437 33.9246 34.1016 30.8786 37.331 30.0713V22.3647C37.331 20.3463 39.0741 16.2178 43.6614 16.2178H95.6808C98.0662 16.2178 102.103 18.1444 102.103 22.9152V41.0807C103.938 41.7229 106.507 43.6495 106.507 46.8606V49.7965H110.635C111.92 49.7965 116.599 51.7231 116.599 56.4021V101.218H112.195V98.8801H102.936L97.6075 95.1599V94.4763H112.195V76.586H97.5666V76.409C97.5666 75.7328 97.18 74.3803 95.44 74.3803H92.1316C91.8876 74.338 91.6332 74.3079 91.3688 74.2924H83.1118V56.1269C83.387 54.0167 85.0568 49.7965 89.5339 49.7965H93.112V46.8606C93.2955 45.3009 94.4882 41.9614 97.791 41.0807V22.9152C97.791 21.9977 97.5157 20.805 95.6808 20.805H43.6614C42.8357 20.805 41.7348 21.0803 41.7348 22.5482V30.0713C43.1721 30.3771 46.2303 32.3649 46.2303 35.7595V38.5118H50.267C51.9185 38.5118 56.414 40.8054 56.414 45.1175V65.9421L51.9185 69.8414V65.3014H27.239V83.3751H36.3154L31.2382 87.7789H27.239V91.2477L22.7435 95.147ZM27.1474 45.1179V60.898H51.735V45.1179C51.735 44.4756 51.4598 43.0995 49.9001 43.0995H29.5327C28.6153 43.0995 27.1474 43.3747 27.1474 45.1179ZM87.6072 72.0901V56.3099C87.6072 54.5668 89.0751 54.2915 89.9926 54.2915H110.36C111.92 54.2915 112.195 55.6677 112.195 56.3099V72.0901H87.6072Z" fill="#516678"/>
<path fill-rule="evenodd" clip-rule="evenodd" d="M21.7342 154.929V107.963L19.7158 109.798C18.8901 110.624 16.9212 110.165 16.413 109.431C15.5872 108.239 15.6791 107.046 16.413 106.587L58.0652 70.4396C59.258 69.5222 60.2672 69.9809 60.8176 70.4396L79.7171 86.7702V80.8068C79.7171 79.5224 81.0016 78.8801 82.0107 78.8801H91.1852C92.8367 78.8801 93.2036 80.1646 93.2036 80.8068V98.2383L101.828 105.761H148.985C150.159 105.761 150.819 106.557 151.003 106.954L159.077 120.441C160.086 122.459 157.884 123.652 157.15 123.652H152.563V155.204C152.563 157.773 151.003 158.629 150.361 158.874H23.8444C22.0828 157.993 21.7342 156.213 21.7342 154.929ZM26.1379 104.11L59.5331 75.1182L93.2036 104.11V154.936H28.6151C26.4132 154.936 26.1379 153.468 26.1379 152.459V104.11ZM97.7909 110.165V119.064H153.113L147.7 110.165H97.7909ZM84.2127 90.44V83.3756H88.7999V94.4767L84.2127 90.44ZM97.7909 123.561V154.937H145.865C146.783 154.937 148.067 154.387 148.067 152.46V123.561H97.7909Z" fill="#516678"/>
<path d="M133.29 21.0808C135.33 17.2275 133.535 16.4324 132.464 16.2183C129.987 15.8513 127.51 19.9798 129.345 24.7506C130.968 28.9709 131.271 29.2461 130.171 31.1727C129.345 33.3746 131.638 34.659 133.015 34.1086C134.391 33.5581 136.776 30.1635 134.758 26.2185C133.209 23.1916 133.015 21.6007 133.29 21.0808Z" fill="#20A2DC"/>
<path d="M142.183 21.0114C144.223 17.1582 142.427 16.363 141.357 16.149C138.88 15.782 136.403 19.9105 138.238 24.6812C139.861 28.9015 140.164 29.1768 139.063 31.1034C138.238 33.3053 140.531 34.5897 141.907 34.0392C143.284 33.4888 145.669 30.0942 143.651 26.1492C142.102 23.1223 141.907 21.5313 142.183 21.0114Z" fill="#20A2DC"/>
<rect x="128.159" y="74.2925" width="16.5141" height="4.77074" fill="#20A2DC"/>
<path d="M129.076 101.174L133.48 44.2001H139.076L144.122 101.174H148.526L143.572 44.2001H144.122C144.826 44.2001 146.251 43.7597 146.324 41.9982C146.398 40.2367 144.887 39.7352 144.122 39.7046H128.342C127.608 39.8575 126.159 40.5303 126.232 41.9982C126.305 43.4661 127.425 44.0778 127.975 44.2001H129.076L124.581 101.174H129.076Z" fill="#516678"/>
<path fill-rule="evenodd" clip-rule="evenodd" d="M112.195 154.883V136.586C112.195 135.118 112.654 133.742 114.672 133.742H131.186C132.195 133.742 133.48 134.292 133.48 136.586V154.883H112.195ZM129.422 137.763H116.019V152.507H129.422V137.763Z" fill="#20A2DC"/>
<circle cx="58.1158" cy="97.8975" r="0.978103" fill="#516678"/>
<circle cx="55.5336" cy="100.792" r="0.978103" fill="#D9D9D9"/>
<circle cx="55.5336" cy="100.792" r="0.978103" fill="#20A2DC"/>
<circle cx="63.7496" cy="103.218" r="0.978103" fill="#516678"/>
<circle cx="52.5601" cy="103.218" r="0.978103" fill="#516678"/>
<circle cx="49.1955" cy="105.331" r="0.978103" fill="#20A2DC"/>
<circle cx="45.6743" cy="106.896" r="0.978103" fill="#516678"/>
<circle cx="41.9183" cy="108.07" r="0.978103" fill="#20A2DC"/>
<circle cx="38.0841" cy="108.618" r="0.978103" fill="#516678"/>
<circle cx="38.3189" cy="112.452" r="0.978103" fill="#20A2DC"/>
<circle cx="38.7103" cy="116.208" r="0.978103" fill="#516678"/>
<circle cx="39.4143" cy="119.885" r="0.978103" fill="#20A2DC"/>
<circle cx="40.2753" cy="123.563" r="0.978103" fill="#516678"/>
<circle cx="41.3705" cy="127.241" r="0.978103" fill="#20A2DC"/>
<circle cx="42.7009" cy="130.762" r="0.978103" fill="#516678"/>
<circle cx="44.3441" cy="134.126" r="0.978103" fill="#20A2DC"/>
<circle cx="46.3785" cy="137.335" r="0.978103" fill="#516678"/>
<circle cx="48.8042" cy="140.308" r="0.978103" fill="#20A2DC"/>
<circle cx="51.5429" cy="142.89" r="0.978103" fill="#516678"/>
<circle cx="54.6728" cy="145.003" r="0.978103" fill="#20A2DC"/>
<circle cx="58.1158" cy="146.489" r="0.978103" fill="#516678"/>
<circle cx="61.5588" cy="145.003" r="0.978103" fill="#20A2DC"/>
<circle cx="64.6886" cy="142.89" r="0.978103" fill="#516678"/>
<circle cx="67.4272" cy="140.308" r="0.978103" fill="#20A2DC"/>
<circle cx="78.1474" cy="108.696" r="0.978103" fill="#516678"/>
<circle cx="74.313" cy="108.07" r="0.978103" fill="#20A2DC"/>
<circle cx="70.6354" cy="106.896" r="0.978103" fill="#516678"/>
<circle cx="67.0362" cy="105.331" r="0.978103" fill="#20A2DC"/>
<circle cx="60.7762" cy="100.792" r="0.978103" fill="#20A2DC"/>
<path d="M33.3893 104.743C46.6915 103.178 54.8293 95.51 57.4115 91.9889C57.8419 91.2846 58.507 91.4742 58.8982 91.9889C65.4422 100.596 76.6606 104.117 83.0378 104.743C84.2507 104.862 84.3861 105.37 84.368 105.761L83.9376 112.451C83.6507 112.242 82.8656 111.793 82.0205 111.668L82.49 106.543C77.13 106.191 65.8231 103.178 58.1157 94.1407C55.39 97.6488 46.8479 105.135 33.8196 106.582C34.2891 118.867 39.0623 144.337 58.1549 150.753C60.6457 150.036 66.7778 147.037 71.3788 141.09L72.9437 142.146C71.1832 144.754 65.7606 150.479 58.1549 152.514C37.732 146.958 32.1895 119.089 31.9026 105.761C31.8832 104.861 32.8024 104.812 33.3893 104.743Z" fill="#516678"/>
<path fill-rule="evenodd" clip-rule="evenodd" d="M79.4776 130.175C84.2096 130.175 88.0457 126.339 88.0457 121.607C88.0457 116.875 84.2096 113.039 79.4776 113.039C74.7456 113.039 70.9095 116.875 70.9095 121.607C70.9095 126.339 74.7456 130.175 79.4776 130.175ZM79.4898 128.222C83.1084 128.222 86.0419 125.289 86.0419 121.67C86.0419 118.051 83.1084 115.118 79.4898 115.118C75.8711 115.118 72.9377 118.051 72.9377 121.67C72.9377 125.289 75.8711 128.222 79.4898 128.222Z" fill="#516678"/>
<path d="M75.7613 122.233C75.7263 121.475 76.447 121.2 76.8118 121.156C76.9869 121.136 77.162 121.156 77.4246 121.329L78.7378 122.276L81.4955 118.789C81.9332 118.402 82.6336 118.531 82.94 118.789C83.3339 119.176 83.2464 119.822 83.0713 120.08L79.5257 124.643C78.8954 124.953 78.3876 124.715 78.2125 124.557L76.1115 123.007C75.8051 122.749 75.7692 122.405 75.7613 122.233Z" fill="#20A2DC"/>
<path fill-rule="evenodd" clip-rule="evenodd" d="M54.204 127.35H50.0985C49.5629 127.469 48.483 127.984 48.4473 129.09V131.768C48.4027 132.467 48.6704 133.847 50.0985 133.776H66.4315C66.8778 133.821 67.8149 133.481 67.9934 131.768V129.269C67.9786 128.689 67.6454 127.493 66.4315 127.35H62.2813C61.6566 126.502 60.6748 123.958 62.6383 120.656C66.0299 116.818 64.2895 110.291 58.2204 110.08C54.3825 109.946 49.0274 114.81 53.847 120.879C54.6205 122.069 55.7749 125.029 54.204 127.35ZM50.5895 129.447V131.634H65.7623V129.447H62.1476C61.2104 129.432 59.3183 128.43 59.2469 124.538C59.3213 123.482 59.7378 120.995 60.8088 119.496C61.4782 118.826 62.2368 117.532 62.2368 116.149C62.2368 114.855 61.4336 112.082 58.1759 112.043C56.7925 112.026 54.338 112.936 54.1149 116.059C54.1149 116.773 54.2488 118.201 55.6768 119.496C55.9 119.698 57.2822 122.53 57.1941 124.538C57.1197 126.234 56.4712 129.59 54.4719 129.447H50.5895Z" fill="#20A2DC"/>
<path d="M74.2478 132.959C74.2478 133.917 75.244 134.471 75.8132 134.471H86.0594C86.4863 134.471 87.5536 133.967 87.5536 132.959C87.5536 131.951 86.5575 131.447 86.0594 131.447H75.8132C75.244 131.447 74.2478 132.001 74.2478 132.959Z" fill="#516678"/>
<path d="M69.6111 137.797C69.6111 138.755 70.6072 139.309 71.1765 139.309H81.4226C81.8496 139.309 82.9169 138.805 82.9169 137.797C82.9169 136.789 81.9207 136.285 81.4226 136.285H71.1765C70.6072 136.285 69.6111 136.84 69.6111 137.797Z" fill="#516678"/>
</svg>
