<svg width="175" height="175" viewBox="0 0 175 175" fill="none" xmlns="http://www.w3.org/2000/svg">
<path fill-rule="evenodd" clip-rule="evenodd" d="M57.9081 18.0901C58.0845 13.7173 60.9127 4.99288 70.815 5.07752C80.7172 5.16215 83.5454 13.8584 83.7218 18.0901H93.2432C96.417 18.0901 100.543 21.5813 100.543 25.9189V32.1607C100.543 33.8534 99.8024 35.9692 97.1576 35.9692C96.6872 35.9692 95.3045 35.9734 93.2538 35.9797C83.405 36.0095 58.1503 36.086 44.5781 35.9692C43.3086 35.9692 41.1927 35.0171 41.1927 32.5839V25.6015C41.1927 22.8508 43.8376 18.0901 48.3867 18.0901H57.9081ZM63.092 19.7829V17.3496C63.092 14.9164 65.4829 10.3461 70.8149 10.2615C76.1469 10.1768 78.5378 14.9164 78.5378 17.3496V19.7829C78.5378 21.264 79.7016 23.1683 81.7116 23.1683H92.82C93.8779 23.1683 95.2744 23.7607 95.359 25.7073C95.4436 27.6539 95.3943 29.9038 95.359 30.7854H46.3766V25.7073C46.4471 24.861 46.9055 23.1683 48.9156 23.1683H59.8124C61.0819 23.1683 63.092 22.322 63.092 19.7829Z" fill="#516678"/>
<path d="M50.3968 61.9406C50.3968 60.1182 51.4874 59.5246 52.0326 59.4556H107.865C108.386 59.6281 109.43 60.3667 109.43 61.9406C109.43 63.5144 108.386 64.184 107.865 64.3221H52.0326C51.4874 64.2876 50.3968 63.7629 50.3968 61.9406Z" fill="#516678"/>
<path d="M50.3968 75.059C50.3968 73.2366 51.4874 72.643 52.0326 72.574H80.147C79.9206 73.6672 79.5358 76.171 79.8074 77.4405H78.2427H52.0326C51.4874 77.406 50.3968 76.8813 50.3968 75.059Z" fill="#516678"/>
<path d="M50.3968 113.464C50.3968 115.287 51.4874 115.88 52.0326 115.949H82.1349C81.7117 114.257 81.2885 113.939 80.8653 111.083H78.2427H52.0326C51.4874 111.117 50.3968 111.642 50.3968 113.464Z" fill="#516678"/>
<path d="M50.3968 126.371C50.3968 128.194 51.4874 128.787 52.0326 128.856H89.1172C88.3545 127.375 87.213 126.635 86.2608 123.99H78.2427H52.0326C51.4874 124.024 50.3968 124.549 50.3968 126.371Z" fill="#516678"/>
<path d="M50.3968 139.066C50.3968 140.889 51.4874 141.482 52.0326 141.551H101.178C100.014 140.705 97.8981 139.118 95.7822 136.685H78.2427H52.0326C51.4874 136.719 50.3968 137.244 50.3968 139.066Z" fill="#516678"/>
<path d="M50.3968 87.7543C50.3968 85.932 51.4874 85.3383 52.0326 85.2693H79.8074V90.1358H78.2427H52.0326C51.4874 90.1013 50.3968 89.5767 50.3968 87.7543Z" fill="#516678"/>
<path d="M50.3968 100.661C50.3968 98.8387 51.4874 98.2451 52.0326 98.176H79.8074V103.043H78.2427H52.0326C51.4874 103.008 50.3968 102.483 50.3968 100.661Z" fill="#20A2DC"/>
<path d="M36.1147 29.7272V24.4375H25.1122C20.0341 24.4375 17.9182 29.7272 17.9182 32.1604V162.498C17.9182 164.931 17.9182 169.625 23.1021 169.625H109.733H119.827C123.818 169.625 123.818 164.508 123.818 163.027V151.601C121.109 152.532 119.163 151.989 118.528 151.601V162.498C118.528 164.931 116.835 164.931 115.46 164.931H25.6412C23.1021 164.931 23.1021 163.45 23.1021 161.969V32.1604C23.1021 30.2561 24.689 29.7272 25.8528 29.7272H36.1147Z" fill="#516678"/>
<path d="M105.621 24.4375V29.6214H116.412C117.682 29.6214 118.634 31.1025 118.634 32.1604V54.4829C120.538 53.8481 122.442 54.1655 123.712 54.4829V31.5257C123.712 25.9186 118.845 24.4375 116.412 24.4375H105.621Z" fill="#516678"/>
<path fill-rule="evenodd" clip-rule="evenodd" d="M87.3187 71.9385C86.155 71.7165 84.9913 72.9964 84.9913 74.2659C84.9913 74.5265 84.9902 75.2783 84.9887 76.3907C84.9812 81.7913 84.962 95.691 84.9913 103.148C85.3792 113.233 93.1585 136.113 121.173 146.946C132.422 142.75 155.407 128.115 157.354 103.148V74.6891C157.354 73.5254 156.931 71.9385 154.815 71.9385C147.445 73.1375 130.8 72.4886 123.183 60.3012C122.548 59.5606 120.855 58.5238 119.163 60.3012C115.918 65.6614 105.621 75.4297 87.3187 71.9385ZM90.3979 81.3693C90.3915 85.9593 90.3752 97.774 90.4001 104.112C90.7301 112.684 97.4749 131.077 121.179 141.55C130.8 137.636 150.16 124.835 151.959 104.112V79.9234V77.3337C144.87 78.3916 128.79 76.1699 121.173 66.0138C118.413 70.5697 105.938 79.238 90.4001 77.5453V79.5637C90.4001 79.7852 90.3992 80.424 90.3979 81.3693Z" fill="#20A2DC"/>
<path fill-rule="evenodd" clip-rule="evenodd" d="M121.067 121.45C131.233 121.45 139.475 113.209 139.475 103.042C139.475 92.8756 131.233 84.634 121.067 84.634C110.9 84.634 102.659 92.8756 102.659 103.042C102.659 113.209 110.9 121.45 121.067 121.45ZM121.173 116.795C128.71 116.795 134.82 110.685 134.82 103.147C134.82 95.6103 128.71 89.5001 121.173 89.5001C113.635 89.5001 107.525 95.6103 107.525 103.147C107.525 110.685 113.635 116.795 121.173 116.795Z" fill="#516678"/>
<path d="M114.721 104.435C114.661 103.106 115.905 102.623 116.535 102.547C116.837 102.511 117.139 102.547 117.592 102.849L119.859 104.511L124.618 98.3931C125.374 97.7134 126.583 97.94 127.111 98.3931C127.791 99.0729 127.64 100.206 127.338 100.659L121.219 108.665C120.131 109.209 119.254 108.791 118.952 108.514L115.326 105.795C114.797 105.342 114.735 104.737 114.721 104.435Z" fill="#20A2DC"/>
<path d="M30.7213 63.3872C30.6609 62.0579 31.9049 61.5745 32.5344 61.499C32.8367 61.4627 33.1389 61.499 33.5921 61.8011L35.8586 63.4627L40.6181 57.345C41.3735 56.6653 42.5823 56.8919 43.1111 57.345C43.7911 58.0248 43.64 59.1577 43.3378 59.6108L37.2184 67.6167C36.1305 68.1605 35.2542 67.7425 34.952 67.4656L31.3257 64.7467C30.7969 64.2935 30.7351 63.6893 30.7213 63.3872Z" fill="#516678"/>
<path d="M30.7213 75.4106C30.6609 74.0813 31.9049 73.598 32.5344 73.5224C32.8367 73.4862 33.1389 73.5224 33.5921 73.8245L35.8586 75.4861L40.6181 69.3685C41.3735 68.6887 42.5823 68.9153 43.1111 69.3685C43.7911 70.0482 43.64 71.1811 43.3378 71.6343L37.2184 79.6401C36.1305 80.1839 35.2542 79.766 34.952 79.4891L31.3257 76.7701C30.7969 76.3169 30.7351 75.7127 30.7213 75.4106Z" fill="#516678"/>
<path d="M30.7213 87.434C30.6609 86.1048 31.9049 85.6214 32.5344 85.5459C32.8367 85.5096 33.1389 85.5459 33.5921 85.848L35.8586 87.5096L40.6181 81.3919C41.3735 80.7121 42.5823 80.9387 43.1111 81.3919C43.7911 82.0716 43.64 83.2045 43.3378 83.6577L37.2184 91.6635C36.1305 92.2073 35.2542 91.7894 34.952 91.5125L31.3257 88.7935C30.7969 88.3404 30.7351 87.7362 30.7213 87.434Z" fill="#516678"/>
<path d="M30.7213 99.4577C30.6609 98.1285 31.9049 97.6451 32.5344 97.5696C32.8367 97.5333 33.1389 97.5696 33.5921 97.8717L35.8586 99.5333L40.6181 93.4156C41.3735 92.7358 42.5823 92.9624 43.1111 93.4156C43.7911 94.0953 43.64 95.2282 43.3378 95.6814L37.2184 103.687C36.1305 104.231 35.2542 103.813 34.952 103.536L31.3257 100.817C30.7969 100.364 30.7351 99.7598 30.7213 99.4577Z" fill="#516678"/>
<path d="M30.7213 115.649C30.6609 114.32 31.9049 113.837 32.5344 113.761C32.8367 113.725 33.1389 113.761 33.5921 114.063L35.8586 115.725L40.6181 109.607C41.3735 108.927 42.5823 109.154 43.1111 109.607C43.7911 110.287 43.64 111.42 43.3378 111.873L37.2184 119.879C36.1305 120.423 35.2542 120.005 34.952 119.728L31.3257 117.009C30.7969 116.556 30.7351 115.951 30.7213 115.649Z" fill="#516678"/>
<path d="M30.7213 127.71C30.6609 126.38 31.9049 125.897 32.5344 125.822C32.8367 125.785 33.1389 125.822 33.5921 126.124L35.8586 127.785L40.6181 121.668C41.3735 120.988 42.5823 121.214 43.1111 121.668C43.7911 122.347 43.64 123.48 43.3378 123.933L37.2184 131.939C36.1305 132.483 35.2542 132.065 34.952 131.788L31.3257 129.069C30.7969 128.616 30.7351 128.012 30.7213 127.71Z" fill="#516678"/>
<path d="M30.7213 139.733C30.6609 138.404 31.9049 137.92 32.5344 137.845C32.8367 137.809 33.1389 137.845 33.5921 138.147L35.8586 139.809L40.6181 133.691C41.3735 133.011 42.5823 133.238 43.1111 133.691C43.7911 134.371 43.64 135.504 43.3378 135.957L37.2184 143.963C36.1305 144.506 35.2542 144.088 34.952 143.812L31.3257 141.093C30.7969 140.639 30.7351 140.035 30.7213 139.733Z" fill="#516678"/>
</svg>
