<svg width="175" height="177" viewBox="0 0 175 177" fill="none" xmlns="http://www.w3.org/2000/svg">
<path fill-rule="evenodd" clip-rule="evenodd" d="M63.8538 48.7128C63.6495 50.6917 65.4715 51.8119 66.408 52.1247C68.0256 59.9719 73.9001 77.1165 87.5223 76.6047C100.038 76.1345 106.622 60.5406 108.807 52.0394C110.782 51.7664 111.446 49.8785 111.531 48.9687L111.191 41.8038C111.123 39.3473 109.573 38.4488 108.807 38.3067C109.216 31.3465 103.074 25.1142 99.9525 22.868C98.3178 19.0468 95.2983 17.6934 93.9928 17.4944H81.4774C78.6849 17.5626 76.1137 21.3327 75.1772 23.2092C68.7748 27.3035 66.5498 35.037 66.2377 38.392C64.603 38.7332 64.1376 40.6381 64.1092 41.5479C64.1092 43.1117 64.0582 46.7339 63.8538 48.7128ZM87.352 72.5104C74.3916 72.1754 71.1213 54.3985 70.7665 52.4699L70.75 52.3805L76.1137 54.7688H99.6119L104.295 52.3805C103.273 59.1189 95.951 72.7328 87.352 72.5104ZM67.9404 48.1158C68.0085 47.8428 68.1391 44.1921 68.1958 42.4009C68.7634 42.4293 70.0178 42.128 70.4946 40.695V37.8802C70.75 35.3782 72.7082 29.47 78.4976 25.8534C78.9233 24.9152 80.013 22.8851 80.9666 22.271C81.0801 24.1191 82.1585 27.8323 85.5641 27.9005V29.18V31.483H89.7359V27.9005C91.0981 27.8437 93.9417 26.6382 94.4185 22.271C95.0712 22.7828 96.3937 24.1305 96.4618 25.427C99.243 27.3035 104.805 32.4554 104.805 38.0508V40.7803C104.919 41.3205 105.538 42.418 107.104 42.4862L107.274 48.0305H103.954L98.5903 50.6747H76.7948L71.5162 48.1158H67.9404Z" fill="#516678"/>
<path fill-rule="evenodd" clip-rule="evenodd" d="M87.6925 41.8038C91.2661 41.8038 94.1631 38.9015 94.1631 35.3213C94.1631 31.7411 91.2661 28.8387 87.6925 28.8387C84.119 28.8387 81.222 31.7411 81.222 35.3213C81.222 38.9015 84.119 41.8038 87.6925 41.8038ZM87.6075 37.3683C88.783 37.3683 89.7359 36.4136 89.7359 35.2359C89.7359 34.0582 88.783 33.1035 87.6075 33.1035C86.4319 33.1035 85.479 34.0582 85.479 35.2359C85.479 36.4136 86.4319 37.3683 87.6075 37.3683Z" fill="#20A2DC"/>
<path fill-rule="evenodd" clip-rule="evenodd" d="M129.083 90.6397C129.083 89.1021 127.653 86.9085 124.315 85.8167L101.839 74.0458L104.478 71.1458L127.21 82.4902C127.272 82.5277 127.337 82.5663 127.403 82.606C129.385 83.7979 133 85.9715 133 90.6209L129.083 90.6397ZM69.8268 71.4869L72.5512 74.4723L50.5004 85.8167C48.9962 86.6128 45.988 89.4503 45.988 94.4316V94.6138C46.0164 95.2108 46.4648 96.405 48.0313 96.405L45.0487 98.1896C43.6626 99.0189 41.9014 98.0203 41.9014 96.405V94.6138V94.4316C41.9014 91.5884 43.2295 85.1685 48.5422 82.2343L69.8268 71.4869Z" fill="#516678"/>
<path d="M25.9052 149.824C26.0045 151.063 27.095 153.689 27.8123 155.318L31.4753 155.318C30.7734 154.612 29.5692 149.799 29.1219 147.879C28.9561 146.543 27.9801 146.137 27.5129 146.101L22.049 146.54C21.2377 146.663 21.0211 145.913 21.0142 145.523L20.7103 141.733C20.6495 140.975 21.2657 140.735 21.5814 140.71L26.8326 140.362C28.1543 140.021 28.3505 138.871 28.2833 138.339C28.0311 136.658 29.1853 132.522 29.794 130.664C30.1854 129.693 29.6654 129.06 29.3564 128.865L24.1628 126.275C23.5473 125.914 23.6905 125.262 23.839 124.981L25.5983 121.319C25.843 120.713 26.6192 120.944 26.9767 121.135C27.2098 121.117 29.9708 122.509 31.3221 123.207C32.0974 123.732 33.2211 123.116 33.5513 122.661C34.3437 121.571 37.3696 117.857 39.1129 116.128C39.7119 115.552 39.4593 114.658 39.2581 114.283L36.2672 109.902C35.915 109.168 36.163 108.908 36.3311 108.871L39.3117 106.725C40.1298 105.955 40.7133 106.221 40.9028 106.45L44.2872 111.166C44.5467 111.658 45.5118 111.808 46.0649 111.39C47.89 110.012 52.0062 108.982 53.8362 108.64C54.8806 108.497 55.2348 107.794 55.2609 107.205L54.8108 101.594C54.8712 100.885 55.4731 100.71 55.7664 100.711L59.7004 100.395C60.5164 100.33 60.6214 100.908 60.6506 101.272L61.0715 106.519C61.1358 107.321 61.887 107.774 62.4939 107.799C64.9214 107.897 68.7974 108.686 70.24 109.304C70.549 109.499 71.9624 109.753 72.4197 109.056L74.7587 104.395C75.2975 102.885 76.5274 103.593 76.6002 103.587L79.4972 104.968C79.879 105.157 80.5026 105.481 80.4591 105.991C80.3836 106.877 79.0446 109.38 78.1989 110.719C77.5696 111.65 77.8923 112.382 78.1323 112.631L79.9306 114.027L84.6418 113.706C83.7667 113.006 82.6399 111.48 82.0398 111.071C82.7226 110.078 82.9311 109.386 83.4262 108.246C84.6351 105.949 83.7429 103.967 83.0899 103.14C82.1222 102.044 80.8252 101.414 79.6857 100.919C79.435 100.81 78.6957 100.461 77.7155 100.124C76.9578 99.8177 75.3242 99.5621 73.6853 100.154C72.9015 100.436 72.1688 101.357 71.7304 102.291C71.53 102.717 70.6411 104.554 70.2216 105.419C69.3589 104.901 66.0931 104.527 64.568 104.405L64.2406 100.324C64.0419 97.8468 61.0109 96.6231 59.7724 96.7225L54.5999 97.1374C52.9972 97.2659 50.987 99.6274 51.1214 101.303L51.4546 105.457C50.0034 105.647 47.2994 106.671 46.0406 107.432C45.8774 107.225 44.9173 105.615 44.3732 104.925C43.2129 103.258 41.542 102.551 40.8057 102.498C38.8881 102.358 37.0264 103.828 35.8463 104.656C33.9722 105.971 33.1629 106.851 32.7784 107.542C32.3028 108.397 32.3449 110.364 32.7734 111.136C33.1291 111.914 34.2612 113.535 35.196 114.829C34.4315 115.536 32.3797 118.111 31.4494 119.31C30.2673 118.466 28.0074 117.532 26.8126 117.261C26.3512 117.157 25.7107 117.236 25.2098 117.39C23.2779 117.985 22.1797 119.833 21.4399 121.579C20.2545 124.168 20.0078 125.435 20.1501 126.523C20.4348 128.701 23.9579 130.423 25.8716 131.125C25.225 132.204 24.8701 135.092 24.7918 136.859L20.9248 137.096C18.0166 137.402 16.9827 140.052 17.1055 141.582L17.5088 146.611C17.6432 148.287 20.4354 150.19 21.6739 150.09L25.9052 149.824Z" fill="#516678"/>
<circle cx="54.3129" cy="118.855" r="0.658961" fill="#516678"/>
<circle cx="52.5733" cy="120.806" r="0.658961" fill="#D9D9D9"/>
<circle cx="52.5733" cy="120.806" r="0.658961" fill="#20A2DC"/>
<circle cx="58.1086" cy="122.44" r="0.658961" fill="#516678"/>
<circle cx="50.57" cy="122.44" r="0.658961" fill="#516678"/>
<circle cx="48.3032" cy="123.863" r="0.658961" fill="#20A2DC"/>
<circle cx="45.9311" cy="124.918" r="0.658961" fill="#516678"/>
<circle cx="43.4006" cy="125.708" r="0.658961" fill="#20A2DC"/>
<circle cx="40.8174" cy="126.077" r="0.658961" fill="#516678"/>
<circle cx="40.9756" cy="128.66" r="0.658961" fill="#20A2DC"/>
<circle cx="41.2392" cy="131.191" r="0.658961" fill="#516678"/>
<circle cx="41.7137" cy="133.668" r="0.658961" fill="#20A2DC"/>
<circle cx="52.7578" cy="135.909" r="0.790753" fill="#20A2DC"/>
<circle cx="42.2935" cy="136.146" r="0.658961" fill="#516678"/>
<circle cx="43.0316" cy="138.624" r="0.658961" fill="#20A2DC"/>
<circle cx="43.9277" cy="140.996" r="0.658961" fill="#516678"/>
<circle cx="45.0347" cy="143.263" r="0.658961" fill="#20A2DC"/>
<circle cx="46.4054" cy="145.424" r="0.658961" fill="#516678"/>
<circle cx="48.0397" cy="147.428" r="0.658961" fill="#20A2DC"/>
<circle cx="49.8847" cy="149.167" r="0.658961" fill="#516678"/>
<circle cx="51.9935" cy="150.591" r="0.658961" fill="#20A2DC"/>
<circle cx="54.3129" cy="151.592" r="0.658961" fill="#516678"/>
<circle cx="56.6326" cy="150.591" r="0.658961" fill="#20A2DC"/>
<circle cx="58.7412" cy="149.167" r="0.658961" fill="#516678"/>
<circle cx="60.5863" cy="147.428" r="0.658961" fill="#20A2DC"/>
<circle cx="67.8086" cy="126.13" r="0.658961" fill="#516678"/>
<circle cx="65.2254" cy="125.708" r="0.658961" fill="#20A2DC"/>
<circle cx="62.7476" cy="124.918" r="0.658961" fill="#516678"/>
<circle cx="60.3227" cy="123.863" r="0.658961" fill="#20A2DC"/>
<circle cx="56.1055" cy="120.806" r="0.658961" fill="#20A2DC"/>
<path d="M37.6545 123.468C46.6164 122.413 52.0989 117.247 53.8386 114.875C54.1285 114.401 54.5766 114.528 54.8402 114.875C59.2489 120.674 66.8069 123.046 71.1034 123.468C71.9205 123.548 72.0117 123.89 71.9995 124.153L71.7096 128.66C71.5163 128.52 70.9873 128.218 70.418 128.133L70.7343 124.68C67.1232 124.443 59.5056 122.413 54.313 116.325C52.4767 118.688 46.7218 123.731 37.9444 124.707C38.2607 132.983 41.4765 150.143 54.3394 154.465C56.0175 153.982 60.1488 151.961 63.2485 147.955L64.3028 148.666C63.1167 150.424 59.4635 154.281 54.3394 155.651C40.5802 151.909 36.8462 133.133 36.6529 124.153C36.6398 123.547 37.2591 123.514 37.6545 123.468Z" fill="#516678"/>
<path fill-rule="evenodd" clip-rule="evenodd" d="M68.7047 140.601C71.8927 140.601 74.4771 138.016 74.4771 134.828C74.4771 131.64 71.8927 129.056 68.7047 129.056C65.5166 129.056 62.9322 131.64 62.9322 134.828C62.9322 138.016 65.5166 140.601 68.7047 140.601ZM68.7128 139.285C71.1507 139.285 73.127 137.309 73.127 134.871C73.127 132.433 71.1507 130.457 68.7128 130.457C66.2749 130.457 64.2986 132.433 64.2986 134.871C64.2986 137.309 66.2749 139.285 68.7128 139.285Z" fill="#516678"/>
<path d="M66.2009 135.25C66.1773 134.74 66.6629 134.554 66.9087 134.525C67.0267 134.511 67.1446 134.525 67.3216 134.641L68.2063 135.279L70.0641 132.93C70.359 132.669 70.8309 132.756 71.0373 132.93C71.3027 133.191 71.2437 133.626 71.1258 133.8L68.7371 136.874C68.3124 137.083 67.9703 136.923 67.8524 136.816L66.4368 135.772C66.2304 135.598 66.2063 135.366 66.2009 135.25Z" fill="#20A2DC"/>
<path fill-rule="evenodd" clip-rule="evenodd" d="M48.1188 136.726L51.9935 131.086L51.3872 130.585C51.2554 130.479 51.0815 130.152 51.44 129.689L52.7315 127.87C52.9424 127.553 53.7015 127.121 54.5239 127.712L59.6638 131.27C59.9801 131.534 60.27 132.324 59.6638 133.141L58.5304 134.828C58.3986 135.013 57.9768 135.276 57.5288 134.881L57.1861 134.591L56.5008 135.514L72.0259 145.24C72.8801 145.735 73.3702 147.217 72.6129 148.245C72.5236 148.38 72.4598 148.48 72.4046 148.566C72.3088 148.716 72.2387 148.825 72.105 149.009C72.0837 149.039 72.0629 149.067 72.0424 149.095C71.7065 149.558 71.4791 149.871 71.1561 150.169C70.2862 151.092 69.39 150.802 68.2039 149.985L53.9176 139.362L53.3114 140.258L53.7859 140.627C53.9879 140.759 54.2708 141.16 53.7859 141.708L52.7842 143.158C52.4943 143.553 51.6666 144.191 50.6756 143.579L45.9838 140.364C45.562 140.118 44.9031 139.33 45.6411 138.15L46.7745 136.515C46.959 136.252 47.2753 135.962 48.1188 136.726ZM52.7842 130.031L53.5222 128.95C53.5749 128.863 53.7436 128.74 53.9967 128.95L58.4776 132.008C58.5918 132.061 58.7728 132.219 58.5831 132.43L57.845 133.484L57.2651 133.089C57.1509 133.001 56.8698 132.883 56.6589 133.115L55.051 135.382C54.9632 135.54 54.856 135.909 55.1301 136.12C55.1301 136.12 71.1165 146.189 71.4723 146.426C71.8282 146.663 71.8677 147.138 71.4723 147.665L70.5234 149.062C70.2071 149.484 69.7591 149.589 69.0737 149.062L54.2075 138.018C54.0143 137.86 53.5433 137.649 53.2059 138.07L51.8089 140.126C51.7123 140.249 51.577 140.559 51.8089 140.812L52.4943 141.313L51.7299 142.42C51.6771 142.534 51.4874 142.673 51.15 142.314L46.7745 139.309C46.6866 139.265 46.5531 139.13 46.7218 138.94L47.4598 137.86L47.987 138.229C48.11 138.343 48.4878 138.413 48.6987 138.176L53.4168 131.349C53.5486 131.209 53.7331 130.838 53.4168 130.479L52.7842 130.031Z" fill="#516678"/>
<rect x="15.912" y="158.025" width="143.033" height="4.26481" rx="2.13241" fill="#516678"/>
<rect x="161.158" y="158.025" width="7.15163" height="4.26481" rx="2.13241" fill="#20A2DC"/>
<rect x="6.717" y="158.025" width="7.15163" height="4.26481" rx="2.13241" fill="#20A2DC"/>
<rect x="64.4409" y="166.213" width="45.6342" height="4.26481" rx="2.13241" fill="#20A2DC"/>
<rect x="72.7845" y="172.525" width="30.139" height="4.26481" rx="2.13241" fill="#20A2DC"/>
<rect x="83.1714" y="169.113" width="8.68413" height="4.26481" fill="#20A2DC"/>
<rect x="112.118" y="166.213" width="12.6005" height="4.26481" rx="2.13241" fill="#20A2DC"/>
<rect x="49.7971" y="166.213" width="12.6005" height="4.26481" rx="2.13241" fill="#20A2DC"/>
<rect x="170.353" y="158.025" width="4.25692" height="4.26481" rx="2.12846" fill="#20A2DC"/>
<rect x="0.246468" y="158.025" width="4.25692" height="4.26481" rx="2.12846" fill="#20A2DC"/>
<path d="M12.0033 68.4119L10.866 68.9814L12.4772 71.0697H10.0131V72.1138L12.4772 71.6392L10.866 74.0123L12.0033 74.5818L12.951 72.1138L14.0883 74.5818L15.2256 73.8224L13.6144 71.6392L16.2681 72.1138V71.0697H13.6144L15.2256 68.9814L14.3726 68.4119L12.951 70.69L12.0033 68.4119Z" fill="#20A2DC"/>
<path d="M35.7729 16.6947L34.6356 17.2642L36.2467 19.3525H33.7827V20.3967L36.2467 19.9221L34.6356 22.2951L35.7729 22.8647L36.7206 20.3967L37.8579 22.8647L38.9952 22.1053L37.384 19.9221L40.0377 20.3967V19.3525H37.384L38.9952 17.2642L38.1422 16.6947L36.7206 18.9728L35.7729 16.6947Z" fill="#20A2DC"/>
<path d="M150.524 54.4827L149.387 55.0522L150.998 57.1405H148.534V58.1846L150.998 57.71L149.387 60.0831L150.524 60.6526L151.472 58.1846L152.609 60.6526L153.746 59.8932L152.135 57.71L154.789 58.1846V57.1405H152.135L153.746 55.0522L152.893 54.4827L151.472 56.7608L150.524 54.4827Z" fill="#20A2DC"/>
<path d="M129.091 29.4739L127.954 30.0434L129.565 32.1317H127.101V33.1758L129.565 32.7012L127.954 35.0743L129.091 35.6438L130.039 33.1758L131.176 35.6438L132.314 34.8844L130.702 32.7012L133.356 33.1758V32.1317H130.702L132.314 30.0434L131.461 29.4739L130.039 31.752L129.091 29.4739Z" fill="#20A2DC"/>
<path d="M82.9516 3.69714L82.4346 3.97753L83.1669 5.00561H82.0469V5.51965L83.1669 5.286L82.4346 6.45427L82.9516 6.73466L83.3823 5.51965L83.8993 6.73466L84.4162 6.36081L83.6839 5.286L84.8901 5.51965V5.00561H83.6839L84.4162 3.97753L84.0285 3.69714L83.3823 4.81869L82.9516 3.69714Z" fill="#20A2DC"/>
<path fill-rule="evenodd" clip-rule="evenodd" d="M20.5737 12.5181C21.8299 12.5181 22.8482 11.4981 22.8482 10.2399C22.8482 8.98175 21.8299 7.96179 20.5737 7.96179C19.3175 7.96179 18.2991 8.98175 18.2991 10.2399C18.2991 11.4981 19.3175 12.5181 20.5737 12.5181ZM20.5438 10.9593C20.957 10.9593 21.292 10.6238 21.292 10.21C21.292 9.79608 20.957 9.46057 20.5438 9.46057C20.1305 9.46057 19.7955 9.79608 19.7955 10.21C19.7955 10.6238 20.1305 10.9593 20.5438 10.9593Z" fill="#516678"/>
<path fill-rule="evenodd" clip-rule="evenodd" d="M12.3802 55.8697C13.6364 55.8697 14.6547 54.8498 14.6547 53.5916C14.6547 52.3334 13.6364 51.3135 12.3802 51.3135C11.124 51.3135 10.1056 52.3334 10.1056 53.5916C10.1056 54.8498 11.124 55.8697 12.3802 55.8697ZM12.3502 54.311C12.7634 54.311 13.0984 53.9755 13.0984 53.5616C13.0984 53.1478 12.7634 52.8123 12.3502 52.8123C11.937 52.8123 11.602 53.1478 11.602 53.5616C11.602 53.9755 11.937 54.311 12.3502 54.311Z" fill="#516678"/>
<path fill-rule="evenodd" clip-rule="evenodd" d="M131.508 13.1631C133.722 13.1631 135.516 11.3662 135.516 9.14966C135.516 6.93311 133.722 5.13623 131.508 5.13623C129.295 5.13623 127.501 6.93311 127.501 9.14966C127.501 11.3662 129.295 13.1631 131.508 13.1631ZM131.456 10.417C132.184 10.417 132.774 9.82591 132.774 9.09678C132.774 8.36765 132.184 7.77657 131.456 7.77657C130.728 7.77657 130.137 8.36765 130.137 9.09678C130.137 9.82591 130.728 10.417 131.456 10.417Z" fill="#516678"/>
<path fill-rule="evenodd" clip-rule="evenodd" d="M150.616 85.9244C151.938 85.9244 153.009 84.8514 153.009 83.5276C153.009 82.2039 151.938 81.1309 150.616 81.1309C149.294 81.1309 148.223 82.2039 148.223 83.5276C148.223 84.8514 149.294 85.9244 150.616 85.9244ZM150.584 84.2843C151.019 84.2843 151.372 83.9313 151.372 83.4959C151.372 83.0604 151.019 82.7075 150.584 82.7075C150.15 82.7075 149.797 83.0604 149.797 83.4959C149.797 83.9313 150.15 84.2843 150.584 84.2843Z" fill="#516678"/>
<path fill-rule="evenodd" clip-rule="evenodd" d="M159.07 36.092C160.391 36.092 161.463 35.019 161.463 33.6953C161.463 32.3715 160.391 31.2985 159.07 31.2985C157.748 31.2985 156.677 32.3715 156.677 33.6953C156.677 35.019 157.748 36.092 159.07 36.092ZM159.038 34.4519C159.473 34.4519 159.825 34.0989 159.825 33.6635C159.825 33.228 159.473 32.8751 159.038 32.8751C158.603 32.8751 158.251 33.228 158.251 33.6635C158.251 34.0989 158.603 34.4519 159.038 34.4519Z" fill="#516678"/>
<path fill-rule="evenodd" clip-rule="evenodd" d="M114.076 151.037C113.781 150.892 113.403 150.806 112.921 150.806H80.1965C77.706 150.806 76.162 152.101 76.162 154.193V158.327C76.162 159.423 77.0585 161.813 80.2463 161.813H113.419C113.797 161.813 114.549 161.44 114.889 160.867H106.963H103.315C102.561 160.867 102.561 160.365 102.561 159.487V159.225H79.8497C79.4591 159.225 78.6675 159.001 78.6267 158.101V154.532C78.6267 154.125 78.8713 153.31 79.8497 153.31H112.88C113.051 152.22 113.526 151.488 114.076 151.037Z" fill="#516678"/>
<path fill-rule="evenodd" clip-rule="evenodd" d="M112.587 142.338H82.6869C80.1965 142.338 78.6524 143.633 78.6524 145.725V149.859C78.6524 150.955 79.5489 153.346 82.7367 153.346H112.875C113.066 152.063 113.678 151.27 114.34 150.845H82.2972C81.9121 150.845 81.1318 150.583 81.0916 149.533V145.37C81.0916 144.894 81.3327 143.944 82.2972 143.944H113.704C113.305 143.24 112.908 142.711 112.587 142.338ZM115.352 148.707V150.468C115.431 150.458 115.507 150.453 115.581 150.453C115.527 149.834 115.449 149.253 115.352 148.707Z" fill="#20A2DC"/>
<path fill-rule="evenodd" clip-rule="evenodd" d="M109.438 133.671H80.1965C77.706 133.671 76.162 134.966 76.162 137.058V141.193C76.162 142.288 77.0585 144.679 80.2463 144.679H113.419C113.571 144.679 113.784 144.619 114.006 144.509C113.472 143.441 112.912 142.701 112.499 142.237C112.484 142.221 112.47 142.205 112.455 142.189H79.798C79.4161 142.189 78.6424 141.96 78.6026 141.043V137.407C78.6026 136.992 78.8417 136.162 79.798 136.162H109.513C109.386 135.305 109.388 134.573 109.417 134.022C109.423 133.904 109.43 133.787 109.438 133.671Z" fill="#516678"/>
<path fill-rule="evenodd" clip-rule="evenodd" d="M113.923 125.104H82.6869C80.1965 125.104 78.6524 126.399 78.6524 128.491V132.625C78.6524 133.721 79.5489 136.112 82.7367 136.112H109.506C109.386 135.276 109.389 134.563 109.417 134.022C109.423 133.887 109.432 133.753 109.442 133.622H82.2884C81.9065 133.622 81.1328 133.392 81.093 132.476V128.84C81.093 128.425 81.332 127.595 82.2884 127.595H111.467C112.174 126.582 113.017 125.76 113.923 125.104Z" fill="#20A2DC"/>
<path fill-rule="evenodd" clip-rule="evenodd" d="M76.162 120.074C76.162 117.982 77.706 116.687 80.1965 116.687H112.921C114.714 116.687 115.063 117.882 115.063 118.828V124.381C113.699 125.136 112.405 126.215 111.399 127.694H80.2463C77.0585 127.694 76.162 125.303 76.162 124.208V120.074ZM78.6026 124.058C78.6424 124.975 79.4161 125.204 79.798 125.204H112.572V119.177H79.798C78.8417 119.177 78.6026 120.007 78.6026 120.422V124.058Z" fill="#516678"/>
<path d="M107.741 114.296H105.3V95.8167C105.3 93.6251 107.492 92.4297 108.837 92.4297H150.377C152.967 92.4297 153.864 94.8703 153.864 96.0657V158.128C153.864 159.722 153.117 160.469 152.419 160.469H149.979V159.223C151.174 159.223 151.423 158.576 151.423 158.028V96.0657C151.423 95.1692 150.676 94.8703 150.128 94.8703H108.936C108.04 94.8703 107.741 95.6673 107.741 96.2152V114.296Z" fill="#516678"/>
<path d="M113.917 102.763C113.917 101.833 114.706 101.53 114.997 101.495H144.354C144.632 101.583 145.396 101.96 145.396 102.763C145.396 103.565 144.632 103.907 144.354 103.977C144.354 103.977 115.288 103.995 114.997 103.977C114.706 103.96 113.917 103.692 113.917 102.763Z" fill="#20A2DC"/>
<path d="M113.917 108.839C113.917 107.91 114.706 107.607 114.997 107.572H144.354C144.632 107.66 145.396 108.036 145.396 108.839C145.396 109.642 144.632 109.984 144.354 110.054C144.354 110.054 115.288 110.072 114.997 110.054C114.706 110.037 113.917 109.769 113.917 108.839Z" fill="#516678"/>
<path d="M113.917 114.916C113.917 113.986 114.706 113.683 114.997 113.648H144.354C144.632 113.736 145.396 114.113 145.396 114.916C145.396 115.719 144.632 116.06 144.354 116.131C144.354 116.131 115.288 116.148 114.997 116.131C114.706 116.113 113.917 115.846 113.917 114.916Z" fill="#20A2DC"/>
<path d="M113.917 120.993C113.917 120.063 114.706 119.76 114.997 119.725H144.354C144.632 119.813 145.396 120.19 145.396 120.993C145.396 121.796 144.632 122.137 144.354 122.208C144.354 122.208 115.288 122.225 114.997 122.208C114.706 122.19 113.917 121.922 113.917 120.993Z" fill="#516678"/>
<path fill-rule="evenodd" clip-rule="evenodd" d="M128.812 152.598C134.512 152.6 144.354 152.591 144.354 152.591C144.632 152.52 145.396 152.179 145.396 151.376C145.396 150.573 144.632 150.196 144.354 150.108H126.428C126.392 150.313 126.362 150.504 126.336 150.678H126.525C127.735 150.773 128.438 151.677 128.812 152.598Z" fill="#20A2DC"/>
<path fill-rule="evenodd" clip-rule="evenodd" d="M127.289 146.522C133.763 146.523 144.354 146.514 144.354 146.514C144.632 146.444 145.396 146.102 145.396 145.299C145.396 144.497 144.632 144.12 144.354 144.032H128.246C127.876 144.797 127.557 145.659 127.289 146.522Z" fill="#516678"/>
<path fill-rule="evenodd" clip-rule="evenodd" d="M130.873 140.444C137.793 140.442 144.354 140.438 144.354 140.438C144.632 140.367 145.396 140.026 145.396 139.223C145.396 138.42 144.632 138.043 144.354 137.955H131.975C131.698 138.912 131.306 139.748 130.873 140.444Z" fill="#20A2DC"/>
<path fill-rule="evenodd" clip-rule="evenodd" d="M132.373 134.367C138.711 134.364 144.354 134.361 144.354 134.361C144.632 134.291 145.396 133.949 145.396 133.146C145.396 132.343 144.632 131.966 144.354 131.878H132.085C132.273 132.755 132.36 133.602 132.373 134.367Z" fill="#516678"/>
<path fill-rule="evenodd" clip-rule="evenodd" d="M130.765 128.29C137.724 128.288 144.354 128.284 144.354 128.284C144.632 128.214 145.396 127.872 145.396 127.069C145.396 126.266 144.632 125.89 144.354 125.802H128.764C129.594 126.551 130.252 127.4 130.765 128.29Z" fill="#20A2DC"/>
<path d="M108.936 158.576C108.936 159.423 109.982 159.323 109.982 159.672H107.093C106.496 159.672 106.496 159.273 106.496 158.576V153.894C106.496 151.503 108.239 150.756 109.484 150.756H114.614V149.959C114.614 147.767 115.959 146.97 116.806 146.97C116.487 143.305 115.118 141.292 114.365 140.445C111.975 137.756 111.858 135.216 111.925 133.921C112.28 126.997 117.952 124.967 121.04 125.104C128.312 125.428 130.105 130.932 130.105 134.269C130.225 137.098 128.959 139.207 127.913 140.196C126.439 141.591 125.572 145.36 125.323 147.07H125.473C126.987 147.19 127.498 148.913 127.565 149.76V150.756H132.446C135.076 150.716 135.7 152.698 135.684 153.695V159.024C135.644 159.423 135.136 159.622 134.937 159.672H132.048C133.084 159.353 133.243 158.642 133.193 158.327V154.043C133.233 153.207 132.712 153.097 132.446 153.147H126.369C125.453 153.147 125.124 152.383 125.074 152.001V149.461H123.879C123.082 149.341 122.783 148.614 122.733 148.265C122.574 145.277 124.327 141.442 125.323 139.449C127.316 137.108 127.714 135.614 127.714 134.269C127.216 128.84 122.833 127.517 121.04 127.545C115.76 127.628 114.365 132.161 114.365 134.269C114.365 136.66 115.511 137.756 116.706 139.449C118.886 142.537 119.33 146.622 119.446 148.265C119.446 149.013 118.848 149.461 118.35 149.461H117.055V152.001C117.055 152.898 116.408 153.147 115.959 153.147H109.733C109.136 153.147 108.936 153.495 108.936 153.894V158.576Z" fill="#516678"/>
<circle cx="121.139" cy="134.319" r="1.34484" fill="#20A2DC"/>
<circle cx="121.139" cy="151.254" r="1.34484" fill="#20A2DC"/>
</svg>
