<svg width="175" height="176" viewBox="0 0 175 176" fill="none" xmlns="http://www.w3.org/2000/svg">
<path d="M41.8273 44.9965L40.69 45.566L42.3011 47.6543H39.837V48.6984L42.3011 48.2238L40.69 50.5969L41.8273 51.1664L42.775 48.6984L43.9123 51.1664L45.0495 50.407L43.4384 48.2238L46.092 48.6984V47.6543H43.4384L45.0495 45.566L44.1966 44.9965L42.775 47.2746L41.8273 44.9965Z" fill="#20A2DC"/>
<path d="M40.949 15.4624L39.8117 16.0319L41.4228 18.1202H38.9587V19.1644L41.4228 18.6898L39.8117 21.0628L40.949 21.6324L41.8967 19.1644L43.034 21.6324L44.1712 20.873L42.5601 18.6898L45.2137 19.1644V18.1202H42.5601L44.1712 16.0319L43.3183 15.4624L41.8967 17.7405L40.949 15.4624Z" fill="#20A2DC"/>
<path d="M160.63 65.5742L159.492 66.1438L161.103 68.232H158.639V69.2762L161.103 68.8016L159.492 71.1746L160.63 71.7442L161.577 69.2762L162.715 71.7442L163.852 70.9848L162.241 68.8016L164.894 69.2762V68.232H162.241L163.852 66.1438L162.999 65.5742L161.577 67.8524L160.63 65.5742Z" fill="#20A2DC"/>
<path d="M136.732 15.9177L135.595 16.4873L137.206 18.5755H134.742V19.6197L137.206 19.1451L135.595 21.5181L136.732 22.0877L137.68 19.6197L138.817 22.0877L139.954 21.3283L138.343 19.1451L140.997 19.6197V18.5755H138.343L139.954 16.4873L139.101 15.9177L137.68 18.1959L136.732 15.9177Z" fill="#20A2DC"/>
<path d="M83.198 2.46484L82.681 2.74523L83.4134 3.77331H82.2933V4.28735L83.4134 4.0537L82.681 5.22197L83.198 5.50236L83.6288 4.28735L84.1457 5.50236L84.6627 5.12851L83.9303 4.0537L85.1365 4.28735V3.77331H83.9303L84.6627 2.74523L84.2749 2.46484L83.6288 3.58639L83.198 2.46484Z" fill="#20A2DC"/>
<path fill-rule="evenodd" clip-rule="evenodd" d="M20.8201 11.2858C22.0763 11.2858 23.0947 10.2658 23.0947 9.00763C23.0947 7.74945 22.0763 6.72949 20.8201 6.72949C19.5639 6.72949 18.5456 7.74945 18.5456 9.00763C18.5456 10.2658 19.5639 11.2858 20.8201 11.2858ZM20.7902 9.72704C21.2034 9.72704 21.5384 9.39153 21.5384 8.97765C21.5384 8.56378 21.2034 8.22827 20.7902 8.22827C20.377 8.22827 20.042 8.56378 20.042 8.97765C20.042 9.39153 20.377 9.72704 20.7902 9.72704Z" fill="#516678"/>
<path fill-rule="evenodd" clip-rule="evenodd" d="M12.6267 54.6374C13.8829 54.6374 14.9012 53.6175 14.9012 52.3593C14.9012 51.1011 13.8829 50.0812 12.6267 50.0812C11.3705 50.0812 10.3521 51.1011 10.3521 52.3593C10.3521 53.6175 11.3705 54.6374 12.6267 54.6374ZM12.5967 53.0787C13.0099 53.0787 13.3449 52.7432 13.3449 52.3293C13.3449 51.9155 13.0099 51.58 12.5967 51.58C12.1835 51.58 11.8485 51.9155 11.8485 52.3293C11.8485 52.7432 12.1835 53.0787 12.5967 53.0787Z" fill="#516678"/>
<path fill-rule="evenodd" clip-rule="evenodd" d="M104.642 11.9308C106.855 11.9308 108.649 10.1339 108.649 7.91737C108.649 5.70081 106.855 3.90393 104.642 3.90393C102.429 3.90393 100.635 5.70081 100.635 7.91737C100.635 10.1339 102.429 11.9308 104.642 11.9308ZM104.589 9.18469C105.317 9.18469 105.908 8.59361 105.908 7.86448C105.908 7.13535 105.317 6.54427 104.589 6.54427C103.861 6.54427 103.271 7.13535 103.271 7.86448C103.271 8.59361 103.861 9.18469 104.589 9.18469Z" fill="#516678"/>
<path fill-rule="evenodd" clip-rule="evenodd" d="M136.074 50.1851C137.395 50.1851 138.467 49.112 138.467 47.7883C138.467 46.4646 137.395 45.3915 136.074 45.3915C134.752 45.3915 133.681 46.4646 133.681 47.7883C133.681 49.112 134.752 50.1851 136.074 50.1851ZM136.042 48.5449C136.477 48.5449 136.829 48.1919 136.829 47.7565C136.829 47.3211 136.477 46.9681 136.042 46.9681C135.608 46.9681 135.255 47.3211 135.255 47.7565C135.255 48.1919 135.608 48.5449 136.042 48.5449Z" fill="#516678"/>
<path fill-rule="evenodd" clip-rule="evenodd" d="M159.316 34.8597C160.638 34.8597 161.709 33.7867 161.709 32.463C161.709 31.1392 160.638 30.0662 159.316 30.0662C157.994 30.0662 156.923 31.1392 156.923 32.463C156.923 33.7867 157.994 34.8597 159.316 34.8597ZM159.285 33.2196C159.719 33.2196 160.072 32.8666 160.072 32.4312C160.072 31.9957 159.719 31.6428 159.285 31.6428C158.85 31.6428 158.497 31.9957 158.497 32.4312C158.497 32.8666 158.85 33.2196 159.285 33.2196Z" fill="#516678"/>
<path fill-rule="evenodd" clip-rule="evenodd" d="M58.0956 38.1521C57.9078 28.7591 66.5754 25.2629 70.9327 24.6889C72.5608 17.1745 84.0828 15.4524 89.6403 15.5307C113.812 16.5952 118.915 31.0552 118.445 38.1521C118.571 40.97 117.402 45.2229 116.802 46.9972C118.68 48.9384 119.046 53.1809 118.993 55.0595C118.806 64.9534 114.427 66.7485 112.262 66.4093C111.197 70.1665 105.608 78.0461 102.947 81.5163C101.695 84.7099 102.112 87.3347 102.477 88.2479L112.262 93.962C127.749 95.6783 135.19 105.021 138.338 114.068H134.183C129.455 102.174 118.393 98.2012 111.557 97.8757L100.118 114.068H95.3768L108.113 96.0754L103.73 93.4141L96.7633 102.337C96.2937 102.885 95.511 102.572 95.1979 102.337L87.7618 96.5451L80.4822 102.337C79.856 102.807 79.1515 102.65 78.9167 102.337L71.872 93.4923L67.4103 96.0754L80.2141 114.068H75.3699L63.8096 97.8757C51.0013 99.2736 44.4175 106.182 41.3687 114.068H37.2184C42.13 99.5751 55.7776 94.5729 63.3401 93.962L73.1244 88.2479C74.0011 86.9956 73.3331 83.2384 72.8896 81.5163C69.5707 78.6984 64.9838 70.2708 63.1052 66.4093C58.0956 66.4093 56.765 61.0083 56.6867 55.0595C56.6241 50.3004 58.487 47.1798 59.4263 46.2144C58.2992 43.7722 58.0696 39.822 58.0956 38.1521ZM82.6186 114.068H86.9314C86.9003 113.789 86.8336 113.553 86.7441 113.374L84.3959 108.051L87.7617 104.999L91.2841 108.051L88.9358 113.374C88.8078 113.63 88.7239 113.859 88.6732 114.068H92.9108C92.9939 113.751 93.1255 113.416 93.3193 113.061L95.1979 108.756C95.2079 108.733 95.2182 108.71 95.2288 108.687C95.2398 108.662 95.251 108.638 95.2625 108.612C95.5859 107.899 96.076 106.817 95.1979 106.173L88.9359 100.772C88.4662 100.302 87.5269 99.9109 86.5876 100.772L80.4822 106.173C79.856 106.721 79.6212 107.269 80.3257 108.756L82.126 113.061C82.1506 113.107 82.1753 113.152 82.1998 113.197L82.2 113.198C82.3569 113.487 82.5083 113.766 82.6186 114.068ZM74.0636 31.1074L71.5588 28.3678C63.1678 29.5575 61.6441 35.9082 61.9311 38.9349C61.9311 43.1617 63.8618 47.2842 65.062 49.1106C64.9838 39.7959 70.8544 33.4556 74.0636 31.1074ZM74.5333 25.863C74.742 23.6974 77.9617 19.3662 89.1707 19.3662C103.182 19.3662 114.453 26.4892 114.61 37.6825C114.714 41.9615 113.436 50.4099 107.487 49.9716C105.034 49.8411 99.6595 48.3278 93.3192 43.3182C89.3272 40.2394 81.7346 33.7687 80.6387 32.3598C78.8123 30.5334 75.0343 26.677 74.5333 25.863ZM68.8975 49.4237C68.5218 41.3457 74.0115 35.7256 76.8033 33.9253C102.988 60.3768 111.501 53.3112 113.922 51.3027C114.337 50.9575 114.573 50.7617 114.688 50.9109C115.314 51.725 114.949 56.9902 114.688 59.5211C114.062 63.5914 111.401 62.6782 110.148 61.7128C109.992 63.0435 100.207 86.2128 87.6052 86.1345C77.5234 86.0719 68.5322 69.8273 65.2969 61.7128C63.9819 62.5269 63.1835 62.5738 62.9486 62.4956C61.0475 62.1914 60.7717 58.8582 60.5422 56.0847L60.5221 55.8422C60.3342 53.5879 60.9135 51.1979 61.2266 50.2847C62.2181 51.8502 64.655 54.9655 66.471 54.9029C68.287 54.8403 68.8453 53.5201 68.8975 52.8678C68.8453 51.7719 68.7723 49.5489 68.8975 49.4237ZM77.3512 85.8997C77.4033 87.3608 77.0694 90.5179 75.316 91.4572L80.0125 97.6409L86.7441 92.3182C87.2138 91.9268 87.9965 91.692 88.8575 92.3182L95.5109 97.6409L100.207 91.5355C99.4768 91.0136 98.047 89.1559 98.1722 85.8997C96.8416 87.2564 92.9122 89.97 87.84 89.97C82.7678 89.97 78.734 87.2564 77.3512 85.8997Z" fill="#516678"/>
<path d="M76.1513 57.7043C76.1513 58.5628 77.0444 59.3451 77.5547 59.3451H81.9506C82.3334 59.3451 83.2902 58.608 83.2902 57.7043C83.2902 56.8006 82.3972 56.0636 81.9506 56.0636H77.5547C77.0444 56.0636 76.1513 56.8458 76.1513 57.7043Z" fill="#20A2DC"/>
<path d="M92.375 57.7043C92.375 58.5628 93.2681 59.3451 93.7784 59.3451H98.1743C98.5571 59.3451 99.5139 58.608 99.5139 57.7043C99.5139 56.8006 98.6208 56.0636 98.1743 56.0636H93.7784C93.2681 56.0636 92.375 56.8458 92.375 57.7043Z" fill="#20A2DC"/>
<path d="M87.8762 79.1557C82.2428 79.3697 78.7278 74.6875 77.5155 73.2613C76.4182 71.5203 78.6635 70.4098 79.6757 71.8892C80.6027 73.2441 82.8846 76.2281 87.6623 76.5956C91.513 76.8918 94.9095 73.2672 96.148 71.8892C97.0611 70.8733 98.8761 71.5203 98.2199 73.2613C96.2946 75.4719 93.5096 78.9418 87.8762 79.1557Z" fill="#20A2DC"/>
<path d="M84.2483 67.2584C84.2483 68.1169 85.1413 68.8992 85.6517 68.8992H90.0476C90.4303 68.8992 91.3872 68.1621 91.3872 67.2584C91.3872 66.3547 90.4941 65.6176 90.0476 65.6176H85.6517C85.1413 65.6176 84.2483 66.3999 84.2483 67.2584Z" fill="#516678"/>
<path d="M100.72 122.041V117.276H32.5313C26.0161 117.276 25.1409 122.43 25.1409 124.764V145.088C25.1409 151.797 30.1002 152.867 32.5313 152.867H102.042C101.208 152.564 100.637 149.707 100.339 148.213L100.317 148.102H32.5313C29.9058 148.102 29.9058 146.255 29.9058 145.088V124.764C29.9058 122.527 31.3644 122.041 32.5313 122.041H100.72Z" fill="#516678"/>
<path fill-rule="evenodd" clip-rule="evenodd" d="M104.507 112.328V147.489C104.563 149.531 105.95 153.615 111.053 153.615H148.647C150.997 153.615 155.528 152.44 155.528 147.154V122.734C155.528 120.72 154.521 116.776 149.486 116.776H116.423C114.074 116.776 109.794 115.769 108.619 112.664C108.367 111.657 107.78 110.734 106.521 110.734C105.85 110.734 104.507 110.986 104.507 112.328ZM108.451 118.538C109.542 119.321 112.697 120.888 116.591 120.888H149.151C150.074 120.888 151.416 121.14 151.416 122.482V147.154C151.416 148.077 151.081 149.503 148.983 149.503H110.885C110.046 149.503 108.451 148.924 108.451 147.246V118.538Z" fill="#516678"/>
<path d="M146.099 144.883H114.099C113.58 144.923 112.529 144.704 112.481 143.506C112.433 142.307 113.38 141.968 113.859 141.948H146.398C146.798 141.988 147.597 142.355 147.597 143.506C147.597 144.656 146.598 144.903 146.099 144.883Z" fill="#20A2DC"/>
<path d="M146.099 139.426H114.099C113.58 139.466 112.529 139.246 112.481 138.048C112.433 136.85 113.38 136.511 113.859 136.491H146.398C146.798 136.531 147.597 136.898 147.597 138.048C147.597 139.198 146.598 139.446 146.099 139.426Z" fill="#20A2DC"/>
<path d="M146.099 133.969H114.099C113.58 134.009 112.529 133.789 112.481 132.591C112.433 131.393 113.38 131.053 113.859 131.033H146.398C146.798 131.073 147.597 131.441 147.597 132.591C147.597 133.741 146.598 133.989 146.099 133.969Z" fill="#20A2DC"/>
<path d="M146.099 128.511H114.099C113.58 128.551 112.529 128.332 112.481 127.134C112.433 125.935 113.38 125.596 113.859 125.576H146.398C146.798 125.616 147.597 125.983 147.597 127.134C147.597 128.284 146.598 128.531 146.099 128.511Z" fill="#20A2DC"/>
<path d="M81.4713 131.072C82.6062 131.124 83.0189 130.148 83.0834 129.654C83.4961 126.765 85.6199 126.945 86.6301 127.397C88.5647 128.622 87.404 130.353 86.6301 130.943C84.3086 132.715 83.8787 134.812 83.8572 135.909V138.424C83.8572 138.94 84.4634 139.713 85.3404 139.713C86.2174 139.713 87.017 139.069 87.017 138.424V135.909C87.017 135.264 87.9198 134.043 88.5647 133.523C90.5638 131.911 90.9507 130.298 90.9507 129.138C90.9507 127.461 89.661 123.979 85.5339 123.979C81.3423 123.979 79.8591 127.655 79.8591 129.654C79.8591 130.234 80.3363 131.021 81.4713 131.072Z" fill="#20A2DC"/>
<circle cx="85.4048" cy="144.485" r="1.67663" fill="#20A2DC"/>
<path d="M60.5206 131.072C61.6555 131.124 62.0682 130.148 62.1327 129.654C62.5454 126.765 64.6692 126.945 65.6795 127.397C67.614 128.622 66.4533 130.353 65.6795 130.943C63.358 132.715 62.9281 134.812 62.9066 135.909V138.424C62.9066 138.94 63.5127 139.713 64.3897 139.713C65.2667 139.713 66.0664 139.069 66.0664 138.424V135.909C66.0664 135.264 66.9692 134.043 67.614 133.523C69.6131 131.911 70 130.298 70 129.138C70 127.461 68.7103 123.979 64.5832 123.979C60.3916 123.979 58.9084 127.655 58.9084 129.654C58.9084 130.234 59.3856 131.021 60.5206 131.072Z" fill="#20A2DC"/>
<circle cx="64.4542" cy="144.485" r="1.67663" fill="#20A2DC"/>
<path d="M39.5699 131.072C40.7049 131.124 41.1176 130.148 41.1821 129.654C41.5948 126.765 43.7185 126.945 44.7288 127.397C46.6633 128.622 45.5026 130.353 44.7288 130.943C42.4073 132.715 41.9774 134.812 41.9559 135.909V138.424C41.9559 138.94 42.562 139.713 43.4391 139.713C44.3161 139.713 45.1157 139.069 45.1157 138.424V135.909C45.1157 135.264 46.0185 134.043 46.6633 133.523C48.6624 131.911 49.0493 130.298 49.0493 129.138C49.0493 127.461 47.7596 123.979 43.6325 123.979C39.4409 123.979 37.9578 127.655 37.9578 129.654C37.9578 130.234 38.435 131.021 39.5699 131.072Z" fill="#20A2DC"/>
<circle cx="43.5036" cy="144.485" r="1.67663" fill="#20A2DC"/>
<rect x="15.912" y="156.268" width="143.033" height="4.26364" rx="2.13182" fill="#516678"/>
<rect x="161.158" y="156.268" width="7.15163" height="4.26364" rx="2.13182" fill="#20A2DC"/>
<rect x="6.71698" y="156.268" width="7.15163" height="4.26364" rx="2.13182" fill="#20A2DC"/>
<rect x="64.4409" y="164.454" width="45.6342" height="4.26364" rx="2.13182" fill="#20A2DC"/>
<rect x="72.7845" y="170.764" width="30.139" height="4.26364" rx="2.13182" fill="#20A2DC"/>
<rect x="83.1713" y="167.353" width="8.68413" height="4.26364" fill="#20A2DC"/>
<rect x="112.118" y="164.454" width="12.6005" height="4.26364" rx="2.13182" fill="#20A2DC"/>
<rect x="49.7971" y="164.454" width="12.6005" height="4.26364" rx="2.13182" fill="#20A2DC"/>
<rect x="170.353" y="156.268" width="4.25692" height="4.26364" rx="2.12846" fill="#20A2DC"/>
<rect x="0.24646" y="156.268" width="4.25692" height="4.26364" rx="2.12846" fill="#20A2DC"/>
</svg>
