<svg width="175" height="175" viewBox="0 0 175 175" fill="none" xmlns="http://www.w3.org/2000/svg">
<rect x="15.912" y="156.232" width="143.033" height="4.26364" rx="2.13182" fill="#516678"/>
<rect x="161.158" y="156.232" width="7.15163" height="4.26364" rx="2.13182" fill="#20A2DC"/>
<rect x="6.71698" y="156.232" width="7.15163" height="4.26364" rx="2.13182" fill="#20A2DC"/>
<rect x="64.4409" y="164.418" width="45.6342" height="4.26364" rx="2.13182" fill="#20A2DC"/>
<rect x="72.7845" y="170.728" width="30.139" height="4.26364" rx="2.13182" fill="#20A2DC"/>
<rect x="83.1714" y="167.317" width="8.68413" height="4.26364" fill="#20A2DC"/>
<rect x="112.118" y="164.418" width="12.6005" height="4.26364" rx="2.13182" fill="#20A2DC"/>
<rect x="49.7971" y="164.418" width="12.6005" height="4.26364" rx="2.13182" fill="#20A2DC"/>
<rect x="170.353" y="156.232" width="4.25692" height="4.26364" rx="2.12846" fill="#20A2DC"/>
<rect x="0.24646" y="156.232" width="4.25692" height="4.26364" rx="2.12846" fill="#20A2DC"/>
<path fill-rule="evenodd" clip-rule="evenodd" d="M24.1705 30.8882C21.7065 33.5609 20.2015 37.1311 20.2015 41.0529V74.0229C20.2015 77.9446 21.7065 81.5149 24.1705 84.1876V30.8882ZM24.6759 30.3659H78.5294V84.7099H24.6759C27.3837 87.377 31.1004 89.0229 35.2015 89.0229H68.1887C76.473 89.0229 83.1887 82.3071 83.1887 74.0229V41.0529C83.1887 32.7686 76.473 26.0529 68.1887 26.0529H35.2015C31.1004 26.0529 27.3837 27.6987 24.6759 30.3659Z" fill="#516678"/>
<path fill-rule="evenodd" clip-rule="evenodd" d="M72.8347 57.1928H55.2328C54.3699 57.2791 52.6097 56.9513 52.4717 54.95V36.3178C52.5867 35.5702 53.1965 34.1095 54.7151 34.2476C61.1288 34.4201 74.1807 38.6986 75.0781 54.4325C75.3369 55.3526 75.2506 57.1928 72.8347 57.1928ZM56.6132 38.5606V52.966H70.6775C69.7284 42.9599 60.8412 39.0494 56.6132 38.5606Z" fill="#516678"/>
<path fill-rule="evenodd" clip-rule="evenodd" d="M49.3654 44.5989V59.6944H64.4651C65.2129 59.7519 66.674 60.419 66.5359 62.6273C66.047 68.838 61.4279 81.2423 46.8632 81.1732C40.7658 81.1445 28.3812 77.2053 27.6219 61.6784C27.4781 55.8702 31.125 43.9088 46.8632 42.5287C47.6973 42.4424 49.3654 42.7357 49.3654 44.5989ZM45.1375 46.7553V62.0234C45.1087 62.5984 45.4481 63.7831 47.0358 63.9211H62.0492C61.5602 68.2629 57.942 76.9809 47.3809 77.1189C42.3764 77.6365 32.1949 72.8059 32.1949 62.0234C32.1949 57.7104 34.7834 48.6185 45.1375 46.7553Z" fill="#516678"/>
<path d="M154.2 74.0135L132.888 59.8668L130.3 63.1447L151.784 77.5502C154.2 77.8952 155.322 75.2211 154.2 74.0135Z" fill="#516678"/>
<path fill-rule="evenodd" clip-rule="evenodd" d="M112.87 72.4608C125.737 72.4608 136.167 62.0334 136.167 49.1705C136.167 36.3077 125.737 25.8803 112.87 25.8803C100.004 25.8803 89.5737 36.3077 89.5737 49.1705C89.5737 62.0334 100.004 72.4608 112.87 72.4608ZM112.957 68.1479C123.488 68.1479 132.025 59.6128 132.025 49.0844C132.025 38.5559 123.488 30.0208 112.957 30.0208C102.425 30.0208 93.888 38.5559 93.888 49.0844C93.888 59.6128 102.425 68.1479 112.957 68.1479Z" fill="#516678"/>
<path d="M110.627 34.6789C105.864 35.714 103.207 37.8705 102.603 38.9919C101.912 41.1484 103.983 42.2698 105.191 41.7522C107.866 39.7682 109.879 39.0494 110.627 38.9919C112.957 38.8127 113.129 37.6117 113.129 36.9216C113.267 35.1274 111.749 34.5064 110.627 34.6789Z" fill="#20A2DC"/>
<path fill-rule="evenodd" clip-rule="evenodd" d="M111.49 108C106.343 108 102.171 112.172 102.171 117.319V156.478H106.232V117.904C106.232 114.997 108.589 112.641 111.496 112.641C114.403 112.641 116.759 114.997 116.759 117.904V156.478H120.809V117.319C120.809 112.172 116.636 108 111.49 108Z" fill="#516678"/>
<path d="M109.437 126.875C109.437 125.684 110.402 124.718 111.594 124.718C112.785 124.718 113.751 125.684 113.751 126.875V156.462H109.437V126.875Z" fill="#516678"/>
<path fill-rule="evenodd" clip-rule="evenodd" d="M88.3658 131.118C83.2192 131.118 79.0471 135.29 79.0471 140.436V156.478H83.0634V140.123C83.0634 137.197 85.436 134.824 88.3627 134.824C91.2894 134.824 93.662 137.197 93.662 140.123V156.478H97.6844V140.436C97.6844 135.29 93.5123 131.118 88.3658 131.118Z" fill="#516678"/>
<path d="M86.2676 145.854C86.2676 144.663 87.2333 143.697 88.4247 143.697C89.616 143.697 90.5818 144.663 90.5818 145.854V156.636H86.2676V145.854Z" fill="#516678"/>
<path fill-rule="evenodd" clip-rule="evenodd" d="M65.0691 114.038C59.9226 114.038 55.7505 118.21 55.7505 123.357V156.478H59.8944V123.327C59.8944 120.42 62.2508 118.063 65.1577 118.063C68.0645 118.063 70.421 120.42 70.421 123.327V156.478H74.3878V123.357C74.3878 118.21 70.2157 114.038 65.0691 114.038Z" fill="#516678"/>
<path d="M62.8521 136.981C62.8521 135.79 63.8179 134.824 65.0092 134.824C66.2005 134.824 67.1663 135.79 67.1663 136.981V156.561H62.8521V136.981Z" fill="#516678"/>
<path d="M71.5404 103.687L84.1379 113.952L86.7264 114.124L89.3149 114.297L90.6954 112.572L102.775 96.3549L105.795 99.2877L93.1114 116.195L86.7264 114.124L80.1688 116.195L68.5205 106.706L71.5404 103.687Z" fill="#516678"/>
<path d="M45.4719 112.024C44.8385 111.015 45.1427 109.684 46.1516 109.051L56.9281 102.287L59.2222 105.939L48.4456 112.704C47.4368 113.337 46.1054 113.033 45.4719 112.024Z" fill="#516678"/>
<path d="M128.08 95.9975C127.913 97.1768 126.822 97.998 125.643 97.8316L114.499 96.2592L115.102 91.9885L126.246 93.5609C127.425 93.7273 128.246 94.8182 128.08 95.9975Z" fill="#516678"/>
<path fill-rule="evenodd" clip-rule="evenodd" d="M87.2441 127.667C91.7711 127.667 95.4411 123.998 95.4411 119.473C95.4411 114.947 91.7711 111.278 87.2441 111.278C82.717 111.278 79.0471 114.947 79.0471 119.473C79.0471 123.998 82.717 127.667 87.2441 127.667ZM87.3304 123.354C89.5225 123.354 91.2995 121.578 91.2995 119.386C91.2995 117.195 89.5225 115.418 87.3304 115.418C85.1384 115.418 83.3613 117.195 83.3613 119.386C83.3613 121.578 85.1384 123.354 87.3304 123.354Z" fill="#516678"/>
<path fill-rule="evenodd" clip-rule="evenodd" d="M108.297 101.099C112.824 101.099 116.494 97.4303 116.494 92.9044C116.494 88.3786 112.824 84.7097 108.297 84.7097C103.77 84.7097 100.1 88.3786 100.1 92.9044C100.1 97.4303 103.77 101.099 108.297 101.099ZM108.384 96.7863C110.576 96.7863 112.353 95.0097 112.353 92.8183C112.353 90.6268 110.576 88.8503 108.384 88.8503C106.192 88.8503 104.415 90.6268 104.415 92.8183C104.415 95.0097 106.192 96.7863 108.384 96.7863Z" fill="#516678"/>
<path fill-rule="evenodd" clip-rule="evenodd" d="M64.2926 109.208C68.8196 109.208 72.4895 105.539 72.4895 101.013C72.4895 96.4871 68.8196 92.8182 64.2926 92.8182C59.7655 92.8182 56.0956 96.4871 56.0956 101.013C56.0956 105.539 59.7655 109.208 64.2926 109.208ZM64.3788 104.895C66.5709 104.895 68.3479 103.118 68.3479 100.927C68.3479 98.7352 66.5709 96.9587 64.3788 96.9587C62.1868 96.9587 60.4098 98.7352 60.4098 100.927C60.4098 103.118 62.1868 104.895 64.3788 104.895Z" fill="#516678"/>
<path d="M9.53854 32.4259L8.40126 32.9955L10.0124 35.0838H7.54831V36.1279L10.0124 35.6533L8.40126 38.0264L9.53854 38.5959L10.4863 36.1279L11.6235 38.5959L12.7608 37.8365L11.1497 35.6533L13.8033 36.1279V35.0838H11.1497L12.7608 32.9955L11.9079 32.4259L10.4863 34.7041L9.53854 32.4259Z" fill="#20A2DC"/>
<path d="M40.7025 12.7511L39.5653 13.3206L41.1764 15.4089H38.7123V16.453L41.1764 15.9784L39.5653 18.3515L40.7025 18.921L41.6503 16.453L42.7875 18.921L43.9248 18.1616L42.3137 15.9784L44.9673 16.453V15.4089H42.3137L43.9248 13.3206L43.0719 12.7511L41.6503 15.0292L40.7025 12.7511Z" fill="#20A2DC"/>
<path d="M148.059 43.1446L146.922 43.7142L148.533 45.8024H146.069V46.8466L148.533 46.372L146.922 48.745L148.059 49.3146L149.007 46.8466L150.144 49.3146L151.281 48.5552L149.67 46.372L152.324 46.8466V45.8024H149.67L151.281 43.7142L150.429 43.1446L149.007 45.4228L148.059 43.1446Z" fill="#20A2DC"/>
<path d="M136.486 5.81198L135.348 6.38152L136.959 8.46981H134.495V9.51395L136.959 9.03934L135.348 11.4124L136.486 11.9819L137.433 9.51395L138.571 11.9819L139.708 11.2226L138.097 9.03934L140.75 9.51395V8.46981H138.097L139.708 6.38152L138.855 5.81198L137.433 8.09012L136.486 5.81198Z" fill="#20A2DC"/>
<path d="M82.9516 7.14789L82.4346 7.42827L83.1669 8.45636H82.0469V8.9704L83.1669 8.73674L82.4346 9.90502L82.9516 10.1854L83.3823 8.9704L83.8993 10.1854L84.4162 9.81155L83.6839 8.73674L84.8901 8.9704V8.45636H83.6839L84.4162 7.42827L84.0285 7.14789L83.3823 8.26943L82.9516 7.14789Z" fill="#20A2DC"/>
<path fill-rule="evenodd" clip-rule="evenodd" d="M20.5736 15.9688C21.8298 15.9688 22.8482 14.9489 22.8482 13.6907C22.8482 12.4325 21.8298 11.4126 20.5736 11.4126C19.3175 11.4126 18.2991 12.4325 18.2991 13.6907C18.2991 14.9489 19.3175 15.9688 20.5736 15.9688ZM20.5437 14.4101C20.9569 14.4101 21.2919 14.0746 21.2919 13.6607C21.2919 13.2469 20.9569 12.9113 20.5437 12.9113C20.1305 12.9113 19.7955 13.2469 19.7955 13.6607C19.7955 14.0746 20.1305 14.4101 20.5437 14.4101Z" fill="#516678"/>
<path fill-rule="evenodd" clip-rule="evenodd" d="M12.3802 59.3205C13.6364 59.3205 14.6547 58.3005 14.6547 57.0424C14.6547 55.7842 13.6364 54.7642 12.3802 54.7642C11.124 54.7642 10.1057 55.7842 10.1057 57.0424C10.1057 58.3005 11.124 59.3205 12.3802 59.3205ZM12.3502 57.7618C12.7635 57.7618 13.0984 57.4263 13.0984 57.0124C13.0984 56.5985 12.7635 56.263 12.3502 56.263C11.937 56.263 11.602 56.5985 11.602 57.0124C11.602 57.4263 11.937 57.7618 12.3502 57.7618Z" fill="#516678"/>
<path fill-rule="evenodd" clip-rule="evenodd" d="M109.325 21.5433C111.538 21.5433 113.333 19.7465 113.333 17.5299C113.333 15.3134 111.538 13.5165 109.325 13.5165C107.112 13.5165 105.318 15.3134 105.318 17.5299C105.318 19.7465 107.112 21.5433 109.325 21.5433ZM109.273 18.7972C110.001 18.7972 110.591 18.2062 110.591 17.477C110.591 16.7479 110.001 16.1568 109.273 16.1568C108.545 16.1568 107.954 16.7479 107.954 17.477C107.954 18.2062 108.545 18.7972 109.273 18.7972Z" fill="#516678"/>
<path fill-rule="evenodd" clip-rule="evenodd" d="M165.405 69.6567C166.726 69.6567 167.798 68.5837 167.798 67.2599C167.798 65.9362 166.726 64.8632 165.405 64.8632C164.083 64.8632 163.012 65.9362 163.012 67.2599C163.012 68.5837 164.083 69.6567 165.405 69.6567ZM165.373 68.0166C165.808 68.0166 166.16 67.6636 166.16 67.2282C166.16 66.7928 165.808 66.4398 165.373 66.4398C164.939 66.4398 164.586 66.7928 164.586 67.2282C164.586 67.6636 164.939 68.0166 165.373 68.0166Z" fill="#516678"/>
<path fill-rule="evenodd" clip-rule="evenodd" d="M156.605 29.6836C157.926 29.6836 158.998 28.6105 158.998 27.2868C158.998 25.9631 157.926 24.89 156.605 24.89C155.283 24.89 154.212 25.9631 154.212 27.2868C154.212 28.6105 155.283 29.6836 156.605 29.6836ZM156.573 28.0434C157.008 28.0434 157.361 27.6905 157.361 27.255C157.361 26.8196 157.008 26.4666 156.573 26.4666C156.139 26.4666 155.786 26.8196 155.786 27.255C155.786 27.6905 156.139 28.0434 156.573 28.0434Z" fill="#516678"/>
</svg>
