<svg width="175" height="176" viewBox="0 0 175 176" fill="none" xmlns="http://www.w3.org/2000/svg">
<path d="M33.786 79.6127L32.6487 80.1822L34.2599 82.2705H31.7958V83.3146L34.2599 82.84L32.6487 85.2131L33.786 85.7826L34.7337 83.3146L35.871 85.7826L37.0083 85.0232L35.3971 82.84L38.0508 83.3146V82.2705H35.3971L37.0083 80.1822L36.1553 79.6127L34.7337 81.8908L33.786 79.6127Z" fill="#20A2DC"/>
<path d="M44.8776 13.5564L43.7403 14.1259L45.3514 16.2142H42.8873V17.2584L45.3514 16.7838L43.7403 19.1568L44.8776 19.7263L45.8253 17.2584L46.9626 19.7263L48.0998 18.967L46.4887 16.7838L49.1423 17.2584V16.2142H46.4887L48.0998 14.1259L47.2469 13.5564L45.8253 15.8345L44.8776 13.5564Z" fill="#20A2DC"/>
<path d="M129.42 9.85913L128.283 10.4287L129.894 12.517H127.43V13.5611L129.894 13.0865L128.283 15.4595L129.42 16.0291L130.368 13.5611L131.505 16.0291L132.642 15.2697L131.031 13.0865L133.685 13.5611V12.517H131.031L132.642 10.4287L131.789 9.85913L130.368 12.1373L129.42 9.85913Z" fill="#20A2DC"/>
<path d="M129.42 64.5775L128.283 65.147L129.894 67.2353H127.43V68.2795L129.894 67.8049L128.283 70.1779L129.42 70.7475L130.368 68.2795L131.505 70.7475L132.642 69.9881L131.031 67.8049L133.685 68.2795V67.2353H131.031L132.642 65.147L131.789 64.5775L130.368 66.8556L129.42 64.5775Z" fill="#20A2DC"/>
<path d="M88.7131 2.95776L88.1962 3.23815L88.9285 4.26623H87.8085V4.78027L88.9285 4.54662L88.1962 5.71489L88.7131 5.99528L89.1439 4.78027L89.6608 5.99528L90.1778 5.62143L89.4455 4.54662L90.6517 4.78027V4.26623H89.4455L90.1778 3.23815L89.7901 2.95776L89.1439 4.07931L88.7131 2.95776Z" fill="#20A2DC"/>
<path fill-rule="evenodd" clip-rule="evenodd" d="M19.0351 30.6831C20.2913 30.6831 21.3096 29.6631 21.3096 28.405C21.3096 27.1468 20.2913 26.1268 19.0351 26.1268C17.7789 26.1268 16.7606 27.1468 16.7606 28.405C16.7606 29.6631 17.7789 30.6831 19.0351 30.6831ZM19.0052 29.1244C19.4184 29.1244 19.7534 28.7889 19.7534 28.375C19.7534 27.9611 19.4184 27.6256 19.0052 27.6256C18.592 27.6256 18.257 27.9611 18.257 28.375C18.257 28.7889 18.592 29.1244 19.0052 29.1244Z" fill="#516678"/>
<path fill-rule="evenodd" clip-rule="evenodd" d="M21.2534 64.6971C22.5096 64.6971 23.528 63.6772 23.528 62.419C23.528 61.1608 22.5096 60.1409 21.2534 60.1409C19.9972 60.1409 18.9789 61.1608 18.9789 62.419C18.9789 63.6772 19.9972 64.6971 21.2534 64.6971ZM21.2235 63.1384C21.6367 63.1384 21.9717 62.8029 21.9717 62.389C21.9717 61.9752 21.6367 61.6396 21.2235 61.6396C20.8103 61.6396 20.4753 61.9752 20.4753 62.389C20.4753 62.8029 20.8103 63.1384 21.2235 63.1384Z" fill="#516678"/>
<path fill-rule="evenodd" clip-rule="evenodd" d="M79.0292 21.7899C81.2423 21.7899 83.0363 19.9931 83.0363 17.7765C83.0363 15.5599 81.2423 13.7631 79.0292 13.7631C76.8161 13.7631 75.0221 15.5599 75.0221 17.7765C75.0221 19.9931 76.8161 21.7899 79.0292 21.7899ZM78.9764 19.0438C79.7044 19.0438 80.2945 18.4527 80.2945 17.7236C80.2945 16.9945 79.7044 16.4034 78.9764 16.4034C78.2484 16.4034 77.6583 16.9945 77.6583 17.7236C77.6583 18.4527 78.2484 19.0438 78.9764 19.0438Z" fill="#516678"/>
<path fill-rule="evenodd" clip-rule="evenodd" d="M145.844 50.3922C147.165 50.3922 148.237 49.3191 148.237 47.9954C148.237 46.6717 147.165 45.5986 145.844 45.5986C144.522 45.5986 143.451 46.6717 143.451 47.9954C143.451 49.3191 144.522 50.3922 145.844 50.3922ZM145.812 48.7521C146.247 48.7521 146.599 48.3991 146.599 47.9637C146.599 47.5282 146.247 47.1753 145.812 47.1753C145.378 47.1753 145.025 47.5282 145.025 47.9637C145.025 48.3991 145.378 48.7521 145.812 48.7521Z" fill="#516678"/>
<path fill-rule="evenodd" clip-rule="evenodd" d="M153.084 17.8569C154.406 17.8569 155.477 16.7839 155.477 15.4601C155.477 14.1364 154.406 13.0634 153.084 13.0634C151.763 13.0634 150.691 14.1364 150.691 15.4601C150.691 16.7839 151.763 17.8569 153.084 17.8569ZM153.053 16.2168C153.487 16.2168 153.84 15.8638 153.84 15.4284C153.84 14.9929 153.487 14.6399 153.053 14.6399C152.618 14.6399 152.266 14.9929 152.266 15.4284C152.266 15.8638 152.618 16.2168 153.053 16.2168Z" fill="#516678"/>
<path fill-rule="evenodd" clip-rule="evenodd" d="M39.7272 31.3029C37.5505 31.3029 33.3473 33.7047 35.6741 39.259L78.232 116.344C79.2828 117.92 80.4087 118.895 82.8076 118.895C85.3625 118.895 86.7887 117.394 87.4641 116.344L129.797 39.4842C132.424 34.8306 128.296 31.3029 126.044 31.3029H39.7272ZM40.6282 34.9056C39.5774 34.9056 38.2262 35.8063 38.9019 37.4576L80.8593 113.641C81.2344 114.392 81.8501 115.143 82.8108 115.143C83.7716 115.143 84.3118 114.392 84.7623 113.641L126.57 37.983C127.17 37.0073 127.095 34.9807 125.294 34.9056H40.6282Z" fill="#516678"/>
<path fill-rule="evenodd" clip-rule="evenodd" d="M74.6233 47.2151C74.7984 44.6882 76.7099 39.6343 82.9547 39.6343C89.1995 39.6343 90.9609 44.6882 91.061 47.2151L87.9836 83.2429C87.9085 84.7441 86.1072 87.221 82.9547 87.221C79.2018 87.221 77.6256 84.1436 77.6256 83.2429L74.6233 47.2151ZM78.3011 47.065C78.3762 45.8141 79.382 43.3121 82.8046 43.3121C86.2273 43.3121 87.233 45.714 87.3081 46.9149L84.5309 81.8919C84.3808 83.0928 83.7804 83.5432 82.8797 83.5432C81.979 83.5432 81.2284 83.2429 81.1533 81.8919L78.3011 47.065Z" fill="#20A2DC"/>
<path fill-rule="evenodd" clip-rule="evenodd" d="M82.8797 102.233C86.0716 102.233 88.6591 99.6451 88.6591 96.4532C88.6591 93.2613 86.0716 90.6737 82.8797 90.6737C79.6878 90.6737 77.1002 93.2613 77.1002 96.4532C77.1002 99.6451 79.6878 102.233 82.8797 102.233ZM82.8797 98.4797C83.999 98.4797 84.9063 97.5724 84.9063 96.4531C84.9063 95.3339 83.999 94.4266 82.8797 94.4266C81.7605 94.4266 80.8531 95.3339 80.8531 96.4531C80.8531 97.5724 81.7605 98.4797 82.8797 98.4797Z" fill="#516678"/>
<path fill-rule="evenodd" clip-rule="evenodd" d="M96.5509 106.259C107.594 110.451 119.576 119.502 124.312 137.134C124.812 138.736 126.759 141.953 130.542 142.013H143.977C144.702 142.188 146.094 141.923 145.853 139.461C145.853 124.059 136.683 95.6002 107.97 85.7657L106.05 89.2109C112.456 91.5249 117.342 94.5854 119.958 96.6783L108.775 108.763C105.175 106.232 101.641 104.406 98.3192 103.085L96.5509 106.259ZM59.3303 88.8809C38.8524 99.9631 28.838 122.864 28.838 140.062C29.0382 146.041 30.144 158.001 32.9662 158.001H32.5159C33.1664 158.051 34.7976 157.971 34.9177 157.25C35.0031 156.737 34.8362 154.548 34.6679 152.341C34.5404 150.67 34.4122 148.988 34.3923 148.018C34.1297 135.215 42.1944 111.501 68.081 104.856L66.2992 101.603C59.1853 103.674 53.6149 106.936 51.0552 108.913L49.0286 101.857C52.1074 98.1692 56.5976 95.0292 61.3458 92.5602L59.3303 88.8809ZM111.777 111.014L122.886 98.855C129.216 103.609 141.935 118.16 142.176 138.335H131.292C130.091 138.335 128.17 137.78 127.689 135.258C126.088 130.054 121.76 118.82 111.777 111.014ZM45.9512 104.785C36.644 114.512 33.4165 128.203 32.9662 133.832C36.2687 122.423 44.4 114.267 48.0528 111.615L45.9512 104.785Z" fill="#516678"/>
<path d="M45.3507 128.091C45.3507 126.694 46.3025 126.326 46.937 126.326H53.0484C53.6194 126.326 54.5078 126.679 54.5078 128.091C54.5078 129.503 53.556 129.929 53.0484 129.929H46.937C46.4294 129.929 45.3507 129.561 45.3507 128.091Z" fill="#20A2DC"/>
<path d="M45.3507 135.447C45.3507 134.05 46.3025 133.682 46.937 133.682H53.0484C53.6194 133.682 54.5078 134.035 54.5078 135.447C54.5078 136.858 53.556 137.285 53.0484 137.285H46.937C46.4294 137.285 45.3507 136.917 45.3507 135.447Z" fill="#516678"/>
<path d="M45.3507 142.802C45.3507 141.405 46.3025 141.038 46.937 141.038H53.0484C53.6194 141.038 54.5078 141.391 54.5078 142.802C54.5078 144.214 53.556 144.64 53.0484 144.64H46.937C46.4294 144.64 45.3507 144.273 45.3507 142.802Z" fill="#20A2DC"/>
<path d="M45.3507 150.158C45.3507 148.761 46.3025 148.393 46.937 148.393H53.0484C53.6194 148.393 54.5078 148.746 54.5078 150.158C54.5078 151.57 53.556 151.996 53.0484 151.996H46.937C46.4294 151.996 45.3507 151.628 45.3507 150.158Z" fill="#516678"/>
<path d="M58.1106 135.447C58.1106 134.05 59.0624 133.682 59.6969 133.682H65.8083C66.3793 133.682 67.2677 134.035 67.2677 135.447C67.2677 136.858 66.3159 137.285 65.8083 137.285H59.6969C59.1893 137.285 58.1106 136.917 58.1106 135.447Z" fill="#20A2DC"/>
<path d="M58.1106 142.802C58.1106 141.405 59.0624 141.038 59.6969 141.038H65.8083C66.3793 141.038 67.2677 141.391 67.2677 142.802C67.2677 144.214 66.3159 144.64 65.8083 144.64H59.6969C59.1893 144.64 58.1106 144.273 58.1106 142.802Z" fill="#516678"/>
<path d="M58.1106 150.158C58.1106 148.761 59.0624 148.393 59.6969 148.393H65.8083C66.3793 148.393 67.2677 148.746 67.2677 150.158C67.2677 151.57 66.3159 151.996 65.8083 151.996H59.6969C59.1893 151.996 58.1106 151.628 58.1106 150.158Z" fill="#20A2DC"/>
<path fill-rule="evenodd" clip-rule="evenodd" d="M95.1892 128.128C94.1383 127.327 91.076 125.756 87.233 125.876C82.6545 125.951 73.3473 128.983 72.7468 140.512C72.7969 145.116 75.7642 154.488 87.233 155.148C91.5363 155.248 100.518 152.716 102.019 141.788L112.903 129.479C113.278 128.803 113.128 127.002 111.477 126.852L95.1892 128.128ZM106.898 130.83L94.3638 131.655C94.1718 131.564 93.9553 131.456 93.7175 131.336C92.1886 130.569 89.7766 129.359 87.3084 129.554C83.7806 129.629 76.5001 132.031 76.5 140.662C76.5 148.77 83.6305 151.546 87.3084 151.546C90.0605 151.646 95.7148 150.27 97.9666 143.589C98.0572 143.227 98.1273 142.817 98.1995 142.394C98.3668 141.415 98.5457 140.368 99.0174 139.686L106.898 130.83Z" fill="#516678"/>
<path fill-rule="evenodd" clip-rule="evenodd" d="M87.3081 148.393C91.5778 148.393 95.0391 144.932 95.0391 140.662C95.0391 136.393 91.5778 132.931 87.3081 132.931C83.0384 132.931 79.5771 136.393 79.5771 140.662C79.5771 144.932 83.0384 148.393 87.3081 148.393ZM87.3832 144.49C89.4558 144.49 91.1361 142.81 91.1361 140.737C91.1361 138.665 89.4558 136.984 87.3832 136.984C85.3105 136.984 83.6303 138.665 83.6303 140.737C83.6303 142.81 85.3105 144.49 87.3832 144.49Z" fill="#20A2DC"/>
<rect x="15.912" y="156.268" width="143.033" height="4.26364" rx="2.13182" fill="#516678"/>
<rect x="161.158" y="156.268" width="7.15163" height="4.26364" rx="2.13182" fill="#20A2DC"/>
<rect x="6.71698" y="156.268" width="7.15163" height="4.26364" rx="2.13182" fill="#20A2DC"/>
<rect x="64.4409" y="164.454" width="45.6342" height="4.26364" rx="2.13182" fill="#20A2DC"/>
<rect x="72.7844" y="170.764" width="30.139" height="4.26364" rx="2.13182" fill="#20A2DC"/>
<rect x="83.1714" y="167.353" width="8.68413" height="4.26364" fill="#20A2DC"/>
<rect x="112.118" y="164.454" width="12.6005" height="4.26364" rx="2.13182" fill="#20A2DC"/>
<rect x="49.7971" y="164.454" width="12.6005" height="4.26364" rx="2.13182" fill="#20A2DC"/>
<rect x="170.353" y="156.268" width="4.25692" height="4.26364" rx="2.12846" fill="#20A2DC"/>
<rect x="0.24646" y="156.268" width="4.25692" height="4.26364" rx="2.12846" fill="#20A2DC"/>
</svg>
