<svg width="175" height="175" viewBox="0 0 175 175" fill="none" xmlns="http://www.w3.org/2000/svg">
<path fill-rule="evenodd" clip-rule="evenodd" d="M30.5667 93.233C31.8285 93.2019 33.2088 93.1712 34.6505 93.1414L35.2438 79.4241L45.1665 76.7109C45.8882 77.4324 46.5299 86.7784 46.8436 92.9276C47.8772 92.9122 48.8534 92.8984 49.7463 92.8864C50.0333 92.5733 50.4232 92.2112 50.918 91.8145C50.7144 87.4681 49.7166 79.9236 49.1526 76.1174L50.3399 70.2672C51.5612 70.6741 55.372 70.4367 57.1247 70.2672L58.312 75.6935C57.4666 77.9475 56.7577 84.2195 56.3798 88.5303C57.6322 87.9373 59.0523 87.3441 60.6441 86.7779C61.038 82.8209 61.8534 78.467 62.2981 76.7109L72.3904 79.4241V80.506L68.4044 81.6286C66.5725 81.7642 66.0014 82.8721 65.9449 83.4091L65.8759 85.2024C68.5553 84.5286 71.5713 83.9573 74.9347 83.5599H76.5961L79.9385 82.646C79.9739 82.6814 80.0091 82.7374 80.044 82.8129L80.1081 82.7968L80.2212 83.3619C80.2711 83.5629 80.3204 83.8003 80.3691 84.0695C81.4303 84.2178 83.4959 84.5579 84.324 84.8669C84.1794 83.8076 84.0425 82.8483 83.9246 82.0525L85.1119 76.2022C86.3332 76.6092 90.1439 76.3718 91.8967 76.2022L93.084 81.6286C93.0791 81.6416 93.0742 81.6548 93.0693 81.6682C94.3724 81.2895 95.5251 81.0589 96.3068 81.1011C98.7861 81.1358 104.1 82.142 111.064 85.2465V83.7482C110.724 82.4595 110.187 82.0808 109.961 82.0525L105.805 80.884V79.4241L115.898 76.7109C116.413 78.7448 117.425 84.2639 117.704 88.6148C118.813 89.245 119.948 89.9239 121.105 90.6546L122.004 90.8703C121.721 86.9418 120.902 78.4067 119.884 75.6935L121.071 70.2672C122.824 70.4367 126.635 70.6741 127.856 70.2672L129.043 76.1174C128.372 80.6493 127.085 90.481 127.257 93.9039H131.304C131.596 87.8242 132.268 77.4718 133.029 76.7109L142.952 79.4241L143.578 93.9039H145.072C145.672 93.8803 146.616 93.9704 147.67 94.2888L147.023 77.474C146.966 76.937 146.395 75.8292 144.563 75.6935L132.521 72.302L131.842 69.0802C134.556 67.9779 139.882 62.7212 139.475 50.5119C140.295 49.8054 141.883 47.4935 141.68 43.8986C141.765 41.6093 141.069 36.8443 137.609 36.0982C137.948 34.2047 135.811 30.4514 124.548 30.5871C119.686 30.3045 109.605 32.4355 108.18 43.2203C109.876 44.9443 112.675 50.2237 110.3 57.5492C110.809 60.545 112.896 66.9605 117.17 68.6562L116.576 72.302L103.007 76.1174C102.781 76.1457 102.243 76.5244 101.904 77.8132V79.7871L96.3916 78.2371L95.7979 74.5913C100.072 72.8956 102.159 66.4801 102.668 63.4843C100.293 56.1587 103.092 50.8793 104.788 49.1554C103.363 38.3705 93.2819 36.2395 88.4195 36.5222C77.1567 36.3865 75.0195 40.1397 75.3588 42.0333C71.8986 42.7794 71.2031 47.5444 71.2879 49.8336C71.0844 53.4286 72.6731 55.7404 73.493 56.447C73.0859 68.6562 78.4119 73.913 81.1258 75.0152L80.4474 78.2371L76.2917 79.4074V77.8132C75.9524 76.5244 75.4153 76.1457 75.1892 76.1174L61.6196 72.302L61.0259 68.6562C65.3004 66.9605 67.3867 60.545 67.8955 57.5492C65.5209 50.2237 68.3196 44.9443 70.0158 43.2203C68.591 32.4355 58.5099 30.3045 53.6475 30.5871C42.3848 30.4514 40.2476 34.2047 40.5868 36.0982C37.1266 36.8443 36.4311 41.6093 36.5159 43.8986C36.3124 47.4935 37.9012 49.8054 38.721 50.5119C38.3139 62.7212 43.64 67.9779 46.3539 69.0802L45.6754 72.302L33.6324 75.6935C31.8005 75.8292 31.2295 76.937 31.1729 77.474L30.5667 93.233ZM40.9261 46.8661C40.5586 45.2269 39.9932 41.9485 41.4349 39.9984C41.859 39.9136 42.8767 40.168 43.8944 40.5919C44.9121 40.5919 45.9298 39.9984 46.0147 38.8114C46.0147 37.794 45.9638 37.3022 44.4033 36.3526C45.0535 35.7873 47.8126 34.6399 53.6475 34.5721C55.796 34.5721 60.6358 35.1147 62.807 37.2852C63.9095 38.1331 66.1994 41.7789 66.1994 46.527C65.7089 46.1121 65.1807 45.6387 64.6381 45.1525C62.741 43.4523 60.6676 41.5941 59.4146 41.5246C58.9057 41.4963 57.6336 41.6093 57.3791 43.2203L57.2095 44.4073C55.8526 44.2377 53.0369 43.1525 51.9513 41.5246C51.6121 41.0724 50.0855 39.9136 49.407 39.4897C48.7286 39.0658 47.8805 39.4897 47.8805 39.4897C47.0324 40.1115 45.3192 41.5754 45.2514 42.4572C44.1771 43.9268 41.8081 46.8661 40.9261 46.8661ZM42.7918 50.5119C44.8951 49.8336 47.739 46.0465 48.8981 44.2377C52.087 47.4935 56.0504 48.477 57.6335 48.5618C59.194 48.6975 60.5453 47.94 61.0259 47.5444C61.3651 48.0192 63.4288 49.7206 64.4183 50.5119C64.5842 59.551 61.2804 64.3578 58.4817 65.6485C56.3758 66.6198 54.5267 66.7615 53.3082 66.7061C49.5766 66.5365 48.1349 65.6485 46.7779 64.3578C43.9792 61.5341 42.5041 54.3661 42.7918 50.5119ZM136.761 39.9984C138.203 41.9485 137.637 45.2269 137.27 46.8661C136.388 46.8661 134.019 43.9268 132.945 42.4572C132.877 41.5754 131.164 40.1115 130.315 39.4897C130.315 39.4897 129.467 39.0658 128.789 39.4897C128.11 39.9136 126.584 41.0724 126.245 41.5246C125.159 43.1525 122.343 44.2377 120.986 44.4073L120.817 43.2203C120.562 41.6093 119.29 41.4963 118.781 41.5246C117.528 41.5941 115.455 43.4523 113.558 45.1525C113.015 45.6387 112.487 46.1121 111.997 46.527C111.997 41.7789 114.286 38.1331 115.389 37.2852C117.56 35.1147 122.4 34.5721 124.548 34.5721C130.383 34.6399 133.142 35.7873 133.793 36.3526C132.232 37.3022 132.181 37.794 132.181 38.8114C132.266 39.9984 133.284 40.5919 134.302 40.5919C135.319 40.168 136.337 39.9136 136.761 39.9984ZM129.298 44.2377C130.457 46.0465 133.301 49.8336 135.404 50.5119C135.692 54.3661 134.217 61.5341 131.418 64.3578C130.061 65.6485 128.619 66.5365 124.888 66.7061C123.669 66.7615 121.82 66.6198 119.714 65.6485C116.915 64.3578 113.612 59.551 113.778 50.5119C114.767 49.7206 116.831 48.0192 117.17 47.5444C117.651 47.94 119.002 48.6975 120.562 48.5618C122.145 48.477 126.109 47.4935 129.298 44.2377ZM76.2069 45.9335C74.7651 47.8836 75.3305 51.162 75.698 52.8012C76.58 52.8012 78.9491 49.8619 80.0233 48.3923C80.0912 47.5105 81.8043 46.0465 82.6524 45.4247C82.6524 45.4247 83.5005 45.0008 84.179 45.4247C84.8575 45.8487 86.384 47.0074 86.7233 47.4596C87.8088 49.0875 90.6245 50.1728 91.9815 50.3424L92.1511 49.1553C92.4055 47.5444 93.6777 47.4314 94.1865 47.4596C95.4395 47.5292 97.513 49.3874 99.4101 51.0875C99.9527 51.5738 100.481 52.0472 100.971 52.462C100.971 47.714 98.6814 44.0682 97.5789 43.2203C95.4078 41.0498 90.568 40.5071 88.4195 40.5071C82.5846 40.575 79.8254 41.7224 79.1752 42.2876C80.7357 43.2373 80.7866 43.729 80.7866 44.7465C80.7018 45.9335 79.6841 46.527 78.6664 46.527C77.6486 46.103 76.6309 45.8487 76.2069 45.9335ZM83.6701 50.1728C82.511 51.9815 79.6671 55.7687 77.5638 56.447C77.2761 60.3012 78.7512 67.4692 81.5499 70.2928C82.9069 71.5836 84.3486 72.4716 88.0802 72.6412C89.2987 72.6965 91.1477 72.5549 93.2536 71.5836C96.0524 70.2928 99.3562 65.4861 99.1903 56.447C98.2008 55.6556 96.1371 53.9542 95.7979 53.4794C95.3173 53.8751 93.966 54.6325 92.4055 54.4969C90.8224 54.4121 86.8589 53.4286 83.6701 50.1728Z" fill="#516678"/>
<path fill-rule="evenodd" clip-rule="evenodd" d="M51.188 97.2106C53.3365 95.1474 59.1093 90.8346 65.012 90.0885C67.1605 89.4385 71.9494 88.0536 73.917 87.7145C77.055 87.884 83.755 88.5115 85.4512 89.6646L94.1866 85.6796C94.441 85.2839 95.8658 84.73 99.5296 85.6796C104.929 87.5166 117.458 92.5812 124.379 98.1432H144.564C145.44 98.2563 147.176 99.008 147.108 101.111V135.873C147.136 136.919 146.667 139.044 144.564 139.18L123.87 138.925L120.223 142.402C120.223 142.402 117.713 149.049 112.081 149.185C111.318 150.626 108.655 153.288 104.109 152.407C103.629 153.565 101.548 155.934 97.0701 156.137L96.4764 156.561H68.574C67.7259 155.996 65.9788 154.594 65.7753 153.509C63.8812 154.611 59.3637 155.425 56.4462 149.863C53.9019 149.948 48.6437 148.523 47.9653 142.147C47.9653 141.526 48.1858 140.079 49.0678 138.586H30.3248C29.2789 138.643 27.1869 138.162 27.1869 135.788V100.263C27.2152 99.2454 27.8314 97.2106 30.0704 97.2106H31.4274H51.188ZM31.4274 101.196V134.432H35.4982V117.135C36.1202 117.418 37.8051 117.814 39.5691 117.135V134.432H53.1387L57.7184 130.616C59.4428 130.221 63.3158 130.226 65.012 133.414L70.6943 127.395C72.6449 125.84 77.5639 123.901 81.6347 128.582C82.6807 127.055 85.9431 124.529 90.6245 126.631C90.6971 126.677 90.7721 126.726 90.8491 126.779L93.6287 129.691C94.4328 131.036 94.8495 132.675 94.1866 134.432C96.1655 135.138 100.174 137.467 99.6992 141.13C99.2242 144.793 98.5401 146.104 98.2574 146.302V151.898C98.9359 151.983 100.361 151.694 100.632 149.863C100.903 148.032 100.01 139.773 99.5296 135.873L93.6287 129.691C92.8552 128.396 91.7232 127.373 90.8491 126.779L88.9284 124.766C88.8435 123.636 89.2846 121.527 91.7271 122.138L103.431 134.432L104.618 148.422C105.551 148.563 107.688 148.472 108.774 146.98L107.586 130.192L94.9498 117.475C94.8085 116.457 95.1025 114.49 97.4093 114.761L111.573 128.582L112.76 145.03C113.721 144.861 115.728 144.047 116.067 142.147L115.304 124.766L102.752 111.37C102.583 110.437 102.837 108.572 105.212 108.572L119.375 122.901L119.884 136.891L122.089 134.941H134.556V130.871C135.206 131.238 136.948 131.753 138.712 130.871V134.941H142.867V102.213H138.712V119.001C137.779 118.718 135.642 118.322 134.556 119.001V102.213H123.022C117.848 98.5954 105.348 90.9533 96.7309 89.3254C95.6283 89.3537 92.6261 90.0037 89.4372 92.3777L79.0056 98.1432C76.9702 102.948 73.0011 113.133 73.4082 115.44C73.6061 116.005 74.7651 116.898 77.8183 115.948C78.2297 115.82 78.5502 115.723 78.7936 115.651C78.4995 115.819 78.2312 115.951 77.9926 116.05C77.8475 116.102 77.7026 116.154 77.5639 116.203C77.6934 116.165 77.8367 116.115 77.9926 116.05C79.076 115.661 80.1719 115.244 78.7936 115.651C81.2011 114.276 85.3446 110.48 89.1828 102.467C89.2959 101.846 90.0648 100.704 92.2359 101.111C94.4071 101.518 98.3422 102.693 97.4941 102.467L99.6992 103.061C100.604 104.05 101.667 106.181 98.6815 106.791L92.2359 105.435C90.0026 110.437 83.6193 120.476 75.9525 120.612C75.3588 120.612 69.1677 120.188 69.3373 115.44C69.62 113.179 70.5416 108.063 71.9664 105.689L75.1892 96.0235C75.7263 95.3735 77.479 93.8021 80.193 92.7169C80.306 92.4908 79.3109 92.0216 74.4259 91.9538C71.5706 92.519 64.9611 93.9717 61.3652 95.2605C57.7693 96.5492 54.6087 99.5846 53.4779 100.941L39.5691 101.111V105.435C39.1733 105.067 37.8051 104.553 35.4982 105.435V101.196H31.4274ZM65.1816 149.1C62.2642 151.677 60.5171 149.269 60.0082 147.743C61.8741 143.674 70.6095 132.821 73.6626 130.277C76.6479 128.785 78.3554 130.729 78.836 131.888L65.1816 149.1ZM79.0904 154.781L92.0663 138.586C93.706 138.389 96.6969 138.976 95.5435 142.91L89.6068 149.863L83.4157 156.476C82.3415 156.646 79.9725 156.544 79.0904 154.781ZM75.1892 152.83C72.2717 155.408 69.6765 152.322 69.1677 150.796C70.6538 148.611 73.6494 144.984 76.8539 141.105C79.867 137.457 83.0648 133.586 85.3663 130.479C88.3516 128.987 91.4726 131.125 90.1157 134.093L89.0131 135.873L87.4866 137.823L82.9068 143.504L75.1892 152.83ZM59.245 134.517L53.0539 140.112C52.6015 140.649 51.7987 142.029 52.2058 143.25C52.5733 144.041 53.9019 145.657 56.2766 145.793L62.3829 136.975C62.1568 136.071 61.2126 134.313 59.245 134.517Z" fill="#516678"/>
<ellipse cx="37.6185" cy="111.285" rx="2.20505" ry="2.20445" fill="#20A2DC"/>
<ellipse cx="136.676" cy="125.19" rx="2.20505" ry="2.20445" fill="#20A2DC"/>
<rect x="15.912" y="156.233" width="143.033" height="4.26364" rx="2.13182" fill="#516678"/>
<rect x="161.158" y="156.233" width="7.15163" height="4.26364" rx="2.13182" fill="#20A2DC"/>
<rect x="6.71698" y="156.233" width="7.15163" height="4.26364" rx="2.13182" fill="#20A2DC"/>
<rect x="64.4409" y="164.419" width="45.6342" height="4.26364" rx="2.13182" fill="#20A2DC"/>
<rect x="72.7845" y="170.73" width="30.139" height="4.26364" rx="2.13182" fill="#20A2DC"/>
<rect x="83.1713" y="167.319" width="8.68413" height="4.26364" fill="#20A2DC"/>
<rect x="112.118" y="164.419" width="12.6005" height="4.26364" rx="2.13182" fill="#20A2DC"/>
<rect x="49.7971" y="164.419" width="12.6005" height="4.26364" rx="2.13182" fill="#20A2DC"/>
<rect x="170.353" y="156.233" width="4.25692" height="4.26364" rx="2.12846" fill="#20A2DC"/>
<rect x="0.24646" y="156.233" width="4.25692" height="4.26364" rx="2.12846" fill="#20A2DC"/>
<path d="M19.3977 38.9379L18.2604 39.5074L19.8716 41.5957H17.4075V42.6398L19.8716 42.1652L18.2604 44.5383L19.3977 45.1078L20.3454 42.6398L21.4827 45.1078L22.62 44.3484L21.0088 42.1652L23.6625 42.6398V41.5957H21.0088L22.62 39.5074L21.767 38.9379L20.3454 41.216L19.3977 38.9379Z" fill="#20A2DC"/>
<path d="M40.7025 16.7982L39.5652 17.3678L41.1764 19.4561H38.7123V20.5002L41.1764 20.0256L39.5652 22.3987L40.7025 22.9682L41.6502 20.5002L42.7875 22.9682L43.9248 22.2088L42.3136 20.0256L44.9673 20.5002V19.4561H42.3136L43.9248 17.3678L43.0718 16.7982L41.6502 19.0764L40.7025 16.7982Z" fill="#20A2DC"/>
<path d="M160.383 66.91L159.246 67.4796L160.857 69.5679H158.393V70.612L160.857 70.1374L159.246 72.5105L160.383 73.08L161.331 70.612L162.468 73.08L163.605 72.3206L161.994 70.1374L164.648 70.612V69.5679H161.994L163.605 67.4796L162.752 66.91L161.331 69.1882L160.383 66.91Z" fill="#20A2DC"/>
<path d="M134.021 2.46478L132.884 3.03432L134.495 5.12261H132.031V6.16675L134.495 5.69214L132.884 8.0652L134.021 8.63473L134.969 6.16675L136.106 8.63473L137.243 7.87535L135.632 5.69214L138.286 6.16675V5.12261H135.632L137.243 3.03432L136.39 2.46478L134.969 4.74292L134.021 2.46478Z" fill="#20A2DC"/>
<path d="M82.9516 3.80069L82.4346 4.08108L83.167 5.10916H82.0469V5.6232L83.167 5.38954L82.4346 6.55782L82.9516 6.8382L83.3824 5.6232L83.8993 6.8382L84.4163 6.46436L83.6839 5.38954L84.8901 5.6232V5.10916H83.6839L84.4163 4.08108L84.0285 3.80069L83.3824 4.92223L82.9516 3.80069Z" fill="#20A2DC"/>
<path fill-rule="evenodd" clip-rule="evenodd" d="M20.5737 12.6216C21.8299 12.6216 22.8482 11.6017 22.8482 10.3435C22.8482 9.08532 21.8299 8.06537 20.5737 8.06537C19.3175 8.06537 18.2991 9.08532 18.2991 10.3435C18.2991 11.6017 19.3175 12.6216 20.5737 12.6216ZM20.5438 11.0629C20.957 11.0629 21.292 10.7274 21.292 10.3135C21.292 9.89966 20.957 9.56414 20.5438 9.56414C20.1305 9.56414 19.7955 9.89966 19.7955 10.3135C19.7955 10.7274 20.1305 11.0629 20.5438 11.0629Z" fill="#516678"/>
<path fill-rule="evenodd" clip-rule="evenodd" d="M12.3802 63.3676C13.6364 63.3676 14.6547 62.3477 14.6547 61.0895C14.6547 59.8313 13.6364 58.8113 12.3802 58.8113C11.124 58.8113 10.1057 59.8313 10.1057 61.0895C10.1057 62.3477 11.124 63.3676 12.3802 63.3676ZM12.3502 61.8089C12.7635 61.8089 13.0984 61.4734 13.0984 61.0595C13.0984 60.6456 12.7635 60.3101 12.3502 60.3101C11.937 60.3101 11.602 60.6456 11.602 61.0595C11.602 61.4734 11.937 61.8089 12.3502 61.8089Z" fill="#516678"/>
<path fill-rule="evenodd" clip-rule="evenodd" d="M84.6775 30.5201C86.8906 30.5201 88.6846 28.7232 88.6846 26.5067C88.6846 24.2901 86.8906 22.4932 84.6775 22.4932C82.4645 22.4932 80.6704 24.2901 80.6704 26.5067C80.6704 28.7232 82.4645 30.5201 84.6775 30.5201ZM84.6247 27.774C85.3527 27.774 85.9428 27.1829 85.9428 26.4538C85.9428 25.7246 85.3527 25.1336 84.6247 25.1336C83.8967 25.1336 83.3066 25.7246 83.3066 26.4538C83.3066 27.1829 83.8967 27.774 84.6247 27.774Z" fill="#516678"/>
<path fill-rule="evenodd" clip-rule="evenodd" d="M148.151 56.4504C149.473 56.4504 150.544 55.3773 150.544 54.0536C150.544 52.7299 149.473 51.6568 148.151 51.6568C146.83 51.6568 145.758 52.7299 145.758 54.0536C145.758 55.3773 146.83 56.4504 148.151 56.4504ZM148.12 54.8103C148.555 54.8103 148.907 54.4573 148.907 54.0218C148.907 53.5864 148.555 53.2334 148.12 53.2334C147.685 53.2334 147.333 53.5864 147.333 54.0218C147.333 54.4573 147.685 54.8103 148.12 54.8103Z" fill="#516678"/>
<path fill-rule="evenodd" clip-rule="evenodd" d="M159.07 36.1955C160.391 36.1955 161.463 35.1224 161.463 33.7987C161.463 32.475 160.391 31.4019 159.07 31.4019C157.748 31.4019 156.677 32.475 156.677 33.7987C156.677 35.1224 157.748 36.1955 159.07 36.1955ZM159.038 34.5554C159.473 34.5554 159.825 34.2024 159.825 33.767C159.825 33.3315 159.473 32.9785 159.038 32.9785C158.603 32.9785 158.251 33.3315 158.251 33.767C158.251 34.2024 158.603 34.5554 159.038 34.5554Z" fill="#516678"/>
</svg>
