<svg width="175" height="175" viewBox="0 0 175 175" fill="none" xmlns="http://www.w3.org/2000/svg">
<path d="M119.037 92.8755C121.13 94.6673 122.324 94.6673 125.083 94.6673V23.1964C125.083 18.823 121.481 17.0222 119.037 17.0222H56.1377C51.2498 17.0222 49.8349 20.7525 49.8349 23.1964V94.6673C51.8467 94.6673 54.6837 93.9207 56.1377 92.8755V23.1964H119.037V92.8755Z" fill="#516678"/>
<path d="M68.8688 31.9539C66.5046 31.9539 65.1359 34.4132 65.1359 35.8185V46.1829C65.1359 47.2369 66.3802 49.8719 68.8688 49.8719C71.3575 49.8719 72.6018 47.4126 72.6018 46.1829V35.8185C72.6018 34.4132 71.233 31.9539 68.8688 31.9539Z" fill="#20A2DC"/>
<path d="M81.4745 31.9539C79.1103 31.9539 77.7415 34.4132 77.7415 35.8185V46.1829C77.7415 47.2369 78.9859 49.8719 81.4745 49.8719C83.9631 49.8719 85.2074 47.4126 85.2074 46.1829V35.8185C85.2074 34.4132 83.8387 31.9539 81.4745 31.9539Z" fill="#516678"/>
<path d="M94.0801 31.9539C91.7159 31.9539 90.3472 34.4132 90.3472 35.8185V46.1829C90.3472 47.2369 91.5915 49.8719 94.0801 49.8719C96.5687 49.8719 97.8131 47.4126 97.8131 46.1829V35.8185C97.8131 34.4132 96.4443 31.9539 94.0801 31.9539Z" fill="#20A2DC"/>
<path d="M106.686 31.9539C104.322 31.9539 102.953 34.4132 102.953 35.8185V46.1829C102.953 47.2369 104.197 49.8719 106.686 49.8719C109.174 49.8719 110.419 47.4126 110.419 46.1829V35.8185C110.419 34.4132 109.05 31.9539 106.686 31.9539Z" fill="#516678"/>
<path d="M68.2716 55.8447C65.9074 55.8447 64.5386 58.3041 64.5386 59.7094V70.0738C64.5386 71.1278 65.7829 73.7628 68.2716 73.7628C70.7602 73.7628 72.0045 71.3035 72.0045 70.0738V59.7094C72.0045 58.3041 70.6358 55.8447 68.2716 55.8447Z" fill="#20A2DC"/>
<path d="M80.8772 55.8447C78.513 55.8447 77.1443 58.3041 77.1443 59.7094V70.0738C77.1443 71.1278 78.3886 73.7628 80.8772 73.7628C83.3658 73.7628 84.6102 71.3035 84.6102 70.0738V59.7094C84.6102 58.3041 83.2414 55.8447 80.8772 55.8447Z" fill="#516678"/>
<path d="M93.4828 55.8447C91.1187 55.8447 89.7499 58.3041 89.7499 59.7094V70.0738C89.7499 71.1278 90.9942 73.7628 93.4828 73.7628C95.9715 73.7628 97.2158 71.3035 97.2158 70.0738V59.7094C97.2158 58.3041 95.847 55.8447 93.4828 55.8447Z" fill="#20A2DC"/>
<path d="M106.088 55.8447C103.724 55.8447 102.356 58.3041 102.356 59.7094V70.0738C102.356 71.1278 103.6 73.7628 106.088 73.7628C108.577 73.7628 109.821 71.3035 109.821 70.0738V59.7094C109.821 58.3041 108.453 55.8447 106.088 55.8447Z" fill="#516678"/>
<path d="M140.541 86.0068C138.177 86.0068 136.808 88.4662 136.808 89.8715V100.236C136.808 101.29 138.053 103.925 140.541 103.925C143.03 103.925 144.274 101.466 144.274 100.236V89.8715C144.274 88.4662 142.905 86.0068 140.541 86.0068Z" fill="#20A2DC"/>
<path d="M153.98 86.0068C151.616 86.0068 150.247 88.4662 150.247 89.8715V100.236C150.247 101.29 151.491 103.925 153.98 103.925C156.468 103.925 157.713 101.466 157.713 100.236V89.8715C157.713 88.4662 156.344 86.0068 153.98 86.0068Z" fill="#516678"/>
<path d="M140.541 133.788C138.177 133.788 136.808 136.248 136.808 137.653V148.017C136.808 149.071 138.053 151.706 140.541 151.706C143.03 151.706 144.274 149.247 144.274 148.017V137.653C144.274 136.248 142.905 133.788 140.541 133.788Z" fill="#20A2DC"/>
<path d="M153.98 133.788C151.616 133.788 150.247 136.248 150.247 137.653V148.017C150.247 149.071 151.491 151.706 153.98 151.706C156.468 151.706 157.713 149.247 157.713 148.017V137.653C157.713 136.248 156.344 133.788 153.98 133.788Z" fill="#516678"/>
<path d="M140.541 109.898C138.177 109.898 136.808 112.357 136.808 113.762V124.127C136.808 125.181 138.053 127.816 140.541 127.816C143.03 127.816 144.274 125.356 144.274 124.127V113.762C144.274 112.357 142.905 109.898 140.541 109.898Z" fill="#516678"/>
<path d="M153.98 109.898C151.616 109.898 150.247 112.357 150.247 113.762V124.127C150.247 125.181 151.491 127.816 153.98 127.816C156.468 127.816 157.713 125.356 157.713 124.127V113.762C157.713 112.357 156.344 109.898 153.98 109.898Z" fill="#20A2DC"/>
<path d="M140.541 157.679C138.177 157.679 136.808 160.139 136.808 161.544V163.845H144.274V161.544C144.274 160.139 142.905 157.679 140.541 157.679Z" fill="#516678"/>
<path d="M153.98 157.679C151.616 157.679 150.247 160.139 150.247 161.544V163.845H157.713V161.544C157.713 160.139 156.344 157.679 153.98 157.679Z" fill="#20A2DC"/>
<path d="M140.904 73.4901H131.514V79.7929H162.771V168.43L12.1468 169.326V79.9215H43.4036V73.6187H34.0137V70.0171C34.0137 69.1167 33.4992 67.3159 30.9266 67.3159C28.6113 67.3159 27.8395 68.9881 27.8395 70.0171V73.6187H11.6322C9.57419 73.6187 5.97258 74.4162 5.97258 79.6642V175L87.459 175H128.202H168.945V79.5356C168.945 74.2876 165.344 73.4901 163.286 73.4901H147.078V69.8885C147.078 68.8594 146.307 67.1873 143.991 67.1873C141.419 67.1873 140.904 68.9881 140.904 69.8885V73.4901Z" fill="#516678"/>
<path d="M21.3859 86.0068C19.0217 86.0068 17.653 88.4662 17.653 89.8715V100.236C17.653 101.29 18.8973 103.925 21.3859 103.925C23.8745 103.925 25.1188 101.466 25.1188 100.236V89.8715C25.1188 88.4662 23.7501 86.0068 21.3859 86.0068Z" fill="#20A2DC"/>
<path d="M34.8245 86.0068C32.4603 86.0068 31.0915 88.4662 31.0915 89.8715V100.236C31.0915 101.29 32.3358 103.925 34.8245 103.925C37.3131 103.925 38.5574 101.466 38.5574 100.236V89.8715C38.5574 88.4662 37.1886 86.0068 34.8245 86.0068Z" fill="#516678"/>
<path d="M21.3859 157.679C19.0217 157.679 17.653 160.139 17.653 161.544V163.845H25.1188V161.544C25.1188 160.139 23.7501 157.679 21.3859 157.679Z" fill="#516678"/>
<path d="M34.8245 157.679C32.4603 157.679 31.0915 160.139 31.0915 161.544V163.845H38.5574V161.544C38.5574 160.139 37.1886 157.679 34.8245 157.679Z" fill="#20A2DC"/>
<path d="M21.3859 133.788C19.0217 133.788 17.653 136.248 17.653 137.653V148.017C17.653 149.071 18.8973 151.706 21.3859 151.706C23.8745 151.706 25.1188 149.247 25.1188 148.017V137.653C25.1188 136.248 23.7501 133.788 21.3859 133.788Z" fill="#20A2DC"/>
<path d="M34.8245 133.788C32.4603 133.788 31.0915 136.248 31.0915 137.653V148.017C31.0915 149.071 32.3358 151.706 34.8245 151.706C37.3131 151.706 38.5574 149.247 38.5574 148.017V137.653C38.5574 136.248 37.1886 133.788 34.8245 133.788Z" fill="#516678"/>
<path d="M21.3859 109.898C19.0217 109.898 17.653 112.357 17.653 113.762V124.127C17.653 125.181 18.8973 127.816 21.3859 127.816C23.8745 127.816 25.1188 125.356 25.1188 124.127V113.762C25.1188 112.357 23.7501 109.898 21.3859 109.898Z" fill="#516678"/>
<path d="M34.8245 109.898C32.4603 109.898 31.0915 112.357 31.0915 113.762V124.127C31.0915 125.181 32.3358 127.816 34.8245 127.816C37.3131 127.816 38.5574 125.356 38.5574 124.127V113.762C38.5574 112.357 37.1886 109.898 34.8245 109.898Z" fill="#20A2DC"/>
<circle cx="85.2879" cy="88.2719" r="1.44887" fill="#516678"/>
<circle cx="81.4629" cy="92.5604" r="1.44887" fill="#D9D9D9"/>
<circle cx="81.4629" cy="92.5604" r="1.44887" fill="#20A2DC"/>
<circle cx="93.6334" cy="96.1537" r="1.44887" fill="#516678"/>
<circle cx="77.0584" cy="96.1537" r="1.44887" fill="#516678"/>
<circle cx="72.0742" cy="99.2833" r="1.44887" fill="#20A2DC"/>
<circle cx="66.8584" cy="101.601" r="1.44887" fill="#516678"/>
<circle cx="61.2947" cy="103.34" r="1.44887" fill="#20A2DC"/>
<circle cx="55.6151" cy="104.152" r="1.44887" fill="#516678"/>
<circle cx="55.9628" cy="109.831" r="1.44887" fill="#20A2DC"/>
<circle cx="56.5424" cy="115.395" r="1.44887" fill="#516678"/>
<circle cx="57.5855" cy="120.842" r="1.44887" fill="#20A2DC"/>
<circle cx="81.8686" cy="125.769" r="1.73864" fill="#20A2DC"/>
<circle cx="58.8606" cy="126.29" r="1.44887" fill="#516678"/>
<circle cx="60.4833" cy="131.738" r="1.44887" fill="#20A2DC"/>
<circle cx="62.4538" cy="136.954" r="1.44887" fill="#516678"/>
<circle cx="64.8879" cy="141.938" r="1.44887" fill="#20A2DC"/>
<circle cx="67.9015" cy="146.69" r="1.44887" fill="#516678"/>
<circle cx="71.4947" cy="151.095" r="1.44887" fill="#20A2DC"/>
<circle cx="75.5515" cy="154.92" r="1.44887" fill="#516678"/>
<circle cx="80.1879" cy="158.049" r="1.44887" fill="#20A2DC"/>
<circle cx="85.2879" cy="160.252" r="1.44887" fill="#516678"/>
<circle cx="90.3879" cy="158.049" r="1.44887" fill="#20A2DC"/>
<circle cx="95.0243" cy="154.92" r="1.44887" fill="#516678"/>
<circle cx="99.0811" cy="151.095" r="1.44887" fill="#20A2DC"/>
<circle cx="114.961" cy="104.267" r="1.44887" fill="#516678"/>
<circle cx="109.281" cy="103.34" r="1.44887" fill="#20A2DC"/>
<circle cx="103.833" cy="101.601" r="1.44887" fill="#516678"/>
<circle cx="98.5016" cy="99.2833" r="1.44887" fill="#20A2DC"/>
<circle cx="89.2288" cy="92.5604" r="1.44887" fill="#20A2DC"/>
<path d="M48.6606 98.414C68.3652 96.0957 80.4198 84.7366 84.2448 79.5207C84.8823 78.4775 85.8676 78.7584 86.4471 79.5207C96.1407 92.2707 112.759 97.4867 122.205 98.414C124.002 98.5903 124.202 99.3418 124.176 99.9208L123.538 109.831C123.113 109.522 121.95 108.857 120.698 108.672L121.394 101.08C113.454 100.558 96.705 96.0957 85.2879 82.7082C81.2504 87.9048 68.597 98.9935 49.2981 101.138C49.9935 119.336 57.0641 157.064 85.346 166.569C89.0357 165.506 98.1191 161.063 104.935 152.254L107.253 153.819C104.645 157.682 96.6124 166.163 85.346 169.177C55.0935 160.947 46.8833 119.664 46.4583 99.9208C46.4297 98.5878 47.7912 98.5162 48.6606 98.414Z" fill="#516678"/>
<path fill-rule="evenodd" clip-rule="evenodd" d="M116.931 136.084C123.941 136.084 129.623 130.402 129.623 123.392C129.623 116.383 123.941 110.7 116.931 110.7C109.921 110.7 104.239 116.383 104.239 123.392C104.239 130.402 109.921 136.084 116.931 136.084ZM116.949 133.191C122.309 133.191 126.655 128.846 126.655 123.486C126.655 118.125 122.309 113.78 116.949 113.78C111.589 113.78 107.243 118.125 107.243 123.486C107.243 128.846 111.589 133.191 116.949 133.191Z" fill="#516678"/>
<path d="M111.426 124.32C111.374 123.198 112.442 122.79 112.982 122.726C113.242 122.695 113.501 122.726 113.89 122.981L115.835 124.384L119.92 119.219C120.569 118.645 121.606 118.836 122.06 119.219C122.644 119.793 122.514 120.749 122.254 121.132L117.002 127.891C116.069 128.35 115.317 127.997 115.057 127.763L111.945 125.468C111.491 125.085 111.438 124.575 111.426 124.32Z" fill="#20A2DC"/>
<path fill-rule="evenodd" clip-rule="evenodd" d="M71.6686 127.565L80.1879 115.163L78.855 114.062C78.5652 113.83 78.1827 113.111 78.9709 112.091L81.8107 108.092C82.2743 107.397 83.9434 106.446 85.7516 107.745L97.0528 115.569C97.7482 116.148 98.3857 117.887 97.0528 119.683L94.5607 123.392C94.2709 123.798 93.3436 124.378 92.3584 123.508L91.605 122.871L90.0982 124.899L124.234 146.285C126.112 147.372 127.189 150.631 125.524 152.891C125.328 153.188 125.188 153.407 125.066 153.597C124.856 153.927 124.701 154.168 124.407 154.572C124.361 154.636 124.315 154.7 124.27 154.761C123.531 155.778 123.031 156.467 122.321 157.122C120.408 159.151 118.438 158.513 115.83 156.716L84.4186 133.361L83.0857 135.331L84.1289 136.142C84.5732 136.432 85.1952 137.313 84.1289 138.519L81.9266 141.706C81.2891 142.575 79.4693 143.978 77.2902 142.633L66.9743 135.563C66.047 135.022 64.5981 133.291 66.2209 130.695L68.7129 127.102C69.1186 126.522 69.814 125.885 71.6686 127.565ZM81.9265 112.845L83.5493 110.468C83.6652 110.275 84.0361 110.005 84.5925 110.468L94.4448 117.191C94.6959 117.307 95.0939 117.655 94.6766 118.119L93.0538 120.437L91.7788 119.567C91.5277 119.374 90.9095 119.115 90.4459 119.625L86.9106 124.609C86.7175 124.957 86.4818 125.769 87.0845 126.232C87.0845 126.232 122.234 148.371 123.016 148.892C123.799 149.414 123.886 150.457 123.016 151.616L120.93 154.688C120.235 155.615 119.249 155.847 117.743 154.688L85.0561 130.405C84.6311 130.057 83.5956 129.594 82.8538 130.521L79.7822 135.041C79.5697 135.312 79.2722 135.992 79.7822 136.548L81.2891 137.649L79.6084 140.083C79.4925 140.334 79.0752 140.64 78.3334 139.852L68.7129 133.245C68.5197 133.148 68.2261 132.851 68.597 132.433L70.2197 130.057L71.3788 130.869C71.6493 131.12 72.48 131.274 72.9436 130.753L83.3175 115.742C83.6073 115.433 84.013 114.618 83.3175 113.83L81.9265 112.845Z" fill="#516678"/>
</svg>
