<svg width="175" height="175" viewBox="0 0 175 175" fill="none" xmlns="http://www.w3.org/2000/svg">
<path fill-rule="evenodd" clip-rule="evenodd" d="M33.5504 91.3421C33.7816 89.1919 35.4508 84.8916 40.2783 84.8916H135.024C137.221 84.9841 141.627 86.4175 141.683 91.4115V151.061C141.706 153.142 140.42 157.373 135.094 157.65H102.078V163.951H73.2243V157.65H40.0008C38.0125 157.65 33.9388 156.319 33.5504 150.992V91.3421ZM37.0185 91.5502C36.9953 90.4866 37.5872 88.3596 40.1397 88.3596H134.608C135.833 88.2902 138.284 88.8867 138.284 91.8276V147.385H37.0185V91.5502ZM39.8621 154.252C37.4207 153.919 36.9028 151.917 36.949 150.922H138.423C138.034 153.53 136.18 154.229 135.302 154.252H39.8621ZM98.6102 157.581H76.6924V161.049H98.6102V157.581Z" fill="#516678"/>
<path fill-rule="evenodd" clip-rule="evenodd" d="M43.2608 125.537C43.2608 117.109 50.0926 110.278 58.52 110.278C64.3397 110.278 69.2661 113.833 71.7577 118.809L71.7577 118.809H75.4785H83.0735H98.2633C98.6564 118.716 99.7615 118.823 101.038 119.988L105.061 122.901C105.662 123.595 106.503 125.412 105.061 127.132L101.038 130.739C99.6043 132.057 96.2658 134.207 94.3792 132.265L92.3677 130.253C91.2348 131.71 88.1922 133.61 85.6398 130.115C84.5069 132.034 81.5337 134.845 78.7038 130.739C78.0564 131.594 76.4981 133.25 75.4439 133.028H71.8505C69.3576 137.712 64.3711 140.796 58.52 140.796C50.0926 140.796 43.2608 133.964 43.2608 125.537ZM73.155 129.56H74.9583L78.5651 126.022C78.9119 125.676 79.6748 125.467 80.2991 126.022L82.588 128.519L84.4607 126.022C84.8075 125.537 85.8479 125.121 86.6802 126.022L88.9691 128.658L91.5354 126.3C91.8822 125.953 92.7145 125.606 93.3388 126.3L96.1825 129.352H97.2923L102.356 125.051L98.194 122.208H83.0388H75.4612H71.6724H71.0742L71.0746 122.207C70.2265 122.198 69.4504 122.085 68.924 121.098L68.2304 119.711C66.4766 116.215 63.2098 113.607 58.8395 113.607C52.0743 113.607 46.5901 119.01 46.5901 125.676C46.5901 132.341 51.8242 137.259 58.5894 137.259C62.5454 137.259 65.6641 135.525 67.7449 132.958C67.9802 132.624 68.3391 132.077 68.6762 131.563L68.6763 131.563L68.6764 131.563C68.9685 131.118 69.2444 130.697 69.4096 130.461C69.8951 129.698 70.45 129.56 71.421 129.56H73.155C73.155 129.56 73.155 129.56 73.155 129.56Z" fill="#20A2DC"/>
<path fill-rule="evenodd" clip-rule="evenodd" d="M57.549 132.473C61.3796 132.473 64.485 129.367 64.485 125.537C64.485 121.706 61.3796 118.601 57.549 118.601C53.7183 118.601 50.613 121.706 50.613 125.537C50.613 129.367 53.7183 132.473 57.549 132.473ZM57.6184 129.005C59.572 129.005 61.1557 127.421 61.1557 125.467C61.1557 123.514 59.572 121.93 57.6184 121.93C55.6647 121.93 54.081 123.514 54.081 125.467C54.081 127.421 55.6647 129.005 57.6184 129.005Z" fill="#20A2DC"/>
<path fill-rule="evenodd" clip-rule="evenodd" d="M91.3967 115.341H94.726V113.676C94.726 112.15 95.5583 110.277 98.0552 110.277H125.383C126.84 110.277 128.574 111.249 128.574 113.884V137.328C128.574 138.576 128.019 140.727 124.898 140.727H97.9859C97.038 140.75 95.0728 140.158 94.7953 137.605V136.01C94.1248 135.871 92.6451 135.414 92.0903 134.692C91.9747 134.854 91.6741 135.164 91.3967 135.108V137.952C91.5354 140.01 93.0474 144.125 97.9859 144.125H125.383C127.464 144.125 132.042 142.807 132.042 137.328V113.676C132.042 111.457 130.1 106.948 125.73 106.948H124.412V98.0007C124.412 95.9893 122.401 91.689 118.17 91.689H105.13C103.188 91.689 99.0263 93.4923 99.0263 98.0007V106.948H97.5697C95.4196 106.948 91.3967 108.89 91.3967 113.676V115.341ZM102.425 98.2782V106.948H121.013C121.013 106.948 120.99 101.099 121.013 98.2782C121.021 97.3072 120.112 95.0876 117.823 95.0876H105.477C104.436 95.0876 102.425 95.7812 102.425 98.2782Z" fill="#516678"/>
<path fill-rule="evenodd" clip-rule="evenodd" d="M114.114 123.302L112.871 121.334C112.51 120.763 112.243 119.778 113.449 119.017C114.21 118.536 115.298 118.292 115.98 119.371L117.361 121.559L118.852 119.217C119.215 118.648 119.992 117.986 121.195 118.752C121.954 119.235 122.639 120.116 121.954 121.192L120.61 123.302H122.945C123.62 123.302 124.595 123.603 124.595 125.028C124.595 125.929 124.22 126.979 122.945 126.979H120.784L121.989 128.887C122.43 129.585 122.473 130.638 121.301 131.452C120.684 131.88 119.642 132.056 119.001 131.041L117.349 128.425L115.909 130.686C115.466 131.382 114.532 131.871 113.296 131.158C112.646 130.782 112.042 129.914 112.687 128.901L113.91 126.979H111.689C110.864 126.979 109.951 126.454 109.888 125.028C109.856 124.278 110.264 123.302 111.464 123.302H114.114Z" fill="#20A2DC"/>
<path fill-rule="evenodd" clip-rule="evenodd" d="M18.4712 74.5582H23.1939C22.6577 77.9236 22.3792 81.375 22.3792 84.8915C22.3792 93.6308 24.0995 101.968 27.22 109.584V119.949C21.1839 109.629 17.7245 97.6176 17.7245 84.7984C17.7245 81.3196 17.9793 77.9003 18.4712 74.5582ZM151.895 74.5582H156.431C156.923 77.9003 157.178 81.3196 157.178 84.7984C157.178 97.3516 153.86 109.13 148.055 119.305V109.124C151.057 101.633 152.709 93.4554 152.709 84.8915C152.709 81.375 152.431 77.9236 151.895 74.5582ZM117.199 21.7178C108.176 17.4554 98.0921 15.0718 87.4512 15.0718C76.9446 15.0718 66.9809 17.3956 58.0457 21.5572C58.2212 22.4715 58.3131 23.4156 58.3131 24.3811C58.3131 25.1794 58.2503 25.963 58.1293 26.7273C66.9659 22.2496 76.9604 19.7264 87.5443 19.7264C98.2092 19.7264 108.276 22.2884 117.162 26.8305C117.03 26.0336 116.962 25.2154 116.962 24.3811C116.962 23.472 117.043 22.582 117.199 21.7178Z" fill="#516678"/>
<path fill-rule="evenodd" clip-rule="evenodd" d="M131.67 34.4352C138.046 34.4352 143.214 29.267 143.214 22.8917C143.214 16.5164 138.046 11.3481 131.67 11.3481C125.295 11.3481 120.127 16.5164 120.127 22.8917C120.127 29.267 125.295 34.4352 131.67 34.4352ZM131.763 29.7805C135.517 29.7805 138.559 26.738 138.559 22.9848C138.559 19.2316 135.517 16.189 131.763 16.189C128.01 16.189 124.968 19.2316 124.968 22.9848C124.968 26.738 128.01 29.7805 131.763 29.7805Z" fill="#20A2DC"/>
<path fill-rule="evenodd" clip-rule="evenodd" d="M111.19 66.6454C110.445 61.4012 108.993 50.3542 109.142 49.237C109.328 47.8407 110.166 46.165 111.562 45.5133V41.138C111.842 38.8727 113.778 34.007 119.289 32.6665C120.251 33.8147 122.51 36.2227 123.851 36.6695C121.709 36.4523 117.166 37.135 116.124 41.6034V44.3962H147.682V41.8827C147.558 40.145 145.895 36.6695 140.235 36.6695C141.631 35.5834 144.424 33.2623 144.424 32.6665C146.813 33.132 151.741 35.6269 152.337 41.8827V45.5133C153.113 45.8857 154.646 47.3007 154.571 49.9818C153.858 55.4432 152.486 66.422 152.709 66.6454H148.179L150.01 50.4473C150.072 49.9818 149.991 49.0509 149.172 49.0509H114.821C114.417 49.0509 113.648 49.3301 113.796 50.4473L115.627 66.6454H111.19Z" fill="#516678"/>
<path d="M103.556 68.2571C103.556 68.9056 104.172 70.5552 105.418 70.5552H158.481C159.877 70.5552 160.343 68.9397 160.343 68.2571C160.343 67.5744 159.877 66.0867 158.474 66.0867H105.418C104.265 66.0867 103.556 67.6086 103.556 68.2571Z" fill="#20A2DC"/>
<ellipse cx="131.95" cy="58.174" rx="2.32732" ry="2.32732" fill="#20A2DC"/>
<path fill-rule="evenodd" clip-rule="evenodd" d="M43.0458 34.4352C49.4212 34.4352 54.5894 29.267 54.5894 22.8917C54.5894 16.5164 49.4212 11.3481 43.0458 11.3481C36.6705 11.3481 31.5023 16.5164 31.5023 22.8917C31.5023 29.267 36.6705 34.4352 43.0458 34.4352ZM43.1389 29.7805C46.8921 29.7805 49.9347 26.738 49.9347 22.9848C49.9347 19.2316 46.8921 16.189 43.1389 16.189C39.3857 16.189 36.3431 19.2316 36.3431 22.9848C36.3431 26.738 39.3857 29.7805 43.1389 29.7805Z" fill="#20A2DC"/>
<path fill-rule="evenodd" clip-rule="evenodd" d="M22.5654 66.6454C21.8207 61.4012 20.3684 50.3542 20.5174 49.237C20.7035 47.8407 21.5414 46.165 22.9378 45.5133V41.138C23.217 38.8727 25.1534 34.007 30.6645 32.6665C31.6264 33.8147 33.8855 36.2227 35.226 36.6695C33.0849 36.4523 28.542 37.135 27.4993 41.6034V44.3962H59.0578V41.8827C58.9337 40.145 57.2704 36.6695 51.6104 36.6695C53.0068 35.5834 55.7996 33.2623 55.7996 32.6665C58.189 33.132 63.1167 35.6269 63.7125 41.8827V45.5133C64.4883 45.8857 66.0212 47.3007 65.9467 49.9818C65.233 55.4432 63.8614 66.422 64.0849 66.6454H59.5548L61.3851 50.4473C61.4472 49.9818 61.3665 49.0509 60.5473 49.0509H26.196C25.7926 49.0509 25.023 49.3301 25.172 50.4473L27.0023 66.6454H22.5654Z" fill="#516678"/>
<path d="M14.9318 68.2571C14.9318 68.9056 15.5473 70.5552 16.7936 70.5552H69.8566C71.253 70.5552 71.7185 68.9397 71.7185 68.2571C71.7185 67.5744 71.253 66.0867 69.8498 66.0867H16.7936C15.6404 66.0867 14.9318 67.6086 14.9318 68.2571Z" fill="#20A2DC"/>
<ellipse cx="43.3251" cy="58.174" rx="2.32732" ry="2.32732" fill="#20A2DC"/>
</svg>
