<svg width="175" height="176" viewBox="0 0 175 176" fill="none" xmlns="http://www.w3.org/2000/svg">
<path d="M41.8273 44.9965L40.69 45.566L42.3012 47.6543H39.8371V48.6984L42.3012 48.2238L40.69 50.5969L41.8273 51.1664L42.775 48.6984L43.9123 51.1664L45.0496 50.407L43.4384 48.2238L46.0921 48.6984V47.6543H43.4384L45.0496 45.566L44.1966 44.9965L42.775 47.2746L41.8273 44.9965Z" fill="#20A2DC"/>
<path d="M40.949 15.4624L39.8117 16.0319L41.4228 18.1202H38.9587V19.1644L41.4228 18.6898L39.8117 21.0628L40.949 21.6324L41.8967 19.1644L43.034 21.6324L44.1712 20.873L42.5601 18.6898L45.2137 19.1644V18.1202H42.5601L44.1712 16.0319L43.3183 15.4624L41.8967 17.7405L40.949 15.4624Z" fill="#20A2DC"/>
<path d="M160.63 65.5742L159.492 66.1438L161.103 68.232H158.639V69.2762L161.103 68.8016L159.492 71.1746L160.63 71.7442L161.577 69.2762L162.715 71.7442L163.852 70.9848L162.241 68.8016L164.894 69.2762V68.232H162.241L163.852 66.1438L162.999 65.5742L161.577 67.8524L160.63 65.5742Z" fill="#20A2DC"/>
<path d="M121.943 18.3826L120.806 18.9521L122.417 21.0404H119.953V22.0845L122.417 21.6099L120.806 23.983L121.943 24.5525L122.891 22.0845L124.028 24.5525L125.166 23.7931L123.555 21.6099L126.208 22.0845V21.0404H123.555L125.166 18.9521L124.313 18.3826L122.891 20.6607L121.943 18.3826Z" fill="#20A2DC"/>
<path d="M83.198 2.46484L82.6811 2.74523L83.4134 3.77331H82.2934V4.28735L83.4134 4.0537L82.6811 5.22197L83.198 5.50236L83.6288 4.28735L84.1457 5.50236L84.6627 5.12851L83.9303 4.0537L85.1365 4.28735V3.77331H83.9303L84.6627 2.74523L84.275 2.46484L83.6288 3.58639L83.198 2.46484Z" fill="#20A2DC"/>
<path fill-rule="evenodd" clip-rule="evenodd" d="M20.8201 11.2858C22.0763 11.2858 23.0947 10.2658 23.0947 9.00763C23.0947 7.74945 22.0763 6.72949 20.8201 6.72949C19.5639 6.72949 18.5456 7.74945 18.5456 9.00763C18.5456 10.2658 19.5639 11.2858 20.8201 11.2858ZM20.7902 9.72704C21.2034 9.72704 21.5384 9.39153 21.5384 8.97765C21.5384 8.56378 21.2034 8.22827 20.7902 8.22827C20.377 8.22827 20.042 8.56378 20.042 8.97765C20.042 9.39153 20.377 9.72704 20.7902 9.72704Z" fill="#516678"/>
<path fill-rule="evenodd" clip-rule="evenodd" d="M12.6267 54.6374C13.8829 54.6374 14.9012 53.6175 14.9012 52.3593C14.9012 51.1011 13.8829 50.0812 12.6267 50.0812C11.3705 50.0812 10.3521 51.1011 10.3521 52.3593C10.3521 53.6175 11.3705 54.6374 12.6267 54.6374ZM12.5967 53.0787C13.0099 53.0787 13.3449 52.7432 13.3449 52.3293C13.3449 51.9155 13.0099 51.58 12.5967 51.58C12.1835 51.58 11.8485 51.9155 11.8485 52.3293C11.8485 52.7432 12.1835 53.0787 12.5967 53.0787Z" fill="#516678"/>
<path fill-rule="evenodd" clip-rule="evenodd" d="M79.9944 46.4378C82.2074 46.4378 84.0015 44.6409 84.0015 42.4243C84.0015 40.2078 82.2074 38.4109 79.9944 38.4109C77.7813 38.4109 75.9872 40.2078 75.9872 42.4243C75.9872 44.6409 77.7813 46.4378 79.9944 46.4378ZM79.9415 43.6917C80.6695 43.6917 81.2597 43.1006 81.2597 42.3715C81.2597 41.6423 80.6695 41.0512 79.9415 41.0512C79.2136 41.0512 78.6234 41.6423 78.6234 42.3715C78.6234 43.1006 79.2136 43.6917 79.9415 43.6917Z" fill="#516678"/>
<path fill-rule="evenodd" clip-rule="evenodd" d="M136.074 50.1851C137.395 50.1851 138.467 49.112 138.467 47.7883C138.467 46.4646 137.395 45.3915 136.074 45.3915C134.752 45.3915 133.681 46.4646 133.681 47.7883C133.681 49.112 134.752 50.1851 136.074 50.1851ZM136.042 48.5449C136.477 48.5449 136.829 48.1919 136.829 47.7565C136.829 47.3211 136.477 46.9681 136.042 46.9681C135.608 46.9681 135.255 47.3211 135.255 47.7565C135.255 48.1919 135.608 48.5449 136.042 48.5449Z" fill="#516678"/>
<path fill-rule="evenodd" clip-rule="evenodd" d="M159.316 34.8597C160.638 34.8597 161.709 33.7867 161.709 32.463C161.709 31.1392 160.638 30.0662 159.316 30.0662C157.994 30.0662 156.923 31.1392 156.923 32.463C156.923 33.7867 157.994 34.8597 159.316 34.8597ZM159.285 33.2196C159.719 33.2196 160.072 32.8666 160.072 32.4312C160.072 31.9957 159.719 31.6428 159.285 31.6428C158.85 31.6428 158.497 31.9957 158.497 32.4312C158.497 32.8666 158.85 33.2196 159.285 33.2196Z" fill="#516678"/>
<path fill-rule="evenodd" clip-rule="evenodd" d="M19.9648 153.955C19.9648 154.821 20.5704 156.637 22.1275 156.637H152.931C153.623 156.637 154.921 155.513 154.921 153.956V148.727C154.921 147.986 154.661 146.516 153.19 146.516H150.768L21.695 146.516C20.3973 146.516 19.9648 147.813 19.9648 148.592V153.955ZM24.1173 150.668V153.09C24.1173 153.955 24.7229 155.253 26.28 155.253H148.778C149.47 155.253 150.768 154.561 150.768 153.004V150.668L24.1173 150.668Z" fill="#516678"/>
<path d="M26.3732 147.293H30.5257V63.0054C30.5257 61.206 31.8234 60.9292 32.5155 60.9292H142.383C143.854 60.9292 144.373 62.3133 144.373 62.9189V140.287C144.373 141.434 145.303 142.363 146.449 142.363C147.596 142.363 148.526 141.434 148.526 140.287V62.2268C148.526 58.5069 144.633 56.6902 142.816 56.6902H32.2559C28.1899 56.6902 26.3732 60.2371 26.3732 62.2268V147.293Z" fill="#516678"/>
<path d="M37.4522 113.014C35.0961 112.779 34.507 110.953 34.507 110.106V67.5862C34.507 65.6351 36.09 64.9724 37.084 64.9724H55.1964C57.9206 64.9724 59.2091 67.5126 59.2091 69.0219V70.789H64.6944C65.0257 70.789 65.4675 71.0246 65.4675 71.6725C65.4675 72.3204 65.0257 72.5561 64.6944 72.5561H58.2888C57.523 72.5561 57.4052 71.9179 57.442 71.5989V69.1692C57.442 67.4389 55.7486 66.7395 54.9755 66.7395H37.2681C36.5318 66.7395 36.3109 67.3285 36.3109 67.5862V110.106C36.3109 110.806 37.0595 111.112 37.4153 111.174C37.9675 111.269 38.4829 111.298 38.4829 112.094C38.4829 112.867 37.8939 113.059 37.4522 113.014Z" fill="#516678"/>
<path d="M40.8023 98.5834C40.0955 98.5834 39.882 99.0988 39.882 99.3933L39.882 115.26C39.882 117.41 42.0908 117.849 43.1952 117.8L66.2222 114.745C66.7958 114.366 66.5493 112.978 65.7805 112.978L42.5326 116.07C41.973 116.217 41.7349 115.812 41.6858 115.591V99.3933C41.6858 99.0988 41.5091 98.5834 40.8023 98.5834Z" fill="#516678"/>
<path d="M89.1756 69.4637C90.0223 69.4637 90.1328 69.9422 90.1328 70.2736V98.8198C90.7043 99.4542 91.5669 99.3933 91.9367 98.9118V70.2736C91.9367 68.4771 90.5377 67.6598 89.3965 67.6598H71.4682C68.3758 67.6598 67.1242 70.4576 67.1242 71.7093V74.3599H42.643C40.6182 74.3599 39.882 76.0165 39.882 77.0105V92.3618C39.882 92.5827 39.9313 93.2822 40.7287 93.2822C41.5753 93.2822 41.6858 92.5827 41.6858 92.3618V77.0105C41.6858 76.311 42.238 76.1638 42.643 76.1638H68.0445C68.6335 76.1638 68.928 75.6852 68.928 75.3539V71.8934C68.928 70.3472 70.4374 69.4637 71.4682 69.4637H89.1756Z" fill="#516678"/>
<circle cx="40.8022" cy="95.9696" r="0.993972" fill="#20A2DC"/>
<path d="M48.2445 93.7003C48.6753 93.7003 48.9266 93.3617 48.9984 93.1924C50.9224 100.883 57.5538 102.588 60.629 102.48C70.0341 102.147 72.7623 94.2445 72.7623 90.4716C72.7623 90 72.4894 89.5646 71.8289 89.5646C71.2905 89.5646 70.9315 89.8549 70.9315 90.399C70.9315 93.9906 68.1674 100.666 60.629 100.666C54.7778 100.666 51.583 96.0584 50.9009 93.5189C51.1522 93.7729 51.4394 93.7338 51.583 93.7003C52.0496 93.5915 52.1693 93.2287 52.2291 93.0473L52.2291 93.0473C52.3368 92.6846 52.1214 92.3339 52.0137 92.1767L50.3983 89.4195C50.0753 88.9842 49.2855 89.1293 49.1419 89.4195L47.5625 92.1767C47.3471 92.6483 47.2843 92.7571 47.3471 93.011C47.4638 93.4826 47.7061 93.7003 48.2445 93.7003Z" fill="#20A2DC"/>
<path d="M82.3781 90.1732C81.9421 90.1732 81.6877 90.5118 81.615 90.6811C79.6675 82.9902 72.9552 81.2851 69.8425 81.3939C60.3228 81.7268 57.5613 89.629 57.5613 93.4019C57.5613 93.8736 57.8375 94.3089 58.506 94.3089C59.0511 94.3089 59.4144 94.0187 59.4144 93.4745C59.4144 89.883 62.2122 83.2078 69.8425 83.2078C75.7651 83.2078 78.9989 87.8151 79.6893 90.3546C79.4349 90.1006 79.1443 90.1397 78.9989 90.1732C78.5266 90.282 78.4055 90.6448 78.3449 90.8262C78.2359 91.189 78.4539 91.5397 78.5629 91.6969L80.198 94.454C80.525 94.8894 81.3244 94.7442 81.4697 94.454L83.0684 91.6969C83.2864 91.2253 83.35 91.1164 83.2864 90.8625C83.1684 90.3909 82.9231 90.1732 82.3781 90.1732Z" fill="#20A2DC"/>
<path fill-rule="evenodd" clip-rule="evenodd" d="M110.239 83.9082C109.562 83.8711 108.188 83.3732 108.109 81.6782C108.03 79.9832 109.443 79.2972 110.141 79.2969L116.959 79.2566L116.949 72.7134C116.974 71.9075 117.511 70.3178 119.455 70.4067C120.111 70.423 121.466 70.872 121.635 72.537L121.632 79.2671L128.151 79.2768C128.903 79.2558 130.424 79.6947 130.493 81.619C130.484 82.3418 130.031 83.8102 128.286 83.9006L121.63 83.9284L121.603 90.4092C121.594 91.1986 121.086 92.78 119.122 92.7908C118.411 92.7371 116.986 92.1859 116.966 90.4112L116.969 83.9303L110.239 83.9082ZM110.165 83.0358C109.766 83.0111 109.031 82.635 108.981 81.7277C108.919 80.5936 109.767 80.1445 110.203 80.1568L117.382 80.1538C117.532 80.1538 117.838 80.0564 117.868 79.6676L117.871 72.5884C117.896 72.1564 118.221 71.2871 119.318 71.2667C119.708 71.2416 120.546 71.4731 120.775 72.5997L120.76 79.7162C120.764 79.8533 120.852 80.1274 121.171 80.1273L128.387 80.1367C128.803 80.1864 129.636 80.5525 129.645 81.6193C129.655 82.6862 128.685 83.0281 128.199 83.0657L121.145 83.0437C121.016 83.0562 120.753 83.156 120.733 83.4552L120.755 90.634C120.718 91.145 120.269 92.0176 119.172 91.9183C118.075 91.8191 117.826 90.9385 117.839 90.5106L117.842 83.4564C117.825 83.3151 117.72 83.0352 117.431 83.0453L110.165 83.0358Z" fill="#20A2DC"/>
<path fill-rule="evenodd" clip-rule="evenodd" d="M112.512 67.4966C113.02 67.7336 113.8 67.9034 113.972 66.989C114.075 66.4409 115.051 64.641 116.637 64.5775H121.714C122.92 64.5775 124.266 66.0264 124.316 66.6717C124.365 67.3169 124.76 68.1439 126.029 67.4332C126.596 67.1159 128.441 66.862 129.266 67.6236L133.137 71.4946C133.517 71.8753 134.017 73.8538 133.39 74.731C133.048 75.2109 132.819 75.9367 134.088 76.3809C134.723 76.6347 136.183 77.6501 136.183 78.9827V83.6152C136.183 84.3133 135.231 86.4709 134.152 86.6613C133.39 86.8517 132.629 87.2959 133.39 88.7554C133.644 89.1362 133.898 90.7227 133.2 91.4207L129.329 95.4186C128.631 96.1167 126.918 96.3071 125.902 95.609C125.521 95.3975 124.696 95.2029 124.443 96.1167C124.125 97.259 122.602 98.5916 121.523 98.5916H117.018C116.129 98.5916 114.313 97.5762 114.099 96.5609C113.872 95.4821 112.957 95.2283 112.258 95.609C111.628 95.9528 110.355 96.1167 109.403 95.4821C108.134 94.5937 105.773 92.3391 105.278 91.5476C104.643 90.5323 104.431 89.1996 105.088 88.1208C105.59 87.2959 105.024 86.9976 104.326 86.7882C103.628 86.5788 102.168 85.2017 102.168 83.996V79.2366C102.168 78.2847 103.12 76.6347 104.77 76.1905C105.13 76.0848 105.71 75.6955 105.151 74.9848C105.088 74.9213 104.072 73.208 105.151 71.7484C106.251 70.4369 108.514 68.0043 109.149 67.6236C109.847 67.2047 110.989 66.7859 112.512 67.4966ZM116.45 68.4944V66.7851C116.45 66.5003 116.55 66.0729 117.233 66.0729H121.079C121.482 66.0729 121.791 66.249 121.791 66.7851V68.4944C122.931 68.6369 125.466 69.2351 126.492 70.4886L127.845 69.1354C128.201 68.7793 128.486 68.8505 128.985 69.3491L131.549 71.913C131.822 72.1861 132.118 72.6252 131.549 73.1237L130.338 74.2632C130.979 75.0467 132.261 77.0693 132.261 78.8926H134.041C134.326 78.8926 134.825 78.921 134.825 79.6048V83.3794C134.825 83.7355 134.682 84.3053 134.041 84.3053H132.261C132 85.5398 131.121 88.1939 130.267 88.9346L131.62 90.2165C131.834 90.4302 131.905 90.8575 131.477 91.3561L128.771 94.0624C128.557 94.2761 128.13 94.4185 127.774 94.0624L126.492 92.7093C125.756 93.279 123.8 94.4613 121.863 94.6322V96.4127C121.863 96.6976 121.72 97.1249 121.079 97.1249H117.02C116.806 97.1249 116.45 96.9397 116.45 96.4839V94.6322C115.405 94.4898 113.017 93.9058 111.821 92.7093L110.539 93.9912C110.254 94.2761 109.684 94.2049 109.328 93.8488L106.764 91.2848C106.55 91.0712 106.337 90.5014 106.693 90.0741L107.975 88.9346C107.405 88.1274 106.223 86.0715 106.052 84.3053H104.271C103.915 84.3053 103.488 84.0204 103.488 83.4506V79.5335C103.488 79.1774 103.773 78.8213 104.343 78.8213L106.052 78.8926C106.242 77.848 106.878 75.4597 107.904 74.2632L106.693 72.9813C106.479 72.7676 106.337 72.4115 106.835 71.913L109.399 69.2778C109.613 69.0642 110.183 68.7793 110.681 69.2778L111.821 70.4174C112.628 69.8239 114.684 68.6084 116.45 68.4944Z" fill="#516678"/>
<path fill-rule="evenodd" clip-rule="evenodd" d="M74.6018 101.046C71.4767 101.046 70.3961 103.83 70.2465 105.222V143.836C70.4979 147.285 73.1351 148.147 74.4222 148.147H95.9295V149.34H114.608V148.147H135.981C139.429 147.967 140.261 145.228 140.246 143.881V105.267C140.21 102.034 137.358 101.106 135.936 101.046H74.6018ZM74.512 103.291C72.8597 103.291 72.4765 104.668 72.4915 105.357V141.501H138.046V105.536C138.046 103.632 136.46 103.246 135.666 103.291H74.512ZM72.4467 143.791C72.4167 144.435 72.752 145.731 74.3325 145.947H136.115C136.684 145.932 137.885 145.48 138.136 143.791H72.4467Z" fill="#516678"/>
<path fill-rule="evenodd" clip-rule="evenodd" d="M76.5325 127.358C76.5325 121.902 80.9551 117.48 86.4106 117.48C90.178 117.48 93.3671 119.781 94.9801 123.002H97.3888H102.305H112.139C112.393 122.943 113.108 123.011 113.935 123.766L116.539 125.652C116.928 126.101 117.473 127.277 116.539 128.391L113.935 130.725C113.007 131.578 110.845 132.97 109.624 131.713L108.322 130.411C107.589 131.354 105.619 132.584 103.967 130.321C103.233 131.563 101.309 133.383 99.4766 130.725C99.0576 131.279 98.0488 132.351 97.3663 132.207H95.0402C93.4264 135.239 90.1984 137.236 86.4106 137.236C80.9551 137.236 76.5325 132.813 76.5325 127.358ZM94.7621 129.962L94.7621 129.962H97.052L99.3868 127.672C99.6113 127.448 100.105 127.313 100.509 127.672L101.991 129.289L103.203 127.672C103.428 127.358 104.101 127.088 104.64 127.672L106.122 129.378L107.783 127.852C108.008 127.627 108.547 127.403 108.951 127.852L110.792 129.827H111.51L114.788 127.043L112.094 125.203H102.283H97.3775H94.9249H94.6274L94.6274 125.203C94.6177 125.203 94.608 125.203 94.5983 125.203H94.5376L94.5378 125.202C93.9888 125.196 93.4864 125.123 93.1457 124.484L92.6967 123.586C91.5613 121.323 89.4466 119.635 86.6174 119.635C82.238 119.635 78.6878 123.133 78.6878 127.448C78.6878 131.762 82.0761 134.946 86.4555 134.946C89.0165 134.946 91.0354 133.823 92.3824 132.162C92.5347 131.946 92.767 131.592 92.9853 131.259L92.9854 131.259C93.1745 130.971 93.3531 130.698 93.46 130.546C93.7743 130.052 94.1335 129.962 94.7621 129.962Z" fill="#20A2DC"/>
<path fill-rule="evenodd" clip-rule="evenodd" d="M85.782 131.848C88.2618 131.848 90.2721 129.838 90.2721 127.358C90.2721 124.878 88.2618 122.868 85.782 122.868C83.3023 122.868 81.292 124.878 81.292 127.358C81.292 129.838 83.3023 131.848 85.782 131.848ZM85.8269 129.603C87.0916 129.603 88.1168 128.578 88.1168 127.313C88.1168 126.048 87.0916 125.023 85.8269 125.023C84.5622 125.023 83.537 126.048 83.537 127.313C83.537 128.578 84.5622 129.603 85.8269 129.603Z" fill="#20A2DC"/>
<path fill-rule="evenodd" clip-rule="evenodd" d="M107.694 120.757H109.849V119.68C109.849 118.692 110.388 117.48 112.004 117.48H129.695C130.638 117.48 131.76 118.108 131.76 119.815V134.991C131.76 135.799 131.401 137.191 129.38 137.191H111.959C111.345 137.206 110.073 136.823 109.894 135.171V134.138C109.46 134.048 108.502 133.752 108.143 133.285C108.068 133.389 107.873 133.59 107.694 133.554V135.395C107.783 136.727 108.762 139.391 111.959 139.391H129.695C131.042 139.391 134.005 138.538 134.005 134.991V119.68C134.005 118.243 132.748 115.325 129.919 115.325H129.066V109.532C129.066 108.23 127.764 105.446 125.025 105.446H116.584C115.327 105.446 112.633 106.614 112.633 109.532V115.325H111.69C110.298 115.325 107.694 116.582 107.694 119.68V120.757ZM114.833 109.712V115.325H126.866C126.866 115.325 126.851 111.538 126.866 109.712C126.871 109.083 126.282 107.647 124.801 107.647H116.808C116.135 107.647 114.833 108.096 114.833 109.712Z" fill="#516678"/>
<path fill-rule="evenodd" clip-rule="evenodd" d="M122.4 125.911L121.595 124.637C121.362 124.267 121.189 123.63 121.969 123.137C122.462 122.826 123.167 122.668 123.607 123.366L124.502 124.783L125.467 123.267C125.702 122.898 126.205 122.47 126.983 122.965C127.475 123.279 127.918 123.849 127.475 124.545L126.605 125.911H128.116C128.553 125.911 129.185 126.106 129.185 127.029C129.185 127.611 128.942 128.292 128.116 128.292H126.718L127.498 129.527C127.783 129.979 127.811 130.66 127.052 131.187C126.653 131.464 125.978 131.578 125.563 130.921L124.494 129.227L123.562 130.691C123.275 131.142 122.67 131.458 121.87 130.996C121.449 130.753 121.058 130.192 121.476 129.536L122.268 128.292H120.83C120.296 128.292 119.704 127.951 119.664 127.029C119.643 126.543 119.907 125.911 120.684 125.911H122.4Z" fill="#20A2DC"/>
<rect x="15.912" y="156.268" width="143.033" height="4.26364" rx="2.13182" fill="#516678"/>
<rect x="161.158" y="156.268" width="7.15163" height="4.26364" rx="2.13182" fill="#20A2DC"/>
<rect x="6.71698" y="156.268" width="7.15163" height="4.26364" rx="2.13182" fill="#20A2DC"/>
<rect x="64.4409" y="164.454" width="45.6342" height="4.26364" rx="2.13182" fill="#20A2DC"/>
<rect x="72.7845" y="170.764" width="30.139" height="4.26364" rx="2.13182" fill="#20A2DC"/>
<rect x="83.1714" y="167.353" width="8.68413" height="4.26364" fill="#20A2DC"/>
<rect x="112.118" y="164.454" width="12.6005" height="4.26364" rx="2.13182" fill="#20A2DC"/>
<rect x="49.7971" y="164.454" width="12.6005" height="4.26364" rx="2.13182" fill="#20A2DC"/>
<rect x="170.353" y="156.268" width="4.25692" height="4.26364" rx="2.12846" fill="#20A2DC"/>
<rect x="0.24646" y="156.268" width="4.25692" height="4.26364" rx="2.12846" fill="#20A2DC"/>
</svg>
