<svg width="175" height="176" viewBox="0 0 175 176" fill="none" xmlns="http://www.w3.org/2000/svg">
<path d="M16.1935 64.4682L15.0562 65.0377L16.6673 67.126H14.2032V68.1702L16.6673 67.6956L15.0562 70.0686L16.1935 70.6382L17.1412 68.1702L18.2785 70.6382L19.4157 69.8788L17.8046 67.6956L20.4582 68.1702V67.126H17.8046L19.4157 65.0377L18.5628 64.4682L17.1412 66.7463L16.1935 64.4682Z" fill="#20A2DC"/>
<path d="M39.9631 15.2159L38.8258 15.7855L40.4369 17.8738H37.9728V18.9179L40.4369 18.4433L38.8258 20.8164L39.9631 21.3859L40.9108 18.9179L42.0481 21.3859L43.1853 20.6265L41.5742 18.4433L44.2278 18.9179V17.8738H41.5742L43.1853 15.7855L42.3324 15.2159L40.9108 17.4941L39.9631 15.2159Z" fill="#20A2DC"/>
<path d="M159.644 75.1868L158.506 75.7564L160.118 77.8447H157.653V78.8888L160.118 78.4142L158.506 80.7872L159.644 81.3568L160.591 78.8888L161.729 81.3568L162.866 80.5974L161.255 78.4142L163.908 78.8888V77.8447H161.255L162.866 75.7564L162.013 75.1868L160.591 77.465L159.644 75.1868Z" fill="#20A2DC"/>
<path d="M133.281 20.6007L132.144 21.1702L133.755 23.2585H131.291V24.3027L133.755 23.8281L132.144 26.2011L133.281 26.7707L134.229 24.3027L135.366 26.7707L136.504 26.0113L134.893 23.8281L137.546 24.3027V23.2585H134.893L136.504 21.1702L135.651 20.6007L134.229 22.8788L133.281 20.6007Z" fill="#20A2DC"/>
<path d="M82.2121 12.0775L81.6952 12.3578L82.4275 13.3859H81.3075V13.9L82.4275 13.6663L81.6952 14.8346L82.2121 15.115L82.6429 13.9L83.1599 15.115L83.6768 14.7411L82.9445 13.6663L84.1507 13.9V13.3859H82.9445L83.6768 12.3578L83.2891 12.0775L82.6429 13.199L82.2121 12.0775Z" fill="#20A2DC"/>
<path fill-rule="evenodd" clip-rule="evenodd" d="M19.8342 20.8984C21.0904 20.8984 22.1088 19.8785 22.1088 18.6203C22.1088 17.3621 21.0904 16.3422 19.8342 16.3422C18.578 16.3422 17.5597 17.3621 17.5597 18.6203C17.5597 19.8785 18.578 20.8984 19.8342 20.8984ZM19.8043 19.3397C20.2175 19.3397 20.5525 19.0042 20.5525 18.5903C20.5525 18.1765 20.2175 17.8409 19.8043 17.8409C19.3911 17.8409 19.0561 18.1765 19.0561 18.5903C19.0561 19.0042 19.3911 19.3397 19.8043 19.3397Z" fill="#516678"/>
<path fill-rule="evenodd" clip-rule="evenodd" d="M11.6408 46.9966C12.897 46.9966 13.9153 45.9766 13.9153 44.7184C13.9153 43.4603 12.897 42.4403 11.6408 42.4403C10.3846 42.4403 9.36621 43.4603 9.36621 44.7184C9.36621 45.9766 10.3846 46.9966 11.6408 46.9966ZM11.6108 45.4379C12.024 45.4379 12.359 45.1023 12.359 44.6885C12.359 44.2746 12.024 43.9391 11.6108 43.9391C11.1976 43.9391 10.8626 44.2746 10.8626 44.6885C10.8626 45.1023 11.1976 45.4379 11.6108 45.4379Z" fill="#516678"/>
<path fill-rule="evenodd" clip-rule="evenodd" d="M103.656 24.0083C105.869 24.0083 107.664 22.2114 107.664 19.9948C107.664 17.7783 105.869 15.9814 103.656 15.9814C101.443 15.9814 99.6493 17.7783 99.6493 19.9948C99.6493 22.2114 101.443 24.0083 103.656 24.0083ZM103.604 21.2621C104.332 21.2621 104.922 20.6711 104.922 19.9419C104.922 19.2128 104.332 18.6217 103.604 18.6217C102.876 18.6217 102.285 19.2128 102.285 19.9419C102.285 20.6711 102.876 21.2621 103.604 21.2621Z" fill="#516678"/>
<path fill-rule="evenodd" clip-rule="evenodd" d="M135.088 59.7977C136.409 59.7977 137.481 58.7246 137.481 57.4009C137.481 56.0772 136.409 55.0041 135.088 55.0041C133.766 55.0041 132.695 56.0772 132.695 57.4009C132.695 58.7246 133.766 59.7977 135.088 59.7977ZM135.056 58.1575C135.491 58.1575 135.844 57.8046 135.844 57.3691C135.844 56.9337 135.491 56.5807 135.056 56.5807C134.622 56.5807 134.269 56.9337 134.269 57.3691C134.269 57.8046 134.622 58.1575 135.056 58.1575Z" fill="#516678"/>
<path fill-rule="evenodd" clip-rule="evenodd" d="M158.33 44.4723C159.652 44.4723 160.723 43.3992 160.723 42.0755C160.723 40.7518 159.652 39.6787 158.33 39.6787C157.009 39.6787 155.937 40.7518 155.937 42.0755C155.937 43.3992 157.009 44.4723 158.33 44.4723ZM158.299 42.8321C158.733 42.8321 159.086 42.4792 159.086 42.0437C159.086 41.6083 158.733 41.2553 158.299 41.2553C157.864 41.2553 157.512 41.6083 157.512 42.0437C157.512 42.4792 157.864 42.8321 158.299 42.8321Z" fill="#516678"/>
<path fill-rule="evenodd" clip-rule="evenodd" d="M61.0288 27.3728C61.186 23.4755 63.7066 15.6998 72.5321 15.7752C81.3576 15.8506 83.8783 23.6012 84.0355 27.3728H92.5215C95.3502 27.3728 99.0275 30.4844 99.0275 34.3503V39.9133C99.0275 41.422 98.3675 43.3078 96.0102 43.3078C95.591 43.3078 94.3586 43.3115 92.531 43.317C83.7532 43.3436 61.2446 43.4118 49.1483 43.3078C48.0168 43.3078 46.131 42.4592 46.131 40.2905V34.0674C46.131 31.6159 48.4883 27.3728 52.5427 27.3728H61.0288ZM65.649 28.8815V26.7128C65.649 24.5442 67.7799 20.4709 72.5321 20.3954C77.2843 20.32 79.4153 24.5442 79.4153 26.7128V28.8815C79.4153 30.2016 80.4524 31.8988 82.2439 31.8988H92.1444C93.0873 31.8988 94.3319 32.4268 94.4073 34.1617C94.4827 35.8967 94.4387 37.9019 94.4073 38.6876H50.7512V34.1617C50.8141 33.4074 51.2227 31.8988 53.0142 31.8988H62.726C63.8575 31.8988 65.649 31.1445 65.649 28.8815Z" fill="#516678"/>
<path d="M54.3342 66.4549C54.3342 64.8307 55.3062 64.3016 55.7922 64.2401H105.553C106.018 64.3939 106.948 65.0521 106.948 66.4549C106.948 67.8576 106.018 68.4543 105.553 68.5774H55.7922C55.3062 68.5466 54.3342 68.079 54.3342 66.4549Z" fill="#516678"/>
<path d="M54.3342 78.1467C54.3342 76.5226 55.3062 75.9935 55.7922 75.9319H80.8494C80.6476 76.9063 80.3046 79.1378 80.5467 80.2693H79.1522H55.7922C55.3062 80.2385 54.3342 79.7709 54.3342 78.1467Z" fill="#516678"/>
<path d="M54.3342 112.376C54.3342 114 55.3062 114.529 55.7922 114.591H82.6211C82.2439 113.082 81.8668 112.799 81.4896 110.253H79.1522H55.7922C55.3062 110.284 54.3342 110.752 54.3342 112.376Z" fill="#516678"/>
<path d="M54.3342 123.879C54.3342 125.503 55.3062 126.032 55.7922 126.094H88.8442C88.1644 124.774 87.147 124.114 86.2984 121.757H79.1522H55.7922C55.3062 121.787 54.3342 122.255 54.3342 123.879Z" fill="#516678"/>
<path d="M54.3342 135.194C54.3342 136.818 55.3062 137.347 55.7922 137.409H99.5932C98.5561 136.654 96.6703 135.24 94.7845 133.071H79.1522H55.7922C55.3062 133.102 54.3342 133.57 54.3342 135.194Z" fill="#516678"/>
<path d="M54.3342 89.4615C54.3342 87.8373 55.3062 87.3082 55.7922 87.2467H80.5467V91.584H79.1522H55.7922C55.3062 91.5533 54.3342 91.0857 54.3342 89.4615Z" fill="#516678"/>
<path d="M54.3342 100.965C54.3342 99.3407 55.3062 98.8116 55.7922 98.7501H80.5467V103.087H79.1522H55.7922C55.3062 103.057 54.3342 102.589 54.3342 100.965Z" fill="#20A2DC"/>
<path d="M41.6052 37.7447V33.0302H31.799C27.2731 33.0302 25.3873 37.7447 25.3873 39.9134V156.078C25.3873 158.247 25.8588 159.473 27.2731 159.473H111.379H118.168C118.923 159.473 119.771 157.87 119.771 156.55V146.366C117.357 147.196 115.622 146.712 115.057 146.366V156.078C115.057 158.247 113.548 158.247 112.322 158.247H32.2705C30.0076 158.247 30.0076 156.927 30.0076 155.607V39.9134C30.0076 38.2161 31.4219 37.7447 32.4591 37.7447H41.6052Z" fill="#516678"/>
<path d="M103.553 33.0302V37.6504H113.171C114.302 37.6504 115.151 38.9705 115.151 39.9134V59.8085C116.848 59.2427 118.545 59.5256 119.677 59.8085V39.3476C119.677 34.3503 115.34 33.0302 113.171 33.0302H103.553Z" fill="#516678"/>
<path fill-rule="evenodd" clip-rule="evenodd" d="M87.2413 75.3662C86.2041 75.1683 85.167 76.3091 85.1669 77.4406C85.1669 77.6728 85.166 78.3427 85.1646 79.334C85.158 84.147 85.1409 96.5357 85.1669 103.182C85.5127 112.171 92.4461 132.562 117.414 142.218C127.44 138.477 147.926 125.434 149.661 103.182V77.8177C149.661 76.7806 149.284 75.3662 147.398 75.3662C140.829 76.4348 125.994 75.8565 119.205 64.9943C118.64 64.3343 117.131 63.4103 115.622 64.9943C112.731 69.7717 103.553 78.4778 87.2413 75.3662ZM89.9856 83.772C89.98 87.8629 89.9654 98.3927 89.9876 104.041C90.2817 111.682 96.2931 128.074 117.42 137.409C125.994 133.92 143.249 122.511 144.852 104.041V82.4831V80.175C138.535 81.1179 124.203 79.1378 117.414 70.086C114.954 74.1465 103.836 81.8722 89.9876 80.3636V82.1625C89.9876 82.3599 89.9868 82.9294 89.9856 83.772Z" fill="#20A2DC"/>
<path fill-rule="evenodd" clip-rule="evenodd" d="M117.32 119.494C126.381 119.494 133.726 112.148 133.726 103.087C133.726 94.0264 126.381 86.681 117.32 86.681C108.259 86.681 100.913 94.0264 100.913 103.087C100.913 112.148 108.259 119.494 117.32 119.494ZM117.414 115.345C124.132 115.345 129.577 109.899 129.577 103.182C129.577 96.4639 124.132 91.0182 117.414 91.0182C110.696 91.0182 105.251 96.4639 105.251 103.182C105.251 109.899 110.696 115.345 117.414 115.345Z" fill="#516678"/>
<path d="M111.664 104.329C111.61 103.144 112.719 102.713 113.28 102.646C113.55 102.614 113.819 102.646 114.223 102.915L116.243 104.396L120.485 98.9438C121.158 98.338 122.235 98.5399 122.707 98.9438C123.313 99.5496 123.178 100.559 122.909 100.963L117.455 108.099C116.485 108.583 115.704 108.211 115.435 107.964L112.203 105.541C111.732 105.137 111.676 104.598 111.664 104.329Z" fill="#20A2DC"/>
<path d="M36.7982 67.7446C36.7444 66.5599 37.8531 66.1291 38.4142 66.0617C38.6836 66.0294 38.9529 66.0617 39.3569 66.331L41.3769 67.8119L45.6188 62.3595C46.2921 61.7536 47.3695 61.9556 47.8408 62.3595C48.4468 62.9653 48.3121 63.975 48.0428 64.3789L42.5888 71.5142C41.6193 71.9988 40.8382 71.6264 40.5689 71.3795L37.3369 68.9562C36.8656 68.5524 36.8105 68.0138 36.7982 67.7446Z" fill="#516678"/>
<path d="M36.7982 78.4607C36.7444 77.2759 37.8531 76.8451 38.4142 76.7778C38.6836 76.7455 38.9529 76.7778 39.3569 77.0471L41.3769 78.528L45.6188 73.0755C46.2921 72.4697 47.3695 72.6716 47.8408 73.0755C48.4468 73.6814 48.3121 74.6911 48.0428 75.095L42.5888 82.2302C41.6193 82.7149 40.8382 82.3424 40.5689 82.0956L37.3369 79.6723C36.8656 79.2684 36.8105 78.7299 36.7982 78.4607Z" fill="#516678"/>
<path d="M36.7982 89.1767C36.7444 87.992 37.8531 87.5612 38.4142 87.4939C38.6836 87.4616 38.9529 87.4939 39.3569 87.7631L41.3769 89.244L45.6188 83.7916C46.2921 83.1858 47.3695 83.3877 47.8408 83.7916C48.4468 84.3974 48.3121 85.4071 48.0428 85.811L42.5888 92.9463C41.6193 93.431 40.8382 93.0585 40.5689 92.8117L37.3369 90.3884C36.8656 89.9845 36.8105 89.446 36.7982 89.1767Z" fill="#516678"/>
<path d="M36.7982 99.8927C36.7444 98.708 37.8531 98.2772 38.4142 98.2099C38.6836 98.1776 38.9529 98.2099 39.3569 98.4791L41.3769 99.96L45.6188 94.5076C46.2921 93.9018 47.3695 94.1037 47.8408 94.5076C48.4468 95.1134 48.3121 96.1231 48.0428 96.527L42.5888 103.662C41.6193 104.147 40.8382 103.774 40.5689 103.528L37.3369 101.104C36.8656 100.7 36.8105 100.162 36.7982 99.8927Z" fill="#516678"/>
<path d="M36.7982 114.324C36.7444 113.139 37.8531 112.708 38.4142 112.641C38.6836 112.609 38.9529 112.641 39.3569 112.91L41.3769 114.391L45.6188 108.939C46.2921 108.333 47.3695 108.535 47.8408 108.939C48.4468 109.544 48.3121 110.554 48.0428 110.958L42.5888 118.093C41.6193 118.578 40.8382 118.205 40.5689 117.959L37.3369 115.535C36.8656 115.131 36.8105 114.593 36.7982 114.324Z" fill="#516678"/>
<path d="M36.7982 125.073C36.7444 123.888 37.8531 123.457 38.4142 123.39C38.6836 123.357 38.9529 123.39 39.3569 123.659L41.3769 125.14L45.6188 119.688C46.2921 119.082 47.3695 119.284 47.8408 119.688C48.4468 120.293 48.3121 121.303 48.0428 121.707L42.5888 128.842C41.6193 129.327 40.8382 128.954 40.5689 128.708L37.3369 126.284C36.8656 125.88 36.8105 125.342 36.7982 125.073Z" fill="#516678"/>
<path d="M36.7982 135.789C36.7444 134.604 37.8531 134.173 38.4142 134.106C38.6836 134.074 38.9529 134.106 39.3569 134.375L41.3769 135.856L45.6188 130.404C46.2921 129.798 47.3695 130 47.8408 130.404C48.4468 131.009 48.3121 132.019 48.0428 132.423L42.5888 139.558C41.6193 140.043 40.8382 139.67 40.5689 139.424L37.3369 137C36.8656 136.596 36.8105 136.058 36.7982 135.789Z" fill="#516678"/>
<rect x="15.912" y="156.268" width="143.033" height="4.26364" rx="2.13182" fill="#516678"/>
<rect x="161.158" y="156.268" width="7.15163" height="4.26364" rx="2.13182" fill="#20A2DC"/>
<rect x="6.71698" y="156.268" width="7.15163" height="4.26364" rx="2.13182" fill="#20A2DC"/>
<rect x="64.4409" y="164.454" width="45.6342" height="4.26364" rx="2.13182" fill="#20A2DC"/>
<rect x="72.7845" y="170.764" width="30.139" height="4.26364" rx="2.13182" fill="#20A2DC"/>
<rect x="83.1713" y="167.353" width="8.68413" height="4.26364" fill="#20A2DC"/>
<rect x="112.118" y="164.454" width="12.6005" height="4.26364" rx="2.13182" fill="#20A2DC"/>
<rect x="49.7971" y="164.454" width="12.6005" height="4.26364" rx="2.13182" fill="#20A2DC"/>
<rect x="170.353" y="156.268" width="4.25692" height="4.26364" rx="2.12846" fill="#20A2DC"/>
<rect x="0.24646" y="156.268" width="4.25692" height="4.26364" rx="2.12846" fill="#20A2DC"/>
</svg>
