<svg width="175" height="175" viewBox="0 0 175 175" fill="none" xmlns="http://www.w3.org/2000/svg">
<path fill-rule="evenodd" clip-rule="evenodd" d="M51.3652 35.2937C51.1366 23.8641 61.6836 19.6098 66.9857 18.9113C68.9668 9.76764 82.9871 7.67222 89.7495 7.76746C119.162 9.06281 125.372 26.658 124.8 35.2937C124.953 38.7226 123.53 43.8976 122.8 46.0565C125.086 48.4186 125.53 53.581 125.467 55.8669C125.238 67.9061 119.911 70.0904 117.276 69.6777C115.98 74.2495 109.18 83.8376 105.941 88.0602C104.417 91.9463 104.925 95.1402 105.37 96.2514L117.276 103.204C136.121 105.293 145.175 116.661 149.006 127.67H143.951C138.197 113.197 124.736 108.363 116.418 107.967L102.499 127.67H96.7298L112.228 105.776L106.894 102.538L98.417 113.396C97.8455 114.063 96.893 113.682 96.5121 113.396L87.4636 106.348L78.6057 113.396C77.8437 113.967 76.9865 113.777 76.7008 113.396L68.1286 102.633L62.6996 105.776L78.2795 127.67H72.3849L58.3181 107.967C42.7326 109.668 34.7213 118.074 31.0115 127.67H25.9613C31.9379 110.034 48.5446 103.948 57.7468 103.204L69.6526 96.2514C70.7193 94.7275 69.9066 90.1556 69.3668 88.0602C65.3284 84.6313 59.7469 74.3765 57.461 69.6777C51.3652 69.6777 49.7461 63.1056 49.6508 55.8669C49.5746 50.0759 51.8415 46.2788 52.9844 45.1041C51.6129 42.1324 51.3335 37.3256 51.3652 35.2937ZM81.2053 127.67H86.4531C86.4153 127.33 86.3341 127.043 86.2253 126.826L83.3679 120.349L87.4635 116.634L91.7496 120.349L88.8922 126.826C88.7364 127.137 88.6343 127.416 88.5727 127.67H93.7291C93.8302 127.285 93.9904 126.877 94.2261 126.445L96.5121 121.206C96.5366 121.151 96.5627 121.093 96.5898 121.033L96.5906 121.032L96.5907 121.031C96.9842 120.163 97.5806 118.846 96.5121 118.063L88.8923 111.491C88.3209 110.919 87.1779 110.443 86.0349 111.491L78.6057 118.063C77.8437 118.73 77.558 119.396 78.4152 121.206L80.6059 126.445C80.636 126.5 80.6661 126.556 80.696 126.611C80.8869 126.963 81.0711 127.302 81.2053 127.67ZM70.7954 26.7214L67.7476 23.3878C57.5371 24.8355 55.683 32.5632 56.0323 36.2461C56.0323 41.3894 58.3817 46.4057 59.8421 48.6281C59.7469 37.2938 66.8904 29.5788 70.7954 26.7214ZM71.367 20.34C71.6209 17.7049 75.5387 12.4346 89.178 12.4346C106.227 12.4346 119.943 21.102 120.133 34.7222C120.26 39.929 118.704 50.2093 111.466 49.6759C108.481 49.5172 101.941 47.6757 94.2261 41.58C89.3685 37.8336 80.1296 29.9599 78.7962 28.2455C76.5738 26.023 71.9765 21.3306 71.367 20.34ZM64.509 49.0092C64.0519 39.1798 70.7318 32.3411 74.1289 30.1504C105.991 62.3371 116.35 53.7397 119.295 51.2956C119.801 50.8756 120.089 50.6373 120.228 50.8189C120.99 51.8094 120.546 58.2163 120.228 61.296C119.466 66.2488 116.228 65.1376 114.704 63.9629C114.513 65.5821 102.608 93.775 87.2729 93.6798C75.0052 93.6036 64.0646 73.8368 60.1277 63.9629C58.5276 64.9534 57.5561 65.0106 57.2703 64.9153C54.957 64.5452 54.6214 60.4893 54.3421 57.1144L54.3177 56.8194C54.0891 54.0763 54.7939 51.1681 55.1749 50.0569C56.3813 51.9618 59.3467 55.7526 61.5564 55.6764C63.7661 55.6002 64.4455 53.9938 64.509 53.2C64.4455 51.8666 64.3567 49.1616 64.509 49.0092ZM74.7957 93.3938C74.8592 95.1717 74.4529 99.0134 72.3193 100.156L78.0341 107.681L86.2253 101.204C86.7968 100.728 87.7493 100.442 88.797 101.204L96.8929 107.681L102.608 100.252C101.719 99.6166 99.9789 97.3561 100.131 93.3938C98.5121 95.0448 93.7307 98.3466 87.5588 98.3466C81.3868 98.3466 76.4784 95.0448 74.7957 93.3938Z" fill="#516678"/>
<path d="M73.3357 59.0855C73.3357 60.1302 74.4224 61.082 75.0434 61.082H80.3924C80.8582 61.082 82.0225 60.1851 82.0225 59.0855C82.0225 57.9859 80.9358 57.089 80.3924 57.089H75.0434C74.4224 57.089 73.3357 58.0409 73.3357 59.0855Z" fill="#20A2DC"/>
<path d="M93.077 59.0855C93.077 60.1302 94.1637 61.082 94.7847 61.082H100.134C100.599 61.082 101.764 60.1851 101.764 59.0855C101.764 57.9859 100.677 57.089 100.134 57.089H94.7847C94.1637 57.089 93.077 58.0409 93.077 59.0855Z" fill="#20A2DC"/>
<path d="M87.6028 85.1878C80.748 85.4481 76.4707 79.7507 74.9957 78.0153C73.6604 75.8968 76.3925 74.5455 77.6242 76.3457C78.7522 77.9944 81.5289 81.6254 87.3425 82.0726C92.0281 82.433 96.1611 78.0226 97.6681 76.3458C98.7791 75.1096 100.988 75.8968 100.189 78.0153C97.8464 80.7052 94.4576 84.9275 87.6028 85.1878Z" fill="#20A2DC"/>
<path d="M83.1885 70.711C83.1885 71.7556 84.2752 72.7075 84.8961 72.7075H90.2452C90.7109 72.7075 91.8753 71.8106 91.8753 70.711C91.8753 69.6114 90.7886 68.7145 90.2452 68.7145H84.8961C84.2752 68.7145 83.1885 69.6663 83.1885 70.711Z" fill="#516678"/>
<path d="M128.806 137.372C129.09 134.343 130.739 132.244 131.528 131.574H20.6396C12.7117 131.574 11.6468 137.845 11.6468 140.685V165.415C11.6468 173.58 17.6814 174.881 20.6396 174.881H126.321C125.28 174.503 124.31 170.858 123.955 169.083H20.6396C17.4448 169.083 17.4448 166.835 17.4448 165.415V140.685C17.4448 137.963 19.2197 137.372 20.6396 137.372H128.806Z" fill="#516678"/>
<path fill-rule="evenodd" clip-rule="evenodd" d="M135.99 139.265C135.99 134.532 140.959 131.692 143.563 131.692H151.372C156.342 131.692 159.182 137.254 159.182 139.739V146.602C162.306 147.454 163.442 150.861 163.442 152.518V168.374C163.442 172.515 159.063 175 157.052 175H137.646C133.978 175 131.493 170.504 131.493 168.374V152.755C131.493 149.347 134.491 147.233 135.99 146.602V139.265ZM153.147 146.01H141.788V140.449C141.788 138.366 143.563 137.491 144.628 137.491H150.307C152.674 137.491 153.187 139.463 153.147 140.449V146.01ZM137.41 153.346C137.41 152.796 138.001 151.808 138.83 151.808H156.105C156.697 151.808 157.525 152.399 157.525 153.464V167.664C157.525 168.374 157.289 169.084 156.105 169.084H150.426V165.415C150.426 164.705 149.597 163.404 147.586 163.404C145.456 163.404 144.509 164.705 144.509 165.415V169.084H138.948C138.238 169.084 137.41 168.729 137.41 167.427V153.346Z" fill="#20A2DC"/>
<path fill-rule="evenodd" clip-rule="evenodd" d="M99.5879 150.506L97.6275 147.401C97.0589 146.501 96.6378 144.948 98.5387 143.747C99.7393 142.989 101.456 142.605 102.53 144.306L104.709 147.756L107.06 144.064C107.632 143.165 108.857 142.122 110.754 143.329C111.951 144.092 113.031 145.481 111.951 147.178L109.832 150.506H113.513C114.578 150.506 116.117 150.979 116.117 153.227C116.117 154.647 115.525 156.304 113.513 156.304H110.107L112.007 159.313C112.702 160.413 112.77 162.073 110.922 163.357C109.949 164.032 108.305 164.31 107.294 162.709L104.689 158.584L102.418 162.15C101.719 163.248 100.247 164.018 98.298 162.893C97.2722 162.301 96.32 160.932 97.3369 159.335L99.2669 156.304H95.7643C94.4627 156.304 93.0223 155.475 92.9245 153.227C92.873 152.044 93.5159 150.506 95.4093 150.506H99.5879Z" fill="#516678"/>
<path fill-rule="evenodd" clip-rule="evenodd" d="M66.1683 150.506L64.2079 147.401C63.6393 146.501 63.2182 144.948 65.1191 143.747C66.3197 142.989 68.0363 142.605 69.1103 144.306L71.2893 147.756L73.6403 144.064C74.2122 143.165 75.4376 142.122 77.3341 143.329C78.5319 144.092 79.6115 145.481 78.5312 147.178L76.4122 150.506H80.0938C81.1587 150.506 82.697 150.979 82.697 153.227C82.697 154.647 82.1053 156.304 80.0938 156.304H76.687L78.5871 159.313C79.2821 160.413 79.3508 162.073 77.5022 163.357C76.5292 164.032 74.8853 164.31 73.8743 162.709L71.2693 158.583L68.9988 162.15C68.2997 163.248 66.8274 164.018 64.8784 162.893C63.8526 162.301 62.9004 160.932 63.9172 159.335L65.8473 156.304H62.3448C61.0431 156.304 59.6028 155.475 59.5049 153.227C59.4534 152.044 60.0964 150.506 61.9898 150.506H66.1683Z" fill="#20A2DC"/>
<path fill-rule="evenodd" clip-rule="evenodd" d="M32.7489 150.506L30.7885 147.401C30.2199 146.501 29.7987 144.948 31.6996 143.747C32.9002 142.989 34.6168 142.605 35.6908 144.306L37.87 147.756L40.221 144.064C40.7929 143.165 42.0183 142.122 43.9148 143.329C45.1125 144.092 46.1922 145.481 45.1119 147.178L42.9929 150.506H46.6745C47.7394 150.506 49.2777 150.979 49.2777 153.227C49.2777 154.647 48.686 156.304 46.6745 156.304H43.2675L45.1677 159.313C45.8627 160.413 45.9314 162.073 44.0827 163.357C43.1097 164.032 41.4658 164.31 40.4548 162.709L37.8499 158.584L35.5794 162.15C34.8804 163.248 33.4081 164.018 31.4591 162.893C30.4333 162.301 29.481 160.932 30.4979 159.335L32.428 156.304H28.9254C27.6238 156.304 26.1835 155.475 26.0856 153.227C26.0341 152.044 26.6771 150.506 28.5705 150.506H32.7489Z" fill="#516678"/>
</svg>
