<svg width="175" height="176" viewBox="0 0 175 176" fill="none" xmlns="http://www.w3.org/2000/svg">
<path d="M23.9269 79.6127L22.7896 80.1822L24.4007 82.2705H21.9366V83.3146L24.4007 82.84L22.7896 85.2131L23.9269 85.7826L24.8746 83.3146L26.0119 85.7826L27.1491 85.0232L25.538 82.84L28.1916 83.3146V82.2705H25.538L27.1491 80.1822L26.2962 79.6127L24.8746 81.8908L23.9269 79.6127Z" fill="#20A2DC"/>
<path d="M42.4128 23.4155L41.2755 23.9851L42.8866 26.0734H40.4225V27.1175L42.8866 26.6429L41.2755 29.0159L42.4128 29.5855L43.3605 27.1175L44.4978 29.5855L45.635 28.8261L44.0239 26.6429L46.6775 27.1175V26.0734H44.0239L45.635 23.9851L44.7821 23.4155L43.3605 25.6937L42.4128 23.4155Z" fill="#20A2DC"/>
<path d="M114.631 9.85913L113.494 10.4287L115.105 12.517H112.641V13.5611L115.105 13.0865L113.494 15.4595L114.631 16.0291L115.579 13.5611L116.716 16.0291L117.853 15.2697L116.242 13.0865L118.896 13.5611V12.517H116.242L117.853 10.4287L117 9.85913L115.579 12.1373L114.631 9.85913Z" fill="#20A2DC"/>
<path d="M156.532 37.4648L155.395 38.0344L157.006 40.1227H154.542V41.1668L157.006 40.6922L155.395 43.0653L156.532 43.6348L157.48 41.1668L158.617 43.6348L159.755 42.8754L158.144 40.6922L160.797 41.1668V40.1227H158.144L159.755 38.0344L158.902 37.4648L157.48 39.743L156.532 37.4648Z" fill="#20A2DC"/>
<path d="M86.2483 2.95776L85.7314 3.23815L86.4637 4.26623H85.3437V4.78027L86.4637 4.54662L85.7314 5.71489L86.2483 5.99528L86.6791 4.78027L87.1961 5.99528L87.713 5.62143L86.9807 4.54662L88.1869 4.78027V4.26623H86.9807L87.713 3.23815L87.3253 2.95776L86.6791 4.07931L86.2483 2.95776Z" fill="#20A2DC"/>
<path fill-rule="evenodd" clip-rule="evenodd" d="M16.5703 30.6831C17.8265 30.6831 18.8449 29.6631 18.8449 28.405C18.8449 27.1468 17.8265 26.1268 16.5703 26.1268C15.3141 26.1268 14.2958 27.1468 14.2958 28.405C14.2958 29.6631 15.3141 30.6831 16.5703 30.6831ZM16.5404 29.1244C16.9536 29.1244 17.2886 28.7889 17.2886 28.375C17.2886 27.9611 16.9536 27.6256 16.5404 27.6256C16.1272 27.6256 15.7922 27.9611 15.7922 28.375C15.7922 28.7889 16.1272 29.1244 16.5404 29.1244Z" fill="#516678"/>
<path fill-rule="evenodd" clip-rule="evenodd" d="M18.7886 64.6971C20.0448 64.6971 21.0631 63.6772 21.0631 62.419C21.0631 61.1608 20.0448 60.1409 18.7886 60.1409C17.5324 60.1409 16.514 61.1608 16.514 62.419C16.514 63.6772 17.5324 64.6971 18.7886 64.6971ZM18.7586 63.1384C19.1718 63.1384 19.5068 62.8029 19.5068 62.389C19.5068 61.9752 19.1718 61.6396 18.7586 61.6396C18.3454 61.6396 18.0104 61.9752 18.0104 62.389C18.0104 62.8029 18.3454 63.1384 18.7586 63.1384Z" fill="#516678"/>
<path fill-rule="evenodd" clip-rule="evenodd" d="M76.5644 26.7195C78.7775 26.7195 80.5715 24.9226 80.5715 22.7061C80.5715 20.4895 78.7775 18.6926 76.5644 18.6926C74.3514 18.6926 72.5573 20.4895 72.5573 22.7061C72.5573 24.9226 74.3514 26.7195 76.5644 26.7195ZM76.5116 23.9734C77.2396 23.9734 77.8297 23.3823 77.8297 22.6532C77.8297 21.924 77.2396 21.333 76.5116 21.333C75.7836 21.333 75.1935 21.924 75.1935 22.6532C75.1935 23.3823 75.7836 23.9734 76.5116 23.9734Z" fill="#516678"/>
<path fill-rule="evenodd" clip-rule="evenodd" d="M161.865 62.7162C163.186 62.7162 164.258 61.6431 164.258 60.3194C164.258 58.9957 163.186 57.9226 161.865 57.9226C160.543 57.9226 159.472 58.9957 159.472 60.3194C159.472 61.6431 160.543 62.7162 161.865 62.7162ZM161.833 61.0761C162.268 61.0761 162.621 60.7231 162.621 60.2876C162.621 59.8522 162.268 59.4992 161.833 59.4992C161.399 59.4992 161.046 59.8522 161.046 60.2876C161.046 60.7231 161.399 61.0761 161.833 61.0761Z" fill="#516678"/>
<path fill-rule="evenodd" clip-rule="evenodd" d="M150.619 17.8569C151.941 17.8569 153.012 16.7839 153.012 15.4601C153.012 14.1364 151.941 13.0634 150.619 13.0634C149.298 13.0634 148.226 14.1364 148.226 15.4601C148.226 16.7839 149.298 17.8569 150.619 17.8569ZM150.588 16.2168C151.023 16.2168 151.375 15.8638 151.375 15.4284C151.375 14.9929 151.023 14.6399 150.588 14.6399C150.153 14.6399 149.801 14.9929 149.801 15.4284C149.801 15.8638 150.153 16.2168 150.588 16.2168Z" fill="#516678"/>
<path d="M52.3177 58.6496V52.5704C52.3177 51.1351 53.6686 50.0374 54.5974 50.0374H81.1937C82.7979 50.0374 83.2201 48.9398 83.2201 48.011C83.1525 46.3899 82.4602 46.0691 81.1937 46.0691H54.5974C50.3757 46.0691 48.2649 50.0374 48.2649 51.9794V58.6496C48.2649 59.1562 48.7648 60.3382 50.1224 60.3382C51.3889 60.3382 52.3177 59.2406 52.3177 58.6496Z" fill="#516678"/>
<path d="M87.3573 45.6469V51.7261C87.3573 53.1614 86.0064 54.2591 85.0776 54.2591H58.4813C56.8771 54.2591 56.4549 55.3567 56.4549 56.2855C56.5225 57.9066 57.2148 58.2274 58.4813 58.2274H85.0776C89.2993 58.2274 91.4101 54.2591 91.4101 52.3171V45.6469C91.4101 45.1403 90.9102 43.9583 89.5526 43.9583C88.2861 43.9583 87.3573 45.0559 87.3573 45.6469Z" fill="#516678"/>
<path fill-rule="evenodd" clip-rule="evenodd" d="M52.3177 142.914C55.815 142.914 58.6502 140.078 58.6502 136.581C58.6502 133.084 55.815 130.249 52.3177 130.249C48.8204 130.249 45.9852 133.084 45.9852 136.581C45.9852 140.078 48.8204 142.914 52.3177 142.914ZM52.3177 138.692C53.4835 138.692 54.4285 137.747 54.4285 136.581C54.4285 135.415 53.4835 134.47 52.3177 134.47C51.1519 134.47 50.2069 135.415 50.2069 136.581C50.2069 137.747 51.1519 138.692 52.3177 138.692Z" fill="#516678"/>
<path fill-rule="evenodd" clip-rule="evenodd" d="M35.9377 142.914C39.435 142.914 42.2701 140.078 42.2701 136.581C42.2701 133.084 39.435 130.249 35.9377 130.249C32.4404 130.249 29.6052 133.084 29.6052 136.581C29.6052 140.078 32.4404 142.914 35.9377 142.914ZM35.9377 138.692C37.1035 138.692 38.0485 137.747 38.0485 136.581C38.0485 135.415 37.1035 134.47 35.9377 134.47C34.7719 134.47 33.8269 135.415 33.8269 136.581C33.8269 137.747 34.7719 138.692 35.9377 138.692Z" fill="#20A2DC"/>
<path fill-rule="evenodd" clip-rule="evenodd" d="M126.534 156.423V123.916C126.534 122.987 127.125 122.143 128.561 122.143H142.999C143.843 122.143 144.94 122.565 144.94 124.085V156.423H142.661V124.507H128.814V156.423H126.534Z" fill="#516678"/>
<path d="M130.671 126.979C130.671 126.157 131.29 125.889 131.536 125.858H139.971C140.207 125.936 140.803 126.269 140.803 126.979C140.803 127.689 140.207 127.991 139.971 128.053H131.536C131.29 128.038 130.671 127.801 130.671 126.979Z" fill="#516678"/>
<path d="M130.671 134.747C130.671 133.925 131.29 133.657 131.536 133.626H139.971C140.207 133.704 140.803 134.037 140.803 134.747C140.803 135.457 140.207 135.759 139.971 135.821H131.536C131.29 135.806 130.671 135.569 130.671 134.747Z" fill="#516678"/>
<path d="M130.671 142.515C130.671 141.693 131.29 141.425 131.536 141.394H139.971C140.207 141.472 140.803 141.805 140.803 142.515C140.803 143.225 140.207 143.527 139.971 143.589H131.536C131.29 143.573 130.671 143.337 130.671 142.515Z" fill="#516678"/>
<path d="M130.671 150.283C130.671 149.461 131.29 149.193 131.536 149.162H139.971C140.207 149.239 140.803 149.573 140.803 150.283C140.803 150.993 140.207 151.295 139.971 151.357H131.536C131.29 151.341 130.671 151.105 130.671 150.283Z" fill="#516678"/>
<path d="M130.671 130.863C130.671 130.041 131.29 129.773 131.536 129.742H139.971C140.207 129.82 140.803 130.153 140.803 130.863C140.803 131.573 140.207 131.875 139.971 131.937H131.536C131.29 131.922 130.671 131.685 130.671 130.863Z" fill="#20A2DC"/>
<path d="M130.671 138.631C130.671 137.809 131.29 137.541 131.536 137.51H139.971C140.207 137.588 140.803 137.921 140.803 138.631C140.803 139.341 140.207 139.643 139.971 139.705H131.536C131.29 139.69 130.671 139.453 130.671 138.631Z" fill="#20A2DC"/>
<path d="M130.671 146.399C130.671 145.577 131.29 145.309 131.536 145.278H139.971C140.207 145.356 140.803 145.689 140.803 146.399C140.803 147.109 140.207 147.411 139.971 147.473H131.536C131.29 147.457 130.671 147.221 130.671 146.399Z" fill="#20A2DC"/>
<path d="M130.671 154.167C130.671 153.344 131.29 153.077 131.536 153.046H139.971C140.207 153.123 140.803 153.457 140.803 154.167C140.803 154.876 140.207 155.179 139.971 155.241H131.536C131.29 155.225 130.671 154.989 130.671 154.167Z" fill="#20A2DC"/>
<path fill-rule="evenodd" clip-rule="evenodd" d="M68.782 92.5916V156.423L73.0037 156.423V118.09H149.331V156.423L153.215 156.423V114.882C153.215 114.341 153.102 113.981 153.046 113.869L125.521 90.5652C123.663 89.1298 122.481 91.1562 122.481 91.9161V111.589L98.9245 91.7472C97.1514 90.2274 95.6316 92.1694 95.6316 93.267V111.42L72.1593 90.6496C70.2173 89.1298 68.6976 91.3251 68.782 92.5916ZM73.0037 113.869V96.8132L92.2543 113.869H73.0037ZM99.6844 97.6576V113.869H118.935L99.6844 97.6576ZM126.534 113.869V96.6443L146.798 113.869H126.534Z" fill="#516678"/>
<path d="M54.7662 74.7762H43.6211L42.8612 78.9135H55.4417L54.7662 74.7762Z" fill="#20A2DC"/>
<path fill-rule="evenodd" clip-rule="evenodd" d="M33.9958 156.761V150.597C29.7741 150.597 21.4154 146.375 21.4153 136.581C21.4153 126.196 30.1118 122.228 34.8402 122.228H36.9509L41.0037 66.924C40.9474 66.136 41.3076 64.543 43.1989 64.4755H55.3573C56.1171 64.4755 57.6201 64.9652 57.5525 66.924L61.5209 122.228H64.6449V126.196H35.6C32.3071 126.196 25.5525 128.813 25.5525 136.581C25.5525 143.336 31.4628 146.797 34.8402 146.797H64.6449V150.85H37.9642V156.761H33.9958ZM44.972 68.6971H53.4997L57.2992 122.143H41.257L44.972 68.6971Z" fill="#516678"/>
<path fill-rule="evenodd" clip-rule="evenodd" d="M77.1409 124.085C77.1409 123.241 77.3773 122.143 78.9984 122.143H87.7794C88.5393 122.143 89.3836 122.819 89.3836 124.085V134.724C89.3836 135.315 89.0459 136.497 87.7794 136.497H78.9984C78.2385 136.497 77.1409 135.99 77.1409 134.808V124.085ZM87.4418 124.001H79.1674V134.808H87.4418V124.001Z" fill="#20A2DC"/>
<path fill-rule="evenodd" clip-rule="evenodd" d="M93.6053 124.085C93.6053 123.241 93.8417 122.143 95.4628 122.143H104.244C105.004 122.143 105.848 122.819 105.848 124.085V134.724C105.848 135.315 105.51 136.497 104.244 136.497H95.4628C94.7029 136.497 93.6053 135.99 93.6053 134.808V124.085ZM103.822 123.832H95.5473V134.639H103.822V123.832Z" fill="#516678"/>
<path fill-rule="evenodd" clip-rule="evenodd" d="M110.154 124.085C110.154 123.241 110.391 122.143 112.012 122.143H120.793C121.553 122.143 122.397 122.819 122.397 124.085V134.724C122.397 135.315 122.059 136.497 120.793 136.497H112.012C111.252 136.497 110.154 135.99 110.154 134.808V124.085ZM120.371 123.832H112.096V134.639H120.371V123.832Z" fill="#20A2DC"/>
<path fill-rule="evenodd" clip-rule="evenodd" d="M113.192 33.4996C114.046 33.8979 115.358 34.1835 115.646 32.646C115.819 31.7246 117.46 28.6982 120.127 28.5916H128.663C130.69 28.5916 132.954 31.0276 133.037 32.1125C133.121 33.1974 133.784 34.5879 135.918 33.3929C136.871 32.8594 139.973 32.4326 141.36 33.713L147.868 40.2214C148.508 40.8616 149.348 44.1881 148.295 45.6629C147.719 46.4698 147.335 47.6901 149.469 48.437C150.536 48.8638 152.99 50.5709 152.99 52.8115V60.6004C152.99 61.774 151.389 65.4017 149.575 65.7218C148.295 66.0419 147.015 66.7887 148.295 69.2427C148.722 69.8829 149.149 72.5503 147.975 73.724L141.466 80.4458C140.293 81.6195 137.412 81.9396 135.705 80.7659C135.065 80.4103 133.678 80.083 133.251 81.6195C132.717 83.54 130.157 85.7806 128.343 85.7806H120.767C119.274 85.7806 116.219 84.0735 115.859 82.3663C115.478 80.5525 113.939 80.1257 112.765 80.7659C111.705 81.3439 109.564 81.6195 107.964 80.5525C105.83 79.0588 101.86 75.2681 101.029 73.9374C99.9617 72.2302 99.6045 69.9896 100.709 68.1758C101.553 66.7887 100.602 66.2873 99.4282 65.9352C98.2545 65.5831 95.8005 63.2678 95.8005 61.2405V53.2383C95.8005 51.6379 97.401 48.8638 100.175 48.1169C100.78 47.9391 101.754 47.2847 100.815 46.0897C100.709 45.983 99.0014 43.1022 100.815 40.6482C102.665 38.4432 106.47 34.3531 107.537 33.713C108.711 33.0088 110.631 32.3046 113.192 33.4996ZM119.813 35.1772V32.3034C119.813 31.8244 119.98 31.1059 121.13 31.1059H127.596C128.273 31.1059 128.793 31.4019 128.793 32.3034V35.1772C130.709 35.4167 134.972 36.4226 136.697 38.5301L138.972 36.2549C139.571 35.6562 140.05 35.776 140.888 36.6142L145.199 40.925C145.658 41.3843 146.156 42.1224 145.199 42.9607L143.163 44.8766C144.241 46.1938 146.396 49.5945 146.396 52.66H149.39C149.869 52.66 150.707 52.7079 150.707 53.8574V60.2039C150.707 60.8026 150.467 61.7606 149.39 61.7606H146.396C145.957 63.8362 144.48 68.2987 143.043 69.544L145.318 71.6994C145.678 72.0587 145.797 72.7771 145.079 73.6153L140.528 78.1656C140.169 78.5249 139.451 78.7644 138.852 78.1656L136.697 75.8905C135.459 76.8484 132.17 78.8362 128.913 79.1236V82.1172C128.913 82.5962 128.674 83.3147 127.596 83.3147H120.771C120.411 83.3147 119.813 83.0033 119.813 82.237V79.1236C118.056 78.8841 114.041 77.9022 112.029 75.8905L109.874 78.0459C109.395 78.5249 108.437 78.4051 107.838 77.8064L103.527 73.4956C103.168 73.1364 102.809 72.1784 103.408 71.4599L105.563 69.544C104.605 68.1869 102.617 64.7303 102.33 61.7606H99.3363C98.7375 61.7606 98.0191 61.2816 98.0191 60.3237V53.7377C98.0191 53.139 98.498 52.5402 99.456 52.5402L102.33 52.66C102.649 50.9037 103.719 46.8883 105.443 44.8766L103.408 42.7212C103.048 42.3619 102.809 41.7632 103.647 40.925L107.958 36.4944C108.317 36.1352 109.275 35.6562 110.113 36.4944L112.029 38.4103C113.386 37.4125 116.843 35.3688 119.813 35.1772Z" fill="#516678"/>
<path fill-rule="evenodd" clip-rule="evenodd" d="M124.349 65.3169C128.773 65.3169 132.359 61.7305 132.359 57.3063C132.359 52.8822 128.773 49.2958 124.349 49.2958C119.924 49.2958 116.338 52.8822 116.338 57.3063C116.338 61.7305 119.924 65.3169 124.349 65.3169ZM124.349 63.8604C127.968 63.8604 130.903 60.9261 130.903 57.3063C130.903 53.6866 127.968 50.7522 124.349 50.7522C120.729 50.7522 117.794 53.6866 117.794 57.3063C117.794 60.9261 120.729 63.8604 124.349 63.8604Z" fill="#516678"/>
<path fill-rule="evenodd" clip-rule="evenodd" d="M124.346 73.4062C133.331 73.4062 140.615 66.1222 140.615 57.1369C140.615 48.1516 133.331 40.8676 124.346 40.8676C115.36 40.8676 108.076 48.1516 108.076 57.1369C108.076 66.1222 115.36 73.4062 124.346 73.4062ZM124.346 70.4481C131.697 70.4481 137.657 64.4885 137.657 57.1369C137.657 49.7852 131.697 43.8256 124.346 43.8256C116.994 43.8256 111.035 49.7852 111.035 57.1369C111.035 64.4885 116.994 70.4481 124.346 70.4481Z" fill="#20A2DC"/>
<path fill-rule="evenodd" clip-rule="evenodd" d="M94.2594 149.873C94.0626 150.031 93.6135 150.361 93.3917 150.415L94.9585 150.429V149.941H95.5369V150.434L95.9346 150.437C96.6216 150.543 98.0388 151.173 98.2124 152.852V156.619H98.7909V152.852C98.7547 151.994 98.1112 150.198 95.8262 149.873H94.2594Z" fill="#516678"/>
<path fill-rule="evenodd" clip-rule="evenodd" d="M87.7515 149.862C87.9484 150.02 88.3975 150.349 88.6192 150.404L87.0284 150.418V149.941H86.45V150.423L86.0763 150.426C85.3894 150.531 83.9721 151.162 83.7986 152.841V156.608H83.2201V152.841C83.2562 151.983 83.8998 150.187 86.1848 149.862H87.7515Z" fill="#516678"/>
<path d="M86.0282 143.724H86.6067C86.8188 141.106 89.0411 140.076 90.1258 139.888H91.8733C94.5728 140.429 95.3682 142.671 95.4285 143.724H95.9588C95.8382 140.835 93.211 139.515 91.8733 139.346H90.2101C88.4265 139.481 86.1005 141.185 86.0282 143.724Z" fill="#516678"/>
<path d="M86.45 146.274V145.191H87.0285V146.274C87.0285 147.312 88.0047 149.862 91.0537 149.862C93.9702 149.862 94.9705 147.334 94.9705 146.274V145.191H95.549V146.274C95.5972 147.955 93.9823 150.403 91.0537 150.403C87.6672 150.403 86.45 147.571 86.45 146.274Z" fill="#516678"/>
<path fill-rule="evenodd" clip-rule="evenodd" d="M90.1436 139.312V141.648C90.1436 141.806 90.2882 142.156 90.6377 142.156H91.3488C91.5416 142.156 91.8911 142.031 91.8911 141.648V139.38C91.8911 139.199 91.7585 138.861 91.3488 138.861H90.6377C90.469 138.861 90.1436 139.008 90.1436 139.312ZM90.7222 139.425H91.3006V141.614H90.7222V139.425Z" fill="#516678"/>
<path fill-rule="evenodd" clip-rule="evenodd" d="M94.38 149.828V152.164V152.626H87.619V152.164V149.896C87.619 149.715 87.4864 149.377 87.0767 149.377H86.3656C86.1969 149.377 85.8715 149.523 85.8715 149.828V156.338H96.1275V152.164V149.896C96.1275 149.715 95.9949 149.377 95.5852 149.377H94.8741C94.7054 149.377 94.38 149.523 94.38 149.828ZM86.462 153.179V155.799H95.549V153.179H86.462ZM95.5369 149.941H94.9585V152.13H95.5369V149.941ZM86.45 149.941H87.0285V152.13H86.45V149.941Z" fill="#516678"/>
<path fill-rule="evenodd" clip-rule="evenodd" d="M86.0643 145.326H95.9105C96.0792 145.326 96.4528 145.191 96.4528 144.863V144.198C96.4528 144.017 96.3202 143.69 95.9105 143.69H86.1366C85.9438 143.69 85.5822 143.814 85.5822 144.198V144.863C85.5822 145.021 85.7389 145.326 86.0643 145.326ZM86.1848 144.773V144.232H95.8743V144.773H86.1848Z" fill="#516678"/>
<circle cx="90.9879" cy="141.563" r="1.01319" fill="#516678"/>
<circle cx="90.9879" cy="141.563" r="0.675462" fill="#20A2DC"/>
<path fill-rule="evenodd" clip-rule="evenodd" d="M113.208 149.873C113.011 150.031 112.562 150.361 112.34 150.415L113.907 150.429V149.941H114.485V150.434L114.883 150.437C115.57 150.543 116.987 151.173 117.161 152.852V156.619H117.739V152.852C117.703 151.994 117.059 150.198 114.774 149.873H113.208Z" fill="#516678"/>
<path fill-rule="evenodd" clip-rule="evenodd" d="M106.7 149.862C106.897 150.02 107.346 150.349 107.567 150.404L105.977 150.418V149.941H105.398V150.423L105.025 150.426C104.338 150.531 102.92 151.162 102.747 152.841V156.608H102.168V152.841C102.204 151.983 102.848 150.187 105.133 149.862H106.7Z" fill="#516678"/>
<path d="M104.976 143.724H105.555C105.767 141.106 107.989 140.076 109.074 139.888H110.821C113.521 140.429 114.316 142.671 114.377 143.724H114.907C114.786 140.835 112.159 139.515 110.821 139.346H109.158C107.375 139.481 105.049 141.185 104.976 143.724Z" fill="#516678"/>
<path d="M105.398 146.274V145.191H105.977V146.274C105.977 147.312 106.953 149.862 110.002 149.862C112.918 149.862 113.919 147.334 113.919 146.274V145.191H114.497V146.274C114.545 147.955 112.93 150.403 110.002 150.403C106.615 150.403 105.398 147.571 105.398 146.274Z" fill="#516678"/>
<path fill-rule="evenodd" clip-rule="evenodd" d="M109.057 139.312V141.648C109.057 141.806 109.201 142.156 109.551 142.156H110.262C110.455 142.156 110.804 142.031 110.804 141.648V139.38C110.804 139.199 110.672 138.861 110.262 138.861H109.551C109.382 138.861 109.057 139.008 109.057 139.312ZM109.635 139.425H110.214V141.614H109.635V139.425Z" fill="#516678"/>
<path fill-rule="evenodd" clip-rule="evenodd" d="M113.328 149.828V152.164V152.626H106.567V152.164V149.896C106.567 149.715 106.435 149.377 106.025 149.377H105.314C105.145 149.377 104.82 149.523 104.82 149.828V156.338H115.076V152.164V149.896C115.076 149.715 114.943 149.377 114.533 149.377H113.822C113.653 149.377 113.328 149.523 113.328 149.828ZM105.41 153.179V155.799H114.497V153.179H105.41ZM114.485 149.941H113.907V152.13H114.485V149.941ZM105.398 149.941H105.976V152.13H105.398V149.941Z" fill="#516678"/>
<path fill-rule="evenodd" clip-rule="evenodd" d="M105.012 145.326H114.859C115.027 145.326 115.401 145.191 115.401 144.863V144.198C115.401 144.017 115.268 143.69 114.859 143.69H105.085C104.892 143.69 104.53 143.814 104.53 144.198V144.863C104.53 145.021 104.687 145.326 105.012 145.326ZM105.133 144.773V144.232H114.822V144.773H105.133Z" fill="#516678"/>
<circle cx="109.901" cy="141.732" r="1.01319" fill="#516678"/>
<circle cx="109.901" cy="141.732" r="0.675462" fill="#20A2DC"/>
<rect x="15.912" y="156.268" width="143.033" height="4.26364" rx="2.13182" fill="#516678"/>
<rect x="161.158" y="156.268" width="7.15163" height="4.26364" rx="2.13182" fill="#20A2DC"/>
<rect x="6.71698" y="156.268" width="7.15163" height="4.26364" rx="2.13182" fill="#20A2DC"/>
<rect x="64.4409" y="164.454" width="45.6342" height="4.26364" rx="2.13182" fill="#20A2DC"/>
<rect x="72.7845" y="170.764" width="30.139" height="4.26364" rx="2.13182" fill="#20A2DC"/>
<rect x="83.1713" y="167.353" width="8.68413" height="4.26364" fill="#20A2DC"/>
<rect x="112.118" y="164.454" width="12.6005" height="4.26364" rx="2.13182" fill="#20A2DC"/>
<rect x="49.7971" y="164.454" width="12.6005" height="4.26364" rx="2.13182" fill="#20A2DC"/>
<rect x="170.353" y="156.268" width="4.25692" height="4.26364" rx="2.12846" fill="#20A2DC"/>
<rect x="0.24646" y="156.268" width="4.25692" height="4.26364" rx="2.12846" fill="#20A2DC"/>
</svg>
