<svg width="175" height="175" viewBox="0 0 175 175" fill="none" xmlns="http://www.w3.org/2000/svg">
<path fill-rule="evenodd" clip-rule="evenodd" d="M33.6572 30.9275C33.6572 28.6815 35.0561 24.2759 39.9632 24.2759C44.8872 24.2759 46.2693 28.6815 46.2693 30.9275V39.5659C46.2693 41.6391 44.8008 45.44 39.9632 45.44C35.2619 45.44 33.6572 41.38 33.6572 39.5659V30.9275ZM37.9764 30.4092C37.9764 29.7181 38.5811 28.5087 40.0497 28.5087C41.4318 28.5087 42.0365 29.7181 42.0365 30.4092V39.3068C42.0365 39.9979 41.3454 41.2072 40.0497 41.2072C38.5811 41.2072 37.9764 39.9979 37.9764 39.4796V30.4092Z" fill="#20A2DC"/>
<path fill-rule="evenodd" clip-rule="evenodd" d="M65.2739 30.841C65.274 28.595 66.6729 24.1894 71.58 24.1895C76.5039 24.1895 77.886 28.595 77.886 30.841V39.4795C77.886 41.5527 76.4175 45.3536 71.58 45.3536C66.8786 45.3536 65.2739 41.2936 65.2739 39.4795V30.841ZM69.5932 30.3228C69.5932 29.6317 70.1979 28.4223 71.6664 28.4223C73.0486 28.4223 73.6533 29.6317 73.6533 30.3228V39.2204C73.6533 39.9114 72.9622 41.1208 71.6664 41.1208C70.1979 41.1208 69.5932 39.9114 69.5932 39.3931V30.3228Z" fill="#20A2DC"/>
<path fill-rule="evenodd" clip-rule="evenodd" d="M96.8905 30.841C96.8905 28.595 98.2894 24.1894 103.197 24.1895C108.121 24.1895 109.503 28.595 109.503 30.841V39.4795C109.503 41.5527 108.034 45.3536 103.197 45.3536C98.4952 45.3536 96.8905 41.2936 96.8905 39.4795V30.841ZM101.21 30.3228C101.21 29.6317 101.814 28.4223 103.283 28.4223C104.665 28.4223 105.27 29.6317 105.27 30.3228V39.2204C105.27 39.9114 104.579 41.1208 103.283 41.1208C101.814 41.1208 101.21 39.9114 101.21 39.3931V30.3228Z" fill="#20A2DC"/>
<path fill-rule="evenodd" clip-rule="evenodd" d="M128.507 30.841C128.507 28.595 129.906 24.1894 134.813 24.1895C139.737 24.1895 141.119 28.595 141.119 30.841V39.4795C141.119 41.5527 139.651 45.3536 134.813 45.3536C130.112 45.3536 128.507 41.2936 128.507 39.4795V30.841ZM132.826 30.3228C132.826 29.6317 133.431 28.4223 134.9 28.4223C136.282 28.4223 136.887 29.6317 136.887 30.3228V39.2204C136.887 39.9114 136.195 41.1208 134.9 41.1208C133.431 41.1208 132.826 39.9114 132.826 39.3931V30.3228Z" fill="#20A2DC"/>
<path d="M61.2139 32.655H50.5022V36.9742H61.2139V32.655Z" fill="#516678"/>
<path d="M92.7441 32.655H82.0325V36.9742H92.7441V32.655Z" fill="#516678"/>
<path d="M124.361 32.655H113.649V36.9742H124.361V32.655Z" fill="#516678"/>
<path fill-rule="evenodd" clip-rule="evenodd" d="M65.0377 77.9204H71.8156C74.0749 77.9204 75.8128 79.4753 75.8128 81.6349V88.9776C75.8128 90.3598 74.2487 92.6057 71.8156 92.6057H65.3853C63.6474 92.6057 61.1274 91.31 61.1274 88.9776V81.6349C61.1275 80.4256 62.2572 77.9204 65.0377 77.9204ZM65.2739 82.1531V88.3728H71.4936V82.1531H65.2739Z" fill="#516678"/>
<path fill-rule="evenodd" clip-rule="evenodd" d="M84.0423 78.0933H90.8201C93.0794 78.0933 94.8173 79.6482 94.8173 81.8078V89.1505C94.8173 90.5326 93.2532 92.7786 90.8201 92.7786H84.3898C82.6519 92.7786 80.132 91.4828 80.132 89.1505V81.8078C80.132 80.5984 81.2617 78.0933 84.0423 78.0933ZM84.2785 82.326V88.5457H90.4981V82.326H84.2785Z" fill="#20A2DC"/>
<path fill-rule="evenodd" clip-rule="evenodd" d="M109.825 78.0933H103.047C100.266 78.0933 99.1366 80.5984 99.1365 81.8078V89.1505C99.1365 90.7033 100.253 91.7966 101.513 92.354C103.723 90.7638 105.575 89.4491 106.251 89.0146C106.664 88.7489 107.11 88.6008 107.559 88.5457H103.283V82.326H109.503V88.5457H108.405C109.958 88.7274 111.343 89.8587 111.343 90.8743V92.4662C112.889 91.801 113.822 90.218 113.822 89.1505V81.8078C113.822 79.6482 112.084 78.0933 109.825 78.0933Z" fill="#516678"/>
<path fill-rule="evenodd" clip-rule="evenodd" d="M122.051 78.0933H128.829C131.089 78.0933 132.826 79.6482 132.826 81.8078V89.1505C132.826 90.5326 131.262 92.7786 128.829 92.7786H122.399C120.661 92.7786 118.141 91.4828 118.141 89.1505V81.8078C118.141 80.5984 119.271 78.0933 122.051 78.0933ZM122.288 82.326V88.5457H128.507V82.326H122.288Z" fill="#20A2DC"/>
<path fill-rule="evenodd" clip-rule="evenodd" d="M46.0331 78.0068H52.8109C55.0702 78.0068 56.8081 79.5618 56.8081 81.7214V89.064C56.8081 90.4462 55.244 92.6922 52.8109 92.6922H46.3807C44.6428 92.6922 42.1228 91.3964 42.1228 89.064V81.7214C42.1229 80.512 43.2525 78.0068 46.0331 78.0068ZM46.2693 82.2396V88.4593H52.489V82.2396H46.2693Z" fill="#20A2DC"/>
<path fill-rule="evenodd" clip-rule="evenodd" d="M128.657 97.2705H121.879C119.098 97.2705 117.969 99.7757 117.969 100.985V108.328C117.969 110.66 120.488 111.956 122.226 111.956H128.657C131.09 111.956 132.654 109.71 132.654 108.328V100.985C132.654 98.8254 130.916 97.2705 128.657 97.2705ZM122.115 101.503V107.723H128.335V101.503H122.115Z" fill="#516678"/>
<path fill-rule="evenodd" clip-rule="evenodd" d="M111.343 97.5913V111.564C112.785 110.859 113.649 109.355 113.649 108.328V100.985C113.649 99.408 112.722 98.1534 111.343 97.5913Z" fill="#20A2DC"/>
<path fill-rule="evenodd" clip-rule="evenodd" d="M90.4185 100.418C90.4185 100.418 91.7158 99.468 93.574 98.1128C92.8504 97.377 91.7969 96.9377 90.5961 96.9377H83.8183C81.2069 96.9377 80.0516 99.1473 79.9207 100.418H90.4185Z" fill="#516678"/>
<path fill-rule="evenodd" clip-rule="evenodd" d="M60.9888 100.418H75.6205C75.4228 98.466 73.7623 97.0979 71.643 97.0979H64.8652C62.3604 97.0979 61.1953 99.1307 60.9888 100.418Z" fill="#20A2DC"/>
<path fill-rule="evenodd" clip-rule="evenodd" d="M41.9992 100.418H56.6061C56.3688 98.5122 54.7262 97.1843 52.6384 97.1843H45.8605C43.4111 97.1843 42.2428 99.1283 41.9992 100.418Z" fill="#516678"/>
<path d="M25.7133 32.655H29.5108V36.9742H26.4874C24.8461 36.9742 24.072 38.27 24.072 39.2202V54.7694H150.625V38.7019C150.449 37.2334 149.931 36.9742 148.462 36.9742H145.266V32.655H148.894C153.559 32.655 154.772 36.8879 154.772 38.7019V128.887C154.702 133.172 150.827 134.704 148.897 134.934H110.654V130.615H148.376C150.103 130.615 150.596 129.319 150.625 128.628V59.0886H24.155V128.801C24.155 130.183 25.278 130.615 26.1418 130.615H29.717V134.761H25.278C21.4769 134.761 19.9256 130.788 20.012 128.801V38.7019C20.012 34.2099 23.8129 32.655 25.7133 32.655Z" fill="#516678"/>
<path fill-rule="evenodd" clip-rule="evenodd" d="M33.7436 100.418H37.89V77.9205C37.89 75.1562 40.2224 73.8605 43.0731 73.8605H132.567C136.023 73.8605 136.973 76.5384 136.973 78.2661V111.61C136.973 115.152 134.036 115.93 132.567 115.93H111.343V120.162H132.481C139.132 120.162 141.033 114.202 141.033 111.61V77.6614C141.033 71.8736 135.418 69.5413 132.222 69.5413H42.2956C35.644 69.5413 33.7436 75.6745 33.7436 77.9205V100.418Z" fill="#516678"/>
<path fill-rule="evenodd" clip-rule="evenodd" d="M107.153 97.0457V147.518C107.153 149.08 105.334 150.784 102.606 150.784H36.3809C35.017 150.784 33.0469 149.648 33.0469 147.518V109.32C33.0469 107.616 34.1077 105.628 37.1386 105.628H88.3172C88.3172 105.628 100.659 96.5997 102.569 95.3733C104.479 94.1469 107.153 95.7078 107.153 97.0457ZM90.0904 111.205L101.423 103.066V144.095C101.423 145.321 99.8947 146.659 97.6028 146.659H41.9599C40.8139 146.659 39.1587 145.767 39.1587 144.095V114.104C39.1587 112.766 40.05 111.205 42.5965 111.205H90.0904Z" fill="#516678"/>
<path d="M82.8812 124.718C81.5912 124.667 81.3848 126.085 81.6945 126.524C82.9328 128.278 82.2104 129.207 81.5397 130.136C80.7657 131.374 82.2818 132.561 83.294 131.787C84.9966 130.485 84.9966 128.846 84.945 127.762C84.687 125.544 83.5519 124.745 82.8812 124.718Z" fill="#516678"/>
<path d="M85.6674 132.664C89.0109 128.743 87.1637 125.148 85.7706 123.738C85.4442 123.408 85.4914 122.846 85.5642 122.603C85.9512 121.313 87.1637 121.574 87.4733 121.829C88.3504 122.551 90.0944 124.822 90.0531 128.124C90.0119 131.426 88.316 133.765 87.4733 134.522C86.5445 135.347 85.6674 135.244 85.203 134.419C84.7676 133.645 85.3595 133.025 85.6674 132.664Z" fill="#20A2DC"/>
<path d="M89.3306 136.431C95.2333 129.95 92.0996 122.998 89.795 120.332C89.1242 118.785 90.7753 118.269 91.5493 118.785C98.102 126.369 94.3871 134.78 91.3429 138.03C90.9301 138.391 90.4657 138.305 90.2594 138.288C89.021 138.133 88.9694 136.827 89.3306 136.431Z" fill="#516678"/>
<path d="M57.5904 124.774C58.8803 124.722 59.0867 126.141 58.7771 126.58C57.5387 128.334 58.2612 129.263 58.9319 130.192C59.7059 131.43 58.1898 132.617 57.1776 131.843C55.4749 130.541 55.4749 128.902 55.5265 127.818C55.7845 125.6 56.9196 124.801 57.5904 124.774Z" fill="#516678"/>
<path d="M54.8042 132.72C51.4607 128.798 53.3078 125.204 54.701 123.793C55.0274 123.463 54.9801 122.901 54.9073 122.658C54.5203 121.368 53.3078 121.629 52.9983 121.884C52.1211 122.607 50.3771 124.877 50.4184 128.179C50.4597 131.481 52.1555 133.82 52.9983 134.577C53.927 135.403 54.8041 135.3 55.2685 134.474C55.7039 133.7 55.1121 133.081 54.8042 132.72Z" fill="#20A2DC"/>
<path d="M51.1408 136.486C45.2382 130.006 48.3718 123.054 50.6765 120.388C51.3472 118.84 49.6961 118.324 48.9222 118.84C42.3694 126.425 46.0844 134.835 49.1286 138.086C49.5413 138.447 50.0057 138.361 50.2121 138.344C51.4504 138.189 51.502 136.883 51.1408 136.486Z" fill="#516678"/>
<path d="M70.3039 132.611C68.1472 132.611 67.2229 131.18 67.2229 130.107V117.743C67.2229 116.55 68.2499 115.387 70.3039 115.387C72.3579 115.387 73.3849 116.908 73.3849 117.743V130.107C73.3849 131.061 72.4606 132.611 70.3039 132.611Z" fill="#20A2DC"/>
<circle cx="70.3039" cy="138.579" r="3.08099" fill="#20A2DC"/>
</svg>
