<svg width="175" height="179" viewBox="0 0 175 179" fill="none" xmlns="http://www.w3.org/2000/svg">
<path d="M54.9831 39.1902L53.8459 39.7597L55.457 41.848H52.9929V42.8922L55.457 42.4175L53.8459 44.7906L54.9831 45.3601L55.9309 42.8922L57.0681 45.3601L58.2054 44.6008L56.5943 42.4175L59.2479 42.8922V41.848H56.5943L58.2054 39.7597L57.3525 39.1902L55.9309 41.4683L54.9831 39.1902Z" fill="#20A2DC"/>
<path d="M25.8987 24.4014L24.7614 24.9709L26.3725 27.0592H23.9084V28.1033L26.3725 27.6287L24.7614 30.0018L25.8987 30.5713L26.8464 28.1033L27.9837 30.5713L29.1209 29.8119L27.5098 27.6287L30.1634 28.1033V27.0592H27.5098L29.1209 24.9709L28.268 24.4014L26.8464 26.6795L25.8987 24.4014Z" fill="#20A2DC"/>
<path d="M166.145 56.6902L165.008 57.2597L166.619 59.348H164.155V60.3922L166.619 59.9175L165.008 62.2906L166.145 62.8601L167.093 60.3922L168.23 62.8601L169.367 62.1008L167.756 59.9175L170.41 60.3922V59.348H167.756L169.367 57.2597L168.514 56.6902L167.093 58.9683L166.145 56.6902Z" fill="#20A2DC"/>
<path d="M120.957 15.9177L119.82 16.4873L121.431 18.5755H118.967V19.6197L121.431 19.1451L119.82 21.5181L120.957 22.0877L121.905 19.6197L123.042 22.0877L124.18 21.3283L122.569 19.1451L125.222 19.6197V18.5755H122.569L124.18 16.4873L123.327 15.9177L121.905 18.1959L120.957 15.9177Z" fill="#20A2DC"/>
<path d="M82.2121 0L81.6951 0.280386L82.4275 1.30847H81.3074V1.82251L82.4275 1.58885L81.6951 2.75713L82.2121 3.03751L82.6429 1.82251L83.1598 3.03751L83.6768 2.66367L82.9444 1.58885L84.1506 1.82251V1.30847H82.9444L83.6768 0.280386L83.289 0L82.6429 1.12154L82.2121 0Z" fill="#20A2DC"/>
<path fill-rule="evenodd" clip-rule="evenodd" d="M43.4365 16.1407C44.6927 16.1407 45.711 15.1208 45.711 13.8626C45.711 12.6044 44.6927 11.5845 43.4365 11.5845C42.1803 11.5845 41.1619 12.6044 41.1619 13.8626C41.1619 15.1208 42.1803 16.1407 43.4365 16.1407ZM43.4066 14.582C43.8198 14.582 44.1548 14.2465 44.1548 13.8326C44.1548 13.4188 43.8198 13.0832 43.4066 13.0832C42.9933 13.0832 42.6584 13.4188 42.6584 13.8326C42.6584 14.2465 42.9933 14.582 43.4066 14.582Z" fill="#516678"/>
<path fill-rule="evenodd" clip-rule="evenodd" d="M8.92945 61.9858C10.1856 61.9858 11.204 60.9659 11.204 59.7077C11.204 58.4495 10.1856 57.4296 8.92945 57.4296C7.67326 57.4296 6.65491 58.4495 6.65491 59.7077C6.65491 60.9659 7.67326 61.9858 8.92945 61.9858ZM8.8995 60.4271C9.31272 60.4271 9.6477 60.0916 9.6477 59.6777C9.6477 59.2639 9.31272 58.9283 8.8995 58.9283C8.48627 58.9283 8.15129 59.2639 8.15129 59.6777C8.15129 60.0916 8.48627 60.4271 8.8995 60.4271Z" fill="#516678"/>
<path fill-rule="evenodd" clip-rule="evenodd" d="M90.2747 26.7195C92.4878 26.7195 94.2818 24.9226 94.2818 22.7061C94.2818 20.4895 92.4878 18.6926 90.2747 18.6926C88.0616 18.6926 86.2676 20.4895 86.2676 22.7061C86.2676 24.9226 88.0616 26.7195 90.2747 26.7195ZM90.2219 23.9734C90.9499 23.9734 91.54 23.3823 91.54 22.6532C91.54 21.924 90.9499 21.333 90.2219 21.333C89.4939 21.333 88.9038 21.924 88.9038 22.6532C88.9038 23.3823 89.4939 23.9734 90.2219 23.9734Z" fill="#516678"/>
<path fill-rule="evenodd" clip-rule="evenodd" d="M142.886 52.364C144.208 52.364 145.279 51.2909 145.279 49.9672C145.279 48.6435 144.208 47.5704 142.886 47.5704C141.564 47.5704 140.493 48.6435 140.493 49.9672C140.493 51.2909 141.564 52.364 142.886 52.364ZM142.854 50.7239C143.289 50.7239 143.642 50.3709 143.642 49.9354C143.642 49.5 143.289 49.147 142.854 49.147C142.42 49.147 142.067 49.5 142.067 49.9354C142.067 50.3709 142.42 50.7239 142.854 50.7239Z" fill="#516678"/>
<path fill-rule="evenodd" clip-rule="evenodd" d="M158.33 32.3949C159.652 32.3949 160.723 31.3218 160.723 29.9981C160.723 28.6744 159.652 27.6013 158.33 27.6013C157.009 27.6013 155.937 28.6744 155.937 29.9981C155.937 31.3218 157.009 32.3949 158.33 32.3949ZM158.299 30.7547C158.733 30.7547 159.086 30.4018 159.086 29.9663C159.086 29.5309 158.733 29.1779 158.299 29.1779C157.864 29.1779 157.512 29.5309 157.512 29.9663C157.512 30.4018 157.864 30.7547 158.299 30.7547Z" fill="#516678"/>
<path d="M41.9344 62.2816L42.8586 58.0189H24.6534C19.4139 58.0189 17.9929 62.2816 17.9929 64.5018V136.08C17.9929 140.52 22.6996 142.296 25.0086 142.296H77.5819V147.003H81.8446V142.296H92.8565V147.003H97.1192V142.296H150.581C154.666 142.296 156.619 138.122 156.619 135.547V64.3242C156.619 59.8839 152.89 58.1077 149.692 58.1077H131.017L130.25 62.2816L150.048 62.3704C151.735 62.3704 152.268 63.6137 152.268 64.3242V135.547C152.268 137.678 150.936 138.122 149.87 138.122H24.4758C22.6996 138.122 22.3444 136.968 22.3444 136.08V64.5018C22.3444 62.9921 23.4101 62.2816 24.9198 62.2816H41.9344Z" fill="#516678"/>
<path d="M147.088 109.19H126.611C126.223 109.19 125.245 109.387 125.213 110.703C125.181 112.019 126.087 112.414 126.452 112.414H147.286C147.559 112.414 148.487 111.831 148.461 110.703C148.434 109.508 147.395 109.19 147.088 109.19Z" fill="#20A2DC"/>
<path d="M147.088 114.879H126.611C126.223 114.879 125.245 115.076 125.213 116.392C125.181 117.708 126.087 118.103 126.452 118.103H147.286C147.559 118.103 148.487 117.52 148.461 116.392C148.434 115.197 147.395 114.879 147.088 114.879Z" fill="#516678"/>
<path d="M147.123 120.568H139.144C138.757 120.568 137.778 120.765 137.746 122.081C137.715 123.397 138.62 123.792 138.986 123.792H147.321C147.594 123.792 148.522 123.209 148.497 122.081C148.469 120.886 147.431 120.568 147.123 120.568Z" fill="#20A2DC"/>
<path fill-rule="evenodd" clip-rule="evenodd" d="M28.2034 104.26H39.2283C39.6577 104.26 40.2918 104.819 40.2918 105.347V123.792C40.2918 124.394 39.7223 125.031 39.201 125.031H28.2034C27.9932 125.031 27.1126 124.802 27.1126 123.945V105.347C27.1126 104.975 27.6821 104.26 28.2034 104.26ZM38.6971 106.233H28.838V123.24H38.6971V106.233Z" fill="#516678"/>
<path d="M36.9419 107.465H30.5931C30.2123 107.465 29.5774 107.592 29.5774 108.608C29.5774 109.541 30.2123 109.751 30.5931 109.751H36.9419C37.3229 109.751 37.9577 109.37 37.9577 108.608C37.9577 107.76 37.3229 107.465 36.9419 107.465Z" fill="#20A2DC"/>
<path fill-rule="evenodd" clip-rule="evenodd" d="M33.7675 117.713C35.4219 117.713 36.7631 116.372 36.7631 114.718C36.7631 113.063 35.4219 111.722 33.7675 111.722C32.1131 111.722 30.772 113.063 30.772 114.718C30.772 116.372 32.1131 117.713 33.7675 117.713ZM33.7677 116.105C34.5336 116.105 35.1545 115.484 35.1545 114.718C35.1545 113.952 34.5336 113.331 33.7677 113.331C33.0017 113.331 32.3808 113.952 32.3808 114.718C32.3808 115.484 33.0017 116.105 33.7677 116.105Z" fill="#20A2DC"/>
<path d="M36.9419 119.685H30.5931C30.2123 119.685 29.5774 119.812 29.5774 120.828C29.5774 121.761 30.2123 121.971 30.5931 121.971H36.9419C37.3229 121.971 37.9577 121.59 37.9577 120.828C37.9577 119.98 37.3229 119.685 36.9419 119.685Z" fill="#20A2DC"/>
<path fill-rule="evenodd" clip-rule="evenodd" d="M141.921 103.914C143.527 103.914 144.829 102.612 144.829 101.006C144.829 99.4005 143.527 98.0988 141.921 98.0988C140.316 98.0988 139.014 99.4005 139.014 101.006C139.014 102.612 140.316 103.914 141.921 103.914ZM141.921 102.352C142.665 102.352 143.267 101.75 143.267 101.006C143.267 100.263 142.665 99.6602 141.921 99.6602C141.178 99.6602 140.575 100.263 140.575 101.006C140.575 101.75 141.178 102.352 141.921 102.352Z" fill="#20A2DC"/>
<path fill-rule="evenodd" clip-rule="evenodd" d="M136.161 95.3875H147.679C148.108 95.3875 148.496 96.0519 148.496 96.3415V105.754C148.496 106.085 148.173 106.792 147.652 106.792H136.161C135.705 106.792 135.317 106.173 135.317 105.838V96.3415C135.317 96.1377 135.64 95.3875 136.161 95.3875ZM147.204 96.6629H136.738V105.516H147.204V96.6629Z" fill="#516678"/>
<path d="M22.3444 133.771V129.508H152.268V133.771H22.3444Z" fill="#516678"/>
<path fill-rule="evenodd" clip-rule="evenodd" d="M69.6781 146.736H105.822C106.621 146.736 107.421 146.825 108.575 147.713L115.591 152.598H121.363C122.074 152.598 123.051 153.397 123.051 154.551V159.702V161.567H51.6505V159.702V154.551C51.6209 153.9 51.9347 152.598 53.4266 152.598H58.9326L65.593 147.98C65.6172 147.964 65.6426 147.946 65.6696 147.928C66.2375 147.546 67.4398 146.736 69.6781 146.736ZM55.9132 156.86V159.88H118.788V156.86H115.591C114.614 156.86 112.749 155.972 111.239 154.729L105.822 150.999H69.0565L63.3729 154.907C63.1155 155.09 62.8657 155.282 62.6204 155.47C61.6808 156.19 60.8065 156.86 59.8206 156.86H55.9132Z" fill="#516678"/>
<rect x="15.912" y="159.472" width="143.033" height="4.26364" rx="2.13182" fill="#516678"/>
<rect x="161.158" y="159.472" width="7.15163" height="4.26364" rx="2.13182" fill="#20A2DC"/>
<rect x="6.71698" y="159.472" width="7.15163" height="4.26364" rx="2.13182" fill="#20A2DC"/>
<rect x="64.4409" y="167.658" width="45.6342" height="4.26364" rx="2.13182" fill="#20A2DC"/>
<rect x="72.7845" y="173.968" width="30.139" height="4.26364" rx="2.13182" fill="#20A2DC"/>
<rect x="83.1713" y="170.557" width="8.68413" height="4.26364" fill="#20A2DC"/>
<rect x="112.118" y="167.658" width="12.6005" height="4.26364" rx="2.13182" fill="#20A2DC"/>
<rect x="49.7971" y="167.658" width="12.6005" height="4.26364" rx="2.13182" fill="#20A2DC"/>
<rect x="170.353" y="159.472" width="4.25692" height="4.26364" rx="2.12846" fill="#20A2DC"/>
<rect x="0.24646" y="159.472" width="4.25692" height="4.26364" rx="2.12846" fill="#20A2DC"/>
<path fill-rule="evenodd" clip-rule="evenodd" d="M60.5751 61.314C62.1942 61.314 63.9819 64.0462 64.8252 65.3617L66.1407 58.9865C64.2181 56.5579 61.7894 56.3892 60.5751 56.4567H53.188C46.9141 56.4567 45.5986 61.0104 45.5986 63.7426V117.678C45.6795 123.75 50.6919 125.403 53.188 125.47H111.981C116.838 125.632 119.132 120.95 119.672 118.589L128.476 88.2313C131.633 79.812 126.283 75.4135 123.214 74.2667L127.97 52.1054C128.941 44.7386 123.247 42.8969 120.279 42.8969H80.2065C76.2398 42.654 73.9663 47.1132 73.3254 49.3732L68.0634 73.6595H64.724C59.2596 73.6595 56.831 78.2132 56.1226 80.6418L50.4558 99.7673V63.7426C50.4558 62.0223 51.9737 61.314 53.188 61.314H60.5751ZM118.154 73.6596H73.123L77.9803 51.2959C78.4862 48.1589 79.397 47.8554 81.3196 47.8554H120.481C123.416 47.8554 123.416 49.9804 123.112 51.2959L118.154 73.6596ZM60.3728 83.5764C60.6426 81.9236 62.0323 78.618 65.4324 78.618H119.368C121.628 78.6517 125.723 80.0751 124.023 85.4991L114.815 117.577C114.789 117.661 114.763 117.747 114.738 117.833C114.361 119.093 113.938 120.512 111.475 120.512H53.0869C51.8051 120.579 49.5856 119.803 50.9618 116.161L60.3728 83.5764Z" fill="#20A2DC"/>
<path d="M113.758 54.0186H86.2183C85.4651 54.0186 84.5215 54.1806 84.4599 55.2612C84.3984 56.3417 85.2 56.6659 85.9107 56.6659H114.143C114.673 56.6659 115.519 56.1873 115.469 55.2612C115.416 54.2798 114.355 54.0186 113.758 54.0186Z" fill="#516678"/>
<path d="M112.139 59.7017H84.5993C83.846 59.7017 82.9024 59.8637 82.8409 60.9443C82.7793 62.0248 83.5809 62.349 84.2916 62.349H112.524C113.054 62.349 113.9 61.8704 113.85 60.9443C113.797 59.9629 112.736 59.7017 112.139 59.7017Z" fill="#516678"/>
<path d="M110.52 65.3848H82.9802C82.227 65.3848 81.2833 65.5468 81.2218 66.6274C81.1603 67.7079 81.9618 68.0321 82.6725 68.0321H110.905C111.435 68.0321 112.281 67.5535 112.231 66.6274C112.178 65.646 111.117 65.3848 110.52 65.3848Z" fill="#516678"/>
<circle cx="84.336" cy="96.7077" r="0.668249" fill="#516678"/>
<circle cx="87.725" cy="95.3713" r="0.668249" fill="#20A2DC"/>
<circle cx="90.8752" cy="96.7077" r="0.668249" fill="#516678"/>
<circle cx="89.2524" cy="98.3306" r="0.668249" fill="#516678"/>
<circle cx="87.6294" cy="97.6624" r="0.668249" fill="#20A2DC"/>
<circle cx="86.0066" cy="98.3306" r="0.668249" fill="#516678"/>
<circle cx="85.3383" cy="100.001" r="0.668249" fill="#516678"/>
<circle cx="86.0066" cy="101.672" r="0.668249" fill="#516678"/>
<circle cx="87.6772" cy="100.001" r="0.668249" fill="#516678"/>
<circle cx="89.2524" cy="101.672" r="0.668249" fill="#516678"/>
<circle cx="87.6772" cy="104.631" r="0.668249" fill="#516678"/>
<circle cx="92.2595" cy="100.001" r="0.668249" fill="#516678"/>
<circle cx="82.9995" cy="100.001" r="0.668249" fill="#516678"/>
<circle cx="84.336" cy="103.199" r="0.668249" fill="#20A2DC"/>
<circle cx="87.6294" cy="102.245" r="0.668249" fill="#20A2DC"/>
<circle cx="89.9207" cy="100.001" r="0.668249" fill="#20A2DC"/>
<circle cx="90.8752" cy="103.295" r="0.668249" fill="#20A2DC"/>
<path fill-rule="evenodd" clip-rule="evenodd" d="M89.4435 88.5865C89.4435 89.3881 88.9235 90.0683 88.2024 90.3081V92.7117C89.1231 92.7799 89.9965 93.0183 90.7912 93.3954L91.9425 91.4014C91.6644 91.0826 91.4959 90.6657 91.4959 90.2094C91.4959 89.2077 92.308 88.3956 93.3098 88.3956C94.3115 88.3956 95.1236 89.2077 95.1236 90.2094C95.1236 91.2112 94.3115 92.0232 93.3098 92.0232C93.1793 92.0232 93.052 92.0095 92.9293 91.9833L91.7845 93.9662C92.5272 94.4742 93.1717 95.1153 93.6835 95.8552L95.689 94.6973C95.6625 94.5739 95.6486 94.4458 95.6486 94.3144C95.6486 93.3127 96.4606 92.5006 97.4624 92.5006C98.4641 92.5006 99.2762 93.3127 99.2762 94.3144C99.2762 95.3161 98.4641 96.1282 97.4624 96.1282C97.007 96.1282 96.5909 95.9604 96.2724 95.6833L94.2596 96.8454C94.6465 97.6495 94.8909 98.5351 94.9601 99.4694H97.2531C97.4783 98.7237 98.1706 98.1807 98.9898 98.1807C99.9915 98.1807 100.804 98.9927 100.804 99.9945C100.804 100.996 99.9915 101.808 98.9898 101.808C98.206 101.808 97.5383 101.311 97.2849 100.615H94.9564C94.8828 101.529 94.6415 102.395 94.2634 103.183L96.2468 104.328C96.5685 104.038 96.9948 103.861 97.4624 103.861C98.4641 103.861 99.2762 104.673 99.2762 105.675C99.2762 106.676 98.4641 107.488 97.4624 107.488C96.4606 107.488 95.6486 106.676 95.6486 105.675C95.6486 105.555 95.6601 105.438 95.6822 105.325L93.6886 104.174C93.1769 104.916 92.5321 105.558 91.7887 106.068L92.9593 108.095C93.0727 108.073 93.1899 108.061 93.3098 108.061C94.3115 108.061 95.1236 108.873 95.1236 109.875C95.1236 110.877 94.3115 111.689 93.3098 111.689C92.308 111.689 91.4959 110.877 91.4959 109.875C91.4959 109.408 91.6726 108.982 91.9628 108.66L90.7959 106.639C89.9999 107.017 89.1249 107.257 88.2024 107.325V109.681C88.9235 109.921 89.4435 110.601 89.4435 111.402C89.4435 112.404 88.6314 113.216 87.6297 113.216C86.6279 113.216 85.8158 112.404 85.8158 111.402C85.8158 110.601 86.3358 109.921 87.0568 109.681V107.321C86.1381 107.247 85.2673 107.004 84.4756 106.622L83.2979 108.662C83.5872 108.983 83.7632 109.409 83.7632 109.875C83.7632 110.877 82.9511 111.689 81.9494 111.689C80.9476 111.689 80.1356 110.877 80.1356 109.875C80.1356 108.873 80.9476 108.061 81.9494 108.061C82.0701 108.061 82.188 108.073 82.3021 108.096L83.4859 106.045C82.7527 105.537 82.1166 104.899 81.6113 104.164L79.6222 105.312C79.6459 105.429 79.6584 105.551 79.6584 105.675C79.6584 106.676 78.8463 107.488 77.8446 107.488C76.8428 107.488 76.0307 106.676 76.0307 105.675C76.0307 104.673 76.8428 103.861 77.8446 103.861C78.3075 103.861 78.7299 104.034 79.0503 104.32L81.0381 103.172C80.6631 102.387 80.4238 101.524 80.3505 100.615H78.022C77.7685 101.311 77.1008 101.808 76.3171 101.808C75.3153 101.808 74.5032 100.996 74.5032 99.9945C74.5032 98.9927 75.3153 98.1807 76.3171 98.1807C77.1362 98.1807 77.8286 98.7237 78.0537 99.4694H80.3468C80.4157 98.5395 80.6582 97.6578 81.0419 96.8567L79.0245 95.692C78.7073 95.9639 78.2951 96.1282 77.8446 96.1282C76.8428 96.1282 76.0307 95.3161 76.0307 94.3144C76.0307 93.3127 76.8428 92.5006 77.8446 92.5006C78.8463 92.5006 79.6584 93.3127 79.6584 94.3144C79.6584 94.4503 79.6434 94.5828 79.6151 94.7101L81.6163 95.8655C82.1218 95.1321 82.7575 94.4953 83.4901 93.9885L82.3321 91.9828C82.2087 92.0093 82.0807 92.0232 81.9494 92.0232C80.9476 92.0232 80.1356 91.2112 80.1356 90.2094C80.1356 89.2077 80.9476 88.3956 81.9494 88.3956C82.9511 88.3956 83.7632 89.2077 83.7632 90.2094C83.7632 90.6648 83.5954 91.0811 83.3181 91.3996L84.4802 93.4124C85.2707 93.032 86.1399 92.7893 87.0568 92.7154V90.308C86.3358 90.0682 85.8158 89.3881 85.8158 88.5865C85.8158 87.5848 86.6279 86.7727 87.6297 86.7727C88.6314 86.7727 89.4435 87.5848 89.4435 88.5865ZM98.9898 100.663C99.3588 100.663 99.658 100.364 99.658 99.9945C99.658 99.6254 99.3588 99.3263 98.9898 99.3263C98.6207 99.3263 98.3215 99.6254 98.3215 99.9945C98.3215 100.364 98.6207 100.663 98.9898 100.663ZM82.6178 90.2094C82.6178 90.5785 82.3186 90.8777 81.9495 90.8777C81.5805 90.8777 81.2813 90.5785 81.2813 90.2094C81.2813 89.8403 81.5805 89.5412 81.9495 89.5412C82.3186 89.5412 82.6178 89.8403 82.6178 90.2094ZM87.6296 89.2548C87.9987 89.2548 88.2979 88.9556 88.2979 88.5865C88.2979 88.2174 87.9987 87.9183 87.6296 87.9183C87.2606 87.9183 86.9614 88.2174 86.9614 88.5865C86.9614 88.9556 87.2606 89.2548 87.6296 89.2548ZM93.9779 90.2094C93.9779 90.5785 93.6787 90.8777 93.3097 90.8777C92.9406 90.8777 92.6414 90.5785 92.6414 90.2094C92.6414 89.8403 92.9406 89.5412 93.3097 89.5412C93.6787 89.5412 93.9779 89.8403 93.9779 90.2094ZM97.4624 94.9826C97.8314 94.9826 98.1306 94.6834 98.1306 94.3144C98.1306 93.9453 97.8314 93.6461 97.4624 93.6461C97.0933 93.6461 96.7941 93.9453 96.7941 94.3144C96.7941 94.6834 97.0933 94.9826 97.4624 94.9826ZM78.5128 94.3144C78.5128 94.6834 78.2136 94.9826 77.8445 94.9826C77.4755 94.9826 77.1763 94.6834 77.1763 94.3144C77.1763 93.9453 77.4755 93.6461 77.8445 93.6461C78.2136 93.6461 78.5128 93.9453 78.5128 94.3144ZM76.317 100.663C76.6861 100.663 76.9853 100.364 76.9853 99.9945C76.9853 99.6254 76.6861 99.3263 76.317 99.3263C75.948 99.3263 75.6488 99.6254 75.6488 99.9945C75.6488 100.364 75.948 100.663 76.317 100.663ZM78.5128 105.675C78.5128 106.044 78.2136 106.343 77.8445 106.343C77.4755 106.343 77.1763 106.044 77.1763 105.675C77.1763 105.306 77.4755 105.006 77.8445 105.006C78.2136 105.006 78.5128 105.306 78.5128 105.675ZM81.9495 110.543C82.3186 110.543 82.6178 110.244 82.6178 109.875C82.6178 109.506 82.3186 109.207 81.9495 109.207C81.5805 109.207 81.2813 109.506 81.2813 109.875C81.2813 110.244 81.5805 110.543 81.9495 110.543ZM93.9779 109.875C93.9779 110.244 93.6787 110.543 93.3097 110.543C92.9406 110.543 92.6414 110.244 92.6414 109.875C92.6414 109.506 92.9406 109.207 93.3097 109.207C93.6787 109.207 93.9779 109.506 93.9779 109.875ZM87.6296 112.071C87.9987 112.071 88.2979 111.772 88.2979 111.403C88.2979 111.033 87.9987 110.734 87.6296 110.734C87.2606 110.734 86.9614 111.033 86.9614 111.403C86.9614 111.772 87.2606 112.071 87.6296 112.071ZM98.1306 105.675C98.1306 106.044 97.8314 106.343 97.4624 106.343C97.0933 106.343 96.7941 106.044 96.7941 105.675C96.7941 105.306 97.0933 105.006 97.4624 105.006C97.8314 105.006 98.1306 105.306 98.1306 105.675ZM87.6773 106.152C91.0779 106.152 93.8347 103.395 93.8347 99.9945C93.8347 96.5938 91.0779 93.8371 87.6773 93.8371C84.2766 93.8371 81.5198 96.5938 81.5198 99.9945C81.5198 103.395 84.2766 106.152 87.6773 106.152Z" fill="#516678"/>
<path d="M86.2931 81.5461C86.0865 81.7941 86.0783 82.1428 86.3647 82.3576L87.4148 83.0974L86.4124 83.8134C86.0067 84.0998 86.1817 84.5135 86.2931 84.6487C86.5222 84.9351 86.7704 84.959 87.1046 84.768L88.9422 83.5031C89.2764 83.2406 89.157 82.8349 88.8945 82.6678L87.1046 81.4507C86.7466 81.2358 86.4462 81.3624 86.2931 81.5461Z" fill="#516678"/>
<path d="M88.9554 115.286C89.1621 115.534 89.1702 115.883 88.8838 116.097L87.8337 116.837L88.8361 117.553C89.2418 117.84 89.0668 118.253 88.9554 118.389C88.7263 118.675 88.4781 118.699 88.144 118.508L86.3063 117.243C85.9722 116.98 86.0915 116.575 86.354 116.408L88.144 115.191C88.502 114.976 88.8023 115.102 88.9554 115.286Z" fill="#516678"/>
<path d="M69.2221 101.32C69.4701 101.527 69.8188 101.535 70.0336 101.249L70.7734 100.199L71.4894 101.201C71.7758 101.607 72.1895 101.432 72.3247 101.32C72.6111 101.091 72.635 100.843 72.444 100.509L71.1792 98.6713C70.9166 98.3372 70.5109 98.4566 70.3439 98.7191L69.1267 100.509C68.9119 100.867 69.0384 101.167 69.2221 101.32Z" fill="#516678"/>
<path d="M106.058 98.617C105.81 98.4104 105.462 98.4022 105.247 98.6886L104.507 99.7387L103.791 98.7364C103.505 98.3306 103.091 98.5056 102.956 98.617C102.669 98.8461 102.645 99.0943 102.836 99.4285L104.101 101.266C104.364 101.6 104.769 101.481 104.937 101.218L106.154 99.4285C106.369 99.0705 106.242 98.7701 106.058 98.617Z" fill="#516678"/>
<ellipse cx="82.2709" cy="83.9583" rx="0.763125" ry="0.611637" transform="rotate(-21.3473 82.2709 83.9583)" fill="#20A2DC"/>
<ellipse cx="77.4694" cy="86.4791" rx="0.763125" ry="0.611637" transform="rotate(-28.1788 77.4694 86.4791)" fill="#20A2DC"/>
<ellipse cx="73.7098" cy="90.4175" rx="0.763125" ry="0.611637" transform="rotate(-56.0693 73.7098 90.4175)" fill="#20A2DC"/>
<ellipse cx="71.4168" cy="95.3115" rx="0.763125" ry="0.611637" transform="rotate(-75.2739 71.4168 95.3115)" fill="#20A2DC"/>
<ellipse cx="71.2803" cy="104.118" rx="0.763125" ry="0.611637" transform="rotate(-105.301 71.2803 104.118)" fill="#20A2DC"/>
<ellipse cx="73.3207" cy="108.935" rx="0.763125" ry="0.611637" transform="rotate(-121.067 73.3207 108.935)" fill="#20A2DC"/>
<ellipse cx="76.7215" cy="112.826" rx="0.763125" ry="0.611637" transform="rotate(-143.427 76.7215 112.826)" fill="#20A2DC"/>
<ellipse cx="81.1878" cy="115.538" rx="0.763125" ry="0.611637" transform="rotate(-158.999 81.1878 115.538)" fill="#20A2DC"/>
<ellipse cx="91.8526" cy="116.324" rx="0.763125" ry="0.611637" transform="rotate(-18.8105 91.8526 116.324)" fill="#20A2DC"/>
<ellipse cx="96.6506" cy="114.197" rx="0.763125" ry="0.611637" transform="rotate(-37.5034 96.6506 114.197)" fill="#20A2DC"/>
<ellipse cx="100.581" cy="110.801" rx="0.763125" ry="0.611637" transform="rotate(-45.671 100.581 110.801)" fill="#20A2DC"/>
<ellipse cx="103.26" cy="106.313" rx="0.763125" ry="0.611637" transform="rotate(-70.2946 103.26 106.313)" fill="#20A2DC"/>
<ellipse cx="103.312" cy="93.7458" rx="0.763125" ry="0.611637" transform="rotate(-114.303 103.312 93.7458)" fill="#20A2DC"/>
<ellipse cx="100.668" cy="89.2684" rx="0.763125" ry="0.611637" transform="rotate(-125.94 100.668 89.2684)" fill="#20A2DC"/>
<ellipse cx="96.762" cy="85.7417" rx="0.763125" ry="0.611637" transform="rotate(-141.272 96.762 85.7417)" fill="#20A2DC"/>
<ellipse cx="92.0119" cy="83.6797" rx="0.763125" ry="0.611637" transform="rotate(-166.357 92.0119 83.6797)" fill="#20A2DC"/>
<ellipse cx="79.7606" cy="85.0469" rx="0.763125" ry="0.611637" transform="rotate(-28.1788 79.7606 85.0469)" fill="#516678"/>
<ellipse cx="75.4282" cy="88.2694" rx="0.763125" ry="0.611637" transform="rotate(-44.7434 75.4282 88.2694)" fill="#516678"/>
<ellipse cx="72.3342" cy="92.7592" rx="0.763125" ry="0.611637" transform="rotate(-65.1918 72.3342 92.7592)" fill="#516678"/>
<ellipse cx="72.0965" cy="106.62" rx="0.763125" ry="0.611637" transform="rotate(-110.489 72.0965 106.62)" fill="#516678"/>
<ellipse cx="74.897" cy="111.042" rx="0.763125" ry="0.611637" transform="rotate(-132.469 74.897 111.042)" fill="#516678"/>
<ellipse cx="78.8696" cy="114.353" rx="0.763125" ry="0.611637" transform="rotate(-153.271 78.8696 114.353)" fill="#516678"/>
<ellipse cx="83.6926" cy="116.4" rx="0.763125" ry="0.611637" transform="rotate(-166.902 83.6926 116.4)" fill="#516678"/>
<ellipse cx="94.3725" cy="115.473" rx="0.763125" ry="0.611637" transform="rotate(-26.0792 94.3725 115.473)" fill="#516678"/>
<ellipse cx="98.7266" cy="112.639" rx="0.763125" ry="0.611637" transform="rotate(-35.413 98.7266 112.639)" fill="#516678"/>
<ellipse cx="102.095" cy="108.645" rx="0.763125" ry="0.611637" transform="rotate(-60.27 102.095 108.645)" fill="#516678"/>
<ellipse cx="104.077" cy="103.83" rx="0.763125" ry="0.611637" transform="rotate(-83.3688 104.077 103.83)" fill="#516678"/>
<ellipse cx="104.076" cy="96.2278" rx="0.763125" ry="0.611637" transform="rotate(-100.683 104.076 96.2278)" fill="#516678"/>
<ellipse cx="102.196" cy="91.4162" rx="0.763125" ry="0.611637" transform="rotate(-120.545 102.196 91.4162)" fill="#516678"/>
<ellipse cx="98.8623" cy="87.4123" rx="0.763125" ry="0.611637" transform="rotate(-134.089 98.8623 87.4123)" fill="#516678"/>
<ellipse cx="94.4941" cy="84.5389" rx="0.763125" ry="0.611637" transform="rotate(-156.058 94.4941 84.5389)" fill="#516678"/>
<ellipse cx="84.9355" cy="83.299" rx="0.763125" ry="0.611637" transform="rotate(166.632 84.9355 83.299)" fill="#516678"/>
</svg>
