<svg width="175" height="176" viewBox="0 0 175 176" fill="none" xmlns="http://www.w3.org/2000/svg">
<path d="M16.1935 64.4683L15.0562 65.0378L16.6673 67.1261H14.2032V68.1702L16.6673 67.6956L15.0562 70.0687L16.1935 70.6382L17.1412 68.1702L18.2785 70.6382L19.4157 69.8788L17.8046 67.6956L20.4582 68.1702V67.1261H17.8046L19.4157 65.0378L18.5628 64.4683L17.1412 66.7464L16.1935 64.4683Z" fill="#20A2DC"/>
<path d="M39.9631 15.2161L38.8258 15.7856L40.4369 17.8739H37.9728V18.918L40.4369 18.4434L38.8258 20.8165L39.9631 21.386L40.9108 18.918L42.0481 21.386L43.1853 20.6266L41.5742 18.4434L44.2278 18.918V17.8739H41.5742L43.1853 15.7856L42.3324 15.2161L40.9108 17.4942L39.9631 15.2161Z" fill="#20A2DC"/>
<path d="M159.644 75.1868L158.506 75.7563L160.118 77.8446H157.653V78.8887L160.118 78.4141L158.506 80.7872L159.644 81.3567L160.591 78.8887L161.729 81.3567L162.866 80.5973L161.255 78.4141L163.908 78.8887V77.8446H161.255L162.866 75.7563L162.013 75.1868L160.591 77.4649L159.644 75.1868Z" fill="#20A2DC"/>
<path d="M133.281 20.6008L132.144 21.1704L133.755 23.2587H131.291V24.3028L133.755 23.8282L132.144 26.2012L133.281 26.7708L134.229 24.3028L135.366 26.7708L136.504 26.0114L134.893 23.8282L137.546 24.3028V23.2587H134.893L136.504 21.1704L135.651 20.6008L134.229 22.879L133.281 20.6008Z" fill="#20A2DC"/>
<path d="M82.2121 12.0775L81.6952 12.3579L82.4275 13.386H81.3075V13.9L82.4275 13.6664L81.6952 14.8346L82.2121 15.115L82.6429 13.9L83.1599 15.115L83.6768 14.7412L82.9445 13.6664L84.1507 13.9V13.386H82.9445L83.6768 12.3579L83.2891 12.0775L82.6429 13.1991L82.2121 12.0775Z" fill="#20A2DC"/>
<path fill-rule="evenodd" clip-rule="evenodd" d="M19.8342 20.8984C21.0904 20.8984 22.1088 19.8785 22.1088 18.6203C22.1088 17.3621 21.0904 16.3422 19.8342 16.3422C18.578 16.3422 17.5597 17.3621 17.5597 18.6203C17.5597 19.8785 18.578 20.8984 19.8342 20.8984ZM19.8043 19.3397C20.2175 19.3397 20.5525 19.0042 20.5525 18.5903C20.5525 18.1765 20.2175 17.8409 19.8043 17.8409C19.3911 17.8409 19.0561 18.1765 19.0561 18.5903C19.0561 19.0042 19.3911 19.3397 19.8043 19.3397Z" fill="#516678"/>
<path fill-rule="evenodd" clip-rule="evenodd" d="M11.6408 46.9967C12.897 46.9967 13.9153 45.9767 13.9153 44.7186C13.9153 43.4604 12.897 42.4404 11.6408 42.4404C10.3846 42.4404 9.36621 43.4604 9.36621 44.7186C9.36621 45.9767 10.3846 46.9967 11.6408 46.9967ZM11.6108 45.438C12.024 45.438 12.359 45.1025 12.359 44.6886C12.359 44.2747 12.024 43.9392 11.6108 43.9392C11.1976 43.9392 10.8626 44.2747 10.8626 44.6886C10.8626 45.1025 11.1976 45.438 11.6108 45.438Z" fill="#516678"/>
<path fill-rule="evenodd" clip-rule="evenodd" d="M103.656 24.0083C105.869 24.0083 107.664 22.2114 107.664 19.9949C107.664 17.7783 105.869 15.9814 103.656 15.9814C101.443 15.9814 99.6493 17.7783 99.6493 19.9949C99.6493 22.2114 101.443 24.0083 103.656 24.0083ZM103.604 21.2622C104.332 21.2622 104.922 20.6711 104.922 19.942C104.922 19.2129 104.332 18.6218 103.604 18.6218C102.876 18.6218 102.285 19.2129 102.285 19.942C102.285 20.6711 102.876 21.2622 103.604 21.2622Z" fill="#516678"/>
<path fill-rule="evenodd" clip-rule="evenodd" d="M135.088 59.7977C136.409 59.7977 137.481 58.7246 137.481 57.4009C137.481 56.0772 136.409 55.0042 135.088 55.0042C133.766 55.0042 132.695 56.0772 132.695 57.4009C132.695 58.7246 133.766 59.7977 135.088 59.7977ZM135.056 58.1576C135.491 58.1576 135.844 57.8046 135.844 57.3692C135.844 56.9338 135.491 56.5808 135.056 56.5808C134.622 56.5808 134.269 56.9338 134.269 57.3692C134.269 57.8046 134.622 58.1576 135.056 58.1576Z" fill="#516678"/>
<path fill-rule="evenodd" clip-rule="evenodd" d="M158.33 44.4723C159.652 44.4723 160.723 43.3992 160.723 42.0755C160.723 40.7518 159.652 39.6787 158.33 39.6787C157.009 39.6787 155.937 40.7518 155.937 42.0755C155.937 43.3992 157.009 44.4723 158.33 44.4723ZM158.299 42.8321C158.733 42.8321 159.086 42.4792 159.086 42.0437C159.086 41.6083 158.733 41.2553 158.299 41.2553C157.864 41.2553 157.512 41.6083 157.512 42.0437C157.512 42.4792 157.864 42.8321 158.299 42.8321Z" fill="#516678"/>
<path d="M27.776 37.7446H108.327C109.683 37.7446 110.546 38.6971 110.546 40.2992V59.7711C111.408 59.4424 113.504 58.9823 114.982 59.7711V40.2992C114.982 37.095 114.736 33.0302 109.313 33.0302H27.1159C21.3204 33.0302 20.7042 36.3556 20.7042 39.9133V156.078C20.7042 158.247 21.1757 159.472 22.59 159.472H106.696H113.485C114.24 159.472 115.088 157.87 115.088 156.55V146.366C112.674 147.196 110.939 146.712 110.374 146.366V156.078C110.374 158.247 108.865 158.247 107.639 158.247H27.5874C25.3244 158.247 25.3244 156.927 25.3244 155.607V39.9133C25.3244 38.2161 26.7388 37.7446 27.776 37.7446Z" fill="#516678"/>
<path fill-rule="evenodd" clip-rule="evenodd" d="M80.4838 77.4405C80.4839 76.309 81.521 75.1683 82.5582 75.3661C98.8703 78.4777 108.048 69.7716 110.939 64.9943C112.448 63.4102 113.957 64.3342 114.522 64.9943C121.311 75.8564 136.146 76.4347 142.715 75.3661C144.601 75.3661 144.978 76.7805 144.978 77.8177V103.182C144.818 105.23 144.5 107.2 144.045 109.092C142.596 108.653 141.079 108.368 139.515 108.257C139.821 106.895 140.043 105.49 140.169 104.041V82.483V80.1749C133.852 81.1178 119.52 79.1377 112.731 70.0859C110.271 74.1464 99.1532 81.8721 85.3045 80.3635V82.1624C85.3045 82.3596 85.3037 82.928 85.3025 83.769L85.3025 83.7719V83.772C85.2969 87.8631 85.2823 98.3927 85.3045 104.041C85.5986 111.681 91.61 128.074 112.737 137.409C114.301 136.772 116.154 135.872 118.149 134.714C118.568 136.151 119.139 137.525 119.843 138.815C117.206 140.328 114.755 141.462 112.731 142.217C87.763 132.562 80.8296 112.171 80.4838 103.182C80.4578 96.5357 80.4749 84.1469 80.4815 79.3339C80.4829 78.3427 80.4838 77.6727 80.4838 77.4405Z" fill="#20A2DC"/>
<path d="M117.284 87.7575V89.6631C120.406 90.3436 121.017 92.6576 120.813 93.8826C120.406 96.3327 118.37 97.4216 116.876 96.7411C114.976 95.6521 113.483 95.516 112.532 95.516C111.161 95.516 109.682 96.1966 109.682 97.1494C109.682 97.83 111.039 98.7828 116.469 100.28C121.492 101.665 123.121 106.269 122.985 108.583C122.682 113.755 118.37 116.251 116.469 116.614V118.928C116.469 120.153 114.922 121.514 113.075 121.514C111.229 121.514 109.817 120.153 109.817 118.928V116.614C106.288 116.342 104.795 113.619 104.795 112.122C104.795 109.944 107.51 108.175 108.731 108.855C110.939 110.085 112.94 110.353 113.211 110.353C113.483 110.353 115.926 110.761 116.198 108.447C116.415 106.596 110.949 105.044 108.188 104.5C106.514 104.046 103.138 101.886 103.03 96.8772C102.921 91.8681 108.053 89.4362 110.632 88.8464V87.7575C110.632 86.2602 111.935 85.0352 113.89 85.0352C115.845 85.0352 117.284 86.3963 117.284 87.7575Z" fill="#516678"/>
<path fill-rule="evenodd" clip-rule="evenodd" d="M137.92 145.207C146.981 145.207 154.327 137.862 154.327 128.801C154.327 119.74 146.981 112.394 137.92 112.394C128.859 112.394 121.514 119.74 121.514 128.801C121.514 137.862 128.859 145.207 137.92 145.207ZM138.015 141.058C144.732 141.058 150.178 135.613 150.178 128.895C150.178 122.177 144.732 116.732 138.015 116.732C131.297 116.732 125.851 122.177 125.851 128.895C125.851 135.613 131.297 141.058 138.015 141.058Z" fill="#516678"/>
<path d="M132.265 130.042C132.211 128.858 133.32 128.427 133.881 128.36C134.15 128.327 134.42 128.36 134.824 128.629L136.844 130.11L141.086 124.657C141.759 124.051 142.836 124.253 143.308 124.657C143.914 125.263 143.779 126.273 143.51 126.677L138.056 133.812C137.086 134.297 136.305 133.924 136.036 133.677L132.804 131.254C132.332 130.85 132.277 130.312 132.265 130.042Z" fill="#20A2DC"/>
<path d="M49.6511 77.6374C49.6511 76.0132 50.6231 75.4841 51.1091 75.4226H76.1663C75.9645 76.3969 75.6215 78.6285 75.8636 79.7599H74.4691H51.1091C50.6231 79.7292 49.6511 79.2616 49.6511 77.6374Z" fill="#20A2DC"/>
<circle cx="37.9578" cy="77.6408" r="2.46479" fill="#516678"/>
<path d="M49.6511 88.236C49.6511 86.6119 50.6231 86.0828 51.1091 86.0212H75.8636V90.3586H74.4691H51.1091C50.6231 90.3278 49.6511 89.8602 49.6511 88.236Z" fill="#516678"/>
<circle cx="37.9578" cy="88.2394" r="2.46479" fill="#516678"/>
<path d="M49.6511 99.081C49.6511 97.4568 50.6231 96.9277 51.1091 96.8662H75.8636V101.204H74.4691H51.1091C50.6231 101.173 49.6511 100.705 49.6511 99.081Z" fill="#20A2DC"/>
<circle cx="37.9578" cy="99.0844" r="2.46479" fill="#516678"/>
<path d="M49.6511 113.384C49.6511 115.008 50.6231 115.537 51.1091 115.599H77.938C77.5608 114.09 77.1837 113.807 76.8065 111.261H74.469H51.1091C50.6231 111.292 49.6511 111.76 49.6511 113.384Z" fill="#516678"/>
<circle cx="37.9578" cy="113.38" r="2.46479" fill="#516678"/>
<path d="M49.6511 124.229C49.6511 125.853 50.6231 126.382 51.1091 126.444H84.1611C83.4813 125.124 82.4639 124.464 81.6153 122.106H74.4691H51.1091C50.6231 122.137 49.6511 122.605 49.6511 124.229Z" fill="#20A2DC"/>
<circle cx="37.9578" cy="124.225" r="2.46479" fill="#516678"/>
<path d="M49.6511 134.827C49.6511 136.452 50.6231 136.981 51.1091 137.042H94.9101C93.8729 136.288 91.9872 134.874 90.1014 132.705H74.4691H51.1091C50.6231 132.736 49.6511 133.203 49.6511 134.827Z" fill="#516678"/>
<circle cx="37.9578" cy="134.824" r="2.46479" fill="#516678"/>
<rect x="15.912" y="156.268" width="143.033" height="4.26364" rx="2.13182" fill="#516678"/>
<rect x="161.158" y="156.268" width="7.15163" height="4.26364" rx="2.13182" fill="#20A2DC"/>
<rect x="6.71698" y="156.268" width="7.15163" height="4.26364" rx="2.13182" fill="#20A2DC"/>
<rect x="64.4409" y="164.454" width="45.6342" height="4.26364" rx="2.13182" fill="#20A2DC"/>
<rect x="72.7845" y="170.764" width="30.139" height="4.26364" rx="2.13182" fill="#20A2DC"/>
<rect x="83.1713" y="167.353" width="8.68413" height="4.26364" fill="#20A2DC"/>
<rect x="112.118" y="164.454" width="12.6005" height="4.26364" rx="2.13182" fill="#20A2DC"/>
<rect x="49.7971" y="164.454" width="12.6005" height="4.26364" rx="2.13182" fill="#20A2DC"/>
<rect x="170.353" y="156.268" width="4.25692" height="4.26364" rx="2.12846" fill="#20A2DC"/>
<rect x="0.24646" y="156.268" width="4.25692" height="4.26364" rx="2.12846" fill="#20A2DC"/>
<path d="M57.2859 40.3044H56.2934C55.202 40.3044 53.8347 40.5329 53.7456 42.0557C53.6564 43.5785 54.8179 44.0354 55.8477 44.0354H57.8431C58.612 44.0354 59.8371 43.3609 59.7646 42.0557C59.6877 40.6726 58.151 40.3044 57.2859 40.3044Z" fill="#20A2DC"/>
<path d="M66.4698 40.3044H65.4772C64.3859 40.3044 63.0185 40.5329 62.9294 42.0557C62.8402 43.5785 64.0017 44.0354 65.0315 44.0354H67.0269C67.7959 44.0354 69.021 43.3609 68.9484 42.0557C68.8715 40.6726 67.3349 40.3044 66.4698 40.3044Z" fill="#516678"/>
<path d="M75.6536 40.3044H74.6611C73.5698 40.3044 72.2024 40.5329 72.1133 42.0557C72.0241 43.5785 73.1856 44.0354 74.2154 44.0354H76.2108C76.9798 44.0354 78.2049 43.3609 78.1323 42.0557C78.0554 40.6726 76.5188 40.3044 75.6536 40.3044Z" fill="#20A2DC"/>
<path d="M84.8375 40.3044H83.845C82.7537 40.3044 81.3863 40.5329 81.2972 42.0557C81.208 43.5785 82.3695 44.0354 83.3993 44.0354H85.3947C86.1637 44.0354 87.3888 43.3609 87.3162 42.0557C87.2393 40.6726 85.7027 40.3044 84.8375 40.3044Z" fill="#516678"/>
<path d="M57.2859 54.0803H56.2934C55.202 54.0803 53.8347 54.3087 53.7456 55.8316C53.6564 57.3544 54.8179 57.8113 55.8477 57.8113H57.8431C58.612 57.8113 59.8371 57.1368 59.7646 55.8316C59.6877 54.4485 58.151 54.0803 57.2859 54.0803Z" fill="#20A2DC"/>
<path d="M66.4698 54.0803H65.4772C64.3859 54.0803 63.0185 54.3087 62.9294 55.8316C62.8402 57.3544 64.0017 57.8113 65.0315 57.8113H67.0269C67.7959 57.8113 69.021 57.1368 68.9484 55.8316C68.8715 54.4485 67.3349 54.0803 66.4698 54.0803Z" fill="#516678"/>
<path d="M75.6536 54.0803H74.6611C73.5698 54.0803 72.2024 54.3087 72.1133 55.8316C72.0241 57.3544 73.1856 57.8113 74.2154 57.8113H76.2108C76.9798 57.8113 78.2049 57.1368 78.1323 55.8316C78.0554 54.4485 76.5188 54.0803 75.6536 54.0803Z" fill="#20A2DC"/>
<path d="M84.8375 54.0803H83.845C82.7537 54.0803 81.3863 54.3087 81.2972 55.8316C81.208 57.3544 82.3695 57.8113 83.3993 57.8113H85.3947C86.1637 57.8113 87.3888 57.1368 87.3162 55.8316C87.2393 54.4485 85.7027 54.0803 84.8375 54.0803Z" fill="#516678"/>
<path d="M57.2859 47.1924H56.2934C55.202 47.1924 53.8347 47.4208 53.7456 48.9436C53.6564 50.4665 54.8179 50.9233 55.8477 50.9233H57.8431C58.612 50.9233 59.8371 50.2489 59.7646 48.9436C59.6877 47.5605 58.151 47.1924 57.2859 47.1924Z" fill="#516678"/>
<path d="M66.4698 47.1924H65.4772C64.3859 47.1924 63.0185 47.4208 62.9294 48.9436C62.8402 50.4665 64.0017 50.9233 65.0315 50.9233H67.0269C67.7959 50.9233 69.021 50.2489 68.9484 48.9436C68.8715 47.5605 67.3349 47.1924 66.4698 47.1924Z" fill="#20A2DC"/>
<path d="M75.6536 47.1924H74.6611C73.5698 47.1924 72.2024 47.4208 72.1133 48.9436C72.0241 50.4665 73.1856 50.9233 74.2154 50.9233H76.2108C76.9798 50.9233 78.2049 50.2489 78.1323 48.9436C78.0554 47.5605 76.5188 47.1924 75.6536 47.1924Z" fill="#516678"/>
<path d="M84.8375 47.1924H83.845C82.7537 47.1924 81.3863 47.4208 81.2972 48.9436C81.208 50.4665 82.3695 50.9233 83.3993 50.9233H85.3947C86.1637 50.9233 87.3888 50.2489 87.3162 48.9436C87.2393 47.5605 85.7027 47.1924 84.8375 47.1924Z" fill="#20A2DC"/>
<path fill-rule="evenodd" clip-rule="evenodd" d="M47.5704 26.5286C47.5704 23.2999 50.7274 21.9366 52.3776 21.9366H88.0368C91.983 21.9366 93.0593 25.1653 93.0593 27.3896V58.0981C93.0593 62.6183 90.1893 63.838 88.1086 63.838H52.3059C49.0771 63.838 47.5704 60.6811 47.5704 58.6721V26.5286ZM89.6153 33.2012H51.0861V27.4613C51.0861 25.6676 51.9471 25.4523 53.0951 25.4523H87.4628C89.4001 25.4524 89.6153 26.5286 89.6153 27.4613V33.2012ZM51.0861 36.8604H89.5436V58.6721C89.5436 59.2222 89.1705 60.3223 87.6781 60.3223H52.9516C52.3298 60.3463 51.0861 59.9636 51.0861 58.2416V36.8604Z" fill="#516678"/>
</svg>
