<svg width="175" height="176" viewBox="0 0 175 176" fill="none" xmlns="http://www.w3.org/2000/svg">
<path d="M24.5737 40.0668L23.4364 40.6363L25.0476 42.7246H22.5835V43.7687L25.0476 43.2941L23.4364 45.6672L24.5737 46.2367L25.5214 43.7687L26.6587 46.2367L27.796 45.4773L26.1848 43.2941L28.8385 43.7687V42.7246H26.1848L27.796 40.6363L26.943 40.0668L25.5214 42.3449L24.5737 40.0668Z" fill="#20A2DC"/>
<path d="M40.949 15.4623L39.8117 16.0319L41.4228 18.1202H38.9588V19.1643L41.4228 18.6897L39.8117 21.0628L40.949 21.6323L41.8967 19.1643L43.034 21.6323L44.1713 20.8729L42.5601 18.6897L45.2138 19.1643V18.1202H42.5601L44.1713 16.0319L43.3183 15.4623L41.8967 17.7405L40.949 15.4623Z" fill="#20A2DC"/>
<path d="M157.025 35.7394L155.888 36.309L157.499 38.3973H155.035V39.4414L157.499 38.9668L155.888 41.3399L157.025 41.9094L157.973 39.4414L159.11 41.9094L160.248 41.15L158.637 38.9668L161.29 39.4414V38.3973H158.637L160.248 36.309L159.395 35.7394L157.973 38.0176L157.025 35.7394Z" fill="#20A2DC"/>
<path d="M108.716 19.2253L107.578 19.7949L109.189 21.8832H106.725V22.9273L109.189 22.4527L107.578 24.8258L108.716 25.3953L109.663 22.9273L110.801 25.3953L111.938 24.6359L110.327 22.4527L112.98 22.9273V21.8832H110.327L111.938 19.7949L111.085 19.2253L109.663 21.5035L108.716 19.2253Z" fill="#20A2DC"/>
<path d="M83.198 2.46478L82.6811 2.74517L83.4134 3.77325H82.2934V4.28729L83.4134 4.05364L82.6811 5.22191L83.198 5.5023L83.6288 4.28729L84.1457 5.5023L84.6627 5.12845L83.9303 4.05364L85.1365 4.28729V3.77325H83.9303L84.6627 2.74517L84.275 2.46478L83.6288 3.58633L83.198 2.46478Z" fill="#20A2DC"/>
<path fill-rule="evenodd" clip-rule="evenodd" d="M20.8201 11.2858C22.0763 11.2858 23.0947 10.2658 23.0947 9.00763C23.0947 7.74945 22.0763 6.72949 20.8201 6.72949C19.5639 6.72949 18.5456 7.74945 18.5456 9.00763C18.5456 10.2658 19.5639 11.2858 20.8201 11.2858ZM20.7902 9.72704C21.2034 9.72704 21.5384 9.39153 21.5384 8.97765C21.5384 8.56378 21.2034 8.22827 20.7902 8.22827C20.377 8.22827 20.042 8.56378 20.042 8.97765C20.042 9.39153 20.377 9.72704 20.7902 9.72704Z" fill="#516678"/>
<path fill-rule="evenodd" clip-rule="evenodd" d="M12.6267 54.6374C13.8829 54.6374 14.9012 53.6174 14.9012 52.3593C14.9012 51.1011 13.8829 50.0811 12.6267 50.0811C11.3705 50.0811 10.3521 51.1011 10.3521 52.3593C10.3521 53.6174 11.3705 54.6374 12.6267 54.6374ZM12.5967 53.0787C13.0099 53.0787 13.3449 52.7432 13.3449 52.3293C13.3449 51.9154 13.0099 51.5799 12.5967 51.5799C12.1835 51.5799 11.8485 51.9154 11.8485 52.3293C11.8485 52.7432 12.1835 53.0787 12.5967 53.0787Z" fill="#516678"/>
<path fill-rule="evenodd" clip-rule="evenodd" d="M89.8536 21.7899C92.0666 21.7899 93.8607 19.993 93.8607 17.7764C93.8607 15.5599 92.0666 13.763 89.8536 13.763C87.6405 13.763 85.8465 15.5599 85.8465 17.7764C85.8465 19.993 87.6405 21.7899 89.8536 21.7899ZM89.8007 19.0438C90.5287 19.0438 91.1189 18.4527 91.1189 17.7235C91.1189 16.9944 90.5287 16.4033 89.8007 16.4033C89.0728 16.4033 88.4826 16.9944 88.4826 17.7235C88.4826 18.4527 89.0728 19.0438 89.8007 19.0438Z" fill="#516678"/>
<path fill-rule="evenodd" clip-rule="evenodd" d="M150.863 57.5793C152.184 57.5793 153.256 56.5063 153.256 55.1826C153.256 53.8588 152.184 52.7858 150.863 52.7858C149.541 52.7858 148.47 53.8588 148.47 55.1826C148.47 56.5063 149.541 57.5793 150.863 57.5793ZM150.831 55.9392C151.266 55.9392 151.618 55.5862 151.618 55.1508C151.618 54.7154 151.266 54.3624 150.831 54.3624C150.396 54.3624 150.044 54.7154 150.044 55.1508C150.044 55.5862 150.396 55.9392 150.831 55.9392Z" fill="#516678"/>
<path fill-rule="evenodd" clip-rule="evenodd" d="M147.569 17.8569C148.891 17.8569 149.962 16.7839 149.962 15.4601C149.962 14.1364 148.891 13.0634 147.569 13.0634C146.247 13.0634 145.176 14.1364 145.176 15.4601C145.176 16.7839 146.247 17.8569 147.569 17.8569ZM147.538 16.2168C147.972 16.2168 148.325 15.8638 148.325 15.4284C148.325 14.9929 147.972 14.6399 147.538 14.6399C147.103 14.6399 146.75 14.9929 146.75 15.4284C146.75 15.8638 147.103 16.2168 147.538 16.2168Z" fill="#516678"/>
<path fill-rule="evenodd" clip-rule="evenodd" d="M42.9824 98.8049C43.1733 97.0302 44.551 93.481 48.5353 93.481H126.734C128.547 93.5573 132.184 94.7404 132.23 98.8621V148.094C132.249 149.812 131.188 153.304 126.791 153.533H99.542V157.254H75.7274V153.533H48.3064C46.6653 153.533 43.303 152.433 42.9824 148.037V98.8049ZM45.8448 98.9766C45.8258 98.0988 46.3143 96.3433 48.4209 96.3433H126.391C127.402 96.286 129.425 96.7783 129.425 99.2056V145.06H45.8448V98.9766ZM48.1919 150.727C46.1768 150.453 45.7494 148.8 45.7876 147.98H129.539C129.219 150.132 127.688 150.708 126.963 150.727H48.1919ZM96.6797 153.475H78.5898V156.338H96.6797V153.475Z" fill="#516678"/>
<path fill-rule="evenodd" clip-rule="evenodd" d="M50.997 127.027C50.997 120.072 56.6356 114.433 63.5912 114.433C68.3944 114.433 72.4605 117.368 74.5169 121.474H77.5879H83.8564H96.3934C96.7178 121.398 97.6299 121.486 98.6833 122.448L102.004 124.852C102.5 125.424 103.194 126.924 102.004 128.344L98.6833 131.321C97.5002 132.409 94.7447 134.183 93.1876 132.58L91.5275 130.92C90.5924 132.122 88.0812 133.691 85.9746 130.806C85.0395 132.389 82.5856 134.71 80.2499 131.321C79.7156 132.027 78.4295 133.393 77.5593 133.21H74.5935C72.536 137.076 68.4204 139.622 63.5912 139.622C56.6356 139.622 50.997 133.983 50.997 127.027ZM74.239 130.348L74.239 130.348H77.1586L80.1354 127.428C80.4216 127.142 81.0514 126.97 81.5666 127.428L83.4557 129.489L85.0014 127.428C85.2876 127.027 86.1463 126.684 86.8333 127.428L88.7224 129.603L90.8405 127.657C91.1267 127.371 91.8137 127.085 92.3289 127.657L94.676 130.176H95.592L99.771 126.627L96.3362 124.28H83.8278H77.5736H74.4465H74.0673L74.0673 124.28C74.0576 124.28 74.048 124.28 74.0384 124.28H73.9528L73.9531 124.279C73.2531 124.272 72.6126 124.178 72.1782 123.364L71.6057 122.219C70.1582 119.333 67.4619 117.181 63.8548 117.181C58.2712 117.181 53.7448 121.641 53.7448 127.142C53.7448 132.643 58.0648 136.702 63.6484 136.702C66.9136 136.702 69.4876 135.271 71.205 133.153C71.3991 132.877 71.6951 132.426 71.9733 132.002L71.9735 132.001L71.9737 132.001L71.9738 132.001C72.2149 131.634 72.4426 131.287 72.5789 131.092C72.9796 130.462 73.4376 130.348 74.239 130.348Z" fill="#20A2DC"/>
<path fill-rule="evenodd" clip-rule="evenodd" d="M62.7897 132.752C65.9514 132.752 68.5144 130.189 68.5144 127.027C68.5144 123.866 65.9514 121.303 62.7897 121.303C59.6281 121.303 57.0651 123.866 57.0651 127.027C57.0651 130.189 59.6281 132.752 62.7897 132.752ZM62.847 129.89C64.4594 129.89 65.7665 128.583 65.7665 126.97C65.7665 125.358 64.4594 124.051 62.847 124.051C61.2345 124.051 59.9274 125.358 59.9274 126.97C59.9274 128.583 61.2345 129.89 62.847 129.89Z" fill="#20A2DC"/>
<path fill-rule="evenodd" clip-rule="evenodd" d="M90.726 118.612H93.4738V117.238C93.4738 115.979 94.1608 114.433 96.2216 114.433H118.777C119.979 114.433 121.41 115.235 121.41 117.41V136.759C121.41 137.79 120.952 139.564 118.376 139.564H96.1644C95.382 139.583 93.76 139.095 93.5311 136.988V135.672C92.9777 135.557 91.7564 135.179 91.2984 134.584C91.203 134.717 90.955 134.973 90.726 134.927V137.274C90.8405 138.973 92.0884 142.369 96.1644 142.369H118.777C120.494 142.369 124.272 141.282 124.272 136.759V117.238C124.272 115.406 122.67 111.685 119.063 111.685H117.975V104.3C117.975 102.64 116.315 99.0911 112.823 99.0911H102.061C100.458 99.0911 97.0231 100.579 97.0231 104.3V111.685H95.8209C94.0463 111.685 90.726 113.288 90.726 117.238V118.612ZM99.8282 104.529V111.685H115.17C115.17 111.685 115.151 106.858 115.17 104.529C115.177 103.728 114.426 101.896 112.537 101.896H102.347C101.488 101.896 99.8282 102.469 99.8282 104.529Z" fill="#516678"/>
<path fill-rule="evenodd" clip-rule="evenodd" d="M109.476 125.183L108.45 123.558C108.152 123.087 107.932 122.274 108.927 121.646C109.555 121.249 110.453 121.048 111.016 121.938L112.156 123.744L113.386 121.812C113.686 121.341 114.327 120.795 115.32 121.427C115.947 121.826 116.512 122.553 115.946 123.441L114.837 125.183H116.764C117.321 125.183 118.127 125.431 118.127 126.608C118.127 127.351 117.817 128.218 116.764 128.218H114.981L115.976 129.793C116.339 130.369 116.375 131.238 115.408 131.909C114.898 132.263 114.038 132.408 113.509 131.57L112.146 129.411L110.957 131.277C110.591 131.852 109.821 132.255 108.801 131.666C108.264 131.357 107.765 130.64 108.298 129.804L109.308 128.218H107.475C106.793 128.218 106.039 127.784 105.988 126.608C105.961 125.988 106.298 125.183 107.289 125.183H109.476Z" fill="#20A2DC"/>
<path fill-rule="evenodd" clip-rule="evenodd" d="M30.5368 84.9523H34.4347C33.9922 87.73 33.7623 90.5786 33.7623 93.4809C33.7623 100.694 35.1822 107.575 37.7577 113.861V122.416C32.7758 113.898 29.9206 103.984 29.9206 93.4041C29.9206 90.5329 30.1308 87.7108 30.5368 84.9523ZM140.658 84.9523H144.402C144.808 87.7108 145.019 90.5329 145.019 93.4041C145.019 103.765 142.281 113.486 137.489 121.884V113.482C139.967 107.299 141.331 100.549 141.331 93.4809C141.331 90.5786 141.101 87.73 140.658 84.9523ZM112.022 41.3405C104.575 37.8224 96.2521 35.8551 87.4696 35.8551C78.798 35.8551 70.5744 37.773 63.1998 41.2079C63.3446 41.9625 63.4204 42.7417 63.4204 43.5385C63.4204 44.1974 63.3686 44.8442 63.2688 45.475C70.562 41.7793 78.811 39.6968 87.5464 39.6968C96.3488 39.6968 104.657 41.8114 111.992 45.5602C111.883 44.9025 111.826 44.2271 111.826 43.5385C111.826 42.7882 111.893 42.0537 112.022 41.3405Z" fill="#516678"/>
<path fill-rule="evenodd" clip-rule="evenodd" d="M123.966 51.8366C129.228 51.8366 133.493 47.571 133.493 42.3092C133.493 37.0473 129.228 32.7817 123.966 32.7817C118.704 32.7817 114.438 37.0473 114.438 42.3092C114.438 47.571 118.704 51.8366 123.966 51.8366ZM124.043 47.9949C127.14 47.9949 129.652 45.4837 129.652 42.386C129.652 39.2883 127.14 36.7771 124.043 36.7771C120.945 36.7771 118.434 39.2883 118.434 42.386C118.434 45.4837 120.945 47.9949 124.043 47.9949Z" fill="#20A2DC"/>
<path fill-rule="evenodd" clip-rule="evenodd" d="M107.062 78.4213C106.448 74.093 105.249 64.9753 105.372 64.0533C105.526 62.9008 106.217 61.5178 107.37 60.9799V57.3687C107.6 55.4991 109.198 51.4832 113.747 50.3768C114.541 51.3244 116.405 53.3118 117.512 53.6807C115.745 53.5014 111.995 54.0648 111.135 57.7529V60.0579H137.181V57.9834C137.079 56.5491 135.706 53.6807 131.035 53.6807C132.187 52.7842 134.492 50.8685 134.492 50.3768C136.464 50.7609 140.531 52.8201 141.023 57.9834V60.9799C141.663 61.2873 142.929 62.4551 142.867 64.668C142.278 69.1756 141.146 78.2369 141.331 78.4213H137.592L139.102 65.0522C139.154 64.668 139.087 63.8996 138.411 63.8996H110.059C109.726 63.8996 109.091 64.1301 109.214 65.0522L110.724 78.4213H107.062Z" fill="#516678"/>
<path d="M100.762 79.7516C100.762 80.2869 101.27 81.6484 102.299 81.6484H146.094C147.247 81.6484 147.631 80.315 147.631 79.7516C147.631 79.1882 147.247 77.9603 146.089 77.9603H102.299C101.347 77.9603 100.762 79.2164 100.762 79.7516Z" fill="#20A2DC"/>
<circle cx="124.196" cy="71.4294" r="1.92086" fill="#20A2DC"/>
<path fill-rule="evenodd" clip-rule="evenodd" d="M50.8196 51.8366C56.0814 51.8366 60.347 47.571 60.347 42.3092C60.347 37.0473 56.0814 32.7817 50.8196 32.7817C45.5577 32.7817 41.2921 37.0473 41.2921 42.3092C41.2921 47.571 45.5577 51.8366 50.8196 51.8366ZM50.8964 47.9949C53.9941 47.9949 56.5053 45.4837 56.5053 42.386C56.5053 39.2883 53.9941 36.7771 50.8964 36.7771C47.7986 36.7771 45.2874 39.2883 45.2874 42.386C45.2874 45.4837 47.7986 47.9949 50.8964 47.9949Z" fill="#20A2DC"/>
<path fill-rule="evenodd" clip-rule="evenodd" d="M33.916 78.4213C33.3013 74.093 32.1027 64.9753 32.2256 64.0533C32.3793 62.9008 33.0708 61.5178 34.2233 60.9799V57.3687C34.4538 55.4991 36.052 51.4832 40.6006 50.3768C41.3945 51.3244 43.2591 53.3118 44.3655 53.6807C42.5983 53.5014 38.8488 54.0648 37.9882 57.7529V60.0579H64.0351V57.9834C63.9326 56.5491 62.5599 53.6807 57.8883 53.6807C59.0408 52.7842 61.3459 50.8685 61.3459 50.3768C63.318 50.7609 67.3851 52.8201 67.8768 57.9834V60.9799C68.5171 61.2873 69.7823 62.4551 69.7208 64.668C69.1318 69.1756 67.9997 78.2369 68.1842 78.4213H64.4453L65.9559 65.0522C66.0072 64.668 65.9406 63.8996 65.2644 63.8996H36.9125C36.5796 63.8996 35.9444 64.1301 36.0673 65.0522L37.578 78.4213H33.916Z" fill="#516678"/>
<path d="M27.6155 79.7516C27.6155 80.2869 28.1236 81.6484 29.1522 81.6484H72.9479C74.1004 81.6484 74.4846 80.315 74.4846 79.7516C74.4846 79.1882 74.1004 77.9603 72.9423 77.9603H29.1522C28.2004 77.9603 27.6155 79.2164 27.6155 79.7516Z" fill="#20A2DC"/>
<circle cx="51.0501" cy="71.4294" r="1.92086" fill="#20A2DC"/>
<rect x="15.912" y="156.268" width="143.033" height="4.26364" rx="2.13182" fill="#516678"/>
<rect x="161.158" y="156.268" width="7.15163" height="4.26364" rx="2.13182" fill="#20A2DC"/>
<rect x="6.717" y="156.268" width="7.15163" height="4.26364" rx="2.13182" fill="#20A2DC"/>
<rect x="64.4409" y="164.454" width="45.6342" height="4.26364" rx="2.13182" fill="#20A2DC"/>
<rect x="72.7845" y="170.764" width="30.139" height="4.26364" rx="2.13182" fill="#20A2DC"/>
<rect x="83.1714" y="167.353" width="8.68413" height="4.26364" fill="#20A2DC"/>
<rect x="112.118" y="164.454" width="12.6005" height="4.26364" rx="2.13182" fill="#20A2DC"/>
<rect x="49.7971" y="164.454" width="12.6005" height="4.26364" rx="2.13182" fill="#20A2DC"/>
<rect x="170.353" y="156.268" width="4.25692" height="4.26364" rx="2.12846" fill="#20A2DC"/>
<rect x="0.246468" y="156.268" width="4.25692" height="4.26364" rx="2.12846" fill="#20A2DC"/>
</svg>
