<svg width="175" height="176" viewBox="0 0 175 176" fill="none" xmlns="http://www.w3.org/2000/svg">
<path d="M10.3705 67.1794L9.23323 67.749L10.8444 69.8373H8.38027V70.8814L10.8444 70.4068L9.23323 72.7799L10.3705 73.3494L11.3182 70.8814L12.4555 73.3494L13.5928 72.59L11.9816 70.4068L14.6353 70.8814V69.8373H11.9816L13.5928 67.749L12.7398 67.1794L11.3182 69.4576L10.3705 67.1794Z" fill="#20A2DC"/>
<path d="M65.6743 39.6831L64.537 40.2526L66.1482 42.3409H63.6841V43.3851L66.1482 42.9105L64.537 45.2835L65.6743 45.8531L66.622 43.3851L67.7593 45.8531L68.8966 45.0937L67.2854 42.9105L69.9391 43.3851V42.3409H67.2854L68.8966 40.2526L68.0436 39.6831L66.622 41.9612L65.6743 39.6831Z" fill="#20A2DC"/>
<path d="M147.752 35.7395L146.615 36.309L148.226 38.3973H145.762V39.4415L148.226 38.9669L146.615 41.3399L147.752 41.9095L148.7 39.4415L149.837 41.9095L150.974 41.1501L149.363 38.9669L152.017 39.4415V38.3973H149.363L150.974 36.309L150.121 35.7395L148.7 38.0176L147.752 35.7395Z" fill="#20A2DC"/>
<path d="M114.231 26.6198L113.093 27.1893L114.705 29.2776H112.24V30.3217L114.705 29.8471L113.093 32.2202L114.231 32.7897L115.178 30.3217L116.316 32.7897L117.453 32.0303L115.842 29.8471L118.495 30.3217V29.2776H115.842L117.453 27.1893L116.6 26.6198L115.178 28.8979L114.231 26.6198Z" fill="#20A2DC"/>
<path d="M88.7131 2.95776L88.1962 3.23815L88.9285 4.26623H87.8085V4.78027L88.9285 4.54662L88.1962 5.71489L88.7131 5.99528L89.1439 4.78027L89.6608 5.99528L90.1778 5.62143L89.4455 4.54662L90.6517 4.78027V4.26623H89.4455L90.1778 3.23815L89.7901 2.95776L89.1439 4.07931L88.7131 2.95776Z" fill="#20A2DC"/>
<path fill-rule="evenodd" clip-rule="evenodd" d="M21.4056 23.6097C22.6618 23.6097 23.6802 22.5898 23.6802 21.3316C23.6802 20.0734 22.6618 19.0535 21.4056 19.0535C20.1494 19.0535 19.1311 20.0734 19.1311 21.3316C19.1311 22.5898 20.1494 23.6097 21.4056 23.6097ZM21.3757 22.051C21.7889 22.051 22.1239 21.7155 22.1239 21.3016C22.1239 20.8878 21.7889 20.5522 21.3757 20.5522C20.9625 20.5522 20.6275 20.8878 20.6275 21.3016C20.6275 21.7155 20.9625 22.051 21.3757 22.051Z" fill="#516678"/>
<path fill-rule="evenodd" clip-rule="evenodd" d="M35.3952 52.1726C36.6514 52.1726 37.6698 51.1526 37.6698 49.8945C37.6698 48.6363 36.6514 47.6163 35.3952 47.6163C34.139 47.6163 33.1207 48.6363 33.1207 49.8945C33.1207 51.1526 34.139 52.1726 35.3952 52.1726ZM35.3653 50.6139C35.7785 50.6139 36.1135 50.2784 36.1135 49.8645C36.1135 49.4506 35.7785 49.1151 35.3653 49.1151C34.9521 49.1151 34.6171 49.4506 34.6171 49.8645C34.6171 50.2784 34.9521 50.6139 35.3653 50.6139Z" fill="#516678"/>
<path fill-rule="evenodd" clip-rule="evenodd" d="M79.0292 34.1138C81.2423 34.1138 83.0363 32.3169 83.0363 30.1003C83.0363 27.8838 81.2423 26.0869 79.0292 26.0869C76.8162 26.0869 75.0221 27.8838 75.0221 30.1003C75.0221 32.3169 76.8162 34.1138 79.0292 34.1138ZM78.9764 31.3677C79.7044 31.3677 80.2946 30.7766 80.2946 30.0475C80.2946 29.3183 79.7044 28.7273 78.9764 28.7273C78.2484 28.7273 77.6583 29.3183 77.6583 30.0475C77.6583 30.7766 78.2484 31.3677 78.9764 31.3677Z" fill="#516678"/>
<path fill-rule="evenodd" clip-rule="evenodd" d="M153.824 64.688C155.145 64.688 156.217 63.6149 156.217 62.2912C156.217 60.9675 155.145 59.8944 153.824 59.8944C152.502 59.8944 151.431 60.9675 151.431 62.2912C151.431 63.6149 152.502 64.688 153.824 64.688ZM153.792 63.0478C154.227 63.0478 154.579 62.6948 154.579 62.2594C154.579 61.824 154.227 61.471 153.792 61.471C153.357 61.471 153.005 61.824 153.005 62.2594C153.005 62.6948 153.357 63.0478 153.792 63.0478Z" fill="#516678"/>
<path fill-rule="evenodd" clip-rule="evenodd" d="M153.084 17.8569C154.406 17.8569 155.477 16.7839 155.477 15.4601C155.477 14.1364 154.406 13.0634 153.084 13.0634C151.763 13.0634 150.691 14.1364 150.691 15.4601C150.691 16.7839 151.763 17.8569 153.084 17.8569ZM153.053 16.2168C153.487 16.2168 153.84 15.8638 153.84 15.4284C153.84 14.9929 153.487 14.6399 153.053 14.6399C152.618 14.6399 152.265 14.9929 152.265 15.4284C152.265 15.8638 152.618 16.2168 153.053 16.2168Z" fill="#516678"/>
<path d="M38.0847 144.878V156.525H41.7905V144.878C41.7149 144.324 41.2309 143.214 39.8998 143.214C38.5687 143.214 38.1351 144.324 38.0847 144.878Z" fill="#20A2DC"/>
<path d="M89.7392 144.954V156.601H93.445V144.954C93.3693 144.399 92.8853 143.29 91.5543 143.29C90.2232 143.29 89.7896 144.399 89.7392 144.954Z" fill="#20A2DC"/>
<path fill-rule="evenodd" clip-rule="evenodd" d="M30.8244 125.744L48.824 116.139C49.1013 114.728 50.0946 111.526 51.8492 110.013V104.568L55.4793 110.24C55.1768 113.165 56.765 119.694 65.538 123.702C67.5043 123.022 74.3865 119.316 75.521 112.963L80.815 111.828C81.3444 112.282 82.3275 114.702 82.6301 116.291L100.252 125.593C102.218 126.652 105.167 129.147 105.697 134.744L108.949 156.752H105.319L101.915 134.215C101.714 132.778 100.932 130.055 97.9827 128.618L83.2351 120.677C83.1595 124.08 82.4788 131.568 80.6637 136.786L80.639 136.857C80.3218 137.771 80.0281 138.618 78.8486 138.677C77.6386 138.737 77.0335 137.92 77.0335 137.24C76.8319 135.778 75.2184 132.021 72.1933 130.736L70.3026 134.441L74.9159 151.08V152.139L67.353 159.172H64.4035L56.6138 152.139V151.231L61.1515 134.441L59.1851 130.736C57.8995 131.265 55.2524 133.685 54.4962 137.24C54.4709 137.593 53.8911 138.677 52.7567 138.677C52.2273 138.677 51.3046 138.389 50.9416 137.24C49.9332 134.29 47.977 126.848 48.219 120.677L34.152 128.24C30.8849 129.45 29.7151 132.727 29.5387 134.215L26.211 157.13L22.4296 157.508L25.7572 133.988C26.0597 129.389 29.2614 126.576 30.8244 125.744ZM53.2105 131.265C51.0929 123.823 51.9752 117.828 52.6811 115.761C54.4961 120.964 59.1851 124.383 61.3028 125.442C57.0676 126.894 54.1432 129.929 53.2105 131.265ZM78.6974 115.761C79.4033 117.828 80.2856 123.748 78.168 131.189C77.1848 129.223 74.3109 126.894 70.0757 125.442C72.1933 124.383 76.8823 120.964 78.6974 115.761ZM65.6892 128.013C64.1161 128.013 62.8153 128.719 62.3616 129.072L64.2523 132.173H67.1262L69.0169 129.072C68.5631 128.719 67.2623 128.013 65.6892 128.013ZM64.5548 135.878L60.5465 150.702L65.7649 155.466L70.9832 150.702L66.9749 135.878H64.5548Z" fill="#516678"/>
<path fill-rule="evenodd" clip-rule="evenodd" d="M60.3195 110.618C60.985 114.309 64.3278 115.534 65.916 115.686C54.2995 115.444 50.639 105.098 50.2609 99.9548H47.5382C41.3368 99.9548 38.0847 93.7532 38.0847 90.3499V84.2996C38.0847 74.9216 45.1938 58.0564 65.4623 57.527C85.1258 57.0134 93.4449 74.9973 93.4449 83.9214V90.3499C93.4449 95.3414 88.4535 99.1985 87.0165 99.1985V103.358C86.6535 106.262 84.1426 107.341 82.9325 107.518L69.1111 110.499C68.6208 111.382 67.6786 111.98 66.5968 111.98C65.0096 111.98 63.7229 110.693 63.7229 109.106C63.7229 107.519 65.0096 106.232 66.5968 106.232C67.308 106.232 67.9589 106.49 68.4607 106.918L68.4874 106.913L81.1931 104.19C82.8266 104.069 83.2854 103.434 83.3107 103.131V99.9548H81.1931V100.333C81.0528 100.364 80.8474 100.408 80.6005 100.461L80.5968 100.462L80.5967 100.462L80.5964 100.462L80.5959 100.462C79.6437 100.666 78.0797 101.001 77.2604 101.24C77.6386 100.711 77.7393 98.3161 77.7141 97.1565C77.6385 94.2322 77.6386 87.9298 77.7141 84.7534C77.7833 81.8444 80.3107 80.3165 81.4956 79.9131C78.2284 70.4141 69.6975 68.3419 65.8404 68.4932C55.8574 68.6142 51.0928 76.1569 49.9584 79.9131C52.908 80.745 53.8154 83.5433 53.8154 84.7534V98.4422C53.8759 105.098 58.1767 109.333 60.3195 110.618ZM50.034 84.9046V96.1733H47.1602C46.0257 96.1733 41.7905 94.7363 41.7905 89.5936C41.7905 84.6021 46.177 83.3164 48.0677 83.3164C49.5047 83.3164 50.034 84.2239 50.034 84.9046ZM81.42 96.0977V84.829C81.42 84.1483 81.9494 83.2408 83.3864 83.2408C85.277 83.2408 89.6635 84.5265 89.6635 89.518C89.6636 94.6607 85.4283 96.0977 84.2939 96.0977H81.42ZM46.2526 79.7619C44.8611 79.9434 42.8998 81.1484 42.0931 81.7282C42.925 74.5435 49.9585 61.0059 65.6136 61.2328C82.3124 61.4748 88.4535 74.9972 89.4367 81.7282C88.4686 80.6997 86.2603 79.9887 85.2771 79.7619C81.7679 67.4797 70.7059 64.7117 65.6136 64.863C53.15 65.0445 47.5131 74.8712 46.2526 79.7619Z" fill="#516678"/>
<path d="M57.3701 90.6894C57.3701 89.2231 58.5942 88.8373 58.8826 88.8373H61.5297C61.7893 88.8373 62.9666 89.2077 62.9666 90.6894C62.9666 92.1711 61.7604 92.5431 61.5297 92.5431H58.8826C58.6519 92.5431 57.3701 92.2329 57.3701 90.6894Z" fill="#20A2DC"/>
<path d="M68.5631 90.6894C68.5631 89.2231 69.7872 88.8373 70.0757 88.8373H72.7227C72.9823 88.8373 74.1596 89.2077 74.1596 90.6894C74.1596 92.1711 72.9535 92.5431 72.7227 92.5431H70.0757C69.8449 92.5431 68.5631 92.2329 68.5631 90.6894Z" fill="#20A2DC"/>
<path d="M62.0591 101.731C62.0591 100.265 63.2832 99.879 63.5716 99.879H68.0337C68.2934 99.879 69.4707 100.249 69.4707 101.731C69.4707 103.213 68.2645 103.585 68.0337 103.585H63.5716C63.3409 103.585 62.0591 103.275 62.0591 101.731Z" fill="#20A2DC"/>
<path fill-rule="evenodd" clip-rule="evenodd" d="M101.407 87.0645L99.9108 92.6861C99.5344 94.2234 99.8522 95.7993 102.755 95.0479L108.238 93.0791C111.715 95.3014 115.542 96.2751 120.18 96.4063C128.512 96.6421 144.493 91.1157 145.578 71.7945C146.067 63.0764 138.643 47.2117 121.114 46.7157C113.175 46.491 96.4736 52.705 95.7276 70.9345C95.3965 79.0277 99.7705 86.2315 101.407 87.0645ZM104.654 85.111L105.449 85.9989L104.504 90.3976L108.035 89.14L109.136 89.1712C111.752 91.2119 116.333 92.6788 120.125 92.7862C130.108 93.0686 141.094 85.6703 141.636 72.0763C141.984 63.3548 136.01 51.29 120.852 50.4056C112.685 49.929 99.9707 57.2093 99.5837 70.8863C99.732 79.5438 103.696 84.3992 104.654 85.111Z" fill="#20A2DC"/>
<path fill-rule="evenodd" clip-rule="evenodd" d="M114.204 57.6805C114.688 57.9232 115.437 58.1086 115.628 57.2301C115.742 56.7035 116.734 54.9917 118.268 54.9737L123.172 55.1125C124.336 55.1454 125.597 56.5817 125.627 57.2063C125.658 57.8309 126.016 58.6405 127.262 57.9887C127.818 57.6977 129.606 57.5029 130.382 58.261L134.016 62.1058C134.373 62.4839 134.801 64.4086 134.172 65.2387C133.828 65.6929 133.588 66.3877 134.801 66.8514C135.407 67.114 136.789 68.1346 136.753 69.4217L136.626 73.8962C136.607 74.5704 135.629 76.6284 134.582 76.7828C133.841 76.9459 133.093 77.3541 133.789 78.7847C134.024 79.1594 134.225 80.6987 133.532 81.3539L129.684 85.1096C128.991 85.7647 127.33 85.9018 126.369 85.1998C126.007 84.9851 125.215 84.7746 124.945 85.6503C124.608 86.7449 123.1 87.9904 122.058 87.9609L117.706 87.8378C116.848 87.8135 115.121 86.7831 114.942 85.7966C114.752 84.7484 113.875 84.4782 113.191 84.8269C112.572 85.1417 111.338 85.2652 110.436 84.6262C109.234 83.7334 107.015 81.4912 106.559 80.7133C105.974 79.7152 105.805 78.4222 106.469 77.3982C106.977 76.6151 106.438 76.3115 105.77 76.0902C105.101 75.8688 103.729 74.4988 103.762 73.3343L103.892 68.7372C103.918 67.8178 104.883 66.2502 106.489 65.8662C106.839 65.7739 107.409 65.4138 106.889 64.712C106.83 64.649 105.896 62.9663 106.978 61.586C108.076 60.3493 110.329 58.0616 110.952 57.7112C111.638 57.3257 112.753 56.9524 114.204 57.6805ZM118.271 59.7925L118.314 58.2752C118.321 58.0223 118.42 57.6454 119.027 57.6626L122.441 57.7592C122.798 57.7693 123.069 57.9334 123.056 58.4094L123.013 59.9267C124.021 60.0818 126.256 60.6766 127.135 61.8151L128.371 60.6478C128.696 60.3406 128.947 60.411 129.377 60.8661L131.589 63.2066C131.824 63.456 132.076 63.8531 131.558 64.2814L130.455 65.2626C131.004 65.9741 132.091 67.8019 132.045 69.4204L133.626 69.4652C133.879 69.4723 134.321 69.5101 134.304 70.1171L134.209 73.4679C134.2 73.7841 134.059 74.2863 133.49 74.2702L131.909 74.2254C131.647 75.3148 130.8 77.6488 130.023 78.2849L131.192 79.4569C131.376 79.652 131.429 80.0331 131.037 80.4649L128.566 82.7995C128.371 82.9838 127.988 83.0995 127.681 82.7744L126.577 81.541C125.91 82.0283 124.143 83.0286 122.419 83.1317L122.375 84.7123C122.367 84.9652 122.23 85.341 121.661 85.3249L118.057 85.2229C117.868 85.2175 117.556 85.0442 117.568 84.6395L117.614 82.9957C116.691 82.843 114.585 82.2646 113.553 81.1724L112.383 82.2782C112.123 82.5239 111.619 82.4464 111.312 82.1213L109.1 79.7809C108.916 79.5858 108.74 79.0747 109.067 78.7043L110.234 77.7249C109.748 76.994 108.75 75.1393 108.643 73.567L107.062 73.5223C106.746 73.5134 106.374 73.2497 106.388 72.7439L106.487 69.2666C106.496 68.9505 106.758 68.6415 107.263 68.6559L108.779 68.762C108.974 67.8395 109.599 65.7354 110.539 64.699L109.497 63.5305C109.312 63.3355 109.195 63.0158 109.65 62.5858L111.992 60.3109C112.187 60.1266 112.7 59.888 113.13 60.3431L114.113 61.3833C114.844 60.8767 116.7 59.8493 118.271 59.7925Z" fill="#516678"/>
<path fill-rule="evenodd" clip-rule="evenodd" d="M120.08 77.7149C123.553 77.8132 126.448 75.0775 126.546 71.6046C126.644 68.1317 123.908 65.2367 120.435 65.1384C116.963 65.0401 114.068 67.7758 113.969 71.2487C113.871 74.7216 116.607 77.6167 120.08 77.7149ZM120.169 74.5708C121.905 74.6199 123.352 73.2521 123.402 71.5156C123.451 69.7792 122.083 68.3316 120.346 68.2825C118.61 68.2334 117.162 69.6012 117.113 71.3377C117.064 73.0741 118.432 74.5216 120.169 74.5708Z" fill="#20A2DC"/>
<rect x="15.912" y="156.268" width="143.033" height="4.26364" rx="2.13182" fill="#516678"/>
<rect x="161.158" y="156.268" width="7.15163" height="4.26364" rx="2.13182" fill="#20A2DC"/>
<rect x="6.717" y="156.268" width="7.15163" height="4.26364" rx="2.13182" fill="#20A2DC"/>
<rect x="64.4409" y="164.454" width="45.6342" height="4.26364" rx="2.13182" fill="#20A2DC"/>
<rect x="72.7845" y="170.764" width="30.139" height="4.26364" rx="2.13182" fill="#20A2DC"/>
<rect x="83.1714" y="167.353" width="8.68413" height="4.26364" fill="#20A2DC"/>
<rect x="112.118" y="164.454" width="12.6005" height="4.26364" rx="2.13182" fill="#20A2DC"/>
<rect x="49.7971" y="164.454" width="12.6005" height="4.26364" rx="2.13182" fill="#20A2DC"/>
<rect x="170.353" y="156.268" width="4.25692" height="4.26364" rx="2.12846" fill="#20A2DC"/>
<rect x="0.246468" y="156.268" width="4.25692" height="4.26364" rx="2.12846" fill="#20A2DC"/>
</svg>
