<svg width="175" height="175" viewBox="0 0 175 175" fill="none" xmlns="http://www.w3.org/2000/svg">
<path fill-rule="evenodd" clip-rule="evenodd" d="M19.2115 73.9061H23.8856C23.3549 77.237 23.0792 80.6529 23.0792 84.1331C23.0792 119.578 51.6736 148.345 87.053 148.624V153.047C49.1378 152.817 18.4726 122.01 18.4726 84.0406C18.4726 80.5977 18.7247 77.2137 19.2115 73.9061ZM151.259 73.9061H155.748C156.235 77.2137 156.487 80.5977 156.487 84.0406C156.487 106.556 145.705 126.552 129.022 139.148V133.544C143.11 121.714 152.065 103.969 152.065 84.1331C152.065 80.6529 151.789 77.237 151.259 73.9061ZM116.921 21.6107C107.991 17.3922 98.0112 15.0332 87.48 15.0332C77.0819 15.0332 67.2209 17.333 58.3779 21.4517C58.5516 22.3566 58.6425 23.2909 58.6425 24.2464C58.6425 25.0366 58.5803 25.8123 58.4606 26.5689C67.2059 22.1374 77.0974 19.6402 87.5721 19.6402C98.1271 19.6402 108.09 22.1758 116.885 26.6711C116.754 25.8823 116.686 25.0723 116.686 24.2464C116.686 23.3467 116.767 22.4659 116.921 21.6107Z" fill="#516678"/>
<path fill-rule="evenodd" clip-rule="evenodd" d="M131.063 34.1971C137.373 34.1971 142.488 29.0822 142.488 22.7726C142.488 16.463 137.373 11.3481 131.063 11.3481C124.754 11.3481 119.639 16.463 119.639 22.7726C119.639 29.0822 124.754 34.1971 131.063 34.1971ZM131.156 29.5904C134.87 29.5904 137.881 26.5792 137.881 22.8647C137.881 19.1503 134.87 16.1391 131.156 16.1391C127.441 16.1391 124.43 19.1503 124.43 22.8647C124.43 26.5792 127.441 29.5904 131.156 29.5904Z" fill="#20A2DC"/>
<path fill-rule="evenodd" clip-rule="evenodd" d="M110.794 66.075C110.057 60.8848 108.62 49.9518 108.767 48.8462C108.952 47.4642 109.781 45.8058 111.163 45.1608V40.8306C111.439 38.5887 113.355 33.7732 118.81 32.4465C119.762 33.5828 121.998 35.966 123.324 36.4082C121.205 36.1933 116.709 36.8689 115.677 41.2913V44.0553H146.91V41.5677C146.787 39.8479 145.141 36.4082 139.54 36.4082C140.922 35.3334 143.686 33.0362 143.686 32.4465C146.05 32.9072 150.927 35.3764 151.517 41.5677V45.1608C152.285 45.5294 153.802 46.9298 153.728 49.5832C153.022 54.9883 151.664 65.8539 151.885 66.075H147.402L149.213 50.0442C149.275 49.5836 149.195 48.6622 148.384 48.6622H114.387C113.988 48.6622 113.226 48.9386 113.374 50.0442L115.185 66.075H110.794Z" fill="#516678"/>
<path d="M103.239 67.6699C103.239 68.3117 103.849 69.9443 105.082 69.9443H157.598C158.98 69.9443 159.44 68.3455 159.44 67.6699C159.44 66.9943 158.98 65.522 157.591 65.522H105.082C103.941 65.522 103.239 67.0281 103.239 67.6699Z" fill="#20A2DC"/>
<circle cx="131.34" cy="57.6908" r="2.30332" fill="#20A2DC"/>
<path fill-rule="evenodd" clip-rule="evenodd" d="M43.3531 34.1971C49.6627 34.1971 54.7776 29.0822 54.7776 22.7726C54.7776 16.463 49.6627 11.3481 43.3531 11.3481C37.0436 11.3481 31.9286 16.463 31.9286 22.7726C31.9286 29.0822 37.0436 34.1971 43.3531 34.1971ZM43.4452 29.5904C47.1597 29.5904 50.1709 26.5792 50.1709 22.8647C50.1709 19.1503 47.1597 16.1391 43.4452 16.1391C39.7307 16.1391 36.7195 19.1503 36.7195 22.8647C36.7195 26.5792 39.7307 29.5904 43.4452 29.5904Z" fill="#20A2DC"/>
<path fill-rule="evenodd" clip-rule="evenodd" d="M23.0838 66.075C22.3468 60.8848 20.9095 49.9518 21.0569 48.8462C21.2412 47.4642 22.0704 45.8058 23.4524 45.1608V40.8306C23.7288 38.5887 25.6451 33.7732 31.0994 32.4465C32.0514 33.5828 34.2872 35.966 35.6139 36.4082C33.4948 36.1933 28.9988 36.8689 27.9669 41.2913V44.0553H59.1999V41.5677C59.077 39.8479 57.4309 36.4082 51.8292 36.4082C53.2112 35.3334 55.9752 33.0362 55.9752 32.4465C58.34 32.9072 63.2169 35.3764 63.8065 41.5677V45.1608C64.5743 45.5294 66.0914 46.9298 66.0177 49.5832C65.3113 54.9883 63.9539 65.8539 64.175 66.075H59.6917L61.5031 50.0442C61.5645 49.5836 61.4847 48.6622 60.6739 48.6622H26.6769C26.2777 48.6622 25.5161 48.9386 25.6635 50.0442L27.4749 66.075H23.0838Z" fill="#516678"/>
<path d="M15.529 67.6699C15.529 68.3117 16.1382 69.9443 17.3716 69.9443H69.8873C71.2693 69.9443 71.7299 68.3455 71.7299 67.6699C71.7299 66.9943 71.2693 65.522 69.8806 65.522H17.3716C16.2304 65.522 15.529 67.0281 15.529 67.6699Z" fill="#20A2DC"/>
<circle cx="43.6295" cy="57.6908" r="2.30332" fill="#20A2DC"/>
<path fill-rule="evenodd" clip-rule="evenodd" d="M77.8861 95.3303C81.5712 95.3303 84.5586 92.3429 84.5586 88.6578C84.5586 84.9727 81.5712 81.9854 77.8861 81.9854C74.201 81.9854 71.2137 84.9727 71.2137 88.6578C71.2137 92.3429 74.201 95.3303 77.8861 95.3303ZM77.94 92.64C80.1094 92.64 81.8681 90.8813 81.8681 88.7118C81.8681 86.5424 80.1094 84.7837 77.94 84.7837C75.7705 84.7837 74.0119 86.5424 74.0119 88.7118C74.0119 90.8813 75.7705 92.64 77.94 92.64Z" fill="#20A2DC"/>
<path fill-rule="evenodd" clip-rule="evenodd" d="M66.048 113.949C65.6175 110.917 64.7781 104.532 64.8642 103.886C64.9718 103.079 65.4561 102.111 66.2632 101.734V99.2048C66.4247 97.8954 67.5439 95.083 70.7295 94.3081C71.2855 94.9718 72.5913 96.3637 73.3662 96.6219C72.1285 96.4964 69.5026 96.891 68.8999 99.4739V101.088H87.1416V99.6353C87.0698 98.6309 86.1084 96.6219 82.8368 96.6219C83.6439 95.9942 85.2582 94.6525 85.2582 94.3081C86.6393 94.5772 89.4877 96.0193 89.8321 99.6353V101.734C90.2805 101.949 91.1666 102.767 91.1235 104.317C90.711 107.474 89.9182 113.82 90.0473 113.949H87.4288L88.4868 104.586C88.5226 104.317 88.476 103.779 88.0025 103.779H68.1465C67.9134 103.779 67.4685 103.94 67.5546 104.586L68.6126 113.949H66.048Z" fill="#516678"/>
<path d="M61.6355 114.88C61.6355 115.255 61.9913 116.208 62.7117 116.208H93.3835C94.1906 116.208 94.4597 115.275 94.4597 114.88C94.4597 114.486 94.1906 113.626 93.3796 113.626H62.7117C62.0451 113.626 61.6355 114.505 61.6355 114.88Z" fill="#20A2DC"/>
<circle cx="78.0476" cy="109.052" r="1.34525" fill="#20A2DC"/>
<path d="M104.829 120.845L101.623 117.398L98.8972 120.284L102.024 123.41L98.8972 126.537L95.6907 123.25L92.4041 125.655L96.0114 129.262L94.5685 130.705C94.0073 131.186 94.1677 132.148 94.5685 132.549L122.815 163.263C125.14 164.786 126.663 161.419 125.3 160.297L99.2179 131.667L106.833 124.372L117.094 134.553C118.537 135.755 120.862 133.19 119.819 131.907L107.795 119.883C107.314 119.322 106.272 119.482 105.871 119.883L104.829 120.845Z" fill="#516678"/>
<path fill-rule="evenodd" clip-rule="evenodd" d="M77.975 130.625C93.6916 130.625 106.432 117.884 106.432 102.168C106.432 86.451 93.6916 73.7102 77.975 73.7102C62.2585 73.7102 49.5176 86.451 49.5176 102.168C49.5176 117.884 62.2585 130.625 77.975 130.625ZM77.9751 126.617C91.4781 126.617 102.424 115.671 102.424 102.168C102.424 88.6648 91.4781 77.7185 77.9751 77.7185C64.4721 77.7185 53.5257 88.6648 53.5257 102.168C53.5257 115.671 64.4721 126.617 77.9751 126.617Z" fill="#516678"/>
<path d="M109.799 98.1595C109.863 96.6846 109.345 94.9798 109.078 94.3118H123.988C124.629 94.3118 125.671 94.937 125.671 96.1555C125.671 97.3739 124.629 98.1595 123.988 98.1595H109.799Z" fill="#516678"/>
<path d="M109.799 105.935C109.96 104.573 110.04 102.889 109.96 102.088H123.908C124.549 102.088 125.591 102.713 125.591 103.931C125.591 105.15 124.549 105.935 123.908 105.935H109.799Z" fill="#20A2DC"/>
<path d="M105.471 149.062C103.787 147.218 102.986 146.737 101.783 145.214H92.2439C91.6026 145.214 90.5605 145.84 90.5605 147.058C90.5605 148.277 91.6026 149.062 92.2439 149.062H105.471Z" fill="#516678"/>
<path d="M113.326 156.758C111.643 154.914 110.841 154.433 109.639 152.91H92.2439C91.6026 152.91 90.5605 153.535 90.5605 154.754C90.5605 155.972 91.6026 156.758 92.2439 156.758H113.326Z" fill="#20A2DC"/>
<ellipse cx="123.667" cy="138.24" rx="2.00404" ry="2.00404" fill="#20A2DC"/>
</svg>
