<svg width="175" height="176" viewBox="0 0 175 176" fill="none" xmlns="http://www.w3.org/2000/svg">
<path d="M23.9269 79.6127L22.7896 80.1822L24.4007 82.2705H21.9366V83.3146L24.4007 82.84L22.7896 85.2131L23.9269 85.7826L24.8746 83.3146L26.0119 85.7826L27.1491 85.0232L25.538 82.84L28.1916 83.3146V82.2705H25.538L27.1491 80.1822L26.2962 79.6127L24.8746 81.8908L23.9269 79.6127Z" fill="#20A2DC"/>
<path d="M42.4128 23.4155L41.2755 23.9851L42.8866 26.0734H40.4225V27.1175L42.8866 26.6429L41.2755 29.0159L42.4128 29.5855L43.3605 27.1175L44.4978 29.5855L45.635 28.8261L44.0239 26.6429L46.6775 27.1175V26.0734H44.0239L45.635 23.9851L44.7821 23.4155L43.3605 25.6937L42.4128 23.4155Z" fill="#20A2DC"/>
<path d="M114.631 9.85913L113.494 10.4287L115.105 12.517H112.641V13.5611L115.105 13.0865L113.494 15.4595L114.631 16.0291L115.579 13.5611L116.716 16.0291L117.853 15.2697L116.242 13.0865L118.896 13.5611V12.517H116.242L117.853 10.4287L117 9.85913L115.579 12.1373L114.631 9.85913Z" fill="#20A2DC"/>
<path d="M156.532 37.4648L155.395 38.0344L157.006 40.1227H154.542V41.1668L157.006 40.6922L155.395 43.0653L156.532 43.6348L157.48 41.1668L158.617 43.6348L159.755 42.8754L158.144 40.6922L160.797 41.1668V40.1227H158.144L159.755 38.0344L158.902 37.4648L157.48 39.743L156.532 37.4648Z" fill="#20A2DC"/>
<path d="M86.2483 2.95776L85.7314 3.23815L86.4637 4.26623H85.3437V4.78027L86.4637 4.54662L85.7314 5.71489L86.2483 5.99528L86.6791 4.78027L87.1961 5.99528L87.713 5.62143L86.9807 4.54662L88.1869 4.78027V4.26623H86.9807L87.713 3.23815L87.3253 2.95776L86.6791 4.07931L86.2483 2.95776Z" fill="#20A2DC"/>
<path fill-rule="evenodd" clip-rule="evenodd" d="M16.5703 30.6831C17.8265 30.6831 18.8449 29.6631 18.8449 28.405C18.8449 27.1468 17.8265 26.1268 16.5703 26.1268C15.3141 26.1268 14.2958 27.1468 14.2958 28.405C14.2958 29.6631 15.3141 30.6831 16.5703 30.6831ZM16.5404 29.1244C16.9536 29.1244 17.2886 28.7889 17.2886 28.375C17.2886 27.9611 16.9536 27.6256 16.5404 27.6256C16.1272 27.6256 15.7922 27.9611 15.7922 28.375C15.7922 28.7889 16.1272 29.1244 16.5404 29.1244Z" fill="#516678"/>
<path fill-rule="evenodd" clip-rule="evenodd" d="M18.7886 64.6971C20.0448 64.6971 21.0631 63.6772 21.0631 62.419C21.0631 61.1608 20.0448 60.1409 18.7886 60.1409C17.5324 60.1409 16.514 61.1608 16.514 62.419C16.514 63.6772 17.5324 64.6971 18.7886 64.6971ZM18.7586 63.1384C19.1718 63.1384 19.5068 62.8029 19.5068 62.389C19.5068 61.9752 19.1718 61.6396 18.7586 61.6396C18.3454 61.6396 18.0104 61.9752 18.0104 62.389C18.0104 62.8029 18.3454 63.1384 18.7586 63.1384Z" fill="#516678"/>
<path fill-rule="evenodd" clip-rule="evenodd" d="M76.5644 26.7195C78.7775 26.7195 80.5715 24.9226 80.5715 22.7061C80.5715 20.4895 78.7775 18.6926 76.5644 18.6926C74.3514 18.6926 72.5573 20.4895 72.5573 22.7061C72.5573 24.9226 74.3514 26.7195 76.5644 26.7195ZM76.5116 23.9734C77.2396 23.9734 77.8297 23.3823 77.8297 22.6532C77.8297 21.924 77.2396 21.333 76.5116 21.333C75.7836 21.333 75.1935 21.924 75.1935 22.6532C75.1935 23.3823 75.7836 23.9734 76.5116 23.9734Z" fill="#516678"/>
<path fill-rule="evenodd" clip-rule="evenodd" d="M161.865 62.7162C163.186 62.7162 164.258 61.6431 164.258 60.3194C164.258 58.9957 163.186 57.9226 161.865 57.9226C160.543 57.9226 159.472 58.9957 159.472 60.3194C159.472 61.6431 160.543 62.7162 161.865 62.7162ZM161.833 61.0761C162.268 61.0761 162.621 60.7231 162.621 60.2876C162.621 59.8522 162.268 59.4992 161.833 59.4992C161.399 59.4992 161.046 59.8522 161.046 60.2876C161.046 60.7231 161.399 61.0761 161.833 61.0761Z" fill="#516678"/>
<path fill-rule="evenodd" clip-rule="evenodd" d="M150.619 17.8569C151.941 17.8569 153.012 16.7839 153.012 15.4601C153.012 14.1364 151.941 13.0634 150.619 13.0634C149.298 13.0634 148.226 14.1364 148.226 15.4601C148.226 16.7839 149.298 17.8569 150.619 17.8569ZM150.588 16.2168C151.023 16.2168 151.375 15.8638 151.375 15.4284C151.375 14.9929 151.023 14.6399 150.588 14.6399C150.153 14.6399 149.801 14.9929 149.801 15.4284C149.801 15.8638 150.153 16.2168 150.588 16.2168Z" fill="#516678"/>
<rect x="35.5615" y="67.5087" width="22.4382" height="4.02341" fill="#20A2DC"/>
<rect x="86.6279" y="76.7935" width="22.4382" height="4.02341" fill="#20A2DC"/>
<path fill-rule="evenodd" clip-rule="evenodd" d="M95.8008 99.8507H111.078V95.8273H95.8008V99.8507Z" fill="#20A2DC"/>
<path fill-rule="evenodd" clip-rule="evenodd" d="M55.1163 86.3877H35.5615V90.4111H50.4777L55.1163 86.3877Z" fill="#20A2DC"/>
<path fill-rule="evenodd" clip-rule="evenodd" d="M32.6987 105.832V63.1758C32.6987 61.0093 35.0973 58.0691 38.0375 58.0691H41.1324V55.7479C41.1324 54.2005 42.2775 51.6317 45.0011 50.9508V44.4515C45.0011 42.7492 46.4712 39.2675 50.3398 39.2675H94.2104C96.2221 39.2675 99.6266 40.8923 99.6266 44.9157V60.2356C101.174 60.7772 103.34 62.402 103.34 65.1101V67.586H106.822C107.905 67.586 111.852 69.2109 111.852 73.1569V110.952H108.138V108.981H100.33L95.8353 105.843V105.267H108.138V90.179H95.8008V90.0295C95.8008 89.4592 95.4748 88.3186 94.0074 88.3186H91.2158C91.0104 88.2831 90.7964 88.2578 90.5739 88.2447H83.6103V72.9248C83.8424 71.1452 85.2506 67.586 89.0264 67.586H92.044V65.1101C92.1987 63.7948 93.2046 60.9784 95.99 60.2356V44.9157C95.99 44.142 95.7579 43.1361 94.2104 43.1361H50.3398C49.6435 43.1361 48.715 43.3682 48.715 44.6062V50.9508C49.9272 51.2087 52.5063 52.8851 52.5063 55.7479V58.0691H55.9107C57.3034 58.0691 61.0947 60.0035 61.0947 63.64V81.2023L57.3034 84.4908V80.6621H36.49V95.9046H44.1443L39.8625 99.6186H36.49V102.544L32.6987 105.832ZM36.4127 63.64V76.9482H57.1487V63.64C57.1487 63.0984 56.9166 61.9378 55.6012 61.9378H38.4244C37.6506 61.9378 36.4127 62.1699 36.4127 63.64ZM87.4016 86.3877V73.0795C87.4016 71.6094 88.6396 71.3773 89.4133 71.3773H106.59C107.906 71.3773 108.138 72.5379 108.138 73.0795V86.3877H87.4016Z" fill="#516678"/>
<path fill-rule="evenodd" clip-rule="evenodd" d="M31.8476 154.554V116.641L30.1453 118.188C29.4489 118.885 27.7885 118.498 27.3599 117.879C26.6635 116.873 26.741 115.867 27.3599 115.48L62.4873 84.9951C63.4932 84.2213 64.3443 84.6082 64.8085 84.9951L80.7474 98.7675V93.7382C80.7474 92.655 81.8307 92.1134 82.6817 92.1134H90.4191C91.8118 92.1134 92.1213 93.1966 92.1213 93.7382V108.439L99.3943 114.784H139.164C140.155 114.784 140.712 115.454 140.866 115.79L147.675 127.163C148.526 128.866 146.669 129.872 146.05 129.872H142.182V154.786C142.182 156.952 140.866 157.674 140.325 157.881H33.6271C32.1416 157.138 31.8476 155.637 31.8476 154.554ZM35.5615 113.391L63.7254 88.9411L92.1214 113.391V156.256H37.6506C35.7936 156.256 35.5615 155.018 35.5615 154.167V113.391ZM95.99 118.498V126.003H142.646L138.081 118.498H95.99ZM84.5388 101.862V95.9047H88.4074V105.267L84.5388 101.862ZM95.99 129.794V156.256H136.534C137.307 156.256 138.391 155.792 138.391 154.167V129.794H95.99Z" fill="#516678"/>
<path d="M125.928 43.3682C127.648 40.1186 126.134 39.448 125.232 39.2675C123.143 38.958 121.053 42.4398 122.601 46.4632C123.97 50.0223 124.226 50.2545 123.297 51.8793C122.601 53.7363 124.535 54.8195 125.696 54.3552C126.856 53.891 128.868 51.0282 127.166 47.7011C125.86 45.1484 125.696 43.8067 125.928 43.3682Z" fill="#20A2DC"/>
<path d="M133.428 43.31C135.148 40.0603 133.634 39.3898 132.731 39.2092C130.642 38.8997 128.553 42.3815 130.101 46.4049C131.469 49.9641 131.725 50.1962 130.797 51.8211C130.101 53.678 132.035 54.7613 133.196 54.297C134.356 53.8328 136.368 50.97 134.666 47.6429C133.36 45.0902 133.196 43.7485 133.428 43.31Z" fill="#20A2DC"/>
<rect x="121.6" y="88.2446" width="13.9272" height="4.02341" fill="#20A2DC"/>
<path d="M122.374 110.915L126.088 62.8662H130.808L135.063 110.915H138.777L134.599 62.8662H135.063C135.657 62.8662 136.858 62.4948 136.92 61.0093C136.982 59.5237 135.708 59.1007 135.063 59.075H121.755C121.136 59.2039 119.914 59.7713 119.976 61.0093C120.038 62.2473 120.982 62.7631 121.446 62.8662H122.374L118.583 110.915H122.374Z" fill="#516678"/>
<path fill-rule="evenodd" clip-rule="evenodd" d="M108.138 156.952V141.4C108.138 140.162 108.524 139.001 110.227 139.001H124.154C125.005 139.001 126.088 139.466 126.088 141.4V156.952H108.138ZM122.22 143.025H111.852V156.178H122.22V143.025Z" fill="#20A2DC"/>
<rect x="15.912" y="156.268" width="143.033" height="4.26364" rx="2.13182" fill="#516678"/>
<rect x="161.158" y="156.268" width="7.15163" height="4.26364" rx="2.13182" fill="#20A2DC"/>
<rect x="6.71698" y="156.268" width="7.15163" height="4.26364" rx="2.13182" fill="#20A2DC"/>
<rect x="64.4409" y="164.454" width="45.6342" height="4.26364" rx="2.13182" fill="#20A2DC"/>
<rect x="72.7845" y="170.764" width="30.139" height="4.26364" rx="2.13182" fill="#20A2DC"/>
<rect x="83.1713" y="167.353" width="8.68413" height="4.26364" fill="#20A2DC"/>
<rect x="112.118" y="164.454" width="12.6005" height="4.26364" rx="2.13182" fill="#20A2DC"/>
<rect x="49.7971" y="164.454" width="12.6005" height="4.26364" rx="2.13182" fill="#20A2DC"/>
<rect x="170.353" y="156.268" width="4.25692" height="4.26364" rx="2.12846" fill="#20A2DC"/>
<rect x="0.24646" y="156.268" width="4.25692" height="4.26364" rx="2.12846" fill="#20A2DC"/>
<circle cx="62.5297" cy="108.152" r="0.824884" fill="#516678"/>
<circle cx="60.352" cy="110.593" r="0.824884" fill="#D9D9D9"/>
<circle cx="60.352" cy="110.593" r="0.824884" fill="#20A2DC"/>
<circle cx="67.2809" cy="112.639" r="0.824884" fill="#516678"/>
<circle cx="57.8444" cy="112.639" r="0.824884" fill="#516678"/>
<circle cx="55.0067" cy="114.421" r="0.824884" fill="#20A2DC"/>
<circle cx="52.0372" cy="115.741" r="0.824884" fill="#516678"/>
<circle cx="48.8696" cy="116.731" r="0.824884" fill="#20A2DC"/>
<circle cx="45.636" cy="117.193" r="0.824884" fill="#516678"/>
<circle cx="45.834" cy="120.426" r="0.824884" fill="#20A2DC"/>
<circle cx="46.1639" cy="123.594" r="0.824884" fill="#516678"/>
<circle cx="46.7579" cy="126.695" r="0.824884" fill="#20A2DC"/>
<circle cx="47.4838" cy="129.797" r="0.824884" fill="#516678"/>
<circle cx="48.4076" cy="132.898" r="0.824884" fill="#20A2DC"/>
<circle cx="49.5295" cy="135.868" r="0.824884" fill="#516678"/>
<circle cx="50.9153" cy="138.706" r="0.824884" fill="#20A2DC"/>
<circle cx="52.631" cy="141.411" r="0.824884" fill="#516678"/>
<circle cx="54.6768" cy="143.919" r="0.824884" fill="#20A2DC"/>
<circle cx="56.9864" cy="146.096" r="0.824884" fill="#516678"/>
<circle cx="59.6261" cy="147.878" r="0.824884" fill="#20A2DC"/>
<circle cx="62.5297" cy="149.132" r="0.824884" fill="#516678"/>
<circle cx="65.4332" cy="147.878" r="0.824884" fill="#20A2DC"/>
<circle cx="68.0729" cy="146.096" r="0.824884" fill="#516678"/>
<circle cx="70.3826" cy="143.919" r="0.824884" fill="#20A2DC"/>
<circle cx="79.4233" cy="117.258" r="0.824884" fill="#516678"/>
<circle cx="76.1897" cy="116.731" r="0.824884" fill="#20A2DC"/>
<circle cx="73.0882" cy="115.741" r="0.824884" fill="#516678"/>
<circle cx="70.0526" cy="114.421" r="0.824884" fill="#20A2DC"/>
<circle cx="64.7733" cy="110.593" r="0.824884" fill="#20A2DC"/>
<path d="M41.6766 113.926C52.8951 112.606 59.7581 106.139 61.9358 103.17C62.2987 102.576 62.8597 102.736 63.1896 103.17C68.7084 110.428 78.1695 113.398 83.5477 113.926C84.5706 114.026 84.6848 114.454 84.6696 114.784L84.3066 120.426C84.0646 120.25 83.4025 119.872 82.6898 119.766L83.0858 115.444C78.5654 115.147 69.0297 112.606 62.5297 104.984C60.231 107.943 53.027 114.256 42.0395 115.477C42.4355 125.837 46.461 147.317 62.5627 152.729C64.6634 152.124 69.8348 149.594 73.7151 144.579L75.0349 145.47C73.5501 147.669 68.977 152.498 62.5627 154.213C45.3391 149.528 40.6648 126.024 40.4228 114.784C40.4065 114.025 41.1817 113.984 41.6766 113.926Z" fill="#516678"/>
<path fill-rule="evenodd" clip-rule="evenodd" d="M80.5451 135.373C84.5358 135.373 87.771 132.138 87.771 128.147C87.771 124.156 84.5358 120.921 80.5451 120.921C76.5543 120.921 73.3192 124.156 73.3192 128.147C73.3192 132.138 76.5543 135.373 80.5451 135.373ZM80.5553 133.726C83.6071 133.726 86.081 131.252 86.081 128.2C86.081 125.148 83.6071 122.674 80.5553 122.674C77.5035 122.674 75.0296 125.148 75.0296 128.2C75.0296 131.252 77.5035 133.726 80.5553 133.726Z" fill="#516678"/>
<path d="M77.411 128.675C77.3814 128.036 77.9893 127.804 78.2969 127.768C78.4446 127.75 78.5923 127.768 78.8138 127.913L79.9212 128.711L82.2469 125.771C82.6161 125.444 83.2067 125.553 83.4651 125.771C83.7974 126.098 83.7235 126.642 83.5758 126.86L80.5857 130.708C80.0541 130.969 79.6259 130.769 79.4782 130.635L77.7063 129.329C77.4479 129.111 77.4177 128.82 77.411 128.675Z" fill="#20A2DC"/>
<path fill-rule="evenodd" clip-rule="evenodd" d="M59.2307 132.991H55.7683C55.3166 133.091 54.4059 133.525 54.3758 134.459V136.717C54.3381 137.306 54.5639 138.471 55.7683 138.41H69.5428C69.9191 138.448 70.7095 138.162 70.86 136.717V134.609C70.8475 134.12 70.5665 133.111 69.5428 132.991H66.0427C65.5158 132.276 64.6878 130.131 66.3438 127.346C69.2041 124.109 67.7363 118.605 62.6179 118.426C59.3812 118.313 54.865 122.415 58.9296 127.534C59.582 128.537 60.5555 131.034 59.2307 132.991ZM56.1822 134.76V136.604H68.9783V134.76H65.9298C65.1395 134.747 63.5437 133.902 63.4835 130.62C63.5462 129.729 63.8975 127.632 64.8007 126.367C65.3653 125.803 66.0051 124.711 66.0051 123.544C66.0051 122.453 65.3276 120.115 62.5803 120.082C61.4136 120.068 59.3436 120.835 59.1554 123.469C59.1554 124.071 59.2683 125.276 60.4727 126.367C60.6608 126.538 61.8266 128.926 61.7523 130.62C61.6895 132.05 61.1426 134.88 59.4565 134.76H56.1822Z" fill="#20A2DC"/>
<path d="M76.1347 137.721C76.1347 138.529 76.9748 138.996 77.4549 138.996H86.096C86.456 138.996 87.3561 138.571 87.3561 137.721C87.3561 136.871 86.516 136.446 86.096 136.446H77.4549C76.9748 136.446 76.1347 136.914 76.1347 137.721Z" fill="#516678"/>
<path d="M72.2242 141.802C72.2242 142.609 73.0644 143.077 73.5444 143.077H82.1855C82.5456 143.077 83.4457 142.652 83.4457 141.802C83.4457 140.952 82.6056 140.527 82.1855 140.527H73.5444C73.0644 140.527 72.2242 140.994 72.2242 141.802Z" fill="#516678"/>
</svg>
