<svg width="175" height="175" viewBox="0 0 175 175" fill="none" xmlns="http://www.w3.org/2000/svg">
<path fill-rule="evenodd" clip-rule="evenodd" d="M55.5234 24.6898C55.6839 20.7084 58.259 12.7648 67.275 12.8419C76.291 12.9189 78.8661 20.8368 79.0267 24.6898H87.6959C90.5856 24.6898 94.3423 27.8686 94.3423 31.8179V37.5011C94.3423 39.0422 93.668 40.9687 91.2599 40.9687C90.8317 40.9687 89.5727 40.9726 87.7056 40.9782C78.7383 41.0054 55.7438 41.075 43.3864 40.9687C42.2305 40.9687 40.304 40.1018 40.304 37.8864V31.5289C40.304 29.0245 42.7122 24.6898 46.8541 24.6898H55.5234ZM60.2432 26.2309V24.0155C60.2432 21.8 62.4201 17.6387 67.2749 17.5617C72.1297 17.4846 74.3066 21.8 74.3066 24.0155V26.2309C74.3066 27.5795 75.3662 29.3133 77.1964 29.3133H87.3105C88.2737 29.3133 89.5452 29.8528 89.6223 31.6251C89.6994 33.3975 89.6544 35.446 89.6223 36.2487H45.0239V31.6251C45.0881 30.8545 45.5055 29.3133 47.3357 29.3133H57.2571C58.413 29.3133 60.2432 28.5427 60.2432 26.2309Z" fill="#516678"/>
<path d="M35.6806 35.2852V30.469H25.6627C21.0391 30.469 19.1126 35.2852 19.1126 37.5007V156.173C19.1126 158.388 19.9939 162.159 23.5571 162.159H106.961H111.378C115.048 162.159 115.534 158.003 115.534 156.655V146.252C113.068 147.099 111.296 146.605 110.718 146.252V156.173C110.718 158.388 109.176 158.388 107.924 158.388H26.1444C23.8326 158.388 23.8326 157.04 23.8326 155.691V37.5007C23.8326 35.7669 25.2774 35.2852 26.337 35.2852H35.6806Z" fill="#516678"/>
<path d="M98.9659 30.469V35.1889H108.791C109.947 35.1889 110.814 36.5375 110.814 37.5007V57.8253C112.548 57.2473 114.282 57.5363 115.438 57.8253V36.9228C115.438 31.8175 111.007 30.469 108.791 30.469H98.9659Z" fill="#516678"/>
<path fill-rule="evenodd" clip-rule="evenodd" d="M80.1825 75.8401C80.1825 74.6842 81.242 73.5188 82.3016 73.721C98.9658 76.8997 108.341 68.0057 111.295 63.1252C112.837 61.507 114.378 62.4509 114.956 63.1252C121.891 74.2218 137.046 74.8126 143.757 73.721C145.683 73.721 146.069 75.1658 146.069 76.2254V102.137C145.906 104.229 145.58 106.241 145.116 108.174C143.635 107.725 142.086 107.434 140.488 107.321C140.801 105.93 141.028 104.495 141.156 103.015V80.9913V78.6334C134.702 79.5966 120.061 77.5738 113.126 68.3266C110.613 72.4748 99.2548 80.3672 85.1072 78.8261V80.6638C85.1072 80.8655 85.1064 81.4472 85.1052 82.308C85.0994 86.4872 85.0846 97.2443 85.1072 103.015C85.4077 110.82 91.5488 127.566 113.132 137.103C114.73 136.452 116.623 135.533 118.661 134.349C119.089 135.818 119.672 137.221 120.392 138.539C117.698 140.085 115.194 141.244 113.126 142.015C87.6187 132.152 80.5357 111.32 80.1825 102.137C80.1559 95.3477 80.1733 82.692 80.1801 77.7748V77.7748C80.1815 76.7619 80.1825 76.0774 80.1825 75.8401Z" fill="#20A2DC"/>
<path d="M117.525 86.3787V88.3255C120.715 89.0207 121.339 91.3846 121.131 92.6361C120.715 95.1391 118.634 96.2515 117.109 95.5562C115.167 94.4438 113.642 94.3048 112.671 94.3048C111.27 94.3048 109.759 95 109.759 95.9734C109.759 96.6687 111.146 97.642 116.693 99.1716C121.824 100.586 123.488 105.29 123.35 107.654C123.04 112.938 118.634 115.487 116.693 115.858V118.222C116.693 119.473 115.112 120.864 113.226 120.864C111.34 120.864 109.898 119.473 109.898 118.222V115.858C106.292 115.58 104.766 112.799 104.766 111.269C104.766 109.044 107.54 107.237 108.788 107.932C111.043 109.188 113.087 109.462 113.365 109.462C113.642 109.462 116.138 109.879 116.416 107.515C116.637 105.624 111.053 104.038 108.233 103.482C106.523 103.019 103.074 100.812 102.963 95.6953C102.853 90.5781 108.095 88.0937 110.73 87.4911V86.3787C110.73 84.8491 112.061 83.5977 114.058 83.5977C116.055 83.5977 117.525 84.9882 117.525 86.3787Z" fill="#20A2DC"/>
<path fill-rule="evenodd" clip-rule="evenodd" d="M138.859 145.068C148.115 145.068 155.619 137.564 155.619 128.307C155.619 119.051 148.115 111.547 138.859 111.547C129.602 111.547 122.098 119.051 122.098 128.307C122.098 137.564 129.602 145.068 138.859 145.068ZM138.955 140.83C145.818 140.83 151.381 135.267 151.381 128.404C151.381 121.541 145.818 115.978 138.955 115.978C132.092 115.978 126.529 121.541 126.529 128.404C126.529 135.267 132.092 140.83 138.955 140.83Z" fill="#516678"/>
<path d="M133.081 129.576C133.026 128.366 134.159 127.925 134.732 127.857C135.007 127.824 135.283 127.857 135.695 128.132L137.759 129.645L142.092 124.074C142.78 123.456 143.881 123.662 144.362 124.074C144.981 124.693 144.844 125.725 144.569 126.137L138.997 133.427C138.006 133.922 137.209 133.541 136.933 133.289L133.632 130.814C133.15 130.401 133.094 129.851 133.081 129.576Z" fill="#20A2DC"/>
<path d="M48.6845 64.9611C48.6845 63.3018 49.6775 62.7613 50.174 62.6985H101.009C101.484 62.8556 102.434 63.5281 102.434 64.9611C102.434 66.3941 101.484 67.0037 101.009 67.1294H50.174C49.6775 67.098 48.6845 66.6203 48.6845 64.9611Z" fill="#516678"/>
<circle cx="36.7388" cy="64.9648" r="2.51799" fill="#516678"/>
<path d="M48.6845 76.04C48.6845 74.3807 49.6775 73.8402 50.1739 73.7773H75.772C75.5659 74.7727 75.2155 77.0524 75.4628 78.2083H74.0382H50.1739C49.6775 78.1769 48.6845 77.6992 48.6845 76.04Z" fill="#20A2DC"/>
<circle cx="36.7388" cy="76.0436" r="2.51799" fill="#516678"/>
<path d="M48.6845 86.8673C48.6845 85.2081 49.6775 84.6676 50.1739 84.6047H75.4628V89.0357H74.0381H50.1739C49.6775 89.0043 48.6845 88.5266 48.6845 86.8673Z" fill="#516678"/>
<circle cx="36.7388" cy="86.871" r="2.51799" fill="#516678"/>
<path d="M48.6845 97.946C48.6845 96.2867 49.6775 95.7462 50.174 95.6833H75.4628V100.114H74.0382H50.174C49.6775 100.083 48.6845 99.6052 48.6845 97.946Z" fill="#20A2DC"/>
<circle cx="36.7388" cy="97.9496" r="2.51799" fill="#516678"/>
<path d="M48.6845 112.558C48.6845 114.218 49.6775 114.758 50.174 114.821H77.582C77.1967 113.28 76.8114 112.991 76.4261 110.39H74.0382H50.174C49.6775 110.422 48.6845 110.899 48.6845 112.558Z" fill="#516678"/>
<circle cx="36.7388" cy="112.555" r="2.51799" fill="#516678"/>
<path d="M48.6845 123.637C48.6845 125.296 49.6775 125.837 50.1739 125.9H83.9394C83.245 124.551 82.2056 123.877 81.3387 121.469H74.0382H50.1739C49.6775 121.5 48.6845 121.978 48.6845 123.637Z" fill="#20A2DC"/>
<circle cx="36.7388" cy="123.633" r="2.51799" fill="#516678"/>
<path d="M48.6845 134.464C48.6845 136.124 49.6775 136.664 50.1739 136.727H94.9205C93.8609 135.956 91.9344 134.512 90.0079 132.296H74.0381H50.1739C49.6775 132.328 48.6845 132.805 48.6845 134.464Z" fill="#516678"/>
<circle cx="36.7388" cy="134.461" r="2.51799" fill="#516678"/>
</svg>
