<svg width="175" height="176" viewBox="0 0 175 176" fill="none" xmlns="http://www.w3.org/2000/svg">
<path d="M44.5386 60.0316L43.4013 60.6012L45.0124 62.6894H42.5483V63.7336L45.0124 63.259L43.4013 65.632L44.5386 66.2016L45.4863 63.7336L46.6236 66.2016L47.7608 65.4422L46.1497 63.259L48.8033 63.7336V62.6894H46.1497L47.7608 60.6012L46.9079 60.0316L45.4863 62.3098L44.5386 60.0316Z" fill="#20A2DC"/>
<path d="M43.6603 30.4976L42.523 31.0671L44.1341 33.1554H41.67V34.1995L44.1341 33.7249L42.523 36.098L43.6603 36.6675L44.608 34.1995L45.7453 36.6675L46.8825 35.9081L45.2714 33.7249L47.925 34.1995V33.1554H45.2714L46.8825 31.0671L46.0296 30.4976L44.608 32.7757L43.6603 30.4976Z" fill="#20A2DC"/>
<path d="M163.341 80.6094L162.204 81.1789L163.815 83.2672H161.351V84.3113L163.815 83.8367L162.204 86.2098L163.341 86.7793L164.289 84.3113L165.426 86.7793L166.563 86.0199L164.952 83.8367L167.606 84.3113V83.2672H164.952L166.563 81.1789L165.71 80.6094L164.289 82.8875L163.341 80.6094Z" fill="#20A2DC"/>
<path d="M124.655 33.4177L123.517 33.9872L125.129 36.0755H122.664V37.1196L125.129 36.645L123.517 39.0181L124.655 39.5876L125.602 37.1196L126.74 39.5876L127.877 38.8282L126.266 36.645L128.919 37.1196V36.0755H126.266L127.877 33.9872L127.024 33.4177L125.602 35.6958L124.655 33.4177Z" fill="#20A2DC"/>
<path d="M85.9093 17.5L85.3923 17.7804L86.1247 18.8085H85.0046V19.3225L86.1247 19.0889L85.3923 20.2571L85.9093 20.5375L86.3401 19.3225L86.857 20.5375L87.374 20.1637L86.6416 19.0889L87.8478 19.3225V18.8085H86.6416L87.374 17.7804L86.9863 17.5L86.3401 18.6215L85.9093 17.5Z" fill="#20A2DC"/>
<path fill-rule="evenodd" clip-rule="evenodd" d="M23.5314 26.321C24.7876 26.321 25.8059 25.301 25.8059 24.0428C25.8059 22.7847 24.7876 21.7647 23.5314 21.7647C22.2752 21.7647 21.2568 22.7847 21.2568 24.0428C21.2568 25.301 22.2752 26.321 23.5314 26.321ZM23.5015 24.7623C23.9147 24.7623 24.2497 24.4268 24.2497 24.0129C24.2497 23.599 23.9147 23.2635 23.5015 23.2635C23.0882 23.2635 22.7533 23.599 22.7533 24.0129C22.7533 24.4268 23.0882 24.7623 23.5015 24.7623Z" fill="#516678"/>
<path fill-rule="evenodd" clip-rule="evenodd" d="M15.3379 69.6726C16.5941 69.6726 17.6124 68.6526 17.6124 67.3945C17.6124 66.1363 16.5941 65.1163 15.3379 65.1163C14.0817 65.1163 13.0634 66.1363 13.0634 67.3945C13.0634 68.6526 14.0817 69.6726 15.3379 69.6726ZM15.3079 68.1139C15.7212 68.1139 16.0561 67.7784 16.0561 67.3645C16.0561 66.9506 15.7212 66.6151 15.3079 66.6151C14.8947 66.6151 14.5597 66.9506 14.5597 67.3645C14.5597 67.7784 14.8947 68.1139 15.3079 68.1139Z" fill="#516678"/>
<path fill-rule="evenodd" clip-rule="evenodd" d="M82.7056 34.3604C84.9187 34.3604 86.7127 32.5635 86.7127 30.3469C86.7127 28.1304 84.9187 26.3335 82.7056 26.3335C80.4925 26.3335 78.6985 28.1304 78.6985 30.3469C78.6985 32.5635 80.4925 34.3604 82.7056 34.3604ZM82.6528 31.6143C83.3808 31.6143 83.971 31.0232 83.971 30.294C83.971 29.5649 83.3808 28.9738 82.6528 28.9738C81.9248 28.9738 81.3347 29.5649 81.3347 30.294C81.3347 31.0232 81.9248 31.6143 82.6528 31.6143Z" fill="#516678"/>
<path fill-rule="evenodd" clip-rule="evenodd" d="M138.785 65.2202C140.107 65.2202 141.178 64.1471 141.178 62.8234C141.178 61.4997 140.107 60.4266 138.785 60.4266C137.463 60.4266 136.392 61.4997 136.392 62.8234C136.392 64.1471 137.463 65.2202 138.785 65.2202ZM138.753 63.5801C139.188 63.5801 139.541 63.2271 139.541 62.7917C139.541 62.3562 139.188 62.0033 138.753 62.0033C138.319 62.0033 137.966 62.3562 137.966 62.7917C137.966 63.2271 138.319 63.5801 138.753 63.5801Z" fill="#516678"/>
<path fill-rule="evenodd" clip-rule="evenodd" d="M162.027 49.8948C163.349 49.8948 164.42 48.8218 164.42 47.498C164.42 46.1743 163.349 45.1013 162.027 45.1013C160.706 45.1013 159.634 46.1743 159.634 47.498C159.634 48.8218 160.706 49.8948 162.027 49.8948ZM161.996 48.2547C162.431 48.2547 162.783 47.9017 162.783 47.4663C162.783 47.0308 162.431 46.6778 161.996 46.6778C161.561 46.6778 161.209 47.0308 161.209 47.4663C161.209 47.9017 161.561 48.2547 161.996 48.2547Z" fill="#516678"/>
<path fill-rule="evenodd" clip-rule="evenodd" d="M83.4361 125.766L24.2536 80.6702H52.9759C51.8782 79.4262 51.8477 77.0418 51.9697 76.0051H24.2536C18.2159 76.0051 16.0212 81.1276 16.0211 83.9632V152.567C16.0211 157.69 18.8562 159.977 22.4242 157.69L68.0688 119.82L82.5214 130.523C85.7412 133.011 90.5709 131.559 92.5833 130.523L106.67 119.82L152.498 157.69C156.796 160.342 158.626 156.775 158.626 151.744V83.9632C158.626 78.9322 153.595 76.0051 150.577 76.0051H122.769C122.842 76.7369 122.769 79.6049 121.69 80.6702H150.394L91.2112 125.766C87.9182 128.547 84.6557 126.925 83.4361 125.766ZM64.3179 116.802L20.5942 83.4144L20.4113 150.921C20.1917 153.116 20.5027 153.482 20.6857 153.391L64.3179 116.802ZM153.961 83.5059L110.237 116.893L153.869 153.482C154.052 153.574 154.363 153.208 154.143 151.012L153.961 83.5059Z" fill="#516678"/>
<path fill-rule="evenodd" clip-rule="evenodd" d="M79.3201 101.709L84.4426 109.21C85.9054 111.496 87.6433 113.326 90.2968 109.21L95.1448 101.892C102.828 100.001 118.562 91.281 118.562 71.8889C118.562 49.2953 98.6206 40.4225 87.9185 40.4225C79.3201 40.4225 57.0177 45.9108 56.1777 71.2486C55.5742 89.4515 71.2702 100.245 79.3201 101.709ZM82.3476 98.0996L85.8026 103.195L87.3698 105.459L88.9504 103.195L92.4918 98.0996C100.725 96.312 114.171 88.099 114.171 71.6145C114.171 52.4085 96.9421 44.7217 87.8431 44.7217C80.5327 44.7217 61.3736 49.6184 60.6594 71.1571C60.1463 86.6308 72.8248 96.312 82.3476 98.0996Z" fill="#516678"/>
<circle cx="67.0621" cy="58.9913" r="0.914721" fill="#20A2DC"/>
<circle cx="70.355" cy="54.4177" r="0.914721" fill="#20A2DC"/>
<circle cx="74.9286" cy="50.9417" r="0.914721" fill="#20A2DC"/>
<circle cx="80.9657" cy="48.5635" r="0.914721" fill="#20A2DC"/>
<circle cx="87.003" cy="47.0999" r="0.914721" fill="#20A2DC"/>
<circle cx="94.1379" cy="48.5635" r="0.914721" fill="#20A2DC"/>
<circle cx="99.8091" cy="50.9417" r="0.914721" fill="#20A2DC"/>
<circle cx="104.383" cy="54.4177" r="0.914721" fill="#20A2DC"/>
<circle cx="107.493" cy="58.9913" r="0.914721" fill="#20A2DC"/>
<circle cx="110.054" cy="64.1137" r="0.914721" fill="#20A2DC"/>
<circle cx="110.054" cy="81.6764" r="0.914721" fill="#20A2DC"/>
<circle cx="110.786" cy="76.0051" r="0.914721" fill="#20A2DC"/>
<circle cx="111.152" cy="69.9679" r="0.914721" fill="#20A2DC"/>
<circle cx="105.846" cy="86.9817" r="0.914721" fill="#20A2DC"/>
<circle cx="90.4789" cy="96.4949" r="0.914721" fill="#20A2DC"/>
<circle cx="84.2588" cy="96.4949" r="0.914721" fill="#20A2DC"/>
<circle cx="96.1502" cy="94.1166" r="0.914721" fill="#20A2DC"/>
<circle cx="78.5876" cy="94.1166" r="0.914721" fill="#20A2DC"/>
<circle cx="101.273" cy="91.1895" r="0.914721" fill="#20A2DC"/>
<circle cx="74.014" cy="91.1895" r="0.914721" fill="#20A2DC"/>
<circle cx="68.7085" cy="86.9817" r="0.914721" fill="#20A2DC"/>
<circle cx="65.2326" cy="81.6764" r="0.914721" fill="#20A2DC"/>
<circle cx="63.4031" cy="76.0051" r="0.914721" fill="#20A2DC"/>
<circle cx="63.4031" cy="69.9679" r="0.914721" fill="#20A2DC"/>
<circle cx="64.1349" cy="64.1137" r="0.914721" fill="#20A2DC"/>
<path fill-rule="evenodd" clip-rule="evenodd" d="M75.6931 74.2412C75.636 77.9218 73.2537 80.3414 72.3931 81.2154L72.393 81.2155C72.319 81.2906 72.2563 81.3543 72.2073 81.4064C71.2391 82.5683 72.3235 83.0718 72.827 83.0718H85.5307C85.5307 84.621 87.1961 87.7737 90.7594 87.8357C94.3226 87.8976 95.8718 84.5436 95.8718 83.0718H99.2801C100.326 83.0718 100.287 81.7234 99.7836 81.4064C97.2739 79.8261 96.3624 75.9711 96.2204 74.2412L96.0655 68.7414C96.0655 65.7978 94.0747 59.7868 86.2666 59.6009C78.4585 59.415 75.99 65.6687 75.8867 68.7414L75.6931 74.2412ZM77.8233 70.0971C78.1234 74.4737 76.9325 79.896 75.1122 81.1354H96.8401L96.8324 81.1276C96.0131 80.3084 93.8634 78.1589 94.2065 70.0971C94.5163 62.8157 88.9778 61.4214 85.8019 61.4214C82.8196 61.4214 77.3586 63.3192 77.8233 70.0971ZM87.4672 83.1106H93.9352C93.9352 83.8464 93.2381 85.9766 90.8368 85.9766C88.4459 85.9766 87.4672 84.0401 87.4672 83.1106Z" fill="#20A2DC"/>
<path d="M80.6895 69.7098C81.2317 69.7098 81.5719 69.3225 81.5803 68.9739C81.6578 65.7592 84.5626 65.1266 85.9956 65.1783C86.4215 65.1936 86.9252 64.9226 86.9252 64.21C86.9252 63.4974 86.3441 63.2622 85.8794 63.2805C80.9605 63.4741 79.605 67.1148 79.7212 68.9739C79.7987 69.245 80.0975 69.7098 80.6895 69.7098Z" fill="#516678"/>
<path fill-rule="evenodd" clip-rule="evenodd" d="M85.9567 61.3827C88.0316 61.3827 89.7136 59.7007 89.7136 57.6258C89.7136 55.5509 88.0316 53.8689 85.9567 53.8689C83.8818 53.8689 82.1998 55.5509 82.1998 57.6258C82.1998 59.7007 83.8818 61.3827 85.9567 61.3827ZM86.0341 59.6011C87.125 59.6011 88.0094 58.7167 88.0094 57.6258C88.0094 56.5349 87.125 55.6506 86.0341 55.6506C84.9432 55.6506 84.0588 56.5349 84.0588 57.6258C84.0588 58.7167 84.9432 59.6011 86.0341 59.6011Z" fill="#20A2DC"/>
<path d="M95.7557 55.6505C96.298 54.721 94.7875 53.8302 94.1677 54.721L91.9601 58.323C91.3017 59.3299 92.8897 60.2982 93.4319 59.4849L95.7557 55.6505Z" fill="#20A2DC"/>
<path d="M102.279 62.6122C103.196 62.0491 102.286 60.5504 101.319 61.0427L97.6712 63.1744C96.6152 63.7508 97.5573 65.3545 98.4194 64.8938L102.279 62.6122Z" fill="#20A2DC"/>
<path d="M98.1361 60.0741C98.8735 59.2902 97.6018 58.0827 96.7977 58.8114L94.844 60.7406C93.9761 61.5738 95.3058 62.8742 96.0169 62.2036L98.1361 60.0741Z" fill="#516678"/>
<rect x="15.912" y="156.268" width="143.033" height="4.26364" rx="2.13182" fill="#516678"/>
<rect x="161.158" y="156.268" width="7.15163" height="4.26364" rx="2.13182" fill="#20A2DC"/>
<rect x="6.71698" y="156.268" width="7.15163" height="4.26364" rx="2.13182" fill="#20A2DC"/>
<rect x="64.4409" y="164.454" width="45.6342" height="4.26364" rx="2.13182" fill="#20A2DC"/>
<rect x="72.7844" y="170.764" width="30.139" height="4.26364" rx="2.13182" fill="#20A2DC"/>
<rect x="83.1714" y="167.353" width="8.68413" height="4.26364" fill="#20A2DC"/>
<rect x="112.118" y="164.454" width="12.6005" height="4.26364" rx="2.13182" fill="#20A2DC"/>
<rect x="49.7971" y="164.454" width="12.6005" height="4.26364" rx="2.13182" fill="#20A2DC"/>
<rect x="170.353" y="156.268" width="4.25692" height="4.26364" rx="2.12846" fill="#20A2DC"/>
<rect x="0.24646" y="156.268" width="4.25692" height="4.26364" rx="2.12846" fill="#20A2DC"/>
</svg>
