<svg width="175" height="176" viewBox="0 0 175 176" fill="none" xmlns="http://www.w3.org/2000/svg">
<path d="M39.3624 53.8696L38.2252 54.4392L39.8363 56.5275H37.3722V57.5716L39.8363 57.097L38.2252 59.47L39.3624 60.0396L40.3102 57.5716L41.4474 60.0396L42.5847 59.2802L40.9736 57.097L43.6272 57.5716V56.5275H40.9736L42.5847 54.4392L41.7318 53.8696L40.3102 56.1478L39.3624 53.8696Z" fill="#20A2DC"/>
<path d="M38.4842 24.3356L37.3469 24.9051L38.958 26.9934H36.494V28.0375L38.958 27.5629L37.3469 29.936L38.4842 30.5055L39.4319 28.0375L40.5692 30.5055L41.7065 29.7461L40.0953 27.5629L42.749 28.0375V26.9934H40.0953L41.7065 24.9051L40.8535 24.3356L39.4319 26.6137L38.4842 24.3356Z" fill="#20A2DC"/>
<path d="M163.094 57.1939L161.957 57.7634L163.568 59.8517H161.104V60.8959L163.568 60.4213L161.957 62.7943L163.094 63.3639L164.042 60.8959L165.179 63.3639L166.317 62.6045L164.705 60.4213L167.359 60.8959V59.8517H164.705L166.317 57.7634L165.464 57.1939L164.042 59.472L163.094 57.1939Z" fill="#20A2DC"/>
<path d="M119.479 27.2557L118.341 27.8252L119.952 29.9135H117.488V30.9576L119.952 30.483L118.341 32.8561L119.479 33.4256L120.426 30.9576L121.564 33.4256L122.701 32.6662L121.09 30.483L123.743 30.9576V29.9135H121.09L122.701 27.8252L121.848 27.2557L120.426 29.5338L119.479 27.2557Z" fill="#20A2DC"/>
<path d="M80.7332 11.338L80.2163 11.6184L80.9486 12.6465H79.8286V13.1605L80.9486 12.9269L80.2163 14.0951L80.7332 14.3755L81.164 13.1605L81.681 14.3755L82.1979 14.0017L81.4656 12.9269L82.6718 13.1605V12.6465H81.4656L82.1979 11.6184L81.8102 11.338L81.164 12.4596L80.7332 11.338Z" fill="#20A2DC"/>
<path fill-rule="evenodd" clip-rule="evenodd" d="M18.3553 20.159C19.6115 20.159 20.6299 19.139 20.6299 17.8809C20.6299 16.6227 19.6115 15.6027 18.3553 15.6027C17.0991 15.6027 16.0808 16.6227 16.0808 17.8809C16.0808 19.139 17.0991 20.159 18.3553 20.159ZM18.3254 18.6003C18.7386 18.6003 19.0736 18.2648 19.0736 17.8509C19.0736 17.437 18.7386 17.1015 18.3254 17.1015C17.9122 17.1015 17.5772 17.437 17.5772 17.8509C17.5772 18.2648 17.9122 18.6003 18.3254 18.6003Z" fill="#516678"/>
<path fill-rule="evenodd" clip-rule="evenodd" d="M10.1619 63.5106C11.4181 63.5106 12.4364 62.4907 12.4364 61.2325C12.4364 59.9743 11.4181 58.9543 10.1619 58.9543C8.90568 58.9543 7.88733 59.9743 7.88733 61.2325C7.88733 62.4907 8.90568 63.5106 10.1619 63.5106ZM10.1319 61.9519C10.5451 61.9519 10.8801 61.6164 10.8801 61.2025C10.8801 60.7886 10.5451 60.4531 10.1319 60.4531C9.7187 60.4531 9.38372 60.7886 9.38372 61.2025C9.38372 61.6164 9.7187 61.9519 10.1319 61.9519Z" fill="#516678"/>
<path fill-rule="evenodd" clip-rule="evenodd" d="M77.5296 35.5927C79.7426 35.5927 81.5367 33.7958 81.5367 31.5792C81.5367 29.3627 79.7426 27.5658 77.5296 27.5658C75.3165 27.5658 73.5225 29.3627 73.5225 31.5792C73.5225 33.7958 75.3165 35.5927 77.5296 35.5927ZM77.4768 32.8466C78.2048 32.8466 78.7949 32.2555 78.7949 31.5263C78.7949 30.7972 78.2048 30.2061 77.4768 30.2061C76.7488 30.2061 76.1586 30.7972 76.1586 31.5263C76.1586 32.2555 76.7488 32.8466 77.4768 32.8466Z" fill="#516678"/>
<path fill-rule="evenodd" clip-rule="evenodd" d="M163.186 78.7764C164.508 78.7764 165.579 77.7033 165.579 76.3796C165.579 75.0559 164.508 73.9828 163.186 73.9828C161.865 73.9828 160.793 75.0559 160.793 76.3796C160.793 77.7033 161.865 78.7764 163.186 78.7764ZM163.155 77.1363C163.59 77.1363 163.942 76.7833 163.942 76.3479C163.942 75.9125 163.59 75.5595 163.155 75.5595C162.72 75.5595 162.368 75.9125 162.368 76.3479C162.368 76.7833 162.72 77.1363 163.155 77.1363Z" fill="#516678"/>
<path fill-rule="evenodd" clip-rule="evenodd" d="M156.851 43.7328C158.173 43.7328 159.244 42.6598 159.244 41.3361C159.244 40.0123 158.173 38.9393 156.851 38.9393C155.53 38.9393 154.458 40.0123 154.458 41.3361C154.458 42.6598 155.53 43.7328 156.851 43.7328ZM156.82 42.0927C157.255 42.0927 157.607 41.7397 157.607 41.3043C157.607 40.8688 157.255 40.5159 156.82 40.5159C156.385 40.5159 156.033 40.8688 156.033 41.3043C156.033 41.7397 156.385 42.0927 156.82 42.0927Z" fill="#516678"/>
<rect x="15.912" y="156.268" width="143.033" height="4.26364" rx="2.13182" fill="#516678"/>
<rect x="161.158" y="156.268" width="7.15163" height="4.26364" rx="2.13182" fill="#20A2DC"/>
<rect x="6.71698" y="156.268" width="7.15163" height="4.26364" rx="2.13182" fill="#20A2DC"/>
<rect x="64.4409" y="164.454" width="45.6342" height="4.26364" rx="2.13182" fill="#20A2DC"/>
<rect x="72.7845" y="170.764" width="30.139" height="4.26364" rx="2.13182" fill="#20A2DC"/>
<rect x="83.1714" y="167.353" width="8.68413" height="4.26364" fill="#20A2DC"/>
<rect x="112.118" y="164.454" width="12.6005" height="4.26364" rx="2.13182" fill="#20A2DC"/>
<rect x="49.7971" y="164.454" width="12.6005" height="4.26364" rx="2.13182" fill="#20A2DC"/>
<rect x="170.353" y="156.268" width="4.25692" height="4.26364" rx="2.12846" fill="#20A2DC"/>
<rect x="0.24646" y="156.268" width="4.25692" height="4.26364" rx="2.12846" fill="#20A2DC"/>
<path d="M17.5292 48.4711C18.1028 43.596 22.249 42.5564 24.2504 42.646L151.416 42.7357C155.645 43.1658 157.061 47.2165 157.241 49.188V139.342C156.667 143.213 153.298 144.958 151.684 145.346H139.138L136.181 140.955H150.699C152.204 140.955 152.82 139.64 152.939 138.983V49.188C152.867 47.2523 151.236 46.9476 150.43 47.0372H24.2504C22.0279 47.1806 21.7113 48.6503 21.8308 49.4569V138.356C21.544 140.507 23.2647 140.985 24.1608 140.955H93.3444L90.2078 145.167H23.0854C18.1386 144.235 17.3201 140.238 17.5292 138.356V48.4711Z" fill="#516678"/>
<path fill-rule="evenodd" clip-rule="evenodd" d="M94.5094 133.606L93.434 132.262H30.5235V72.757L47.461 55.8195L127.219 55.6403L144.157 72.757V132.262H135.822L134.747 133.606V136.564C136.42 136.593 140.662 136.635 144.246 136.564C147.831 136.492 148.608 133.547 148.548 132.083V55.6403C148.476 52.3424 145.591 51.3985 144.157 51.3387H30.7028C26.9031 51.4821 26.0726 54.3857 26.1324 55.8195V132.262C26.1324 135.632 29.3585 136.653 30.9716 136.564H94.5094V133.606ZM144.157 55.8195H133.582L144.157 66.4838V55.8195ZM41.0983 55.8195H30.5236V66.4838L41.0983 55.8195Z" fill="#20A2DC"/>
<path d="M122.626 72.1363H52.1394C50.8664 72.1363 49.2715 72.4102 49.1676 74.2364C49.0636 76.0626 50.4183 76.6105 51.6195 76.6105H123.275C124.172 76.6105 125.601 75.8017 125.517 74.2364C125.427 72.5778 123.635 72.1363 122.626 72.1363Z" fill="#20A2DC"/>
<path d="M122.627 82.8836H52.1412C50.8682 82.8836 49.2733 83.1575 49.1693 84.9837C49.0653 86.81 50.4201 87.3578 51.6212 87.3578H123.277C124.174 87.3578 125.603 86.549 125.518 84.9837C125.429 83.3251 123.636 82.8836 122.627 82.8836Z" fill="#516678"/>
<path d="M81.5831 93.996H52.1412C50.8682 93.996 49.2733 94.2699 49.1693 96.0961C49.0653 97.9223 50.4201 98.4702 51.6212 98.4702H82.2331C83.1299 98.4702 84.5589 97.6613 84.4742 96.0961C84.3845 94.4375 82.5922 93.996 81.5831 93.996Z" fill="#20A2DC"/>
<path fill-rule="evenodd" clip-rule="evenodd" d="M57.2292 126.796C62.5745 126.796 66.9077 122.462 66.9077 117.117C66.9077 111.772 62.5745 107.438 57.2292 107.438C51.8839 107.438 47.5506 111.772 47.5506 117.117C47.5506 122.462 51.8839 126.796 57.2292 126.796ZM57.2291 121.598C59.7038 121.598 61.7099 119.592 61.7099 117.117C61.7099 114.642 59.7038 112.636 57.2291 112.636C54.7545 112.636 52.7483 114.642 52.7483 117.117C52.7483 119.592 54.7545 121.598 57.2291 121.598Z" fill="#516678"/>
<path fill-rule="evenodd" clip-rule="evenodd" d="M117.772 109.323C119.335 109.022 121.068 109.253 122.481 110.711C123.975 112.253 125.809 113.63 127.744 114.56C129.053 115.19 130.183 116.262 130.511 117.963C130.917 120.072 131.495 122.298 132.568 124.159C133.501 125.78 133.882 127.833 132.604 129.988C131.507 131.837 130.897 134.059 130.475 136.167C130.21 137.494 129.43 138.758 127.739 139.469C125.862 140.257 124.048 141.405 122.657 142.892C121.46 144.172 119.776 145.12 117.656 144.722C115.691 144.353 113.581 144.189 111.616 144.558C109.877 144.884 107.922 144.662 106.405 143.101C104.995 141.65 103.329 140.305 101.502 139.437C100.17 138.804 99.0056 137.749 98.6788 136.093C98.2418 133.88 97.7239 131.487 96.7013 129.476C95.9386 127.976 95.6855 126.131 96.7768 124.188C97.8329 122.309 98.4355 120.083 98.7812 117.955C98.9952 116.638 99.6887 115.372 101.236 114.612C103.2 113.648 105.116 112.302 106.648 110.74C107.784 109.581 109.413 108.804 111.583 109.285C113.586 109.729 115.757 109.713 117.772 109.323ZM121.657 117.267C121.792 117.371 121.931 117.471 122.076 117.567C123.791 118.703 125.543 120.234 125.791 122.276C125.835 122.638 125.889 123.033 125.947 123.451C126.26 125.728 126.664 128.677 125.993 130.547C125.325 132.406 124.087 135.289 122.327 136.185C122.002 136.35 121.688 136.541 121.388 136.765C119.661 138.049 117.794 139.351 115.666 139.029C113.4 138.686 109.505 137.643 107.587 136.388C107.473 136.314 107.355 136.243 107.234 136.175C105.415 135.158 103.607 133.562 103.341 131.495C103.288 131.09 103.221 130.647 103.151 130.179C102.818 127.984 102.407 125.261 103.077 123.46C103.798 121.524 105.285 118.494 107.069 117.451C107.196 117.377 107.322 117.298 107.447 117.215C109.353 115.955 111.62 114.738 113.887 115.023C116.133 115.304 119.866 115.883 121.657 117.267Z" fill="#516678"/>
<path fill-rule="evenodd" clip-rule="evenodd" d="M114.673 135.219C119.177 135.219 122.828 131.568 122.828 127.064C122.828 122.56 119.177 118.909 114.673 118.909C110.169 118.909 106.518 122.56 106.518 127.064C106.518 131.568 110.169 135.219 114.673 135.219ZM114.673 130.38C116.504 130.38 117.989 128.896 117.989 127.064C117.989 125.233 116.504 123.749 114.673 123.749C112.842 123.749 111.357 125.233 111.357 127.064C111.357 128.896 112.842 130.38 114.673 130.38Z" fill="#20A2DC"/>
<path d="M127.699 144.091C129.778 143.589 131.194 142.628 131.642 142.209L137.198 149.916C138.776 152.497 137.198 154.665 135.227 154.487L129.76 153.949L129.223 156.638L128.685 158.609C128.048 160.334 124.351 160.088 122.626 158.116L121.247 156.19L115.78 148.662C117.644 149.522 120.38 149.199 121.516 148.931L125.369 154.128C125.369 148.68 129.671 149.05 131.821 149.916L127.699 144.091Z" fill="#516678"/>
<path d="M101.768 144.091C99.6893 143.589 98.2733 142.628 97.8252 142.209L92.269 149.916C90.6918 152.497 92.269 154.665 94.2406 154.487L99.7072 153.949L100.245 156.638L100.783 158.609C101.419 160.334 105.116 160.088 106.842 158.116L108.221 156.19L113.687 148.662C111.823 149.522 109.087 149.199 107.952 148.931L104.098 154.128C104.098 148.68 99.7968 149.05 97.646 149.916L101.768 144.091Z" fill="#516678"/>
</svg>
