<svg width="175" height="176" viewBox="0 0 175 176" fill="none" xmlns="http://www.w3.org/2000/svg">
<path d="M16.1935 64.4683L15.0562 65.0378L16.6673 67.1261H14.2032V68.1702L16.6673 67.6956L15.0562 70.0687L16.1935 70.6382L17.1412 68.1702L18.2785 70.6382L19.4157 69.8788L17.8046 67.6956L20.4582 68.1702V67.1261H17.8046L19.4157 65.0378L18.5628 64.4683L17.1412 66.7464L16.1935 64.4683Z" fill="#20A2DC"/>
<path d="M39.9631 15.2161L38.8258 15.7856L40.4369 17.8739H37.9728V18.918L40.4369 18.4434L38.8258 20.8165L39.9631 21.386L40.9108 18.918L42.0481 21.386L43.1853 20.6266L41.5742 18.4434L44.2278 18.918V17.8739H41.5742L43.1853 15.7856L42.3324 15.2161L40.9108 17.4942L39.9631 15.2161Z" fill="#20A2DC"/>
<path d="M159.644 75.1869L158.506 75.7564L160.118 77.8447H157.653V78.8889L160.118 78.4142L158.506 80.7873L159.644 81.3568L160.591 78.8889L161.729 81.3568L162.866 80.5975L161.255 78.4142L163.908 78.8889V77.8447H161.255L162.866 75.7564L162.013 75.1869L160.591 77.465L159.644 75.1869Z" fill="#20A2DC"/>
<path d="M133.281 20.6008L132.144 21.1704L133.755 23.2587H131.291V24.3028L133.755 23.8282L132.144 26.2012L133.281 26.7708L134.229 24.3028L135.366 26.7708L136.504 26.0114L134.893 23.8282L137.546 24.3028V23.2587H134.893L136.504 21.1704L135.651 20.6008L134.229 22.879L133.281 20.6008Z" fill="#20A2DC"/>
<path d="M82.2121 12.0775L81.6952 12.3579L82.4275 13.386H81.3075V13.9L82.4275 13.6664L81.6952 14.8346L82.2121 15.115L82.6429 13.9L83.1598 15.115L83.6768 14.7412L82.9444 13.6664L84.1506 13.9V13.386H82.9444L83.6768 12.3579L83.2891 12.0775L82.6429 13.1991L82.2121 12.0775Z" fill="#20A2DC"/>
<path fill-rule="evenodd" clip-rule="evenodd" d="M19.8342 20.8984C21.0904 20.8984 22.1088 19.8785 22.1088 18.6203C22.1088 17.3621 21.0904 16.3422 19.8342 16.3422C18.578 16.3422 17.5597 17.3621 17.5597 18.6203C17.5597 19.8785 18.578 20.8984 19.8342 20.8984ZM19.8043 19.3397C20.2175 19.3397 20.5525 19.0042 20.5525 18.5903C20.5525 18.1765 20.2175 17.8409 19.8043 17.8409C19.3911 17.8409 19.0561 18.1765 19.0561 18.5903C19.0561 19.0042 19.3911 19.3397 19.8043 19.3397Z" fill="#516678"/>
<path fill-rule="evenodd" clip-rule="evenodd" d="M11.6408 46.9967C12.897 46.9967 13.9153 45.9767 13.9153 44.7186C13.9153 43.4604 12.897 42.4404 11.6408 42.4404C10.3846 42.4404 9.36621 43.4604 9.36621 44.7186C9.36621 45.9767 10.3846 46.9967 11.6408 46.9967ZM11.6108 45.438C12.024 45.438 12.359 45.1025 12.359 44.6886C12.359 44.2747 12.024 43.9392 11.6108 43.9392C11.1976 43.9392 10.8626 44.2747 10.8626 44.6886C10.8626 45.1025 11.1976 45.438 11.6108 45.438Z" fill="#516678"/>
<path fill-rule="evenodd" clip-rule="evenodd" d="M103.656 24.0083C105.869 24.0083 107.664 22.2114 107.664 19.9949C107.664 17.7783 105.869 15.9814 103.656 15.9814C101.443 15.9814 99.6493 17.7783 99.6493 19.9949C99.6493 22.2114 101.443 24.0083 103.656 24.0083ZM103.604 21.2622C104.332 21.2622 104.922 20.6711 104.922 19.942C104.922 19.2129 104.332 18.6218 103.604 18.6218C102.876 18.6218 102.285 19.2129 102.285 19.942C102.285 20.6711 102.876 21.2622 103.604 21.2622Z" fill="#516678"/>
<path fill-rule="evenodd" clip-rule="evenodd" d="M135.088 59.7977C136.409 59.7977 137.481 58.7246 137.481 57.4009C137.481 56.0772 136.409 55.0042 135.088 55.0042C133.766 55.0042 132.695 56.0772 132.695 57.4009C132.695 58.7246 133.766 59.7977 135.088 59.7977ZM135.056 58.1576C135.491 58.1576 135.844 57.8046 135.844 57.3692C135.844 56.9338 135.491 56.5808 135.056 56.5808C134.622 56.5808 134.269 56.9338 134.269 57.3692C134.269 57.8046 134.622 58.1576 135.056 58.1576Z" fill="#516678"/>
<path fill-rule="evenodd" clip-rule="evenodd" d="M158.33 44.4724C159.652 44.4724 160.723 43.3993 160.723 42.0756C160.723 40.7519 159.652 39.6788 158.33 39.6788C157.009 39.6788 155.937 40.7519 155.937 42.0756C155.937 43.3993 157.009 44.4724 158.33 44.4724ZM158.299 42.8323C158.733 42.8323 159.086 42.4793 159.086 42.0438C159.086 41.6084 158.733 41.2554 158.299 41.2554C157.864 41.2554 157.512 41.6084 157.512 42.0438C157.512 42.4793 157.864 42.8323 158.299 42.8323Z" fill="#516678"/>
<path fill-rule="evenodd" clip-rule="evenodd" d="M56.3457 27.3728C56.5028 23.4755 59.0235 15.6998 67.849 15.7752C76.6745 15.8506 79.1952 23.6012 79.3524 27.3728H87.8384C90.6671 27.3728 94.3444 30.4844 94.3444 34.3503V39.9133C94.3444 41.422 93.6844 43.3078 91.3271 43.3078C90.9079 43.3078 89.6755 43.3115 87.8479 43.317C79.0701 43.3436 56.5615 43.4118 44.4652 43.3078C43.3337 43.3078 41.4479 42.4592 41.4479 40.2905V34.0674C41.4479 31.6159 43.8052 27.3728 47.8596 27.3728H56.3457ZM60.9659 28.8815V26.7128C60.9659 24.5442 63.0968 20.4709 67.849 20.3954C72.6012 20.32 74.7322 24.5442 74.7322 26.7128V28.8815C74.7322 30.2016 75.7693 31.8988 77.5608 31.8988H87.4613C88.4042 31.8988 89.6488 32.4268 89.7242 34.1617C89.7996 35.8967 89.7556 37.9019 89.7242 38.6876H46.0681V34.1617C46.131 33.4074 46.5396 31.8988 48.3311 31.8988H58.0429C59.1744 31.8988 60.9659 31.1445 60.9659 28.8815Z" fill="#516678"/>
<path d="M36.9221 37.7446V33.0302H27.1159C22.59 33.0302 20.7042 37.7446 20.7042 39.9133V156.078C20.7042 158.247 21.1757 159.472 22.59 159.472H106.696H113.485C114.24 159.472 115.088 157.87 115.088 156.55V146.366C112.674 147.196 110.939 146.712 110.374 146.366V156.078C110.374 158.247 108.865 158.247 107.639 158.247H27.5874C25.3244 158.247 25.3244 156.927 25.3244 155.607V39.9133C25.3244 38.2161 26.7388 37.7446 27.776 37.7446H36.9221Z" fill="#516678"/>
<path d="M98.8703 33.0302V37.6503H108.488C109.619 37.6503 110.468 38.9704 110.468 39.9133V59.8084C112.165 59.2427 113.862 59.5255 114.994 59.8084V39.3476C114.994 34.3502 110.657 33.0302 108.488 33.0302H98.8703Z" fill="#516678"/>
<path fill-rule="evenodd" clip-rule="evenodd" d="M80.4838 77.4406C80.4839 76.3092 81.521 75.1684 82.5582 75.3663C98.8703 78.4778 108.048 69.7717 110.939 64.9944C112.448 63.4103 113.957 64.3344 114.522 64.9944C121.311 75.8566 136.146 76.4349 142.715 75.3663C144.601 75.3663 144.978 76.7806 144.978 77.8178V103.182C144.818 105.23 144.5 107.2 144.045 109.092C142.596 108.653 141.079 108.368 139.515 108.257C139.821 106.895 140.043 105.49 140.169 104.041V82.4831V80.1751C133.852 81.1179 119.52 79.1378 112.731 70.086C110.271 74.1466 99.1532 81.8722 85.3045 80.3636V82.1626C85.3045 82.3597 85.3037 82.9281 85.3025 83.7692L85.3025 83.772V83.7721C85.2969 87.8632 85.2823 98.3928 85.3045 104.041C85.5986 111.682 91.61 128.074 112.737 137.409C114.301 136.772 116.154 135.872 118.149 134.714C118.568 136.152 119.139 137.525 119.843 138.815C117.206 140.328 114.755 141.462 112.731 142.218C87.763 132.562 80.8296 112.171 80.4838 103.182C80.4578 96.5358 80.4749 84.1471 80.4815 79.334C80.4829 78.3428 80.4838 77.6729 80.4838 77.4406Z" fill="#20A2DC"/>
<path d="M117.037 87.7576V89.6632C120.16 90.3438 120.77 92.6577 120.567 93.8828C120.16 96.3328 118.123 97.4218 116.63 96.7412C114.73 95.6523 113.236 95.5161 112.286 95.5161C110.915 95.5161 109.435 96.1967 109.435 97.1495C109.435 97.8301 110.793 98.7829 116.223 100.28C121.246 101.665 122.875 106.269 122.739 108.583C122.435 113.756 118.123 116.251 116.223 116.614V118.928C116.223 120.153 114.675 121.514 112.829 121.514C110.983 121.514 109.571 120.153 109.571 118.928V116.614C106.041 116.342 104.548 113.619 104.548 112.122C104.548 109.944 107.263 108.175 108.485 108.855C110.692 110.085 112.693 110.353 112.965 110.353C113.236 110.353 115.68 110.761 115.951 108.447C116.168 106.596 110.702 105.044 107.942 104.5C106.268 104.046 102.892 101.886 102.783 96.8773C102.675 91.8683 107.806 89.4363 110.385 88.8465V87.7576C110.385 86.2603 111.689 85.0353 113.644 85.0353C115.598 85.0353 117.037 86.3964 117.037 87.7576Z" fill="#20A2DC"/>
<path fill-rule="evenodd" clip-rule="evenodd" d="M137.92 145.207C146.981 145.207 154.327 137.862 154.327 128.801C154.327 119.74 146.981 112.394 137.92 112.394C128.859 112.394 121.514 119.74 121.514 128.801C121.514 137.862 128.859 145.207 137.92 145.207ZM138.015 141.058C144.732 141.058 150.178 135.613 150.178 128.895C150.178 122.177 144.732 116.732 138.015 116.732C131.297 116.732 125.851 122.177 125.851 128.895C125.851 135.613 131.297 141.058 138.015 141.058Z" fill="#516678"/>
<path d="M132.265 130.042C132.211 128.858 133.32 128.427 133.881 128.36C134.15 128.327 134.42 128.36 134.824 128.629L136.844 130.11L141.086 124.657C141.759 124.051 142.836 124.253 143.308 124.657C143.914 125.263 143.779 126.273 143.51 126.677L138.056 133.812C137.086 134.297 136.305 133.924 136.036 133.677L132.804 131.254C132.332 130.85 132.277 130.312 132.265 130.042Z" fill="#20A2DC"/>
<path d="M49.6511 66.7923C49.6511 65.1681 50.6231 64.639 51.1091 64.5775H100.87C101.335 64.7313 102.265 65.3896 102.265 66.7923C102.265 68.195 101.335 68.7918 100.87 68.9148H51.1091C50.6231 68.8841 49.6511 68.4165 49.6511 66.7923Z" fill="#516678"/>
<circle cx="37.9577" cy="66.7958" r="2.46479" fill="#516678"/>
<path d="M49.6511 77.6374C49.6511 76.0132 50.6231 75.4841 51.1091 75.4226H76.1663C75.9645 76.3969 75.6215 78.6285 75.8636 79.7599H74.4691H51.1091C50.6231 79.7292 49.6511 79.2616 49.6511 77.6374Z" fill="#20A2DC"/>
<circle cx="37.9577" cy="77.6409" r="2.46479" fill="#516678"/>
<path d="M49.6511 88.236C49.6511 86.6119 50.6231 86.0828 51.1091 86.0212H75.8636V90.3586H74.4691H51.1091C50.6231 90.3278 49.6511 89.8602 49.6511 88.236Z" fill="#516678"/>
<circle cx="37.9577" cy="88.2396" r="2.46479" fill="#516678"/>
<path d="M49.6511 99.081C49.6511 97.4568 50.6231 96.9277 51.1091 96.8662H75.8636V101.204H74.4691H51.1091C50.6231 101.173 49.6511 100.705 49.6511 99.081Z" fill="#20A2DC"/>
<circle cx="37.9577" cy="99.0845" r="2.46479" fill="#516678"/>
<path d="M49.6511 113.384C49.6511 115.008 50.6231 115.537 51.1091 115.599H77.938C77.5608 114.09 77.1837 113.807 76.8065 111.261H74.469H51.1091C50.6231 111.292 49.6511 111.76 49.6511 113.384Z" fill="#516678"/>
<circle cx="37.9577" cy="113.38" r="2.46479" fill="#516678"/>
<path d="M49.6511 124.229C49.6511 125.853 50.6231 126.382 51.1091 126.444H84.1611C83.4813 125.124 82.4639 124.464 81.6153 122.106H74.4691H51.1091C50.6231 122.137 49.6511 122.605 49.6511 124.229Z" fill="#20A2DC"/>
<circle cx="37.9577" cy="124.225" r="2.46479" fill="#516678"/>
<path d="M49.6511 134.828C49.6511 136.452 50.6231 136.981 51.1091 137.042H94.9101C93.8729 136.288 91.9872 134.874 90.1014 132.705H74.4691H51.1091C50.6231 132.736 49.6511 133.203 49.6511 134.828Z" fill="#516678"/>
<circle cx="37.9577" cy="134.824" r="2.46479" fill="#516678"/>
<rect x="15.912" y="156.268" width="143.033" height="4.26364" rx="2.13182" fill="#516678"/>
<rect x="161.158" y="156.268" width="7.15163" height="4.26364" rx="2.13182" fill="#20A2DC"/>
<rect x="6.71698" y="156.268" width="7.15163" height="4.26364" rx="2.13182" fill="#20A2DC"/>
<rect x="64.4409" y="164.454" width="45.6342" height="4.26364" rx="2.13182" fill="#20A2DC"/>
<rect x="72.7845" y="170.764" width="30.139" height="4.26364" rx="2.13182" fill="#20A2DC"/>
<rect x="83.1714" y="167.353" width="8.68413" height="4.26364" fill="#20A2DC"/>
<rect x="112.118" y="164.454" width="12.6005" height="4.26364" rx="2.13182" fill="#20A2DC"/>
<rect x="49.7971" y="164.454" width="12.6005" height="4.26364" rx="2.13182" fill="#20A2DC"/>
<rect x="170.353" y="156.268" width="4.25692" height="4.26364" rx="2.12846" fill="#20A2DC"/>
<rect x="0.24646" y="156.268" width="4.25692" height="4.26364" rx="2.12846" fill="#20A2DC"/>
</svg>
