<svg width="175" height="175" viewBox="0 0 175 175" fill="none" xmlns="http://www.w3.org/2000/svg">
<path fill-rule="evenodd" clip-rule="evenodd" d="M50.8165 44.8266V42.8521C52.5624 14.503 75.5493 7 87.0843 7C114.935 7 123.976 31.421 124.287 42.8521V44.8266C123.789 61.1211 113.48 76.6952 108.388 82.4454C105.651 86.0133 97.5802 93.1698 87.1883 93.253C76.7963 93.3361 68.9331 87.1217 66.3005 84.0042C53.9133 70.6194 50.8165 52.3088 50.8165 44.8266ZM55.9086 40.2542V42.7482L58.6105 40.2542C60.6057 38.5915 63.3908 37.9679 64.5339 37.864H67.1318C68.6906 38.7993 71.9468 39.215 73.6788 39.3189H75.2375C81.2649 39.5267 90.098 35.3699 94.6704 32.5641H101.217C111.921 32.8759 117.602 39.977 119.091 43.06V40.2542C115.6 17.3919 96.3678 11.9535 87.1883 12.0921C64.5754 12.8403 56.9131 31.1786 55.9086 40.2542ZM57.6752 57.0891C57.2595 55.6689 56.636 52.1633 57.4674 49.503C58.5065 46.1776 62.9751 43.2678 64.2221 43.06C64.3763 43.0343 64.5153 43.0086 64.6447 42.9846C65.8236 42.7666 66.2127 42.6946 70.1455 44.0992C71.4272 44.411 75.2999 44.8059 80.5374 43.8914C83.4472 43.3371 90.6384 41.3142 96.1253 37.6562C97.4763 37.2405 99.3468 37.3444 101.737 37.5523C105.582 37.8866 113.501 39.9632 115.662 47.9442C117.824 55.9252 115.662 61.038 114.311 63.5321C110.778 72.0881 100.906 88.2649 87.0843 88.2649C79.6022 88.2649 64.6586 83.443 57.6752 57.0891Z" fill="#516678"/>
<path d="M78.7708 49.5134H70.8729C69.9376 49.5135 68.3821 49.9841 68.3789 52.1036C68.3756 54.2331 70.0416 54.7017 70.8729 54.7017H78.7708C79.3943 54.7017 81.2648 54.1366 81.2648 52.1036C81.2648 50.0707 79.6021 49.5134 78.7708 49.5134Z" fill="#20A2DC"/>
<path d="M104.127 49.5056H96.2292C95.294 49.5057 93.7384 49.9763 93.7352 52.0958C93.7319 54.2253 95.3979 54.6939 96.2292 54.6939H104.127C104.751 54.6939 106.621 54.1288 106.621 52.0958C106.621 50.0629 104.958 49.5056 104.127 49.5056Z" fill="#20A2DC"/>
<path d="M77.4199 69.6656C74.9258 69.6656 74.1984 72.0558 74.9258 73.3028C77.0042 76.3164 80.9323 79.7042 87.5 79.9536C94.0677 80.203 98.6194 75.6237 100.074 73.3028C101.113 70.6011 98.4115 69.1808 96.9567 69.6656C96.0214 69.9773 95.6057 70.8589 95.0861 71.4323C94.0816 72.5407 91.158 74.7784 87.5 74.8616C83.8421 74.9447 80.9877 72.61 80.0178 71.4323C78.8747 69.8736 78.0434 69.6656 77.4199 69.6656Z" fill="#20A2DC"/>
<path fill-rule="evenodd" clip-rule="evenodd" d="M55.8046 95.7473C63.2037 92.6712 65.9541 86.2906 66.4044 83.4848L70.6651 87.2259C70.3326 88.4729 69.4181 90.101 69.0024 90.7591L82.304 101.878C83.7589 103.022 84.2785 104.061 84.3824 104.58H90.6176C90.6176 103.915 91.2411 103.022 91.6568 102.71L106.309 90.5513L103.919 85.3553L108.284 80.9907C109.365 89.4705 115.731 94.2231 118.78 95.5394C119.782 95.8527 121.742 96.3045 123.611 96.7354L123.611 96.7355C124.841 97.0192 126.033 97.2938 126.885 97.5139C152.907 104.248 158.996 120.584 158.996 128.17L159.412 134.301C159.724 137.835 159.62 151.864 159.308 158.514C158.581 166.308 153.038 167.59 150.579 167.452H130.626H125.638H73.4709H49.5695H44.3735H21.0956C19.5368 166.551 16.2946 163.503 15.7957 158.514C15.2969 153.526 16.0036 135.237 16.4193 126.715C18.4145 107.428 40.7364 98.7263 51.6479 96.7864C53.6431 96.6202 55.2504 95.9897 55.8046 95.7473ZM150.163 118.402C143.762 107.345 126.297 102.086 118.364 100.839L104.023 121.519C103.538 122.247 102.36 123.702 100.906 123.702C99.7066 123.702 99.139 123.702 98.0998 122.351L95.3979 117.778L94.2548 120.064L102.36 164.438H125.534V156.436C125.534 155.709 126.158 154.046 128.236 154.046C130.233 154.046 130.73 155.605 130.73 156.436V164.126H146.422C152.865 164.126 154.424 159.658 154.424 157.06L154.632 149.473L154.424 136.588C154.507 126.279 151.618 120.168 150.163 118.402ZM56.7399 100.839C48.8074 102.086 31.3421 107.345 24.9406 118.402C23.4858 120.168 20.5968 126.279 20.6799 136.588L20.4721 149.473L20.6799 157.06C20.6799 159.658 22.2387 164.126 28.6817 164.126H44.3735V156.436C44.3735 155.605 44.8706 154.046 46.8676 154.046C48.946 154.046 49.5695 155.709 49.5695 156.436V164.438H74.0944L81.8884 121.207L79.7061 117.778L77.0042 122.351C76.4846 123.182 75.3973 123.702 74.1983 123.702C72.7435 123.702 71.5657 122.247 71.0808 121.519L56.7399 100.839ZM66.1966 95.2276C65.4483 96.6409 62.9751 98.4491 61.832 99.1766L74.3023 116.947L79.7061 108.218C80.0386 107.469 80.0178 106.763 79.7061 106.451L66.1966 95.2276ZM113.306 99.1766C112.163 98.4491 109.689 96.6409 108.941 95.2276L95.4317 106.451C95.12 106.763 95.0992 107.469 95.4317 108.218L100.836 116.947L113.306 99.1766ZM90.4098 109.776H84.5903L82.9276 112.79L84.5903 116.011H90.7215L92.2803 112.998L90.4098 109.776ZM87.0843 121.104H89.1627L97.2684 165.165H78.9786L87.0843 121.104Z" fill="#516678"/>
<path d="M172.254 164.032H2.96843C2.01663 163.961 0.0910724 164.35 0.00321413 166.467C-0.0846441 168.585 1.65056 169.185 2.52914 169.22H172.804C173.536 169.15 175 168.5 175 166.467C175 164.434 173.17 163.997 172.254 164.032Z" fill="#20A2DC"/>
</svg>
