<svg width="175" height="175" viewBox="0 0 175 175" fill="none" xmlns="http://www.w3.org/2000/svg">
<path fill-rule="evenodd" clip-rule="evenodd" d="M22.3435 27.2764C22.3435 24.5551 24.0384 19.2173 29.9839 19.2173C35.9498 19.2173 37.6244 24.5551 37.6244 27.2764V37.7427C37.6244 40.2547 35.8451 44.8599 29.9839 44.8599C24.2878 44.8599 22.3435 39.9407 22.3435 37.7427V27.2764ZM27.5767 26.6485C27.5767 25.8111 28.3094 24.3458 30.0887 24.3458C31.7633 24.3458 32.4959 25.8111 32.4959 26.6485V37.4288C32.4959 38.2661 31.6586 39.7314 30.0887 39.7314C28.3094 39.7314 27.5767 38.2661 27.5767 37.6381V26.6485Z" fill="#20A2DC"/>
<path fill-rule="evenodd" clip-rule="evenodd" d="M60.6504 27.1716C60.6505 24.4504 62.3454 19.1125 68.2909 19.1125C74.2567 19.1126 75.9313 24.4504 75.9313 27.1716V37.638C75.9313 40.1499 74.1521 44.7551 68.2909 44.7551C62.5947 44.7551 60.6504 39.8359 60.6504 37.638V27.1716ZM65.8837 26.5437C65.8837 25.7064 66.6163 24.2411 68.3956 24.2411C70.0702 24.2411 70.8029 25.7064 70.8029 26.5437V37.3241C70.8029 38.1614 69.9656 39.6267 68.3956 39.6267C66.6163 39.6267 65.8837 38.1614 65.8837 37.5334V26.5437Z" fill="#20A2DC"/>
<path fill-rule="evenodd" clip-rule="evenodd" d="M98.9573 27.1716C98.9573 24.4504 100.652 19.1125 106.598 19.1125C112.564 19.1126 114.238 24.4504 114.238 27.1716V37.638C114.238 40.1499 112.459 44.7551 106.598 44.7551C100.902 44.7551 98.9573 39.8359 98.9573 37.638V27.1716ZM104.19 26.5437C104.19 25.7064 104.923 24.2411 106.702 24.2411C108.377 24.2411 109.11 25.7064 109.11 26.5437V37.3241C109.11 38.1614 108.272 39.6267 106.702 39.6267C104.923 39.6267 104.19 38.1614 104.19 37.5334V26.5437Z" fill="#20A2DC"/>
<path fill-rule="evenodd" clip-rule="evenodd" d="M137.264 27.1716C137.264 24.4504 138.959 19.1125 144.905 19.1125C150.87 19.1126 152.545 24.4504 152.545 27.1716V37.638C152.545 40.1499 150.766 44.7551 144.905 44.7551C139.208 44.7551 137.264 39.8359 137.264 37.638V27.1716ZM142.497 26.5437C142.497 25.7064 143.23 24.2411 145.009 24.2411C146.684 24.2411 147.417 25.7064 147.417 26.5437V37.3241C147.417 38.1614 146.579 39.6267 145.009 39.6267C143.23 39.6267 142.497 38.1614 142.497 37.5334V26.5437Z" fill="#20A2DC"/>
<path d="M55.7312 29.3696H42.7529V34.6028H55.7312V29.3696Z" fill="#516678"/>
<path d="M93.9334 29.3696H80.9551V34.6028H93.9334V29.3696Z" fill="#516678"/>
<path d="M132.24 29.3696H119.262V34.6028H132.24V29.3696Z" fill="#516678"/>
<path fill-rule="evenodd" clip-rule="evenodd" d="M60.3643 84.2134H68.5764C71.3137 84.2134 73.4194 86.0973 73.4194 88.7139V97.6103C73.4194 99.2849 71.5243 102.006 68.5764 102.006H60.7854C58.6798 102.006 55.6266 100.436 55.6266 97.6103V88.7139C55.6267 87.2486 56.9953 84.2134 60.3643 84.2134ZM60.6505 89.3418V96.8776H68.1863V89.3418H60.6505Z" fill="#516678"/>
<path fill-rule="evenodd" clip-rule="evenodd" d="M83.3903 84.4226H91.6024C94.3397 84.4226 96.4454 86.3066 96.4454 88.9231V97.8196C96.4454 99.4942 94.5503 102.215 91.6024 102.215H83.8114C81.7058 102.215 78.6526 100.645 78.6526 97.8196V88.9231C78.6527 87.4579 80.0213 84.4226 83.3903 84.4226ZM83.6765 89.551V97.0868H91.2123V89.551H83.6765Z" fill="#20A2DC"/>
<path fill-rule="evenodd" clip-rule="evenodd" d="M106.416 84.4226H114.628C117.366 84.4226 119.471 86.3066 119.471 88.9231V97.8196C119.471 99.4942 117.576 102.215 114.628 102.215H106.837C104.732 102.215 101.679 100.645 101.679 97.8196V88.9231C101.679 87.4579 103.047 84.4226 106.416 84.4226ZM106.703 89.551V97.0868H114.238V89.551H106.703Z" fill="#516678"/>
<path fill-rule="evenodd" clip-rule="evenodd" d="M129.442 84.4226H137.654C140.392 84.4226 142.497 86.3066 142.497 88.9231V97.8196C142.497 99.4942 140.602 102.215 137.654 102.215H129.863C127.758 102.215 124.705 100.645 124.705 97.8196V88.9231C124.705 87.4579 126.073 84.4226 129.442 84.4226ZM129.728 89.551V97.0868H137.264V89.551H129.728Z" fill="#20A2DC"/>
<path fill-rule="evenodd" clip-rule="evenodd" d="M37.3382 84.3181H45.5503C48.2876 84.3181 50.3933 86.2021 50.3933 88.8187V97.7151C50.3933 99.3897 48.4982 102.111 45.5503 102.111H37.7593C35.6537 102.111 32.6005 100.541 32.6005 97.7151V88.8187C32.6006 87.3534 33.9692 84.3181 37.3382 84.3181ZM37.6244 89.4465V96.9823H45.1602V89.4465H37.6244Z" fill="#20A2DC"/>
<path fill-rule="evenodd" clip-rule="evenodd" d="M60.1551 107.449H68.3672C71.1045 107.449 73.2102 109.333 73.2102 111.949V120.846C73.2102 122.52 71.3151 125.242 68.3672 125.242H60.5763C58.4706 125.242 55.4174 123.672 55.4174 120.846V111.949C55.4175 110.484 56.7862 107.449 60.1551 107.449ZM60.4413 112.577V120.113H67.9771V112.577H60.4413Z" fill="#20A2DC"/>
<path fill-rule="evenodd" clip-rule="evenodd" d="M83.1811 107.658H91.3932C94.1305 107.658 96.2362 109.542 96.2362 112.159V121.055C96.2362 122.73 94.4568 124.404 93.7242 124.404C93.9335 123.044 93.7242 119.883 91.2122 118.125C91.1567 118.047 91.0871 117.965 91.0031 117.88V112.787H83.4673V116.659C83.4676 116.659 83.4679 116.659 83.4682 116.659C83.4678 116.659 83.4675 116.659 83.4671 116.659C82.4903 117.043 80.1181 118.313 78.4434 120.323V120.009V112.159C78.4435 110.693 79.8122 107.658 83.1811 107.658Z" fill="#516678"/>
<path fill-rule="evenodd" clip-rule="evenodd" d="M106.207 107.658H114.419C117.157 107.658 119.262 109.542 119.262 112.159V121.055C119.262 122.73 117.367 125.451 114.419 125.451H106.628C104.523 125.451 101.469 123.881 101.469 121.055V112.159C101.469 110.693 102.838 107.658 106.207 107.658ZM106.493 112.787V120.322H114.029V112.787H106.493Z" fill="#20A2DC"/>
<path fill-rule="evenodd" clip-rule="evenodd" d="M129.233 107.658H137.445C140.183 107.658 142.288 109.542 142.288 112.159V121.055C142.288 122.73 140.393 125.451 137.445 125.451H129.654C127.549 125.451 124.495 123.881 124.495 121.055V112.159C124.495 110.693 125.864 107.658 129.233 107.658ZM129.519 112.787V120.322H137.055V112.787H129.519Z" fill="#516678"/>
<path fill-rule="evenodd" clip-rule="evenodd" d="M37.129 107.553H45.3411C48.0785 107.553 50.1841 109.437 50.1841 112.054V120.95C50.1841 122.625 48.289 125.346 45.3411 125.346H37.5502C35.4445 125.346 32.3913 123.776 32.3913 120.95V112.054C32.3914 110.589 33.7601 107.553 37.129 107.553ZM37.4152 112.682V120.218H44.951V112.682H37.4152Z" fill="#516678"/>
<path d="M12.7186 29.3696H17.3197V34.6028H13.6564C11.6678 34.6028 10.73 36.1728 10.73 37.3241V56.1635H164.062V36.6961C163.849 34.9168 163.221 34.6028 161.441 34.6028H157.569V29.3696H161.965C167.617 29.3696 169.086 34.4981 169.086 36.6961V145.965C169.002 151.156 164.306 153.012 161.969 153.291H93.8329V148.058H161.337C163.43 148.058 164.027 146.488 164.062 145.651V61.3967H10.8305V145.86C10.8305 147.535 12.1912 148.058 13.2378 148.058H22.3476V153.082H12.1912C7.58577 153.082 5.70613 148.268 5.81079 145.86V36.6961C5.81079 31.2536 10.416 29.3696 12.7186 29.3696Z" fill="#516678"/>
<path d="M24.8554 131.521C25.7974 130.265 27.0534 129.009 28.5187 128.172C27.6814 127.586 27.472 126.707 27.472 125.451V84.2134C27.472 80.8642 30.298 79.2942 33.7519 79.2942H142.183C146.37 79.2942 147.521 82.5388 147.521 84.6321V125.032C147.521 129.323 143.963 130.265 142.183 130.265H93.9334V135.394H142.079C150.138 135.394 152.44 128.172 152.44 125.032V83.8994C152.44 76.887 145.637 74.061 141.765 74.061H32.8099C24.7508 74.061 22.4482 81.4922 22.4482 84.2134V125.451C22.4482 128.695 24.1228 131.312 24.8554 131.521Z" fill="#516678"/>
<path fill-rule="evenodd" clip-rule="evenodd" d="M88.4909 123.357V170.739C88.4909 172.206 86.9961 173.805 84.7538 173.805H30.3172C29.1961 173.805 27.5767 172.739 27.5767 170.739V134.88C27.5767 133.28 28.4487 131.414 30.9401 131.414H73.0084C73.0084 131.414 83.1531 122.939 84.723 121.788C86.293 120.636 88.4909 122.102 88.4909 123.357ZM74.466 136.65L83.7811 129.009V167.526C83.7811 168.677 82.5251 169.933 80.6412 169.933H34.9031C33.9612 169.933 32.6005 169.096 32.6005 167.526V139.371C32.6005 138.115 33.3332 136.65 35.4265 136.65H74.466Z" fill="#516678"/>
<path d="M37.6244 148.058C37.6244 146.3 38.8804 145.546 39.8223 145.546H43.2762C44.3229 145.546 45.3695 146.384 45.3695 148.058C45.3695 149.733 44.0089 150.57 43.2762 150.57H39.5083C38.671 150.57 37.6244 149.817 37.6244 148.058Z" fill="#20A2DC"/>
<path d="M37.6244 158.315C37.6244 156.557 38.8804 155.803 39.8223 155.803H43.2762C44.3229 155.803 45.3695 156.641 45.3695 158.315C45.3695 159.99 44.0089 160.827 43.2762 160.827H39.5083C38.671 160.827 37.6244 160.073 37.6244 158.315Z" fill="#20A2DC"/>
<path d="M70.9074 158.315C70.9074 156.557 72.1634 155.803 73.1053 155.803H76.5592C77.6059 155.803 78.6525 156.641 78.6525 158.315C78.6525 159.99 77.2919 160.827 76.5592 160.827H72.7914C71.954 160.827 70.9074 160.073 70.9074 158.315Z" fill="#20A2DC"/>
<path d="M70.9074 148.058C70.9074 146.3 72.1634 145.546 73.1053 145.546H76.5592C77.6059 145.546 78.6525 146.384 78.6525 148.058C78.6525 149.733 77.2919 150.57 76.5592 150.57H72.7914C71.954 150.57 70.9074 149.817 70.9074 148.058Z" fill="#20A2DC"/>
<path d="M58.1385 154.547C56.3801 154.547 55.6265 153.291 55.6265 152.349V143.662C55.6265 142.616 56.4638 141.569 58.1385 141.569C59.8131 141.569 60.6504 142.93 60.6504 143.662V152.663C60.6504 153.501 59.8968 154.547 58.1385 154.547Z" fill="#516678"/>
<circle cx="58.0338" cy="162.188" r="2.61659" fill="#516678"/>
</svg>
