<svg width="175" height="176" viewBox="0 0 175 176" fill="none" xmlns="http://www.w3.org/2000/svg">
<path d="M9.63104 62.6056L8.49377 63.1751L10.1049 65.2634H7.64082V66.3076L10.1049 65.8329L8.49377 68.206L9.63104 68.7755L10.5788 66.3076L11.716 68.7755L12.8533 68.0162L11.2422 65.8329L13.8958 66.3076V65.2634H11.2422L12.8533 63.1751L12.0004 62.6056L10.5788 64.8837L9.63104 62.6056Z" fill="#20A2DC"/>
<path d="M56.462 26.1267L55.3248 26.6962L56.9359 28.7845H54.4718V29.8287L56.9359 29.3541L55.3248 31.7271L56.462 32.2967L57.4098 29.8287L58.547 32.2967L59.6843 31.5373L58.0732 29.3541L60.7268 29.8287V28.7845H58.0732L59.6843 26.6962L58.8313 26.1267L57.4098 28.4048L56.462 26.1267Z" fill="#20A2DC"/>
<path d="M131.392 30.0704L130.254 30.64L131.866 32.7283H129.401V33.7724L131.866 33.2978L130.254 35.6709L131.392 36.2404L132.339 33.7724L133.477 36.2404L134.614 35.481L133.003 33.2978L135.656 33.7724V32.7283H133.003L134.614 30.64L133.761 30.0704L132.339 32.3486L131.392 30.0704Z" fill="#20A2DC"/>
<path d="M129.666 50.5281L128.529 51.0976L130.14 53.1859H127.676V54.23L130.14 53.7554L128.529 56.1285L129.666 56.698L130.614 54.23L131.751 56.698L132.889 55.9386L131.277 53.7554L133.931 54.23V53.1859H131.277L132.889 51.0976L132.036 50.5281L130.614 52.8062L129.666 50.5281Z" fill="#20A2DC"/>
<path d="M83.7215 8.38025L83.2046 8.66063L83.9369 9.68872H82.8169V10.2028L83.9369 9.9691L83.2046 11.1374L83.7215 11.4178L84.1523 10.2028L84.6693 11.4178L85.1862 11.0439L84.4539 9.9691L85.6601 10.2028V9.68872H84.4539L85.1862 8.66063L84.7985 8.38025L84.1523 9.50179L83.7215 8.38025Z" fill="#20A2DC"/>
<path fill-rule="evenodd" clip-rule="evenodd" d="M31.6055 36.845C32.8617 36.845 33.8801 35.825 33.8801 34.5668C33.8801 33.3087 32.8617 32.2887 31.6055 32.2887C30.3493 32.2887 29.331 33.3087 29.331 34.5668C29.331 35.825 30.3493 36.845 31.6055 36.845ZM31.5756 35.2862C31.9888 35.2862 32.3238 34.9507 32.3238 34.5368C32.3238 34.123 31.9888 33.7875 31.5756 33.7875C31.1624 33.7875 30.8274 34.123 30.8274 34.5368C30.8274 34.9507 31.1624 35.2862 31.5756 35.2862Z" fill="#516678"/>
<path fill-rule="evenodd" clip-rule="evenodd" d="M24.4577 56.8098C25.7138 56.8098 26.7322 55.7899 26.7322 54.5317C26.7322 53.2735 25.7138 52.2535 24.4577 52.2535C23.2015 52.2535 22.1831 53.2735 22.1831 54.5317C22.1831 55.7899 23.2015 56.8098 24.4577 56.8098ZM24.4277 55.2511C24.8409 55.2511 25.1759 54.9156 25.1759 54.5017C25.1759 54.0878 24.8409 53.7523 24.4277 53.7523C24.0145 53.7523 23.6795 54.0878 23.6795 54.5017C23.6795 54.9156 24.0145 55.2511 24.4277 55.2511Z" fill="#516678"/>
<path fill-rule="evenodd" clip-rule="evenodd" d="M88.3029 37.3578C90.5159 37.3578 92.31 35.5609 92.31 33.3444C92.31 31.1278 90.5159 29.3309 88.3029 29.3309C86.0898 29.3309 84.2958 31.1278 84.2958 33.3444C84.2958 35.5609 86.0898 37.3578 88.3029 37.3578ZM88.3251 34.6826C89.0531 34.6826 89.6433 34.0915 89.6433 33.3624C89.6433 32.6333 89.0531 32.0422 88.3251 32.0422C87.5972 32.0422 87.007 32.6333 87.007 33.3624C87.007 34.0915 87.5972 34.6826 88.3251 34.6826Z" fill="#516678"/>
<path fill-rule="evenodd" clip-rule="evenodd" d="M152.992 73.0682C154.313 73.0682 155.385 71.9952 155.385 70.6714C155.385 69.3477 154.313 68.2747 152.992 68.2747C151.67 68.2747 150.599 69.3477 150.599 70.6714C150.599 71.9952 151.67 73.0682 152.992 73.0682ZM152.96 71.4281C153.395 71.4281 153.747 71.0751 153.747 70.6397C153.747 70.2043 153.395 69.8513 152.96 69.8513C152.525 69.8513 152.173 70.2043 152.173 70.6397C152.173 71.0751 152.525 71.4281 152.96 71.4281Z" fill="#516678"/>
<path fill-rule="evenodd" clip-rule="evenodd" d="M110.597 17.6105C111.919 17.6105 112.99 16.5374 112.99 15.2137C112.99 13.89 111.919 12.8169 110.597 12.8169C109.276 12.8169 108.204 13.89 108.204 15.2137C108.204 16.5374 109.276 17.6105 110.597 17.6105ZM110.566 15.9703C111 15.9703 111.353 15.6173 111.353 15.1819C111.353 14.7465 111 14.3935 110.566 14.3935C110.131 14.3935 109.779 14.7465 109.779 15.1819C109.779 15.6173 110.131 15.9703 110.566 15.9703Z" fill="#516678"/>
<path d="M48.8011 117.068C48.8011 116.294 49.2313 114.111 49.4463 113.116H26.2978C25.3299 113.116 24.4427 113.826 24.4427 115.052C24.4427 116.278 25.3299 117.068 25.9752 117.068H48.8011Z" fill="#20A2DC"/>
<path d="M140.185 116.988C140.185 115.213 139.056 113.681 138.572 113.036H148.412C149.38 113.036 150.267 113.745 150.267 114.971C150.267 116.197 149.38 116.988 148.735 116.988H140.185Z" fill="#20A2DC"/>
<path d="M61.4642 96.5815L57.6734 107.793H61.8675L64.7712 99.2432H71.7077C72.4174 99.2432 73.0251 98.7593 73.2401 98.5173L77.1117 93.2746H88.2423C88.1133 93.4682 89.5328 97.3343 90.2587 99.2432L83.1609 106.099H88.8876L94.0496 101.179C94.8239 100.598 94.7486 99.6465 94.6142 99.2432L91.7106 91.4195C91.9687 90.9678 92.1407 90.0483 92.1945 89.645H97.1952C97.6792 91.2582 98.5664 93.5166 98.8084 94.6458C99.2232 96.5815 99.6687 97.0655 100.099 97.3881L105.18 101.421L108.326 98.8399L102.841 94.4844L100.744 87.7899C100.422 85.9348 99.7763 85.6122 98.8084 85.6122H90.662C88.9844 85.6122 88.3499 88.0319 88.2423 89.2417H76.3051C75.2727 89.1127 74.5844 89.887 74.3693 90.2903L70.8204 95.1297H63.5613C62.1095 95.1297 61.7062 95.8556 61.4642 96.5815Z" fill="#20A2DC"/>
<path fill-rule="evenodd" clip-rule="evenodd" d="M85.8477 150.38H124.878C124.709 149.736 124.619 149.06 124.619 148.363C124.619 147.695 124.701 147.047 124.857 146.428H118.811V116.907H122.844V124.65C122.898 125.779 123.747 128.086 126.716 128.28H144.057C144.837 128.253 146.396 128.715 146.396 130.78V144.814C146.45 145.352 146.267 146.428 145.105 146.428H140.189C140.345 147.047 140.427 147.695 140.427 148.363C140.427 149.06 140.337 149.736 140.168 150.38H144.702C146.557 150.46 150.267 149.605 150.267 145.54V130.538C150.456 128.71 149.509 124.924 144.218 124.408H136.475V118.601C136.502 116.907 135.378 113.423 130.668 113.036H118.973C117.682 113.036 115.053 113.794 114.859 116.826V138.684H106.955L106.793 129.974L115.262 109.083H133.894C134.701 108.841 136.12 107.938 135.346 106.26L127.603 96.3396H109.455L98.889 104.728L55.8182 107.551C55.3343 107.632 54.318 108.196 54.1244 109.809L50.9788 125.537C50.8175 126.236 50.9788 127.699 52.9146 127.957L58.9638 128.28V138.765C57.996 139.007 56.0279 140.056 55.8989 142.314V146.75C55.9527 147.826 56.7538 150.057 59.5284 150.38H78.8611C78.5179 149.787 78.3215 149.098 78.3215 148.363C78.3215 147.629 78.5179 146.94 78.8611 146.347H59.9318V142.556H72.2723C74.9824 137.523 79.4507 136.668 82.435 136.668C87.8391 136.668 91.4417 140.378 92.7591 142.556H114.859V146.347H85.8477C86.1908 146.94 86.3872 147.629 86.3872 148.363C86.3872 149.098 86.1908 149.787 85.8477 150.38ZM57.754 111.342L55.3343 124.086L103.728 127.634L111.794 106.986C111.982 106.422 112.73 105.276 114.214 105.212H129.619L125.748 100.211H110.665L100.18 108.599L57.754 111.342ZM62.8354 128.602V138.604H70.0945C71.7346 136.48 76.8697 132.334 82.3544 132.635C89.7748 133.043 92.9204 136.507 94.6949 138.604H102.922V131.667L62.8354 128.602ZM126.635 116.988V124.328H132.604V118.843C132.55 118.225 132.104 116.988 130.748 116.988H126.635Z" fill="#516678"/>
<path d="M24.9266 78.5405C24.3128 77.9266 24.2814 76.6854 24.604 76.2821L33.4763 66.7646C34.5248 65.5547 35.3852 65.7967 35.8153 66.0387L44.123 71.6846L50.3336 58.1343C50.5917 56.8438 51.7316 56.091 52.2693 55.8759L66.1423 50.7945C67.8845 50.0202 68.804 51.1171 69.046 51.7624L78.7248 69.7489L81.5478 64.1029C81.8059 63.2641 82.7308 62.9468 83.1609 62.893L100.341 60.0701C101.76 59.812 102.438 60.2851 102.599 60.554L110.746 71.4427H125.506L133.168 78.7825L135.265 62.8124C135.459 61.1347 136.744 60.7691 137.362 60.796H148.574C149.111 60.9035 150.203 61.4574 150.267 62.8124C150.332 64.1674 149.165 64.6675 148.574 64.7482H139.056L136.636 83.0573C135.991 85.3802 134.324 85.1543 133.571 84.7511L124.054 75.2335H109.213C108.181 74.7819 102.976 67.6249 100.502 64.1029L84.6128 66.6839L80.5799 74.5883C79.3539 76.6531 77.7569 75.7713 77.1117 75.0722L66.3036 55.0693L54.0438 59.5055L46.946 74.9916C46.1072 77.0564 44.4994 76.7123 43.8004 76.2821L35.4121 70.5555L27.8303 78.5405C26.8624 79.4277 25.7332 79.347 24.9266 78.5405Z" fill="#516678"/>
<path fill-rule="evenodd" clip-rule="evenodd" d="M82.3544 156.268C86.7198 156.268 90.2587 152.729 90.2587 148.363C90.2587 143.998 86.7198 140.459 82.3544 140.459C77.9889 140.459 74.45 143.998 74.45 148.363C74.45 152.729 77.9889 156.268 82.3544 156.268ZM82.3543 152.396C84.5816 152.396 86.3872 150.59 86.3872 148.363C86.3872 146.136 84.5816 144.33 82.3543 144.33C80.127 144.33 78.3215 146.136 78.3215 148.363C78.3215 150.59 80.127 152.396 82.3543 152.396Z" fill="#20A2DC"/>
<path fill-rule="evenodd" clip-rule="evenodd" d="M132.523 156.268C136.888 156.268 140.427 152.729 140.427 148.363C140.427 143.998 136.888 140.459 132.523 140.459C128.157 140.459 124.619 143.998 124.619 148.363C124.619 152.729 128.157 156.268 132.523 156.268ZM132.523 152.396C134.75 152.396 136.556 150.59 136.556 148.363C136.556 146.136 134.75 144.33 132.523 144.33C130.296 144.33 128.49 146.136 128.49 148.363C128.49 150.59 130.296 152.396 132.523 152.396Z" fill="#20A2DC"/>
<rect x="15.912" y="156.268" width="143.033" height="4.26364" rx="2.13182" fill="#516678"/>
<rect x="161.158" y="156.268" width="7.15163" height="4.26364" rx="2.13182" fill="#20A2DC"/>
<rect x="6.717" y="156.268" width="7.15163" height="4.26364" rx="2.13182" fill="#20A2DC"/>
<rect x="64.4409" y="164.454" width="45.6342" height="4.26364" rx="2.13182" fill="#20A2DC"/>
<rect x="72.7845" y="170.764" width="30.139" height="4.26364" rx="2.13182" fill="#20A2DC"/>
<rect x="83.1714" y="167.353" width="8.68413" height="4.26364" fill="#20A2DC"/>
<rect x="112.118" y="164.454" width="12.6005" height="4.26364" rx="2.13182" fill="#20A2DC"/>
<rect x="49.7971" y="164.454" width="12.6005" height="4.26364" rx="2.13182" fill="#20A2DC"/>
<rect x="170.353" y="156.268" width="4.25692" height="4.26364" rx="2.12846" fill="#20A2DC"/>
<rect x="0.246468" y="156.268" width="4.25692" height="4.26364" rx="2.12846" fill="#20A2DC"/>
</svg>
