<svg width="175" height="175" viewBox="0 0 175 175" fill="none" xmlns="http://www.w3.org/2000/svg">
<path fill-rule="evenodd" clip-rule="evenodd" d="M82.1164 97.6607L82.1163 97.6941H85.3331C85.7823 97.6941 86.0389 98.2715 86.2314 99.0414L97.0742 133.43C97.5233 134.906 98.2291 136.767 101.245 136.767H134.992C135.89 136.852 138.136 136.318 138.777 133.687L145.065 108.986C145.514 107.318 144.552 103.917 141.28 103.917H111.446C110.804 103.917 109.97 104.482 109.97 105.457C109.97 106.432 110.804 107.125 111.317 107.125H141.28C141.985 107.125 142.345 107.562 141.985 108.794L140.638 114.119H129.603C129.988 114.867 130.745 116.544 130.693 117.262H139.74L138.585 121.882H131.014C130.971 122.759 130.758 124.615 130.244 125.026H137.815L135.826 132.789C135.804 132.854 135.79 132.923 135.775 132.992C135.704 133.333 135.63 133.687 134.671 133.687H101.245L101.197 133.685C100.796 133.666 100.27 133.64 99.9613 132.468L89.0544 97.4374C88.8191 96.5392 87.7712 94.5503 85.3331 94.5503H81.912C82.0379 95.5458 82.1164 96.6 82.1164 97.6607Z" fill="#516678"/>
<path fill-rule="evenodd" clip-rule="evenodd" d="M117.797 131.699C123.998 131.699 129.025 126.672 129.025 120.471C129.025 114.27 123.998 109.243 117.797 109.243C111.597 109.243 106.57 114.27 106.57 120.471C106.57 126.672 111.597 131.699 117.797 131.699ZM117.798 128.363C122.156 128.363 125.689 124.829 125.689 120.471C125.689 116.113 122.156 112.58 117.798 112.58C113.439 112.58 109.906 116.113 109.906 120.471C109.906 124.829 113.439 128.363 117.798 128.363Z" fill="#20A2DC"/>
<path d="M113.885 121.123C113.848 120.317 114.603 120.024 114.985 119.978C115.168 119.956 115.351 119.978 115.626 120.161L117.001 121.169L119.887 117.459C120.345 117.047 121.078 117.184 121.399 117.459C121.811 117.871 121.72 118.558 121.536 118.833L117.825 123.688C117.166 124.018 116.634 123.764 116.451 123.597L114.252 121.948C113.931 121.673 113.893 121.306 113.885 121.123Z" fill="#20A2DC"/>
<path fill-rule="evenodd" clip-rule="evenodd" d="M107.596 150.818C110.643 150.818 113.114 148.348 113.114 145.3C113.114 142.253 110.643 139.783 107.596 139.783C104.549 139.783 102.078 142.253 102.078 145.3C102.078 148.348 104.549 150.818 107.596 150.818ZM107.596 147.61C108.872 147.61 109.906 146.576 109.906 145.3C109.906 144.025 108.872 142.99 107.596 142.99C106.321 142.99 105.286 144.025 105.286 145.3C105.286 146.576 106.321 147.61 107.596 147.61Z" fill="#20A2DC"/>
<path fill-rule="evenodd" clip-rule="evenodd" d="M128.769 150.818C131.816 150.818 134.287 148.348 134.287 145.3C134.287 142.253 131.816 139.783 128.769 139.783C125.722 139.783 123.251 142.253 123.251 145.3C123.251 148.348 125.722 150.818 128.769 150.818ZM128.769 147.61C130.045 147.61 131.079 146.576 131.079 145.3C131.079 144.025 130.045 142.99 128.769 142.99C127.493 142.99 126.459 144.025 126.459 145.3C126.459 146.576 127.493 147.61 128.769 147.61Z" fill="#20A2DC"/>
<path d="M97.6518 114.183L96.6252 111.296C97.1385 110.911 99.6407 110.89 100.796 111.04C100.847 109.654 101.63 107.468 102.015 106.548L99.5124 105.073C96.8947 103.174 97.7373 100.56 98.4858 99.491L99.9615 96.8605C101.553 94.6021 103.875 95.064 104.838 95.5773L107.34 96.9888C107.802 96.1675 109.628 94.508 110.484 93.7808L109.072 91.1503C107.584 88.4813 109.393 86.702 110.484 86.146L112.023 85.1836C114.641 82.9765 117.006 84.0929 117.862 84.9269L119.915 88.3274C120.377 87.8141 122.973 87.3008 124.213 87.1083V83.8363C124.419 81.2186 126.652 80.5214 127.742 80.5H131.463C134.132 80.7566 134.842 82.8311 134.864 83.8363V87.1083C136.301 87.211 138.371 87.921 139.227 88.2632L141.023 85.1194C142.948 82.7456 145.45 84.4137 146.092 84.7986L147.567 85.6327C150.852 87.1725 150.647 89.7175 150.134 90.8295L148.53 93.7808C149.659 94.4994 151.139 96.2616 151.738 97.0529L154.24 95.5773C157.165 94.2941 158.881 96.2403 159.372 97.3737L160.399 99.106C162.247 101.775 160.998 103.897 160.142 104.624L157.063 106.548C157.679 107.472 158.089 109.927 158.218 111.04L161.426 110.975C164.095 111.386 164.719 113.756 164.698 114.889V118.482C164.595 120.792 162.473 121.711 161.426 121.882H158.282C158.282 123.012 157.469 125.347 157.063 126.373L160.335 128.491C162.131 130.133 161.083 132.768 160.335 133.88L159.244 135.869C158.012 138.025 155.78 137.965 154.817 137.665L152.251 136.19C151.943 135.83 151.566 136.083 151.417 136.254L148.85 138.756C148.388 139.013 148.572 139.419 148.722 139.59L149.877 141.515C151.032 143.632 150.326 145.557 148.722 146.648L145.001 148.765C142.896 149.689 141.729 148.808 141.408 148.252L139.547 145.236C139.291 144.787 138.842 144.787 138.649 144.851L137.302 145.236C137.456 144.261 136.938 142.777 136.66 142.156L138.521 141.515C140.42 140.95 141.494 142.178 141.793 142.862L143.076 145.236C143.384 146.109 144.274 145.771 144.68 145.493L146.861 144.145C147.477 143.735 147.246 143.204 147.054 142.991L145.707 140.553C144.577 138.551 145.749 137.195 146.477 136.767C147.554 136.1 149.107 134.179 149.749 133.303C150.878 132.122 152.187 132.469 152.7 132.789L155.138 134.329C155.908 134.894 156.485 134.393 156.678 134.072L157.768 132.084C158.282 131.416 157.982 130.822 157.768 130.608L155.138 129.004C153.342 128.029 153.833 125.903 154.304 124.962C154.458 124.603 154.924 122.503 155.138 121.497C155.241 119.444 156.806 118.846 157.576 118.803H160.72C161.438 118.854 161.575 118.225 161.554 117.905V115.274C161.708 114.299 161.062 114.141 160.72 114.183H157.833C155.677 114.081 155.266 112.686 155.33 112.002C155.33 111.335 154.603 109.029 154.24 107.96C153.111 105.548 154.496 104.26 155.33 103.918L157.576 102.635C158.397 102.121 158.089 101.352 157.833 101.031L156.549 98.5927C156.241 97.9255 155.608 98.3147 155.33 98.5927L153.085 99.9401C151.481 100.902 149.877 100.004 149.556 99.2985C149.3 98.7339 146.926 96.4969 145.771 95.449C144.898 94.4738 145.236 93.2462 145.514 92.7543L146.861 90.3804C147.477 89.5079 147.118 88.9903 146.861 88.8406L144.488 87.4291C143.666 86.9672 143.29 87.4077 143.204 87.6858L141.408 90.8295C139.92 92.1127 138.495 91.5353 137.623 91.022C136.853 90.5691 135.375 90.3225 134.671 90.2521C132.105 89.9955 131.677 88.5198 131.784 87.6858V84.6062C131.836 83.7336 131.164 83.5582 130.822 83.5796H128.191C127.37 83.5283 127.25 84.1143 127.293 84.4137V88.0066C127.088 89.8543 125.069 90.359 124.085 90.3804C123.059 90.4831 121.562 91.022 120.941 91.2787C118.58 92.2539 117.434 90.8723 117.156 90.0596L115.873 87.6858C115.514 87.0185 114.825 87.2367 114.526 87.4291L112.472 88.6481C111.6 89.1101 111.809 89.7816 112.023 90.0596L113.371 92.4335C114.654 93.922 113.478 95.4917 112.729 96.0906C111.908 96.5525 109.949 98.8494 109.072 99.9401C107.994 100.761 106.826 100.453 106.377 100.197L103.811 98.5927C103.092 97.9768 102.571 98.55 102.4 98.9135L101.116 101.159C100.603 101.878 101.031 102.314 101.309 102.442L103.49 103.725C105.543 104.701 105.415 106.356 104.966 107.447C104.453 108.114 103.982 110.847 103.811 112.13C103.631 113.478 102.271 114.183 101.501 114.183H97.6518Z" fill="#516678"/>
<path fill-rule="evenodd" clip-rule="evenodd" d="M37.0454 65.5537H62.6023C64.9623 65.5537 68.2433 66.9927 68.934 71.54L70.8335 80.8648C71.3899 82.112 72.2725 85.4532 72.2725 88.8658C72.2725 93.2979 69.6823 110.221 49.7663 111.199C42.341 111.199 28.9294 106.479 27.3752 90.017C27.2793 88.271 27.4558 83.9961 28.9294 80.8648L30.5986 71.54C30.8864 69.2376 32.8089 65.5537 37.0454 65.5537ZM31.8649 79.8289C34.5127 78.6585 41.2473 76.4903 49.9965 76.4903C58.7457 76.4903 65.2501 78.7736 67.7827 79.8289L66.2286 72.1157C66.2286 70.5616 65.0774 68.4319 62.7749 68.4319H36.9878C35.3761 68.4319 33.9371 69.1226 33.4766 72.1157L31.8649 79.8289ZM66.6317 82.4187C53.9108 77.008 37.909 79.9436 33.1314 82.4187L37.1607 85.9874C47.3489 83.7426 58.1127 85.0089 62.4298 85.9874L66.6317 82.4187ZM30.7137 84.0881L34.8581 87.7144C35.0217 87.8157 35.1684 87.9149 35.3078 88.0092C36.1985 88.6114 36.7909 89.0119 39.578 88.4627C43.473 87.6953 52.5291 86.851 59.8969 88.4052C60.0544 88.4384 60.2059 88.4712 60.3523 88.503C61.9713 88.854 62.9565 89.0676 64.329 88.1174L68.9339 84.0881C69.1834 84.9515 69.481 86.9662 69.452 88.8657C69.3561 95.1398 65.0773 108.206 49.7663 108.379C34.1108 108.555 29.5625 93.3554 30.1957 88.4627C30.1957 87.4266 30.2993 84.4105 30.7137 84.0881Z" fill="#516678"/>
<path fill-rule="evenodd" clip-rule="evenodd" d="M68.965 144.254C68.6011 144.254 68.1281 144.127 68.1281 143.256V135.315C68.1281 134.907 68.4192 134.453 68.965 134.453H82.7595C83.0142 134.453 83.5237 134.635 83.5237 135.315V143.256C83.5237 143.664 83.3053 144.254 82.7959 144.254H68.965ZM70.891 137.216V141.476H80.7914V137.216H70.891Z" fill="#20A2DC"/>
<path d="M46.9459 113.847C46.5315 113.847 44.8929 113.54 44.1255 113.387L42.8016 117.531C42.2835 120.006 44.6435 121.215 45.8523 121.445L44.4133 131.23L47.1186 132.209L48.5576 122.827C49.3404 123.425 50.6106 123.076 51.1478 122.827L52.5869 132.209L55.2346 131.23L53.7956 121.445C56.8809 120.616 57.0766 118.605 56.7888 117.704C56.405 116.226 55.6145 113.295 55.5224 113.387C55.4304 113.479 53.6038 113.732 52.702 113.847L54.0259 118.164L49.7664 120.294C49.6282 120.156 46.9459 118.817 45.622 118.164L46.9459 113.847Z" fill="#20A2DC"/>
<path fill-rule="evenodd" clip-rule="evenodd" d="M33.9946 108.437C35.1074 109.281 37.5058 111.015 38.1965 111.199H30.8287C29.6391 111.238 27.2139 111.418 27.0297 111.833C28.1234 119.066 34.2133 133.936 49.8237 135.548C56.0786 135.125 69.3828 129.792 72.5602 111.833C72.1189 111.622 70.7758 111.199 68.9338 111.199H61.451C62.3336 110.72 64.4326 109.496 65.768 108.437H69.5095C75.3615 108.667 87.4799 112.984 89.1376 128.41V157.278L10.4523 157.623V128.928C10.6441 122.692 14.9075 109.864 30.4258 108.437H33.9946ZM86.3172 154.6V129.561C86.5091 125.628 84.5674 116.748 75.2656 112.696C73.8649 120.678 66.8157 136.964 49.8238 138.253C42.9741 138.042 28.3191 132.635 24.4971 112.696C20.9859 113.886 13.8484 118.694 13.3879 128.41C12.9274 138.126 13.3879 154.945 13.3879 154.945L86.3172 154.6Z" fill="#516678"/>
<path fill-rule="evenodd" clip-rule="evenodd" d="M23.8424 44.6411V51.8713C23.8159 54.2326 25.828 59.0456 32.2617 59.3935C33.6119 59.4666 36.8685 59.0138 39.0924 56.6183C41.184 58.7119 46.781 61.6429 52.4362 56.6183C54.5014 58.7363 60.0613 61.7013 65.7801 56.6183C67.8981 58.7363 73.5163 61.7013 79.0444 56.6183C81.136 58.6876 86.7648 61.5845 92.5471 56.6183C94.6122 58.7363 100.156 61.7013 105.812 56.6183C107.744 58.7119 113.119 61.6429 119.155 56.6183C121.353 58.6876 127.082 61.5845 132.42 56.6183C133.505 57.6895 136.328 59.7441 138.933 59.3935C141.474 59.5396 146.812 58.2396 147.829 51.8713V44.7142L138.059 33.0291V26.3832C138.059 25.8476 137.678 24.7619 136.153 24.7035H123.524V19.2991C123.577 18.7635 123.254 17.6778 121.538 17.6194H50.2917C49.5769 17.6437 48.1313 18.043 48.0677 19.4452V24.6304H35.3593C34.7504 24.7035 33.5325 25.1709 33.5325 26.4562V33.0291L23.8424 44.6411ZM27.6549 46.9052V52.0905C27.6549 53.4781 28.7669 55.8151 32.4206 55.8151C35.9795 55.8151 37.1862 53.332 37.1862 52.0905V46.9052H27.6549ZM40.9986 52.0905V46.9052H50.5299V52.0905C50.5299 53.332 49.3232 55.8151 45.7643 55.8151C42.1106 55.8151 40.9986 53.4781 40.9986 52.0905ZM54.3424 46.9052V52.0905C54.3424 53.4781 55.4543 55.8151 59.108 55.8151C62.6669 55.8151 63.8737 53.332 63.8737 52.0905V46.9052H54.3424ZM67.6863 52.0905V46.9052H77.2176V52.0905C77.2176 53.332 76.0109 55.8151 72.452 55.8151C68.7983 55.8151 67.6863 53.4781 67.6863 52.0905ZM81.0301 46.9052V52.0905C81.0301 53.4781 82.142 55.8151 85.7957 55.8151C89.3546 55.8151 90.5614 53.332 90.5614 52.0905V46.9052H81.0301ZM94.374 52.0905V46.9052H103.905V52.0905C103.905 53.332 102.699 55.8151 99.1397 55.8151C95.486 55.8151 94.374 53.4781 94.374 52.0905ZM107.718 46.9052V52.0905C107.718 53.4781 108.83 55.8151 112.483 55.8151C116.042 55.8151 117.249 53.332 117.249 52.0905V46.9052H107.718ZM121.061 52.0905V46.9052H130.593V52.0905C130.593 53.332 129.386 55.8151 125.827 55.8151C122.173 55.8151 121.061 53.4781 121.061 52.0905ZM134.405 46.9052V52.0905C134.405 53.4781 135.517 55.8151 139.171 55.8151C142.73 55.8151 143.937 53.332 143.937 52.0905V46.9052H134.405ZM36.3918 35.3662L29.7993 43.3267H141.951L135.12 35.3662H36.3918ZM37.5038 28.2818V31.7143H134.246V28.2818H122.571C121.512 28.4035 119.457 28.1358 119.711 26.0909V21.1247H51.8802V24.7033H92.4676C93.5002 24.7033 94.3739 25.1268 94.3739 26.5291C94.3739 27.9313 93.2619 28.2818 92.4676 28.2818H37.5038Z" fill="#516678"/>
</svg>
