<svg width="175" height="176" viewBox="0 0 175 176" fill="none" xmlns="http://www.w3.org/2000/svg">
<path d="M24.5737 40.0669L23.4365 40.6364L25.0476 42.7247H22.5835V43.7689L25.0476 43.2943L23.4365 45.6673L24.5737 46.2368L25.5215 43.7689L26.6587 46.2368L27.796 45.4775L26.1849 43.2943L28.8385 43.7689V42.7247H26.1849L27.796 40.6364L26.943 40.0669L25.5215 42.345L24.5737 40.0669Z" fill="#20A2DC"/>
<path d="M40.949 15.4624L39.8117 16.0319L41.4228 18.1202H38.9587V19.1644L41.4228 18.6898L39.8117 21.0628L40.949 21.6324L41.8967 19.1644L43.034 21.6324L44.1712 20.873L42.5601 18.6898L45.2137 19.1644V18.1202H42.5601L44.1712 16.0319L43.3183 15.4624L41.8967 17.7405L40.949 15.4624Z" fill="#20A2DC"/>
<path d="M157.025 35.7395L155.888 36.309L157.499 38.3973H155.035V39.4415L157.499 38.9669L155.888 41.3399L157.025 41.9095L157.973 39.4415L159.11 41.9095L160.248 41.1501L158.637 38.9669L161.29 39.4415V38.3973H158.637L160.248 36.309L159.395 35.7395L157.973 38.0176L157.025 35.7395Z" fill="#20A2DC"/>
<path d="M108.716 19.2255L107.578 19.795L109.189 21.8833H106.725V22.9274L109.189 22.4528L107.578 24.8259L108.716 25.3954L109.663 22.9274L110.801 25.3954L111.938 24.636L110.327 22.4528L112.98 22.9274V21.8833H110.327L111.938 19.795L111.085 19.2255L109.663 21.5036L108.716 19.2255Z" fill="#20A2DC"/>
<path d="M83.198 2.46484L82.681 2.74523L83.4134 3.77331H82.2933V4.28735L83.4134 4.0537L82.681 5.22197L83.198 5.50236L83.6288 4.28735L84.1457 5.50236L84.6627 5.12851L83.9303 4.0537L85.1365 4.28735V3.77331H83.9303L84.6627 2.74523L84.2749 2.46484L83.6288 3.58639L83.198 2.46484Z" fill="#20A2DC"/>
<path fill-rule="evenodd" clip-rule="evenodd" d="M20.8201 11.2858C22.0763 11.2858 23.0947 10.2658 23.0947 9.00763C23.0947 7.74945 22.0763 6.72949 20.8201 6.72949C19.5639 6.72949 18.5456 7.74945 18.5456 9.00763C18.5456 10.2658 19.5639 11.2858 20.8201 11.2858ZM20.7902 9.72704C21.2034 9.72704 21.5384 9.39153 21.5384 8.97765C21.5384 8.56378 21.2034 8.22827 20.7902 8.22827C20.377 8.22827 20.042 8.56378 20.042 8.97765C20.042 9.39153 20.377 9.72704 20.7902 9.72704Z" fill="#516678"/>
<path fill-rule="evenodd" clip-rule="evenodd" d="M12.6267 54.6373C13.8829 54.6373 14.9012 53.6174 14.9012 52.3592C14.9012 51.101 13.8829 50.0811 12.6267 50.0811C11.3705 50.0811 10.3521 51.101 10.3521 52.3592C10.3521 53.6174 11.3705 54.6373 12.6267 54.6373ZM12.5967 53.0786C13.0099 53.0786 13.3449 52.7431 13.3449 52.3292C13.3449 51.9153 13.0099 51.5798 12.5967 51.5798C12.1835 51.5798 11.8485 51.9153 11.8485 52.3292C11.8485 52.7431 12.1835 53.0786 12.5967 53.0786Z" fill="#516678"/>
<path fill-rule="evenodd" clip-rule="evenodd" d="M89.8535 21.7899C92.0666 21.7899 93.8607 19.9931 93.8607 17.7765C93.8607 15.5599 92.0666 13.7631 89.8535 13.7631C87.6405 13.7631 85.8464 15.5599 85.8464 17.7765C85.8464 19.9931 87.6405 21.7899 89.8535 21.7899ZM89.8007 19.0438C90.5287 19.0438 91.1189 18.4527 91.1189 17.7236C91.1189 16.9945 90.5287 16.4034 89.8007 16.4034C89.0727 16.4034 88.4826 16.9945 88.4826 17.7236C88.4826 18.4527 89.0727 19.0438 89.8007 19.0438Z" fill="#516678"/>
<path fill-rule="evenodd" clip-rule="evenodd" d="M150.862 57.5795C152.184 57.5795 153.256 56.5064 153.256 55.1827C153.256 53.859 152.184 52.7859 150.862 52.7859C149.541 52.7859 148.469 53.859 148.469 55.1827C148.469 56.5064 149.541 57.5795 150.862 57.5795ZM150.831 55.9393C151.266 55.9393 151.618 55.5864 151.618 55.1509C151.618 54.7155 151.266 54.3625 150.831 54.3625C150.396 54.3625 150.044 54.7155 150.044 55.1509C150.044 55.5864 150.396 55.9393 150.831 55.9393Z" fill="#516678"/>
<path fill-rule="evenodd" clip-rule="evenodd" d="M147.569 17.8571C148.891 17.8571 149.962 16.784 149.962 15.4603C149.962 14.1366 148.891 13.0635 147.569 13.0635C146.247 13.0635 145.176 14.1366 145.176 15.4603C145.176 16.784 146.247 17.8571 147.569 17.8571ZM147.538 16.2169C147.972 16.2169 148.325 15.8639 148.325 15.4285C148.325 14.9931 147.972 14.6401 147.538 14.6401C147.103 14.6401 146.75 14.9931 146.75 15.4285C146.75 15.8639 147.103 16.2169 147.538 16.2169Z" fill="#516678"/>
<path fill-rule="evenodd" clip-rule="evenodd" d="M30.4303 84.9525H34.3283C33.8857 87.7302 33.6558 90.5788 33.6558 93.4811C33.6558 123.041 57.5022 147.031 87.0071 147.263V150.952C55.3875 150.761 29.8141 125.069 29.8141 93.4042C29.8141 90.533 30.0244 87.7109 30.4303 84.9525ZM140.552 84.9525H144.296C144.702 87.7109 144.912 90.533 144.912 93.4042C144.912 112.181 135.92 128.857 122.007 139.361V134.688C133.756 124.822 141.224 110.023 141.224 93.4811C141.224 90.5788 140.994 87.7302 140.552 84.9525ZM111.916 41.3406C104.469 37.8226 96.1456 35.8552 87.3631 35.8552C78.6915 35.8552 70.4679 37.7732 63.0933 41.208C63.2381 41.9626 63.3139 42.7418 63.3139 43.5387C63.3139 44.1975 63.2621 44.8443 63.1623 45.4751C70.4555 41.7795 78.7045 39.6969 87.4399 39.6969C96.2423 39.6969 104.551 41.8115 111.885 45.5603C111.776 44.9026 111.72 44.2273 111.72 43.5387C111.72 42.7884 111.787 42.0538 111.916 41.3406Z" fill="#516678"/>
<path fill-rule="evenodd" clip-rule="evenodd" d="M123.71 51.8367C128.971 51.8367 133.237 47.5711 133.237 42.3092C133.237 37.0473 128.971 32.7817 123.71 32.7817C118.448 32.7817 114.182 37.0473 114.182 42.3092C114.182 47.5711 118.448 51.8367 123.71 51.8367ZM123.786 47.995C126.884 47.995 129.395 45.4838 129.395 42.386C129.395 39.2883 126.884 36.7771 123.786 36.7771C120.689 36.7771 118.178 39.2883 118.178 42.386C118.178 45.4838 120.689 47.995 123.786 47.995Z" fill="#20A2DC"/>
<path fill-rule="evenodd" clip-rule="evenodd" d="M106.806 78.4213C106.191 74.0929 104.993 64.9753 105.116 64.0532C105.269 62.9007 105.961 61.5177 107.113 60.9799V57.3686C107.344 55.499 108.942 51.4831 113.491 50.3767C114.285 51.3243 116.149 53.3118 117.256 53.6806C115.488 53.5013 111.739 54.0648 110.878 57.7528V60.0578H136.925V57.9833C136.823 56.5491 135.45 53.6806 130.778 53.6806C131.931 52.7842 134.236 50.8684 134.236 50.3767C136.208 50.7609 140.275 52.82 140.767 57.9833V60.9799C141.407 61.2872 142.672 62.4551 142.611 64.6679C142.022 69.1755 140.89 78.2369 141.074 78.4213H137.335L138.846 65.0521C138.897 64.6679 138.831 63.8996 138.155 63.8996H109.803C109.47 63.8996 108.834 64.1301 108.957 65.0521L110.468 78.4213H106.806Z" fill="#516678"/>
<path d="M100.506 79.7517C100.506 80.2869 101.014 81.6484 102.042 81.6484H145.838C146.99 81.6484 147.375 80.3151 147.375 79.7517C147.375 79.1883 146.99 77.9604 145.832 77.9604H102.042C101.091 77.9604 100.506 79.2164 100.506 79.7517Z" fill="#20A2DC"/>
<circle cx="123.94" cy="71.4294" r="1.92086" fill="#20A2DC"/>
<path fill-rule="evenodd" clip-rule="evenodd" d="M50.5632 51.8367C55.8251 51.8367 60.0907 47.5711 60.0907 42.3092C60.0907 37.0473 55.8251 32.7817 50.5632 32.7817C45.3013 32.7817 41.0357 37.0473 41.0357 42.3092C41.0357 47.5711 45.3013 51.8367 50.5632 51.8367ZM50.64 47.995C53.7377 47.995 56.2489 45.4838 56.2489 42.386C56.2489 39.2883 53.7377 36.7771 50.64 36.7771C47.5423 36.7771 45.0311 39.2883 45.0311 42.386C45.0311 45.4838 47.5423 47.995 50.64 47.995Z" fill="#20A2DC"/>
<path fill-rule="evenodd" clip-rule="evenodd" d="M33.6596 78.4213C33.045 74.0929 31.8464 64.9753 31.9693 64.0532C32.123 62.9007 32.8145 61.5177 33.967 60.9799V57.3686C34.1975 55.499 35.7956 51.4831 40.3442 50.3767C41.1382 51.3243 43.0027 53.3118 44.1091 53.6806C42.3419 53.5013 38.5924 54.0648 37.7319 57.7528V60.0578H63.7788V57.9833C63.6763 56.5491 62.3035 53.6806 57.632 53.6806C58.7845 52.7842 61.0896 50.8684 61.0896 50.3767C63.0616 50.7609 67.1287 52.82 67.6205 57.9833V60.9799C68.2608 61.2872 69.526 62.4551 69.4645 64.6679C68.8754 69.1755 67.7434 78.2369 67.9278 78.4213H64.189L65.6996 65.0521C65.7508 64.6679 65.6842 63.8996 65.0081 63.8996H36.6562C36.3232 63.8996 35.6881 64.1301 35.811 65.0521L37.3216 78.4213H33.6596Z" fill="#516678"/>
<path d="M27.3592 79.7517C27.3592 80.2869 27.8673 81.6484 28.8959 81.6484H72.6915C73.844 81.6484 74.2282 80.3151 74.2282 79.7517C74.2282 79.1883 73.844 77.9604 72.6859 77.9604H28.8959C27.9441 77.9604 27.3592 79.2164 27.3592 79.7517Z" fill="#20A2DC"/>
<circle cx="50.7937" cy="71.4294" r="1.92086" fill="#20A2DC"/>
<path fill-rule="evenodd" clip-rule="evenodd" d="M79.3621 102.819C82.4353 102.819 84.9267 100.328 84.9267 97.2547C84.9267 94.1815 82.4353 91.6902 79.3621 91.6902C76.2889 91.6902 73.7976 94.1815 73.7976 97.2547C73.7976 100.328 76.2889 102.819 79.3621 102.819ZM79.407 100.575C81.2162 100.575 82.6829 99.1088 82.6829 97.2996C82.6829 95.4904 81.2162 94.0237 79.407 94.0237C77.5978 94.0237 76.1311 95.4904 76.1311 97.2996C76.1311 99.1088 77.5978 100.575 79.407 100.575Z" fill="#20A2DC"/>
<path fill-rule="evenodd" clip-rule="evenodd" d="M69.4896 118.346C69.1306 115.818 68.4306 110.493 68.5024 109.954C68.5921 109.281 68.996 108.473 69.6691 108.159V106.05C69.8038 104.958 70.7372 102.613 73.3938 101.967C73.8575 102.52 74.9465 103.681 75.5927 103.896C74.5605 103.791 72.3706 104.121 71.868 106.275V107.621H87.0807V106.409C87.0209 105.572 86.2191 103.896 83.4907 103.896C84.1638 103.373 85.5101 102.254 85.5101 101.967C86.6619 102.191 89.0373 103.394 89.3245 106.409V108.159C89.6984 108.339 90.4374 109.021 90.4015 110.313C90.0574 112.946 89.3963 118.238 89.504 118.346H87.3203L88.2026 110.538C88.2325 110.313 88.1936 109.865 87.7987 109.865H71.2398C71.0453 109.865 70.6744 109.999 70.7462 110.538L71.6285 118.346H69.4896Z" fill="#516678"/>
<path d="M65.8099 119.123C65.8099 119.436 66.1066 120.231 66.7074 120.231H92.2862C92.9594 120.231 93.1837 119.452 93.1837 119.123C93.1837 118.794 92.9594 118.077 92.283 118.077H66.7074C66.1515 118.077 65.8099 118.81 65.8099 119.123Z" fill="#20A2DC"/>
<circle cx="79.4968" cy="114.262" r="1.12188" fill="#20A2DC"/>
<path d="M101.832 124.097L99.1575 121.223L96.8846 123.629L99.4917 126.236L96.8846 128.844L94.2105 126.103L91.4696 128.108L94.4779 131.117L93.2746 132.32C92.8066 132.721 92.9403 133.523 93.2746 133.858L116.831 159.472C118.77 160.742 120.04 157.934 118.903 156.998L97.152 133.122L103.503 127.039L112.06 135.529C113.263 136.532 115.202 134.392 114.333 133.323L104.305 123.295C103.904 122.827 103.035 122.961 102.701 123.295L101.832 124.097Z" fill="#516678"/>
<path fill-rule="evenodd" clip-rule="evenodd" d="M79.4364 132.253C92.5433 132.253 103.169 121.628 103.169 108.521C103.169 95.4141 92.5433 84.7888 79.4364 84.7888C66.3295 84.7888 55.7042 95.4141 55.7042 108.521C55.7042 121.628 66.3295 132.253 79.4364 132.253ZM79.4364 128.911C90.6973 128.911 99.8261 119.782 99.8261 108.521C99.8261 97.2601 90.6973 88.1313 79.4364 88.1313C68.1756 88.1313 59.0468 97.2601 59.0468 108.521C59.0468 119.782 68.1756 128.911 79.4364 128.911Z" fill="#516678"/>
<path d="M105.976 105.178C106.03 103.948 105.598 102.527 105.375 101.969H117.809C118.344 101.969 119.213 102.491 119.213 103.507C119.213 104.523 118.344 105.178 117.809 105.178H105.976Z" fill="#516678"/>
<path d="M105.976 111.663C106.11 110.526 106.177 109.123 106.11 108.454H117.742C118.277 108.454 119.146 108.976 119.146 109.992C119.146 111.008 118.277 111.663 117.742 111.663H105.976Z" fill="#20A2DC"/>
<path d="M102.366 147.629C100.962 146.091 100.294 145.69 99.2912 144.42H91.3359C90.8011 144.42 89.932 144.941 89.932 145.957C89.932 146.974 90.8011 147.629 91.3359 147.629H102.366Z" fill="#516678"/>
<path d="M108.918 154.047C107.514 152.509 106.845 152.108 105.843 150.838H91.3359C90.8011 150.838 89.932 151.359 89.932 152.375C89.932 153.391 90.8011 154.047 91.3359 154.047H108.918Z" fill="#20A2DC"/>
<circle cx="117.542" cy="138.604" r="1.67128" fill="#20A2DC"/>
<rect x="15.912" y="156.268" width="143.033" height="4.26364" rx="2.13182" fill="#516678"/>
<rect x="161.158" y="156.268" width="7.15163" height="4.26364" rx="2.13182" fill="#20A2DC"/>
<rect x="6.71698" y="156.268" width="7.15163" height="4.26364" rx="2.13182" fill="#20A2DC"/>
<rect x="64.4409" y="164.454" width="45.6342" height="4.26364" rx="2.13182" fill="#20A2DC"/>
<rect x="72.7845" y="170.764" width="30.139" height="4.26364" rx="2.13182" fill="#20A2DC"/>
<rect x="83.1713" y="167.353" width="8.68413" height="4.26364" fill="#20A2DC"/>
<rect x="112.118" y="164.454" width="12.6005" height="4.26364" rx="2.13182" fill="#20A2DC"/>
<rect x="49.7971" y="164.454" width="12.6005" height="4.26364" rx="2.13182" fill="#20A2DC"/>
<rect x="170.353" y="156.268" width="4.25692" height="4.26364" rx="2.12846" fill="#20A2DC"/>
<rect x="0.24646" y="156.268" width="4.25692" height="4.26364" rx="2.12846" fill="#20A2DC"/>
</svg>
