<svg width="175" height="175" viewBox="0 0 175 175" fill="none" xmlns="http://www.w3.org/2000/svg">
<path d="M45.9791 47.0666V39.8427C45.9791 38.1371 47.5844 36.8328 48.688 36.8328H80.2926C82.1989 36.8328 82.7005 35.5285 82.7005 34.4248C82.6203 32.4984 81.7975 32.1172 80.2926 32.1172H48.688C43.6714 32.1172 41.1631 36.8328 41.1631 39.1404V47.0666C41.1631 47.6686 41.7571 49.0733 43.3704 49.0733C44.8754 49.0733 45.9791 47.769 45.9791 47.0666Z" fill="#516678"/>
<path d="M87.6167 31.6155V38.8394C87.6167 40.545 86.0114 41.8493 84.9078 41.8493H53.3033C51.397 41.8493 50.8953 43.1537 50.8953 44.2573C50.9756 46.1837 51.7983 46.5649 53.3033 46.5649H84.9078C89.9244 46.5649 92.4327 41.8493 92.4327 39.5417V31.6155C92.4327 31.0135 91.8387 29.6089 90.2254 29.6089C88.7204 29.6089 87.6167 30.9132 87.6167 31.6155Z" fill="#516678"/>
<path fill-rule="evenodd" clip-rule="evenodd" d="M45.9791 147.197C50.135 147.197 53.504 143.828 53.504 139.673C53.504 135.517 50.135 132.148 45.9791 132.148C41.8232 132.148 38.4542 135.517 38.4542 139.673C38.4542 143.828 41.8232 147.197 45.9791 147.197ZM45.9792 142.181C47.3644 142.181 48.4874 141.058 48.4874 139.672C48.4874 138.287 47.3644 137.164 45.9792 137.164C44.5939 137.164 43.4709 138.287 43.4709 139.672C43.4709 141.058 44.5939 142.181 45.9792 142.181Z" fill="#516678"/>
<path fill-rule="evenodd" clip-rule="evenodd" d="M26.5146 147.197C30.6705 147.197 34.0395 143.828 34.0395 139.673C34.0395 135.517 30.6705 132.148 26.5146 132.148C22.3588 132.148 18.9897 135.517 18.9897 139.673C18.9897 143.828 22.3588 147.197 26.5146 147.197ZM26.5147 142.181C27.9 142.181 29.023 141.058 29.023 139.672C29.023 138.287 27.9 137.164 26.5147 137.164C25.1294 137.164 24.0064 138.287 24.0064 139.672C24.0064 141.058 25.1294 142.181 26.5147 142.181Z" fill="#20A2DC"/>
<path fill-rule="evenodd" clip-rule="evenodd" d="M134.171 163.251V124.623C134.171 123.519 134.873 122.516 136.579 122.516H153.736C154.739 122.516 156.043 123.018 156.043 124.824V163.251H153.334V125.325H136.88V163.251H134.171Z" fill="#516678"/>
<path d="M139.087 128.263C139.087 127.286 139.822 126.968 140.115 126.931H150.138C150.418 127.023 151.127 127.419 151.127 128.263C151.127 129.106 150.418 129.465 150.138 129.539H140.115C139.822 129.521 139.087 129.24 139.087 128.263Z" fill="#516678"/>
<path d="M139.087 137.493C139.087 136.516 139.822 136.198 140.115 136.161H150.138C150.418 136.254 151.127 136.65 151.127 137.493C151.127 138.337 150.418 138.696 150.138 138.77H140.115C139.822 138.751 139.087 138.47 139.087 137.493Z" fill="#516678"/>
<path d="M139.087 146.724C139.087 145.747 139.822 145.429 140.115 145.392H150.138C150.418 145.484 151.127 145.88 151.127 146.724C151.127 147.568 150.418 147.926 150.138 148H140.115C139.822 147.982 139.087 147.701 139.087 146.724Z" fill="#516678"/>
<path d="M139.087 155.954C139.087 154.977 139.822 154.659 140.115 154.622H150.138C150.418 154.715 151.127 155.11 151.127 155.954C151.127 156.798 150.418 157.157 150.138 157.231H140.115C139.822 157.212 139.087 156.931 139.087 155.954Z" fill="#516678"/>
<path d="M139.087 132.878C139.087 131.901 139.822 131.583 140.115 131.546H150.138C150.418 131.638 151.127 132.034 151.127 132.878C151.127 133.722 150.418 134.081 150.138 134.155H140.115C139.822 134.136 139.087 133.855 139.087 132.878Z" fill="#20A2DC"/>
<path d="M139.087 142.109C139.087 141.132 139.822 140.814 140.115 140.777H150.138C150.418 140.869 151.127 141.265 151.127 142.109C151.127 142.952 150.418 143.311 150.138 143.385H140.115C139.822 143.367 139.087 143.086 139.087 142.109Z" fill="#20A2DC"/>
<path d="M139.087 151.339C139.087 150.363 139.822 150.044 140.115 150.007H150.138C150.418 150.1 151.127 150.496 151.127 151.339C151.127 152.183 150.418 152.542 150.138 152.616H140.115C139.822 152.597 139.087 152.316 139.087 151.339Z" fill="#20A2DC"/>
<path d="M139.087 160.569C139.087 159.593 139.822 159.274 140.115 159.237H150.138C150.418 159.33 151.127 159.726 151.127 160.569C151.127 161.413 150.418 161.772 150.138 161.846H140.115C139.822 161.827 139.087 161.546 139.087 160.569Z" fill="#20A2DC"/>
<path fill-rule="evenodd" clip-rule="evenodd" d="M65.5437 87.3999V163.251H165.876V113.888C165.876 113.245 165.742 112.817 165.675 112.684L132.967 84.992C130.759 83.2863 129.355 85.6943 129.355 86.5973V109.975L101.362 86.3966C99.2552 84.5906 97.4492 86.8983 97.4492 88.2026V109.774L69.5569 85.0923C67.2493 83.2863 65.4434 85.8949 65.5437 87.3999ZM70.5603 112.683V92.4164L93.436 112.683H70.5603ZM102.265 93.4198V112.684H125.141L102.265 93.4198ZM134.171 112.683V92.2156L158.25 112.683H134.171ZM161.26 117.7H70.5603V163.251H161.26V117.7Z" fill="#516678"/>
<path d="M48.8886 66.23H35.6448L34.7418 71.1462H49.6913L48.8886 66.23Z" fill="#20A2DC"/>
<path fill-rule="evenodd" clip-rule="evenodd" d="M24.2071 163.651V156.327C19.1904 156.327 9.25776 151.311 9.25769 139.672C9.25762 127.331 19.5918 122.616 25.2105 122.616H27.7187L32.5346 56.8984C32.4677 55.962 32.8958 54.069 35.1432 53.9888H49.591C50.494 53.9888 52.2799 54.5707 52.1996 56.8984L56.9152 122.616H60.6276V127.331H26.1134C22.2004 127.331 14.1739 130.442 14.1739 139.672C14.1739 147.699 21.1971 151.812 25.2105 151.812H60.6276V156.628H28.9227V163.651H24.2071ZM37.2502 59.0051H47.3837L51.8987 122.515H32.8356L37.2502 59.0051Z" fill="#516678"/>
<path fill-rule="evenodd" clip-rule="evenodd" d="M75.4764 124.824C75.4765 123.82 75.7574 122.516 77.6837 122.516H88.1182C89.0212 122.516 90.0245 123.319 90.0245 124.824V137.465C90.0245 138.168 89.6232 139.572 88.1182 139.572H77.6837C76.7808 139.572 75.4764 138.97 75.4764 137.566V124.824ZM87.717 124.723H77.8845V137.566H87.717V124.723Z" fill="#20A2DC"/>
<path fill-rule="evenodd" clip-rule="evenodd" d="M95.0413 124.824C95.0413 123.82 95.3223 122.516 97.2486 122.516H107.683C108.586 122.516 109.589 123.319 109.589 124.824V137.465C109.589 138.168 109.188 139.572 107.683 139.572H97.2486C96.3456 139.572 95.0413 138.97 95.0413 137.566V124.824ZM107.182 124.523H97.349V137.365H107.182V124.523Z" fill="#516678"/>
<path fill-rule="evenodd" clip-rule="evenodd" d="M114.706 124.824C114.706 123.82 114.987 122.516 116.913 122.516H127.348C128.251 122.516 129.254 123.319 129.254 124.824V137.465C129.254 138.168 128.853 139.572 127.348 139.572H116.913C116.01 139.572 114.706 138.97 114.706 137.566V124.824ZM126.846 124.523H117.014V137.365H126.846V124.523Z" fill="#20A2DC"/>
<path fill-rule="evenodd" clip-rule="evenodd" d="M118.316 17.1804C119.331 17.6537 120.89 17.9931 121.232 16.1661C121.438 15.0711 123.388 11.4749 126.557 11.3481H136.7C139.109 11.3481 141.8 14.2429 141.899 15.5321C141.998 16.8213 142.786 18.4736 145.322 17.0536C146.454 16.4196 150.14 15.9125 151.788 17.4339L159.522 25.168C160.283 25.9287 161.281 29.8815 160.029 31.6341C159.344 32.593 158.888 34.0431 161.424 34.9306C162.692 35.4377 165.608 37.4663 165.608 40.1289V49.3843C165.608 50.779 163.706 55.0898 161.551 55.4701C160.029 55.8505 158.508 56.738 160.029 59.6541C160.536 60.4148 161.044 63.5845 159.649 64.9792L151.915 72.9668C150.52 74.3614 147.097 74.7418 145.068 73.3471C144.308 72.9245 142.659 72.5357 142.152 74.3614C141.518 76.6436 138.475 79.3061 136.32 79.3061H127.318C125.543 79.3061 121.913 77.2775 121.486 75.249C121.032 73.0936 119.204 72.5864 117.809 73.3471C116.55 74.034 114.006 74.3614 112.104 73.0936C109.568 71.3185 104.851 66.8141 103.863 65.2328C102.595 63.2042 102.17 60.5416 103.482 58.3862C104.485 56.738 103.355 56.1421 101.961 55.7237C100.566 55.3053 97.65 52.554 97.65 50.1451V40.636C97.65 38.7342 99.5518 35.4377 102.848 34.5502C103.567 34.3389 104.725 33.5613 103.609 32.1413C103.482 32.0145 101.454 28.5912 103.609 25.6751C105.807 23.0548 110.329 18.1947 111.597 17.4339C112.991 16.5971 115.273 15.7603 118.316 17.1804ZM126.184 19.174V15.7589C126.184 15.1897 126.383 14.336 127.749 14.336H135.433C136.237 14.336 136.856 14.6877 136.856 15.7589V19.174C139.132 19.4585 144.198 20.6538 146.247 23.1582L148.951 20.4546C149.662 19.7431 150.231 19.8854 151.227 20.8815L156.35 26.004C156.896 26.5498 157.488 27.427 156.35 28.423L153.931 30.6997C155.211 32.2649 157.773 36.3061 157.773 39.9488H161.33C161.899 39.9488 162.895 40.0057 162.895 41.3717V48.9133C162.895 49.6247 162.611 50.7631 161.33 50.7631H157.773C157.251 53.2295 155.496 58.5323 153.789 60.0121L156.492 62.5734C156.919 63.0003 157.061 63.8541 156.208 64.8501L150.8 70.2573C150.374 70.6841 149.52 70.9687 148.808 70.2573L146.247 67.5537C144.777 68.692 140.868 71.0541 136.998 71.3956V74.9529C136.998 75.5221 136.713 76.3759 135.433 76.3759H127.322C126.895 76.3759 126.184 76.0059 126.184 75.0952V71.3956C124.097 71.111 119.325 69.9442 116.935 67.5537L114.373 70.115C113.804 70.6841 112.666 70.5418 111.954 69.8304L106.832 64.7078C106.405 64.2809 105.978 63.1426 106.689 62.2888L109.251 60.0121C108.112 58.3995 105.75 54.2919 105.409 50.7631H101.852C101.14 50.7631 100.286 50.1939 100.286 49.0556V41.2294C100.286 40.518 100.855 39.8065 101.994 39.8065L105.409 39.9488C105.788 37.8618 107.059 33.0902 109.108 30.6997L106.689 28.1384C106.263 27.7116 105.978 27.0001 106.974 26.004L112.097 20.7392C112.524 20.3123 113.662 19.7431 114.658 20.7392L116.935 23.0159C118.547 21.8301 122.655 19.4016 126.184 19.174Z" fill="#516678"/>
<path fill-rule="evenodd" clip-rule="evenodd" d="M131.574 54.9891C136.831 54.9891 141.093 50.7273 141.093 45.4702C141.093 40.213 136.831 35.9512 131.574 35.9512C126.316 35.9512 122.055 40.213 122.055 45.4702C122.055 50.7273 126.316 54.9891 131.574 54.9891ZM131.574 53.2581C135.875 53.2581 139.362 49.7712 139.362 45.4698C139.362 41.1685 135.875 37.6816 131.574 37.6816C127.272 37.6816 123.786 41.1685 123.786 45.4698C123.786 49.7712 127.272 53.2581 131.574 53.2581Z" fill="#516678"/>
<path fill-rule="evenodd" clip-rule="evenodd" d="M131.571 64.6009C142.248 64.6009 150.903 55.9452 150.903 45.268C150.903 34.5907 142.248 25.9351 131.571 25.9351C120.893 25.9351 112.238 34.5907 112.238 45.268C112.238 55.9452 120.893 64.6009 131.571 64.6009ZM131.571 61.086C140.307 61.086 147.388 54.0041 147.388 45.2682C147.388 36.5322 140.307 29.4503 131.571 29.4503C122.835 29.4503 115.753 36.5322 115.753 45.2682C115.753 54.0041 122.835 61.086 131.571 61.086Z" fill="#20A2DC"/>
<path fill-rule="evenodd" clip-rule="evenodd" d="M95.8188 155.467C95.5849 155.655 95.0512 156.047 94.7877 156.111L96.6494 156.127V155.548H97.3368V156.133L97.8094 156.138C98.6257 156.263 100.31 157.012 100.516 159.007V163.484H101.203V159.007C101.161 157.988 100.396 155.853 97.6805 155.467H95.8188Z" fill="#516678"/>
<path fill-rule="evenodd" clip-rule="evenodd" d="M88.0854 155.454C88.3193 155.642 88.853 156.033 89.1165 156.097L87.2262 156.114V155.548H86.5387V156.12L86.0948 156.124C85.2785 156.249 83.5943 156.998 83.3881 158.994V163.47H82.7007V158.994C82.7436 157.975 83.5084 155.84 86.2237 155.454H88.0854Z" fill="#516678"/>
<path d="M86.0374 148.16H86.7248C86.9768 145.05 89.6176 143.825 90.9065 143.602H92.9831C96.191 144.245 97.1362 146.909 97.2078 148.16H97.8379C97.6947 144.728 94.5727 143.159 92.9831 142.958H91.0068C88.8872 143.119 86.1233 145.144 86.0374 148.16Z" fill="#516678"/>
<path d="M86.5386 151.191V149.904H87.226V151.191C87.226 152.424 88.386 155.454 92.0093 155.454C95.475 155.454 96.6636 152.451 96.6636 151.191V149.904H97.351V151.191C97.4083 153.188 95.4893 156.098 92.0093 156.098C87.9851 156.098 86.5386 152.733 86.5386 151.191Z" fill="#516678"/>
<path fill-rule="evenodd" clip-rule="evenodd" d="M90.9279 142.918V145.694C90.9279 145.881 91.0998 146.297 91.5151 146.297H92.36C92.5892 146.297 93.0045 146.149 93.0045 145.694V142.999C93.0045 142.784 92.8469 142.382 92.36 142.382H91.5151C91.3146 142.382 90.9279 142.556 90.9279 142.918ZM91.6154 143.052H92.3028V145.653H91.6154V143.052Z" fill="#516678"/>
<path fill-rule="evenodd" clip-rule="evenodd" d="M95.9618 155.414V158.189V158.739H87.9277V158.189V155.494C87.9277 155.28 87.7702 154.878 87.2833 154.878H86.4384C86.2379 154.878 85.8512 155.052 85.8512 155.414V163.15H98.0384V158.189V155.494C98.0384 155.28 97.8809 154.878 97.3939 154.878H96.549C96.3485 154.878 95.9618 155.052 95.9618 155.414ZM86.5529 159.396V162.509H97.351V159.396H86.5529ZM97.3367 155.548H96.6493V158.149H97.3367V155.548ZM86.5386 155.548H87.226V158.149H86.5386V155.548Z" fill="#516678"/>
<path fill-rule="evenodd" clip-rule="evenodd" d="M86.0803 150.064H97.7806C97.9811 150.064 98.4251 149.903 98.4251 149.514V148.723C98.4251 148.509 98.2675 148.12 97.7806 148.12H86.1663C85.9371 148.12 85.5075 148.268 85.5075 148.723V149.514C85.5075 149.702 85.6937 150.064 86.0803 150.064ZM86.2236 149.407V148.764H97.7377V149.407H86.2236Z" fill="#516678"/>
<circle cx="91.9311" cy="145.592" r="1.20398" fill="#516678"/>
<circle cx="91.9311" cy="145.592" r="0.802655" fill="#20A2DC"/>
<path fill-rule="evenodd" clip-rule="evenodd" d="M118.335 155.467C118.101 155.655 117.567 156.047 117.304 156.111L119.165 156.127V155.548H119.853V156.133L120.325 156.138C121.142 156.263 122.826 157.012 123.032 159.007V163.484H123.719V159.007C123.676 157.988 122.912 155.853 120.196 155.467H118.335Z" fill="#516678"/>
<path fill-rule="evenodd" clip-rule="evenodd" d="M110.601 155.454C110.835 155.642 111.369 156.033 111.632 156.097L109.742 156.114V155.548H109.055V156.12L108.611 156.124C107.794 156.249 106.11 156.998 105.904 158.994V163.47H105.216V158.994C105.259 157.975 106.024 155.84 108.739 155.454H110.601Z" fill="#516678"/>
<path d="M108.553 148.16H109.241C109.493 145.05 112.134 143.825 113.423 143.602H115.499C118.707 144.245 119.652 146.909 119.724 148.16H120.354C120.211 144.728 117.089 143.159 115.499 142.958H113.523C111.403 143.119 108.639 145.144 108.553 148.16Z" fill="#516678"/>
<path d="M109.055 151.191V149.904H109.742V151.191C109.742 152.424 110.902 155.454 114.525 155.454C117.991 155.454 119.18 152.451 119.18 151.191V149.904H119.867V151.191C119.924 153.188 118.005 156.098 114.525 156.098C110.501 156.098 109.055 152.733 109.055 151.191Z" fill="#516678"/>
<path fill-rule="evenodd" clip-rule="evenodd" d="M113.402 142.918V145.694C113.402 145.881 113.574 146.297 113.989 146.297H114.834C115.063 146.297 115.479 146.149 115.479 145.694V142.999C115.479 142.784 115.321 142.382 114.834 142.382H113.989C113.789 142.382 113.402 142.556 113.402 142.918ZM114.09 143.052H114.777V145.653H114.09V143.052Z" fill="#516678"/>
<path fill-rule="evenodd" clip-rule="evenodd" d="M118.478 155.414V158.189V158.739H110.444V158.189V155.494C110.444 155.28 110.286 154.878 109.799 154.878H108.954C108.754 154.878 108.367 155.052 108.367 155.414V163.15H120.554V158.189V155.494C120.554 155.28 120.397 154.878 119.91 154.878H119.065C118.865 154.878 118.478 155.052 118.478 155.414ZM109.069 159.396V162.509H119.867V159.396H109.069ZM119.853 155.548H119.165V158.149H119.853V155.548ZM109.055 155.548H109.742V158.149H109.055V155.548Z" fill="#516678"/>
<path fill-rule="evenodd" clip-rule="evenodd" d="M108.596 150.064H120.297C120.497 150.064 120.941 149.903 120.941 149.514V148.723C120.941 148.509 120.784 148.12 120.297 148.12H108.682C108.453 148.12 108.024 148.268 108.024 148.723V149.514C108.024 149.702 108.21 150.064 108.596 150.064ZM108.74 149.407V148.764H120.254V149.407H108.74Z" fill="#516678"/>
<circle cx="114.405" cy="145.793" r="1.20398" fill="#516678"/>
<circle cx="114.405" cy="145.794" r="0.802655" fill="#20A2DC"/>
<path d="M165.523 163.286H9.92948C9.04379 163.218 7.25198 163.592 7.17023 165.633C7.08847 167.673 8.70314 168.251 9.5207 168.285H166.034C166.715 168.217 168.078 167.592 168.078 165.633C168.078 163.674 166.374 163.252 165.523 163.286Z" fill="#516678"/>
</svg>
