<svg width="175" height="175" viewBox="0 0 175 175" fill="none" xmlns="http://www.w3.org/2000/svg">
<path fill-rule="evenodd" clip-rule="evenodd" d="M39.7273 31.3027C37.5506 31.3027 33.3474 33.7046 35.6742 39.2589L78.2321 116.343C79.2829 117.92 80.4087 118.895 82.8077 118.895C85.3626 118.895 86.7887 117.394 87.4642 116.343L129.797 39.4841C132.424 34.8305 128.296 31.3027 126.044 31.3027H39.7273ZM40.6283 34.9055C39.5774 34.9055 38.2263 35.8062 38.9019 37.4575L80.8594 113.641C81.2345 114.392 81.8501 115.142 82.8109 115.142C83.7716 115.142 84.3119 114.392 84.7624 113.641L126.57 37.9829C127.17 37.0071 127.095 34.9806 125.294 34.9055H40.6283Z" fill="#516678"/>
<path fill-rule="evenodd" clip-rule="evenodd" d="M74.6234 47.2151C74.7985 44.6882 76.71 39.6343 82.9548 39.6343C89.1996 39.6343 90.961 44.6882 91.061 47.2151L87.9837 83.2429C87.9086 84.7441 86.1072 87.221 82.9548 87.221C79.2019 87.221 77.6257 84.1436 77.6257 83.2429L74.6234 47.2151ZM78.3012 47.065C78.3763 45.8141 79.3821 43.3121 82.8047 43.3121C86.2273 43.3121 87.2331 45.714 87.3082 46.9149L84.531 81.8919C84.3809 83.0928 83.7804 83.5432 82.8798 83.5432C81.9791 83.5432 81.2285 83.2429 81.1534 81.8919L78.3012 47.065Z" fill="#20A2DC"/>
<path fill-rule="evenodd" clip-rule="evenodd" d="M82.8797 102.233C86.0717 102.233 88.6592 99.645 88.6592 96.453C88.6592 93.2611 86.0717 90.6736 82.8797 90.6736C79.6878 90.6736 77.1003 93.2611 77.1003 96.453C77.1003 99.645 79.6878 102.233 82.8797 102.233ZM82.8797 98.4796C83.999 98.4796 84.9063 97.5723 84.9063 96.4531C84.9063 95.3338 83.999 94.4265 82.8797 94.4265C81.7605 94.4265 80.8532 95.3338 80.8532 96.4531C80.8532 97.5723 81.7605 98.4796 82.8797 98.4796Z" fill="#516678"/>
<path fill-rule="evenodd" clip-rule="evenodd" d="M96.5509 106.259C107.594 110.451 119.576 119.502 124.312 137.134C124.812 138.736 126.759 141.953 130.542 142.013H143.977C144.702 142.188 146.094 141.923 145.853 139.461C145.853 124.058 136.683 95.6001 107.97 85.7656L106.05 89.2108C112.456 91.5248 117.342 94.5853 119.958 96.6782L108.775 108.762C105.175 106.232 101.641 104.406 98.3192 103.085L96.5509 106.259ZM59.3303 88.8808C38.8524 99.963 28.838 122.864 28.838 140.062C29.0382 146.041 30.144 158 32.9662 158H32.5159C33.1664 158.05 34.7976 157.97 34.9177 157.25C35.0031 156.737 34.8362 154.548 34.6679 152.341C34.5404 150.67 34.4122 148.988 34.3923 148.018C34.1297 135.215 42.1944 111.501 68.081 104.856L66.2992 101.603C59.1853 103.674 53.6149 106.936 51.0552 108.913L49.0286 101.857C52.1074 98.169 56.5976 95.029 61.3458 92.5601L59.3303 88.8808ZM111.777 111.014L122.886 98.8548C129.216 103.609 141.935 118.16 142.176 138.335H131.292C130.091 138.335 128.17 137.78 127.689 135.258C126.088 130.054 121.76 118.82 111.777 111.014ZM45.9512 104.784C36.644 114.512 33.4165 128.203 32.9662 133.832C36.2687 122.423 44.4 114.267 48.0528 111.615L45.9512 104.784Z" fill="#516678"/>
<path d="M45.3508 128.091C45.3508 126.694 46.3025 126.326 46.937 126.326H53.0485C53.6195 126.326 54.5078 126.679 54.5078 128.091C54.5078 129.502 53.5561 129.929 53.0485 129.929H46.937C46.4295 129.929 45.3508 129.561 45.3508 128.091Z" fill="#20A2DC"/>
<path d="M45.3508 135.446C45.3508 134.049 46.3025 133.682 46.937 133.682H53.0485C53.6195 133.682 54.5078 134.035 54.5078 135.446C54.5078 136.858 53.5561 137.284 53.0485 137.284H46.937C46.4295 137.284 45.3508 136.917 45.3508 135.446Z" fill="#516678"/>
<path d="M45.3508 142.802C45.3508 141.405 46.3025 141.037 46.937 141.037H53.0485C53.6195 141.037 54.5078 141.39 54.5078 142.802C54.5078 144.214 53.5561 144.64 53.0485 144.64H46.937C46.4295 144.64 45.3508 144.273 45.3508 142.802Z" fill="#20A2DC"/>
<path d="M45.3508 150.158C45.3508 148.761 46.3025 148.393 46.937 148.393H53.0485C53.6195 148.393 54.5078 148.746 54.5078 150.158C54.5078 151.569 53.5561 151.996 53.0485 151.996H46.937C46.4295 151.996 45.3508 151.628 45.3508 150.158Z" fill="#516678"/>
<path d="M58.1106 135.446C58.1106 134.049 59.0624 133.682 59.6969 133.682H65.8083C66.3793 133.682 67.2677 134.035 67.2677 135.446C67.2677 136.858 66.3159 137.284 65.8083 137.284H59.6969C59.1893 137.284 58.1106 136.917 58.1106 135.446Z" fill="#20A2DC"/>
<path d="M58.1106 142.802C58.1106 141.405 59.0624 141.037 59.6969 141.037H65.8083C66.3793 141.037 67.2677 141.39 67.2677 142.802C67.2677 144.214 66.3159 144.64 65.8083 144.64H59.6969C59.1893 144.64 58.1106 144.273 58.1106 142.802Z" fill="#516678"/>
<path d="M58.1106 150.158C58.1106 148.761 59.0624 148.393 59.6969 148.393H65.8083C66.3793 148.393 67.2677 148.746 67.2677 150.158C67.2677 151.569 66.3159 151.996 65.8083 151.996H59.6969C59.1893 151.996 58.1106 151.628 58.1106 150.158Z" fill="#20A2DC"/>
<path fill-rule="evenodd" clip-rule="evenodd" d="M95.1892 128.127C94.1384 127.327 91.076 125.756 87.2331 125.876C82.6545 125.951 73.3474 128.983 72.7469 140.512C72.7969 145.116 75.7642 154.488 87.2331 155.148C91.5364 155.248 100.518 152.716 102.019 141.788L112.903 129.478C113.278 128.803 113.128 127.002 111.477 126.851L95.1892 128.127ZM106.898 130.829L94.3638 131.655C94.1718 131.564 93.9553 131.456 93.7175 131.336C92.1886 130.569 89.7766 129.359 87.3084 129.553C83.7807 129.629 76.5001 132.03 76.5001 140.662C76.5 148.77 83.6306 151.545 87.3084 151.545C90.0605 151.646 95.7148 150.269 97.9666 143.589C98.0572 143.227 98.1273 142.817 98.1996 142.394C98.3668 141.415 98.5457 140.368 99.0174 139.686L106.898 130.829Z" fill="#516678"/>
<path fill-rule="evenodd" clip-rule="evenodd" d="M87.3081 148.393C91.5778 148.393 95.0391 144.932 95.0391 140.662C95.0391 136.392 91.5778 132.931 87.3081 132.931C83.0384 132.931 79.5771 136.392 79.5771 140.662C79.5771 144.932 83.0384 148.393 87.3081 148.393ZM87.3832 144.49C89.4558 144.49 91.1361 142.81 91.1361 140.737C91.1361 138.665 89.4558 136.984 87.3832 136.984C85.3105 136.984 83.6303 138.665 83.6303 140.737C83.6303 142.81 85.3105 144.49 87.3832 144.49Z" fill="#20A2DC"/>
</svg>
