<svg width="175" height="175" viewBox="0 0 175 175" fill="none" xmlns="http://www.w3.org/2000/svg">
<path fill-rule="evenodd" clip-rule="evenodd" d="M55.1792 33.6104C54.9944 24.3676 63.5234 20.9272 67.8111 20.3624C69.4132 12.9681 80.7511 11.2736 86.2197 11.3506C110.005 12.3981 115.027 26.627 114.564 33.6104C114.688 36.3833 113.537 40.5682 112.947 42.3141C114.795 44.2243 115.155 48.399 115.104 50.2475C114.919 59.9833 110.611 61.7497 108.48 61.416C107.432 65.1131 101.933 72.8668 99.3137 76.2815C98.0814 79.4241 98.4921 82.0069 98.8516 82.9055L108.48 88.5283C123.75 90.2205 131.071 99.4479 134.158 108.367H130.072C125.432 96.6213 114.523 92.7004 107.786 92.3796L96.4914 108.367H91.826L104.397 90.6081L100.084 87.9893L93.2288 96.7699C92.7666 97.3091 91.9964 97.001 91.6883 96.7699L84.3711 91.0702L77.2079 96.7699C76.5917 97.2321 75.8985 97.078 75.6674 96.7699L68.7353 88.0663L64.3449 90.6081L76.9827 108.367H72.2161L60.8019 92.3796C45.8272 94.0139 39.499 103.302 37.3782 112.766H33.4788C36.7873 95.0547 52.1712 89.1881 60.3398 88.5283L69.9678 82.9055C70.8304 81.6732 70.1732 77.976 69.7367 76.2815C66.4709 73.5087 61.9573 65.2158 60.1087 61.416C55.1792 61.416 53.8698 56.1013 53.7928 50.2475C53.7312 45.5645 55.5644 42.4938 56.4886 41.5439C55.3795 39.1407 55.1536 35.2536 55.1792 33.6104ZM79.3293 108.367H83.5595C83.5319 108.068 83.4635 107.817 83.3698 107.63L81.0591 102.392L84.3711 99.3884L87.8371 102.392L85.5264 107.63C85.3892 107.904 85.3035 108.147 85.2554 108.367H89.424C89.5047 108.04 89.638 107.692 89.8397 107.322L91.6883 103.086L91.7202 103.015L91.7519 102.945C92.0701 102.242 92.5524 101.178 91.6883 100.544L85.5264 95.2295C85.0643 94.7673 84.14 94.3822 83.2157 95.2295L77.2079 100.544C76.5917 101.083 76.3606 101.622 77.0538 103.086L78.8254 107.322L78.8593 107.385L78.8982 107.457C79.062 107.758 79.2196 108.049 79.3293 108.367ZM70.892 26.6786L68.4273 23.9828C60.1703 25.1535 58.671 31.4027 58.9534 34.381C58.9534 38.5402 60.8533 42.5968 62.0343 44.394C61.9573 35.2282 67.7341 28.9893 70.892 26.6786ZM71.3542 21.518C71.5596 19.387 74.7279 15.125 85.7577 15.125C99.5449 15.125 110.636 22.1342 110.79 33.1485C110.893 37.3591 109.635 45.6726 103.781 45.2412C101.368 45.1129 96.0788 43.6237 89.8399 38.6942C85.9117 35.6646 78.4404 29.2973 77.3621 27.9109C75.5649 26.1137 71.8472 22.319 71.3542 21.518ZM65.8084 44.7019C65.4387 36.7531 70.8406 31.2228 73.5878 29.4513C99.3536 55.4799 107.731 48.5273 110.113 46.5509C110.522 46.2112 110.754 46.0185 110.867 46.1654C111.483 46.9664 111.124 52.1475 110.867 54.638C110.251 58.6432 107.632 57.7446 106.4 56.7946C106.246 58.104 96.6179 80.903 84.2171 80.826C74.2964 80.7644 65.449 64.7794 62.2653 56.7946C60.9713 57.5957 60.1857 57.6419 59.9546 57.5649C58.0839 57.2655 57.8125 53.9856 57.5867 51.2564L57.5669 51.0179C57.382 48.7996 57.952 46.4478 58.2601 45.5492C59.2357 47.0896 61.6337 50.1552 63.4207 50.0936C65.2076 50.032 65.7571 48.7328 65.8084 48.091C65.7571 47.0126 65.6852 44.8252 65.8084 44.7019ZM74.1269 80.5947C74.1782 82.0325 73.8496 85.1391 72.1243 86.0634L76.7457 92.1482L83.3697 86.9106C83.8319 86.5255 84.6021 86.2945 85.4494 86.9106L91.9964 92.1482L96.6178 86.1404C95.8989 85.6269 94.4919 83.7989 94.6152 80.5947C93.3058 81.9298 89.4392 84.5999 84.4481 84.5999C79.4569 84.5999 75.4876 81.9298 74.1269 80.5947Z" fill="#516678"/>
<path d="M72.9463 52.8501C72.9463 53.6948 73.8251 54.4646 74.3272 54.4646H78.6529C79.0295 54.4646 79.9711 53.7393 79.9711 52.8501C79.9711 51.9608 79.0923 51.2355 78.6529 51.2355H74.3272C73.8251 51.2355 72.9463 52.0053 72.9463 52.8501Z" fill="#20A2DC"/>
<path d="M88.9108 52.8501C88.9108 53.6948 89.7896 54.4646 90.2917 54.4646H94.6174C94.994 54.4646 95.9356 53.7393 95.9356 52.8501C95.9356 51.9608 95.0568 51.2355 94.6174 51.2355H90.2917C89.7896 51.2355 88.9108 52.0053 88.9108 52.8501Z" fill="#20A2DC"/>
<path d="M84.4838 73.9585C78.9404 74.169 75.4816 69.5617 74.2887 68.1583C73.2089 66.4451 75.4183 65.3524 76.4144 66.8081C77.3266 68.1414 79.572 71.0777 84.2733 71.4393C88.0624 71.7308 91.4047 68.1641 92.6234 66.8081C93.5219 65.8085 95.3079 66.4451 94.6621 68.1583C92.7676 70.3335 90.0271 73.748 84.4838 73.9585Z" fill="#20A2DC"/>
<path d="M80.9139 62.2517C80.9139 63.0964 81.7927 63.8662 82.2949 63.8662H86.6206C86.9972 63.8662 87.9387 63.1409 87.9387 62.2517C87.9387 61.3624 87.06 60.6371 86.6206 60.6371H82.2949C81.7927 60.6371 80.9139 61.4069 80.9139 62.2517Z" fill="#516678"/>
<path d="M74.7369 123.15V118.148H26.8701C20.0313 118.148 19.1127 123.558 19.1127 126.008V147.341C19.1127 154.383 24.3182 155.506 26.8701 155.506H74.7369V150.505H26.8701C24.1141 150.505 24.1141 148.565 24.1141 147.341V126.008C24.1141 123.66 25.6452 123.15 26.8701 123.15H74.7369Z" fill="#516678"/>
<path d="M56.2493 132.629C57.4406 132.683 57.8738 131.659 57.9415 131.14C58.3747 128.108 60.6039 128.297 61.6643 128.771C63.695 130.057 62.4766 131.874 61.6643 132.494C59.2276 134.353 58.7763 136.555 58.7538 137.706V140.346C58.7538 140.887 59.39 141.699 60.3106 141.699C61.2311 141.699 62.0705 141.023 62.0705 140.346V137.706C62.0705 137.029 63.0181 135.747 63.695 135.201C65.7933 133.509 66.1994 131.817 66.1994 130.599C66.1994 128.839 64.8457 125.184 60.5136 125.184C56.1139 125.184 54.5571 129.042 54.5571 131.14C54.5571 131.749 55.058 132.575 56.2493 132.629Z" fill="#20A2DC"/>
<circle cx="60.378" cy="146.708" r="1.75988" fill="#20A2DC"/>
<path d="M34.2584 132.629C35.4497 132.683 35.8829 131.659 35.9505 131.14C36.3837 128.108 38.6129 128.297 39.6734 128.771C41.704 130.057 40.4856 131.874 39.6734 132.494C37.2366 134.353 36.7854 136.555 36.7628 137.706V140.346C36.7628 140.887 37.3991 141.699 38.3196 141.699C39.2402 141.699 40.0795 141.023 40.0795 140.346V137.706C40.0795 137.029 41.0271 135.747 41.704 135.201C43.8023 133.509 44.2084 131.817 44.2084 130.599C44.2084 128.839 42.8547 125.184 38.5227 125.184C34.123 125.184 32.5662 129.042 32.5662 131.14C32.5662 131.749 33.0671 132.575 34.2584 132.629Z" fill="#20A2DC"/>
<circle cx="38.3873" cy="146.708" r="1.75988" fill="#20A2DC"/>
<path fill-rule="evenodd" clip-rule="evenodd" d="M116.896 140.71H101.141C100.753 140.68 99.9672 140.845 99.9314 141.74C99.8955 142.636 100.603 142.89 100.962 142.905H117.414C117.196 142.191 117.022 141.459 116.896 140.71Z" fill="#20A2DC"/>
<path fill-rule="evenodd" clip-rule="evenodd" d="M101.044 149.923H119.792C120.165 149.908 120.912 150.093 120.912 150.953C120.912 151.813 120.314 152.087 120.016 152.117H100.864C100.506 152.102 99.7981 151.848 99.834 150.953C99.8698 150.057 100.655 149.893 101.044 149.923Z" fill="#20A2DC"/>
<path fill-rule="evenodd" clip-rule="evenodd" d="M118.326 145.266H101.044C100.655 145.236 99.8698 145.4 99.834 146.296C99.7981 147.191 100.506 147.445 100.864 147.46H119.563C119.101 146.762 118.687 146.029 118.326 145.266Z" fill="#516678"/>
<path fill-rule="evenodd" clip-rule="evenodd" d="M101.141 123.635H119.889C120.262 123.62 121.009 123.806 121.009 124.665C121.009 125.525 120.412 125.8 120.113 125.83H100.962C100.603 125.815 99.8954 125.561 99.9312 124.665C99.9671 123.77 100.753 123.605 101.141 123.635Z" fill="#20A2DC"/>
<path fill-rule="evenodd" clip-rule="evenodd" d="M117.344 132.847H101.043C100.655 132.817 99.8697 132.981 99.8338 133.877C99.798 134.773 100.506 135.027 100.864 135.042H116.858C116.974 134.293 117.137 133.561 117.344 132.847Z" fill="#20A2DC"/>
<path fill-rule="evenodd" clip-rule="evenodd" d="M119.477 128.191H101.043C100.655 128.161 99.8697 128.325 99.8338 129.221C99.798 130.117 100.506 130.37 100.864 130.385H118.265C118.617 129.623 119.023 128.89 119.477 128.191Z" fill="#516678"/>
<path d="M89.3127 143.114C88.8468 143.616 89.0737 144.264 89.2679 144.502L91.3286 146.607L89.1335 148.757C88.9095 149.071 88.8584 149.511 89.3127 150.056C89.7607 150.593 90.5222 150.414 90.7462 150.19L92.807 148.085L95.0021 150.235C95.3605 150.459 96.0414 150.513 96.4356 150.011C96.8299 149.509 96.7044 148.936 96.5252 148.757L94.3749 146.607L96.5252 144.368C96.7044 144.099 96.7492 143.463 96.3908 143.069C96.0325 142.675 95.3605 142.621 95.0021 142.89L92.807 144.995L90.791 143.024C90.4326 142.756 89.7786 142.612 89.3127 143.114Z" fill="#516678"/>
<path d="M89.0005 129.708C88.9647 128.92 89.7024 128.634 90.0757 128.589C90.2549 128.567 90.4341 128.589 90.7029 128.768L92.0468 129.753L94.8692 126.125C95.3172 125.722 96.0339 125.857 96.3475 126.125C96.7507 126.529 96.6611 127.2 96.4819 127.469L92.8532 132.216C92.2081 132.539 91.6885 132.291 91.5093 132.127L89.3589 130.515C89.0454 130.246 89.0087 129.888 89.0005 129.708Z" fill="#20A2DC"/>
<path fill-rule="evenodd" clip-rule="evenodd" d="M133.18 150.315C140.132 150.315 145.768 144.679 145.768 137.726C145.768 130.774 140.132 125.138 133.18 125.138C126.227 125.138 120.591 130.774 120.591 137.726C120.591 144.679 126.227 150.315 133.18 150.315ZM133.207 147.95C138.922 147.95 143.556 143.317 143.556 137.601C143.556 131.886 138.922 127.253 133.207 127.253C127.492 127.253 122.858 131.886 122.858 137.601C122.858 143.317 127.492 147.95 133.207 147.95Z" fill="#516678"/>
<path d="M137.754 132.887L133.718 137.869C132.37 139.533 129.908 139.739 128.302 138.322C127.809 137.887 127.096 137.407 126.599 137.838C126.252 138.137 126.202 138.665 126.227 138.862C126.26 139.122 129.547 141.922 130.609 142.82C130.827 143.005 131.029 143.242 131.312 143.285C131.526 143.318 131.752 143.251 131.908 143.096C132.115 142.889 137.268 136.465 139.2 134.054C139.672 133.466 140.133 132.327 139.45 132.006C138.767 131.683 138.23 132.3 137.754 132.887Z" fill="#20A2DC"/>
<path fill-rule="evenodd" clip-rule="evenodd" d="M85.962 111.994C83.8612 111.9 79.509 112.992 78.907 118.109V156.315C78.6875 158.29 79.5467 162.486 84.7391 163.464L136.701 163.652H149.87C151.563 163.245 155.1 161.413 155.702 157.35V118.861C155.514 116.792 154.028 112.54 149.588 112.089L85.962 111.994ZM133.596 159.043H85.8679C84.9273 159.074 83.1212 158.573 83.4222 156.315V119.144C83.2968 118.297 83.6292 116.754 85.962 116.604H148.553C149.4 116.51 151.112 116.83 151.187 118.861V156.974C151.061 157.663 150.415 159.043 148.835 159.043H133.596Z" fill="#516678"/>
</svg>
