<svg width="175" height="175" viewBox="0 0 175 175" fill="none" xmlns="http://www.w3.org/2000/svg">
<path d="M29.2717 142.262V156.04H33.6558V142.262C33.5664 141.606 32.9938 140.293 31.419 140.293C29.8443 140.293 29.3314 141.606 29.2717 142.262Z" fill="#20A2DC"/>
<path d="M90.3808 142.351V156.13H94.7649V142.351C94.6754 141.695 94.1028 140.383 92.5281 140.383C90.9534 140.383 90.4404 141.695 90.3808 142.351Z" fill="#20A2DC"/>
<path fill-rule="evenodd" clip-rule="evenodd" d="M20.6823 119.626L41.9765 108.263C42.3046 106.593 43.4797 102.805 45.5554 101.015V94.5735L49.85 101.284C49.4922 104.743 51.3711 112.468 61.7498 117.21C64.076 116.405 72.218 112.02 73.56 104.505L79.8231 103.163C80.4494 103.7 81.6125 106.563 81.9704 108.442L102.817 119.447C105.144 120.699 108.633 123.652 109.259 130.273L113.107 156.309H108.812L104.786 129.646C104.547 127.946 103.623 124.725 100.133 123.025L82.6862 113.631C82.5967 117.657 81.7914 126.515 79.6441 132.688L79.6149 132.773C79.2396 133.854 78.8922 134.855 77.4968 134.925C76.0653 134.997 75.3495 134.031 75.3495 133.225C75.1109 131.495 73.2022 127.052 69.6233 125.531L67.3865 129.915L72.8443 149.599V150.851L63.8971 159.172H60.4077L51.1921 150.851V149.778L56.5604 129.915L54.2342 125.531C52.7131 126.157 49.5816 129.02 48.6869 133.225C48.6571 133.643 47.9711 134.925 46.6291 134.925C46.0028 134.925 44.9112 134.585 44.4817 133.225C43.2888 129.736 40.9744 120.932 41.2608 113.631L24.619 122.578C20.7538 124.01 19.37 127.887 19.1612 129.646L15.2245 156.756L10.7509 157.204L14.6877 129.378C15.0455 123.938 18.8332 120.61 20.6823 119.626ZM47.1658 126.157C44.6606 117.353 45.7045 110.261 46.5395 107.815C48.6868 113.971 54.2341 118.015 56.7393 119.268C51.7289 120.986 48.2693 124.576 47.1658 126.157ZM77.3177 107.815C78.1528 110.261 79.1966 117.263 76.6914 126.068C75.5283 123.741 72.1284 120.986 67.1179 119.268C69.6232 118.015 75.1704 113.971 77.3177 107.815ZM61.9287 122.31C60.0677 122.31 58.5288 123.145 57.992 123.562L60.2287 127.23H63.6287L65.8655 123.562C65.3286 123.145 63.7897 122.31 61.9287 122.31ZM60.5867 131.615L55.8447 149.151L62.0182 154.788L68.1918 149.151L63.4498 131.615H60.5867Z" fill="#516678"/>
<path fill-rule="evenodd" clip-rule="evenodd" d="M55.5758 101.731C56.3631 106.098 60.3178 107.547 62.1967 107.726C48.4538 107.44 44.1234 95.1999 43.676 89.1158H40.4551C33.1185 89.1158 29.2711 81.7791 29.2711 77.7529V70.5952C29.2711 59.5007 37.6814 39.5485 61.6599 38.9222C84.9225 38.3146 94.7644 59.5901 94.7644 70.1478V77.7529C94.7644 83.658 88.8594 88.2211 87.1593 88.2211V93.142C86.7298 96.5777 83.7594 97.8542 82.3278 98.063L65.9765 101.59C65.3964 102.635 64.2818 103.342 63.002 103.342C61.1243 103.342 59.6021 101.819 59.6021 99.9416C59.6021 98.0639 61.1243 96.5417 63.002 96.5417C63.8435 96.5417 64.6136 96.8474 65.2073 97.3538L65.2387 97.3472L80.27 94.1262C82.2026 93.9831 82.7454 93.2315 82.7752 92.8736V89.1158H80.27V89.5632C80.1035 89.6002 79.8592 89.6525 79.5655 89.7153L79.5645 89.7156C78.4382 89.9567 76.5871 90.353 75.6175 90.6368C76.0649 90.0105 76.1841 87.1773 76.1543 85.8054C76.0648 82.3458 76.0649 74.8898 76.1543 71.132C76.2361 67.6905 79.2261 65.883 80.6279 65.4058C76.7627 54.1681 66.6703 51.7166 62.1072 51.8956C50.2969 52.0387 44.6602 60.962 43.3182 65.4058C46.8076 66.39 47.8812 69.7004 47.8812 71.132V87.3264C47.9528 95.1999 53.0407 100.21 55.5758 101.731ZM43.4076 71.3114V84.6427H40.0077C38.6656 84.6427 33.6552 82.9427 33.6552 76.8586C33.6553 70.9535 38.8446 69.4325 41.0814 69.4325C42.7814 69.4325 43.4076 70.5061 43.4076 71.3114ZM80.5385 84.5531V71.2218C80.5385 70.4166 81.1648 69.3429 82.8648 69.3429C85.1015 69.3429 90.2909 70.8639 90.2909 76.7691C90.291 82.8532 85.2805 84.5531 83.9384 84.5531H80.5385ZM38.9343 65.2265C37.288 65.4412 34.9677 66.8668 34.0134 67.5528C34.9975 59.0529 43.3185 43.0375 61.8391 43.3059C81.5944 43.5922 88.8595 59.5898 90.0227 67.5528C88.8774 66.3359 86.2648 65.4949 85.1017 65.2265C80.9502 50.6963 67.8635 47.4216 61.8391 47.6006C47.0941 47.8153 40.4255 59.4406 38.9343 65.2265Z" fill="#516678"/>
<path d="M52.0867 78.1548C52.0867 76.4201 53.5349 75.9636 53.8762 75.9636H57.0077C57.3148 75.9636 58.7077 76.4019 58.7077 78.1548C58.7077 79.9077 57.2807 80.3477 57.0077 80.3477H53.8762C53.6032 80.3477 52.0867 79.9807 52.0867 78.1548Z" fill="#20A2DC"/>
<path d="M65.3286 78.1548C65.3286 76.4201 66.7767 75.9636 67.118 75.9636H70.2495C70.5566 75.9636 71.9495 76.4019 71.9495 78.1548C71.9495 79.9077 70.5225 80.3477 70.2495 80.3477H67.118C66.845 80.3477 65.3286 79.9807 65.3286 78.1548Z" fill="#20A2DC"/>
<path d="M57.6337 91.218C57.6337 89.4833 59.0819 89.0269 59.4232 89.0269H64.702C65.0091 89.0269 66.402 89.4651 66.402 91.218C66.402 92.9709 64.975 93.411 64.702 93.411H59.4232C59.1501 93.411 57.6337 93.044 57.6337 91.218Z" fill="#20A2DC"/>
<path fill-rule="evenodd" clip-rule="evenodd" d="M104.184 73.8662L102.414 80.5168C101.969 82.3355 102.345 84.1998 105.778 83.3109L112.266 80.9817C116.379 83.6109 120.907 84.7627 126.393 84.918C136.25 85.1969 155.157 78.659 156.44 55.8013C157.019 45.4874 148.236 26.7188 127.499 26.132C118.107 25.8662 98.3478 33.2176 97.4653 54.7838C97.0735 64.3584 102.248 72.8808 104.184 73.8662ZM108.025 71.5552L108.966 72.6056L107.848 77.8094L112.025 76.3217L113.327 76.3585C116.423 78.7728 121.842 80.5082 126.329 80.6352C138.138 80.9694 151.136 72.2168 151.777 56.1346C152.189 45.8167 145.121 31.5436 127.189 30.4973C117.526 29.9335 102.485 38.5464 102.027 54.7268C102.203 64.9689 106.892 70.7131 108.025 71.5552Z" fill="#20A2DC"/>
<path fill-rule="evenodd" clip-rule="evenodd" d="M119.324 39.1037C119.896 39.3908 120.782 39.6102 121.008 38.5708C121.143 37.9479 122.316 35.9227 124.131 35.9015L129.932 36.0656C131.31 36.1046 132.802 37.8038 132.838 38.5427C132.874 39.2816 133.298 40.2394 134.771 39.4683C135.429 39.124 137.545 38.8936 138.463 39.7905L142.761 44.3389C143.184 44.7863 143.691 47.0632 142.947 48.0453C142.539 48.5826 142.255 49.4046 143.691 49.9533C144.408 50.2638 146.043 51.4712 146 52.994L145.85 58.2875C145.827 59.0851 144.67 61.5198 143.431 61.7025C142.555 61.8954 141.67 62.3783 142.493 64.0708C142.771 64.5141 143.01 66.3351 142.189 67.1102L137.637 71.5533C136.816 72.3284 134.852 72.4906 133.715 71.6601C133.287 71.406 132.35 71.157 132.031 72.193C131.631 73.488 129.848 74.9615 128.615 74.9266L123.467 74.7809C122.451 74.7522 120.408 73.5332 120.197 72.3661C119.972 71.126 118.934 70.8064 118.124 71.2189C117.393 71.5913 115.933 71.7374 114.865 70.9815C113.444 69.9253 110.819 67.2727 110.279 66.3523C109.587 65.1716 109.387 63.6419 110.173 62.4304C110.773 61.504 110.136 61.1449 109.346 60.883C108.555 60.6212 106.931 59.0004 106.97 57.6227L107.124 52.1842C107.155 51.0965 108.296 49.2419 110.196 48.7877C110.61 48.6784 111.285 48.2524 110.67 47.4222C110.599 47.3477 109.495 45.357 110.775 43.724C112.074 42.261 114.739 39.5545 115.476 39.14C116.287 38.6839 117.606 38.2423 119.324 39.1037ZM124.135 41.6021L124.185 39.8069C124.194 39.5078 124.311 39.0619 125.029 39.0823L129.068 39.1966C129.491 39.2085 129.811 39.4026 129.795 39.9657L129.744 41.7608C130.937 41.9443 133.582 42.6479 134.622 43.9948L136.083 42.6139C136.468 42.2505 136.765 42.3338 137.273 42.8721L139.89 45.641C140.169 45.936 140.467 46.4059 139.854 46.9126L138.548 48.0733C139.198 48.9151 140.485 51.0774 140.43 52.9922L142.3 53.0451C142.599 53.0536 143.122 53.0983 143.102 53.8164L142.99 57.7806C142.979 58.1546 142.813 58.7487 142.139 58.7297L140.269 58.6767C139.959 59.9655 138.957 62.7268 138.038 63.4792L139.421 64.8658C139.639 65.0965 139.701 65.5474 139.237 66.0583L136.314 68.8201C136.084 69.0382 135.631 69.1751 135.267 68.7905L133.961 67.3313C133.171 67.9078 131.082 69.0912 129.042 69.2132L128.989 71.0831C128.981 71.3823 128.819 71.8268 128.145 71.8078L123.882 71.6871C123.658 71.6808 123.289 71.4757 123.303 70.997L123.358 69.0523C122.265 68.8717 119.774 68.1874 118.553 66.8952L117.169 68.2035C116.861 68.4942 116.265 68.4025 115.901 68.0179L113.285 65.249C113.067 65.0183 112.859 64.4136 113.246 63.9754L114.626 62.8167C114.052 61.9521 112.871 59.7578 112.744 57.8978L110.875 57.8449C110.501 57.8343 110.06 57.5224 110.077 56.9241L110.194 52.8103C110.204 52.4363 110.514 52.0708 111.112 52.0877L112.905 52.2133C113.136 51.1219 113.875 48.6327 114.988 47.4066L113.754 46.0242C113.536 45.7935 113.397 45.4153 113.935 44.9065L116.706 42.2153C116.937 41.9972 117.544 41.715 118.053 42.2534L119.216 43.484C120.081 42.8847 122.276 41.6692 124.135 41.6021Z" fill="#516678"/>
<path fill-rule="evenodd" clip-rule="evenodd" d="M126.275 62.8056C130.383 62.9219 133.808 59.6855 133.924 55.5769C134.041 51.4683 130.804 48.0433 126.696 47.9271C122.587 47.8108 119.162 51.0472 119.046 55.1558C118.93 59.2644 122.166 62.6893 126.275 62.8056ZM126.38 59.0861C128.434 59.1442 130.146 57.526 130.205 55.4717C130.263 53.4174 128.644 51.705 126.59 51.6468C124.536 51.5887 122.823 53.2069 122.765 55.2612C122.707 57.3155 124.325 59.028 126.38 59.0861Z" fill="#20A2DC"/>
<path d="M120.667 155.298H5.57391C4.64848 155.227 2.77626 155.618 2.69084 157.749C2.60541 159.881 4.29255 160.486 5.14679 160.521H121.201C121.912 160.45 123.336 159.796 123.336 157.75C123.336 155.703 121.557 155.262 120.667 155.298Z" fill="#516678"/>
</svg>
