<svg width="175" height="175" viewBox="0 0 175 175" fill="none" xmlns="http://www.w3.org/2000/svg">
<path d="M32.5912 37.8327L33.711 32.668H11.6534C5.30523 32.668 3.58358 37.8327 3.58362 40.5226V127.247C3.58362 132.626 9.28631 134.778 12.0839 134.778H75.7818V140.481H80.9465V134.778H94.2887V140.481H99.4534V134.778H164.227C169.177 134.778 171.544 129.721 171.544 126.601V40.3074C171.544 34.9275 167.025 32.7756 163.151 32.7756H140.524L139.595 37.8327L163.582 37.9403C165.626 37.9403 166.272 39.4466 166.272 40.3074V126.601C166.272 129.183 164.658 129.721 163.367 129.721H11.4383C9.28631 129.721 8.8559 128.323 8.8559 127.247V40.5226C8.8559 38.6935 10.1471 37.8327 11.9762 37.8327H32.5912Z" fill="#516678"/>
<path d="M159.995 94.667H135.185C134.716 94.667 133.53 94.9062 133.492 96.5006C133.453 98.095 134.551 98.5733 134.994 98.5733H160.235C160.566 98.5733 161.69 97.8672 161.659 96.5006C161.626 95.0524 160.368 94.667 159.995 94.667Z" fill="#20A2DC"/>
<path d="M159.995 101.56H135.185C134.716 101.56 133.53 101.799 133.492 103.393C133.453 104.988 134.551 105.466 134.994 105.466H160.235C160.566 105.466 161.69 104.76 161.659 103.393C161.626 101.945 160.368 101.56 159.995 101.56Z" fill="#516678"/>
<path d="M160.039 108.453H150.371C149.902 108.453 148.716 108.692 148.678 110.286C148.639 111.881 149.736 112.359 150.179 112.359H160.279C160.609 112.359 161.734 111.653 161.703 110.286C161.67 108.838 160.411 108.453 160.039 108.453Z" fill="#20A2DC"/>
<path fill-rule="evenodd" clip-rule="evenodd" d="M15.9547 88.6943H29.3125C29.8328 88.6943 30.6011 89.3714 30.6011 90.0105V112.359C30.6011 113.088 29.9111 113.86 29.2794 113.86H15.9547C15.7 113.86 14.6331 113.583 14.6331 112.544V90.0105C14.6331 89.5606 15.3231 88.6943 15.9547 88.6943ZM28.6689 91.0837H16.7235V111.69H28.6689V91.0837Z" fill="#516678"/>
<path d="M26.5422 92.5769H18.85C18.3886 92.5769 17.6194 92.7307 17.6194 93.9615C17.6194 95.0925 18.3886 95.3461 18.85 95.3461H26.5422C27.0038 95.3461 27.773 94.8846 27.773 93.9615C27.773 92.9343 27.0038 92.5769 26.5422 92.5769Z" fill="#20A2DC"/>
<path fill-rule="evenodd" clip-rule="evenodd" d="M22.6962 104.994C24.7007 104.994 26.3257 103.369 26.3257 101.365C26.3257 99.3601 24.7007 97.7351 22.6962 97.7351C20.6917 97.7351 19.0668 99.3601 19.0668 101.365C19.0668 103.369 20.6917 104.994 22.6962 104.994ZM22.6964 103.045C23.6244 103.045 24.3767 102.292 24.3767 101.364C24.3767 100.436 23.6244 99.6841 22.6964 99.6841C21.7684 99.6841 21.0161 100.436 21.0161 101.364C21.0161 102.292 21.7684 103.045 22.6964 103.045Z" fill="#20A2DC"/>
<path d="M26.5422 107.383H18.85C18.3886 107.383 17.6194 107.537 17.6194 108.768C17.6194 109.899 18.3886 110.152 18.85 110.152H26.5422C27.0038 110.152 27.773 109.691 27.773 108.768C27.773 107.74 27.0038 107.383 26.5422 107.383Z" fill="#20A2DC"/>
<path fill-rule="evenodd" clip-rule="evenodd" d="M153.736 88.2741C155.681 88.2741 157.259 86.6969 157.259 84.7514C157.259 82.8059 155.681 81.2288 153.736 81.2288C151.79 81.2288 150.213 82.8059 150.213 84.7514C150.213 86.6969 151.79 88.2741 153.736 88.2741ZM153.736 86.3823C154.637 86.3823 155.367 85.6522 155.367 84.7515C155.367 83.8508 154.637 83.1206 153.736 83.1206C152.835 83.1206 152.105 83.8508 152.105 84.7515C152.105 85.6522 152.835 86.3823 153.736 86.3823Z" fill="#20A2DC"/>
<path fill-rule="evenodd" clip-rule="evenodd" d="M146.757 77.9438H160.712C161.232 77.9438 161.702 78.7489 161.702 79.0998V90.5039C161.702 90.9045 161.31 91.7615 160.679 91.7615H146.757C146.203 91.7615 145.734 91.0118 145.734 90.6055V79.0998C145.734 78.8528 146.125 77.9438 146.757 77.9438ZM160.136 79.4893H147.456V90.2162H160.136V79.4893Z" fill="#516678"/>
<path d="M8.8559 124.449V119.284H166.272V124.449H8.8559Z" fill="#516678"/>
<path fill-rule="evenodd" clip-rule="evenodd" d="M66.2056 140.158H109.998C110.966 140.158 111.935 140.266 113.334 141.342L121.834 147.26H128.828C129.688 147.26 130.872 148.228 130.872 149.627V158.555V160.815H44.3632V158.555V149.627C44.3273 148.838 44.7075 147.26 46.5152 147.26H53.1862L61.2561 141.665C61.2853 141.645 61.3162 141.625 61.3488 141.603C62.0369 141.139 63.4936 140.158 66.2056 140.158ZM49.5279 152.425V156.083H125.707V152.425H121.834C120.65 152.425 118.391 151.349 116.561 149.842L109.998 145.323H65.4524L58.5661 150.057C58.2543 150.28 57.9516 150.512 57.6544 150.74C56.5159 151.613 55.4567 152.425 54.2622 152.425H49.5279Z" fill="#516678"/>
<path fill-rule="evenodd" clip-rule="evenodd" d="M55.1763 36.6603C57.138 36.6603 59.3041 39.9706 60.3258 41.5645L61.9197 33.8403C59.5902 30.8978 56.6476 30.6935 55.1763 30.7752H46.2261C38.6246 30.7752 37.0307 36.2924 37.0307 39.6028V104.952C37.1288 112.308 43.2019 114.311 46.2261 114.392H117.46C123.345 114.588 126.124 108.916 126.778 106.055L137.445 69.2734C141.27 59.0726 134.788 53.7433 131.069 52.3538L136.832 25.5031C138.009 16.5774 131.11 14.346 127.514 14.346H78.9619C74.1557 14.0518 71.4012 19.4546 70.6247 22.1928L64.2492 51.6182H60.2032C53.5825 51.6182 50.6399 57.1354 49.7817 60.0779L42.9158 83.2504V39.6028C42.9158 37.5185 44.7549 36.6603 46.2261 36.6603H55.1763ZM124.939 51.6182H70.3794L76.2645 24.5224C76.8776 20.7215 77.981 20.3538 80.3105 20.3538H127.759C131.314 20.3538 131.314 22.9284 130.947 24.5224L124.939 51.6182ZM54.9311 63.6335C55.2581 61.631 56.9419 57.6259 61.0614 57.6259H126.41C129.148 57.6667 134.11 59.3914 132.05 65.963L120.893 104.829C120.862 104.931 120.831 105.034 120.8 105.138C120.344 106.666 119.831 108.385 116.847 108.385H46.1035C44.5505 108.466 41.8614 107.526 43.5288 103.113L54.9311 63.6335Z" fill="#20A2DC"/>
<path d="M119.613 27.821H86.2458C85.3332 27.821 84.1899 28.0174 84.1153 29.3266C84.0408 30.6358 85.012 31.0286 85.8731 31.0286H120.079C120.722 31.0286 121.746 30.4487 121.686 29.3266C121.621 28.1375 120.337 27.821 119.613 27.821Z" fill="#516678"/>
<path d="M117.651 34.7068H84.2841C83.3715 34.7068 82.2281 34.9032 82.1536 36.2124C82.079 37.5216 83.0502 37.9143 83.9113 37.9143H118.117C118.76 37.9143 119.785 37.3345 119.724 36.2124C119.66 35.0233 118.375 34.7068 117.651 34.7068Z" fill="#516678"/>
<path d="M115.69 41.5923H82.3224C81.4098 41.5923 80.2665 41.7887 80.1919 43.0979C80.1174 44.4071 81.0886 44.7998 81.9497 44.7998H116.156C116.799 44.7998 117.823 44.22 117.762 43.0979C117.698 41.9088 116.413 41.5923 115.69 41.5923Z" fill="#516678"/>
<circle cx="83.9651" cy="79.5438" r="0.809653" fill="#516678"/>
<circle cx="88.0713" cy="77.9244" r="0.809653" fill="#20A2DC"/>
<circle cx="91.8881" cy="79.5438" r="0.809653" fill="#516678"/>
<circle cx="89.9218" cy="81.5101" r="0.809653" fill="#516678"/>
<circle cx="87.9555" cy="80.7003" r="0.809653" fill="#20A2DC"/>
<circle cx="85.9893" cy="81.5101" r="0.809653" fill="#516678"/>
<circle cx="85.1795" cy="83.5343" r="0.809653" fill="#516678"/>
<circle cx="85.9893" cy="85.5582" r="0.809653" fill="#516678"/>
<circle cx="88.0134" cy="83.5343" r="0.809653" fill="#516678"/>
<circle cx="89.9218" cy="85.5582" r="0.809653" fill="#516678"/>
<circle cx="88.0134" cy="89.1439" r="0.809653" fill="#516678"/>
<circle cx="93.5653" cy="83.5343" r="0.809653" fill="#516678"/>
<circle cx="82.3458" cy="83.5343" r="0.809653" fill="#516678"/>
<circle cx="83.9651" cy="87.409" r="0.809653" fill="#20A2DC"/>
<circle cx="87.9555" cy="86.2523" r="0.809653" fill="#20A2DC"/>
<circle cx="90.7316" cy="83.5343" r="0.809653" fill="#20A2DC"/>
<circle cx="91.8881" cy="87.5245" r="0.809653" fill="#20A2DC"/>
<path fill-rule="evenodd" clip-rule="evenodd" d="M90.1534 69.704C90.1534 70.6752 89.5234 71.4993 88.6497 71.7898V74.7021C89.7653 74.7847 90.8235 75.0735 91.7864 75.5305L93.1813 73.1145C92.8443 72.7282 92.6402 72.2231 92.6402 71.6703C92.6402 70.4566 93.6241 69.4727 94.8378 69.4727C96.0515 69.4727 97.0354 70.4566 97.0354 71.6703C97.0354 72.884 96.0515 73.8679 94.8378 73.8679C94.6797 73.8679 94.5255 73.8512 94.3769 73.8195L92.9898 76.222C93.8897 76.8375 94.6706 77.6143 95.2907 78.5108L97.7206 77.1079C97.6884 76.9583 97.6715 76.8031 97.6715 76.6439C97.6715 75.4302 98.6554 74.4463 99.8691 74.4463C101.083 74.4463 102.067 75.4302 102.067 76.6439C102.067 77.8576 101.083 78.8415 99.8691 78.8415C99.3175 78.8415 98.8133 78.6383 98.4274 78.3025L95.9886 79.7105C96.4574 80.6847 96.7536 81.7577 96.8374 82.8897H99.6156C99.8884 81.9862 100.727 81.3283 101.72 81.3283C102.933 81.3283 103.917 82.3122 103.917 83.526C103.917 84.7397 102.933 85.7236 101.72 85.7236C100.77 85.7236 99.9611 85.1212 99.6541 84.2777H96.8329C96.7437 85.3847 96.4514 86.4344 95.9933 87.3895L98.3964 88.7769C98.7861 88.4248 99.3026 88.2104 99.8691 88.2104C101.083 88.2104 102.067 89.1943 102.067 90.408C102.067 91.6217 101.083 92.6056 99.8691 92.6056C98.6554 92.6056 97.6715 91.6217 97.6715 90.408C97.6715 90.2632 97.6855 90.1216 97.7123 89.9846L95.2968 88.59C94.6769 89.4886 93.8957 90.2672 92.9949 90.8841L94.4132 93.3407C94.5506 93.3138 94.6926 93.2997 94.8378 93.2997C96.0515 93.2997 97.0354 94.2836 97.0354 95.4973C97.0354 96.7111 96.0515 97.695 94.8378 97.695C93.6241 97.695 92.6402 96.7111 92.6402 95.4973C92.6402 94.9312 92.8543 94.415 93.2059 94.0254L91.792 91.5765C90.8276 92.035 89.7675 92.3248 88.6497 92.4076V95.2621C89.5234 95.5526 90.1534 96.3767 90.1534 97.3479C90.1534 98.5616 89.1695 99.5456 87.9558 99.5456C86.742 99.5456 85.7581 98.5616 85.7581 97.3479C85.7581 96.3767 86.3881 95.5527 87.2617 95.2621V92.4031C86.1487 92.3134 85.0936 92.0184 84.1344 91.5559L82.7074 94.0275C83.0579 94.4169 83.2712 94.9322 83.2712 95.4973C83.2712 96.7111 82.2873 97.695 81.0736 97.695C79.8599 97.695 78.8759 96.7111 78.8759 95.4973C78.8759 94.2836 79.8599 93.2997 81.0736 93.2997C81.2198 93.2997 81.3627 93.314 81.5009 93.3412L82.9352 90.8571C82.0468 90.2416 81.2762 89.4682 80.6639 88.5775L78.2539 89.9689C78.2826 90.1108 78.2977 90.2576 78.2977 90.408C78.2977 91.6217 77.3138 92.6056 76.1001 92.6056C74.8864 92.6056 73.9025 91.6217 73.9025 90.408C73.9025 89.1943 74.8864 88.2104 76.1001 88.2104C76.661 88.2104 77.1727 88.4205 77.561 88.7662L79.9695 87.3757C79.5151 86.4244 79.2252 85.3794 79.1364 84.2777H76.3151C76.008 85.1212 75.199 85.7236 74.2494 85.7236C73.0357 85.7236 72.0518 84.7397 72.0518 83.526C72.0518 82.3122 73.0357 81.3283 74.2494 81.3283C75.2419 81.3283 76.0807 81.9862 76.3535 82.8898H79.1319C79.2154 81.763 79.5092 80.6948 79.9741 79.7242L77.5298 78.313C77.1455 78.6425 76.646 78.8415 76.1001 78.8415C74.8864 78.8415 73.9025 77.8576 73.9025 76.6439C73.9025 75.4302 74.8864 74.4463 76.1001 74.4463C77.3138 74.4463 78.2977 75.4302 78.2977 76.6439C78.2977 76.8086 78.2796 76.969 78.2453 77.1234L80.67 78.5233C81.2825 77.6346 82.0527 76.8631 82.9402 76.2491L81.5372 73.8189C81.3877 73.851 81.2326 73.8679 81.0736 73.8679C79.8599 73.8679 78.8759 72.884 78.8759 71.6703C78.8759 70.4566 79.8599 69.4727 81.0736 69.4727C82.2873 69.4727 83.2712 70.4566 83.2712 71.6703C83.2712 72.2221 83.0678 72.7264 82.7319 73.1124L84.1399 75.5511C85.0977 75.0902 86.1508 74.7961 87.2617 74.7066V71.7898C86.3881 71.4992 85.7581 70.6752 85.7581 69.704C85.7581 68.4903 86.742 67.5063 87.9558 67.5063C89.1695 67.5063 90.1534 68.4903 90.1534 69.704ZM101.72 84.3356C102.167 84.3356 102.529 83.9731 102.529 83.526C102.529 83.0788 102.167 82.7163 101.72 82.7163C101.273 82.7163 100.91 83.0788 100.91 83.526C100.91 83.9731 101.273 84.3356 101.72 84.3356ZM81.8834 71.6703C81.8834 72.1175 81.5209 72.48 81.0737 72.48C80.6266 72.48 80.2641 72.1175 80.2641 71.6703C80.2641 71.2232 80.6266 70.8607 81.0737 70.8607C81.5209 70.8607 81.8834 71.2232 81.8834 71.6703ZM87.9558 70.5136C88.4029 70.5136 88.7654 70.1511 88.7654 69.704C88.7654 69.2568 88.4029 68.8943 87.9558 68.8943C87.5086 68.8943 87.1461 69.2568 87.1461 69.704C87.1461 70.1511 87.5086 70.5136 87.9558 70.5136ZM95.6473 71.6703C95.6473 72.1175 95.2849 72.48 94.8377 72.48C94.3905 72.48 94.028 72.1175 94.028 71.6703C94.028 71.2232 94.3905 70.8607 94.8377 70.8607C95.2849 70.8607 95.6473 71.2232 95.6473 71.6703ZM99.8692 77.4536C100.316 77.4536 100.679 77.0911 100.679 76.6439C100.679 76.1967 100.316 75.8343 99.8692 75.8343C99.422 75.8343 99.0595 76.1967 99.0595 76.6439C99.0595 77.0911 99.422 77.4536 99.8692 77.4536ZM76.9098 76.6439C76.9098 77.0911 76.5473 77.4536 76.1001 77.4536C75.653 77.4536 75.2905 77.0911 75.2905 76.6439C75.2905 76.1967 75.653 75.8343 76.1001 75.8343C76.5473 75.8343 76.9098 76.1967 76.9098 76.6439ZM74.2494 84.3356C74.6966 84.3356 75.0591 83.9731 75.0591 83.526C75.0591 83.0788 74.6966 82.7163 74.2494 82.7163C73.8022 82.7163 73.4397 83.0788 73.4397 83.526C73.4397 83.9731 73.8022 84.3356 74.2494 84.3356ZM76.9098 90.408C76.9098 90.8552 76.5473 91.2177 76.1001 91.2177C75.653 91.2177 75.2905 90.8552 75.2905 90.408C75.2905 89.9609 75.653 89.5984 76.1001 89.5984C76.5473 89.5984 76.9098 89.9609 76.9098 90.408ZM81.0737 96.3069C81.5209 96.3069 81.8834 95.9444 81.8834 95.4972C81.8834 95.0501 81.5209 94.6876 81.0737 94.6876C80.6266 94.6876 80.2641 95.0501 80.2641 95.4972C80.2641 95.9444 80.6266 96.3069 81.0737 96.3069ZM95.6473 95.4972C95.6473 95.9444 95.2849 96.3069 94.8377 96.3069C94.3905 96.3069 94.028 95.9444 94.028 95.4972C94.028 95.0501 94.3905 94.6876 94.8377 94.6876C95.2849 94.6876 95.6473 95.0501 95.6473 95.4972ZM87.9558 98.1576C88.4029 98.1576 88.7654 97.7951 88.7654 97.3479C88.7654 96.9008 88.4029 96.5383 87.9558 96.5383C87.5086 96.5383 87.1461 96.9008 87.1461 97.3479C87.1461 97.7951 87.5086 98.1576 87.9558 98.1576ZM100.679 90.408C100.679 90.8552 100.316 91.2177 99.8692 91.2177C99.422 91.2177 99.0595 90.8552 99.0595 90.408C99.0595 89.9609 99.422 89.5984 99.8692 89.5984C100.316 89.5984 100.679 89.9609 100.679 90.408ZM88.0135 90.9863C92.1337 90.9863 95.4739 87.6462 95.4739 83.5259C95.4739 79.4057 92.1337 76.0656 88.0135 76.0656C83.8932 76.0656 80.5531 79.4057 80.5531 83.5259C80.5531 87.6462 83.8932 90.9863 88.0135 90.9863Z" fill="#516678"/>
<path d="M86.3364 61.1738C86.086 61.4742 86.0761 61.8967 86.4231 62.1569L87.6954 63.0533L86.4809 63.9208C85.9894 64.2678 86.2014 64.769 86.3364 64.9329C86.6139 65.2799 86.9147 65.3088 87.3195 65.0774L89.5461 63.5449C89.9509 63.2268 89.8063 62.7352 89.4882 62.5328L87.3195 61.0581C86.8858 60.7978 86.5218 60.9512 86.3364 61.1738Z" fill="#516678"/>
<path d="M89.5621 102.053C89.8125 102.354 89.8223 102.776 89.4753 103.036L88.203 103.933L89.4175 104.8C89.9091 105.147 89.697 105.648 89.5621 105.812C89.2845 106.159 88.9838 106.188 88.5789 105.957L86.3524 104.424C85.9476 104.106 86.0921 103.615 86.4102 103.412L88.5789 101.937C89.0127 101.677 89.3766 101.831 89.5621 102.053Z" fill="#516678"/>
<path d="M65.6531 85.1324C65.9536 85.3828 66.376 85.3926 66.6363 85.0456L67.5327 83.7733L68.4002 84.9878C68.7472 85.4794 69.2484 85.2673 69.4123 85.1324C69.7592 84.8548 69.7881 84.5541 69.5568 84.1492L68.0243 81.9227C67.7062 81.5179 67.2146 81.6625 67.0122 81.9805L65.5375 84.1492C65.2772 84.583 65.4305 84.9469 65.6531 85.1324Z" fill="#516678"/>
<path d="M110.284 81.8569C109.983 81.6065 109.561 81.5966 109.301 81.9436L108.404 83.2159L107.537 82.0014C107.19 81.5099 106.689 81.7219 106.525 81.8569C106.178 82.1345 106.149 82.4352 106.38 82.84L107.913 85.0666C108.231 85.4714 108.722 85.3268 108.925 85.0087L110.4 82.84C110.66 82.4063 110.507 82.0423 110.284 81.8569Z" fill="#516678"/>
<ellipse cx="81.4631" cy="64.0961" rx="0.924606" ry="0.741062" transform="rotate(-21.3473 81.4631 64.0961)" fill="#20A2DC"/>
<ellipse cx="75.6456" cy="67.1504" rx="0.924606" ry="0.741062" transform="rotate(-28.1788 75.6456 67.1504)" fill="#20A2DC"/>
<ellipse cx="71.0903" cy="71.9221" rx="0.924606" ry="0.741062" transform="rotate(-56.0693 71.0903 71.9221)" fill="#20A2DC"/>
<ellipse cx="68.3122" cy="77.852" rx="0.924606" ry="0.741062" transform="rotate(-75.2739 68.3122 77.852)" fill="#20A2DC"/>
<ellipse cx="68.1468" cy="88.522" rx="0.924606" ry="0.741062" transform="rotate(-105.301 68.1468 88.522)" fill="#20A2DC"/>
<ellipse cx="70.6189" cy="94.3583" rx="0.924606" ry="0.741062" transform="rotate(-121.067 70.6189 94.3583)" fill="#20A2DC"/>
<ellipse cx="74.7394" cy="99.0724" rx="0.924606" ry="0.741062" transform="rotate(-143.427 74.7394 99.0724)" fill="#20A2DC"/>
<ellipse cx="80.1507" cy="102.358" rx="0.924606" ry="0.741062" transform="rotate(-158.999 80.1507 102.358)" fill="#20A2DC"/>
<ellipse cx="93.0724" cy="103.311" rx="0.924606" ry="0.741062" transform="rotate(-18.8105 93.0724 103.311)" fill="#20A2DC"/>
<ellipse cx="98.8855" cy="100.733" rx="0.924606" ry="0.741062" transform="rotate(-37.5034 98.8855 100.733)" fill="#20A2DC"/>
<ellipse cx="103.648" cy="96.6186" rx="0.924606" ry="0.741062" transform="rotate(-45.671 103.648 96.6186)" fill="#20A2DC"/>
<ellipse cx="106.893" cy="91.1814" rx="0.924606" ry="0.741062" transform="rotate(-70.2946 106.893 91.1814)" fill="#20A2DC"/>
<ellipse cx="106.957" cy="75.9549" rx="0.924606" ry="0.741062" transform="rotate(-114.303 106.957 75.9549)" fill="#20A2DC"/>
<ellipse cx="103.753" cy="70.5301" rx="0.924606" ry="0.741062" transform="rotate(-125.94 103.753 70.5301)" fill="#20A2DC"/>
<ellipse cx="99.0205" cy="66.2572" rx="0.924606" ry="0.741062" transform="rotate(-141.272 99.0205 66.2572)" fill="#20A2DC"/>
<ellipse cx="93.2653" cy="63.7588" rx="0.924606" ry="0.741062" transform="rotate(-166.357 93.2653 63.7588)" fill="#20A2DC"/>
<ellipse cx="78.4216" cy="65.4156" rx="0.924606" ry="0.741062" transform="rotate(-28.1788 78.4216 65.4156)" fill="#516678"/>
<ellipse cx="73.1724" cy="69.3198" rx="0.924606" ry="0.741062" transform="rotate(-44.7434 73.1724 69.3198)" fill="#516678"/>
<ellipse cx="69.4237" cy="74.7597" rx="0.924606" ry="0.741062" transform="rotate(-65.1918 69.4237 74.7597)" fill="#516678"/>
<ellipse cx="69.1357" cy="91.5532" rx="0.924606" ry="0.741062" transform="rotate(-110.489 69.1357 91.5532)" fill="#516678"/>
<ellipse cx="72.5287" cy="96.9109" rx="0.924606" ry="0.741062" transform="rotate(-132.469 72.5287 96.9109)" fill="#516678"/>
<ellipse cx="77.342" cy="100.923" rx="0.924606" ry="0.741062" transform="rotate(-153.271 77.342 100.923)" fill="#516678"/>
<ellipse cx="83.1856" cy="103.402" rx="0.924606" ry="0.741062" transform="rotate(-166.902 83.1856 103.402)" fill="#516678"/>
<ellipse cx="96.1254" cy="102.28" rx="0.924606" ry="0.741062" transform="rotate(-26.0792 96.1254 102.28)" fill="#516678"/>
<ellipse cx="101.401" cy="98.8458" rx="0.924606" ry="0.741062" transform="rotate(-35.413 101.401 98.8458)" fill="#516678"/>
<ellipse cx="105.482" cy="94.0072" rx="0.924606" ry="0.741062" transform="rotate(-60.27 105.482 94.0072)" fill="#516678"/>
<ellipse cx="107.883" cy="88.1733" rx="0.924606" ry="0.741062" transform="rotate(-83.3688 107.883 88.1733)" fill="#516678"/>
<ellipse cx="107.882" cy="78.9621" rx="0.924606" ry="0.741062" transform="rotate(-100.683 107.882 78.9621)" fill="#516678"/>
<ellipse cx="105.604" cy="73.1325" rx="0.924606" ry="0.741062" transform="rotate(-120.545 105.604 73.1325)" fill="#516678"/>
<ellipse cx="101.565" cy="68.2812" rx="0.924606" ry="0.741062" transform="rotate(-134.089 101.565 68.2812)" fill="#516678"/>
<ellipse cx="96.2727" cy="64.7998" rx="0.924606" ry="0.741062" transform="rotate(-156.058 96.2727 64.7998)" fill="#516678"/>
<ellipse cx="84.6915" cy="63.2975" rx="0.924606" ry="0.741062" transform="rotate(166.632 84.6915 63.2975)" fill="#516678"/>
</svg>
