<svg width="175" height="176" viewBox="0 0 175 176" fill="none" xmlns="http://www.w3.org/2000/svg">
<path d="M41.8273 44.9964L40.69 45.5659L42.3012 47.6542H39.8371V48.6984L42.3012 48.2238L40.69 50.5968L41.8273 51.1663L42.775 48.6984L43.9123 51.1663L45.0496 50.407L43.4384 48.2238L46.0921 48.6984V47.6542H43.4384L45.0496 45.5659L44.1966 44.9964L42.775 47.2745L41.8273 44.9964Z" fill="#20A2DC"/>
<path d="M40.949 15.4623L39.8117 16.0319L41.4228 18.1202H38.9587V19.1643L41.4228 18.6897L39.8117 21.0628L40.949 21.6323L41.8967 19.1643L43.034 21.6323L44.1712 20.8729L42.5601 18.6897L45.2137 19.1643V18.1202H42.5601L44.1712 16.0319L43.3183 15.4623L41.8967 17.7405L40.949 15.4623Z" fill="#20A2DC"/>
<path d="M160.63 65.5742L159.492 66.1437L161.103 68.232H158.639V69.2761L161.103 68.8015L159.492 71.1746L160.63 71.7441L161.577 69.2761L162.715 71.7441L163.852 70.9847L162.241 68.8015L164.894 69.2761V68.232H162.241L163.852 66.1437L162.999 65.5742L161.577 67.8523L160.63 65.5742Z" fill="#20A2DC"/>
<path d="M121.943 18.3824L120.806 18.952L122.417 21.0403H119.953V22.0844L122.417 21.6098L120.806 23.9829L121.943 24.5524L122.891 22.0844L124.028 24.5524L125.166 23.793L123.555 21.6098L126.208 22.0844V21.0403H123.555L125.166 18.952L124.313 18.3824L122.891 20.6606L121.943 18.3824Z" fill="#20A2DC"/>
<path d="M83.198 2.46478L82.6811 2.74517L83.4134 3.77325H82.2934V4.28729L83.4134 4.05364L82.6811 5.22191L83.198 5.5023L83.6288 4.28729L84.1457 5.5023L84.6627 5.12845L83.9303 4.05364L85.1365 4.28729V3.77325H83.9303L84.6627 2.74517L84.275 2.46478L83.6288 3.58633L83.198 2.46478Z" fill="#20A2DC"/>
<path fill-rule="evenodd" clip-rule="evenodd" d="M20.8201 11.2858C22.0763 11.2858 23.0947 10.2658 23.0947 9.00763C23.0947 7.74945 22.0763 6.72949 20.8201 6.72949C19.5639 6.72949 18.5456 7.74945 18.5456 9.00763C18.5456 10.2658 19.5639 11.2858 20.8201 11.2858ZM20.7902 9.72704C21.2034 9.72704 21.5384 9.39153 21.5384 8.97765C21.5384 8.56378 21.2034 8.22827 20.7902 8.22827C20.377 8.22827 20.042 8.56378 20.042 8.97765C20.042 9.39153 20.377 9.72704 20.7902 9.72704Z" fill="#516678"/>
<path fill-rule="evenodd" clip-rule="evenodd" d="M12.6267 54.6374C13.8829 54.6374 14.9012 53.6174 14.9012 52.3593C14.9012 51.1011 13.8829 50.0811 12.6267 50.0811C11.3705 50.0811 10.3521 51.1011 10.3521 52.3593C10.3521 53.6174 11.3705 54.6374 12.6267 54.6374ZM12.5967 53.0787C13.0099 53.0787 13.3449 52.7432 13.3449 52.3293C13.3449 51.9154 13.0099 51.5799 12.5967 51.5799C12.1835 51.5799 11.8485 51.9154 11.8485 52.3293C11.8485 52.7432 12.1835 53.0787 12.5967 53.0787Z" fill="#516678"/>
<path fill-rule="evenodd" clip-rule="evenodd" d="M79.9944 46.4378C82.2074 46.4378 84.0015 44.6409 84.0015 42.4243C84.0015 40.2078 82.2074 38.4109 79.9944 38.4109C77.7813 38.4109 75.9872 40.2078 75.9872 42.4243C75.9872 44.6409 77.7813 46.4378 79.9944 46.4378ZM79.9415 43.6917C80.6695 43.6917 81.2597 43.1006 81.2597 42.3715C81.2597 41.6423 80.6695 41.0512 79.9415 41.0512C79.2136 41.0512 78.6234 41.6423 78.6234 42.3715C78.6234 43.1006 79.2136 43.6917 79.9415 43.6917Z" fill="#516678"/>
<path fill-rule="evenodd" clip-rule="evenodd" d="M136.074 50.185C137.395 50.185 138.467 49.1119 138.467 47.7882C138.467 46.4645 137.395 45.3914 136.074 45.3914C134.752 45.3914 133.681 46.4645 133.681 47.7882C133.681 49.1119 134.752 50.185 136.074 50.185ZM136.042 48.5449C136.477 48.5449 136.829 48.1919 136.829 47.7565C136.829 47.321 136.477 46.968 136.042 46.968C135.608 46.968 135.255 47.321 135.255 47.7565C135.255 48.1919 135.608 48.5449 136.042 48.5449Z" fill="#516678"/>
<path fill-rule="evenodd" clip-rule="evenodd" d="M159.316 34.8596C160.638 34.8596 161.709 33.7865 161.709 32.4628C161.709 31.1391 160.638 30.066 159.316 30.066C157.994 30.066 156.923 31.1391 156.923 32.4628C156.923 33.7865 157.994 34.8596 159.316 34.8596ZM159.285 33.2195C159.719 33.2195 160.072 32.8665 160.072 32.431C160.072 31.9956 159.719 31.6426 159.285 31.6426C158.85 31.6426 158.497 31.9956 158.497 32.431C158.497 32.8665 158.85 33.2195 159.285 33.2195Z" fill="#516678"/>
<path fill-rule="evenodd" clip-rule="evenodd" d="M19.9648 153.955C19.9648 154.821 20.5704 156.637 22.1275 156.637H152.931C153.623 156.637 154.921 155.513 154.921 153.956V148.727C154.921 147.986 154.661 146.516 153.19 146.516H150.768L21.695 146.516C20.3973 146.516 19.9648 147.813 19.9648 148.592V153.955ZM24.1173 150.668V153.09C24.1173 153.955 24.7229 155.253 26.28 155.253H148.778C149.47 155.253 150.768 154.561 150.768 153.004V150.668L24.1173 150.668Z" fill="#516678"/>
<path d="M26.3665 142.363H30.519V63.0054C30.519 61.206 31.8167 60.9292 32.5087 60.9292H142.377C143.847 60.9292 144.366 62.3133 144.366 62.9189V142.363H148.519V62.2268C148.519 58.5069 144.626 56.6902 142.809 56.6902H32.2492C28.1832 56.6902 26.3665 60.2371 26.3665 62.2268V142.363Z" fill="#516678"/>
<path d="M132.478 94.2202C131.301 95.0297 131.742 96.5201 132.11 97.164C134.171 101.212 134.686 106.639 134.686 108.847C133.674 129.638 116.747 135.434 107.916 135.434C86.7204 134.33 81.2989 117.249 81.2375 108.847C82.0471 87.6518 99.0538 81.9849 107.456 81.8009C106.996 82.4449 106.352 84.0272 107.456 85.2047C108.56 86.3823 109.94 85.6954 110.492 85.2047C111.442 84.5608 113.767 82.9049 115.459 81.433C117.152 79.9611 116.165 78.4278 115.459 77.8452L110.492 74.0734C109.97 73.7361 108.633 73.3191 107.456 74.3494C106.278 75.3797 106.965 76.9252 107.456 77.5692C83.3166 78.7467 76.9138 98.9119 76.7298 108.847C77.5393 132.766 97.8578 139.481 107.916 139.849C132.865 138.23 139.163 118.507 139.194 108.847C138.9 100.899 136.495 95.6614 135.33 94.0362C134.87 93.7602 133.656 93.4106 132.478 94.2202Z" fill="#20A2DC"/>
<path fill-rule="evenodd" clip-rule="evenodd" d="M100.187 92.4033C100.783 92.6813 101.699 92.8807 101.9 91.8074C102.02 91.1641 103.166 89.0513 105.028 88.9768H110.987C112.403 88.9768 113.983 90.6775 114.041 91.4349C114.1 92.1923 114.563 93.163 116.053 92.3288C116.718 91.9563 118.883 91.6584 119.851 92.5522L124.395 97.096C124.842 97.5429 125.429 99.8652 124.693 100.895C124.291 101.458 124.023 102.31 125.513 102.832C126.257 103.13 127.971 104.321 127.971 105.886V111.323C127.971 112.143 126.853 114.675 125.587 114.899C124.693 115.122 123.799 115.644 124.693 117.357C124.991 117.804 125.289 119.666 124.47 120.485L119.926 125.178C119.107 125.997 117.095 126.221 115.904 125.401C115.457 125.153 114.488 124.925 114.19 125.997C113.818 127.338 112.03 128.902 110.764 128.902H105.475C104.432 128.902 102.3 127.711 102.049 126.519C101.782 125.252 100.708 124.955 99.8887 125.401C99.1488 125.805 97.6541 125.997 96.5367 125.252C95.047 124.21 92.2756 121.563 91.695 120.634C90.9501 119.442 90.7007 117.878 91.4715 116.612C92.061 115.644 91.3971 115.293 90.5777 115.048C89.7583 114.802 88.0451 113.185 88.0451 111.77V106.184C88.0451 105.066 89.1624 103.13 91.0991 102.608C91.5212 102.484 92.2015 102.027 91.546 101.193C91.4716 101.118 90.2797 99.1072 91.546 97.394C92.8372 95.8545 95.4939 92.9992 96.2388 92.5522C97.0582 92.0606 98.3989 91.569 100.187 92.4033ZM105.197 94.8281V92.9841C105.197 92.6768 105.305 92.2158 106.042 92.2158H110.191C110.626 92.2158 110.96 92.4057 110.96 92.9841V94.8281C112.189 94.9818 114.924 95.6272 116.031 96.9794L117.491 95.5196C117.875 95.1354 118.182 95.2123 118.72 95.7501L121.486 98.5161C121.781 98.8108 122.101 99.2844 121.486 99.8222L120.18 101.052C120.871 101.897 122.254 104.079 122.254 106.046H124.175C124.482 106.046 125.02 106.076 125.02 106.814V110.886C125.02 111.27 124.867 111.885 124.175 111.885H122.254C121.973 113.217 121.025 116.08 120.103 116.879L121.563 118.262C121.793 118.493 121.87 118.954 121.409 119.492L118.489 122.411C118.259 122.642 117.798 122.795 117.414 122.411L116.031 120.951C115.237 121.566 113.126 122.841 111.037 123.026V124.947C111.037 125.254 110.883 125.715 110.191 125.715H105.812C105.581 125.715 105.197 125.515 105.197 125.024V123.026C104.07 122.872 101.494 122.242 100.203 120.951L98.8202 122.334C98.5128 122.642 97.8982 122.565 97.514 122.181L94.748 119.415C94.5175 119.184 94.287 118.57 94.6712 118.109L96.0542 116.879C95.4395 116.008 94.1641 113.791 93.9797 111.885H92.0588C91.6747 111.885 91.2137 111.578 91.2137 110.963V106.737C91.2137 106.353 91.521 105.969 92.1357 105.969L93.9797 106.046C94.1846 104.919 94.8709 102.342 95.9773 101.052L94.6712 99.6686C94.4407 99.4381 94.287 99.0539 94.8248 98.5161L97.5908 95.6733C97.8213 95.4428 98.436 95.1354 98.9738 95.6733L100.203 96.9026C101.074 96.2623 103.292 94.951 105.197 94.8281Z" fill="#516678"/>
<path fill-rule="evenodd" clip-rule="evenodd" d="M107.958 118.704C113.303 118.704 117.637 114.371 117.637 109.025C117.637 103.68 113.303 99.3463 107.958 99.3463C102.612 99.3463 98.279 103.68 98.279 109.025C98.279 114.371 102.612 118.704 107.958 118.704ZM107.958 113.864C110.631 113.864 112.797 111.698 112.797 109.025C112.797 106.352 110.631 104.186 107.958 104.186C105.285 104.186 103.118 106.352 103.118 109.025C103.118 111.698 105.285 113.864 107.958 113.864Z" fill="#20A2DC"/>
<path fill-rule="evenodd" clip-rule="evenodd" d="M37.1346 121.139C37.1346 120.166 37.7909 118.156 40.1536 118.156H45.0759C46.2573 118.156 48.2262 118.869 48.2262 121.139V125.939C48.2262 127.042 47.7011 129.247 45.0759 129.247H40.1536C38.841 129.247 37.1346 128.339 37.1346 125.939V121.139ZM45.1597 121.353H40.2011V126.311H45.1597V121.353Z" fill="#20A2DC"/>
<path fill-rule="evenodd" clip-rule="evenodd" d="M36.9364 105.272C36.9364 104.299 37.5927 102.289 39.9554 102.289H44.8777C46.0591 102.289 48.028 103.002 48.028 105.272V110.072C48.028 111.175 47.5029 113.38 44.8777 113.38H39.9554C38.6428 113.38 36.9364 112.472 36.9364 110.072V105.272ZM44.9615 105.486H40.0029V110.444H44.9615V105.486Z" fill="#20A2DC"/>
<path fill-rule="evenodd" clip-rule="evenodd" d="M36.9364 89.2513C36.9364 88.2784 37.5927 86.2676 39.9554 86.2676H44.8777C46.0591 86.2676 48.028 86.9811 48.028 89.2513V94.0512C48.028 95.1539 47.5029 97.3592 44.8777 97.3592H39.9554C38.6428 97.3592 36.9364 96.4511 36.9364 94.0512V89.2513ZM44.9615 89.4646H40.0029V94.4232H44.9615V89.4646Z" fill="#20A2DC"/>
<path fill-rule="evenodd" clip-rule="evenodd" d="M77.2463 125.426H59.4955C58.6135 125.426 57.0701 126.285 57.0701 127.769C57.0701 129.253 58.6135 130.112 59.4955 130.112H79.7922C78.8503 128.61 77.9991 127.046 77.2463 125.426Z" fill="#20A2DC"/>
<path fill-rule="evenodd" clip-rule="evenodd" d="M74.7208 118.461H59.4955C58.6135 118.461 57.0701 119.32 57.0701 120.804C57.0701 122.288 58.6135 123.147 59.4955 123.147H76.2664C75.6645 121.626 75.1474 120.062 74.7208 118.461Z" fill="#516678"/>
<path fill-rule="evenodd" clip-rule="evenodd" d="M73.3072 108.912L59.4955 108.912C58.6135 108.912 57.0701 109.771 57.0701 111.255C57.0701 112.739 58.6135 113.598 59.4955 113.598H73.7246C73.5022 112.061 73.3616 110.497 73.3072 108.912Z" fill="#20A2DC"/>
<path fill-rule="evenodd" clip-rule="evenodd" d="M73.5412 101.947L59.4955 101.947C58.6135 101.947 57.0701 102.806 57.0701 104.29C57.0701 105.774 58.6135 106.633 59.4955 106.633H73.21C73.2357 105.048 73.3476 103.485 73.5412 101.947Z" fill="#516678"/>
<path fill-rule="evenodd" clip-rule="evenodd" d="M75.9947 92.3968L59.4955 92.3968C58.6135 92.3968 57.0701 93.2558 57.0701 94.7395C57.0701 96.2232 58.6135 97.0822 59.4955 97.0822H74.5394C74.9364 95.483 75.4234 93.9193 75.9947 92.3968Z" fill="#20A2DC"/>
<path fill-rule="evenodd" clip-rule="evenodd" d="M79.3597 85.4316H59.4955C58.6135 85.4316 57.0701 86.2906 57.0701 87.7743C57.0701 89.2581 58.6135 90.1171 59.4955 90.1171H76.9264C77.6427 88.5001 78.4562 86.9358 79.3597 85.4316Z" fill="#516678"/>
<rect x="15.912" y="156.268" width="143.033" height="4.26364" rx="2.13182" fill="#516678"/>
<rect x="161.158" y="156.268" width="7.15163" height="4.26364" rx="2.13182" fill="#20A2DC"/>
<rect x="6.71698" y="156.268" width="7.15163" height="4.26364" rx="2.13182" fill="#20A2DC"/>
<rect x="64.4409" y="164.454" width="45.6342" height="4.26364" rx="2.13182" fill="#20A2DC"/>
<rect x="72.7845" y="170.764" width="30.139" height="4.26364" rx="2.13182" fill="#20A2DC"/>
<rect x="83.1714" y="167.353" width="8.68413" height="4.26364" fill="#20A2DC"/>
<rect x="112.118" y="164.454" width="12.6005" height="4.26364" rx="2.13182" fill="#20A2DC"/>
<rect x="49.7971" y="164.454" width="12.6005" height="4.26364" rx="2.13182" fill="#20A2DC"/>
<rect x="170.353" y="156.268" width="4.25692" height="4.26364" rx="2.12846" fill="#20A2DC"/>
<rect x="0.24646" y="156.268" width="4.25692" height="4.26364" rx="2.12846" fill="#20A2DC"/>
</svg>
