<svg width="175" height="176" viewBox="0 0 175 176" fill="none" xmlns="http://www.w3.org/2000/svg">
<path d="M29.7497 54.609L28.6125 55.1785L30.2236 57.2668H27.7595V58.311L30.2236 57.8364L28.6125 60.2094L29.7497 60.779L30.6975 58.311L31.8347 60.779L32.972 60.0196L31.3609 57.8364L34.0145 58.311V57.2668H31.3609L32.972 55.1785L32.1191 54.609L30.6975 56.8871L29.7497 54.609Z" fill="#20A2DC"/>
<path d="M41.1954 25.075L40.0582 25.6445L41.6693 27.7328H39.2052V28.777L41.6693 28.3024L40.0582 30.6754L41.1954 31.245L42.1432 28.777L43.2804 31.245L44.4177 30.4856L42.8066 28.3024L45.4602 28.777V27.7328H42.8066L44.4177 25.6445L43.5647 25.075L42.1432 27.3531L41.1954 25.075Z" fill="#20A2DC"/>
<path d="M160.876 75.1868L159.739 75.7564L161.35 77.8447H158.886V78.8888L161.35 78.4142L159.739 80.7872L160.876 81.3568L161.824 78.8888L162.961 81.3568L164.098 80.5974L162.487 78.4142L165.141 78.8888V77.8447H162.487L164.098 75.7564L163.245 75.1868L161.824 77.465L160.876 75.1868Z" fill="#20A2DC"/>
<path d="M129.584 15.6711L128.447 16.2407L130.058 18.329H127.594V19.3731L130.058 18.8985L128.447 21.2716L129.584 21.8411L130.532 19.3731L131.669 21.8411L132.806 21.0817L131.195 18.8985L133.849 19.3731V18.329H131.195L132.806 16.2407L131.954 15.6711L130.532 17.9493L129.584 15.6711Z" fill="#20A2DC"/>
<path d="M90.8389 19.4718L90.3219 19.7522L91.0542 20.7803H89.9342V21.2943L91.0542 21.0607L90.3219 22.2289L90.8389 22.5093L91.2696 21.2943L91.7866 22.5093L92.3035 22.1355L91.5712 21.0607L92.7774 21.2943V20.7803H91.5712L92.3035 19.7522L91.9158 19.4718L91.2696 20.5933L90.8389 19.4718Z" fill="#20A2DC"/>
<path fill-rule="evenodd" clip-rule="evenodd" d="M21.0666 20.8984C22.3228 20.8984 23.3411 19.8785 23.3411 18.6203C23.3411 17.3621 22.3228 16.3422 21.0666 16.3422C19.8104 16.3422 18.7921 17.3621 18.7921 18.6203C18.7921 19.8785 19.8104 20.8984 21.0666 20.8984ZM21.0367 19.3397C21.4499 19.3397 21.7849 19.0042 21.7849 18.5903C21.7849 18.1765 21.4499 17.8409 21.0367 17.8409C20.6235 17.8409 20.2885 18.1765 20.2885 18.5903C20.2885 19.0042 20.6235 19.3397 21.0367 19.3397Z" fill="#516678"/>
<path fill-rule="evenodd" clip-rule="evenodd" d="M12.8731 64.2501C14.1293 64.2501 15.1477 63.2301 15.1477 61.9719C15.1477 60.7137 14.1293 59.6938 12.8731 59.6938C11.6169 59.6938 10.5986 60.7137 10.5986 61.9719C10.5986 63.2301 11.6169 64.2501 12.8731 64.2501ZM12.8432 62.6913C13.2564 62.6913 13.5914 62.3558 13.5914 61.9419C13.5914 61.5281 13.2564 61.1925 12.8432 61.1925C12.4299 61.1925 12.095 61.5281 12.095 61.9419C12.095 62.3558 12.4299 62.6913 12.8432 62.6913Z" fill="#516678"/>
<path fill-rule="evenodd" clip-rule="evenodd" d="M65.4521 24.0083C67.6652 24.0083 69.4592 22.2114 69.4592 19.9948C69.4592 17.7783 67.6652 15.9814 65.4521 15.9814C63.2391 15.9814 61.445 17.7783 61.445 19.9948C61.445 22.2114 63.2391 24.0083 65.4521 24.0083ZM65.3993 21.2621C66.1273 21.2621 66.7174 20.6711 66.7174 19.9419C66.7174 19.2128 66.1273 18.6217 65.3993 18.6217C64.6713 18.6217 64.0812 19.2128 64.0812 19.9419C64.0812 20.6711 64.6713 21.2621 65.3993 21.2621Z" fill="#516678"/>
<path fill-rule="evenodd" clip-rule="evenodd" d="M146.179 64.7272C147.501 64.7272 148.572 63.6541 148.572 62.3304C148.572 61.0067 147.501 59.9336 146.179 59.9336C144.858 59.9336 143.786 61.0067 143.786 62.3304C143.786 63.6541 144.858 64.7272 146.179 64.7272ZM146.148 63.087C146.583 63.087 146.935 62.7341 146.935 62.2986C146.935 61.8632 146.583 61.5102 146.148 61.5102C145.713 61.5102 145.361 61.8632 145.361 62.2986C145.361 62.7341 145.713 63.087 146.148 63.087Z" fill="#516678"/>
<path fill-rule="evenodd" clip-rule="evenodd" d="M159.563 44.4723C160.884 44.4723 161.956 43.3992 161.956 42.0755C161.956 40.7518 160.884 39.6787 159.563 39.6787C158.241 39.6787 157.17 40.7518 157.17 42.0755C157.17 43.3992 158.241 44.4723 159.563 44.4723ZM159.531 42.8321C159.966 42.8321 160.318 42.4792 160.318 42.0437C160.318 41.6083 159.966 41.2553 159.531 41.2553C159.096 41.2553 158.744 41.6083 158.744 42.0437C158.744 42.4792 159.096 42.8321 159.531 42.8321Z" fill="#516678"/>
<path fill-rule="evenodd" clip-rule="evenodd" d="M57.3422 124.195H73.6045C74.2616 124.195 75.4114 124.688 75.4114 126.002V142.1C75.4114 142.839 75.0829 144.236 73.4402 144.236H57.3422C56.4388 144.236 55.371 143.579 55.371 142.429V126.002C55.3711 125.396 55.946 124.195 57.3422 124.195ZM71.4691 128.138H59.3134V140.293H71.4691V128.138Z" fill="#516678"/>
<path d="M61.286 134.77C61.2467 133.914 62.0562 133.602 62.4658 133.554C62.6625 133.53 62.8592 133.554 63.1541 133.748L64.6289 134.819L67.7261 130.878C68.2177 130.44 69.0043 130.586 69.3484 130.878C69.7908 131.316 69.6925 132.046 69.4959 132.337L65.5138 137.494C64.8059 137.845 64.2357 137.575 64.039 137.397L61.6793 135.646C61.3352 135.354 61.2949 134.965 61.286 134.77Z" fill="#20A2DC"/>
<path fill-rule="evenodd" clip-rule="evenodd" d="M65.3912 37.3809C65.3912 35.4097 67.6088 32.0423 70.5656 32.0423H107.607C109.579 32.0423 113.439 33.2743 113.439 37.3809V45.5121C113.439 46.7441 113.357 48.0582 111.221 48.0582H67.691C66.9244 48.0582 65.3912 47.7132 65.3912 46.3334V37.3809ZM71.1405 35.9848C69.7442 35.9848 69.3335 37.1346 69.3336 37.9559V44.0338H109.414V37.7917C109.414 36.6418 108.511 35.9848 107.772 35.9848H71.1405Z" fill="#516678"/>
<path d="M61.2846 43.0481V39.1057H51.1001C46.5007 39.1057 45.3508 43.0481 45.3508 45.0193V62.7599C45.7451 61.8401 48.1433 59.5841 49.2932 58.6533C49.2658 54.5193 49.2275 46.0213 49.2932 44.7729C49.3589 43.5245 50.5526 43.0755 51.1001 43.0481H61.2846Z" fill="#516678"/>
<path d="M117.463 43.0481V39.1057H127.812C131.689 39.1057 133.397 42.8838 133.397 44.6907V154.749C133.397 156.391 132.576 157.623 131.837 157.623H46.8292C45.7615 157.623 45.3508 155.488 45.3508 154.42V105.715C45.4822 106.175 48.0338 108.481 49.2932 109.576V154.42C49.2932 155.8 50.6073 156.2 51.2644 156.227H127.484C128.929 156.227 129.455 154.749 129.455 154.009V45.0193C129.455 43.7051 128.387 43.0481 127.648 43.0481H117.463Z" fill="#516678"/>
<path d="M98.0801 103.334L94.7948 99.8018L92.0022 102.759L95.2054 105.962L92.0022 109.165L88.7169 105.798L85.3495 108.261L89.0455 111.957L87.5671 113.436C86.9921 113.929 87.1564 114.914 87.5671 115.325L114.425 141.854C116.806 143.414 118.367 139.965 116.971 138.815L92.3308 114.421L100.133 106.947L110.646 117.378C112.125 118.61 114.507 115.982 113.439 114.668L101.119 102.348C100.626 101.773 99.5585 101.937 99.1478 102.348L98.0801 103.334Z" fill="#516678"/>
<path fill-rule="evenodd" clip-rule="evenodd" d="M70.5656 113.354C86.6686 113.354 99.7227 100.3 99.7227 84.1966C99.7227 68.0935 86.6686 55.0394 70.5656 55.0394C54.4625 55.0394 41.4084 68.0935 41.4084 84.1966C41.4084 100.3 54.4625 113.354 70.5656 113.354ZM70.5655 109.247C84.4006 109.247 95.616 98.0315 95.616 84.1965C95.616 70.3615 84.4006 59.146 70.5655 59.146C56.7305 59.146 45.5151 70.3615 45.5151 84.1965C45.5151 98.0315 56.7305 109.247 70.5655 109.247Z" fill="#516678"/>
<path d="M80.9551 73.7896L72.0588 84.7888C69.0896 88.46 63.6584 88.9138 60.121 85.7865C59.0348 84.8262 57.4629 83.7688 56.3668 84.7179C55.603 85.3793 55.4928 86.5457 55.547 86.9792C55.6237 87.5926 63.8584 94.5806 65.6027 96.0547C65.8211 96.2392 66.0163 96.4464 66.2679 96.5822C66.8534 96.898 67.604 96.7917 68.0692 96.3266C68.5261 95.8697 79.887 81.6841 84.1453 76.3631C85.1845 75.0645 86.1998 72.5548 84.6967 71.8428C83.1886 71.1285 82.0045 72.4921 80.9551 73.7896Z" fill="#20A2DC"/>
<path d="M103.172 80.0899C103.238 78.5787 102.707 76.832 102.433 76.1475H117.71C118.367 76.1475 119.435 76.7882 119.435 78.0366C119.435 79.285 118.367 80.0899 117.71 80.0899H103.172Z" fill="#516678"/>
<path d="M103.172 88.0568C103.337 86.6605 103.419 84.9357 103.337 84.1144H117.628C118.285 84.1144 119.352 84.755 119.352 86.0034C119.352 87.2519 118.285 88.0568 117.628 88.0568H103.172Z" fill="#20A2DC"/>
<path d="M98.7371 132.244C97.0123 130.355 96.191 129.862 94.959 128.302H85.1852C84.5282 128.302 83.4604 128.942 83.4604 130.191C83.4604 131.439 84.5282 132.244 85.1852 132.244H98.7371Z" fill="#516678"/>
<path d="M106.786 140.129C105.061 138.24 104.24 137.747 103.008 136.187H85.1852C84.5281 136.187 83.4604 136.827 83.4604 138.076C83.4604 139.324 84.5281 140.129 85.1852 140.129H106.786Z" fill="#20A2DC"/>
<circle cx="117.381" cy="121.156" r="2.05332" fill="#20A2DC"/>
<rect x="15.912" y="156.268" width="143.033" height="4.26364" rx="2.13182" fill="#516678"/>
<rect x="161.158" y="156.268" width="7.15163" height="4.26364" rx="2.13182" fill="#20A2DC"/>
<rect x="6.71698" y="156.268" width="7.15163" height="4.26364" rx="2.13182" fill="#20A2DC"/>
<rect x="64.4409" y="164.454" width="45.6342" height="4.26364" rx="2.13182" fill="#20A2DC"/>
<rect x="72.7845" y="170.764" width="30.139" height="4.26364" rx="2.13182" fill="#20A2DC"/>
<rect x="83.1713" y="167.353" width="8.68413" height="4.26364" fill="#20A2DC"/>
<rect x="112.118" y="164.454" width="12.6005" height="4.26364" rx="2.13182" fill="#20A2DC"/>
<rect x="49.7971" y="164.454" width="12.6005" height="4.26364" rx="2.13182" fill="#20A2DC"/>
<rect x="170.353" y="156.268" width="4.25692" height="4.26364" rx="2.12846" fill="#20A2DC"/>
<rect x="0.24646" y="156.268" width="4.25692" height="4.26364" rx="2.12846" fill="#20A2DC"/>
</svg>
