<svg width="175" height="176" viewBox="0 0 175 176" fill="none" xmlns="http://www.w3.org/2000/svg">
<path d="M12.5888 42.1479L11.4515 42.7175L13.0627 44.8058H10.5986V45.8499L13.0627 45.3753L11.4515 47.7484L12.5888 48.3179L13.5365 45.8499L14.6738 48.3179L15.8111 47.5585L14.1999 45.3753L16.8536 45.8499V44.8058H14.1999L15.8111 42.7175L14.9581 42.1479L13.5365 44.4261L12.5888 42.1479Z" fill="#20A2DC"/>
<path d="M26.3916 11.3381L25.2544 11.9077L26.8655 13.996H24.4014V15.0401L26.8655 14.5655L25.2544 16.9386L26.3916 17.5081L27.3394 15.0401L28.4766 17.5081L29.6139 16.7487L28.0028 14.5655L30.6564 15.0401V13.996H28.0028L29.6139 11.9077L28.7609 11.3381L27.3394 13.6163L26.3916 11.3381Z" fill="#20A2DC"/>
<path d="M135.335 12.8169L134.198 13.3864L135.809 15.4747H133.345V16.5189L135.809 16.0443L134.198 18.4173L135.335 18.9868L136.283 16.5189L137.42 18.9868L138.558 18.2275L136.946 16.0443L139.6 16.5189V15.4747H136.946L138.558 13.3864L137.705 12.8169L136.283 15.095L135.335 12.8169Z" fill="#20A2DC"/>
<path d="M148.399 39.9297L147.261 40.4992L148.872 42.5875H146.408V43.6317L148.872 43.157L147.261 45.5301L148.399 46.0996L149.346 43.6317L150.484 46.0996L151.621 45.3403L150.01 43.157L152.663 43.6317V42.5875H150.01L151.621 40.4992L150.768 39.9297L149.346 42.2078L148.399 39.9297Z" fill="#20A2DC"/>
<path d="M83.7215 8.38037L83.2046 8.66076L83.9369 9.68884H82.8169V10.2029L83.9369 9.96922L83.2046 11.1375L83.7215 11.4179L84.1523 10.2029L84.6693 11.4179L85.1862 11.044L84.4539 9.96922L85.6601 10.2029V9.68884H84.4539L85.1862 8.66076L84.7985 8.38037L84.1523 9.50191L83.7215 8.38037Z" fill="#20A2DC"/>
<path fill-rule="evenodd" clip-rule="evenodd" d="M28.4013 42.2677C29.6575 42.2677 30.6758 41.2477 30.6758 39.9896C30.6758 38.7314 29.6575 37.7114 28.4013 37.7114C27.1451 37.7114 26.1267 38.7314 26.1267 39.9896C26.1267 41.2477 27.1451 42.2677 28.4013 42.2677ZM28.3713 40.709C28.7846 40.709 29.1195 40.3735 29.1195 39.9596C29.1195 39.5457 28.7846 39.2102 28.3713 39.2102C27.9581 39.2102 27.6231 39.5457 27.6231 39.9596C27.6231 40.3735 27.9581 40.709 28.3713 40.709Z" fill="#516678"/>
<path fill-rule="evenodd" clip-rule="evenodd" d="M13.859 77.0211C15.1152 77.0211 16.1336 76.0012 16.1336 74.743C16.1336 73.4848 15.1152 72.4648 13.859 72.4648C12.6029 72.4648 11.5845 73.4848 11.5845 74.743C11.5845 76.0012 12.6029 77.0211 13.859 77.0211ZM13.8291 75.4624C14.2423 75.4624 14.5773 75.1269 14.5773 74.713C14.5773 74.2991 14.2423 73.9636 13.8291 73.9636C13.4159 73.9636 13.0809 74.2991 13.0809 74.713C13.0809 75.1269 13.4159 75.4624 13.8291 75.4624Z" fill="#516678"/>
<path fill-rule="evenodd" clip-rule="evenodd" d="M68.5845 20.1045C70.7976 20.1045 72.5916 18.3076 72.5916 16.0911C72.5916 13.8745 70.7976 12.0776 68.5845 12.0776C66.3715 12.0776 64.5774 13.8745 64.5774 16.0911C64.5774 18.3076 66.3715 20.1045 68.5845 20.1045ZM68.6068 17.4293C69.3348 17.4293 69.925 16.8382 69.925 16.1091C69.925 15.38 69.3348 14.7889 68.6068 14.7889C67.8788 14.7889 67.2887 15.38 67.2887 16.1091C67.2887 16.8382 67.8788 17.4293 68.6068 17.4293Z" fill="#516678"/>
<path fill-rule="evenodd" clip-rule="evenodd" d="M152.992 73.0682C154.313 73.0682 155.385 71.9952 155.385 70.6714C155.385 69.3477 154.313 68.2747 152.992 68.2747C151.67 68.2747 150.599 69.3477 150.599 70.6714C150.599 71.9952 151.67 73.0682 152.992 73.0682ZM152.96 71.4281C153.395 71.4281 153.747 71.0751 153.747 70.6397C153.747 70.2043 153.395 69.8513 152.96 69.8513C152.525 69.8513 152.173 70.2043 152.173 70.6397C152.173 71.0751 152.525 71.4281 152.96 71.4281Z" fill="#516678"/>
<path fill-rule="evenodd" clip-rule="evenodd" d="M105.668 27.4698C106.989 27.4698 108.061 26.3968 108.061 25.0731C108.061 23.7493 106.989 22.6763 105.668 22.6763C104.346 22.6763 103.275 23.7493 103.275 25.0731C103.275 26.3968 104.346 27.4698 105.668 27.4698ZM105.636 25.8297C106.071 25.8297 106.423 25.4767 106.423 25.0413C106.423 24.6058 106.071 24.2529 105.636 24.2529C105.201 24.2529 104.849 24.6058 104.849 25.0413C104.849 25.4767 105.201 25.8297 105.636 25.8297Z" fill="#516678"/>
<path d="M85.092 66.5816C85.2492 66.5814 85.4064 66.5813 85.5684 66.5812C85.8986 66.5811 86.2289 66.5813 86.5591 66.5819C87.0568 66.5825 87.5545 66.5819 88.0523 66.5811C90.5529 66.5802 93.0111 66.6579 95.4919 66.9773C95.5944 66.9903 95.6968 67.0033 95.8024 67.0167C97.5821 67.2464 99.3396 67.5641 101.097 67.9247C101.212 67.948 101.327 67.9714 101.445 67.9955C102.977 68.3104 104.483 68.6838 105.984 69.1247C106.085 69.1539 106.185 69.1832 106.289 69.2134C107.862 69.6729 109.422 70.1676 110.974 70.6957C111.084 70.7333 111.194 70.7708 111.308 70.8094C117.244 72.8399 122.994 75.5486 128.375 78.7703C128.707 78.969 129.04 79.1661 129.373 79.3628C133.312 81.6972 133.312 81.6972 135.077 83.0225C135.509 83.3408 135.952 83.6414 136.395 83.9432C138.772 85.5686 141.054 87.3264 143.279 89.1541C143.475 89.3147 143.672 89.4741 143.869 89.6334C147.929 92.9202 147.929 92.9202 148.092 94.4132C148.14 95.5607 147.954 96.3785 147.226 97.2746C146.702 97.8282 146.091 98.2926 145.498 98.7697C145.166 99.042 144.85 99.324 144.534 99.6144C143.839 100.246 143.104 100.82 142.361 101.394C142.099 101.598 141.837 101.802 141.576 102.008C138.615 104.331 135.559 106.514 132.384 108.536C132.212 108.646 132.212 108.646 132.035 108.759C129.028 110.679 125.942 112.425 122.762 114.039C122.467 114.188 122.173 114.34 121.88 114.492C116.302 117.373 110.328 119.584 104.233 121.07C103.913 121.149 103.594 121.23 103.276 121.315C100.695 121.996 98.0752 122.452 95.4287 122.786C95.3258 122.799 95.2228 122.812 95.1167 122.826C92.5939 123.147 90.076 123.212 87.5348 123.212C87.1251 123.212 86.7153 123.214 86.3056 123.217C84.474 123.222 82.6687 123.125 80.847 122.936C80.7436 122.925 80.6401 122.914 80.5335 122.903C79.8736 122.834 79.2154 122.754 78.5575 122.667C78.4575 122.654 78.3575 122.641 78.2544 122.627C67.6443 121.209 57.3874 117.224 40.9149 107.561C40.6476 107.378 40.3792 107.196 40.1108 107.015C36.9562 104.876 33.861 102.628 30.9627 100.15C30.6037 99.8441 30.2378 99.5472 29.8702 99.2513C26.82 96.7585 26.82 96.7585 26.6255 95.1351C26.572 94.1828 26.8964 93.3935 27.4228 92.6117C27.8367 92.1599 28.3313 91.7916 28.8089 91.4103C29.1802 91.1064 29.5336 90.7898 29.886 90.4644C30.4038 89.9889 30.933 89.5396 31.4857 89.1055C31.7472 88.9 32.0068 88.6929 32.2653 88.4837C34.8856 86.3662 37.6195 84.4012 40.4256 82.538C40.5323 82.467 40.639 82.396 40.749 82.3228C44.3172 79.9514 47.9813 77.7764 51.7941 75.8195C51.8976 75.766 52.001 75.7126 52.1076 75.6575C60.5024 71.3329 69.839 68.0101 79.2696 67.0116C79.5656 66.9793 79.8606 66.9427 80.1557 66.9038C80.2442 66.8921 80.3327 66.8804 80.4238 66.8684C80.5473 66.8519 80.5473 66.8519 80.6733 66.8352C82.1413 66.6401 83.6122 66.579 85.092 66.5816Z" fill="#FEFEFE"/>
<path d="M49.2678 79.7354C49.5394 80.007 49.5768 80.1169 49.6709 80.4775C49.6984 80.5793 49.7258 80.6812 49.7541 80.7862C49.7838 80.8979 49.8135 81.0097 49.8441 81.1248C50.8524 84.7622 52.2033 88.3214 54.0678 91.6092C54.132 91.7225 54.1962 91.8359 54.2623 91.9526C55.0476 93.3292 55.857 94.6738 56.811 95.9404C56.9863 96.1742 57.1584 96.4102 57.3303 96.6465C58.1511 97.7673 59.0236 98.8289 59.9477 99.8658C60.1099 100.049 60.2699 100.233 60.4295 100.418C61.1389 101.231 61.9159 101.955 62.7168 102.676C62.8863 102.83 63.0535 102.986 63.2204 103.142C69.8473 109.307 79.168 112.852 88.2109 112.61C96.4261 112.279 104.246 109.312 110.532 103.988C110.648 103.895 110.764 103.803 110.883 103.707C111.841 102.929 112.721 102.079 113.595 101.209C113.711 101.094 113.828 100.978 113.948 100.86C114.715 100.089 115.413 99.2819 116.089 98.4303C116.247 98.238 116.405 98.0459 116.563 97.854C120.116 93.3697 122.688 88.2931 124.442 82.8617C124.487 82.7242 124.487 82.7242 124.532 82.584C124.834 81.6427 125.119 80.7065 125.311 79.7354C125.85 79.8986 126.307 80.1048 126.791 80.3926C126.928 80.4739 127.065 80.5551 127.206 80.6388C127.354 80.7271 127.501 80.8154 127.647 80.9038C127.801 80.9953 127.954 81.0868 128.107 81.1783C131.274 83.0762 134.338 85.1246 137.311 87.3144C137.464 87.4267 137.464 87.4267 137.62 87.5413C139.034 88.5828 140.41 89.6597 141.756 90.7874C142.069 91.0485 142.386 91.3051 142.703 91.5618C143.238 92.0001 143.769 92.4419 144.298 92.8881C144.37 92.9486 144.443 93.0091 144.518 93.0715C145.874 94.2248 145.874 94.2248 145.94 94.9487C145.566 95.9624 144.713 96.5782 143.889 97.2332C143.464 97.5754 143.052 97.9304 142.64 98.2882C141.838 98.9802 141.014 99.6396 140.176 100.287C139.973 100.444 139.77 100.603 139.567 100.761C138.503 101.589 137.413 102.379 136.316 103.164C136.078 103.335 135.84 103.507 135.602 103.68C130.405 107.448 124.786 110.715 118.967 113.425C118.653 113.571 118.339 113.719 118.026 113.868C108.289 118.427 97.323 121.215 74.1127 119.652C74.01 119.631 73.9072 119.611 73.8013 119.59C72.4263 119.315 71.0773 118.977 69.7303 118.587C69.3746 118.485 69.0179 118.385 68.6614 118.285C61.4863 116.226 54.5772 113.173 48.1309 109.42C48.015 109.353 47.8992 109.286 47.7798 109.217C32.0685 100.111 32.0685 100.111 28.9307 95.2723C28.8778 94.8578 28.8984 94.5933 29.057 94.2065C29.4243 93.736 29.8627 93.3796 30.3202 92.9986C30.503 92.8427 30.6858 92.6868 30.8685 92.5308C31.2316 92.2218 31.597 91.9156 31.9623 91.6092C32.0828 91.5077 32.0828 91.5077 32.2057 91.4042C33.5479 90.276 34.929 89.2105 36.3381 88.1674C36.6121 87.9637 36.8847 87.7583 37.1566 87.5517C40.9433 84.6764 45.0074 81.8655 49.2678 79.7354Z" fill="#FEFEFE"/>
<path d="M85.092 66.5816C85.2492 66.5814 85.4064 66.5813 85.5684 66.5812C85.8986 66.5811 86.2289 66.5813 86.5591 66.5819C87.0568 66.5825 87.5545 66.5819 88.0523 66.5811C90.5529 66.5802 93.0111 66.6579 95.4919 66.9773C95.5944 66.9903 95.6968 67.0033 95.8024 67.0167C97.5821 67.2464 99.3396 67.5641 101.097 67.9247C101.212 67.948 101.327 67.9714 101.445 67.9955C102.977 68.3104 104.483 68.6838 105.984 69.1247C106.085 69.1539 106.185 69.1832 106.289 69.2134C107.862 69.6729 109.422 70.1676 110.974 70.6957C111.084 70.7333 111.194 70.7708 111.308 70.8094C117.244 72.8399 122.994 75.5486 128.375 78.7703C128.707 78.969 129.04 79.1661 129.373 79.3628C133.312 81.6972 133.312 81.6972 135.077 83.0225C135.509 83.3408 135.952 83.6414 136.395 83.9432C138.772 85.5686 141.054 87.3264 143.279 89.1541C143.475 89.3147 143.672 89.4741 143.869 89.6334C147.929 92.9202 147.929 92.9202 148.092 94.4132C148.14 95.5607 147.954 96.3785 147.226 97.2746C146.702 97.8282 146.091 98.2926 145.498 98.7697C145.166 99.042 144.85 99.324 144.534 99.6144C143.839 100.246 143.104 100.82 142.361 101.394C142.099 101.598 141.837 101.802 141.576 102.008C138.615 104.331 135.559 106.514 132.384 108.536C132.212 108.646 132.212 108.646 132.035 108.759C129.028 110.679 125.942 112.425 122.762 114.039C122.467 114.188 122.173 114.34 121.88 114.492C116.302 117.373 110.328 119.584 104.233 121.07C103.913 121.149 103.594 121.23 103.276 121.315C100.695 121.996 98.0752 122.452 95.4287 122.786C95.3258 122.799 95.2228 122.812 95.1167 122.826C92.5939 123.147 90.076 123.212 87.5348 123.212C87.1251 123.212 86.7153 123.214 86.3056 123.217C84.474 123.222 82.6687 123.125 80.847 122.936C80.7436 122.925 80.6401 122.914 80.5335 122.903C79.8736 122.834 79.2154 122.754 78.5575 122.667C78.4575 122.654 78.3575 122.641 78.2544 122.627C67.6443 121.209 57.3874 117.224 40.9149 107.561C40.6476 107.378 40.3792 107.196 40.1108 107.015C36.9562 104.876 33.861 102.628 30.9627 100.15C30.6037 99.8441 30.2378 99.5472 29.8702 99.2513C26.82 96.7585 26.82 96.7585 26.6255 95.1351C26.572 94.1828 26.8964 93.3935 27.4228 92.6117C27.8367 92.1599 28.3313 91.7916 28.8089 91.4103C29.1802 91.1064 29.5336 90.7898 29.886 90.4644C30.4038 89.9889 30.933 89.5396 31.4857 89.1055C31.7472 88.9 32.0068 88.6929 32.2653 88.4837C34.8856 86.3662 37.6195 84.4012 40.4256 82.538C40.5323 82.467 40.639 82.396 40.749 82.3228C44.3172 79.9514 47.9813 77.7764 51.7941 75.8195C51.8976 75.766 52.001 75.7126 52.1076 75.6575C60.5024 71.3329 69.839 68.0101 79.2696 67.0116C79.5656 66.9793 79.8606 66.9427 80.1557 66.9038C80.2442 66.8921 80.3327 66.8804 80.4238 66.8684C80.5473 66.8519 80.5473 66.8519 80.6733 66.8352C82.1413 66.6401 83.6122 66.579 85.092 66.5816ZM82.1834 68.9557C81.8754 68.9848 81.5672 69.012 81.2589 69.0375C73.3761 69.6983 65.5811 72.0038 58.3626 75.1879C58.2748 75.2266 58.187 75.2652 58.0965 75.3051C55.818 76.3102 53.5661 77.3373 51.4152 78.5984C51.7404 80.0867 52.1436 81.5291 52.631 82.9722C52.664 83.0706 52.697 83.1691 52.731 83.2705C53.2979 84.9558 53.9351 86.5918 54.6994 88.1985C54.7491 88.3051 54.7989 88.4116 54.8501 88.5214C56.5471 92.1403 58.8615 95.3442 61.4709 98.3534C61.6256 98.532 61.7794 98.7115 61.933 98.8911C62.3915 99.4199 62.8654 99.89 63.4 100.341C63.707 100.612 63.99 100.9 64.2758 101.193C66.0651 102.994 68.2268 104.446 70.3957 105.75C70.588 105.866 70.7778 105.987 70.9672 106.108C77.8152 110.375 86.7136 111.357 94.4893 109.672C100.155 108.352 105.338 105.778 109.692 101.898C109.837 101.77 109.983 101.643 110.131 101.517C110.839 100.907 111.505 100.26 112.166 99.5987C112.278 99.4866 112.39 99.3746 112.505 99.2592C113.247 98.5103 113.935 97.7535 114.574 96.9144C114.734 96.7196 114.895 96.5249 115.055 96.3302C119.139 91.1836 121.993 85.0063 123.416 78.5984C119.27 76.3612 114.993 74.4515 110.536 72.9198C110.276 72.8303 110.016 72.7398 109.756 72.6485C100.999 69.5698 91.4527 68.071 82.1834 68.9557ZM37.6466 87.188C37.5605 87.2517 37.4744 87.3154 37.3857 87.3811C35.0854 89.0839 32.8648 90.875 30.6992 92.746C30.5953 92.8354 30.4914 92.9247 30.3844 93.0168C29.4045 93.7844 29.4045 93.7844 28.8676 94.846C29.0711 96.22 31.0535 97.4117 32.0679 98.2319C32.3682 98.4747 32.6655 98.7207 32.962 98.9681C34.1591 99.9652 35.378 100.922 36.6361 101.841C36.7268 101.907 36.8175 101.973 36.9109 102.042C37.4822 102.458 38.0555 102.871 38.6303 103.283C38.8112 103.412 38.992 103.542 39.1725 103.672C43.7992 107.005 48.7222 109.896 53.8152 112.451C53.9536 112.521 54.092 112.591 54.2346 112.663C60.2525 115.682 66.5796 117.912 73.1417 119.399C73.2711 119.429 73.4005 119.458 73.5338 119.489C85.1478 122.135 97.1254 121.186 119.091 113.348C119.405 113.194 119.721 113.046 120.037 112.898C124.745 110.699 129.224 108.042 133.521 105.125C133.601 105.071 133.68 105.017 133.762 104.962C136.573 103.056 139.266 101.015 141.892 98.8622C142.087 98.7025 142.283 98.5438 142.479 98.3853C143.161 97.8329 143.834 97.27 144.503 96.7013C144.584 96.6337 144.664 96.5661 144.748 96.4965C145.227 96.0851 145.591 95.6995 145.9 95.146C145.935 94.6724 145.881 94.3997 145.587 94.021C145.025 93.438 144.391 92.9351 143.76 92.4287C143.256 92.0187 142.765 91.5948 142.275 91.1686C140.804 89.8973 139.242 88.7351 137.69 87.567C137.601 87.4998 137.512 87.4326 137.42 87.3634C134.027 84.8187 130.412 82.5085 126.74 80.3906C126.568 80.2915 126.568 80.2915 126.393 80.1904C126.288 80.1306 126.183 80.0708 126.075 80.0092C125.936 79.9296 125.936 79.9296 125.793 79.8484C125.568 79.7167 125.568 79.7167 125.311 79.7353C125.281 79.8617 125.252 79.988 125.221 80.1182C123.716 86.303 120.926 92.2972 116.974 97.2934C116.886 97.406 116.799 97.5187 116.709 97.6348C116.464 97.9458 116.215 98.2516 115.963 98.5565C115.864 98.6793 115.765 98.8021 115.662 98.9286C114.845 99.9218 113.957 100.843 113.05 101.754C112.935 101.87 112.82 101.986 112.702 102.106C111.933 102.871 111.13 103.569 110.279 104.241C110.203 104.302 110.127 104.363 110.048 104.425C104.096 109.167 96.612 112.386 88.9313 112.578C88.8279 112.582 88.7244 112.586 88.6179 112.59C79.9342 112.897 71.1965 109.829 64.5521 104.241C64.4829 104.183 64.4137 104.125 64.3424 104.065C63.568 103.415 62.798 102.767 62.0964 102.038C61.8801 101.821 61.6518 101.627 61.4179 101.43C58.3945 98.8154 56.015 95.0651 54.0678 91.6091C54.0074 91.5023 53.947 91.3956 53.8848 91.2856C51.8472 87.6479 50.5716 83.7155 49.3941 79.7353C46.2384 79.7353 40.2184 85.2735 37.6466 87.188Z" fill="#516678"/>
<path d="M90.8261 73.9247C90.9391 73.9506 91.0521 73.9765 91.1685 74.0032C94.9057 75.0026 98.0432 77.57 99.9688 80.8771C100.632 82.0524 101.111 83.2268 101.437 84.5353C101.477 84.6931 101.517 84.8509 101.559 85.0135C102.343 88.5688 101.648 92.2993 99.7946 95.4144C99.3326 96.12 98.8249 96.7775 98.2788 97.4197C98.2042 97.5126 98.1296 97.6056 98.0528 97.7014C96.3693 99.7252 93.9445 101.069 91.4577 101.841C91.3742 101.867 91.2907 101.894 91.2047 101.921C87.5494 103.037 83.7237 102.324 80.397 100.617C77.2111 98.9101 74.8495 95.9309 73.6628 92.5407C73.5693 92.2313 73.4797 91.9208 73.3943 91.6091C73.334 91.3993 73.334 91.3993 73.2725 91.1852C72.3897 87.585 73.1307 83.6182 75.0204 80.4647C75.4399 79.8042 75.9273 79.2 76.426 78.5984C76.5061 78.4975 76.5862 78.3965 76.6687 78.2925C80.0454 74.2231 85.8091 72.7698 90.8261 73.9247Z" fill="#20A2DC"/>
<path d="M90.8261 73.9247C90.9391 73.9506 91.0521 73.9765 91.1685 74.0032C94.9057 75.0026 98.0432 77.57 99.9688 80.8771C100.632 82.0524 101.111 83.2268 101.437 84.5353C101.477 84.6931 101.517 84.8509 101.559 85.0135C102.343 88.5688 101.648 92.2993 99.7946 95.4144C99.3326 96.12 98.8249 96.7775 98.2788 97.4197C98.2042 97.5126 98.1296 97.6056 98.0528 97.7014C96.3693 99.7252 93.9445 101.069 91.4577 101.841C91.3742 101.867 91.2907 101.894 91.2047 101.921C87.5494 103.037 83.7237 102.324 80.397 100.617C77.2111 98.9101 74.8495 95.9309 73.6628 92.5407C73.5693 92.2313 73.4797 91.9208 73.3943 91.6091C73.334 91.3993 73.334 91.3993 73.2725 91.1852C72.3897 87.585 73.1307 83.6182 75.0204 80.4647C75.4399 79.8042 75.9273 79.2 76.426 78.5984C76.5061 78.4975 76.5862 78.3965 76.6687 78.2925C80.0454 74.2231 85.8091 72.7698 90.8261 73.9247ZM78.1386 79.9331C75.9391 82.5458 74.9199 85.9476 75.1934 89.3354C75.5745 92.4468 77.1836 95.4039 79.5839 97.4197C81.6343 99.0103 84.1606 100.136 86.7839 100.199C86.9043 100.206 87.0246 100.214 87.1486 100.222C90.3172 100.35 93.416 98.9812 95.7436 96.903C97.943 94.8621 99.447 91.8202 99.5775 88.8044C99.6724 85.0216 98.4811 81.924 95.8709 79.1669C94.0594 77.3979 91.8842 76.479 89.4366 75.9458C89.2896 75.9089 89.2896 75.9089 89.1396 75.8713C84.9839 75.2277 80.9726 76.9541 78.1386 79.9331Z" fill="#516678"/>
<path d="M87.3523 37.7112C87.8971 37.8182 88.0812 38.0037 88.426 38.4296C88.6329 38.8433 88.5721 39.3013 88.5727 39.7561C88.5733 39.8672 88.574 39.9784 88.5746 40.0929C88.5765 40.4617 88.5773 40.8304 88.578 41.1992C88.5787 41.4551 88.5795 41.7109 88.5802 41.9667C88.5815 42.5037 88.5823 43.0407 88.5827 43.5777C88.5834 44.2659 88.5864 44.954 88.59 45.6421C88.5924 46.1708 88.593 46.6995 88.5932 47.2282C88.5936 47.4819 88.5946 47.7356 88.5963 47.9892C88.5984 48.3443 88.5982 48.6992 88.5974 49.0542C88.5985 49.159 88.5997 49.2638 88.6009 49.3718C88.5967 49.9564 88.5477 50.3311 88.1734 50.8087C87.8523 51.0523 87.6955 51.0625 87.2892 51.0455C86.8574 50.9196 86.6869 50.7743 86.405 50.4297C86.197 50.0138 86.2566 49.551 86.2543 49.0937C86.2533 48.9815 86.2522 48.8693 86.2512 48.7538C86.248 48.3815 86.2459 48.0092 86.2441 47.6369C86.2434 47.5099 86.2428 47.3829 86.2421 47.252C86.2387 46.5795 86.2363 45.907 86.2344 45.2346C86.2323 44.5399 86.2267 43.8453 86.2202 43.1507C86.216 42.6167 86.2145 42.0827 86.2138 41.5486C86.213 41.2926 86.211 41.0366 86.208 40.7805C86.204 40.4219 86.204 40.0634 86.2049 39.7047C86.2029 39.5992 86.2008 39.4937 86.1987 39.3849C86.2042 38.866 86.2471 38.5271 86.5714 38.1106C86.9102 37.798 86.9102 37.798 87.3523 37.7112Z" fill="#516678"/>
<path d="M87.4155 138.891C87.4963 138.888 87.577 138.885 87.6602 138.882C88.0861 139.039 88.3306 139.354 88.5524 139.736C88.6409 140.118 88.6376 140.488 88.6321 140.879C88.633 140.991 88.6339 141.104 88.6348 141.22C88.6369 141.59 88.6345 141.96 88.6318 142.33C88.6319 142.588 88.6322 142.846 88.6327 143.104C88.6331 143.644 88.6312 144.184 88.6278 144.724C88.6235 145.415 88.6242 146.107 88.6266 146.799C88.6279 147.331 88.6268 147.864 88.6249 148.396C88.6242 148.651 88.6243 148.906 88.6251 149.161C88.6258 149.518 88.6232 149.874 88.6197 150.231C88.6206 150.336 88.6214 150.441 88.6222 150.549C88.6139 151.054 88.589 151.3 88.3113 151.735C87.965 152.067 87.8534 152.11 87.3681 152.154C86.9102 152.115 86.9102 152.115 86.6102 151.878C86.2122 151.358 86.2574 150.893 86.2543 150.26C86.2533 150.146 86.2522 150.033 86.2512 149.916C86.248 149.539 86.2459 149.162 86.2441 148.785C86.2434 148.656 86.2428 148.528 86.2421 148.395C86.2387 147.715 86.2363 147.034 86.2344 146.354C86.2323 145.65 86.2267 144.947 86.2202 144.243C86.216 143.703 86.2145 143.163 86.2138 142.622C86.213 142.363 86.211 142.104 86.208 141.844C86.204 141.481 86.204 141.119 86.2049 140.756C86.2029 140.649 86.2008 140.541 86.1987 140.431C86.2045 139.88 86.2275 139.674 86.5828 139.228C86.8972 138.988 87.0282 138.889 87.4155 138.891Z" fill="#516678"/>
<path d="M131.753 55.9878C132.069 56.1772 132.069 56.1772 132.258 56.493C132.348 56.9823 132.396 57.2964 132.115 57.7174C131.334 58.574 130.514 59.3921 129.694 60.211C129.531 60.3735 129.369 60.536 129.207 60.6985C128.868 61.0371 128.53 61.3754 128.191 61.7136C127.756 62.1475 127.322 62.582 126.888 63.0167C126.554 63.3515 126.219 63.6859 125.885 64.0203C125.724 64.1805 125.564 64.3408 125.404 64.5012C125.181 64.7243 124.958 64.947 124.735 65.1696C124.668 65.2361 124.602 65.3026 124.534 65.371C123.952 65.9493 123.952 65.9493 123.44 66.0063C122.925 65.9558 122.745 65.8501 122.405 65.4615C122.183 64.8758 122.183 64.8758 122.279 64.451C122.474 64.1793 122.474 64.1793 122.747 63.889C122.851 63.778 122.955 63.6671 123.062 63.5527C123.18 63.4308 123.298 63.3092 123.416 63.1878C123.477 63.1252 123.537 63.0627 123.6 62.9982C124.084 62.5018 124.575 62.0114 125.065 61.5215C125.222 61.3651 125.378 61.2086 125.534 61.0521C125.859 60.7269 126.185 60.402 126.51 60.0772C126.927 59.6606 127.344 59.2433 127.761 58.8259C128.082 58.504 128.404 58.1823 128.726 57.8607C128.88 57.7069 129.034 57.5529 129.188 57.3988C129.401 57.1848 129.615 56.9712 129.83 56.7577C129.893 56.694 129.957 56.6303 130.022 56.5647C130.572 56.0178 130.972 55.8813 131.753 55.9878Z" fill="#516678"/>
<path d="M43.8102 55.8959C44.1755 56.0164 44.3727 56.2015 44.654 56.4638C44.7651 56.5672 44.8761 56.6706 44.9905 56.7771C45.6543 57.4152 46.3082 58.0627 46.9586 58.7145C47.1091 58.8649 47.2596 59.0153 47.4101 59.1657C47.7229 59.4782 48.0354 59.791 48.3477 60.1039C48.7479 60.5048 49.1487 60.9052 49.5497 61.3054C49.8594 61.6147 50.1688 61.9243 50.4781 62.2339C50.6259 62.3818 50.7738 62.5295 50.9218 62.6772C51.1276 62.8827 51.333 63.0886 51.5383 63.2946C51.6551 63.4115 51.7719 63.5284 51.8923 63.6489C52.2806 64.0594 52.4186 64.2498 52.4731 64.8221C52.4615 65.1942 52.4355 65.32 52.2284 65.6431C51.7951 65.9209 51.5553 65.9928 51.0362 65.9668C50.8296 65.8302 50.8296 65.8302 50.6092 65.6283C50.5205 65.5471 50.4319 65.466 50.3405 65.3823C49.1346 64.2342 47.9539 63.0603 46.7723 61.8873C46.4197 61.5376 46.066 61.1891 45.7112 60.8417C45.2805 60.42 44.852 59.9962 44.4251 59.5708C44.2627 59.4097 44.0996 59.2494 43.9357 59.0899C43.7068 58.8669 43.4809 58.6412 43.2554 58.4147C43.1878 58.3501 43.1201 58.2854 43.0505 58.2188C42.5406 57.6973 42.4543 57.325 42.4467 56.6194C42.7899 56.0879 43.1592 55.8503 43.8102 55.8959Z" fill="#516678"/>
<path d="M123.921 124.073C124.905 124.785 125.745 125.752 126.601 126.609C126.761 126.769 126.92 126.928 127.08 127.088C127.413 127.42 127.745 127.753 128.077 128.086C128.503 128.513 128.93 128.939 129.357 129.366C129.686 129.694 130.015 130.023 130.343 130.352C130.501 130.509 130.658 130.666 130.816 130.824C131.035 131.043 131.254 131.262 131.473 131.481C131.538 131.546 131.603 131.611 131.67 131.678C132.1 132.11 132.248 132.279 132.298 132.899C132.29 133.272 132.266 133.406 132.069 133.736C131.711 133.95 131.426 134.021 131.008 133.996C130.693 133.912 130.55 133.801 130.309 133.581C130.221 133.501 130.133 133.42 130.043 133.337C128.856 132.208 127.695 131.053 126.532 129.9C126.186 129.556 125.838 129.214 125.49 128.873C125.066 128.458 124.645 128.042 124.226 127.624C124.066 127.466 123.906 127.308 123.745 127.151C123.52 126.932 123.298 126.711 123.076 126.488C122.976 126.393 122.976 126.393 122.875 126.296C122.37 125.779 122.283 125.404 122.279 124.704C122.788 124.058 123.123 123.836 123.921 124.073Z" fill="#516678"/>
<path d="M52.1731 124.199C52.4373 124.595 52.5038 124.844 52.4871 125.318C52.2446 126.386 50.6548 127.504 49.889 128.268C49.7294 128.428 49.5699 128.587 49.4103 128.747C49.0779 129.08 48.7453 129.412 48.4125 129.744C47.9854 130.171 47.559 130.598 47.1327 131.025C46.8043 131.354 46.4755 131.682 46.1467 132.011C45.9892 132.168 45.8318 132.325 45.6745 132.483C45.4557 132.702 45.2364 132.921 45.017 133.14C44.952 133.205 44.887 133.27 44.82 133.338C44.3879 133.767 44.2197 133.915 43.5993 133.965C43.2222 133.958 43.0977 133.938 42.7704 133.728C42.4926 133.295 42.4207 133.055 42.4467 132.536C43.1142 131.521 44.1739 130.659 45.0298 129.801C45.1509 129.679 45.1509 129.679 45.2746 129.555C45.7007 129.127 46.1272 128.699 46.554 128.272C46.9945 127.831 47.4337 127.388 47.8728 126.946C48.2114 126.605 48.5509 126.265 48.8907 125.925C49.0531 125.762 49.2152 125.599 49.377 125.435C49.6025 125.208 49.8291 124.981 50.0561 124.755C50.1226 124.687 50.1891 124.62 50.2576 124.55C50.9306 123.885 51.2884 123.871 52.1731 124.199Z" fill="#516678"/>
<rect x="15.912" y="156.268" width="143.033" height="4.26364" rx="2.13182" fill="#516678"/>
<rect x="161.158" y="156.268" width="7.15163" height="4.26364" rx="2.13182" fill="#20A2DC"/>
<rect x="6.71698" y="156.268" width="7.15163" height="4.26364" rx="2.13182" fill="#20A2DC"/>
<rect x="64.4409" y="164.454" width="45.6342" height="4.26364" rx="2.13182" fill="#20A2DC"/>
<rect x="72.7845" y="170.764" width="30.139" height="4.26364" rx="2.13182" fill="#20A2DC"/>
<rect x="83.1714" y="167.353" width="8.68413" height="4.26364" fill="#20A2DC"/>
<rect x="112.118" y="164.454" width="12.6005" height="4.26364" rx="2.13182" fill="#20A2DC"/>
<rect x="49.7971" y="164.454" width="12.6005" height="4.26364" rx="2.13182" fill="#20A2DC"/>
<rect x="170.353" y="156.268" width="4.25692" height="4.26364" rx="2.12846" fill="#20A2DC"/>
<rect x="0.24646" y="156.268" width="4.25692" height="4.26364" rx="2.12846" fill="#20A2DC"/>
</svg>
