<svg width="175" height="176" viewBox="0 0 175 176" fill="none" xmlns="http://www.w3.org/2000/svg">
<path d="M19.8906 69.8907L18.7534 70.4603L20.3645 72.5486H17.9004V73.5927L20.3645 73.1181L18.7534 75.4912L19.8906 76.0607L20.8384 73.5927L21.9756 76.0607L23.1129 75.3013L21.5018 73.1181L24.1554 73.5927V72.5486H21.5018L23.1129 70.4603L22.26 69.8907L20.8384 72.1689L19.8906 69.8907Z" fill="#20A2DC"/>
<path d="M43.6603 20.6385L42.523 21.208L44.1341 23.2963H41.67V24.3405L44.1341 23.8658L42.523 26.2389L43.6603 26.8084L44.608 24.3405L45.7453 26.8084L46.8825 26.0491L45.2714 23.8658L47.925 24.3405V23.2963H45.2714L46.8825 21.208L46.0296 20.6385L44.608 22.9166L43.6603 20.6385Z" fill="#20A2DC"/>
<path d="M158.411 60.8911L157.274 61.4606L158.885 63.5489H156.421V64.5931L158.885 64.1185L157.274 66.4915L158.411 67.0611L159.359 64.5931L160.496 67.0611L161.634 66.3017L160.022 64.1185L162.676 64.5931V63.5489H160.022L161.634 61.4606L160.781 60.8911L159.359 63.1692L158.411 60.8911Z" fill="#20A2DC"/>
<path d="M114.795 18.6289L113.658 19.1984L115.269 21.2867H112.805V22.3309L115.269 21.8563L113.658 24.2293L114.795 24.7989L115.743 22.3309L116.88 24.7989L118.018 24.0395L116.407 21.8563L119.06 22.3309V21.2867H116.407L118.018 19.1984L117.165 18.6289L115.743 20.907L114.795 18.6289Z" fill="#20A2DC"/>
<path d="M85.9093 17.5L85.3923 17.7804L86.1247 18.8085H85.0046V19.3225L86.1247 19.0889L85.3923 20.2571L85.9093 20.5375L86.3401 19.3225L86.857 20.5375L87.374 20.1637L86.6416 19.0889L87.8478 19.3225V18.8085H86.6416L87.374 17.7804L86.9863 17.5L86.3401 18.6215L85.9093 17.5Z" fill="#20A2DC"/>
<path fill-rule="evenodd" clip-rule="evenodd" d="M23.5314 26.321C24.7876 26.321 25.8059 25.301 25.8059 24.0428C25.8059 22.7847 24.7876 21.7647 23.5314 21.7647C22.2752 21.7647 21.2568 22.7847 21.2568 24.0428C21.2568 25.301 22.2752 26.321 23.5314 26.321ZM23.5015 24.7623C23.9147 24.7623 24.2497 24.4268 24.2497 24.0129C24.2497 23.599 23.9147 23.2635 23.5015 23.2635C23.0882 23.2635 22.7533 23.599 22.7533 24.0129C22.7533 24.4268 23.0882 24.7623 23.5015 24.7623Z" fill="#516678"/>
<path fill-rule="evenodd" clip-rule="evenodd" d="M20.2675 52.4192C21.5237 52.4192 22.542 51.3992 22.542 50.1411C22.542 48.8829 21.5237 47.8629 20.2675 47.8629C19.0113 47.8629 17.993 48.8829 17.993 50.1411C17.993 51.3992 19.0113 52.4192 20.2675 52.4192ZM20.2375 50.8605C20.6508 50.8605 20.9858 50.525 20.9858 50.1111C20.9858 49.6972 20.6508 49.3617 20.2375 49.3617C19.8243 49.3617 19.4893 49.6972 19.4893 50.1111C19.4893 50.525 19.8243 50.8605 20.2375 50.8605Z" fill="#516678"/>
<path fill-rule="evenodd" clip-rule="evenodd" d="M70.3817 29.4308C72.5948 29.4308 74.3888 27.6339 74.3888 25.4174C74.3888 23.2008 72.5948 21.4039 70.3817 21.4039C68.1686 21.4039 66.3746 23.2008 66.3746 25.4174C66.3746 27.6339 68.1686 29.4308 70.3817 29.4308ZM70.3289 26.6847C71.0569 26.6847 71.647 26.0936 71.647 25.3645C71.647 24.6353 71.0569 24.0443 70.3289 24.0443C69.6009 24.0443 69.0108 24.6353 69.0108 25.3645C69.0108 26.0936 69.6009 26.6847 70.3289 26.6847Z" fill="#516678"/>
<path fill-rule="evenodd" clip-rule="evenodd" d="M151.109 82.4736C152.431 82.4736 153.502 81.4006 153.502 80.0768C153.502 78.7531 152.431 77.6801 151.109 77.6801C149.787 77.6801 148.716 78.7531 148.716 80.0768C148.716 81.4006 149.787 82.4736 151.109 82.4736ZM151.077 80.8335C151.512 80.8335 151.865 80.4805 151.865 80.0451C151.865 79.6097 151.512 79.2567 151.077 79.2567C150.643 79.2567 150.29 79.6097 150.29 80.0451C150.29 80.4805 150.643 80.8335 151.077 80.8335Z" fill="#516678"/>
<path fill-rule="evenodd" clip-rule="evenodd" d="M154.633 32.6414C155.955 32.6414 157.026 31.5683 157.026 30.2446C157.026 28.9209 155.955 27.8478 154.633 27.8478C153.311 27.8478 152.24 28.9209 152.24 30.2446C152.24 31.5683 153.311 32.6414 154.633 32.6414ZM154.602 31.0012C155.036 31.0012 155.389 30.6482 155.389 30.2128C155.389 29.7774 155.036 29.4244 154.602 29.4244C154.167 29.4244 153.814 29.7774 153.814 30.2128C153.814 30.6482 154.167 31.0012 154.602 31.0012Z" fill="#516678"/>
<path d="M36.1215 36.2324C32.203 36.2324 30.5751 39.6852 30.581 41.6926C30.6881 78.3082 30.838 152.358 30.581 155.634C30.3241 158.91 32.9364 159.837 34.2747 159.89H36.8442L37.1654 158.445C34.5959 157.545 34.3818 155.875 34.5959 155.153V55.7446H140.267V51.8904H34.5959V42.4956C34.5959 40.2473 35.8003 40.167 37.4866 40.167H138.34C140.347 40.167 140.347 41.6926 140.347 42.9774V155.554C140.347 157.16 138.822 157.722 137.858 157.722H136.252L136.493 160.211C138.367 160.104 142.339 159.697 143.238 158.927C144.137 158.156 144.282 156.919 144.282 155.554C144.282 119.233 144.371 45.6262 144.282 41.7729C144.202 38.3202 140.749 36.2324 138.741 36.2324H36.1215Z" fill="#516678"/>
<path fill-rule="evenodd" clip-rule="evenodd" d="M79.5623 77.9067C79.5623 75.8992 81.7303 72.3661 85.1831 72.3661H89.6798C92.169 72.3661 95.3006 74.8554 95.3006 77.9067V82.6442C96.2641 82.9654 98.1913 84.202 98.1913 86.5788V97.0977C98.1913 98.5163 97.1474 101.916 93.534 101.916H81.6501C80.2047 101.916 76.6716 100.711 76.6716 97.5795V86.8196C76.6181 85.749 77.1213 83.415 79.5623 82.6442V77.9067ZM83.5772 82.3231V78.0673C83.5772 77.5052 84.1393 76.3811 85.5846 76.3811H89.3586C90.0812 76.3811 91.2857 76.7183 91.2857 78.0673V82.3231H83.5772Z" fill="#516678"/>
<path d="M75.7081 115.245V117.975L73.1386 116.369C71.6933 115.566 70.0071 118.136 70.8903 119.099L73.9415 121.428L70.9706 123.676C69.8464 124.64 71.2917 127.289 73.1386 126.326L75.7081 124.88V127.691C75.7081 128.574 76.3489 129.377 77.6352 129.377C78.9199 129.377 79.5624 128.414 79.5624 127.691V124.88L81.9713 126.326C84.1392 127.37 85.3437 124.64 84.3802 123.756L81.4092 121.428L84.2196 119.42C85.8255 118.055 83.256 115.405 81.891 116.53L79.5624 117.975V115.245C79.5891 114.656 79.2412 113.478 77.6352 113.478C76.0293 113.478 75.6813 114.656 75.7081 115.245Z" fill="#516678"/>
<path d="M56.1095 115.245V117.975L53.54 116.369C52.0947 115.566 50.4085 118.136 51.2917 119.099L54.3429 121.428L51.372 123.676C50.2478 124.64 51.6931 127.289 53.54 126.326L56.1095 124.88V127.691C56.1095 128.574 56.7503 129.377 58.0366 129.377C59.3213 129.377 59.9638 128.414 59.9638 127.691V124.88L62.3727 126.326C64.5406 127.37 65.7451 124.64 64.7816 123.756L61.8106 121.428L64.621 119.42C66.2269 118.055 63.6574 115.405 62.2924 116.53L59.9638 117.975V115.245C59.9905 114.656 59.6426 113.478 58.0366 113.478C56.4307 113.478 56.0827 114.656 56.1095 115.245Z" fill="#20A2DC"/>
<path d="M95.2945 115.245V117.975L92.725 116.369C91.2797 115.566 89.5935 118.136 90.4767 119.099L93.528 121.428L90.557 123.676C89.4328 124.64 90.8781 127.289 92.7251 126.326L95.2945 124.88V127.691C95.2945 128.574 95.9353 129.377 97.2216 129.377C98.5063 129.377 99.1488 128.414 99.1488 127.691V124.88L101.558 126.326C103.726 127.37 104.93 124.64 103.967 123.756L100.996 121.428L103.806 119.42C105.412 118.055 102.842 115.405 101.477 116.53L99.1488 117.975V115.245C99.1755 114.656 98.8276 113.478 97.2216 113.478C95.6157 113.478 95.2677 114.656 95.2945 115.245Z" fill="#20A2DC"/>
<path d="M114.887 115.245V117.975L112.318 116.369C110.872 115.566 109.186 118.136 110.069 119.099L113.12 121.428L110.15 123.676C109.025 124.64 110.471 127.289 112.318 126.326L114.887 124.88V127.691C114.887 128.574 115.528 129.377 116.814 129.377C118.099 129.377 118.741 128.414 118.741 127.691V124.88L121.15 126.326C123.318 127.37 124.523 124.64 123.559 123.756L120.588 121.428L123.399 119.42C125.004 118.055 122.435 115.405 121.07 116.53L118.741 117.975V115.245C118.768 114.656 118.42 113.478 116.814 113.478C115.208 113.478 114.86 114.656 114.887 115.245Z" fill="#516678"/>
<path d="M54.1081 144.998C54.1081 143.494 55.3393 143.004 55.9549 142.947H118.988C119.577 143.09 120.755 143.699 120.755 144.998C120.755 146.296 119.577 146.848 118.988 146.962H55.9549C55.3393 146.934 54.1081 146.501 54.1081 144.998Z" fill="#516678"/>
<circle cx="44.3118" cy="46.109" r="2.00743" fill="#20A2DC"/>
<circle cx="52.3416" cy="46.109" r="2.00743" fill="#516678"/>
<circle cx="60.3713" cy="46.109" r="2.00743" fill="#20A2DC"/>
<path d="M93.2931 46.0287C93.3574 44.744 94.2567 44.1819 94.9794 44.1819H131.113C131.675 44.1819 132.478 44.8707 132.478 46.0287C132.478 47.3135 131.515 47.9559 131.113 47.9559H94.9794C94.0961 47.9559 93.2289 47.3135 93.2931 46.0287Z" fill="#20A2DC"/>
<rect x="15.912" y="156.268" width="143.033" height="4.26364" rx="2.13182" fill="#516678"/>
<rect x="161.158" y="156.268" width="7.15163" height="4.26364" rx="2.13182" fill="#20A2DC"/>
<rect x="6.717" y="156.268" width="7.15163" height="4.26364" rx="2.13182" fill="#20A2DC"/>
<rect x="64.4409" y="164.454" width="45.6342" height="4.26364" rx="2.13182" fill="#20A2DC"/>
<rect x="72.7845" y="170.764" width="30.139" height="4.26364" rx="2.13182" fill="#20A2DC"/>
<rect x="83.1714" y="167.353" width="8.68413" height="4.26364" fill="#20A2DC"/>
<rect x="112.118" y="164.454" width="12.6005" height="4.26364" rx="2.13182" fill="#20A2DC"/>
<rect x="49.7971" y="164.454" width="12.6005" height="4.26364" rx="2.13182" fill="#20A2DC"/>
<rect x="170.353" y="156.268" width="4.25692" height="4.26364" rx="2.12846" fill="#20A2DC"/>
<rect x="0.246468" y="156.268" width="4.25692" height="4.26364" rx="2.12846" fill="#20A2DC"/>
</svg>
