<svg width="175" height="175" viewBox="0 0 175 175" fill="none" xmlns="http://www.w3.org/2000/svg">
<path fill-rule="evenodd" clip-rule="evenodd" d="M82.8748 119.23L11.169 64.5919H45.9691C44.6391 63.0847 44.6022 60.1957 44.75 58.9397H11.169C3.85374 58.9397 1.19457 65.1461 1.19452 68.5817V151.703C1.19451 157.909 4.62954 160.68 8.95248 157.909L64.2557 112.026L81.7665 124.993C85.6676 128.008 91.5193 126.249 93.9576 124.993L111.025 112.026L166.55 157.909C171.758 161.123 173.975 156.801 173.975 150.705V68.5817C173.975 62.4862 167.879 58.9397 164.223 58.9397H130.531C130.62 59.8263 130.531 63.3011 129.223 64.5919H164.001L92.2951 119.23C88.3053 122.599 84.3525 120.634 82.8748 119.23ZM59.7111 108.369L6.7353 67.9168L6.51364 149.708C6.24766 152.368 6.62447 152.811 6.84613 152.7L59.7111 108.369ZM168.322 68.0276L115.347 108.48L168.212 152.811C168.433 152.922 168.81 152.479 168.544 149.819L168.322 68.0276Z" fill="#516678"/>
<path fill-rule="evenodd" clip-rule="evenodd" d="M77.8879 90.0824L84.0942 99.1703C85.8666 101.941 87.9723 104.158 91.1872 99.1703L97.0611 90.3041C106.371 88.0136 125.433 77.448 125.433 53.9525C125.433 26.5779 101.272 15.8276 88.3057 15.8276C77.8879 15.8276 50.8662 22.4773 49.8484 53.1767C49.1172 75.2314 68.1346 88.3091 77.8879 90.0824ZM81.556 85.7094L85.742 91.8831L87.6409 94.6263L89.556 91.8831L93.8467 85.7094C103.822 83.5435 120.113 73.5927 120.113 53.62C120.113 30.3499 99.2388 21.0365 88.2144 21.0365C79.3571 21.0365 56.1439 26.9694 55.2785 53.0658C54.6568 71.8138 70.0182 83.5435 81.556 85.7094Z" fill="#516678"/>
<circle cx="63.036" cy="38.3258" r="1.10828" fill="#20A2DC"/>
<circle cx="67.0258" cy="32.7843" r="1.10828" fill="#20A2DC"/>
<circle cx="72.5671" cy="28.5729" r="1.10828" fill="#20A2DC"/>
<circle cx="79.8818" cy="25.6913" r="1.10828" fill="#20A2DC"/>
<circle cx="87.1964" cy="23.9181" r="1.10828" fill="#20A2DC"/>
<circle cx="95.841" cy="25.6913" r="1.10828" fill="#20A2DC"/>
<circle cx="102.712" cy="28.5729" r="1.10828" fill="#20A2DC"/>
<circle cx="108.254" cy="32.7843" r="1.10828" fill="#20A2DC"/>
<circle cx="112.022" cy="38.3258" r="1.10828" fill="#20A2DC"/>
<circle cx="115.125" cy="44.5321" r="1.10828" fill="#20A2DC"/>
<circle cx="115.125" cy="65.8112" r="1.10828" fill="#20A2DC"/>
<circle cx="116.012" cy="58.9398" r="1.10828" fill="#20A2DC"/>
<circle cx="116.455" cy="51.6251" r="1.10828" fill="#20A2DC"/>
<circle cx="110.027" cy="72.2391" r="1.10828" fill="#20A2DC"/>
<circle cx="91.408" cy="83.7653" r="1.10828" fill="#20A2DC"/>
<circle cx="83.8716" cy="83.7653" r="1.10828" fill="#20A2DC"/>
<circle cx="98.2792" cy="80.8837" r="1.10828" fill="#20A2DC"/>
<circle cx="77.0003" cy="80.8837" r="1.10828" fill="#20A2DC"/>
<circle cx="104.486" cy="77.3373" r="1.10828" fill="#20A2DC"/>
<circle cx="71.4589" cy="77.3373" r="1.10828" fill="#20A2DC"/>
<circle cx="65.0308" cy="72.2391" r="1.10828" fill="#20A2DC"/>
<circle cx="60.8194" cy="65.8112" r="1.10828" fill="#20A2DC"/>
<circle cx="58.6028" cy="58.9398" r="1.10828" fill="#20A2DC"/>
<circle cx="58.6028" cy="51.6251" r="1.10828" fill="#20A2DC"/>
<circle cx="59.4894" cy="44.5321" r="1.10828" fill="#20A2DC"/>
<path fill-rule="evenodd" clip-rule="evenodd" d="M73.4933 56.8024C73.4242 61.2619 70.5377 64.1934 69.495 65.2525L69.4949 65.2525C69.4053 65.3435 69.3293 65.4207 69.2699 65.4838C68.0968 66.8916 69.4107 67.5016 70.0208 67.5016H85.4126C85.4126 69.3787 87.4305 73.1985 91.7477 73.2736C96.0649 73.3487 97.942 69.2848 97.942 67.5016H102.071C103.339 67.5016 103.292 65.8679 102.682 65.4838C99.6407 63.5692 98.5364 58.8985 98.3643 56.8024L98.1766 50.1389C98.1766 46.5725 95.7646 39.2895 86.3042 39.0642C76.8439 38.839 73.8531 46.416 73.728 50.1389L73.4933 56.8024ZM76.0743 51.7814C76.4379 57.0841 74.995 63.6538 72.7895 65.1555H99.1152L99.1058 65.1461C98.1132 64.1536 95.5085 61.5492 95.9242 51.7814C96.2996 42.9593 89.5891 41.2699 85.7411 41.2699C82.1278 41.2699 75.5112 43.5693 76.0743 51.7814ZM87.7589 67.5486H95.5956C95.5956 68.4402 94.7509 71.0212 91.8414 71.0212C88.9447 71.0212 87.7589 68.6749 87.7589 67.5486Z" fill="#20A2DC"/>
<path d="M79.547 51.3122C80.2039 51.3122 80.6161 50.8429 80.6263 50.4206C80.7201 46.5257 84.2396 45.7593 85.9759 45.8218C86.4919 45.8404 87.1021 45.5121 87.1021 44.6487C87.1021 43.7852 86.398 43.5003 85.8351 43.5224C79.8753 43.7571 78.233 48.1681 78.3738 50.4206C78.4676 50.7491 78.8297 51.3122 79.547 51.3122Z" fill="#516678"/>
<path fill-rule="evenodd" clip-rule="evenodd" d="M85.9288 41.2231C88.4427 41.2231 90.4806 39.1852 90.4806 36.6712C90.4806 34.1573 88.4427 32.1194 85.9288 32.1194C83.4149 32.1194 81.3769 34.1573 81.3769 36.6712C81.3769 39.1852 83.4149 41.2231 85.9288 41.2231ZM86.0225 39.0646C87.3443 39.0646 88.4158 37.9931 88.4158 36.6713C88.4158 35.3496 87.3443 34.2781 86.0225 34.2781C84.7008 34.2781 83.6293 35.3496 83.6293 36.6713C83.6293 37.9931 84.7008 39.0646 86.0225 39.0646Z" fill="#20A2DC"/>
<path d="M97.8012 34.2779C98.4582 33.1517 96.6281 32.0724 95.8772 33.1517L93.2024 37.5159C92.4047 38.7359 94.3287 39.9091 94.9856 38.9237L97.8012 34.2779Z" fill="#20A2DC"/>
<path d="M105.705 42.7127C106.816 42.0305 105.713 40.2146 104.541 40.8111L100.122 43.3939C98.8426 44.0923 99.984 46.0353 101.029 45.4771L105.705 42.7127Z" fill="#20A2DC"/>
<path d="M100.685 39.6375C101.579 38.6878 100.038 37.2247 99.0638 38.1076L96.6966 40.445C95.6451 41.4546 97.2561 43.0302 98.1178 42.2176L100.685 39.6375Z" fill="#516678"/>
<path d="M169.344 153.805H6.76843C5.843 153.734 3.97078 154.124 3.88536 156.256C3.79993 158.388 5.48707 158.992 6.34131 159.028H169.878C170.59 158.957 172.014 158.303 172.014 156.256C172.014 154.21 170.234 153.769 169.344 153.805Z" fill="#516678"/>
</svg>
