<svg width="175" height="175" viewBox="0 0 175 175" fill="none" xmlns="http://www.w3.org/2000/svg">
<path fill-rule="evenodd" clip-rule="evenodd" d="M5.67407 143.53C5.67407 148.421 7.01793 149.467 10.0863 149.467H165.283C168.579 149.467 169.187 145.883 169.187 143.53V137.195C169.187 136.298 168.873 134.516 167.091 134.516H164.156L7.77039 134.516C6.19815 134.516 5.67407 136.088 5.67407 137.031V143.53ZM10.7053 139.547V142.482C10.7053 143.53 11.439 145.102 13.3257 145.102H161.745C162.584 145.102 164.156 144.264 164.156 142.377V139.547L10.7053 139.547Z" fill="#516678"/>
<path d="M13.4305 129.484H18.4617V33.3342C18.4617 31.154 20.0339 30.8186 20.8724 30.8186H153.989C155.771 30.8186 156.4 32.4957 156.4 33.2294V129.484H161.431V32.3908C161.431 27.8838 156.714 25.6826 154.513 25.6826H20.558C15.6316 25.6826 13.4305 29.9801 13.4305 32.3908V129.484Z" fill="#516678"/>
<path d="M141.996 71.1541C140.569 72.1349 141.104 73.9406 141.55 74.7208C144.047 79.6251 144.671 86.2013 144.671 88.8763C143.445 114.066 122.936 121.088 112.236 121.088C86.5554 119.751 79.9867 99.0564 79.9124 88.8763C80.8932 63.1958 101.499 56.3298 111.679 56.1069C111.121 56.8871 110.341 58.8042 111.679 60.2309C113.016 61.6576 114.688 60.8254 115.357 60.2309C116.509 59.4507 119.325 57.4444 121.376 55.661C123.427 53.8776 122.23 52.02 121.376 51.314L115.357 46.7442C114.725 46.3355 113.105 45.8302 111.679 47.0785C110.252 48.3269 111.084 50.1994 111.679 50.9797C82.4314 52.4064 74.6737 76.8386 74.4508 88.8763C75.4317 117.856 100.05 125.993 112.236 126.439C142.464 124.477 150.096 100.58 150.133 88.8763C149.776 79.2461 146.863 72.9003 145.451 70.9311C144.894 70.5968 143.423 70.1732 141.996 71.1541Z" fill="#20A2DC"/>
<path fill-rule="evenodd" clip-rule="evenodd" d="M102.871 68.9525C103.593 69.2895 104.703 69.531 104.947 68.2305C105.093 67.4511 106.481 64.8913 108.737 64.801H115.957C117.672 64.801 119.587 66.8616 119.658 67.7793C119.728 68.6969 120.289 69.8731 122.094 68.8623C122.9 68.411 125.524 68.05 126.697 69.133L132.202 74.6383C132.744 75.1798 133.455 77.9935 132.563 79.241C132.076 79.9235 131.751 80.9558 133.556 81.5875C134.459 81.9485 136.534 83.3925 136.534 85.2878V91.876C136.535 92.8688 135.181 95.9373 133.646 96.208C132.563 96.4788 131.48 97.1105 132.563 99.1863C132.924 99.7278 133.285 101.984 132.293 102.977L126.787 108.663C125.795 109.655 123.358 109.926 121.914 108.933C121.372 108.632 120.199 108.356 119.838 109.655C119.387 111.28 117.221 113.175 115.687 113.175H109.279C108.016 113.175 105.431 111.731 105.127 110.287C104.805 108.753 103.503 108.392 102.51 108.933C101.614 109.422 99.8028 109.655 98.449 108.753C96.644 107.489 93.2862 104.283 92.5828 103.157C91.6803 101.713 91.3781 99.818 92.312 98.2838C93.0262 97.1105 92.2218 96.6863 91.229 96.3885C90.2363 96.0907 88.1605 94.1323 88.1605 92.4175V85.6488C88.1605 84.295 89.5143 81.9485 91.8608 81.3168C92.3722 81.1664 93.1965 80.6128 92.4023 79.602C92.312 79.5118 90.868 77.075 92.4023 74.9993C93.9666 73.1341 97.1855 69.6745 98.088 69.133C99.0808 68.5374 100.705 67.9417 102.871 68.9525ZM108.942 71.8905V69.6563C108.942 69.2839 109.073 68.7254 109.966 68.7254H114.993C115.519 68.7254 115.924 68.9555 115.924 69.6563V71.8905C117.414 72.0767 120.728 72.8586 122.068 74.497L123.837 72.7283C124.302 72.2628 124.675 72.3559 125.326 73.0076L128.678 76.3589C129.035 76.7159 129.422 77.2898 128.678 77.9414L127.095 79.4309C127.933 80.4549 129.609 83.0987 129.609 85.4818H131.936C132.308 85.4818 132.96 85.5191 132.96 86.4127V91.3466C132.96 91.812 132.774 92.5568 131.936 92.5568H129.609C129.267 94.1703 128.119 97.6396 127.002 98.6077L128.771 100.283C129.05 100.563 129.143 101.121 128.584 101.773L125.047 105.31C124.768 105.59 124.209 105.776 123.744 105.31L122.068 103.542C121.106 104.286 118.549 105.832 116.017 106.055V108.382C116.017 108.755 115.831 109.313 114.993 109.313H109.687C109.408 109.313 108.942 109.071 108.942 108.475V106.055C107.577 105.869 104.455 105.105 102.891 103.542L101.216 105.217C100.843 105.59 100.099 105.496 99.6331 105.031L96.2818 101.68C96.0025 101.4 95.7232 100.656 96.1887 100.097L97.8643 98.6077C97.1196 97.5527 95.5743 94.8654 95.3509 92.5568H93.0236C92.5581 92.5568 91.9996 92.1844 91.9996 91.4397V86.3196C91.9996 85.8542 92.3719 85.3887 93.1167 85.3887L95.3509 85.4818C95.5991 84.1165 96.4307 80.9948 97.7712 79.4309L96.1887 77.7552C95.9094 77.476 95.7232 77.0105 96.3749 76.3589L99.7262 72.9145C100.005 72.6352 100.75 72.2628 101.402 72.9145L102.891 74.4039C103.946 73.6282 106.634 72.0394 108.942 71.8905Z" fill="#516678"/>
<path fill-rule="evenodd" clip-rule="evenodd" d="M112.287 100.819C118.763 100.819 124.014 95.5683 124.014 89.0917C124.014 82.6151 118.763 77.3647 112.287 77.3647C105.81 77.3647 100.56 82.6151 100.56 89.0917C100.56 95.5683 105.81 100.819 112.287 100.819ZM112.287 94.9551C115.525 94.9551 118.15 92.3299 118.15 89.0916C118.15 85.8533 115.525 83.2281 112.287 83.2281C109.049 83.2281 106.423 85.8533 106.423 89.0916C106.423 92.3299 109.049 94.9551 112.287 94.9551Z" fill="#20A2DC"/>
<path fill-rule="evenodd" clip-rule="evenodd" d="M26.4772 103.769C26.4772 102.591 27.2724 100.154 30.135 100.154H36.0989C37.5302 100.154 39.9157 101.019 39.9157 103.769V109.585C39.9157 110.921 39.2796 113.593 36.0989 113.593H30.135C28.5446 113.593 26.4772 112.493 26.4772 109.585V103.769ZM36.2003 104.028H30.1925V110.036H36.2003V104.028Z" fill="#20A2DC"/>
<path fill-rule="evenodd" clip-rule="evenodd" d="M26.237 84.5452C26.237 83.3664 27.0322 80.9302 29.8948 80.9302H35.8587C37.29 80.9302 39.6756 81.7946 39.6756 84.5452V90.3607C39.6756 91.6967 39.0394 94.3687 35.8587 94.3687H29.8948C28.3045 94.3687 26.237 93.2685 26.237 90.3607V84.5452ZM35.9602 84.8037H29.9523V90.8115H35.9602V84.8037Z" fill="#20A2DC"/>
<path fill-rule="evenodd" clip-rule="evenodd" d="M26.237 65.1339C26.237 63.955 27.0322 61.5188 29.8948 61.5188H35.8587C37.29 61.5188 39.6756 62.3833 39.6756 65.1339V70.9494C39.6756 72.2854 39.0394 74.9574 35.8587 74.9574H29.8948C28.3045 74.9574 26.237 73.8571 26.237 70.9494V65.1339ZM35.9602 65.3923H29.9523V71.4001H35.9602V65.3923Z" fill="#20A2DC"/>
<path fill-rule="evenodd" clip-rule="evenodd" d="M75.0766 108.963H53.5697C52.5011 108.963 50.631 110.004 50.631 111.802C50.631 113.599 52.5011 114.64 53.5697 114.64H78.1613C77.0201 112.821 75.9887 110.925 75.0766 108.963Z" fill="#20A2DC"/>
<path fill-rule="evenodd" clip-rule="evenodd" d="M72.0167 100.525H53.5697C52.5011 100.525 50.631 101.565 50.631 103.363C50.631 105.161 52.5011 106.202 53.5697 106.202H73.8893C73.1601 104.359 72.5336 102.464 72.0167 100.525Z" fill="#516678"/>
<path fill-rule="evenodd" clip-rule="evenodd" d="M70.304 88.9548H53.5697C52.5011 88.9548 50.631 89.9956 50.631 91.7933C50.631 93.5909 52.5011 94.6317 53.5697 94.6317H70.8097C70.5403 92.7696 70.3699 90.8755 70.304 88.9548Z" fill="#20A2DC"/>
<path fill-rule="evenodd" clip-rule="evenodd" d="M70.5875 80.5161H53.5697C52.5011 80.5161 50.631 81.5569 50.631 83.3545C50.631 85.1522 52.5011 86.193 53.5697 86.193H70.1862C70.2174 84.2735 70.353 82.3794 70.5875 80.5161Z" fill="#516678"/>
<path fill-rule="evenodd" clip-rule="evenodd" d="M73.5601 68.9448H53.5697C52.5011 68.9448 50.631 69.9856 50.631 71.7833C50.631 73.5809 52.5011 74.6217 53.5697 74.6217H71.7969C72.2779 72.684 72.8679 70.7895 73.5601 68.9448Z" fill="#20A2DC"/>
<path fill-rule="evenodd" clip-rule="evenodd" d="M77.6372 60.5059H53.5697C52.5011 60.5059 50.631 61.5466 50.631 63.3443C50.631 65.142 52.5011 66.1827 53.5697 66.1827H74.6891C75.5569 64.2236 76.5426 62.3283 77.6372 60.5059Z" fill="#516678"/>
</svg>
