<svg width="175" height="176" viewBox="0 0 175 176" fill="none" xmlns="http://www.w3.org/2000/svg">
<path d="M9.63104 62.6057L8.49376 63.1752L10.1049 65.2635H7.64081V66.3077L10.1049 65.8331L8.49376 68.2061L9.63104 68.7757L10.5788 66.3077L11.716 68.7757L12.8533 68.0163L11.2422 65.8331L13.8958 66.3077V65.2635H11.2422L12.8533 63.1752L12.0004 62.6057L10.5788 64.8838L9.63104 62.6057Z" fill="#20A2DC"/>
<path d="M48.5747 12.8169L47.4374 13.3864L49.0486 15.4747H46.5845V16.5189L49.0486 16.0443L47.4374 18.4173L48.5747 18.9868L49.5224 16.5189L50.6597 18.9868L51.797 18.2275L50.1858 16.0443L52.8395 16.5189V15.4747H50.1858L51.797 13.3864L50.944 12.8169L49.5224 15.095L48.5747 12.8169Z" fill="#20A2DC"/>
<path d="M137.061 18.9789L135.923 19.5484L137.535 21.6367H135.07V22.6809L137.535 22.2062L135.923 24.5793L137.061 25.1488L138.008 22.6809L139.146 25.1488L140.283 24.3895L138.672 22.2062L141.325 22.6809V21.6367H138.672L140.283 19.5484L139.43 18.9789L138.008 21.257L137.061 18.9789Z" fill="#20A2DC"/>
<path d="M149.138 46.0916L148.001 46.6611L149.612 48.7494H147.148V49.7935L149.612 49.3189L148.001 51.692L149.138 52.2615L150.086 49.7935L151.223 52.2615L152.36 51.5021L150.749 49.3189L153.403 49.7935V48.7494H150.749L152.36 46.6611L151.507 46.0916L150.086 48.3697L149.138 46.0916Z" fill="#20A2DC"/>
<path d="M86.2483 2.95776L85.7313 3.23815L86.4637 4.26623H85.3436V4.78027L86.4637 4.54662L85.7313 5.71489L86.2483 5.99528L86.6791 4.78027L87.196 5.99528L87.7129 5.62143L86.9806 4.54662L88.1868 4.78027V4.26623H86.9806L87.7129 3.23815L87.3252 2.95776L86.6791 4.07931L86.2483 2.95776Z" fill="#20A2DC"/>
<path fill-rule="evenodd" clip-rule="evenodd" d="M28.1548 23.5352C29.411 23.5352 30.4293 22.5152 30.4293 21.257C30.4293 19.9988 29.411 18.9789 28.1548 18.9789C26.8986 18.9789 25.8802 19.9988 25.8802 21.257C25.8802 22.5152 26.8986 23.5352 28.1548 23.5352ZM28.1249 21.9764C28.5381 21.9764 28.8731 21.6409 28.8731 21.227C28.8731 20.8132 28.5381 20.4777 28.1249 20.4777C27.7116 20.4777 27.3767 20.8132 27.3767 21.227C27.3767 21.6409 27.7116 21.9764 28.1249 21.9764Z" fill="#516678"/>
<path fill-rule="evenodd" clip-rule="evenodd" d="M18.7886 49.9084C20.0448 49.9084 21.0631 48.8885 21.0631 47.6303C21.0631 46.3721 20.0448 45.3522 18.7886 45.3522C17.5324 45.3522 16.514 46.3721 16.514 47.6303C16.514 48.8885 17.5324 49.9084 18.7886 49.9084ZM18.7586 48.3497C19.1718 48.3497 19.5068 48.0142 19.5068 47.6003C19.5068 47.1865 19.1718 46.851 18.7586 46.851C18.3454 46.851 18.0104 47.1865 18.0104 47.6003C18.0104 48.0142 18.3454 48.3497 18.7586 48.3497Z" fill="#516678"/>
<path fill-rule="evenodd" clip-rule="evenodd" d="M88.3029 27.4988C90.516 27.4988 92.31 25.7019 92.31 23.4854C92.31 21.2688 90.516 19.4719 88.3029 19.4719C86.0898 19.4719 84.2958 21.2688 84.2958 23.4854C84.2958 25.7019 86.0898 27.4988 88.3029 27.4988ZM88.3252 24.8236C89.0531 24.8236 89.6433 24.2325 89.6433 23.5034C89.6433 22.7743 89.0531 22.1832 88.3252 22.1832C87.5972 22.1832 87.007 22.7743 87.007 23.5034C87.007 24.2325 87.5972 24.8236 88.3252 24.8236Z" fill="#516678"/>
<path fill-rule="evenodd" clip-rule="evenodd" d="M152.992 73.0682C154.313 73.0682 155.385 71.9952 155.385 70.6714C155.385 69.3477 154.313 68.2747 152.992 68.2747C151.67 68.2747 150.599 69.3477 150.599 70.6714C150.599 71.9952 151.67 73.0682 152.992 73.0682ZM152.96 71.4281C153.395 71.4281 153.747 71.0751 153.747 70.6397C153.747 70.2043 153.395 69.8513 152.96 69.8513C152.525 69.8513 152.173 70.2043 152.173 70.6397C152.173 71.0751 152.525 71.4281 152.96 71.4281Z" fill="#516678"/>
<path fill-rule="evenodd" clip-rule="evenodd" d="M120.456 8.7373C121.778 8.7373 122.849 7.66422 122.849 6.34051C122.849 5.0168 121.778 3.94373 120.456 3.94373C119.135 3.94373 118.063 5.0168 118.063 6.34051C118.063 7.66422 119.135 8.7373 120.456 8.7373ZM120.425 7.09715C120.86 7.09715 121.212 6.74417 121.212 6.30874C121.212 5.87331 120.86 5.52032 120.425 5.52032C119.99 5.52032 119.638 5.87331 119.638 6.30874C119.638 6.74417 119.99 7.09715 120.425 7.09715Z" fill="#516678"/>
<path fill-rule="evenodd" clip-rule="evenodd" d="M82.4752 106.947L82.4751 106.977H85.4358C85.8492 106.977 86.0855 107.509 86.2626 108.218L96.2425 139.87C96.6559 141.228 97.3055 142.941 100.081 142.941H131.143C131.97 143.019 134.036 142.527 134.627 140.106L140.414 117.371C140.828 115.835 139.942 112.706 136.93 112.706H109.47C108.88 112.706 108.112 113.225 108.112 114.123C108.112 115.02 108.88 115.658 109.352 115.658H136.93C137.58 115.658 137.91 116.06 137.58 117.194L136.339 122.095H126.182C126.537 122.784 127.233 124.327 127.186 124.989H135.513L134.45 129.24H127.482C127.442 130.047 127.245 131.756 126.773 132.134H133.741L131.91 139.279C131.89 139.339 131.877 139.403 131.864 139.467L131.864 139.467C131.799 139.78 131.73 140.106 130.848 140.106H100.081L100.037 140.104C99.668 140.086 99.1839 140.063 98.8999 138.984L88.8609 106.741C88.6444 105.915 87.6799 104.084 85.4358 104.084H82.2871C82.403 105 82.4752 105.97 82.4752 106.947Z" fill="#516678"/>
<path fill-rule="evenodd" clip-rule="evenodd" d="M115.317 138.276C121.024 138.276 125.651 133.649 125.651 127.941C125.651 122.234 121.024 117.607 115.317 117.607C109.609 117.607 104.982 122.234 104.982 127.941C104.982 133.649 109.609 138.276 115.317 138.276ZM115.317 135.205C119.328 135.205 122.58 131.953 122.58 127.941C122.58 123.93 119.328 120.678 115.317 120.678C111.305 120.678 108.053 123.93 108.053 127.941C108.053 131.953 111.305 135.205 115.317 135.205Z" fill="#20A2DC"/>
<path d="M111.716 128.542C111.682 127.8 112.376 127.53 112.728 127.488C112.896 127.468 113.065 127.488 113.318 127.656L114.583 128.584L117.24 125.169C117.662 124.79 118.336 124.916 118.632 125.169C119.011 125.548 118.927 126.181 118.758 126.434L115.342 130.903C114.735 131.206 114.246 130.973 114.077 130.818L112.053 129.301C111.758 129.048 111.723 128.71 111.716 128.542Z" fill="#20A2DC"/>
<path fill-rule="evenodd" clip-rule="evenodd" d="M105.927 155.873C108.732 155.873 111.006 153.6 111.006 150.795C111.006 147.99 108.732 145.716 105.927 145.716C103.123 145.716 100.849 147.99 100.849 150.795C100.849 153.6 103.123 155.873 105.927 155.873ZM105.927 152.921C107.101 152.921 108.053 151.969 108.053 150.795C108.053 149.621 107.101 148.669 105.927 148.669C104.753 148.669 103.801 149.621 103.801 150.795C103.801 151.969 104.753 152.921 105.927 152.921Z" fill="#20A2DC"/>
<path fill-rule="evenodd" clip-rule="evenodd" d="M125.415 155.873C128.22 155.873 130.493 153.6 130.493 150.795C130.493 147.99 128.22 145.716 125.415 145.716C122.61 145.716 120.336 147.99 120.336 150.795C120.336 153.6 122.61 155.873 125.415 155.873ZM125.415 152.921C126.589 152.921 127.541 151.969 127.541 150.795C127.541 149.621 126.589 148.669 125.415 148.669C124.241 148.669 123.289 149.621 123.289 150.795C123.289 151.969 124.241 152.921 125.415 152.921Z" fill="#20A2DC"/>
<path d="M96.7741 122.154L95.8292 119.497C96.3016 119.142 98.6047 119.123 99.6677 119.26C99.7149 117.985 100.435 115.973 100.79 115.127L98.4866 113.769C96.0772 112.021 96.8528 109.615 97.5418 108.631L98.9 106.21C100.364 104.131 102.502 104.556 103.388 105.029L105.691 106.328C106.116 105.572 107.797 104.044 108.585 103.375L107.285 100.954C105.915 98.4974 107.581 96.8597 108.585 96.3479L110.002 95.4621C112.411 93.4307 114.588 94.4582 115.376 95.2259L117.265 98.3557C117.691 97.8833 120.08 97.4109 121.222 97.2337V94.222C121.411 91.8126 123.466 91.1709 124.47 91.1512H127.895C130.352 91.3875 131.005 93.2968 131.025 94.222V97.2337C132.348 97.3282 134.253 97.9817 135.04 98.2967L136.694 95.4031C138.465 93.2181 140.769 94.7535 141.359 95.1078L142.717 95.8755C145.741 97.2928 145.552 99.6352 145.079 100.659L143.603 103.375C144.642 104.037 146.005 105.659 146.556 106.387L148.859 105.029C151.552 103.848 153.13 105.639 153.583 106.682L154.528 108.277C156.229 110.733 155.079 112.686 154.292 113.355L151.457 115.127C152.024 115.977 152.402 118.237 152.52 119.26L155.473 119.201C157.929 119.579 158.504 121.76 158.484 122.804V126.111C158.39 128.236 156.437 129.083 155.473 129.24H152.579C152.579 130.28 151.831 132.429 151.457 133.374L154.469 135.323C156.122 136.835 155.158 139.26 154.469 140.283L153.465 142.114C152.331 144.098 150.276 144.043 149.39 143.767L147.028 142.409C146.745 142.079 146.398 142.311 146.26 142.468L143.898 144.771C143.473 145.008 143.642 145.382 143.78 145.539L144.843 147.311C145.906 149.259 145.257 151.031 143.78 152.035L140.355 153.984C138.418 154.834 137.343 154.023 137.048 153.511L135.336 150.736C135.099 150.322 134.686 150.322 134.509 150.381L133.269 150.736C133.411 149.838 132.934 148.472 132.678 147.901L134.391 147.311C136.139 146.791 137.127 147.921 137.402 148.551L138.584 150.736C138.867 151.539 139.686 151.228 140.06 150.972L142.068 149.732C142.635 149.354 142.422 148.866 142.245 148.669L141.005 146.425C139.965 144.582 141.044 143.334 141.713 142.941C142.705 142.327 144.135 140.559 144.725 139.752C145.764 138.665 146.969 138.984 147.441 139.279L149.686 140.697C150.394 141.216 150.926 140.756 151.103 140.46L152.107 138.63C152.579 138.016 152.304 137.468 152.107 137.272L149.686 135.795C148.032 134.898 148.485 132.941 148.918 132.075C149.06 131.744 149.489 129.811 149.686 128.886C149.78 126.996 151.221 126.445 151.93 126.406H154.823C155.485 126.453 155.61 125.874 155.591 125.579V123.158C155.733 122.26 155.138 122.115 154.823 122.154H152.166C150.182 122.06 149.804 120.776 149.863 120.146C149.863 119.532 149.193 117.41 148.859 116.426C147.819 114.206 149.095 113.021 149.863 112.706L151.93 111.525C152.685 111.052 152.402 110.343 152.166 110.048L150.985 107.804C150.701 107.19 150.119 107.548 149.863 107.804L147.796 109.044C146.319 109.93 144.843 109.103 144.548 108.454C144.312 107.934 142.127 105.875 141.064 104.911C140.261 104.013 140.572 102.883 140.828 102.43L142.068 100.245C142.635 99.4423 142.304 98.9659 142.068 98.8281L139.883 97.529C139.127 97.1038 138.78 97.5093 138.702 97.7652L137.048 100.659C135.678 101.84 134.367 101.308 133.564 100.836C132.855 100.419 131.495 100.192 130.848 100.127C128.486 99.8911 128.092 98.5329 128.19 97.7652V94.9306C128.237 94.1275 127.619 93.9661 127.304 93.9858H124.883C124.127 93.9385 124.017 94.4779 124.057 94.7535V98.0604C123.868 99.7612 122.009 100.226 121.104 100.245C120.159 100.34 118.781 100.836 118.21 101.072C116.037 101.97 114.982 100.698 114.726 99.9501L113.545 97.7652C113.214 97.151 112.581 97.3518 112.305 97.529L110.415 98.651C109.612 99.0761 109.805 99.6942 110.002 99.9501L111.242 102.135C112.423 103.505 111.34 104.95 110.652 105.501C109.896 105.926 108.093 108.04 107.285 109.044C106.293 109.8 105.219 109.517 104.805 109.28L102.443 107.804C101.782 107.237 101.301 107.765 101.144 108.099L99.9629 110.166C99.4905 110.828 99.8842 111.229 100.14 111.347L102.148 112.528C104.038 113.426 103.919 114.95 103.506 115.953C103.034 116.568 102.601 119.083 102.443 120.264C102.278 121.504 101.026 122.154 100.317 122.154H96.7741Z" fill="#516678"/>
<path fill-rule="evenodd" clip-rule="evenodd" d="M40.9908 77.3944H64.5139C66.6861 77.3944 69.7059 78.7189 70.3417 82.9043L72.09 91.4871C72.6022 92.635 73.4145 95.7103 73.4145 98.8513C73.4145 102.931 71.0304 118.507 52.6994 119.407C45.865 119.407 33.5206 115.063 32.0902 99.9109C32.0019 98.3038 32.1644 94.3692 33.5206 91.4871L35.0571 82.9043C35.322 80.7851 37.0915 77.3944 40.9908 77.3944ZM36.2225 90.5334C38.6596 89.4562 44.8583 87.4606 52.9112 87.4606C60.9642 87.4606 66.9509 89.5621 69.282 90.5334L67.8516 83.4341C67.8516 82.0036 66.792 80.0434 64.6728 80.0434H40.9377C39.4543 80.0434 38.1298 80.6791 37.706 83.4341L36.2225 90.5334ZM68.2225 92.9176C56.5139 87.9375 41.7855 90.6394 37.3882 92.9176L41.0968 96.2023C50.4742 94.1361 60.3815 95.3017 64.355 96.2023L68.2225 92.9176ZM35.163 94.454L38.9776 97.7917C39.1282 97.8849 39.2632 97.9762 39.3915 98.063C40.2113 98.6173 40.7566 98.9859 43.3219 98.4804C46.9069 97.774 55.2424 96.997 62.0238 98.4275C62.1688 98.458 62.3083 98.4883 62.443 98.5175C63.9332 98.8406 64.84 99.0371 66.1033 98.1626L70.3417 94.454C70.5713 95.2487 70.8453 97.103 70.8185 98.8513C70.7302 104.626 66.792 116.653 52.6994 116.812C38.2898 116.974 34.1035 102.984 34.6862 98.4804C34.6862 97.5268 34.7816 94.7507 35.163 94.454Z" fill="#516678"/>
<path fill-rule="evenodd" clip-rule="evenodd" d="M70.3703 149.832C70.0354 149.832 69.6 149.715 69.6 148.914V141.605C69.6 141.229 69.8679 140.811 70.3703 140.811H83.067C83.3015 140.811 83.7704 140.978 83.7704 141.605V148.914C83.7704 149.289 83.5694 149.832 83.1005 149.832H70.3703ZM72.1429 143.354V147.275H81.2555V143.354H72.1429Z" fill="#20A2DC"/>
<path d="M50.1034 121.845C49.7219 121.845 48.2137 121.562 47.5073 121.421L46.2888 125.235C45.812 127.513 47.9842 128.626 49.0967 128.838L47.7722 137.845L50.2623 138.745L51.5868 130.109C52.3073 130.66 53.4764 130.339 53.9709 130.109L55.2954 138.745L57.7325 137.845L56.408 128.838C59.2477 128.075 59.4278 126.224 59.1629 125.394C58.8097 124.034 58.0821 121.336 57.9974 121.421C57.9126 121.506 56.2314 121.739 55.4014 121.845L56.6199 125.818L52.6994 127.778C52.5722 127.651 50.1034 126.419 48.8848 125.818L50.1034 121.845Z" fill="#20A2DC"/>
<path d="M42.0504 119.408C41.4147 119.238 39.2072 117.642 38.1829 116.865H34.8981C20.6147 118.178 16.6907 129.986 16.5141 135.725V159.672H19.2161V135.249C19.6399 126.306 26.2094 121.88 29.4412 120.785C32.9591 139.137 46.4478 144.114 52.7524 144.308C68.3921 143.121 74.8803 128.132 76.1695 120.785C84.7311 124.515 86.5182 132.688 86.3417 136.308V159.354H88.9377V135.249C87.4118 121.05 76.2578 117.076 70.8715 116.865H67.4278C66.1987 117.839 64.2667 118.966 63.4543 119.408H70.3417C72.0371 119.408 73.2733 119.796 73.6794 119.99C70.755 136.52 58.5095 141.43 52.7524 141.818C38.3842 140.335 32.7789 126.648 31.7723 119.99C31.9419 119.609 34.1741 119.443 35.269 119.408H42.0504Z" fill="#516678"/>
<path fill-rule="evenodd" clip-rule="evenodd" d="M28.8382 58.146V64.8008C28.8139 66.9742 30.6659 71.4041 36.5876 71.7244C37.8304 71.7917 40.8277 71.3749 42.8747 69.1701C44.7999 71.097 49.9514 73.7948 55.1566 69.1701C57.0574 71.1195 62.1749 73.8486 67.4386 69.1701C69.3881 71.1195 74.5591 73.8486 79.6474 69.1701C81.5725 71.0746 86.7533 73.741 92.0755 69.1701C93.9763 71.1195 99.0791 73.8486 104.284 69.1701C106.063 71.097 111.01 73.7948 116.566 69.1701C118.589 71.0746 123.862 73.741 128.775 69.1701C129.774 70.156 132.372 72.0471 134.77 71.7244C137.109 71.8589 142.022 70.6624 142.958 64.8008V58.2132L133.966 47.4581V41.341C133.966 40.8481 133.615 39.8488 132.211 39.795H120.587V34.8207C120.636 34.3278 120.339 33.3284 118.759 33.2747H53.1828C52.5248 33.2971 51.1943 33.6645 51.1358 34.9552V39.7278H39.4387C38.8782 39.795 37.7573 40.2252 37.7573 41.4083V47.4581L28.8382 58.146ZM32.3474 60.2298V65.0024C32.3474 66.2796 33.3708 68.4307 36.7338 68.4307C40.0095 68.4307 41.1202 66.1452 41.1202 65.0024V60.2298H32.3474ZM44.6293 65.0024V60.2298H53.4021V65.0024C53.4021 66.1452 52.2914 68.4307 49.0157 68.4307C45.6528 68.4307 44.6293 66.2796 44.6293 65.0024ZM56.9112 60.2298V65.0024C56.9112 66.2796 57.9347 68.4307 61.2976 68.4307C64.5733 68.4307 65.684 66.1452 65.684 65.0024V60.2298H56.9112ZM69.1931 65.0024V60.2298H77.9659V65.0024C77.9659 66.1452 76.8552 68.4307 73.5795 68.4307C70.2166 68.4307 69.1931 66.2796 69.1931 65.0024ZM81.475 60.2298V65.0024C81.475 66.2796 82.4985 68.4307 85.8615 68.4307C89.1371 68.4307 90.2478 66.1452 90.2478 65.0024V60.2298H81.475ZM93.7569 65.0024V60.2298H102.53V65.0024C102.53 66.1452 101.419 68.4307 98.1433 68.4307C94.7804 68.4307 93.7569 66.2796 93.7569 65.0024ZM106.039 60.2298V65.0024C106.039 66.2796 107.062 68.4307 110.425 68.4307C113.701 68.4307 114.812 66.1452 114.812 65.0024V60.2298H106.039ZM118.321 65.0024V60.2298H127.094V65.0024C127.094 66.1452 125.983 68.4307 122.707 68.4307C119.344 68.4307 118.321 66.2796 118.321 65.0024ZM130.603 60.2298V65.0024C130.603 66.2796 131.626 68.4307 134.989 68.4307C138.265 68.4307 139.375 66.1452 139.375 65.0024V60.2298H130.603ZM40.3891 49.6091L34.3212 56.9361H137.548L131.261 49.6091H40.3891ZM41.4126 43.0888V46.2481H130.456V43.0888H119.71C118.735 43.2008 116.844 42.9543 117.078 41.0722V36.5012H54.6449V39.795H92.0024C92.9528 39.795 93.7569 40.1849 93.7569 41.4755C93.7569 42.7661 92.7334 43.0888 92.0024 43.0888H41.4126Z" fill="#516678"/>
<rect x="15.912" y="156.268" width="143.033" height="4.26364" rx="2.13182" fill="#516678"/>
<rect x="161.158" y="156.268" width="7.15163" height="4.26364" rx="2.13182" fill="#20A2DC"/>
<rect x="6.71698" y="156.268" width="7.15163" height="4.26364" rx="2.13182" fill="#20A2DC"/>
<rect x="64.4409" y="164.454" width="45.6342" height="4.26364" rx="2.13182" fill="#20A2DC"/>
<rect x="72.7844" y="170.764" width="30.139" height="4.26364" rx="2.13182" fill="#20A2DC"/>
<rect x="83.1714" y="167.353" width="8.68413" height="4.26364" fill="#20A2DC"/>
<rect x="112.118" y="164.454" width="12.6005" height="4.26364" rx="2.13182" fill="#20A2DC"/>
<rect x="49.7971" y="164.454" width="12.6005" height="4.26364" rx="2.13182" fill="#20A2DC"/>
<rect x="170.353" y="156.268" width="4.25692" height="4.26364" rx="2.12846" fill="#20A2DC"/>
<rect x="0.24646" y="156.268" width="4.25692" height="4.26364" rx="2.12846" fill="#20A2DC"/>
</svg>
