<svg width="175" height="175" viewBox="0 0 175 175" fill="none" xmlns="http://www.w3.org/2000/svg">
<path d="M79.8688 87.2816V82.3008L82.6229 84.8205V88.3363C83.2323 89.9771 86.2755 91.5983 87.7209 92.2038C90.5335 91.0787 92.0571 89.3911 92.4673 88.6879H98.9716L104.714 91.2662C106.449 91.7819 107.156 92.7311 107.292 93.1413H101.55L94.987 90.1528C94.4713 91.1842 92.8188 92.5749 92.0571 93.1413H83.3846C82.4471 92.8601 80.9626 91.0318 80.3376 90.1528L73.8333 93.1413H68.0321C68.454 92.4381 69.6533 91.7545 70.2002 91.5006L79.8688 87.2816Z" fill="#516678"/>
<path fill-rule="evenodd" clip-rule="evenodd" d="M83.9706 87.0467C83.619 86.5975 83.0213 85.1482 83.4432 82.9449C82.6424 82.1245 80.9353 79.6166 80.5134 76.1476C80.8064 75.3272 83.1503 73.3935 84.9082 73.8037C87.3693 74.9756 89.1272 75.3858 92.4673 74.3897C93.2876 74.2725 94.694 74.7999 94.694 75.6788C94.6549 76.7531 94.2955 79.1478 93.6392 80.1322H96.8035C97.0769 79.5267 97.5066 78.0227 97.6238 75.6788V74.0381V72.3388C97.6238 69.7019 94.6354 63.1585 87.6623 63.0218C80.6892 62.885 77.6421 69.8777 77.6421 72.7489V75.8546C77.7983 78.5306 79.2828 84.5153 83.9706 87.0467ZM80.6306 71.9875C80.9041 69.9952 82.6933 66.0106 87.6623 66.0106C92.6314 66.0106 94.4206 69.878 94.694 71.8117C94.3425 71.6945 93.5547 71.5008 93.2291 71.4601C92.7603 71.4015 92.0572 71.4015 90.2406 71.9875C89.2043 72.3218 87.6195 71.7621 86.3918 71.3284C85.898 71.154 85.462 71 85.1427 70.9328L84.3809 70.8742H83.9707H83.6191C83.0917 70.9132 81.744 71.2844 80.6306 71.9875Z" fill="#20A2DC"/>
<path fill-rule="evenodd" clip-rule="evenodd" d="M72.6614 75.9721C72.72 76.4409 73.0716 77.3668 74.0091 77.3199C74.9467 77.273 75.4155 76.48 75.5327 76.0893V71.6359C75.7866 67.9052 78.568 60.3969 87.6623 60.2094C96.3694 60.0299 99.792 68.2959 99.792 71.6359V82.4765L99.3818 83.0038H90.0208C89.6141 82.4697 88.9714 82.125 88.2483 82.125C87.0185 82.125 86.0216 83.1219 86.0216 84.3517C86.0216 85.5815 87.0185 86.5784 88.2483 86.5784C88.8888 86.5784 89.4661 86.308 89.8723 85.8751H99.5576C100.495 85.8751 102.663 84.586 102.663 82.4765V71.8117C102.663 67.0067 98.4443 57.3381 87.6623 57.3381C76.8804 57.3381 72.6614 66.7723 72.6614 72.3391V75.9721Z" fill="#516678"/>
<path fill-rule="evenodd" clip-rule="evenodd" d="M69.3801 95.8958C67.505 95.8958 64.3994 97.5951 64.5751 101.052L66.4502 111.467C66.7933 113.134 67.5646 114.975 69.2819 115.594C69.1602 115.349 69.0679 115.052 69.018 114.69L67.4465 100.525C67.4465 99.7635 68.1497 98.7674 69.556 98.7674H106.531C107.586 98.7674 108.707 99.5877 108.582 100.877C108.441 102.33 107.538 110.139 106.952 114.924C106.939 115.027 106.916 115.142 106.879 115.263C108.244 114.577 109.194 113.271 109.519 111.467L111.512 101.052C111.746 99.2944 110.047 95.8958 106.648 95.8958H69.3801ZM90.6736 118.717L87.6428 119.151L81.8363 118.28L87.1874 119.455L90.6736 118.717Z" fill="#516678"/>
<circle cx="88.0142" cy="108.728" r="2.2267" fill="#20A2DC"/>
<path fill-rule="evenodd" clip-rule="evenodd" d="M87.9141 121.39C108.297 121.39 124.821 104.867 124.821 84.4834C124.821 64.1002 108.297 47.5764 87.9141 47.5764C67.5309 47.5764 51.0071 64.1002 51.0071 84.4834C51.0071 104.867 67.5309 121.39 87.9141 121.39ZM87.823 117.381C105.841 117.381 120.447 102.775 120.447 84.7568C120.447 66.7391 105.841 52.1328 87.823 52.1328C69.8053 52.1328 55.199 66.7391 55.199 84.7568C55.199 102.775 69.8053 117.381 87.823 117.381Z" fill="#516678"/>
<path fill-rule="evenodd" clip-rule="evenodd" d="M85.727 120.935H90.01V125.673H91.3769C92.4705 125.673 95.5689 126.949 95.5689 129.683V154.288L80.077 154.47V129.683C80.077 128.407 81.444 125.673 84.3601 125.673H85.727V120.935ZM91.2858 130.139H84.36V152.556H91.2858V130.139Z" fill="#516678"/>
<path fill-rule="evenodd" clip-rule="evenodd" d="M38.711 102.572C42.268 102.572 48.9262 104.944 48.9262 111.693C48.9262 116.983 47.0108 127.445 38.711 127.016C30.3198 126.582 28.8606 117.165 28.8606 111.693C28.8606 108.41 31.4144 102.572 38.711 102.572ZM33.4209 111.146C33.2993 115.007 33.9682 122.455 38.711 122.455C44.3659 122.455 44.3659 114.903 44.3659 111.431V111.419C44.3659 109.96 42.9978 107.041 38.9846 107.041C35.4223 107.041 33.4698 109.595 33.4209 111.146Z" fill="#20A2DC"/>
<path d="M21.1081 153.192V140.788C21.1081 139.876 22.9323 138.508 24.4828 137.778L32.8739 134.039L38.2551 138.508H39.2584L44.9132 134.039L51.5714 137.049C55.3108 138.508 56.679 140.15 56.679 140.788V153.284C56.679 154.013 57.5 155.29 58.9592 155.29C60.4184 155.29 61.1482 154.104 61.1482 153.192V140.15C61.1482 138.234 57.7734 135.042 56.223 134.312L44.9132 129.205H44.0924L38.8023 133.218L33.8771 129.205H32.8739L22.2026 134.039C18.0071 135.954 16.7302 138.964 16.7302 140.15V153.192C16.6694 153.8 17.0037 155.199 18.8279 155.199C20.4696 155.199 21.1081 153.922 21.1081 153.192Z" fill="#516678"/>
<path fill-rule="evenodd" clip-rule="evenodd" d="M136.401 102.618C139.955 102.618 146.607 104.987 146.607 111.731C146.607 117.016 144.693 127.469 136.401 127.04C128.017 126.607 126.559 117.198 126.559 111.731C126.559 108.45 129.111 102.618 136.401 102.618ZM131.115 111.184C130.994 115.042 131.662 122.484 136.401 122.484C142.051 122.484 142.051 114.938 142.051 111.47V111.457C142.051 109.999 140.684 107.083 136.674 107.083C133.115 107.083 131.164 109.635 131.115 111.184Z" fill="#20A2DC"/>
<path d="M118.813 153.194V140.801C118.813 139.89 120.636 138.523 122.185 137.794L130.569 134.057L135.945 138.523H136.948L142.598 134.057L149.25 137.065C152.986 138.523 154.353 140.163 154.353 140.801V153.285C154.353 154.014 155.173 155.29 156.631 155.29C158.089 155.29 158.818 154.106 158.818 153.194V140.163C158.818 138.249 155.447 135.06 153.898 134.331L142.598 129.228H141.777L136.492 133.237L131.571 129.228H130.569L119.907 134.057C115.715 135.971 114.439 138.978 114.439 140.163V153.194C114.378 153.802 114.712 155.199 116.535 155.199C118.175 155.199 118.813 153.923 118.813 153.194Z" fill="#516678"/>
<path fill-rule="evenodd" clip-rule="evenodd" d="M40.8235 16.1262C44.2245 16.1262 50.5905 18.3936 50.5905 24.8468C50.5905 29.9047 48.7592 39.9078 40.8235 39.4973C32.8006 39.0823 31.4054 30.0791 31.4053 24.8468C31.4053 21.7074 33.8471 16.1262 40.8235 16.1262ZM35.7656 24.3236C35.6493 28.0152 36.2888 35.137 40.8235 35.137C46.2303 35.137 46.2303 27.9158 46.2303 24.5968V24.5852C46.2303 23.1899 44.9222 20.3993 41.0852 20.3993C37.6791 20.3993 35.8123 22.841 35.7656 24.3236Z" fill="#20A2DC"/>
<path fill-rule="evenodd" clip-rule="evenodd" d="M117.477 57.5737V52.6654C117.477 51.7934 119.221 50.4853 120.704 49.7876L128.727 46.2122L133.872 50.4853H134.831L140.238 46.2122L146.604 49.09C150.179 50.4853 151.487 52.055 151.487 52.6654V64.6126C151.487 65.3102 152.272 66.5311 153.667 66.5311C155.063 66.5311 155.76 65.3974 155.76 64.5254V52.055C155.76 50.2237 152.534 47.1715 151.051 46.4738L140.238 41.5903H139.453L134.395 45.4274L129.686 41.5903H128.727L118.524 46.2122C114.512 48.0435 113.291 50.9213 113.291 52.055V53.42C114.788 54.6982 116.188 56.087 117.477 57.5737Z" fill="#516678"/>
<path fill-rule="evenodd" clip-rule="evenodd" d="M23.993 52.6654V64.5254C23.993 65.223 23.3825 66.4439 21.8129 66.4439C20.0687 66.4439 19.749 65.1067 19.8071 64.5254V52.055C19.8071 50.9213 21.028 48.0435 25.0395 46.2122L35.2425 41.5903H36.2018L40.9109 45.4274L45.9688 41.5903H46.7536L57.5671 46.4738C59.0495 47.1715 62.2762 50.2237 62.2762 52.055V53.4838C60.7448 54.7982 59.3159 56.2286 58.0032 57.7614V52.6654C58.0032 52.055 56.695 50.4853 53.1196 49.09L46.7536 46.2122L41.3469 50.4853H40.3876L35.2425 46.2122L27.2196 49.7876C25.7371 50.4853 23.993 51.7934 23.993 52.6654Z" fill="#516678"/>
<path fill-rule="evenodd" clip-rule="evenodd" d="M134.308 16.1262C137.709 16.1262 144.075 18.3936 144.075 24.8468C144.075 29.9047 142.244 39.9078 134.308 39.4973C126.285 39.0823 124.89 30.0791 124.89 24.8468C124.89 21.7074 127.331 16.1262 134.308 16.1262ZM129.25 24.3236C129.134 28.0152 129.773 35.137 134.308 35.137C139.715 35.137 139.715 27.9158 139.715 24.5968V24.5852C139.715 23.1899 138.406 20.3993 134.569 20.3993C131.163 20.3993 129.297 22.841 129.25 24.3236Z" fill="#20A2DC"/>
<path d="M169.046 153.805H6.46982C5.54439 153.734 3.67217 154.124 3.58674 156.256C3.50132 158.388 5.18845 158.992 6.0427 159.028H169.579C170.291 158.957 171.715 158.303 171.715 156.256C171.715 154.21 169.935 153.769 169.046 153.805Z" fill="#516678"/>
</svg>
