<svg width="175" height="176" viewBox="0 0 175 176" fill="none" xmlns="http://www.w3.org/2000/svg">
<path d="M12.0033 63.7288L10.866 64.2983L12.4772 66.3866H10.0131V67.4307L12.4772 66.9561L10.866 69.3292L12.0033 69.8987L12.951 67.4307L14.0883 69.8987L15.2256 69.1393L13.6144 66.9561L16.2681 67.4307V66.3866H13.6144L15.2256 64.2983L14.3726 63.7288L12.951 66.0069L12.0033 63.7288Z" fill="#20A2DC"/>
<path d="M40.7025 16.9412L39.5652 17.5107L41.1764 19.599H38.7123V20.6431L41.1764 20.1685L39.5652 22.5416L40.7025 23.1111L41.6502 20.6431L42.7875 23.1111L43.9248 22.3517L42.3136 20.1685L44.9673 20.6431V19.599H42.3136L43.9248 17.5107L43.0718 16.9412L41.6502 19.2193L40.7025 16.9412Z" fill="#20A2DC"/>
<path d="M160.383 35.0109L159.246 35.5804L160.857 37.6687H158.393V38.7128L160.857 38.2382L159.246 40.6113L160.383 41.1808L161.331 38.7128L162.468 41.1808L163.605 40.4214L161.994 38.2382L164.648 38.7128V37.6687H161.994L163.605 35.5804L162.752 35.0109L161.331 37.289L160.383 35.0109Z" fill="#20A2DC"/>
<path d="M121.697 12.4669L120.56 13.0365L122.171 15.1247H119.707V16.1689L122.171 15.6943L120.56 18.0673L121.697 18.6369L122.645 16.1689L123.782 18.6369L124.919 17.8775L123.308 15.6943L125.962 16.1689V15.1247H123.308L124.919 13.0365L124.066 12.4669L122.645 14.7451L121.697 12.4669Z" fill="#20A2DC"/>
<path d="M82.9515 11.338L82.4346 11.6184L83.1669 12.6465H82.0469V13.1605L83.1669 12.9269L82.4346 14.0951L82.9515 14.3755L83.3823 13.1605L83.8993 14.3755L84.4162 14.0017L83.6839 12.9269L84.8901 13.1605V12.6465H83.6839L84.4162 11.6184L84.0285 11.338L83.3823 12.4596L82.9515 11.338Z" fill="#20A2DC"/>
<path fill-rule="evenodd" clip-rule="evenodd" d="M20.5736 20.1589C21.8298 20.1589 22.8482 19.139 22.8482 17.8808C22.8482 16.6226 21.8298 15.6027 20.5736 15.6027C19.3174 15.6027 18.2991 16.6226 18.2991 17.8808C18.2991 19.139 19.3174 20.1589 20.5736 20.1589ZM20.5437 18.6002C20.9569 18.6002 21.2919 18.2647 21.2919 17.8508C21.2919 17.437 20.9569 17.1014 20.5437 17.1014C20.1305 17.1014 19.7955 17.437 19.7955 17.8508C19.7955 18.2647 20.1305 18.6002 20.5437 18.6002Z" fill="#516678"/>
<path fill-rule="evenodd" clip-rule="evenodd" d="M12.3801 53.6515C13.6363 53.6515 14.6547 52.6315 14.6547 51.3734C14.6547 50.1152 13.6363 49.0952 12.3801 49.0952C11.1239 49.0952 10.1056 50.1152 10.1056 51.3734C10.1056 52.6315 11.1239 53.6515 12.3801 53.6515ZM12.3502 52.0928C12.7634 52.0928 13.0984 51.7573 13.0984 51.3434C13.0984 50.9295 12.7634 50.594 12.3502 50.594C11.937 50.594 11.602 50.9295 11.602 51.3434C11.602 51.7573 11.937 52.0928 12.3502 52.0928Z" fill="#516678"/>
<path fill-rule="evenodd" clip-rule="evenodd" d="M64.9591 25.7335C67.1722 25.7335 68.9662 23.9367 68.9662 21.7201C68.9662 19.5035 67.1722 17.7067 64.9591 17.7067C62.7461 17.7067 60.952 19.5035 60.952 21.7201C60.952 23.9367 62.7461 25.7335 64.9591 25.7335ZM64.9063 22.9874C65.6343 22.9874 66.2245 22.3963 66.2245 21.6672C66.2245 20.9381 65.6343 20.347 64.9063 20.347C64.1784 20.347 63.5882 20.9381 63.5882 21.6672C63.5882 22.3963 64.1784 22.9874 64.9063 22.9874Z" fill="#516678"/>
<path fill-rule="evenodd" clip-rule="evenodd" d="M145.686 22.0863C147.008 22.0863 148.079 21.0132 148.079 19.6895C148.079 18.3658 147.008 17.2927 145.686 17.2927C144.365 17.2927 143.293 18.3658 143.293 19.6895C143.293 21.0132 144.365 22.0863 145.686 22.0863ZM145.655 20.4462C146.09 20.4462 146.442 20.0932 146.442 19.6577C146.442 19.2223 146.09 18.8693 145.655 18.8693C145.22 18.8693 144.868 19.2223 144.868 19.6577C144.868 20.0932 145.22 20.4462 145.655 20.4462Z" fill="#516678"/>
<path fill-rule="evenodd" clip-rule="evenodd" d="M159.07 63.4512C160.391 63.4512 161.463 62.3781 161.463 61.0544C161.463 59.7307 160.391 58.6576 159.07 58.6576C157.748 58.6576 156.677 59.7307 156.677 61.0544C156.677 62.3781 157.748 63.4512 159.07 63.4512ZM159.038 61.811C159.473 61.811 159.825 61.458 159.825 61.0226C159.825 60.5872 159.473 60.2342 159.038 60.2342C158.603 60.2342 158.251 60.5872 158.251 61.0226C158.251 61.458 158.603 61.811 159.038 61.811Z" fill="#516678"/>
<rect x="15.912" y="156.268" width="143.033" height="4.26364" rx="2.13182" fill="#516678"/>
<rect x="161.158" y="156.268" width="7.15163" height="4.26364" rx="2.13182" fill="#20A2DC"/>
<rect x="6.71698" y="156.268" width="7.15163" height="4.26364" rx="2.13182" fill="#20A2DC"/>
<rect x="64.4409" y="164.454" width="45.6342" height="4.26364" rx="2.13182" fill="#20A2DC"/>
<rect x="72.7844" y="170.764" width="30.139" height="4.26364" rx="2.13182" fill="#20A2DC"/>
<rect x="83.1714" y="167.353" width="8.68413" height="4.26364" fill="#20A2DC"/>
<rect x="112.118" y="164.454" width="12.6005" height="4.26364" rx="2.13182" fill="#20A2DC"/>
<rect x="49.7971" y="164.454" width="12.6005" height="4.26364" rx="2.13182" fill="#20A2DC"/>
<rect x="170.353" y="156.268" width="4.25692" height="4.26364" rx="2.12846" fill="#20A2DC"/>
<rect x="0.24646" y="156.268" width="4.25692" height="4.26364" rx="2.12846" fill="#20A2DC"/>
<path fill-rule="evenodd" clip-rule="evenodd" d="M33.7229 37.7943C33.7229 35.5483 35.1218 31.1427 40.029 31.1427C44.9529 31.1427 46.335 35.5483 46.335 37.7943V46.4327C46.335 48.506 44.8665 52.3069 40.029 52.3069C35.3276 52.3069 33.7229 48.2468 33.7229 46.4327V37.7943ZM38.0422 37.276C38.0422 36.585 38.6469 35.3756 40.1154 35.3756C41.4975 35.3756 42.1022 36.585 42.1022 37.276V46.1736C42.1022 46.8647 41.4112 48.0741 40.1154 48.0741C38.6469 48.0741 38.0422 46.8647 38.0422 46.3464V37.276Z" fill="#20A2DC"/>
<path fill-rule="evenodd" clip-rule="evenodd" d="M65.3396 37.7079C65.3396 35.4619 66.7385 31.0563 71.6457 31.0563C76.5696 31.0563 77.9517 35.4619 77.9517 37.7079V46.3463C77.9517 48.4195 76.4832 52.2204 71.6457 52.2204C66.9443 52.2204 65.3396 48.1604 65.3396 46.3463V37.7079ZM69.6589 37.1896C69.6589 36.4985 70.2636 35.2891 71.7321 35.2891C73.1142 35.2891 73.7189 36.4985 73.7189 37.1896V46.0872C73.7189 46.7783 73.0279 47.9876 71.7321 47.9876C70.2636 47.9876 69.6589 46.7783 69.6589 46.26V37.1896Z" fill="#20A2DC"/>
<path fill-rule="evenodd" clip-rule="evenodd" d="M96.9563 37.7079C96.9563 35.4619 98.3552 31.0563 103.262 31.0563C108.186 31.0563 109.568 35.4619 109.568 37.7079V46.3463C109.568 48.4195 108.1 52.2204 103.262 52.2204C98.561 52.2204 96.9563 48.1604 96.9563 46.3463V37.7079ZM101.275 37.1896C101.275 36.4985 101.88 35.2891 103.349 35.2891C104.731 35.2891 105.336 36.4985 105.336 37.1896V46.0872C105.336 46.7783 104.644 47.9876 103.349 47.9876C101.88 47.9876 101.275 46.7783 101.275 46.26V37.1896Z" fill="#20A2DC"/>
<path fill-rule="evenodd" clip-rule="evenodd" d="M128.573 37.7079C128.573 35.4619 129.972 31.0563 134.879 31.0563C139.803 31.0563 141.185 35.4619 141.185 37.7079V46.3463C141.185 48.4195 139.717 52.2204 134.879 52.2204C130.178 52.2204 128.573 48.1604 128.573 46.3463V37.7079ZM132.892 37.1896C132.892 36.4985 133.497 35.2891 134.965 35.2891C136.348 35.2891 136.952 36.4985 136.952 37.1896V46.0872C136.952 46.7783 136.261 47.9876 134.965 47.9876C133.497 47.9876 132.892 46.7783 132.892 46.26V37.1896Z" fill="#20A2DC"/>
<path d="M61.2795 39.522H50.5679V43.8412H61.2795V39.522Z" fill="#516678"/>
<path d="M92.8098 39.522H82.0981V43.8412H92.8098V39.522Z" fill="#516678"/>
<path d="M124.427 39.522H113.715V43.8412H124.427V39.522Z" fill="#516678"/>
<path fill-rule="evenodd" clip-rule="evenodd" d="M65.1034 84.7874H71.8813C74.1405 84.7874 75.8785 86.3423 75.8785 88.5019V95.8446C75.8785 97.2267 74.3143 99.4727 71.8813 99.4727H65.451C63.7131 99.4727 61.1931 98.1769 61.1931 95.8446V88.5019C61.1932 87.2925 62.3228 84.7874 65.1034 84.7874ZM65.3396 89.0201V95.2398H71.5593V89.0201H65.3396Z" fill="#516678"/>
<path fill-rule="evenodd" clip-rule="evenodd" d="M84.1079 84.9602H90.8858C93.1451 84.9602 94.883 86.5151 94.883 88.6747V96.0174C94.883 97.3996 93.3188 99.6455 90.8858 99.6455H84.4555C82.7176 99.6455 80.1976 98.3498 80.1976 96.0174V88.6747C80.1977 87.4654 81.3274 84.9602 84.1079 84.9602ZM84.3441 89.1929V95.4126H90.5638V89.1929H84.3441Z" fill="#20A2DC"/>
<path fill-rule="evenodd" clip-rule="evenodd" d="M109.89 84.9602H103.113C100.332 84.9602 99.2024 87.4654 99.2023 88.6747V96.0174C99.2023 97.5702 100.319 98.6636 101.579 99.221C103.789 97.6308 105.64 96.316 106.316 95.8816C106.73 95.6158 107.176 95.4677 107.625 95.4126H103.349V89.1929H109.568V95.4126H108.47C110.024 95.5942 111.409 96.7256 111.409 97.7413V99.3332C112.954 98.6679 113.888 97.085 113.888 96.0174V88.6747C113.888 86.5151 112.15 84.9602 109.89 84.9602Z" fill="#516678"/>
<path fill-rule="evenodd" clip-rule="evenodd" d="M122.117 84.9602H128.895C131.154 84.9602 132.892 86.5151 132.892 88.6747V96.0174C132.892 97.3996 131.328 99.6455 128.895 99.6455H122.465C120.727 99.6455 118.207 98.3498 118.207 96.0174V88.6747C118.207 87.4654 119.336 84.9602 122.117 84.9602ZM122.353 89.1929V95.4126H128.573V89.1929H122.353Z" fill="#20A2DC"/>
<path fill-rule="evenodd" clip-rule="evenodd" d="M46.0988 84.8738H52.8766C55.1359 84.8738 56.8738 86.4287 56.8738 88.5883V95.931C56.8738 97.3131 55.3097 99.5591 52.8766 99.5591H46.4464C44.7084 99.5591 42.1885 98.2634 42.1885 95.931V88.5883C42.1886 87.3789 43.3182 84.8738 46.0988 84.8738ZM46.335 89.1065V95.3262H52.5547V89.1065H46.335Z" fill="#20A2DC"/>
<path fill-rule="evenodd" clip-rule="evenodd" d="M128.722 104.137H121.944C119.164 104.137 118.034 106.642 118.034 107.852V115.195C118.034 117.527 120.554 118.823 122.292 118.823H128.722C131.155 118.823 132.719 116.577 132.719 115.195V107.852C132.719 105.692 130.981 104.137 128.722 104.137ZM122.181 108.37V114.59H128.4V108.37H122.181Z" fill="#516678"/>
<path fill-rule="evenodd" clip-rule="evenodd" d="M111.408 104.458V118.431C112.851 117.726 113.715 116.222 113.715 115.195V107.852C113.715 106.275 112.788 105.02 111.408 104.458Z" fill="#20A2DC"/>
<path fill-rule="evenodd" clip-rule="evenodd" d="M90.4842 107.285C90.4842 107.285 91.7815 106.335 93.6397 104.98C92.9161 104.244 91.8626 103.805 90.6618 103.805H83.8839C81.2726 103.805 80.1173 106.014 79.9863 107.285H90.4842Z" fill="#516678"/>
<path fill-rule="evenodd" clip-rule="evenodd" d="M61.0544 107.285H75.6862C75.4885 105.333 73.828 103.965 71.7087 103.965H64.9309C62.4261 103.965 61.261 105.997 61.0544 107.285Z" fill="#20A2DC"/>
<path fill-rule="evenodd" clip-rule="evenodd" d="M42.0648 107.285H56.6717C56.4344 105.379 54.7918 104.051 52.704 104.051H45.9261C43.4767 104.051 42.3084 105.995 42.0648 107.285Z" fill="#516678"/>
<path d="M25.779 39.522H29.5765V43.8412H26.5531C24.9117 43.8412 24.1377 45.137 24.1377 46.0872V61.6364H150.691V45.5689C150.515 44.1003 149.996 43.8412 148.528 43.8412H145.332V39.522H148.96C153.624 39.522 154.837 43.7548 154.837 45.5689V135.754C154.768 140.039 150.892 141.571 148.963 141.801H110.72V137.482H148.441C150.169 137.482 150.662 136.186 150.691 135.495V65.9556H24.2207V135.668C24.2207 137.05 25.3437 137.482 26.2075 137.482H29.7827V141.628H25.3437C21.5426 141.628 19.9912 137.655 20.0776 135.668V45.5689C20.0776 41.0769 23.8785 39.522 25.779 39.522Z" fill="#516678"/>
<path fill-rule="evenodd" clip-rule="evenodd" d="M33.8093 107.285H37.9558V84.7874C37.9558 82.0231 40.2882 80.7273 43.1388 80.7273H132.633C136.088 80.7273 137.039 83.4052 137.039 85.1329V118.477C137.039 122.019 134.102 122.796 132.633 122.796H111.408V127.029H132.547C139.198 127.029 141.099 121.069 141.099 118.477V84.5282C141.099 78.7405 135.484 76.4081 132.287 76.4081H42.3614C35.7098 76.4081 33.8093 82.5414 33.8093 84.7874V107.285Z" fill="#516678"/>
<path fill-rule="evenodd" clip-rule="evenodd" d="M107.218 103.912V154.385C107.218 155.947 105.4 157.651 102.672 157.651H36.4465C35.0826 157.651 33.1125 156.515 33.1125 154.385V116.187C33.1125 114.483 34.1734 112.495 37.2043 112.495H88.3828C88.3828 112.495 100.724 103.466 102.634 102.24C104.544 101.014 107.218 102.575 107.218 103.912ZM90.1561 118.072L101.488 109.933V150.961C101.488 152.188 99.9604 153.526 97.6685 153.526H42.0256C40.8796 153.526 39.2243 152.634 39.2243 150.961V120.971C39.2243 119.633 40.1156 118.072 42.6622 118.072H90.1561Z" fill="#516678"/>
<path d="M82.9469 131.585C81.657 131.533 81.4506 132.952 81.7602 133.391C82.9986 135.145 82.2761 136.074 81.6054 137.003C80.8314 138.241 82.3475 139.428 83.3597 138.654C85.0624 137.352 85.0624 135.713 85.0108 134.629C84.7528 132.411 83.6176 131.612 82.9469 131.585Z" fill="#516678"/>
<path d="M85.7331 139.531C89.0765 135.61 87.2294 132.015 85.8363 130.605C85.5098 130.274 85.5571 129.712 85.6299 129.47C86.0169 128.18 87.2294 128.441 87.539 128.696C88.4161 129.418 90.1601 131.688 90.1188 134.99C90.0775 138.293 88.3817 140.632 87.539 141.388C86.6102 142.214 85.7331 142.111 85.2687 141.285C84.8333 140.511 85.4251 139.892 85.7331 139.531Z" fill="#20A2DC"/>
<path d="M89.3963 143.297C95.299 136.817 92.1654 129.865 89.8607 127.199C89.1899 125.651 90.841 125.135 91.615 125.651C98.1678 133.236 94.4528 141.646 91.4086 144.897C90.9958 145.258 90.5315 145.172 90.3251 145.155C89.0867 145 89.0352 143.694 89.3963 143.297Z" fill="#516678"/>
<path d="M57.656 131.641C58.9459 131.589 59.1523 133.008 58.8427 133.447C57.6043 135.201 58.3268 136.13 58.9975 137.058C59.7715 138.297 58.2554 139.484 57.2432 138.71C55.5405 137.408 55.5405 135.769 55.5921 134.685C55.8501 132.466 56.9853 131.668 57.656 131.641Z" fill="#516678"/>
<path d="M54.8697 139.587C51.5262 135.665 53.3734 132.071 54.7665 130.66C55.0929 130.33 55.0457 129.768 54.9729 129.525C54.5859 128.235 53.3734 128.496 53.0638 128.751C52.1867 129.474 50.4427 131.744 50.484 135.046C50.5253 138.348 52.2211 140.687 53.0638 141.444C53.9926 142.27 54.8697 142.166 55.3341 141.341C55.7695 140.567 55.1776 139.948 54.8697 139.587Z" fill="#20A2DC"/>
<path d="M51.2064 143.353C45.3038 136.873 48.4374 129.921 50.7421 127.255C51.4128 125.707 49.7617 125.191 48.9878 125.707C42.435 133.292 46.15 141.702 49.1942 144.953C49.607 145.314 50.0713 145.228 50.2777 145.211C51.516 145.056 51.5676 143.75 51.2064 143.353Z" fill="#516678"/>
<path d="M70.3696 139.478C68.2129 139.478 67.2886 138.047 67.2886 136.974V124.61C67.2886 123.417 68.3156 122.254 70.3696 122.254C72.4236 122.254 73.4505 123.775 73.4505 124.61V136.974C73.4505 137.928 72.5263 139.478 70.3696 139.478Z" fill="#20A2DC"/>
<circle cx="70.3696" cy="145.446" r="3.08099" fill="#20A2DC"/>
</svg>
