<svg width="175" height="176" viewBox="0 0 175 176" fill="none" xmlns="http://www.w3.org/2000/svg">
<path d="M12.0033 63.7288L10.866 64.2983L12.4772 66.3866H10.0131V67.4307L12.4772 66.9561L10.866 69.3292L12.0033 69.8987L12.951 67.4307L14.0883 69.8987L15.2256 69.1393L13.6144 66.9561L16.2681 67.4307V66.3866H13.6144L15.2256 64.2983L14.3726 63.7288L12.951 66.0069L12.0033 63.7288Z" fill="#20A2DC"/>
<path d="M40.7025 16.9412L39.5652 17.5108L41.1764 19.599H38.7123V20.6432L41.1764 20.1686L39.5652 22.5416L40.7025 23.1112L41.6502 20.6432L42.7875 23.1112L43.9248 22.3518L42.3136 20.1686L44.9673 20.6432V19.599H42.3136L43.9248 17.5108L43.0718 16.9412L41.6502 19.2194L40.7025 16.9412Z" fill="#20A2DC"/>
<path d="M160.383 35.0108L159.246 35.5803L160.857 37.6686H158.393V38.7128L160.857 38.2382L159.246 40.6112L160.383 41.1808L161.331 38.7128L162.468 41.1808L163.605 40.4214L161.994 38.2382L164.648 38.7128V37.6686H161.994L163.605 35.5803L162.752 35.0108L161.331 37.2889L160.383 35.0108Z" fill="#20A2DC"/>
<path d="M121.697 12.4669L120.56 13.0365L122.171 15.1247H119.707V16.1689L122.171 15.6943L120.56 18.0673L121.697 18.6369L122.645 16.1689L123.782 18.6369L124.919 17.8775L123.308 15.6943L125.962 16.1689V15.1247H123.308L124.919 13.0365L124.066 12.4669L122.645 14.7451L121.697 12.4669Z" fill="#20A2DC"/>
<path d="M82.9515 11.338L82.4346 11.6184L83.1669 12.6465H82.0469V13.1605L83.1669 12.9269L82.4346 14.0951L82.9515 14.3755L83.3823 13.1605L83.8993 14.3755L84.4162 14.0017L83.6839 12.9269L84.8901 13.1605V12.6465H83.6839L84.4162 11.6184L84.0285 11.338L83.3823 12.4596L82.9515 11.338Z" fill="#20A2DC"/>
<path fill-rule="evenodd" clip-rule="evenodd" d="M20.5736 20.159C21.8298 20.159 22.8482 19.139 22.8482 17.8809C22.8482 16.6227 21.8298 15.6027 20.5736 15.6027C19.3174 15.6027 18.2991 16.6227 18.2991 17.8809C18.2991 19.139 19.3174 20.159 20.5736 20.159ZM20.5437 18.6003C20.9569 18.6003 21.2919 18.2648 21.2919 17.8509C21.2919 17.437 20.9569 17.1015 20.5437 17.1015C20.1305 17.1015 19.7955 17.437 19.7955 17.8509C19.7955 18.2648 20.1305 18.6003 20.5437 18.6003Z" fill="#516678"/>
<path fill-rule="evenodd" clip-rule="evenodd" d="M12.3801 53.6515C13.6363 53.6515 14.6547 52.6315 14.6547 51.3734C14.6547 50.1152 13.6363 49.0952 12.3801 49.0952C11.1239 49.0952 10.1056 50.1152 10.1056 51.3734C10.1056 52.6315 11.1239 53.6515 12.3801 53.6515ZM12.3502 52.0928C12.7634 52.0928 13.0984 51.7573 13.0984 51.3434C13.0984 50.9295 12.7634 50.594 12.3502 50.594C11.937 50.594 11.602 50.9295 11.602 51.3434C11.602 51.7573 11.937 52.0928 12.3502 52.0928Z" fill="#516678"/>
<path fill-rule="evenodd" clip-rule="evenodd" d="M64.9591 25.7335C67.1722 25.7335 68.9662 23.9366 68.9662 21.72C68.9662 19.5035 67.1722 17.7066 64.9591 17.7066C62.7461 17.7066 60.952 19.5035 60.952 21.72C60.952 23.9366 62.7461 25.7335 64.9591 25.7335ZM64.9063 22.9874C65.6343 22.9874 66.2245 22.3963 66.2245 21.6671C66.2245 20.938 65.6343 20.3469 64.9063 20.3469C64.1784 20.3469 63.5882 20.938 63.5882 21.6671C63.5882 22.3963 64.1784 22.9874 64.9063 22.9874Z" fill="#516678"/>
<path fill-rule="evenodd" clip-rule="evenodd" d="M145.686 22.0863C147.008 22.0863 148.079 21.0132 148.079 19.6895C148.079 18.3658 147.008 17.2927 145.686 17.2927C144.365 17.2927 143.293 18.3658 143.293 19.6895C143.293 21.0132 144.365 22.0863 145.686 22.0863ZM145.655 20.4462C146.09 20.4462 146.442 20.0932 146.442 19.6577C146.442 19.2223 146.09 18.8693 145.655 18.8693C145.22 18.8693 144.868 19.2223 144.868 19.6577C144.868 20.0932 145.22 20.4462 145.655 20.4462Z" fill="#516678"/>
<path fill-rule="evenodd" clip-rule="evenodd" d="M159.07 63.4512C160.391 63.4512 161.463 62.3782 161.463 61.0544C161.463 59.7307 160.391 58.6577 159.07 58.6577C157.748 58.6577 156.677 59.7307 156.677 61.0544C156.677 62.3782 157.748 63.4512 159.07 63.4512ZM159.038 61.8111C159.473 61.8111 159.825 61.4581 159.825 61.0227C159.825 60.5872 159.473 60.2342 159.038 60.2342C158.603 60.2342 158.251 60.5872 158.251 61.0227C158.251 61.4581 158.603 61.8111 159.038 61.8111Z" fill="#516678"/>
<rect x="15.912" y="156.268" width="143.033" height="4.26364" rx="2.13182" fill="#516678"/>
<rect x="161.158" y="156.268" width="7.15163" height="4.26364" rx="2.13182" fill="#20A2DC"/>
<rect x="6.71698" y="156.268" width="7.15163" height="4.26364" rx="2.13182" fill="#20A2DC"/>
<rect x="64.4409" y="164.454" width="45.6342" height="4.26364" rx="2.13182" fill="#20A2DC"/>
<rect x="72.7845" y="170.764" width="30.139" height="4.26364" rx="2.13182" fill="#20A2DC"/>
<rect x="83.1713" y="167.353" width="8.68413" height="4.26364" fill="#20A2DC"/>
<rect x="112.118" y="164.454" width="12.6005" height="4.26364" rx="2.13182" fill="#20A2DC"/>
<rect x="49.7971" y="164.454" width="12.6005" height="4.26364" rx="2.13182" fill="#20A2DC"/>
<rect x="170.353" y="156.268" width="4.25692" height="4.26364" rx="2.12846" fill="#20A2DC"/>
<rect x="0.24646" y="156.268" width="4.25692" height="4.26364" rx="2.12846" fill="#20A2DC"/>
<path fill-rule="evenodd" clip-rule="evenodd" d="M33.723 37.7942C33.723 35.5482 35.1219 31.1426 40.029 31.1426C44.953 31.1426 46.3351 35.5482 46.3351 37.7942V46.4327C46.3351 48.5059 44.8666 52.3068 40.029 52.3068C35.3277 52.3068 33.723 48.2467 33.723 46.4327V37.7942ZM38.0422 37.276C38.0422 36.5849 38.6469 35.3755 40.1155 35.3755C41.4976 35.3755 42.1023 36.5849 42.1023 37.276V46.1736C42.1023 46.8646 41.4112 48.074 40.1155 48.074C38.6469 48.074 38.0422 46.8646 38.0422 46.3463V37.276Z" fill="#20A2DC"/>
<path fill-rule="evenodd" clip-rule="evenodd" d="M65.3397 37.7079C65.3398 35.4619 66.7387 31.0563 71.6458 31.0563C76.5697 31.0563 77.9518 35.4619 77.9518 37.7079V46.3463C77.9518 48.4195 76.4833 52.2204 71.6458 52.2204C66.9444 52.2204 65.3397 48.1604 65.3397 46.3463V37.7079ZM69.659 37.1896C69.659 36.4985 70.2637 35.2891 71.7322 35.2891C73.1144 35.2891 73.7191 36.4985 73.7191 37.1896V46.0872C73.7191 46.7783 73.028 47.9876 71.7322 47.9876C70.2637 47.9876 69.659 46.7783 69.659 46.26V37.1896Z" fill="#20A2DC"/>
<path fill-rule="evenodd" clip-rule="evenodd" d="M96.9563 37.7079C96.9563 35.4619 98.3552 31.0563 103.262 31.0563C108.186 31.0563 109.568 35.4619 109.568 37.7079V46.3463C109.568 48.4195 108.1 52.2204 103.262 52.2204C98.561 52.2204 96.9563 48.1604 96.9563 46.3463V37.7079ZM101.276 37.1896C101.276 36.4985 101.88 35.2891 103.349 35.2891C104.731 35.2891 105.336 36.4985 105.336 37.1896V46.0872C105.336 46.7783 104.645 47.9876 103.349 47.9876C101.88 47.9876 101.276 46.7783 101.276 46.26V37.1896Z" fill="#20A2DC"/>
<path fill-rule="evenodd" clip-rule="evenodd" d="M128.573 37.7079C128.573 35.4619 129.972 31.0563 134.879 31.0563C139.803 31.0563 141.185 35.4619 141.185 37.7079V46.3463C141.185 48.4195 139.717 52.2204 134.879 52.2204C130.178 52.2204 128.573 48.1604 128.573 46.3463V37.7079ZM132.892 37.1896C132.892 36.4985 133.497 35.2891 134.965 35.2891C136.348 35.2891 136.952 36.4985 136.952 37.1896V46.0872C136.952 46.7783 136.261 47.9876 134.965 47.9876C133.497 47.9876 132.892 46.7783 132.892 46.26V37.1896Z" fill="#20A2DC"/>
<path d="M61.2796 39.522H50.5679V43.8412H61.2796V39.522Z" fill="#516678"/>
<path d="M92.8099 39.522H82.0982V43.8412H92.8099V39.522Z" fill="#516678"/>
<path d="M124.427 39.522H113.715V43.8412H124.427V39.522Z" fill="#516678"/>
<path fill-rule="evenodd" clip-rule="evenodd" d="M65.1035 84.7873H71.8813C74.1406 84.7873 75.8785 86.3422 75.8785 88.5018V95.8445C75.8785 97.2266 74.3144 99.4726 71.8813 99.4726H65.4511C63.7131 99.4726 61.1932 98.1769 61.1932 95.8445V88.5018C61.1933 87.2924 62.3229 84.7873 65.1035 84.7873ZM65.3397 89.0201V95.2397H71.5594V89.0201H65.3397Z" fill="#516678"/>
<path fill-rule="evenodd" clip-rule="evenodd" d="M84.1081 84.9601H90.8859C93.1452 84.9601 94.8831 86.515 94.8831 88.6746V96.0173C94.8831 97.3994 93.319 99.6454 90.8859 99.6454H84.4556C82.7177 99.6454 80.1978 98.3497 80.1978 96.0173V88.6746C80.1978 87.4652 81.3275 84.9601 84.1081 84.9601ZM84.3443 89.1928V95.4125H90.564V89.1928H84.3443Z" fill="#20A2DC"/>
<path fill-rule="evenodd" clip-rule="evenodd" d="M103.113 84.9601H109.89C112.15 84.9601 113.888 86.515 113.888 88.6746V96.0173C113.888 97.3994 112.323 99.6454 109.89 99.6454H103.46C101.722 99.6454 99.2023 98.3497 99.2023 96.0173V88.6746C99.2024 87.4652 100.332 84.9601 103.113 84.9601ZM103.349 89.1928V95.4125H109.569V89.1928H103.349Z" fill="#516678"/>
<path fill-rule="evenodd" clip-rule="evenodd" d="M122.117 84.9601H128.895C131.154 84.9601 132.892 86.515 132.892 88.6746V96.0173C132.892 97.3994 131.328 99.6454 128.895 99.6454H122.465C120.727 99.6454 118.207 98.3497 118.207 96.0173V88.6746C118.207 87.4652 119.337 84.9601 122.117 84.9601ZM122.353 89.1928V95.4125H128.573V89.1928H122.353Z" fill="#20A2DC"/>
<path fill-rule="evenodd" clip-rule="evenodd" d="M46.0989 84.8737H52.8767C55.136 84.8737 56.8739 86.4286 56.8739 88.5882V95.9309C56.8739 97.3131 55.3098 99.5591 52.8767 99.5591H46.4465C44.7086 99.5591 42.1886 98.2633 42.1886 95.9309V88.5882C42.1887 87.3789 43.3183 84.8737 46.0989 84.8737ZM46.3351 89.1064V95.3261H52.5548V89.1064H46.3351Z" fill="#20A2DC"/>
<path fill-rule="evenodd" clip-rule="evenodd" d="M64.9308 103.965H71.7087C73.9679 103.965 75.7058 105.52 75.7058 107.679V115.022C75.7058 116.404 74.1417 118.65 71.7087 118.65H65.2784C63.5405 118.65 61.0205 117.354 61.0205 115.022V107.679C61.0206 106.47 62.1502 103.965 64.9308 103.965ZM65.167 108.197V114.417H71.3867V108.197H65.167Z" fill="#20A2DC"/>
<path fill-rule="evenodd" clip-rule="evenodd" d="M83.9354 104.137H90.7132C92.9725 104.137 94.7104 105.692 94.7104 107.852V115.195C94.7104 116.577 93.2418 117.959 92.6371 117.959C92.8099 116.836 92.6371 114.227 90.5639 112.776C90.5181 112.712 90.4606 112.644 90.3913 112.574V108.37H84.1716V111.566C84.1722 111.566 84.1728 111.566 84.1734 111.566C84.1727 111.566 84.1721 111.566 84.1714 111.567C83.3653 111.883 81.4073 112.931 80.0251 114.59V114.331V107.852C80.0252 106.643 81.1548 104.137 83.9354 104.137Z" fill="#516678"/>
<path fill-rule="evenodd" clip-rule="evenodd" d="M102.94 104.137H109.718C111.977 104.137 113.715 105.692 113.715 107.852V115.195C113.715 116.577 112.151 118.823 109.718 118.823H103.287C101.55 118.823 99.0296 117.527 99.0296 115.195V107.852C99.0297 106.643 100.159 104.137 102.94 104.137ZM103.176 108.37V114.59H109.396V108.37H103.176Z" fill="#20A2DC"/>
<path fill-rule="evenodd" clip-rule="evenodd" d="M121.945 104.137H128.722C130.982 104.137 132.72 105.692 132.72 107.852V115.195C132.72 116.577 131.155 118.823 128.722 118.823H122.292C120.554 118.823 118.034 117.527 118.034 115.195V107.852C118.034 106.643 119.164 104.137 121.945 104.137ZM122.181 108.37V114.59H128.4V108.37H122.181Z" fill="#516678"/>
<path fill-rule="evenodd" clip-rule="evenodd" d="M45.9262 104.051H52.7041C54.9634 104.051 56.7013 105.606 56.7013 107.766V115.108C56.7013 116.49 55.1371 118.736 52.7041 118.736H46.2738C44.5359 118.736 42.0159 117.441 42.0159 115.108V107.766C42.016 106.556 43.1457 104.051 45.9262 104.051ZM46.1624 108.284V114.503H52.3821V108.284H46.1624Z" fill="#516678"/>
<path d="M25.779 39.522H29.5766V43.8412H26.5531C24.9118 43.8412 24.1377 45.137 24.1377 46.0872V61.6364H150.691V45.5689C150.515 44.1003 149.996 43.8412 148.528 43.8412H145.332V39.522H148.96C153.624 39.522 154.837 43.7548 154.837 45.5689V135.754C154.768 140.039 150.892 141.571 148.963 141.801H92.7269V137.482H148.441C150.169 137.482 150.662 136.186 150.691 135.495V65.9556H24.2207V135.668C24.2207 137.05 25.3437 137.482 26.2076 137.482H33.7264V141.628H25.3437C21.5427 141.628 19.9913 137.655 20.0777 135.668V45.5689C20.0777 41.0769 23.8786 39.522 25.779 39.522Z" fill="#516678"/>
<path d="M35.7962 123.833C36.5737 122.796 37.6103 121.76 38.8197 121.069C38.1286 120.585 37.9558 119.859 37.9558 118.823V84.7874C37.9558 82.0231 40.2882 80.7273 43.1389 80.7273H132.633C136.088 80.7273 137.039 83.4052 137.039 85.1329V118.477C137.039 122.019 134.102 122.796 132.633 122.796H92.8099V127.029H132.547C139.198 127.029 141.099 121.069 141.099 118.477V84.5282C141.099 78.7405 135.484 76.4081 132.288 76.4081H42.3614C35.7098 76.4081 33.8094 82.5414 33.8094 84.7874V118.823C33.8094 121.501 35.1915 123.66 35.7962 123.833Z" fill="#516678"/>
<path fill-rule="evenodd" clip-rule="evenodd" d="M88.3179 117.095V156.202C88.3179 157.412 87.0841 158.732 85.2335 158.732H40.3041C39.3787 158.732 38.0422 157.852 38.0422 156.202V126.605C38.0422 125.285 38.7619 123.745 40.8181 123.745H75.5393C75.5393 123.745 83.9123 116.749 85.208 115.799C86.5038 114.849 88.3179 116.058 88.3179 117.095ZM76.7424 128.066L84.4306 121.76V153.549C84.4306 154.5 83.394 155.536 81.839 155.536H44.0891C43.3116 155.536 42.1886 154.845 42.1886 153.549V130.312C42.1886 129.275 42.7933 128.066 44.521 128.066H76.7424Z" fill="#516678"/>
<path d="M46.3351 137.482C46.3351 136.031 47.3717 135.409 48.1492 135.409H50.9998C51.8637 135.409 52.7275 136.1 52.7275 137.482C52.7275 138.864 51.6045 139.555 50.9998 139.555H47.89C47.1989 139.555 46.3351 138.933 46.3351 137.482Z" fill="#20A2DC"/>
<path d="M46.3351 145.947C46.3351 144.496 47.3717 143.874 48.1492 143.874H50.9998C51.8637 143.874 52.7275 144.565 52.7275 145.947C52.7275 147.33 51.6045 148.021 50.9998 148.021H47.89C47.1989 148.021 46.3351 147.399 46.3351 145.947Z" fill="#20A2DC"/>
<path d="M73.8053 145.947C73.8053 144.496 74.8419 143.874 75.6194 143.874H78.4701C79.3339 143.874 80.1977 144.565 80.1977 145.947C80.1977 147.33 79.0747 148.021 78.4701 148.021H75.3602C74.6691 148.021 73.8053 147.399 73.8053 145.947Z" fill="#20A2DC"/>
<path d="M73.8053 137.482C73.8053 136.031 74.8419 135.409 75.6194 135.409H78.4701C79.3339 135.409 80.1977 136.1 80.1977 137.482C80.1977 138.864 79.0747 139.555 78.4701 139.555H75.3602C74.6691 139.555 73.8053 138.933 73.8053 137.482Z" fill="#20A2DC"/>
<path d="M63.2664 142.838C61.8151 142.838 61.1932 141.801 61.1932 141.024V133.854C61.1932 132.99 61.8843 132.126 63.2664 132.126C64.6485 132.126 65.3396 133.249 65.3396 133.854V141.283C65.3396 141.974 64.7177 142.838 63.2664 142.838Z" fill="#516678"/>
<circle cx="63.18" cy="149.144" r="2.15961" fill="#516678"/>
</svg>
