<svg width="175" height="175" viewBox="0 0 175 175" fill="none" xmlns="http://www.w3.org/2000/svg">
<path fill-rule="evenodd" clip-rule="evenodd" d="M57.9418 90.0543C67.4045 90.0543 75.0755 82.3834 75.0755 72.9207C75.0755 63.4581 67.4045 55.7871 57.9418 55.7871C48.4792 55.7871 40.8082 63.4581 40.8082 72.9207C40.8082 82.3834 48.4792 90.0543 57.9418 90.0543ZM58.0387 85.2144C64.7748 85.2144 70.2355 79.7537 70.2355 73.0176C70.2355 66.2814 64.7748 60.8207 58.0387 60.8207C51.3026 60.8207 45.8419 66.2814 45.8419 73.0176C45.8419 79.7537 51.3026 85.2144 58.0387 85.2144Z" fill="#20A2DC"/>
<path d="M47.3907 54.5287C48.6297 53.4446 51.0691 52.6573 52.1339 52.3991V27.9087C52.1339 24.5788 55.1024 23.3591 56.5867 23.1655H153.871C157.433 23.5527 158.259 26.5535 158.227 28.0055V98.3792C158.227 102.406 155.129 103.413 153.58 103.413H125.121C125.663 104.729 125.347 107.188 125.121 108.253H153.58C161.324 107.711 163.067 101.445 162.97 98.3792V28.0055C162.583 20.1841 156.484 18.4223 153.484 18.5191H56.5867C49.8494 18.674 47.6488 24.4562 47.3907 27.3279V54.5287Z" fill="#516678"/>
<path d="M46.6162 90.7319C45.0674 89.8607 43.325 88.4087 42.2602 87.0535C32.3866 90.7319 27.2562 98.0887 25.417 101.961C21.7386 111.124 14.3818 129.529 14.3818 129.839C12.7362 133.711 12.0586 136.357 11.9618 137.777C11.7045 141.552 14.4787 146.973 19.7058 146.973C23.8682 146.973 26.4818 144.359 27.6434 142.714C28.7082 141.358 31.225 134.873 32.677 131.291V146.005C32.677 151.038 33.895 156.348 40.213 156.348H73.5411C81.5273 156.348 83.0776 148.263 83.2067 145.521V126.161L88.0467 134.486C89.3051 136.422 91.4171 137.777 94.1451 137.777C97.2427 137.777 99.1787 136.809 100.34 135.357L117.861 112.512C120.378 109.801 122.217 102.929 118.152 99.4439C112.718 94.7863 107.794 98.1855 105.955 100.315L96.2747 112.705C92.0155 105.058 86.9819 97.3143 83.0131 92.7647C81.3478 90.8557 76.1403 88.1828 73.5267 87.2471C71.9005 89.5703 69.816 90.4737 68.9771 90.7319C72.9459 91.6031 77.4955 94.1199 79.2379 95.6687C80.218 96.5399 90.5635 112.77 95.7907 120.934L109.924 102.929C110.795 102.316 112.963 101.457 114.667 102.929C116.37 104.4 115.957 106.639 115.538 107.575L98.0171 130.71C95.6165 133.885 93.3707 133.614 92.1123 132.162L78.3667 108.833V146.005C77.6697 149.644 74.8496 150.683 73.5267 150.748H41.9698C38.1753 150.361 37.4202 147.424 37.517 146.005V107.575L24.8362 137.777C23.965 139.713 22.4162 142.714 19.2218 142.133C16.0611 141.558 16.4146 137.196 16.9954 135.841L28.9986 105.929C32.9674 96.1527 42.2602 91.6353 46.6162 90.7319Z" fill="#516678"/>
<path fill-rule="evenodd" clip-rule="evenodd" d="M117.511 31.1753C118.623 30.4917 120.882 29.5348 123.415 31.0044L144.592 43.4792C145.961 44.2482 147.715 45.5725 147.715 48.734V74.3243C147.687 75.3212 147.151 77.6054 145.234 78.7674L123.158 91.7549C122.231 92.2248 119.898 92.8827 117.982 91.7549L96.0772 78.8101C95.2929 78.3972 93.6729 76.9218 93.4675 74.3243V48.3922C93.4675 47.3099 94.0836 44.8206 96.5478 43.5219L117.511 31.1753ZM117.72 33.1869C118.757 32.5487 120.863 31.6552 123.224 33.0273L142.969 44.6747C144.245 45.3927 145.881 46.6292 145.881 49.5809V73.4739C145.854 74.4046 145.354 76.5373 143.567 77.6222L122.985 89.7482C122.12 90.187 119.945 90.8013 118.158 89.7482L97.7356 77.6621C97.0043 77.2766 95.4939 75.8991 95.3024 73.4739V49.2618C95.3024 48.2513 95.8768 45.9272 98.1743 44.7146L117.72 33.1869Z" fill="#516678"/>
<path d="M103.781 46.2393C103.422 45.5213 103.741 45.0427 104.18 44.7634L118.54 36.3869C120.414 35.4296 121.89 35.9482 122.528 36.3869L137.048 44.7634C137.487 45.0825 137.798 45.6011 137.447 46.2393C137.096 46.8775 136.41 46.6781 136.011 46.4786L121.93 38.3016C120.933 37.7032 120.055 37.783 119.497 38.1021L105.177 46.4786C104.619 46.7579 104.06 46.7977 103.781 46.2393Z" fill="#20A2DC"/>
<path d="M103.69 76.3322C103.331 77.0502 103.65 77.5289 104.089 77.8081L118.448 86.1846C120.323 87.1419 121.799 86.6234 122.437 86.1846L136.957 77.8081C137.395 77.489 137.706 76.9704 137.355 76.3322C137.004 75.694 136.318 75.8935 135.919 76.0929L121.839 84.27C120.842 84.8683 119.964 84.7885 119.406 84.4694L105.086 76.0929C104.528 75.8137 103.969 75.7738 103.69 76.3322Z" fill="#20A2DC"/>
<path d="M136.639 55.4807C137.721 55.4807 138.717 55.7329 139.617 56.2424L139.949 56.4426C140.701 56.9311 141.306 57.5731 141.762 58.3635C142.297 59.2659 142.561 60.2806 142.561 61.3938C142.561 62.5162 142.298 63.5404 141.764 64.4524C141.243 65.348 140.524 66.0526 139.617 66.5608C138.709 67.0694 137.713 67.3225 136.639 67.3225C135.564 67.3225 134.568 67.0694 133.66 66.5608C132.753 66.0528 132.031 65.3486 131.5 64.4543L131.498 64.4524C130.963 63.5404 130.7 62.5162 130.7 61.3938C130.7 60.2806 130.964 59.2659 131.5 58.3635C132.03 57.4601 132.752 56.7508 133.66 56.2424C134.568 55.7338 135.564 55.4807 136.639 55.4807ZM102.788 55.6321C103.968 55.6321 105.027 55.8627 105.95 56.3401H105.949C106.884 56.818 107.61 57.5073 108.115 58.4036H108.114C108.629 59.288 108.878 60.3055 108.878 61.4397C108.878 62.5762 108.628 63.596 108.111 64.4817C107.605 65.3561 106.879 66.0312 105.949 66.5071L105.95 66.5081C105.027 66.9854 103.968 67.2161 102.788 67.2161H98.582V55.6321H102.788ZM116.622 55.6174V58.3459H112.597V59.9993H116.166V62.6829H112.597V64.4875H116.622V67.2161H109.47V55.6174H116.622ZM120.8 55.6321L120.93 55.9358L123.842 62.7327L126.755 55.9358L126.885 55.6321H130.114V67.2161H126.987V62.3557L125.109 66.9065L124.981 67.2161H122.703L122.575 66.9075L120.682 62.342V67.2161H117.555V55.6321H120.8ZM136.639 58.3909C136.079 58.3909 135.599 58.5134 135.187 58.7473L135.188 58.7483C134.791 58.9797 134.476 59.3154 134.243 59.7717L134.241 59.7747C134.011 60.2164 133.888 60.7511 133.888 61.3938C133.888 62.0362 134.011 62.5776 134.243 63.0315C134.475 63.4852 134.788 63.826 135.185 64.0676C135.597 64.3028 136.077 64.427 136.639 64.427C137.199 64.427 137.672 64.3037 138.071 64.0715C138.47 63.8297 138.786 63.4875 139.018 63.0315C139.25 62.5776 139.374 62.0362 139.374 61.3938C139.374 60.7511 139.25 60.2164 139.02 59.7747L139.018 59.7717C138.786 59.3154 138.47 58.9797 138.073 58.7483C137.673 58.5155 137.2 58.3909 136.639 58.3909ZM101.709 64.4114H102.713C103.735 64.4113 104.453 64.1351 104.941 63.6477C105.43 63.1596 105.706 62.4479 105.706 61.4397C105.706 60.4316 105.43 59.7115 104.938 59.2122L104.935 59.2102C104.446 58.7057 103.731 58.4212 102.713 58.4211H101.709V64.4114Z" fill="#20A2DC" stroke="#516678"/>
</svg>
