<svg width="175" height="175" viewBox="0 0 175 175" fill="none" xmlns="http://www.w3.org/2000/svg">
<path fill-rule="evenodd" clip-rule="evenodd" d="M87.3909 113.542C95.481 113.542 102.039 106.983 102.039 98.8933C102.039 90.8032 95.481 84.2449 87.3909 84.2449C79.3007 84.2449 72.7424 90.8032 72.7424 98.8933C72.7424 106.983 79.3007 113.542 87.3909 113.542ZM87.3908 108.55C92.4846 108.55 96.6139 104.421 96.6139 99.3272C96.6139 94.2335 92.4846 90.1041 87.3908 90.1041C82.297 90.1041 78.1677 94.2335 78.1677 99.3272C78.1677 104.421 82.297 108.55 87.3908 108.55Z" fill="#516678"/>
<path d="M74.0445 113.325C72.3084 112.196 71.0786 110.178 70.6808 109.31C60.1773 115.734 57.1897 127.901 57.0089 133.182V138.498C57.3561 142.752 60.7704 143.671 62.4342 143.598H112.565C116.818 143.685 117.881 139.945 117.881 138.064V132.531C116.84 119.249 108.405 111.516 104.318 109.31C104.405 110.091 102.256 112.312 101.171 113.325C109.765 118.273 112.348 128.624 112.565 133.182V138.498H62.4342V133.182C62.7814 122.505 70.3191 115.495 74.0445 113.325Z" fill="#516678"/>
<path fill-rule="evenodd" clip-rule="evenodd" d="M43.8795 100.304C51.9696 100.304 58.528 93.7454 58.528 85.6553C58.528 77.5652 51.9696 71.0068 43.8795 71.0068C35.7894 71.0068 29.231 77.5652 29.231 85.6553C29.231 93.7454 35.7894 100.304 43.8795 100.304ZM43.8794 95.3126C48.9732 95.3126 53.1025 91.1833 53.1025 86.0895C53.1025 80.9957 48.9732 76.8664 43.8794 76.8664C38.7856 76.8664 34.6563 80.9957 34.6563 86.0895C34.6563 91.1833 38.7856 95.3126 43.8794 95.3126Z" fill="#516678"/>
<path d="M30.4246 100.195C29.2961 99.5008 27.6396 97.1571 26.9524 96.072C16.4489 102.322 13.5336 114.591 13.389 119.944V125.803C13.823 129.188 16.608 130.324 17.9463 130.469H52.126C52.2128 127.865 52.8856 125.839 53.2111 125.152H18.8143V118.75C19.3352 108.681 26.7715 102.185 30.4246 100.195Z" fill="#516678"/>
<path d="M57.3344 100.087C58.376 99.3055 60.0109 97.0848 60.6981 96.072C65.212 98.5894 67.8596 102.546 68.6191 104.21C67.8379 104.21 65.6171 106.236 64.6043 107.248C63.6495 104.905 59.3598 101.497 57.3344 100.087Z" fill="#516678"/>
<path fill-rule="evenodd" clip-rule="evenodd" d="M131.228 100.304C139.318 100.304 145.876 93.7454 145.876 85.6553C145.876 77.5652 139.318 71.0068 131.228 71.0068C123.138 71.0068 116.579 77.5652 116.579 85.6553C116.579 93.7454 123.138 100.304 131.228 100.304ZM131.228 95.3126C136.322 95.3126 140.451 91.1833 140.451 86.0895C140.451 80.9957 136.322 76.8664 131.228 76.8664C126.134 76.8664 122.005 80.9957 122.005 86.0895C122.005 91.1833 126.134 95.3126 131.228 95.3126Z" fill="#516678"/>
<path d="M144.574 100.304C145.703 99.6092 147.359 97.2655 148.046 96.1804C158.55 102.43 161.465 114.699 161.61 120.052V125.911C161.176 129.297 158.391 130.433 157.053 130.577H122.873C122.786 127.973 122.113 125.948 121.788 125.26H156.184V118.858C155.664 108.789 148.227 102.293 144.574 100.304Z" fill="#516678"/>
<path d="M117.664 100.195C116.623 99.4139 114.988 97.1932 114.301 96.1804C109.787 98.6978 107.139 102.655 106.38 104.318C107.161 104.318 109.382 106.344 110.394 107.357C111.349 105.013 115.639 101.606 117.664 100.195Z" fill="#516678"/>
<path d="M53.3337 52.0182V46.8098H20.456C7.43514 46.8098 2.98634 57.769 2.98634 63.6935V137.847C2.98634 149.892 13.5115 154.991 19.1539 154.991H153.92C168.243 154.991 172.258 143.815 172.258 137.847V63.0859C172.258 51.3671 161.407 47.3524 155.981 46.8098H121.91V52.0182H154.137C165.856 52.105 167.556 61.3859 166.941 66.0156V137.847C166.941 147.07 159.02 149.675 153.92 149.675H20.456C10.5818 149.675 8.30318 141.32 8.30318 137.739V63.8454C8.30318 55.3819 16.0072 52.0182 20.456 52.0182H53.3337Z" fill="#516678"/>
<path fill-rule="evenodd" clip-rule="evenodd" d="M75.9559 24.9999C76.824 25.405 78.1584 25.6954 78.4516 24.1318C78.6273 23.1947 80.2962 20.1171 83.0089 20.0085H91.6895C93.7511 20.0085 96.0534 22.486 96.1383 23.5893C96.2231 24.6926 96.8978 26.1066 99.068 24.8914C100.037 24.3488 103.191 23.9148 104.602 25.2169L111.221 31.8358C111.872 32.4869 112.726 35.8698 111.655 37.3697C111.069 38.1903 110.678 39.4313 112.848 40.1909C113.933 40.6249 116.429 42.361 116.429 44.6397V52.5607C116.429 53.7543 114.802 57.4435 112.957 57.769C111.655 58.0946 110.353 58.8541 111.655 61.3498C112.089 62.0008 112.523 64.7135 111.329 65.9071L104.71 72.743C103.517 73.9366 100.587 74.2621 98.851 73.0686C98.1999 72.7069 96.7893 72.3741 96.3553 73.9366C95.8128 75.8897 93.2086 78.1684 91.364 78.1684H83.6599C82.1409 78.1684 79.0341 76.4323 78.6686 74.6962C78.2803 72.8515 76.7155 72.4175 75.5219 73.0686C74.4442 73.6564 72.2667 73.9366 70.6391 72.8515C68.469 71.3324 64.4319 67.4774 63.5861 66.1241C62.5011 64.388 62.1378 62.1093 63.2606 60.2647C64.1192 58.8541 63.1521 58.3441 61.9585 57.9861C60.765 57.628 58.2693 55.2734 58.2693 53.2117V45.0737C58.2693 43.4461 59.8969 40.6249 62.7181 39.8654C63.333 39.6845 64.324 39.019 63.3691 37.8037C63.2606 37.6952 61.5245 34.7655 63.3691 32.2699C65.2499 30.0274 69.12 25.8679 70.2051 25.2169C71.3987 24.5007 73.3517 23.7846 75.9559 24.9999ZM83.255 28.5323V25.8462C83.255 25.3985 83.4117 24.7269 84.4862 24.7269H90.53C91.1623 24.7269 91.6493 25.0036 91.6493 25.8462V28.5323C93.44 28.7562 97.4245 29.6963 99.0362 31.6662L101.163 29.5396C101.722 28.98 102.17 29.0919 102.954 29.8754L106.983 33.9046C107.412 34.3339 107.878 35.0239 106.983 35.8073L105.08 37.5981C106.087 38.8293 108.102 42.0079 108.102 44.8731H110.9C111.348 44.8731 112.131 44.9179 112.131 45.9924V51.9243C112.131 52.4839 111.907 53.3793 110.9 53.3793H108.102C107.692 55.3193 106.311 59.4903 104.968 60.6543L107.095 62.669C107.43 63.0047 107.542 63.6763 106.871 64.4597L102.618 68.7128C102.282 69.0486 101.61 69.2724 101.051 68.7128L99.0362 66.5863C97.8797 67.4817 94.8055 69.3396 91.7612 69.6082V72.4063C91.7612 72.854 91.5373 73.5255 90.53 73.5255H84.1504C83.8146 73.5255 83.255 73.2345 83.255 72.5182V69.6082C81.6135 69.3844 77.8603 68.4666 75.98 66.5863L73.9654 68.6009C73.5177 69.0486 72.6223 68.9367 72.0627 68.3771L68.0334 64.3478C67.6976 64.012 67.3619 63.1167 67.9215 62.4451L69.9361 60.6543C69.0407 59.3859 67.1828 56.155 66.9142 53.3793H64.1161C63.5565 53.3793 62.8849 52.9316 62.8849 52.0362V45.8804C62.8849 45.3208 63.3326 44.7612 64.228 44.7612L66.9142 44.8731C67.2126 43.2316 68.2125 39.4784 69.8242 37.5981L67.9215 35.5835C67.5857 35.2477 67.3619 34.6881 68.1453 33.9046L72.1746 29.7635C72.5103 29.4277 73.4057 28.98 74.1892 29.7635L75.98 31.5542C77.2484 30.6216 80.4793 28.7114 83.255 28.5323Z" fill="#516678"/>
<path d="M98.9301 56.4879L88.4454 56.4879C87.1745 56.4823 86.2214 56.8 86.2214 58.3886C86.2214 59.9772 87.1745 60.2949 88.4454 60.2949H98.9301C100.519 60.2949 101.154 59.9772 101.154 58.3886C101.154 56.8 100.519 56.4823 98.9301 56.4879Z" fill="#516678"/>
<path d="M98.9301 46.962L88.4454 46.962C87.1745 46.9564 86.2214 47.2741 86.2214 48.8627C86.2214 50.4513 87.1745 50.769 88.4454 50.769H98.9301C100.519 50.769 101.154 50.4513 101.154 48.8627C101.154 47.2741 100.519 46.9564 98.9301 46.962Z" fill="#20A2DC"/>
<path d="M98.9301 37.4359L88.4454 37.4359C87.1745 37.4303 86.2214 37.748 86.2214 39.3366C86.2214 40.9252 87.1745 41.2429 88.4454 41.2429H98.9301C100.519 41.2429 101.154 40.9252 101.154 39.3366C101.154 37.748 100.519 37.4303 98.9301 37.4359Z" fill="#516678"/>
<path d="M73.3712 59.4167C73.3264 58.4326 74.2475 58.0747 74.7136 58.0188C74.9373 57.992 75.1611 58.0188 75.4967 58.2425L77.1746 59.4727L80.6984 54.9434C81.2577 54.4401 82.1527 54.6078 82.5442 54.9434C83.0476 55.4466 82.9357 56.2854 82.712 56.6209L78.1814 62.5481C77.376 62.9507 76.7272 62.6413 76.5034 62.4363L73.8187 60.4233C73.4272 60.0878 73.3814 59.6404 73.3712 59.4167Z" fill="#20A2DC"/>
<path d="M73.3712 49.7097C73.3264 48.7256 74.2475 48.3677 74.7136 48.3118C74.9373 48.2849 75.1611 48.3118 75.4967 48.5354L77.1746 49.7656L80.6984 45.2363C81.2577 44.7331 82.1527 44.9008 82.5442 45.2363C83.0476 45.7396 82.9357 46.5783 82.712 46.9138L78.1814 52.8411C77.376 53.2437 76.7272 52.9343 76.5034 52.7292L73.8187 50.7162C73.4272 50.3807 73.3814 49.9334 73.3712 49.7097Z" fill="#20A2DC"/>
<path d="M73.3712 40.0027C73.3264 39.0185 74.2474 38.6607 74.7135 38.6047C74.9373 38.5779 75.161 38.6047 75.4966 38.8284L77.1746 40.0586L80.6984 35.5293C81.2577 35.026 82.1526 35.1938 82.5441 35.5293C83.0476 36.0325 82.9357 36.8713 82.7119 37.2068L78.1814 43.1341C77.376 43.5367 76.7271 43.2272 76.5034 43.0222L73.8186 41.0092C73.4271 40.6737 73.3813 40.2264 73.3712 40.0027Z" fill="#20A2DC"/>
</svg>
