<svg width="175" height="175" viewBox="0 0 175 175" fill="none" xmlns="http://www.w3.org/2000/svg">
<path d="M11.0174 32.6724L9.88018 33.242L11.4913 35.3302H9.02722V36.3744L11.4913 35.8998L9.88018 38.2728L11.0174 38.8424L11.9652 36.3744L13.1024 38.8424L14.2397 38.083L12.6286 35.8998L15.2822 36.3744V35.3302H12.6286L14.2397 33.242L13.3868 32.6724L11.9652 34.9506L11.0174 32.6724Z" fill="#20A2DC"/>
<path d="M44.6462 12.9976L43.509 13.5671L45.1201 15.6554H42.656V16.6995L45.1201 16.2249L43.509 18.598L44.6462 19.1675L45.594 16.6995L46.7312 19.1675L47.8685 18.4081L46.2574 16.2249L48.911 16.6995V15.6554H46.2574L47.8685 13.5671L47.0156 12.9976L45.594 15.2757L44.6462 12.9976Z" fill="#20A2DC"/>
<path d="M164.327 63.1094L163.19 63.6789L164.801 65.7672H162.337V66.8113L164.801 66.3367L163.19 68.7098L164.327 69.2793L165.275 66.8113L166.412 69.2793L167.549 68.5199L165.938 66.3367L168.592 66.8113V65.7672H165.938L167.549 63.6789L166.696 63.1094L165.275 65.3875L164.327 63.1094Z" fill="#20A2DC"/>
<path d="M140.429 3.59369L139.292 4.16322L140.903 6.25151H138.439V7.29566L140.903 6.82105L139.292 9.19411L140.429 9.76364L141.377 7.29566L142.514 9.76364L143.652 9.00426L142.04 6.82105L144.694 7.29566V6.25151H142.04L143.652 4.16322L142.799 3.59369L141.377 5.87182L140.429 3.59369Z" fill="#20A2DC"/>
<path d="M86.8952 0L86.3783 0.280386L87.1106 1.30847H85.9906V1.82251L87.1106 1.58885L86.3783 2.75713L86.8952 3.03751L87.326 1.82251L87.843 3.03751L88.3599 2.66367L87.6276 1.58885L88.8338 1.82251V1.30847H87.6276L88.3599 0.280386L87.9722 0L87.326 1.12154L86.8952 0Z" fill="#20A2DC"/>
<path fill-rule="evenodd" clip-rule="evenodd" d="M24.5173 8.82095C25.7735 8.82095 26.7919 7.80099 26.7919 6.54281C26.7919 5.28463 25.7735 4.26468 24.5173 4.26468C23.2611 4.26468 22.2428 5.28463 22.2428 6.54281C22.2428 7.80099 23.2611 8.82095 24.5173 8.82095ZM24.4874 7.26223C24.9006 7.26223 25.2356 6.92672 25.2356 6.51284C25.2356 6.09897 24.9006 5.76345 24.4874 5.76345C24.0742 5.76345 23.7392 6.09897 23.7392 6.51284C23.7392 6.92672 24.0742 7.26223 24.4874 7.26223Z" fill="#516678"/>
<path fill-rule="evenodd" clip-rule="evenodd" d="M8.92951 52.1725C10.1857 52.1725 11.2041 51.1526 11.2041 49.8944C11.2041 48.6362 10.1857 47.6163 8.92951 47.6163C7.67332 47.6163 6.65497 48.6362 6.65497 49.8944C6.65497 51.1526 7.67332 52.1725 8.92951 52.1725ZM8.89956 50.6138C9.31278 50.6138 9.64777 50.2783 9.64777 49.8644C9.64777 49.4506 9.31278 49.1151 8.89956 49.1151C8.48634 49.1151 8.15135 49.4506 8.15135 49.8644C8.15135 50.2783 8.48634 50.6138 8.89956 50.6138Z" fill="#516678"/>
<path fill-rule="evenodd" clip-rule="evenodd" d="M108.34 16.8603C110.553 16.8603 112.347 15.0634 112.347 12.8468C112.347 10.6303 110.553 8.8334 108.34 8.8334C106.126 8.8334 104.332 10.6303 104.332 12.8468C104.332 15.0634 106.126 16.8603 108.34 16.8603ZM108.287 14.1142C109.015 14.1142 109.605 13.5231 109.605 12.794C109.605 12.0648 109.015 11.4737 108.287 11.4737C107.559 11.4737 106.969 12.0648 106.969 12.794C106.969 13.5231 107.559 14.1142 108.287 14.1142Z" fill="#516678"/>
<path fill-rule="evenodd" clip-rule="evenodd" d="M139.771 47.7202C141.093 47.7202 142.164 46.6471 142.164 45.3234C142.164 43.9997 141.093 42.9266 139.771 42.9266C138.449 42.9266 137.378 43.9997 137.378 45.3234C137.378 46.6471 138.449 47.7202 139.771 47.7202ZM139.739 46.0801C140.174 46.0801 140.527 45.7271 140.527 45.2916C140.527 44.8562 140.174 44.5032 139.739 44.5032C139.305 44.5032 138.952 44.8562 138.952 45.2916C138.952 45.7271 139.305 46.0801 139.739 46.0801Z" fill="#516678"/>
<path fill-rule="evenodd" clip-rule="evenodd" d="M153.154 32.3949C154.476 32.3949 155.547 31.3218 155.547 29.9981C155.547 28.6744 154.476 27.6013 153.154 27.6013C151.833 27.6013 150.761 28.6744 150.761 29.9981C150.761 31.3218 151.833 32.3949 153.154 32.3949ZM153.123 30.7547C153.558 30.7547 153.91 30.4017 153.91 29.9663C153.91 29.5309 153.558 29.1779 153.123 29.1779C152.688 29.1779 152.336 29.5309 152.336 29.9663C152.336 30.4017 152.688 30.7547 153.123 30.7547Z" fill="#516678"/>
<path d="M89.1031 137.89C88.6807 137.116 88.6337 134.752 88.6631 133.667H57.9491C57.3624 133.755 56.2066 134.318 56.277 135.867C56.3474 137.415 57.4211 137.861 57.9491 137.89H89.1031Z" fill="#516678"/>
<path d="M88.575 129.356C88.4342 127.808 88.8684 125.896 89.1031 125.133H58.2131C57.5677 125.192 56.277 125.696 56.277 127.245C56.277 128.793 57.4504 129.298 58.0371 129.356H88.575Z" fill="#20A2DC"/>
<path d="M92.0072 146.425C91.3032 145.51 90.5405 143.287 90.2471 142.289H58.1251C57.4797 142.377 56.2066 142.923 56.277 144.401C56.3474 145.879 57.421 146.366 57.9491 146.425H92.0072Z" fill="#20A2DC"/>
<path d="M32.0754 33.9845H45.6283V38.1196H32.6914C29.6641 38.19 28.5552 40.7884 28.3792 42.0788V152.232C28.7312 155.047 31.166 156.103 32.3394 156.279V156.895C30.902 157.305 27.6575 157.88 26.179 156.895C24.7005 155.909 24.2136 153.375 24.1549 152.232V41.4629C25.1406 35.8321 29.8459 34.1311 32.0754 33.9845Z" fill="#516678"/>
<path d="M97.1116 38.2955V33.8965C98.6957 33.9551 103.888 33.8965 109.96 33.8965C115.593 33.8964 118.233 38.9114 118.409 41.3749V98.4749C115.945 98.4749 114.683 98.9441 114.273 99.1787V42.0787C113.78 39.0522 111.427 38.2955 110.312 38.2955H97.1116Z" fill="#516678"/>
<path fill-rule="evenodd" clip-rule="evenodd" d="M53.7248 23.1627C52.6101 23.3094 50.2926 24.2889 49.9406 27.0339V41.023C50.0286 41.9908 50.9086 44.0671 53.7248 44.6302H88.487C89.5431 44.6889 91.884 44.0495 92.7993 41.023V26.682C92.5939 25.6555 91.5496 23.5146 89.015 23.1627H79.9505C78.3077 24.3358 74.4941 26.418 71.2379 26.418C67.4888 26.418 64.2292 24.2016 62.7427 23.1908L62.7014 23.1627H53.7248ZM54.1648 29.5893V38.1877V40.4049H57.1953H85.0336H88.487V38.1877V29.373V27.2099H85.4565H81.4715C81.3436 27.2882 81.217 27.366 81.0913 27.4432C78.2527 29.187 75.9226 30.6185 71.2202 30.6185C66.3096 30.6185 63.3174 28.5296 61.5678 27.2099H57.1953H54.1648V29.5893Z" fill="#516678"/>
<path d="M105.648 56.5076H58.6531C57.8904 56.449 56.3474 56.7716 56.277 58.5312C56.2066 60.2908 57.5971 60.7894 58.3011 60.8187H106.088C106.675 60.7601 107.848 60.2205 107.848 58.5312C107.848 56.842 106.382 56.4783 105.648 56.5076Z" fill="#20A2DC"/>
<path d="M105.651 73.6704H58.6557C57.893 73.6117 56.35 73.9343 56.2796 75.6939C56.2091 77.4535 57.5996 77.9521 58.3037 77.9814H106.091C106.677 77.9228 107.851 77.3832 107.851 75.6939C107.851 74.0047 106.384 73.641 105.651 73.6704Z" fill="#20A2DC"/>
<path d="M105.651 65.0482H58.6557C57.893 64.9895 56.35 65.3121 56.2796 67.0718C56.2091 68.8314 57.5996 69.3299 58.3037 69.3593H106.091C106.677 69.3006 107.851 68.761 107.851 67.0718C107.851 65.3825 106.384 65.0189 105.651 65.0482Z" fill="#516678"/>
<path d="M105.651 90.7388H58.6557C57.893 90.6801 56.35 91.0027 56.2796 92.7623C56.2091 94.522 57.5996 95.0205 58.3037 95.0499H106.091C106.677 94.9912 107.851 94.4516 107.851 92.7623C107.851 91.0731 106.384 90.7094 105.651 90.7388Z" fill="#20A2DC"/>
<path d="M98.6102 107.983H58.6557C57.893 107.924 56.35 108.247 56.2796 110.007C56.2091 111.766 57.5996 112.265 58.3037 112.294H94.65C95.6482 110.889 97.8379 108.059 98.6102 107.983Z" fill="#20A2DC"/>
<path d="M105.651 99.361H58.6557C57.893 99.3023 56.35 99.6249 56.2796 101.385C56.2091 103.144 57.5996 103.643 58.3037 103.672H103.627C104.83 102.91 107.36 101.385 107.851 101.385C107.851 99.6953 106.384 99.3316 105.651 99.361Z" fill="#516678"/>
<path d="M34.8915 68.2972C34.8211 66.7487 36.2703 66.1856 37.0036 66.0976C37.3557 66.0554 37.7077 66.0976 38.2358 66.4495L40.8759 68.3851L46.4203 61.2586C47.3004 60.4668 48.7085 60.7307 49.3245 61.2586C50.1166 62.0505 49.9405 63.3702 49.5885 63.8981L42.46 73.2241C41.1928 73.8576 40.1719 73.3708 39.8199 73.0482L35.5956 69.8808C34.9796 69.3529 34.9075 68.6491 34.8915 68.2972Z" fill="#516678"/>
<path d="M35.4196 129.004C34.5043 129.99 34.9502 131.263 35.3316 131.732L39.3798 135.867L35.0675 140.09C34.6275 140.706 34.5272 141.571 35.4196 142.642C36.2997 143.697 37.7957 143.345 38.2357 142.905L42.284 138.77L46.5963 142.993C47.3003 143.433 48.638 143.539 49.4125 142.554C50.1869 141.568 49.9405 140.442 49.5885 140.09L45.3642 135.867L49.5885 131.468C49.9405 130.94 50.0285 129.691 49.3245 128.916C48.6204 128.142 47.3003 128.037 46.5963 128.564L42.284 132.7L38.3237 128.828C37.6197 128.301 36.3348 128.019 35.4196 129.004Z" fill="#516678"/>
<path d="M34.8061 102.67C34.7357 101.121 36.1848 100.558 36.9182 100.47C37.2703 100.428 37.6223 100.47 38.1503 100.822L40.7905 102.758L46.3348 95.6312C47.2149 94.8394 48.623 95.1033 49.239 95.6312C50.0311 96.4231 49.8551 97.7428 49.503 98.2707L42.3746 107.597C41.1073 108.23 40.0864 107.743 39.7344 107.421L35.5101 104.253C34.8941 103.726 34.8221 103.022 34.8061 102.67Z" fill="#20A2DC"/>
<rect x="15.912" y="156.225" width="143.033" height="4.26364" rx="2.13182" fill="#516678"/>
<rect x="161.158" y="156.225" width="7.15163" height="4.26364" rx="2.13182" fill="#20A2DC"/>
<rect x="6.71698" y="156.225" width="7.15163" height="4.26364" rx="2.13182" fill="#20A2DC"/>
<rect x="64.4409" y="164.411" width="45.6342" height="4.26364" rx="2.13182" fill="#20A2DC"/>
<rect x="72.7844" y="170.721" width="30.139" height="4.26364" rx="2.13182" fill="#20A2DC"/>
<rect x="83.1714" y="167.31" width="8.68413" height="4.26364" fill="#20A2DC"/>
<rect x="112.118" y="164.411" width="12.6005" height="4.26364" rx="2.13182" fill="#20A2DC"/>
<rect x="49.7971" y="164.411" width="12.6005" height="4.26364" rx="2.13182" fill="#20A2DC"/>
<rect x="170.353" y="156.225" width="4.25692" height="4.26364" rx="2.12846" fill="#20A2DC"/>
<rect x="0.24646" y="156.225" width="4.25692" height="4.26364" rx="2.12846" fill="#20A2DC"/>
<path fill-rule="evenodd" clip-rule="evenodd" d="M121.665 160.414C137.656 160.414 150.619 147.454 150.619 131.468C150.619 115.481 137.656 102.522 121.665 102.522C105.674 102.522 92.7113 115.481 92.7113 131.468C92.7113 147.454 105.674 160.414 121.665 160.414ZM121.596 156.185C135.254 156.185 146.325 145.113 146.325 131.455C146.325 117.797 135.254 106.725 121.596 106.725C107.938 106.725 96.8663 117.797 96.8663 131.455C96.8663 145.113 107.938 156.185 121.596 156.185Z" fill="#516678"/>
<path d="M132.315 120.772L123.187 132.06C120.14 135.827 114.567 136.293 110.938 133.084C109.823 132.098 108.21 131.013 107.086 131.987C106.302 132.666 106.189 133.863 106.244 134.308C106.323 134.938 114.799 142.131 116.571 143.628C116.789 143.813 116.985 144.02 117.235 144.157C117.837 144.488 118.613 144.38 119.093 143.901C119.562 143.432 131.22 128.874 135.589 123.413C136.655 122.081 137.697 119.505 136.155 118.775C134.607 118.041 133.392 119.441 132.315 120.772Z" fill="#20A2DC"/>
</svg>
