<svg width="175" height="179" viewBox="0 0 175 179" fill="none" xmlns="http://www.w3.org/2000/svg">
<path d="M60.5597 30.2076L59.4224 30.7772L61.0335 32.8655H58.5694V33.9096L61.0335 33.435L59.4224 35.8081L60.5597 36.3776L61.5074 33.9096L62.6447 36.3776L63.7819 35.6182L62.1708 33.435L64.8244 33.9096V32.8655H62.1708L63.7819 30.7772L62.929 30.2076L61.5074 32.4858L60.5597 30.2076Z" fill="#20A2DC"/>
<path d="M39.9631 12.9976L38.8258 13.5671L40.4369 15.6554H37.9728V16.6995L40.4369 16.2249L38.8258 18.598L39.9631 19.1675L40.9108 16.6995L42.0481 19.1675L43.1853 18.4081L41.5742 16.2249L44.2278 16.6995V15.6554H41.5742L43.1853 13.5671L42.3324 12.9976L40.9108 15.2757L39.9631 12.9976Z" fill="#20A2DC"/>
<path d="M167.038 63.1094L165.901 63.6789L167.512 65.7672H165.048V66.8113L167.512 66.3367L165.901 68.7098L167.038 69.2793L167.986 66.8113L169.123 69.2793L170.26 68.5199L168.649 66.3367L171.303 66.8113V65.7672H168.649L170.26 63.6789L169.407 63.1094L167.986 65.3875L167.038 63.1094Z" fill="#20A2DC"/>
<path d="M120.957 15.9177L119.82 16.4873L121.431 18.5755H118.967V19.6197L121.431 19.1451L119.82 21.5181L120.957 22.0877L121.905 19.6197L123.042 22.0877L124.18 21.3283L122.569 19.1451L125.222 19.6197V18.5755H122.569L124.18 16.4873L123.327 15.9177L121.905 18.1959L120.957 15.9177Z" fill="#20A2DC"/>
<path d="M82.2121 0L81.6952 0.280386L82.4275 1.30847H81.3075V1.82251L82.4275 1.58885L81.6952 2.75713L82.2121 3.03751L82.6429 1.82251L83.1598 3.03751L83.6768 2.66367L82.9444 1.58885L84.1506 1.82251V1.30847H82.9444L83.6768 0.280386L83.2891 0L82.6429 1.12154L82.2121 0Z" fill="#20A2DC"/>
<path fill-rule="evenodd" clip-rule="evenodd" d="M19.8342 8.82092C21.0904 8.82092 22.1087 7.80096 22.1087 6.54278C22.1087 5.2846 21.0904 4.26465 19.8342 4.26465C18.578 4.26465 17.5596 5.2846 17.5596 6.54278C17.5596 7.80096 18.578 8.82092 19.8342 8.82092ZM19.8043 7.2622C20.2175 7.2622 20.5525 6.92669 20.5525 6.51281C20.5525 6.09894 20.2175 5.76342 19.8043 5.76342C19.391 5.76342 19.0561 6.09894 19.0561 6.51281C19.0561 6.92669 19.391 7.2622 19.8043 7.2622Z" fill="#516678"/>
<path fill-rule="evenodd" clip-rule="evenodd" d="M11.6407 52.1726C12.8969 52.1726 13.9153 51.1526 13.9153 49.8945C13.9153 48.6363 12.8969 47.6163 11.6407 47.6163C10.3845 47.6163 9.3662 48.6363 9.3662 49.8945C9.3662 51.1526 10.3845 52.1726 11.6407 52.1726ZM11.6108 50.6139C12.024 50.6139 12.359 50.2784 12.359 49.8645C12.359 49.4506 12.024 49.1151 11.6108 49.1151C11.1976 49.1151 10.8626 49.4506 10.8626 49.8645C10.8626 50.2784 11.1976 50.6139 11.6108 50.6139Z" fill="#516678"/>
<path fill-rule="evenodd" clip-rule="evenodd" d="M79.0085 43.973C81.2215 43.973 83.0156 42.1762 83.0156 39.9596C83.0156 37.743 81.2215 35.9462 79.0085 35.9462C76.7954 35.9462 75.0013 37.743 75.0013 39.9596C75.0013 42.1762 76.7954 43.973 79.0085 43.973ZM78.9557 41.2269C79.6837 41.2269 80.2738 40.6358 80.2738 39.9067C80.2738 39.1776 79.6837 38.5865 78.9557 38.5865C78.2277 38.5865 77.6376 39.1776 77.6376 39.9067C77.6376 40.6358 78.2277 41.2269 78.9557 41.2269Z" fill="#516678"/>
<path fill-rule="evenodd" clip-rule="evenodd" d="M135.088 47.7202C136.409 47.7202 137.481 46.6471 137.481 45.3234C137.481 43.9997 136.409 42.9266 135.088 42.9266C133.766 42.9266 132.695 43.9997 132.695 45.3234C132.695 46.6471 133.766 47.7202 135.088 47.7202ZM135.056 46.0801C135.491 46.0801 135.844 45.7271 135.844 45.2917C135.844 44.8562 135.491 44.5033 135.056 44.5033C134.622 44.5033 134.269 44.8562 134.269 45.2917C134.269 45.7271 134.622 46.0801 135.056 46.0801Z" fill="#516678"/>
<path fill-rule="evenodd" clip-rule="evenodd" d="M158.33 32.3949C159.652 32.3949 160.723 31.3218 160.723 29.9981C160.723 28.6744 159.652 27.6013 158.33 27.6013C157.009 27.6013 155.937 28.6744 155.937 29.9981C155.937 31.3218 157.009 32.3949 158.33 32.3949ZM158.299 30.7547C158.733 30.7547 159.086 30.4018 159.086 29.9663C159.086 29.5309 158.733 29.1779 158.299 29.1779C157.864 29.1779 157.512 29.5309 157.512 29.9663C157.512 30.4018 157.864 30.7547 158.299 30.7547Z" fill="#516678"/>
<path d="M47.6034 62.2816L42.8587 58.0189H24.6534C19.4139 58.0189 17.9929 62.2816 17.9929 64.5018V136.08C17.9929 140.52 22.6997 142.296 25.0086 142.296H77.5819V147.003H81.8446V142.296H92.8565V147.003H97.1192V142.296H150.581C154.666 142.296 156.619 138.122 156.619 135.547V64.3242C156.619 59.8839 152.89 58.1077 149.692 58.1077H52.1434L54.5811 62.2816L150.048 62.3704C151.735 62.3704 152.268 63.6137 152.268 64.3242V135.547C152.268 137.678 150.936 138.122 149.87 138.122H24.4758C22.6997 138.122 22.3444 136.968 22.3444 136.08V64.5018C22.3444 62.9921 23.4101 62.2816 24.9198 62.2816H47.6034Z" fill="#516678"/>
<path d="M146.327 77.5859H95.5349C94.6176 77.5859 93.4683 77.7833 93.3934 79.0993C93.3185 80.4153 94.2947 80.81 95.1602 80.81H146.795C147.442 80.81 148.471 80.2272 148.41 79.0993C148.346 77.9041 147.054 77.5859 146.327 77.5859Z" fill="#20A2DC"/>
<path d="M146.327 85.3304H95.5348C94.6175 85.3304 93.4683 85.5278 93.3933 86.8438C93.3184 88.1598 94.2946 88.5546 95.1602 88.5546H146.795C147.442 88.5546 148.471 87.9717 148.41 86.8438C148.346 85.6486 147.054 85.3304 146.327 85.3304Z" fill="#516678"/>
<path d="M146.412 93.338H125.196C124.279 93.338 123.13 93.5354 123.055 94.8514C122.98 96.1673 123.956 96.5621 124.821 96.5621H146.88C147.527 96.5621 148.556 95.9793 148.495 94.8514C148.431 93.6561 147.139 93.338 146.412 93.338Z" fill="#20A2DC"/>
<path fill-rule="evenodd" clip-rule="evenodd" d="M136.064 116.796C139.916 116.796 143.038 113.673 143.038 109.821C143.038 105.969 139.916 102.847 136.064 102.847C132.212 102.847 129.089 105.969 129.089 109.821C129.089 113.673 132.212 116.796 136.064 116.796ZM136.064 113.05C137.847 113.05 139.293 111.605 139.293 109.821C139.293 108.038 137.847 106.592 136.064 106.592C134.28 106.592 132.835 108.038 132.835 109.821C132.835 111.605 134.28 113.05 136.064 113.05Z" fill="#20A2DC"/>
<path fill-rule="evenodd" clip-rule="evenodd" d="M98.8126 93.2749H114.645C115.236 93.2749 115.768 93.6301 115.768 94.23V115.769C115.768 116.453 115.324 116.897 114.608 116.897H98.8126C98.1848 116.897 97.652 116.637 97.652 115.942V94.23C97.652 93.8077 98.096 93.2749 98.8126 93.2749ZM113.992 95.4063H99.6058V114.766H113.992V95.4063Z" fill="#516678"/>
<path fill-rule="evenodd" clip-rule="evenodd" d="M63.4046 121.021V123.736C63.605 125.568 65.0383 126.097 65.7299 126.133H80.2899C80.9696 126.133 81.2916 125.99 81.5778 125.704L88.5537 118.728C89.4123 117.905 89.4838 117.512 89.4838 117.118C89.4957 111.74 89.5124 100.555 89.4838 98.8376C89.4552 97.1205 87.7786 96.572 86.9439 96.5123H82.3239V98.2295H86.9438C87.7165 98.2295 87.8024 98.8734 87.8024 99.2669V115.258H80.898C79.6459 115.258 78.6443 116.76 78.6443 117.547V124.38H65.8372C65.4437 124.38 65.1217 123.915 65.1217 123.665V121.021H63.4046ZM81.2915 116.975C80.5475 116.975 80.3614 117.524 80.3614 117.798V124.38L87.7666 116.975H81.2915Z" fill="#20A2DC"/>
<path fill-rule="evenodd" clip-rule="evenodd" d="M57.3946 90.1445C55.935 90.1445 55.2601 91.6232 55.105 92.3625V117.368C55.3054 119.2 56.7387 119.73 57.4303 119.765H71.9903C72.67 119.765 72.992 119.622 73.2782 119.336L80.2541 112.36C81.1127 111.537 81.1842 111.144 81.1842 110.75C81.1962 105.372 81.2128 94.187 81.1842 92.4698C81.1556 90.7527 79.479 90.2042 78.6443 90.1445H57.3946ZM56.8223 92.5772C56.8223 92.0763 57.3946 91.8617 57.6808 91.8617H78.6443C79.4171 91.8617 79.5029 92.5056 79.5029 92.8991V108.89H72.5985C71.3465 108.89 70.3448 110.393 70.3448 111.18V118.012H57.5377C57.1442 118.012 56.8223 117.547 56.8223 117.297V92.5772ZM72.062 111.43C72.062 111.156 72.248 110.607 72.9921 110.607H79.4672L72.062 118.013V111.43Z" fill="#516678"/>
<path fill-rule="evenodd" clip-rule="evenodd" d="M53.2806 101.95V103.596H34.8928C34.5231 103.631 33.7695 103.503 33.7123 102.701V71.2918C33.7003 71.0414 33.8339 70.5405 34.4635 70.5405H54.962L59.1833 75.7635H71.0602C71.3822 75.7635 71.7757 75.9352 71.7757 76.479V79.2694H78.3223C78.5727 79.2694 79.1809 79.4482 79.0736 80.0564L76.4263 88.3559H74.6376L75.4962 85.7087H41.0101L35.7514 101.95H53.2806ZM42.4769 80.915L41.4752 84.0274H75.997L77.0345 80.915H42.4769ZM35.4293 73.939V72.2218H54.1033L55.4985 73.939H35.4293ZM35.4293 75.7277H56.9295C57.3588 76.2881 58.2817 77.4234 58.5393 77.4806H70.0585V79.2335H41.6898C41.4394 79.2335 41.1532 79.4839 40.867 80.4856L35.4293 97.3351V75.7277Z" fill="#516678"/>
<path d="M22.3444 133.771V129.508H152.268V133.771H22.3444Z" fill="#20A2DC"/>
<path fill-rule="evenodd" clip-rule="evenodd" d="M69.6781 146.736H105.822C106.621 146.736 107.421 146.825 108.575 147.713L115.591 152.598H121.363C122.074 152.598 123.051 153.397 123.051 154.551V159.702V161.567H51.6505V159.702V154.551C51.6209 153.9 51.9347 152.598 53.4266 152.598H58.9326L65.593 147.98C65.6172 147.964 65.6426 147.946 65.6696 147.928C66.2375 147.546 67.4398 146.736 69.6781 146.736ZM55.9132 156.86V159.88H118.788V156.86H115.591C114.614 156.86 112.749 155.972 111.239 154.729L105.822 150.999H69.0565L63.3729 154.906C63.1155 155.09 62.8657 155.282 62.6204 155.47C61.6808 156.19 60.8065 156.86 59.8206 156.86H55.9132Z" fill="#516678"/>
<path fill-rule="evenodd" clip-rule="evenodd" d="M39.1901 54.8415L52.5 67.6584C53.6091 66.5492 56.1972 64.7006 56.1972 64.7006C56.1278 64.5539 55.9985 64.2394 55.8063 63.7724C54.9144 61.6044 52.6701 56.1492 48.8028 48.9258L48.5563 49.9119L46.0818 53.6507L48.4331 52.7464L55.4577 65.0704L52.7465 66.6725L43.6267 55.8275L45.0701 54.1619L40.7922 53.7323L39.1901 54.8415Z" fill="#20A2DC"/>
<path fill-rule="evenodd" clip-rule="evenodd" d="M56.476 72.7477C58.7977 72.6064 60.5652 70.6098 60.4238 68.2881C60.2825 65.9665 58.2859 64.199 55.9642 64.3403C53.6426 64.4816 51.8751 66.4783 52.0164 68.7999C52.1577 71.1215 54.1544 72.889 56.476 72.7477ZM56.3665 70.9461C57.6931 70.8653 58.7031 69.7244 58.6224 68.3977C58.5416 67.0711 57.4007 66.0611 56.074 66.1418C54.7474 66.2226 53.7374 67.3635 53.8181 68.6902C53.8989 70.0168 55.0398 71.0268 56.3665 70.9461Z" fill="#20A2DC"/>
<path d="M45.7004 79.4211L52.6274 69.9188L53.9594 72.139L48.7198 79.0659L60.7087 93.0972C61.4191 94.8734 59.9982 96.0278 58.3997 94.8734L45.7004 79.4211Z" fill="#20A2DC"/>
<path d="M68.6389 75.9684L59.5369 68.0251L58.9916 70.3886L65.4317 76.216L68.6389 75.9684Z" fill="#20A2DC"/>
<path fill-rule="evenodd" clip-rule="evenodd" d="M43.1419 57.1268C47.8724 56.8388 51.4737 52.7706 51.1858 48.0402C50.8978 43.3097 46.8296 39.7084 42.0992 39.9963C37.3687 40.2843 33.7674 44.3525 34.0553 49.0829C34.3433 53.8134 38.4115 57.4147 43.1419 57.1268ZM42.9184 53.4559C45.6215 53.2914 47.6794 50.9667 47.5149 48.2636C47.3503 45.5605 45.0256 43.5026 42.3225 43.6671C39.6194 43.8316 37.5615 46.1563 37.7261 48.8594C37.8906 51.5626 40.2153 53.6205 42.9184 53.4559Z" fill="#20A2DC"/>
<path d="M19.6803 36.9718L40.1058 41.5009L37.708 44.0763L19.3251 39.7248C17.8153 38.7479 18.881 36.9718 19.6803 36.9718Z" fill="#20A2DC"/>
<path d="M19.5542 49.4047L36.0722 48.6054L35.8057 45.8524L19.199 46.6517C17.6892 47.6285 18.7549 49.4047 19.5542 49.4047Z" fill="#20A2DC"/>
<rect x="15.912" y="159.472" width="143.033" height="4.26364" rx="2.13182" fill="#516678"/>
<rect x="161.158" y="159.472" width="7.15163" height="4.26364" rx="2.13182" fill="#20A2DC"/>
<rect x="6.717" y="159.472" width="7.15163" height="4.26364" rx="2.13182" fill="#20A2DC"/>
<rect x="64.4409" y="167.658" width="45.6342" height="4.26364" rx="2.13182" fill="#20A2DC"/>
<rect x="72.7845" y="173.968" width="30.139" height="4.26364" rx="2.13182" fill="#20A2DC"/>
<rect x="83.1714" y="170.557" width="8.68413" height="4.26364" fill="#20A2DC"/>
<rect x="112.118" y="167.658" width="12.6005" height="4.26364" rx="2.13182" fill="#20A2DC"/>
<rect x="49.7971" y="167.658" width="12.6005" height="4.26364" rx="2.13182" fill="#20A2DC"/>
<rect x="170.353" y="159.472" width="4.25692" height="4.26364" rx="2.12846" fill="#20A2DC"/>
<rect x="0.246468" y="159.472" width="4.25692" height="4.26364" rx="2.12846" fill="#20A2DC"/>
</svg>
