<svg width="175" height="175" viewBox="0 0 175 175" fill="none" xmlns="http://www.w3.org/2000/svg">
<path d="M40.9109 104.212C40.9109 103.274 41.4321 100.629 41.6927 99.4238H13.6458C12.4731 99.4238 11.3982 100.284 11.3982 101.769C11.3982 103.255 12.4731 104.212 13.2549 104.212H40.9109Z" fill="#20A2DC"/>
<path d="M151.632 104.115C151.632 101.965 150.264 100.108 149.678 99.3262H161.6C162.773 99.3262 163.848 100.186 163.848 101.672C163.848 103.157 162.773 104.115 161.991 104.115H151.632Z" fill="#20A2DC"/>
<path d="M56.2536 79.3906L51.6606 92.9743H56.7422L60.2603 82.6155H68.6646C69.5245 82.6155 70.2607 82.0291 70.5213 81.736L75.2121 75.3839H88.698C88.5417 75.6184 90.2616 80.3027 91.1411 82.6155L82.5414 90.922H89.4798L95.7342 84.9609C96.6723 84.2573 96.5811 83.1041 96.4182 82.6155L92.9002 73.1362C93.2129 72.589 93.4214 71.4749 93.4865 70.9863H99.5454C100.132 72.9408 101.207 75.6771 101.5 77.0452C102.002 79.3906 102.542 79.9769 103.063 80.3678L109.22 85.254L113.031 82.1269L106.386 76.8498L103.845 68.7387C103.454 66.491 102.673 66.1001 101.5 66.1001H91.6297C89.5971 66.1001 88.8283 69.0318 88.698 70.4977H74.2348C72.984 70.3413 72.1501 71.2795 71.8895 71.7681L67.5896 77.6316H58.7944C57.0354 77.6316 56.5468 78.5111 56.2536 79.3906Z" fill="#20A2DC"/>
<path fill-rule="evenodd" clip-rule="evenodd" d="M85.7967 144.573H133.086C132.881 143.793 132.772 142.974 132.772 142.13C132.772 141.32 132.872 140.535 133.061 139.784H125.736V104.017H130.622V113.399C130.687 114.767 131.716 117.562 135.312 117.796H156.323C157.268 117.764 159.157 118.324 159.157 120.826V137.83C159.222 138.481 159.001 139.784 157.594 139.784H151.636C151.825 140.535 151.926 141.32 151.926 142.13C151.926 142.974 151.816 143.793 151.611 144.573H157.105C159.353 144.67 163.848 143.634 163.848 138.709V120.532C164.076 118.317 162.929 113.731 156.519 113.105H147.137V106.069C147.17 104.017 145.808 99.7954 140.101 99.3263H125.931C124.367 99.3263 121.182 100.245 120.947 103.919V130.403H111.37L111.175 119.848L121.436 94.5378H144.01C144.987 94.2447 146.707 93.1502 145.769 91.1175L136.387 79.0974H114.399L101.598 89.2607L49.4129 92.6811C48.8265 92.7788 47.5952 93.4629 47.3607 95.4174L43.5494 114.474C43.354 115.321 43.5494 117.093 45.8948 117.405L53.2241 117.796V130.5C52.0515 130.794 49.667 132.064 49.5106 134.8V140.175C49.5758 141.478 50.5465 144.182 53.9082 144.573H77.3317C76.9159 143.854 76.678 143.02 76.678 142.13C76.678 141.24 76.916 140.405 77.3317 139.686H54.3969V135.093H69.3487C72.6322 128.995 78.0461 127.959 81.6619 127.959C88.2094 127.959 92.5745 132.455 94.1706 135.093H120.947V139.686H85.7967C86.2125 140.405 86.4504 141.24 86.4504 142.13C86.4504 143.02 86.2125 143.854 85.7967 144.573ZM51.7583 97.2741L48.8266 112.715L107.461 117.014L117.234 91.997C117.462 91.3129 118.367 89.9253 120.165 89.8471H138.831L134.14 83.7882H115.865L103.161 93.9515L51.7583 97.2741ZM57.9149 118.187V130.305H66.7101C68.6972 127.731 74.9189 122.708 81.5642 123.073C90.5548 123.567 94.3661 127.764 96.516 130.305H106.484V121.901L57.9149 118.187ZM135.215 104.115V113.008H142.446V106.362C142.381 105.613 141.84 104.115 140.199 104.115H135.215Z" fill="#516678"/>
<path d="M11.9845 57.5318C11.2408 56.7881 11.2027 55.2842 11.5936 54.7956L22.3433 43.2641C23.6137 41.7982 24.6561 42.0914 25.1773 42.3846L35.2429 49.2253L42.7676 32.8076C43.0804 31.244 44.4615 30.3319 45.113 30.0713L61.9216 23.9147C64.0324 22.9766 65.1465 24.3056 65.4397 25.0874L77.1666 46.8799L80.5869 40.0392C80.8996 39.0229 82.0202 38.6385 82.5414 38.5733L103.357 35.153C105.077 34.8403 105.897 35.4136 106.093 35.7393L115.963 48.9321H133.847L143.13 57.825L145.671 38.4756C145.906 36.443 147.463 35.9999 148.212 36.0325H161.796C162.447 36.1628 163.77 36.8339 163.848 38.4756C163.926 40.1174 162.512 40.7233 161.796 40.821H150.264L147.333 63.0044C146.551 65.8188 144.531 65.5452 143.619 65.0566L132.088 53.5251H114.106C112.855 52.9779 106.549 44.3065 103.552 40.0392L84.3004 43.1664L79.4142 52.7434C77.9288 55.2451 75.9939 54.1766 75.2121 53.3297L62.117 29.0941L47.2629 34.4689L38.6632 53.232C37.6469 55.7337 35.6989 55.3168 34.852 54.7956L24.6887 47.8571L15.5026 57.5318C14.3299 58.6068 12.9617 58.5091 11.9845 57.5318Z" fill="#516678"/>
<path fill-rule="evenodd" clip-rule="evenodd" d="M81.5642 151.706C86.8534 151.706 91.1411 147.419 91.1411 142.129C91.1411 136.84 86.8534 132.552 81.5642 132.552C76.2749 132.552 71.9872 136.84 71.9872 142.129C71.9872 147.419 76.2749 151.706 81.5642 151.706ZM81.5641 147.016C84.2627 147.016 86.4503 144.828 86.4503 142.129C86.4503 139.431 84.2627 137.243 81.5641 137.243C78.8655 137.243 76.6779 139.431 76.6779 142.129C76.6779 144.828 78.8655 147.016 81.5641 147.016Z" fill="#20A2DC"/>
<path fill-rule="evenodd" clip-rule="evenodd" d="M142.349 151.706C147.638 151.706 151.926 147.419 151.926 142.129C151.926 136.84 147.638 132.552 142.349 132.552C137.059 132.552 132.772 136.84 132.772 142.129C132.772 147.419 137.059 151.706 142.349 151.706ZM142.349 147.016C145.047 147.016 147.235 144.828 147.235 142.129C147.235 139.431 145.047 137.243 142.349 137.243C139.65 137.243 137.462 139.431 137.462 142.129C137.462 144.828 139.65 147.016 142.349 147.016Z" fill="#20A2DC"/>
</svg>
