<svg width="175" height="176" viewBox="0 0 175 176" fill="none" xmlns="http://www.w3.org/2000/svg">
<path d="M24.5737 40.0669L23.4364 40.6364L25.0476 42.7247H22.5835V43.7689L25.0476 43.2943L23.4364 45.6673L24.5737 46.2368L25.5214 43.7689L26.6587 46.2368L27.796 45.4775L26.1848 43.2943L28.8385 43.7689V42.7247H26.1848L27.796 40.6364L26.943 40.0669L25.5214 42.345L24.5737 40.0669Z" fill="#20A2DC"/>
<path d="M40.949 15.4624L39.8117 16.0319L41.4228 18.1202H38.9587V19.1644L41.4228 18.6898L39.8117 21.0628L40.949 21.6324L41.8967 19.1644L43.034 21.6324L44.1712 20.873L42.5601 18.6898L45.2137 19.1644V18.1202H42.5601L44.1712 16.0319L43.3183 15.4624L41.8967 17.7405L40.949 15.4624Z" fill="#20A2DC"/>
<path d="M157.025 35.7395L155.888 36.309L157.499 38.3973H155.035V39.4415L157.499 38.9669L155.888 41.3399L157.025 41.9095L157.973 39.4415L159.11 41.9095L160.248 41.1501L158.637 38.9669L161.29 39.4415V38.3973H158.637L160.248 36.309L159.395 35.7395L157.973 38.0176L157.025 35.7395Z" fill="#20A2DC"/>
<path d="M108.716 19.2255L107.578 19.795L109.189 21.8833H106.725V22.9274L109.189 22.4528L107.578 24.8259L108.716 25.3954L109.663 22.9274L110.801 25.3954L111.938 24.636L110.327 22.4528L112.98 22.9274V21.8833H110.327L111.938 19.795L111.085 19.2255L109.663 21.5036L108.716 19.2255Z" fill="#20A2DC"/>
<path d="M83.198 2.46484L82.6811 2.74523L83.4134 3.77331H82.2934V4.28735L83.4134 4.0537L82.6811 5.22197L83.198 5.50236L83.6288 4.28735L84.1457 5.50236L84.6627 5.12851L83.9303 4.0537L85.1365 4.28735V3.77331H83.9303L84.6627 2.74523L84.275 2.46484L83.6288 3.58639L83.198 2.46484Z" fill="#20A2DC"/>
<path fill-rule="evenodd" clip-rule="evenodd" d="M20.8201 11.2858C22.0763 11.2858 23.0947 10.2658 23.0947 9.00763C23.0947 7.74945 22.0763 6.72949 20.8201 6.72949C19.5639 6.72949 18.5456 7.74945 18.5456 9.00763C18.5456 10.2658 19.5639 11.2858 20.8201 11.2858ZM20.7902 9.72704C21.2034 9.72704 21.5384 9.39153 21.5384 8.97765C21.5384 8.56378 21.2034 8.22827 20.7902 8.22827C20.377 8.22827 20.042 8.56378 20.042 8.97765C20.042 9.39153 20.377 9.72704 20.7902 9.72704Z" fill="#516678"/>
<path fill-rule="evenodd" clip-rule="evenodd" d="M12.6267 54.6374C13.8829 54.6374 14.9012 53.6175 14.9012 52.3593C14.9012 51.1011 13.8829 50.0812 12.6267 50.0812C11.3705 50.0812 10.3521 51.1011 10.3521 52.3593C10.3521 53.6175 11.3705 54.6374 12.6267 54.6374ZM12.5967 53.0787C13.0099 53.0787 13.3449 52.7432 13.3449 52.3293C13.3449 51.9155 13.0099 51.58 12.5967 51.58C12.1835 51.58 11.8485 51.9155 11.8485 52.3293C11.8485 52.7432 12.1835 53.0787 12.5967 53.0787Z" fill="#516678"/>
<path fill-rule="evenodd" clip-rule="evenodd" d="M89.8535 21.7899C92.0666 21.7899 93.8607 19.9931 93.8607 17.7765C93.8607 15.5599 92.0666 13.7631 89.8535 13.7631C87.6405 13.7631 85.8464 15.5599 85.8464 17.7765C85.8464 19.9931 87.6405 21.7899 89.8535 21.7899ZM89.8007 19.0438C90.5287 19.0438 91.1189 18.4527 91.1189 17.7236C91.1189 16.9945 90.5287 16.4034 89.8007 16.4034C89.0727 16.4034 88.4826 16.9945 88.4826 17.7236C88.4826 18.4527 89.0727 19.0438 89.8007 19.0438Z" fill="#516678"/>
<path fill-rule="evenodd" clip-rule="evenodd" d="M150.863 57.5795C152.184 57.5795 153.256 56.5064 153.256 55.1827C153.256 53.859 152.184 52.7859 150.863 52.7859C149.541 52.7859 148.47 53.859 148.47 55.1827C148.47 56.5064 149.541 57.5795 150.863 57.5795ZM150.831 55.9393C151.266 55.9393 151.618 55.5864 151.618 55.1509C151.618 54.7155 151.266 54.3625 150.831 54.3625C150.396 54.3625 150.044 54.7155 150.044 55.1509C150.044 55.5864 150.396 55.9393 150.831 55.9393Z" fill="#516678"/>
<path fill-rule="evenodd" clip-rule="evenodd" d="M147.569 17.8571C148.891 17.8571 149.962 16.784 149.962 15.4603C149.962 14.1366 148.891 13.0635 147.569 13.0635C146.247 13.0635 145.176 14.1366 145.176 15.4603C145.176 16.784 146.247 17.8571 147.569 17.8571ZM147.538 16.2169C147.972 16.2169 148.325 15.8639 148.325 15.4285C148.325 14.9931 147.972 14.6401 147.538 14.6401C147.103 14.6401 146.75 14.9931 146.75 15.4285C146.75 15.8639 147.103 16.2169 147.538 16.2169Z" fill="#516678"/>
<path fill-rule="evenodd" clip-rule="evenodd" d="M86.9472 112.557C94.4792 112.557 100.585 106.452 100.585 98.9196C100.585 91.3876 94.4792 85.2817 86.9472 85.2817C79.4152 85.2817 73.3093 91.3876 73.3093 98.9196C73.3093 106.452 79.4152 112.557 86.9472 112.557ZM87.0572 107.058C91.4913 107.058 95.0859 103.464 95.0859 99.0296C95.0859 94.5954 91.4913 91.0009 87.0572 91.0009C82.623 91.0009 79.0284 94.5954 79.0284 99.0296C79.0284 103.464 82.623 107.058 87.0572 107.058Z" fill="#20A2DC"/>
<path fill-rule="evenodd" clip-rule="evenodd" d="M62.751 150.611C61.8711 144.416 60.1554 131.365 60.3314 130.045C60.5513 128.395 61.5412 126.415 63.1909 125.645V120.476C63.5209 117.8 65.8085 112.052 72.3195 110.468C73.456 111.824 76.1249 114.669 77.7086 115.197C75.179 114.94 69.8119 115.747 68.5801 121.026V124.326H105.864V121.356C105.718 119.303 103.753 115.197 97.0656 115.197C98.7154 113.914 102.015 111.172 102.015 110.468C104.838 111.018 110.659 113.965 111.363 121.356V125.645C112.28 126.085 114.091 127.757 114.003 130.925C113.16 137.377 111.539 150.348 111.803 150.611H106.451L108.614 131.474C108.687 130.925 108.592 129.825 107.624 129.825H67.0403C66.5637 129.825 65.6545 130.155 65.8305 131.474L67.9928 150.611H62.751Z" fill="#516678"/>
<path d="M53.7324 152.516C53.7324 153.282 54.4597 155.231 55.932 155.231H118.622C120.272 155.231 120.822 153.322 120.822 152.516C120.822 151.709 120.272 149.952 118.614 149.952H55.932C54.5696 149.952 53.7324 151.75 53.7324 152.516Z" fill="#20A2DC"/>
<circle cx="87.2771" cy="140.603" r="2.74957" fill="#20A2DC"/>
<path fill-rule="evenodd" clip-rule="evenodd" d="M30.4303 84.9523H34.3282C33.8857 87.73 33.6558 90.5786 33.6558 93.4809C33.6558 111.858 42.8729 128.083 56.9366 137.785V142.261C40.6503 132.097 29.8141 114.016 29.8141 93.4041C29.8141 90.5329 30.0243 87.7108 30.4303 84.9523ZM140.552 84.9523H144.296C144.702 87.7108 144.912 90.5329 144.912 93.4041C144.912 114.108 133.979 132.259 117.57 142.397V138.039C131.844 128.369 141.224 112.02 141.224 93.4809C141.224 90.5786 140.994 87.73 140.552 84.9523ZM111.916 41.3405C104.469 37.8224 96.1456 35.8551 87.3631 35.8551C78.6915 35.8551 70.4679 37.773 63.0933 41.2079C63.2381 41.9625 63.3139 42.7417 63.3139 43.5386C63.3139 44.1974 63.2621 44.8442 63.1623 45.475C70.4555 41.7793 78.7045 39.6968 87.4399 39.6968C96.2422 39.6968 104.551 41.8114 111.885 45.5602C111.776 44.9025 111.72 44.2271 111.72 43.5386C111.72 42.7883 111.787 42.0537 111.916 41.3405Z" fill="#516678"/>
<path fill-rule="evenodd" clip-rule="evenodd" d="M123.71 51.8367C128.971 51.8367 133.237 47.5711 133.237 42.3092C133.237 37.0473 128.971 32.7817 123.71 32.7817C118.448 32.7817 114.182 37.0473 114.182 42.3092C114.182 47.5711 118.448 51.8367 123.71 51.8367ZM123.786 47.995C126.884 47.995 129.395 45.4838 129.395 42.386C129.395 39.2883 126.884 36.7771 123.786 36.7771C120.689 36.7771 118.177 39.2883 118.177 42.386C118.177 45.4838 120.689 47.995 123.786 47.995Z" fill="#20A2DC"/>
<path fill-rule="evenodd" clip-rule="evenodd" d="M106.806 78.4214C106.191 74.0931 104.993 64.9754 105.116 64.0534C105.269 62.9008 105.961 61.5178 107.113 60.98V57.3688C107.344 55.4991 108.942 51.4832 113.491 50.3768C114.285 51.3245 116.149 53.3119 117.255 53.6807C115.488 53.5014 111.739 54.0649 110.878 57.7529V60.058H136.925V57.9834C136.823 56.5492 135.45 53.6807 130.778 53.6807C131.931 52.7843 134.236 50.8686 134.236 50.3768C136.208 50.761 140.275 52.8202 140.767 57.9834V60.98C141.407 61.2873 142.672 62.4552 142.611 64.668C142.022 69.1757 140.89 78.237 141.074 78.4214H137.335L138.846 65.0522C138.897 64.668 138.831 63.8997 138.154 63.8997H109.803C109.47 63.8997 108.834 64.1302 108.957 65.0522L110.468 78.4214H106.806Z" fill="#516678"/>
<path d="M100.506 79.7517C100.506 80.2869 101.014 81.6484 102.042 81.6484H145.838C146.99 81.6484 147.375 80.3151 147.375 79.7517C147.375 79.1883 146.99 77.9604 145.832 77.9604H102.042C101.09 77.9604 100.506 79.2164 100.506 79.7517Z" fill="#20A2DC"/>
<circle cx="123.94" cy="71.4295" r="1.92086" fill="#20A2DC"/>
<path fill-rule="evenodd" clip-rule="evenodd" d="M50.5632 51.8367C55.8251 51.8367 60.0907 47.5711 60.0907 42.3092C60.0907 37.0473 55.8251 32.7817 50.5632 32.7817C45.3013 32.7817 41.0357 37.0473 41.0357 42.3092C41.0357 47.5711 45.3013 51.8367 50.5632 51.8367ZM50.64 47.995C53.7378 47.995 56.249 45.4838 56.249 42.386C56.249 39.2883 53.7378 36.7771 50.64 36.7771C47.5423 36.7771 45.0311 39.2883 45.0311 42.386C45.0311 45.4838 47.5423 47.995 50.64 47.995Z" fill="#20A2DC"/>
<path fill-rule="evenodd" clip-rule="evenodd" d="M33.6596 78.4214C33.0449 74.0931 31.8463 64.9754 31.9693 64.0534C32.1229 62.9008 32.8144 61.5178 33.967 60.98V57.3688C34.1975 55.4991 35.7956 51.4832 40.3442 50.3768C41.1382 51.3245 43.0027 53.3119 44.1091 53.6807C42.3419 53.5014 38.5924 54.0649 37.7318 57.7529V60.058H63.7787V57.9834C63.6763 56.5492 62.3035 53.6807 57.632 53.6807C58.7845 52.7843 61.0895 50.8686 61.0895 50.3768C63.0616 50.761 67.1287 52.8202 67.6204 57.9834V60.98C68.2607 61.2873 69.5259 62.4552 69.4645 64.668C68.8754 69.1757 67.7434 78.237 67.9278 78.4214H64.1889L65.6996 65.0522C65.7508 64.668 65.6842 63.8997 65.0081 63.8997H36.6562C36.3232 63.8997 35.688 64.1302 35.811 65.0522L37.3216 78.4214H33.6596Z" fill="#516678"/>
<path d="M27.3592 79.7517C27.3592 80.2869 27.8673 81.6484 28.8959 81.6484H72.6915C73.844 81.6484 74.2282 80.3151 74.2282 79.7517C74.2282 79.1883 73.844 77.9604 72.6859 77.9604H28.8959C27.9441 77.9604 27.3592 79.2164 27.3592 79.7517Z" fill="#20A2DC"/>
<circle cx="50.7937" cy="71.4295" r="1.92086" fill="#20A2DC"/>
<rect x="15.912" y="156.268" width="143.033" height="4.26364" rx="2.13182" fill="#516678"/>
<rect x="161.158" y="156.268" width="7.15163" height="4.26364" rx="2.13182" fill="#20A2DC"/>
<rect x="6.71698" y="156.268" width="7.15163" height="4.26364" rx="2.13182" fill="#20A2DC"/>
<rect x="64.4409" y="164.454" width="45.6342" height="4.26364" rx="2.13182" fill="#20A2DC"/>
<rect x="72.7845" y="170.764" width="30.139" height="4.26364" rx="2.13182" fill="#20A2DC"/>
<rect x="83.1714" y="167.353" width="8.68413" height="4.26364" fill="#20A2DC"/>
<rect x="112.118" y="164.454" width="12.6005" height="4.26364" rx="2.13182" fill="#20A2DC"/>
<rect x="49.7971" y="164.454" width="12.6005" height="4.26364" rx="2.13182" fill="#20A2DC"/>
<rect x="170.353" y="156.268" width="4.25692" height="4.26364" rx="2.12846" fill="#20A2DC"/>
<rect x="0.24646" y="156.268" width="4.25692" height="4.26364" rx="2.12846" fill="#20A2DC"/>
</svg>
