<svg width="175" height="176" viewBox="0 0 175 176" fill="none" xmlns="http://www.w3.org/2000/svg">
<path d="M41.9655 112.689C43.2131 112.477 46.1782 110.519 47.281 109.9C47.6485 109.694 47.8804 109.388 48.3405 109.887L48.8007 110.386C49.907 110.07 53.2154 108.23 53.2115 107.911C53.2079 107.608 50.8604 105.415 49.8367 104.216C49.0198 103.418 48.114 103.631 47.5134 104.042L41.7007 107.443C40.3361 108.106 39.5833 107.603 39.3774 107.269L36.8014 102.858C36.2227 101.735 36.8132 101.041 37.1808 100.835L43.492 96.9228C44.8469 95.4528 44.1612 93.819 43.649 93.1857C42.7484 92.1467 41.6513 86.5134 41.2154 83.8266C41.1124 81.9703 39.806 81.3197 39.1657 81.2265L31.5976 81.3173C30.4684 81.4116 30.2404 80.3578 30.2676 79.819L30.2046 74.5704C30.192 73.5206 31.0634 73.2477 31.5007 73.2425L38.7673 73.2562C40.6201 72.9109 40.9983 71.345 40.9558 70.6052C40.7662 68.2654 42.7445 62.676 43.7573 60.1737C44.3876 58.874 43.7307 57.9531 43.3234 57.6551L36.412 53.5991C35.5979 53.0436 35.8564 52.1589 36.0874 51.7859L38.8547 46.9071C39.2486 46.0948 40.2962 46.486 40.7708 46.7832C41.0937 46.7793 44.7665 48.9561 46.5625 50.045C47.5813 50.8404 49.1871 50.0976 49.6846 49.5028C50.8786 48.0751 55.3957 43.2426 57.9595 41.0246C58.8387 40.2872 58.5747 39.0318 58.3328 38.4963L54.6238 32.181C54.2075 31.1361 54.5736 30.8019 54.8086 30.7655L59.1162 28.089C60.3155 27.1055 61.0942 27.5269 61.3337 27.8605L65.5534 34.6745C65.8646 35.3774 67.1801 35.6736 67.9812 35.1501C70.6249 33.4224 76.392 32.3908 78.9451 32.0909C80.3972 31.9927 80.9512 31.0574 81.0424 30.2487L80.9491 22.4766C81.0989 21.5057 81.9444 21.3206 82.3485 21.3494L87.7975 21.2839C88.9277 21.2704 89.0181 22.0769 89.0242 22.5816L89.1114 29.849C89.1247 30.9592 90.1171 31.654 90.9508 31.7449C94.2856 32.1087 99.551 33.5598 101.48 34.5461C101.888 34.8441 103.811 35.3257 104.506 34.4088L108.166 28.2069C109.05 26.1773 110.678 27.2682 110.779 27.267L114.64 29.4416C115.148 29.7383 115.977 30.2427 115.869 30.9411C115.682 32.1547 113.602 35.4774 112.312 37.2427C111.357 38.4656 111.733 39.5042 112.04 39.8707L114.387 41.9625L117.859 45.3531L121.437 49.1463C122.254 49.9441 123.326 49.5947 123.76 49.3203L130.071 45.4084C130.955 45.0748 131.384 45.4599 131.487 45.6943L134.369 50.3034C134.779 50.9042 135.102 51.506 134.793 52.0144C134.397 52.6653 130.62 54.6892 128.781 55.6199C126.071 56.8638 127.114 59.734 127.937 60.9804C128.862 62.3826 129.655 66.8149 130.168 70.342C130.3 71.2489 131.198 72.0458 132.005 72.0361L139.674 71.944C140.482 71.9343 140.893 72.5351 140.897 72.9388L140.969 78.894C140.977 79.6006 140.377 80.0116 139.771 80.0189L133.717 80.0915C130.69 80.1279 130.199 81.2941 130.224 83.3639C130.237 84.4742 129.086 89.4346 128.203 91.5651C126.624 94.5116 127.95 95.7475 129.068 96.4003C129.577 96.6971 131.409 97.9875 132.829 98.5761C135.16 99.4567 135.574 100.259 135.478 100.664C134.792 102.389 132.429 107.364 131.211 106.719C130.565 106.646 127.293 104.705 125.124 103.418L125.116 103.413C124.437 102.917 122.801 102.27 121.687 103.656L118.601 107.227L123.271 109.493L124.167 108.472C124.736 108.788 127.251 110.32 128.437 111.046C133.916 113.504 136.799 109.835 138.468 105.979C142.24 100.684 139.84 96.9777 138.143 95.6857C137.654 95.2878 134.485 93.6097 132.961 92.8204C133.754 91.5994 134.744 87.213 134.988 85.1238L140.437 85.0584C144.07 85.0148 146.042 81.155 146.024 79.641L145.932 71.9699C145.899 69.2446 142.54 66.8621 140.522 66.8863L134.77 66.9554C134.831 65.2587 133.388 61.0832 132.659 59.2075C137.173 56.9324 138.666 55.1984 139.258 54.0808C140.819 51.1345 138.984 48.0271 137.749 46.0229C136.757 44.0966 135.316 42.3842 134.771 41.8187C132.32 39.4253 129.102 40.3725 127.598 41.1982C127.357 41.2818 125.26 42.5386 123.287 43.5718C122.462 42.128 119.132 39.3144 117.57 38.0881C118.604 36.7836 118.956 35.8506 119.745 34.3269C121.626 31.2758 120.583 28.4617 119.761 27.2602C118.531 25.6597 116.803 24.6709 115.28 23.8816C114.945 23.708 113.959 23.1572 112.64 22.601C111.625 22.1084 109.399 21.6028 107.086 22.2638C105.979 22.58 104.883 23.7793 104.192 25.0242C103.876 25.5933 102.479 28.0396 101.82 29.1917C100.68 28.3977 96.216 27.5764 94.1265 27.265L94.0587 21.6126C94.0175 18.1808 89.9569 16.2105 88.2415 16.2311L81.077 16.3171C78.857 16.3437 75.8661 19.4082 75.894 21.7297L75.963 27.483C73.9461 27.6082 70.1249 28.7645 68.3194 29.6947C68.114 29.3943 66.9425 27.0865 66.2577 26.0853C64.8159 23.6798 62.5804 22.5493 61.571 22.4063C58.9426 22.0341 56.2399 23.8837 54.5365 24.9136C51.8312 26.5494 50.6338 27.6861 50.0393 28.6018C49.3039 29.7344 49.1771 32.4483 49.695 33.5525C50.112 34.6579 51.5193 36.9965 52.6856 38.8669C51.566 39.7687 48.4979 43.1235 47.1037 44.6881C45.5544 43.4145 42.5289 41.9164 40.9084 41.4311C40.2826 41.2437 39.3928 41.2923 38.6884 41.4578C35.9711 42.0961 34.2847 44.5391 33.1017 46.8752C31.2256 50.33 30.7669 52.0517 30.8608 53.5648C31.0485 56.5911 35.7402 59.2941 38.3107 60.441C37.3186 61.8662 36.5586 65.8124 36.2849 68.2385L30.9355 68.2017C26.9004 68.3511 25.2274 71.9045 25.2528 74.0241L25.3364 80.9887C25.3643 83.3102 29.0321 86.1937 30.7476 86.1731L36.6015 86.2038C36.6221 87.9197 37.8778 91.6398 38.7129 93.9517C38.4737 94.1968 35.8056 95.5729 34.5051 96.5259C33.8601 96.9985 32.7081 98.1627 32.1123 98.9774C31.2189 100.199 31.1544 103.25 31.875 104.432C32.364 105.233 33.2468 106.602 33.932 107.637C34.8595 109.241 36.4035 111.747 38.1274 112.433C38.6688 112.695 40.0519 113.015 41.9655 112.689Z" fill="#516678"/>
<path fill-rule="evenodd" clip-rule="evenodd" d="M63.5895 81.4946C63.3852 83.4734 65.2072 84.5937 66.1437 84.9064C67.7613 92.7537 73.6358 109.898 87.258 109.386C99.7734 108.916 106.357 93.3223 108.543 84.8211C110.518 84.5482 111.182 82.6603 111.267 81.7504L110.926 74.5856C110.858 72.129 109.309 71.2306 108.543 71.0884C108.951 64.1282 102.81 57.8959 99.6882 55.6498C98.0536 51.8285 95.034 50.4751 93.7285 50.2761H81.2132C78.4206 50.3444 75.8494 54.1145 74.9129 55.991C68.5105 60.0852 66.2855 67.8187 65.9734 71.1737C64.3387 71.5149 63.8733 73.4198 63.8449 74.3297C63.8449 75.8934 63.7939 79.5157 63.5895 81.4946ZM87.0877 105.292C74.1273 104.957 70.8571 87.1803 70.5023 85.2517L70.4857 85.1623L75.8495 87.5506H99.3477L104.03 85.1623C103.009 91.9007 95.6867 105.514 87.0877 105.292ZM67.6761 80.8975C67.7443 80.6246 67.8748 76.9739 67.9316 75.1827C68.4991 75.2111 69.7535 74.9097 70.2303 73.4767V70.662C70.4857 68.1599 72.4439 62.2517 78.2333 58.6352C78.659 57.6969 79.7488 55.6669 80.7023 55.0527C80.8159 56.9008 81.8943 60.6141 85.2998 60.6823V61.9617V64.2647H89.4716V60.6823C90.8338 60.6254 93.6774 59.4199 94.1542 55.0527C94.8069 55.5645 96.1294 56.9122 96.1975 58.2087C98.9787 60.0852 104.541 65.2371 104.541 70.8325V73.562C104.655 74.1022 105.273 75.1997 106.84 75.268L107.01 80.8122H103.69L98.326 83.4564H76.5305L71.252 80.8975H67.6761Z" fill="#516678"/>
<path fill-rule="evenodd" clip-rule="evenodd" d="M87.4283 74.5856C91.0018 74.5856 93.8988 71.6833 93.8988 68.1031C93.8988 64.5229 91.0018 61.6205 87.4283 61.6205C83.8547 61.6205 80.9577 64.5229 80.9577 68.1031C80.9577 71.6833 83.8547 74.5856 87.4283 74.5856ZM87.3431 70.1501C88.5186 70.1501 89.4716 69.1954 89.4716 68.0177C89.4716 66.84 88.5186 65.8853 87.3431 65.8853C86.1676 65.8853 85.2147 66.84 85.2147 68.0177C85.2147 69.1954 86.1676 70.1501 87.3431 70.1501Z" fill="#20A2DC"/>
<path d="M55.3311 126.36L59.1623 156.982L61.2908 158.858C62.9652 158.233 65.9904 156.862 64.6963 156.385C63.4022 155.907 63.0787 154.992 63.0787 154.593L59.5029 124.996C59.4348 123.494 60.8935 123.062 61.6314 123.034H113.906C115.2 123.512 115.41 124.768 115.354 125.337L111.948 153.741C111.812 155.856 110.643 156.385 110.075 156.385L109.649 158.432L115.609 156.726L119.611 124.654C119.066 120.219 115.751 118.997 114.162 118.94H61.6314C55.6376 118.94 54.9338 123.887 55.3311 126.36Z" fill="#20A2DC"/>
<path d="M72.4439 107.254L69.7195 104.269L48.4349 115.016C43.1222 117.95 41.7941 124.37 41.7941 127.213V154.508C41.7941 155.395 42.1914 156.072 42.39 156.299V159.967H132.467C132.268 158.858 131.99 156.572 132.467 156.299C132.943 156.026 133.119 154.821 133.148 154.252L132.892 126.36C132.892 120.287 129.033 116.438 127.103 115.272L104.371 103.927L101.732 106.828L124.208 118.598C127.546 119.69 128.777 124.569 128.976 126.872V154.508C128.703 156.078 127.273 156.356 126.592 156.299H47.924C46.3575 156.299 45.9091 155.105 45.8807 154.508V127.213C45.8807 122.232 48.8889 119.395 50.3931 118.598L72.4439 107.254Z" fill="#516678"/>
<path fill-rule="evenodd" clip-rule="evenodd" d="M87.4283 146.917C91.4721 146.917 94.7502 143.633 94.7502 139.581C94.7502 135.53 91.4721 132.246 87.4283 132.246C83.3845 132.246 80.1064 135.53 80.1064 139.581C80.1064 143.633 83.3845 146.917 87.4283 146.917ZM87.4283 142.823C89.2151 142.823 90.6635 141.371 90.6635 139.581C90.6635 137.791 89.2151 136.34 87.4283 136.34C85.6415 136.34 84.193 137.791 84.193 139.581C84.193 141.371 85.6415 142.823 87.4283 142.823Z" fill="#20A2DC"/>
<rect x="15.912" y="156.299" width="143.033" height="4.26481" rx="2.13241" fill="#516678"/>
<rect x="161.158" y="156.299" width="7.15163" height="4.26481" rx="2.13241" fill="#20A2DC"/>
<rect x="6.717" y="156.299" width="7.15163" height="4.26481" rx="2.13241" fill="#20A2DC"/>
<rect x="64.4409" y="164.488" width="45.6342" height="4.26481" rx="2.13241" fill="#20A2DC"/>
<rect x="72.7845" y="170.8" width="30.139" height="4.26481" rx="2.13241" fill="#20A2DC"/>
<rect x="83.1714" y="167.388" width="8.68413" height="4.26481" fill="#20A2DC"/>
<rect x="112.118" y="164.488" width="12.6005" height="4.26481" rx="2.13241" fill="#20A2DC"/>
<rect x="49.7971" y="164.488" width="12.6005" height="4.26481" rx="2.13241" fill="#20A2DC"/>
<rect x="170.353" y="156.299" width="4.25692" height="4.26481" rx="2.12846" fill="#20A2DC"/>
<rect x="0.246468" y="156.299" width="4.25692" height="4.26481" rx="2.12846" fill="#20A2DC"/>
<path d="M12.0033 66.6865L10.866 67.256L12.4772 69.3443H10.0131V70.3885L12.4772 69.9139L10.866 72.2869L12.0033 72.8564L12.951 70.3885L14.0883 72.8564L15.2256 72.0971L13.6144 69.9139L16.2681 70.3885V69.3443H13.6144L15.2256 67.256L14.3726 66.6865L12.951 68.9646L12.0033 66.6865Z" fill="#20A2DC"/>
<path d="M35.7729 14.9694L34.6356 15.5389L36.2468 17.6272H33.7827V18.6714L36.2468 18.1967L34.6356 20.5698L35.7729 21.1393L36.7206 18.6714L37.8579 21.1393L38.9952 20.38L37.384 18.1967L40.0377 18.6714V17.6272H37.384L38.9952 15.5389L38.1422 14.9694L36.7206 17.2475L35.7729 14.9694Z" fill="#20A2DC"/>
<path d="M150.524 52.7573L149.387 53.3269L150.998 55.4151H148.534V56.4593L150.998 55.9847L149.387 58.3577L150.524 58.9273L151.472 56.4593L152.609 58.9273L153.746 58.1679L152.135 55.9847L154.789 56.4593V55.4151H152.135L153.746 53.3269L152.893 52.7573L151.472 55.0355L150.524 52.7573Z" fill="#20A2DC"/>
<path d="M129.091 27.7486L127.954 28.3181L129.565 30.4064H127.101V31.4506L129.565 30.976L127.954 33.349L129.091 33.9185L130.039 31.4506L131.176 33.9185L132.314 33.1592L130.702 30.976L133.356 31.4506V30.4064H130.702L132.314 28.3181L131.461 27.7486L130.039 30.0267L129.091 27.7486Z" fill="#20A2DC"/>
<path d="M82.9516 1.97183L82.4346 2.25222L83.1669 3.2803H82.0469V3.79434L83.1669 3.56069L82.4346 4.72896L82.9516 5.00935L83.3823 3.79434L83.8993 5.00935L84.4162 4.6355L83.6839 3.56069L84.8901 3.79434V3.2803H83.6839L84.4162 2.25222L84.0285 1.97183L83.3823 3.09338L82.9516 1.97183Z" fill="#20A2DC"/>
<path fill-rule="evenodd" clip-rule="evenodd" d="M20.5736 10.7928C21.8298 10.7928 22.8482 9.77283 22.8482 8.51465C22.8482 7.25647 21.8298 6.23651 20.5736 6.23651C19.3174 6.23651 18.2991 7.25647 18.2991 8.51465C18.2991 9.77283 19.3174 10.7928 20.5736 10.7928ZM20.5437 9.23406C20.9569 9.23406 21.2919 8.89855 21.2919 8.48467C21.2919 8.0708 20.9569 7.73529 20.5437 7.73529C20.1305 7.73529 19.7955 8.0708 19.7955 8.48467C19.7955 8.89855 20.1305 9.23406 20.5437 9.23406Z" fill="#516678"/>
<path fill-rule="evenodd" clip-rule="evenodd" d="M12.3802 54.1444C13.6364 54.1444 14.6547 53.1245 14.6547 51.8663C14.6547 50.6081 13.6364 49.5882 12.3802 49.5882C11.124 49.5882 10.1056 50.6081 10.1056 51.8663C10.1056 53.1245 11.124 54.1444 12.3802 54.1444ZM12.3502 52.5857C12.7634 52.5857 13.0984 52.2502 13.0984 51.8363C13.0984 51.4225 12.7634 51.0869 12.3502 51.0869C11.937 51.0869 11.602 51.4225 11.602 51.8363C11.602 52.2502 11.937 52.5857 12.3502 52.5857Z" fill="#516678"/>
<path fill-rule="evenodd" clip-rule="evenodd" d="M131.508 11.4377C133.722 11.4377 135.516 9.64085 135.516 7.42429C135.516 5.20773 133.722 3.41086 131.508 3.41086C129.295 3.41086 127.501 5.20773 127.501 7.42429C127.501 9.64085 129.295 11.4377 131.508 11.4377ZM131.456 8.69162C132.184 8.69162 132.774 8.10054 132.774 7.37141C132.774 6.64228 132.184 6.0512 131.456 6.0512C130.728 6.0512 130.138 6.64228 130.138 7.37141C130.138 8.10054 130.728 8.69162 131.456 8.69162Z" fill="#516678"/>
<path fill-rule="evenodd" clip-rule="evenodd" d="M150.616 84.199C151.938 84.199 153.009 83.126 153.009 81.8022C153.009 80.4785 151.938 79.4055 150.616 79.4055C149.294 79.4055 148.223 80.4785 148.223 81.8022C148.223 83.126 149.294 84.199 150.616 84.199ZM150.584 82.5589C151.019 82.5589 151.372 82.2059 151.372 81.7705C151.372 81.335 151.019 80.982 150.584 80.982C150.15 80.982 149.797 81.335 149.797 81.7705C149.797 82.2059 150.15 82.5589 150.584 82.5589Z" fill="#516678"/>
<path fill-rule="evenodd" clip-rule="evenodd" d="M159.07 34.3667C160.391 34.3667 161.463 33.2936 161.463 31.9699C161.463 30.6462 160.391 29.5731 159.07 29.5731C157.748 29.5731 156.677 30.6462 156.677 31.9699C156.677 33.2936 157.748 34.3667 159.07 34.3667ZM159.038 32.7265C159.473 32.7265 159.825 32.3736 159.825 31.9381C159.825 31.5027 159.473 31.1497 159.038 31.1497C158.603 31.1497 158.251 31.5027 158.251 31.9381C158.251 32.3736 158.603 32.7265 159.038 32.7265Z" fill="#516678"/>
</svg>
