<svg width="175" height="176" viewBox="0 0 175 176" fill="none" xmlns="http://www.w3.org/2000/svg">
<path d="M42.0737 45.7358L40.9365 46.3054L42.5476 48.3937H40.0835V49.4378L42.5476 48.9632L40.9365 51.3363L42.0737 51.9058L43.0215 49.4378L44.1587 51.9058L45.296 51.1464L43.6849 48.9632L46.3385 49.4378V48.3937H43.6849L45.296 46.3054L44.443 45.7358L43.0215 48.014L42.0737 45.7358Z" fill="#20A2DC"/>
<path d="M41.1954 16.2018L40.0582 16.7713L41.6693 18.8596H39.2052V19.9038L41.6693 19.4291L40.0582 21.8022L41.1954 22.3717L42.1432 19.9038L43.2804 22.3717L44.4177 21.6124L42.8066 19.4291L45.4602 19.9038V18.8596H42.8066L44.4177 16.7713L43.5647 16.2018L42.1432 18.4799L41.1954 16.2018Z" fill="#20A2DC"/>
<path d="M160.876 66.3136L159.739 66.8831L161.35 68.9714H158.886V70.0156L161.35 69.541L159.739 71.914L160.876 72.4835L161.824 70.0156L162.961 72.4835L164.098 71.7242L162.487 69.541L165.141 70.0156V68.9714H162.487L164.098 66.8831L163.245 66.3136L161.824 68.5917L160.876 66.3136Z" fill="#20A2DC"/>
<path d="M122.19 19.1219L121.053 19.6914L122.664 21.7797H120.2V22.8239L122.664 22.3492L121.053 24.7223L122.19 25.2918L123.138 22.8239L124.275 25.2918L125.412 24.5325L123.801 22.3492L126.455 22.8239V21.7797H123.801L125.412 19.6914L124.559 19.1219L123.138 21.4L122.19 19.1219Z" fill="#20A2DC"/>
<path d="M83.4445 3.20422L82.9276 3.48461L83.6599 4.51269H82.5399V5.02673L83.6599 4.79308L82.9276 5.96135L83.4445 6.24174L83.8753 5.02673L84.3922 6.24174L84.9092 5.86789L84.1768 4.79308L85.383 5.02673V4.51269H84.1768L84.9092 3.48461L84.5215 3.20422L83.8753 4.32577L83.4445 3.20422Z" fill="#20A2DC"/>
<path fill-rule="evenodd" clip-rule="evenodd" d="M21.0666 12.0252C22.3228 12.0252 23.3411 11.0052 23.3411 9.74707C23.3411 8.48889 22.3228 7.46893 21.0666 7.46893C19.8104 7.46893 18.7921 8.48889 18.7921 9.74707C18.7921 11.0052 19.8104 12.0252 21.0666 12.0252ZM21.0367 10.4665C21.4499 10.4665 21.7849 10.131 21.7849 9.7171C21.7849 9.30322 21.4499 8.96771 21.0367 8.96771C20.6235 8.96771 20.2885 9.30322 20.2885 9.7171C20.2885 10.131 20.6235 10.4665 21.0367 10.4665Z" fill="#516678"/>
<path fill-rule="evenodd" clip-rule="evenodd" d="M12.8731 55.3768C14.1293 55.3768 15.1477 54.3569 15.1477 53.0987C15.1477 51.8405 14.1293 50.8206 12.8731 50.8206C11.6169 50.8206 10.5986 51.8405 10.5986 53.0987C10.5986 54.3569 11.6169 55.3768 12.8731 55.3768ZM12.8432 53.8181C13.2564 53.8181 13.5914 53.4826 13.5914 53.0687C13.5914 52.6548 13.2564 52.3193 12.8432 52.3193C12.4299 52.3193 12.095 52.6548 12.095 53.0687C12.095 53.4826 12.4299 53.8181 12.8432 53.8181Z" fill="#516678"/>
<path fill-rule="evenodd" clip-rule="evenodd" d="M79.9944 23.7618C82.2074 23.7618 84.0015 21.9649 84.0015 19.7484C84.0015 17.5318 82.2074 15.7349 79.9944 15.7349C77.7813 15.7349 75.9872 17.5318 75.9872 19.7484C75.9872 21.9649 77.7813 23.7618 79.9944 23.7618ZM79.9416 21.0157C80.6696 21.0157 81.2597 20.4246 81.2597 19.6955C81.2597 18.9663 80.6696 18.3753 79.9416 18.3753C79.2136 18.3753 78.6235 18.9663 78.6235 19.6955C78.6235 20.4246 79.2136 21.0157 79.9416 21.0157Z" fill="#516678"/>
<path fill-rule="evenodd" clip-rule="evenodd" d="M136.32 50.9244C137.642 50.9244 138.713 49.8514 138.713 48.5276C138.713 47.2039 137.642 46.1309 136.32 46.1309C134.999 46.1309 133.927 47.2039 133.927 48.5276C133.927 49.8514 134.999 50.9244 136.32 50.9244ZM136.289 49.2843C136.724 49.2843 137.076 48.9313 137.076 48.4959C137.076 48.0605 136.724 47.7075 136.289 47.7075C135.854 47.7075 135.502 48.0605 135.502 48.4959C135.502 48.9313 135.854 49.2843 136.289 49.2843Z" fill="#516678"/>
<path fill-rule="evenodd" clip-rule="evenodd" d="M159.563 35.5991C160.884 35.5991 161.956 34.526 161.956 33.2023C161.956 31.8786 160.884 30.8055 159.563 30.8055C158.241 30.8055 157.17 31.8786 157.17 33.2023C157.17 34.526 158.241 35.5991 159.563 35.5991ZM159.531 33.9589C159.966 33.9589 160.318 33.6059 160.318 33.1705C160.318 32.7351 159.966 32.3821 159.531 32.3821C159.096 32.3821 158.744 32.7351 158.744 33.1705C158.744 33.6059 159.096 33.9589 159.531 33.9589Z" fill="#516678"/>
<path d="M113.502 95.1408C115.229 96.6197 116.215 96.6197 118.491 96.6197V37.6311C118.491 34.0215 115.519 32.5352 113.502 32.5352H61.5874C57.5532 32.5352 56.3854 35.614 56.3854 37.6311V96.6197C58.0458 96.6197 60.3873 96.0035 61.5874 95.1408V37.6311H113.502V95.1408Z" fill="#516678"/>
<path d="M72.095 44.8591C70.1437 44.8591 69.014 46.889 69.014 48.0489V56.6031C69.014 57.473 70.041 59.6479 72.095 59.6479C74.149 59.6479 75.176 57.618 75.176 56.6031V48.0489C75.176 46.889 74.0463 44.8591 72.095 44.8591Z" fill="#20A2DC"/>
<path d="M82.4991 44.8591C80.5478 44.8591 79.4182 46.889 79.4182 48.0489V56.6031C79.4182 57.473 80.4451 59.6479 82.4991 59.6479C84.5531 59.6479 85.5801 57.618 85.5801 56.6031V48.0489C85.5801 46.889 84.4504 44.8591 82.4991 44.8591Z" fill="#516678"/>
<path d="M92.9032 44.8591C90.9519 44.8591 89.8222 46.889 89.8222 48.0489V56.6031C89.8222 57.473 90.8492 59.6479 92.9032 59.6479C94.9572 59.6479 95.9842 57.618 95.9842 56.6031V48.0489C95.9842 46.889 94.8545 44.8591 92.9032 44.8591Z" fill="#20A2DC"/>
<path d="M103.307 44.8591C101.356 44.8591 100.226 46.889 100.226 48.0489V56.6031C100.226 57.473 101.253 59.6479 103.307 59.6479C105.361 59.6479 106.388 57.618 106.388 56.6031V48.0489C106.388 46.889 105.259 44.8591 103.307 44.8591Z" fill="#516678"/>
<path d="M71.6021 64.5775C69.6508 64.5775 68.5211 66.6073 68.5211 67.7672V76.3214C68.5211 77.1914 69.5481 79.3662 71.6021 79.3662C73.6561 79.3662 74.6831 77.3364 74.6831 76.3214V67.7672C74.6831 66.6073 73.5534 64.5775 71.6021 64.5775Z" fill="#20A2DC"/>
<path d="M82.0062 64.5775C80.0549 64.5775 78.9252 66.6073 78.9252 67.7672V76.3214C78.9252 77.1914 79.9522 79.3662 82.0062 79.3662C84.0602 79.3662 85.0872 77.3364 85.0872 76.3214V67.7672C85.0872 66.6073 83.9575 64.5775 82.0062 64.5775Z" fill="#516678"/>
<path d="M92.4103 64.5775C90.459 64.5775 89.3293 66.6073 89.3293 67.7672V76.3214C89.3293 77.1914 90.3563 79.3662 92.4103 79.3662C94.4643 79.3662 95.4913 77.3364 95.4913 76.3214V67.7672C95.4913 66.6073 94.3616 64.5775 92.4103 64.5775Z" fill="#20A2DC"/>
<path d="M102.814 64.5775C100.863 64.5775 99.7334 66.6073 99.7334 67.7672V76.3214C99.7334 77.1914 100.76 79.3662 102.814 79.3662C104.868 79.3662 105.895 77.3364 105.895 76.3214V67.7672C105.895 66.6073 104.766 64.5775 102.814 64.5775Z" fill="#516678"/>
<path d="M131.55 79.1412H123.8V84.3433H149.597V157.5C151.551 157.925 153.809 156.631 154.693 157.87V84.131C154.693 79.7995 151.721 79.1412 150.022 79.1412H136.645V76.1687C136.645 75.3193 136.008 73.9392 134.097 73.9392C131.974 73.9392 131.55 75.4255 131.55 76.1687V79.1412Z" fill="#516678"/>
<path d="M131.25 89.4719C129.299 89.4719 128.169 91.5017 128.169 92.6616V101.216C128.169 102.086 129.196 104.261 131.25 104.261C133.304 104.261 134.331 102.231 134.331 101.216V92.6616C134.331 91.5017 133.201 89.4719 131.25 89.4719Z" fill="#20A2DC"/>
<path d="M142.342 89.4719C140.39 89.4719 139.261 91.5017 139.261 92.6616V101.216C139.261 102.086 140.288 104.261 142.342 104.261C144.396 104.261 145.423 102.231 145.423 101.216V92.6616C145.423 91.5017 144.293 89.4719 142.342 89.4719Z" fill="#516678"/>
<path d="M131.25 128.908C129.299 128.908 128.169 130.938 128.169 132.098V140.652C128.169 141.522 129.196 143.697 131.25 143.697C133.304 143.697 134.331 141.667 134.331 140.652V132.098C134.331 130.938 133.201 128.908 131.25 128.908Z" fill="#20A2DC"/>
<path d="M142.342 128.908C140.39 128.908 139.261 130.938 139.261 132.098V140.652C139.261 141.522 140.288 143.697 142.342 143.697C144.396 143.697 145.423 141.667 145.423 140.652V132.098C145.423 130.938 144.293 128.908 142.342 128.908Z" fill="#516678"/>
<path d="M131.25 109.19C129.299 109.19 128.169 111.22 128.169 112.38V120.934C128.169 121.804 129.196 123.979 131.25 123.979C133.304 123.979 134.331 121.949 134.331 120.934V112.38C134.331 111.22 133.201 109.19 131.25 109.19Z" fill="#516678"/>
<path d="M142.342 109.19C140.39 109.19 139.261 111.22 139.261 112.38V120.934C139.261 121.804 140.288 123.979 142.342 123.979C144.396 123.979 145.423 121.949 145.423 120.934V112.38C145.423 111.22 144.293 109.19 142.342 109.19Z" fill="#20A2DC"/>
<path d="M131.25 148.627C129.299 148.627 128.169 150.657 128.169 151.816V153.716H134.331V151.816C134.331 150.657 133.201 148.627 131.25 148.627Z" fill="#516678"/>
<path d="M142.342 148.627C140.39 148.627 139.261 150.657 139.261 151.816V153.716H145.423V151.816C145.423 150.657 144.293 148.627 142.342 148.627Z" fill="#20A2DC"/>
<path d="M43.3272 79.2474H51.0771V84.4494H25.2793V157.623C23.3259 158.048 21.0681 157.001 20.1834 158.239V84.2371C20.1834 79.9056 23.156 79.2474 24.8546 79.2474H38.2313V76.2748C38.2313 75.4255 38.8683 74.0453 40.7792 74.0453C42.9025 74.0453 43.3272 75.5316 43.3272 76.2748V79.2474Z" fill="#516678"/>
<path d="M32.9049 89.4718C30.9536 89.4718 29.8239 91.5016 29.8239 92.6615V101.216C29.8239 102.086 30.8509 104.261 32.9049 104.261C34.9589 104.261 35.9859 102.231 35.9859 101.216V92.6615C35.9859 91.5016 34.8562 89.4718 32.9049 89.4718Z" fill="#20A2DC"/>
<path d="M43.9965 89.4718C42.0452 89.4718 40.9155 91.5016 40.9155 92.6615V101.216C40.9155 102.086 41.9425 104.261 43.9965 104.261C46.0504 104.261 47.0774 102.231 47.0774 101.216V92.6615C47.0774 91.5016 45.9477 89.4718 43.9965 89.4718Z" fill="#516678"/>
<path d="M32.9049 148.627C30.9536 148.627 29.8239 150.657 29.8239 151.816V153.716H35.9859V151.816C35.9859 150.657 34.8562 148.627 32.9049 148.627Z" fill="#516678"/>
<path d="M43.9965 148.627C42.0452 148.627 40.9155 150.657 40.9155 151.816V153.716H47.0774V151.816C47.0774 150.657 45.9477 148.627 43.9965 148.627Z" fill="#20A2DC"/>
<path d="M32.9049 128.908C30.9536 128.908 29.8239 130.938 29.8239 132.098V140.652C29.8239 141.522 30.8509 143.697 32.9049 143.697C34.9589 143.697 35.9859 141.667 35.9859 140.652V132.098C35.9859 130.938 34.8562 128.908 32.9049 128.908Z" fill="#20A2DC"/>
<path d="M43.9965 128.908C42.0452 128.908 40.9155 130.938 40.9155 132.098V140.652C40.9155 141.522 41.9425 143.697 43.9965 143.697C46.0504 143.697 47.0774 141.667 47.0774 140.652V132.098C47.0774 130.938 45.9477 128.908 43.9965 128.908Z" fill="#516678"/>
<path d="M32.9049 109.19C30.9536 109.19 29.8239 111.22 29.8239 112.38V120.934C29.8239 121.804 30.8509 123.979 32.9049 123.979C34.9589 123.979 35.9859 121.949 35.9859 120.934V112.38C35.9859 111.22 34.8562 109.19 32.9049 109.19Z" fill="#516678"/>
<path d="M43.9965 109.19C42.0452 109.19 40.9155 111.22 40.9155 112.38V120.934C40.9155 121.804 41.9425 123.979 43.9965 123.979C46.0504 123.979 47.0774 121.949 47.0774 120.934V112.38C47.0774 111.22 45.9477 109.19 43.9965 109.19Z" fill="#20A2DC"/>
<circle cx="85.6466" cy="91.3413" r="1.19583" fill="#516678"/>
<circle cx="82.4896" cy="94.8809" r="1.19583" fill="#D9D9D9"/>
<circle cx="82.4896" cy="94.8809" r="1.19583" fill="#20A2DC"/>
<circle cx="92.5346" cy="97.8465" r="1.19583" fill="#516678"/>
<circle cx="78.8543" cy="97.8465" r="1.19583" fill="#516678"/>
<circle cx="74.7407" cy="100.43" r="1.19583" fill="#20A2DC"/>
<circle cx="70.4357" cy="102.343" r="1.19583" fill="#516678"/>
<circle cx="65.8437" cy="103.778" r="1.19583" fill="#20A2DC"/>
<circle cx="61.1561" cy="104.447" r="1.19583" fill="#516678"/>
<circle cx="61.4431" cy="109.135" r="1.19583" fill="#20A2DC"/>
<circle cx="61.9214" cy="113.727" r="1.19583" fill="#516678"/>
<circle cx="62.7824" cy="118.223" r="1.19583" fill="#20A2DC"/>
<circle cx="82.8245" cy="122.289" r="1.43499" fill="#20A2DC"/>
<circle cx="63.8347" cy="122.72" r="1.19583" fill="#516678"/>
<circle cx="65.174" cy="127.216" r="1.19583" fill="#20A2DC"/>
<circle cx="66.8004" cy="131.521" r="1.19583" fill="#516678"/>
<circle cx="68.8093" cy="135.635" r="1.19583" fill="#20A2DC"/>
<circle cx="71.2967" cy="139.557" r="1.19583" fill="#516678"/>
<circle cx="74.2624" cy="143.192" r="1.19583" fill="#20A2DC"/>
<circle cx="77.6106" cy="146.349" r="1.19583" fill="#516678"/>
<circle cx="81.4373" cy="148.932" r="1.19583" fill="#20A2DC"/>
<circle cx="85.6466" cy="150.75" r="1.19583" fill="#516678"/>
<circle cx="89.8559" cy="148.932" r="1.19583" fill="#20A2DC"/>
<circle cx="93.6825" cy="146.349" r="1.19583" fill="#516678"/>
<circle cx="97.0308" cy="143.192" r="1.19583" fill="#20A2DC"/>
<circle cx="110.137" cy="104.543" r="1.19583" fill="#516678"/>
<circle cx="105.449" cy="103.778" r="1.19583" fill="#20A2DC"/>
<circle cx="100.953" cy="102.343" r="1.19583" fill="#516678"/>
<circle cx="96.5526" cy="100.43" r="1.19583" fill="#20A2DC"/>
<circle cx="88.8993" cy="94.8809" r="1.19583" fill="#20A2DC"/>
<path d="M55.4162 99.7121C71.6794 97.7987 81.6287 88.4235 84.7857 84.1185C85.3118 83.2575 86.125 83.4893 86.6033 84.1185C94.6039 94.6418 108.32 98.9467 116.116 99.7121C117.599 99.8576 117.765 100.478 117.743 100.956L117.216 109.135C116.866 108.88 115.906 108.332 114.873 108.179L115.447 101.912C108.893 101.482 95.0697 97.7987 85.6466 86.7493C82.3142 91.0383 71.8707 100.19 55.9423 101.96C56.5163 116.98 62.352 148.119 85.6945 155.964C88.7399 155.087 96.2369 151.42 101.862 144.149L103.775 145.44C101.623 148.629 94.9933 155.629 85.6945 158.116C60.7256 151.324 53.9493 117.251 53.5985 100.956C53.5748 99.8556 54.6986 99.7965 55.4162 99.7121Z" fill="#516678"/>
<path fill-rule="evenodd" clip-rule="evenodd" d="M111.763 130.803C117.549 130.803 122.239 126.113 122.239 120.328C122.239 114.543 117.549 109.853 111.763 109.853C105.978 109.853 101.288 114.543 101.288 120.328C101.288 126.113 105.978 130.803 111.763 130.803ZM111.778 128.416C116.202 128.416 119.789 124.829 119.789 120.405C119.789 115.981 116.202 112.394 111.778 112.394C107.354 112.394 103.768 115.981 103.768 120.405C103.768 124.829 107.354 128.416 111.778 128.416Z" fill="#516678"/>
<path d="M107.22 121.094C107.177 120.167 108.058 119.831 108.504 119.778C108.718 119.753 108.932 119.778 109.253 119.988L110.859 121.146L114.23 116.883C114.766 116.41 115.622 116.568 115.996 116.883C116.478 117.357 116.371 118.146 116.157 118.462L111.822 124.041C111.052 124.42 110.431 124.128 110.217 123.935L107.648 122.041C107.273 121.725 107.23 121.304 107.22 121.094Z" fill="#20A2DC"/>
<path fill-rule="evenodd" clip-rule="evenodd" d="M74.4059 123.772L81.4373 113.536L80.3372 112.627C80.098 112.436 79.7823 111.842 80.4328 111.001L82.7767 107.7C83.1593 107.126 84.5369 106.342 86.0293 107.413L95.3568 113.871C95.9307 114.349 96.4569 115.784 95.3568 117.267L93.2999 120.328C93.0607 120.663 92.2954 121.141 91.4823 120.424L90.8604 119.898L89.6168 121.572L117.79 139.222C119.341 140.12 120.23 142.81 118.856 144.675C118.694 144.92 118.578 145.101 118.478 145.258C118.304 145.529 118.177 145.728 117.934 146.062C117.895 146.115 117.857 146.167 117.82 146.218C117.211 147.058 116.798 147.626 116.212 148.167C114.633 149.841 113.007 149.315 110.855 147.832L84.9291 128.555L83.829 130.182L84.69 130.851C85.0567 131.09 85.5701 131.818 84.69 132.812L82.8723 135.443C82.3462 136.161 80.8442 137.318 79.0457 136.209L70.5314 130.373C69.7661 129.927 68.5702 128.498 69.9096 126.355L71.9664 123.389C72.3012 122.911 72.8752 122.385 74.4059 123.772ZM82.8723 111.622L84.2116 109.661C84.3073 109.502 84.6134 109.278 85.0726 109.661L93.2042 115.21C93.4115 115.305 93.7399 115.592 93.3955 115.975L92.0562 117.888L91.0039 117.171C90.7966 117.012 90.2864 116.798 89.9037 117.219L86.9859 121.332C86.8265 121.619 86.6319 122.289 87.1294 122.672C87.1294 122.672 116.14 140.944 116.786 141.374C117.432 141.805 117.503 142.666 116.786 143.623L115.064 146.158C114.49 146.923 113.677 147.114 112.433 146.158L85.4553 126.116C85.1045 125.829 84.2499 125.446 83.6376 126.211L81.1024 129.942C80.9271 130.166 80.6815 130.727 81.1024 131.186L82.3461 132.095L80.959 134.104C80.8633 134.311 80.5189 134.563 79.9066 133.913L71.9664 128.46C71.8069 128.38 71.5646 128.134 71.8707 127.79L73.21 125.829L74.1667 126.498C74.3899 126.706 75.0755 126.833 75.4582 126.403L84.0203 114.014C84.2595 113.759 84.5943 113.086 84.0203 112.435L82.8723 111.622Z" fill="#516678"/>
<rect x="15.912" y="156.268" width="143.033" height="4.26364" rx="2.13182" fill="#516678"/>
<rect x="161.158" y="156.268" width="7.15163" height="4.26364" rx="2.13182" fill="#20A2DC"/>
<rect x="6.71698" y="156.268" width="7.15163" height="4.26364" rx="2.13182" fill="#20A2DC"/>
<rect x="64.4409" y="164.454" width="45.6342" height="4.26364" rx="2.13182" fill="#20A2DC"/>
<rect x="72.7845" y="170.764" width="30.139" height="4.26364" rx="2.13182" fill="#20A2DC"/>
<rect x="83.1713" y="167.353" width="8.68413" height="4.26364" fill="#20A2DC"/>
<rect x="112.118" y="164.454" width="12.6005" height="4.26364" rx="2.13182" fill="#20A2DC"/>
<rect x="49.7971" y="164.454" width="12.6005" height="4.26364" rx="2.13182" fill="#20A2DC"/>
<rect x="170.353" y="156.268" width="4.25692" height="4.26364" rx="2.12846" fill="#20A2DC"/>
<rect x="0.24646" y="156.268" width="4.25692" height="4.26364" rx="2.12846" fill="#20A2DC"/>
</svg>
