<svg width="175" height="175" viewBox="0 0 175 175" fill="none" xmlns="http://www.w3.org/2000/svg">
<path fill-rule="evenodd" clip-rule="evenodd" d="M29.3926 26.0233C29.279 27.1239 30.2923 27.747 30.8132 27.9209C31.7128 32.2854 34.9801 41.8208 42.5564 41.5361C49.5172 41.2746 53.1791 32.6017 54.3944 27.8735C55.493 27.7217 55.8623 26.6717 55.9097 26.1657L55.7203 22.1807C55.6824 20.8145 54.8206 20.3148 54.3944 20.2357C54.6217 16.3646 51.2061 12.8984 49.4698 11.6491C48.5607 9.5238 46.8812 8.77109 46.1552 8.6604H39.1944C37.6413 8.69835 36.2113 10.7952 35.6904 11.8389C32.1295 14.116 30.8921 18.4172 30.7184 20.2831C29.8093 20.4729 29.5504 21.5324 29.5346 22.0384C29.5346 22.9081 29.5062 24.9227 29.3926 26.0233ZM42.4617 39.259C35.2534 39.0727 33.4346 29.1856 33.2373 28.113L33.2281 28.0632L36.2113 29.3916H49.2804L51.8848 28.0632C51.3165 31.811 47.2443 39.3827 42.4617 39.259ZM31.6654 25.6913C31.7033 25.5395 31.7759 23.5091 31.8075 22.5128C32.1232 22.5286 32.8208 22.361 33.086 21.564V19.9985C33.228 18.6069 34.3171 15.321 37.5371 13.3095C37.7738 12.7877 38.3799 11.6586 38.9103 11.317C38.9734 12.3449 39.5732 14.4101 41.4673 14.4481V15.1597V16.4405H43.7875V14.4481C44.5452 14.4164 46.1267 13.746 46.3919 11.317C46.7549 11.6017 47.4905 12.3512 47.5283 13.0723C49.0752 14.116 52.1688 16.9813 52.1688 20.0934V21.6115C52.232 21.9119 52.5761 22.5223 53.4473 22.5603L53.5421 25.6438H51.6953L48.7121 27.1145H36.59L33.6542 25.6913H31.6654Z" fill="#516678"/>
<path fill-rule="evenodd" clip-rule="evenodd" d="M42.6511 22.1808C44.6387 22.1808 46.2499 20.5666 46.2499 18.5754C46.2499 16.5842 44.6387 14.97 42.6511 14.97C40.6636 14.97 39.0524 16.5842 39.0524 18.5754C39.0524 20.5666 40.6636 22.1808 42.6511 22.1808ZM42.6037 19.7139C43.2575 19.7139 43.7875 19.1829 43.7875 18.5279C43.7875 17.8729 43.2575 17.3419 42.6037 17.3419C41.9499 17.3419 41.4199 17.8729 41.4199 18.5279C41.4199 19.1829 41.9499 19.7139 42.6037 19.7139Z" fill="#20A2DC"/>
<path fill-rule="evenodd" clip-rule="evenodd" d="M19.0471 61.3779L20.7972 49.2194C20.92 47.8685 22.0683 44.9824 25.679 44.2455L33.6004 42.7717C34.7979 43.5393 37.6349 45.0745 39.4034 45.0745L42.7193 50.0484L45.851 45.0745C47.1406 44.8595 50.1065 44.0981 51.6539 42.7717C54.6629 43.4165 60.7728 44.706 61.1412 44.706C62.1237 45.0438 64.1624 46.3272 64.4572 48.7589L66.2994 61.3779H19.0471ZM23.7447 61.1937L25.4027 49.1273L35.4426 47.0088L41.3377 56.3118C41.6754 56.6803 42.664 57.1961 43.9167 56.3118L49.996 47.0088L59.7596 49.1273L61.6018 61.1937H23.7447Z" fill="#516678"/>
<path fill-rule="evenodd" clip-rule="evenodd" d="M58.1545 23.3903L65.7348 23.3903C67.5437 23.3903 68.8358 23.3903 68.8358 26.4913V58.363C68.8358 59.8273 68.8358 61.2056 65.9932 61.2056H18.7887C17.4966 61.2056 16.2906 60.9471 16.2906 58.7937V25.716C16.2906 24.6824 16.5491 23.3903 18.5303 23.3903L27.3165 23.3903C27.3165 21.9267 27.5204 20.5109 27.9014 19.1694H14.7554C12.4559 19.1694 12.1559 20.7529 12.1559 22.0197V62.5567C12.1559 65.1959 13.5556 65.5125 15.0553 65.5125H69.8435C73.1428 65.5125 73.1428 63.8235 73.1428 62.0289V22.9698C73.1428 19.1694 71.6431 19.1694 69.5436 19.1694H57.5697C57.9506 20.5109 58.1545 21.9267 58.1545 23.3903Z" fill="#516678"/>
<path fill-rule="evenodd" clip-rule="evenodd" d="M119.514 26.0233C119.4 27.1239 120.414 27.747 120.934 27.9209C121.834 32.2854 125.101 41.8208 132.678 41.5361C139.638 41.2746 143.3 32.6017 144.516 27.8735C145.614 27.7217 145.984 26.6717 146.031 26.1657L145.842 22.1807C145.804 20.8145 144.942 20.3148 144.516 20.2357C144.743 16.3646 141.327 12.8984 139.591 11.6491C138.682 9.5238 137.002 8.77109 136.276 8.6604H129.316C127.763 8.69835 126.332 10.7952 125.812 11.8389C122.251 14.116 121.013 18.4172 120.84 20.2831C119.93 20.4729 119.672 21.5324 119.656 22.0384C119.656 22.9081 119.627 24.9227 119.514 26.0233ZM132.583 39.259C125.375 39.0727 123.556 29.1856 123.358 28.113L123.349 28.0632L126.332 29.3916H139.402L142.006 28.0632C141.438 31.811 137.365 39.3827 132.583 39.259ZM121.787 25.6913C121.824 25.5395 121.897 23.5091 121.929 22.5128C122.244 22.5286 122.942 22.361 123.207 21.564V19.9985C123.349 18.6069 124.438 15.321 127.658 13.3095C127.895 12.7877 128.501 11.6586 129.031 11.317C129.095 12.3449 129.694 14.4101 131.588 14.4481V15.1597V16.4405H133.909V14.4481C134.666 14.4164 136.248 13.746 136.513 11.317C136.876 11.6017 137.612 12.3512 137.65 13.0723C139.196 14.116 142.29 16.9813 142.29 20.0934V21.6115C142.353 21.9119 142.697 22.5223 143.569 22.5603L143.663 25.6438H141.817L138.833 27.1145H126.711L123.775 25.6913H121.787Z" fill="#516678"/>
<path fill-rule="evenodd" clip-rule="evenodd" d="M132.772 22.1808C134.76 22.1808 136.371 20.5666 136.371 18.5754C136.371 16.5842 134.76 14.97 132.772 14.97C130.785 14.97 129.174 16.5842 129.174 18.5754C129.174 20.5666 130.785 22.1808 132.772 22.1808ZM132.725 19.7139C133.379 19.7139 133.909 19.1829 133.909 18.5279C133.909 17.8729 133.379 17.3419 132.725 17.3419C132.071 17.3419 131.541 17.8729 131.541 18.5279C131.541 19.1829 132.071 19.7139 132.725 19.7139Z" fill="#20A2DC"/>
<path fill-rule="evenodd" clip-rule="evenodd" d="M109.168 61.3779L110.918 49.2194C111.041 47.8685 112.189 44.9824 115.8 44.2455L123.722 42.7717C124.919 43.5393 127.756 45.0745 129.524 45.0745L132.84 50.0484L135.972 45.0745C137.262 44.8595 140.228 44.0981 141.775 42.7717C144.784 43.4165 150.894 44.706 151.262 44.706C152.245 45.0438 154.284 46.3272 154.578 48.7589L156.42 61.3779H109.168ZM113.866 61.1937L115.524 49.1273L125.564 47.0088L131.459 56.3118C131.797 56.6803 132.785 57.1961 134.038 56.3118L140.117 47.0088L149.881 49.1273L151.723 61.1937H113.866Z" fill="#516678"/>
<path fill-rule="evenodd" clip-rule="evenodd" d="M148.276 23.3903L155.856 23.3903C157.665 23.3903 158.957 23.3903 158.957 26.4913V58.363C158.957 59.8273 158.957 61.2056 156.114 61.2056H108.91C107.618 61.2056 106.412 60.9471 106.412 58.7937V25.716C106.412 24.6824 106.67 23.3903 108.651 23.3903H117.438C117.438 23.3903 117.438 23.3903 117.438 23.3903C117.438 21.9267 117.642 20.5109 118.023 19.1694H104.877C102.577 19.1694 102.277 20.7529 102.277 22.0197V62.5567C102.277 65.1959 103.677 65.5125 105.176 65.5125H159.965C163.264 65.5125 163.264 63.8235 163.264 62.0289V22.9698C163.264 19.1694 161.764 19.1694 159.665 19.1694H147.691C148.072 20.5109 148.276 21.9267 148.276 23.3903Z" fill="#516678"/>
<path d="M40.0557 73.1789V62.8613H45.3198V72.6525C45.3198 76.548 48.4782 77.8113 49.9521 77.8113H69.0081C75.6409 77.8113 78.6941 84.5494 78.6941 87.6025V115.339C77.0096 115.676 74.553 117.936 73.5353 119.024V100.179H58.9011C57.743 100.179 56.6902 101.653 56.6902 102.705V106.496C56.6902 111.023 52.0578 112.918 49.9521 112.918H42.793V107.864H49.2152C50.8997 107.864 51.7419 106.496 51.7419 105.759V101.968C51.7419 97.1255 56.6902 95.1251 58.9011 95.1251H73.5353V88.6554C73.5353 83.8124 70.3768 83.0754 68.2712 83.0754H50.5838C42.793 83.0754 40.0557 76.3374 40.0557 73.1789Z" fill="#516678"/>
<path fill-rule="evenodd" clip-rule="evenodd" d="M11.9454 104.706C11.9454 102.811 13.8404 100.179 16.6831 100.179H32.7912C34.6862 100.179 37.5288 101.758 37.5288 104.706V115.445C37.5288 117.234 37.0024 120.814 32.7912 120.814H16.8936C14.5774 120.814 11.9454 119.235 11.9454 115.971V104.706ZM17.1042 105.443V115.655H32.4753V105.443H17.1042Z" fill="#20A2DC"/>
<path d="M135.336 73.2842V62.9666H130.071V72.7578C130.071 76.6532 126.913 77.9166 125.439 77.9166H106.383C99.7503 77.9166 96.6972 84.6546 96.6972 87.7078V115.234C98.3817 115.571 100.838 117.831 101.856 118.919V114.392H116.49C117.648 114.392 118.701 115.866 118.701 116.918V120.709C118.701 125.236 123.333 127.131 125.439 127.131H132.598V122.077H126.176C124.492 122.077 123.649 120.709 123.649 119.972V116.181C123.649 111.338 118.701 109.338 116.49 109.338H101.856V105.797H116.701C121.017 105.797 123.649 100.743 123.649 98.2167V95.5847C123.649 94.0054 125.018 92.9526 126.281 92.9526H132.493V87.8991H125.439C121.123 87.8991 118.49 92.5315 118.49 94.953V98.2167C118.49 99.7959 117.122 100.743 116.174 100.743H101.856V88.7606C101.856 83.9176 105.014 83.1806 107.12 83.1806H124.807C132.598 83.1806 135.336 76.4426 135.336 73.2842Z" fill="#516678"/>
<path fill-rule="evenodd" clip-rule="evenodd" d="M137.757 87.5164C137.757 85.6213 139.652 82.9893 142.495 82.9893H158.603C160.498 82.9893 163.341 84.5685 163.341 87.5164V98.2551C163.341 100.045 162.814 103.624 158.603 103.624H142.705C140.389 103.624 137.757 102.045 137.757 98.7815V87.5164ZM142.916 88.2533V98.4657H158.287V88.2533H142.916Z" fill="#20A2DC"/>
<path fill-rule="evenodd" clip-rule="evenodd" d="M137.757 117.091C137.757 115.196 139.652 112.563 142.495 112.563H158.603C160.498 112.563 163.341 114.143 163.341 117.091V127.829C163.341 129.619 162.814 133.199 158.603 133.199H142.705C140.389 133.199 137.757 131.619 137.757 128.356V117.091ZM142.916 117.828V128.04H158.287V117.828H142.916Z" fill="#20A2DC"/>
<path fill-rule="evenodd" clip-rule="evenodd" d="M52.5597 166.19C48.3788 166.19 43.951 159.663 43.951 153.03C43.951 146.819 48.8993 139.659 57.3218 139.028C57.8482 134.079 62.0595 124.541 74.6933 125.973C76.062 123.376 80.6102 118.203 87.8535 118.287C95.0969 118.371 99.7153 123.446 101.119 125.973C106.067 124.955 116.595 126.12 119.122 138.922C123.158 139.624 131.23 143.449 131.23 153.135C131.23 162.821 122.597 165.874 118.28 166.19H52.5597ZM57.9537 161.874C55.3216 161.628 49.9944 159.515 49.7417 153.03C49.5037 146.924 55.0056 144.081 57.9537 144.081H60.3751C61.3225 144.081 62.6913 143.555 62.6913 141.765V139.238C62.6913 135.869 65.6391 129.447 74.7987 131.131C74.9432 131.158 75.0909 131.189 75.2405 131.219C76.6164 131.503 78.155 131.821 78.9047 129.447C79.6361 127.131 82.2106 123.425 87.8537 123.341C93.4968 123.256 96.0655 127.031 96.8026 129.447C97.3165 131.131 98.3817 132.217 101.646 131.342C105.225 130.383 113.121 131.131 113.648 138.817V142.081C113.648 143.449 114.406 144.439 117.017 144.186C119.964 143.901 125.547 145.871 125.966 152.82C126.141 155.732 124.597 161.621 117.017 161.874L57.9537 161.874Z" fill="#516678"/>
<path d="M84.0715 140.406L81.7497 148.693C81.7321 148.746 81.7409 148.799 81.776 148.851C81.8112 148.904 81.8552 148.931 81.908 148.931H86.2878C86.3406 148.931 86.3846 148.904 86.4197 148.851C86.4549 148.799 86.4637 148.746 86.4461 148.693L84.1243 140.406C84.1243 140.389 84.1155 140.38 84.0979 140.38C84.0803 140.38 84.0715 140.389 84.0715 140.406ZM77.2379 156.399C76.8685 156.399 76.5783 156.25 76.3672 155.951C76.1561 155.651 76.1122 155.326 76.2353 154.974L81.6969 138.559C81.8552 138.137 82.1103 137.794 82.462 137.53C82.8314 137.266 83.236 137.134 83.6757 137.134H84.6256C85.0829 137.134 85.4875 137.266 85.8393 137.53C86.2087 137.794 86.4637 138.137 86.6044 138.559L92.066 154.974C92.1892 155.326 92.1452 155.651 91.9341 155.951C91.723 156.25 91.4328 156.399 91.0634 156.399H90.1136C89.6914 156.399 89.2957 156.267 88.9263 156.003C88.5745 155.722 88.337 155.37 88.2139 154.948L87.3696 151.966C87.352 151.825 87.2552 151.754 87.0793 151.754H81.1164C80.9581 151.754 80.8614 151.825 80.8262 151.966L79.9819 154.948C79.8764 155.37 79.6389 155.722 79.2695 156.003C78.9177 156.267 78.5219 156.399 78.0822 156.399H77.2379Z" fill="#20A2DC"/>
<path d="M96.7182 156.399C96.3136 156.399 95.9618 156.25 95.6628 155.951C95.3638 155.651 95.2143 155.3 95.2143 154.895V144.18C95.2143 143.776 95.3638 143.424 95.6628 143.125C95.9618 142.826 96.3136 142.676 96.7182 142.676H97.4042C97.8087 142.676 98.1605 142.826 98.4596 143.125C98.7586 143.424 98.9081 143.776 98.9081 144.18V154.895C98.9081 155.3 98.7586 155.651 98.4596 155.951C98.1605 156.25 97.8087 156.399 97.4042 156.399H96.7182ZM96.7182 139.773C96.3136 139.773 95.9618 139.624 95.6628 139.324C95.3638 139.025 95.2143 138.673 95.2143 138.269V138.11C95.2143 137.706 95.3638 137.354 95.6628 137.055C95.9618 136.756 96.3136 136.606 96.7182 136.606H97.4042C97.8087 136.606 98.1605 136.756 98.4596 137.055C98.7586 137.354 98.9081 137.706 98.9081 138.11V138.269C98.9081 138.673 98.7586 139.025 98.4596 139.324C98.1605 139.624 97.8087 139.773 97.4042 139.773H96.7182Z" fill="#20A2DC"/>
</svg>
