<svg width="175" height="176" viewBox="0 0 175 176" fill="none" xmlns="http://www.w3.org/2000/svg">
<path d="M12.5888 42.1479L11.4515 42.7175L13.0627 44.8058H10.5986V45.8499L13.0627 45.3753L11.4515 47.7484L12.5888 48.3179L13.5365 45.8499L14.6738 48.3179L15.8111 47.5585L14.1999 45.3753L16.8536 45.8499V44.8058H14.1999L15.8111 42.7175L14.9581 42.1479L13.5365 44.4261L12.5888 42.1479Z" fill="#20A2DC"/>
<path d="M26.3916 11.338L25.2543 11.9075L26.8655 13.9958H24.4014V15.04L26.8655 14.5654L25.2543 16.9384L26.3916 17.508L27.3393 15.04L28.4766 17.508L29.6139 16.7486L28.0027 14.5654L30.6564 15.04V13.9958H28.0027L29.6139 11.9075L28.7609 11.338L27.3393 13.6161L26.3916 11.338Z" fill="#20A2DC"/>
<path d="M135.335 12.8169L134.198 13.3864L135.809 15.4747H133.345V16.5189L135.809 16.0443L134.198 18.4173L135.335 18.9868L136.283 16.5189L137.42 18.9868L138.558 18.2275L136.946 16.0443L139.6 16.5189V15.4747H136.946L138.558 13.3864L137.705 12.8169L136.283 15.095L135.335 12.8169Z" fill="#20A2DC"/>
<path d="M148.399 39.9294L147.261 40.499L148.873 42.5873H146.408V43.6314L148.873 43.1568L147.261 45.5299L148.399 46.0994L149.346 43.6314L150.484 46.0994L151.621 45.34L150.01 43.1568L152.663 43.6314V42.5873H150.01L151.621 40.499L150.768 39.9294L149.346 42.2076L148.399 39.9294Z" fill="#20A2DC"/>
<path d="M83.7215 8.38025L83.2046 8.66063L83.9369 9.68872H82.8169V10.2028L83.9369 9.9691L83.2046 11.1374L83.7215 11.4178L84.1523 10.2028L84.6693 11.4178L85.1862 11.0439L84.4539 9.9691L85.6601 10.2028V9.68872H84.4539L85.1862 8.66063L84.7985 8.38025L84.1523 9.50179L83.7215 8.38025Z" fill="#20A2DC"/>
<path fill-rule="evenodd" clip-rule="evenodd" d="M28.4013 42.2675C29.6575 42.2675 30.6758 41.2475 30.6758 39.9893C30.6758 38.7311 29.6575 37.7112 28.4013 37.7112C27.1451 37.7112 26.1267 38.7311 26.1267 39.9893C26.1267 41.2475 27.1451 42.2675 28.4013 42.2675ZM28.3713 40.7087C28.7846 40.7087 29.1195 40.3732 29.1195 39.9593C29.1195 39.5455 28.7846 39.21 28.3713 39.21C27.9581 39.21 27.6231 39.5455 27.6231 39.9593C27.6231 40.3732 27.9581 40.7087 28.3713 40.7087Z" fill="#516678"/>
<path fill-rule="evenodd" clip-rule="evenodd" d="M13.859 77.0211C15.1152 77.0211 16.1336 76.0012 16.1336 74.743C16.1336 73.4848 15.1152 72.4648 13.859 72.4648C12.6028 72.4648 11.5845 73.4848 11.5845 74.743C11.5845 76.0012 12.6028 77.0211 13.859 77.0211ZM13.8291 75.4624C14.2423 75.4624 14.5773 75.1269 14.5773 74.713C14.5773 74.2991 14.2423 73.9636 13.8291 73.9636C13.4158 73.9636 13.0809 74.2991 13.0809 74.713C13.0809 75.1269 13.4158 75.4624 13.8291 75.4624Z" fill="#516678"/>
<path fill-rule="evenodd" clip-rule="evenodd" d="M68.5845 20.1043C70.7976 20.1043 72.5916 18.3074 72.5916 16.0908C72.5916 13.8743 70.7976 12.0774 68.5845 12.0774C66.3714 12.0774 64.5774 13.8743 64.5774 16.0908C64.5774 18.3074 66.3714 20.1043 68.5845 20.1043ZM68.6068 17.4291C69.3348 17.4291 69.9249 16.838 69.9249 16.1089C69.9249 15.3797 69.3348 14.7887 68.6068 14.7887C67.8788 14.7887 67.2887 15.3797 67.2887 16.1089C67.2887 16.838 67.8788 17.4291 68.6068 17.4291Z" fill="#516678"/>
<path fill-rule="evenodd" clip-rule="evenodd" d="M152.992 73.0682C154.313 73.0682 155.385 71.9952 155.385 70.6714C155.385 69.3477 154.313 68.2747 152.992 68.2747C151.67 68.2747 150.599 69.3477 150.599 70.6714C150.599 71.9952 151.67 73.0682 152.992 73.0682ZM152.96 71.4281C153.395 71.4281 153.747 71.0751 153.747 70.6397C153.747 70.2043 153.395 69.8513 152.96 69.8513C152.525 69.8513 152.173 70.2043 152.173 70.6397C152.173 71.0751 152.525 71.4281 152.96 71.4281Z" fill="#516678"/>
<path fill-rule="evenodd" clip-rule="evenodd" d="M105.668 27.4696C106.989 27.4696 108.061 26.3965 108.061 25.0728C108.061 23.7491 106.989 22.676 105.668 22.676C104.346 22.676 103.275 23.7491 103.275 25.0728C103.275 26.3965 104.346 27.4696 105.668 27.4696ZM105.636 25.8295C106.071 25.8295 106.423 25.4765 106.423 25.041C106.423 24.6056 106.071 24.2526 105.636 24.2526C105.201 24.2526 104.849 24.6056 104.849 25.041C104.849 25.4765 105.201 25.8295 105.636 25.8295Z" fill="#516678"/>
<path d="M97.6386 76.0228C99.0359 77.2048 100.108 78.4744 101.089 80.0065C101.172 80.1291 101.255 80.2518 101.341 80.3782C103.425 83.596 103.983 87.8778 103.315 91.602C102.374 95.8617 99.9168 99.739 96.2215 102.109C92.4488 104.442 88.0338 105.377 83.6731 104.37C79.2015 103.23 75.6698 100.49 73.2651 96.5769C72.9018 95.9627 72.615 95.3357 72.3621 94.6693C72.2979 94.5007 72.2337 94.3321 72.1675 94.1585C70.6671 89.9537 70.8847 85.5382 72.7734 81.4842C73.3535 80.2881 74.0524 79.2341 74.9057 78.211C75.021 78.0712 75.1363 77.9313 75.2552 77.7873C80.8965 71.2605 91.0303 70.6157 97.6386 76.0228Z" fill="#20A2DC"/>
<path d="M97.6386 76.0228C99.0359 77.2048 100.108 78.4744 101.089 80.0065C101.172 80.1291 101.255 80.2518 101.341 80.3782C103.425 83.596 103.983 87.8778 103.315 91.602C102.374 95.8617 99.9168 99.739 96.2215 102.109C92.4488 104.442 88.0338 105.377 83.6731 104.37C79.2015 103.23 75.6698 100.49 73.2651 96.5769C72.9018 95.9627 72.615 95.3357 72.3621 94.6693C72.2979 94.5007 72.2337 94.3321 72.1675 94.1585C70.6671 89.9537 70.8847 85.5382 72.7734 81.4842C73.3535 80.2881 74.0524 79.2341 74.9057 78.211C75.021 78.0712 75.1363 77.9313 75.2552 77.7873C80.8965 71.2605 91.0303 70.6157 97.6386 76.0228ZM81.6386 76.2659C81.5354 76.3084 81.4322 76.3508 81.3259 76.3945C77.7872 77.9806 75.6898 81.1625 74.3072 84.6447C73.2747 88.354 73.8216 92.0764 75.6408 95.4343C77.3529 98.4062 80.2899 100.683 83.5845 101.639C87.3615 102.601 91.2263 102.001 94.5708 100.056C97.77 97.9631 99.7604 94.9378 100.64 91.228C101.299 87.6001 100.599 83.9133 98.5475 80.8527C96.267 77.8417 93.2656 75.8517 89.5416 75.1391C86.7896 74.8014 84.1818 75.1482 81.6386 76.2659Z" fill="#516678"/>
<path d="M143.432 94.8191C143.88 95.1258 144.006 95.3196 144.138 95.846C144.241 96.6901 144.044 97.5168 143.89 98.3445C143.856 98.5287 143.822 98.7129 143.787 98.9026C142.727 104.43 140.87 109.698 138.345 114.719C138.265 114.878 138.186 115.037 138.104 115.201C136.485 118.403 134.484 121.372 132.21 124.145C132.005 124.406 131.799 124.668 131.593 124.93C130.98 125.693 130.33 126.417 129.667 127.137C129.592 127.219 129.518 127.301 129.441 127.386C127.565 129.452 125.57 131.386 123.383 133.122C123.251 133.228 123.251 133.228 123.116 133.335C120.54 135.39 117.798 137.249 114.881 138.785C114.545 138.962 114.212 139.145 113.878 139.328C109.133 141.912 99.7096 146.545 94.2067 145.241C93.7566 144.877 93.623 144.693 93.4586 144.128C93.4586 143.595 93.4586 143.595 93.6924 143.175C94.2963 142.633 95.0158 142.52 95.8011 142.397C105.264 140.856 114.268 137.099 121.661 130.915C122.001 130.633 122.351 130.364 122.7 130.092C123.27 129.637 123.783 129.147 124.291 128.623C124.576 128.338 124.872 128.073 125.178 127.81C126.106 127.009 126.948 126.139 127.746 125.209C128.046 124.864 128.356 124.528 128.666 124.191C129.453 123.318 130.164 122.395 130.864 121.452C130.923 121.371 130.983 121.291 131.044 121.209C131.494 120.599 131.931 119.981 132.36 119.357C132.433 119.251 132.506 119.145 132.581 119.035C137.112 112.394 139.979 104.785 141.222 96.856C141.467 95.3838 141.467 95.3838 142.085 94.8191C142.562 94.5808 142.923 94.7051 143.432 94.8191Z" fill="#516678"/>
<path d="M98.0968 32.2308C98.3043 32.2723 98.5117 32.3137 98.7192 32.3551C101.372 32.8902 103.924 33.6203 106.476 34.5219C106.6 34.5656 106.725 34.6093 106.853 34.6544C112.754 36.7496 118.24 39.8294 123.083 43.7984C123.339 43.9979 123.595 44.1974 123.85 44.3969C124.646 45.0358 125.392 45.7261 126.138 46.4218C126.378 46.644 126.621 46.8635 126.864 47.0824C127.965 48.0783 128.978 49.1236 129.966 50.2321C130.081 50.3565 130.196 50.4809 130.315 50.609C131.127 51.4897 131.866 52.416 132.584 53.374C132.759 53.6072 132.935 53.8395 133.112 54.0714C138.538 61.225 144.419 71.9173 144.098 81.2468C144.03 81.6524 144.03 81.6524 143.712 82.1574C143.202 82.4458 142.961 82.5085 142.384 82.4005C141.705 81.9989 141.541 81.6483 141.337 80.9043C141.234 80.3514 141.151 79.7958 141.066 79.2398C140.8 77.5724 140.44 75.9477 139.991 74.321C139.947 74.161 139.903 74.0011 139.857 73.8364C138.61 69.3805 136.847 64.9743 134.455 61.0047C134.394 60.9041 134.334 60.8035 134.272 60.6999C132.868 58.3717 131.33 56.1795 129.59 54.0914C129.388 53.8476 129.189 53.6018 128.992 53.3542C128.365 52.5692 127.71 51.8463 126.989 51.1456C126.702 50.858 126.44 50.5623 126.179 50.2508C125.532 49.498 124.791 48.8475 124.053 48.1872C123.851 48.0053 123.651 47.8207 123.452 47.6359C122.553 46.8077 121.605 46.0583 120.629 45.3253C120.409 45.1588 120.19 44.9892 119.972 44.8194C116.845 42.407 113.374 40.4569 109.767 38.8609C109.59 38.7791 109.413 38.6973 109.231 38.6131C105.361 36.8413 101.226 35.6161 97.0302 34.9012C96.8445 34.8694 96.6589 34.8377 96.4676 34.8049C96.124 34.7489 95.7798 34.6965 95.435 34.6486C94.1873 34.4528 94.1873 34.4528 93.7251 33.9357C93.4586 33.4746 93.4586 33.4746 93.4492 32.9322C94.0607 30.99 96.5607 31.9173 98.0968 32.2308Z" fill="#516678"/>
<path d="M32.563 94.8191C33.0702 95.1666 33.2102 95.5044 33.3351 96.0844C33.3823 96.3511 33.4272 96.6182 33.4701 96.8857C33.5209 97.1734 33.5718 97.4612 33.6226 97.7489C33.6686 98.0191 33.7144 98.2893 33.76 98.5596C35.2986 107.499 39.3496 116.242 45.2233 123.151C45.5338 123.519 45.8315 123.898 46.1317 124.276C46.6943 124.965 47.306 125.587 47.9424 126.208C48.2034 126.469 48.438 126.726 48.6659 127.016C49.0311 127.448 49.4164 127.793 49.8465 128.159C50.224 128.489 50.5874 128.83 50.9511 129.175C51.9253 130.096 52.9267 130.944 54.0057 131.739C54.2682 131.933 54.5288 132.129 54.7893 132.325C57.9247 134.677 61.3009 136.614 64.8811 138.209C65.0753 138.301 65.2693 138.393 65.4632 138.485C69.5493 140.403 74.0047 141.745 78.4771 142.349C80.3227 142.606 80.3227 142.606 81.0307 143.268C81.2511 143.722 81.2711 143.994 81.1897 144.493C80.9279 144.923 80.9279 144.923 80.4416 145.241C79.2363 145.374 78.0482 145.181 76.8694 144.942C76.703 144.909 76.5366 144.875 76.3651 144.841C67.3008 142.972 58.7386 139.178 51.5648 133.272C51.4254 133.161 51.2859 133.05 51.1423 132.935C50.2082 132.188 49.3273 131.393 48.4544 130.577C48.1466 130.289 47.8363 130.005 47.5216 129.724C46.8261 129.104 46.1687 128.486 45.5695 127.772C45.2704 127.424 44.9591 127.092 44.6445 126.759C43.7532 125.811 42.946 124.827 42.1693 123.785C41.9939 123.553 41.813 123.325 41.632 123.097C39.2797 120.131 37.3222 116.793 35.6999 113.376C35.6021 113.171 35.5033 112.966 35.4034 112.761C33.1708 108.175 31.6284 103.148 30.8229 98.1198C30.7854 97.9106 30.7401 97.7027 30.6882 97.4966C30.4864 96.6818 30.4652 95.8217 30.8985 95.0996C31.4798 94.5867 31.8132 94.651 32.563 94.8191Z" fill="#516678"/>
<path d="M80.9279 32.1467C81.2943 32.7487 81.2681 33.1316 81.1149 33.8019C80.4218 34.6393 78.8521 34.7008 77.8523 34.8793C68.7983 36.5103 60.3697 40.2224 53.2106 46.0427C53.0868 46.1378 52.963 46.2329 52.8354 46.3308C51.3119 47.5049 49.9256 48.8677 48.5724 50.2321C48.4416 50.3611 48.3109 50.4901 48.1761 50.6231C47.3771 51.4141 46.5986 52.2099 45.8792 53.0749C45.8118 53.1552 45.7444 53.2355 45.6749 53.3183C44.4116 54.8273 43.2453 56.3853 42.1387 58.0123C42.0721 58.1087 42.0055 58.2051 41.9369 58.3044C37.4091 64.879 34.5708 72.68 33.3789 80.5466C33.2242 81.5548 33.2242 81.5548 32.909 82.0451C32.4188 82.3366 32.0877 82.4103 31.5157 82.4005C30.8691 82.0596 30.8691 82.0596 30.6179 81.6524C30.4478 80.5544 30.7114 79.3999 30.9172 78.3233C30.9504 78.1485 30.9837 77.9737 31.0179 77.7937C32.2883 71.3485 34.5636 65.1441 37.9493 59.5085C38.0169 59.3958 38.0844 59.2831 38.1539 59.1669C39.4802 56.9665 40.9322 54.859 42.5476 52.8611C42.722 52.6448 42.8942 52.4268 43.0663 52.2087C43.8128 51.273 44.6129 50.3967 45.4364 49.529C45.8322 49.1114 46.2197 48.6933 46.5841 48.2478C46.8563 47.9222 47.1069 47.6575 47.4316 47.3893C47.9406 46.957 48.4265 46.506 48.9101 46.0458C49.8476 45.1556 50.8011 44.3236 51.8389 43.5529C52.1581 43.3152 52.4715 43.0761 52.7822 42.8282C53.913 41.9293 55.0954 41.1553 56.3296 40.4062C56.7036 40.1756 57.073 39.9382 57.4427 39.7008C60.337 37.8564 63.351 36.3981 66.5269 35.1204C66.6849 35.0566 66.8429 34.9928 67.0058 34.927C78.3112 30.4358 78.3112 30.4358 80.9279 32.1467Z" fill="#516678"/>
<path d="M96.3932 48.5633C96.6281 48.6216 96.8625 48.6823 97.0963 48.7451C97.2245 48.7786 97.3527 48.8121 97.4848 48.8467C102.107 50.0854 106.411 52.0319 110.366 54.7205C110.459 54.784 110.553 54.8475 110.649 54.9129C116.253 58.7442 120.715 63.9684 123.832 69.9818C123.889 70.0922 123.946 70.2026 124.005 70.3163C125.314 72.8764 126.279 75.5839 127.048 78.3512C127.085 78.4812 127.121 78.6112 127.159 78.7451C127.755 80.9926 127.755 80.9926 127.301 81.886C126.922 82.3081 126.81 82.3852 126.254 82.4471C125.651 82.3881 125.458 82.2226 125.029 81.8019C124.861 81.3787 124.861 81.3787 124.748 80.8667C124.7 80.665 124.651 80.4634 124.601 80.2618C124.575 80.1503 124.548 80.0387 124.52 79.9238C123.689 76.555 122.493 73.3332 120.839 70.2811C120.779 70.1691 120.718 70.0571 120.656 69.9417C119.703 68.1972 118.633 66.6004 117.398 65.0444C117.288 64.9024 117.178 64.7605 117.064 64.6142C114.363 61.2091 111.105 58.2973 107.373 56.0671C107.282 56.0125 107.19 55.9578 107.096 55.9014C103.516 53.7839 99.7229 52.2744 95.6684 51.3365C94.1369 50.9708 94.1369 50.9708 93.6082 50.3815C93.4399 49.8766 93.4399 49.8766 93.4586 49.3342C94.1026 48.1128 95.1675 48.3025 96.3932 48.5633Z" fill="#516678"/>
<path d="M126.674 94.6693C127.095 94.9031 127.095 94.9031 127.422 95.2678C127.689 96.2497 127.443 97.0957 127.198 98.0639C127.136 98.3122 127.136 98.3122 127.073 98.5655C125.265 105.65 121.55 112.007 116.5 117.262C116.43 117.335 116.361 117.408 116.289 117.483C115.322 118.491 114.304 119.391 113.209 120.254C113.048 120.385 112.888 120.515 112.729 120.646C109.021 123.655 104.702 125.902 100.192 127.436C100.088 127.472 99.9845 127.507 99.8778 127.544C98.7191 127.936 97.5488 128.262 96.3575 128.54C96.2458 128.567 96.1341 128.594 96.0191 128.621C95.3701 128.765 94.8629 128.809 94.2067 128.633C93.7306 128.299 93.6222 128.083 93.4586 127.52C93.4586 126.857 93.5964 126.702 94.0571 126.239C94.4645 126.077 94.4645 126.077 94.9642 125.968C95.1652 125.92 95.366 125.871 95.5667 125.822C95.7383 125.781 95.7383 125.781 95.9133 125.738C98.5299 125.081 101.043 124.248 103.483 123.097C103.644 123.022 103.644 123.022 103.808 122.945C107.736 121.094 111.114 118.6 114.256 115.616C114.38 115.499 114.504 115.381 114.631 115.26C115.476 114.437 116.215 113.546 116.949 112.624C117.044 112.511 117.139 112.398 117.237 112.281C120.933 107.837 123.485 102.217 124.621 96.5673C124.775 95.8425 124.936 95.3594 125.477 94.819C125.904 94.6055 126.201 94.6229 126.674 94.6693Z" fill="#516678"/>
<path d="M48.6659 94.6602C49.2483 94.8435 49.4048 94.9321 49.7694 95.4176C49.9529 95.9532 50.069 96.5015 50.1902 97.0541C51.4869 102.565 53.8414 107.754 57.4 112.175C57.5055 112.31 57.611 112.444 57.7197 112.582C59.0158 114.209 60.4286 115.791 62.0382 117.113C62.1804 117.236 62.3225 117.36 62.469 117.487C66.1706 120.704 70.5536 123.186 75.2049 124.743C75.3001 124.776 75.3953 124.808 75.4934 124.842C76.7755 125.276 78.0577 125.619 79.3904 125.863C80.0834 126 80.5204 126.179 81.0401 126.688C81.2562 127.121 81.2461 127.406 81.1897 127.885C80.8523 128.332 80.6063 128.581 80.0693 128.752C79.301 128.797 78.6283 128.604 77.8887 128.409C77.7301 128.368 77.5715 128.327 77.4081 128.285C72.9003 127.094 68.5849 125.296 64.7314 122.649C64.6481 122.592 64.5648 122.535 64.479 122.477C62.4945 121.118 60.6418 119.607 58.8869 117.964C58.7836 117.867 58.6804 117.77 58.574 117.671C57.8897 117.02 57.2643 116.334 56.6519 115.616C56.519 115.465 56.386 115.314 56.2527 115.163C52.1992 110.481 46.8903 102.209 47.1545 95.6993C47.2411 95.357 47.3576 95.1963 47.6092 94.95C48.1235 94.6695 48.1235 94.6695 48.6659 94.6602Z" fill="#516678"/>
<path d="M80.9092 48.7545C81.2456 49.2703 81.3129 49.4792 81.1898 50.0824C80.7847 50.7256 80.503 51.0125 79.759 51.1946C79.4884 51.2475 79.2171 51.2975 78.9454 51.3448C74.3061 52.2796 69.8226 54.284 65.9285 56.9649C65.7259 57.1041 65.7259 57.1041 65.5193 57.246C64.671 57.8472 63.8579 58.4919 63.0483 59.1438C62.9492 59.2231 62.8502 59.3024 62.7482 59.3841C62.1523 59.8691 61.6006 60.3786 61.0662 60.9307C60.8414 61.1543 60.8414 61.1543 60.4673 61.4442C60.0346 61.8012 59.6898 62.1964 59.3265 62.6225C59.0488 62.9464 58.7629 63.2611 58.4755 63.5763C55.1116 67.368 52.6615 71.9186 51.0669 76.7145C50.9981 76.9197 50.9272 77.1241 50.8545 77.328C50.4917 78.3634 50.2771 79.4202 50.066 80.4954C49.7864 81.814 49.7864 81.814 49.171 82.2508C48.7388 82.4669 48.4533 82.4568 47.974 82.4004C47.5438 82.1199 47.5438 82.1199 47.2259 81.6523C47.0526 80.5105 47.3662 79.4134 47.6747 78.3233C47.7452 78.0691 47.7452 78.0691 47.8171 77.8098C48.2835 76.1654 48.8369 74.5616 49.4702 72.9743C49.5158 72.8596 49.5614 72.7449 49.6084 72.6266C51.4025 68.1928 54.176 63.8297 57.6187 60.4891C57.8824 60.2304 57.8824 60.2304 58.2136 59.8077C58.6015 59.3537 59.0085 58.9825 59.462 58.5967C59.8141 58.2943 60.1542 57.9809 60.4954 57.6663C62.1779 56.1548 64.026 54.8888 65.9285 53.6733C66.031 53.6077 66.1336 53.5421 66.2392 53.4745C68.892 51.7986 77.8283 46.6595 80.9092 48.7545Z" fill="#516678"/>
<path d="M23.9849 87.1686C24.1331 87.168 24.2812 87.1675 24.4339 87.1669C24.5978 87.167 24.7618 87.1671 24.9307 87.1673C25.1039 87.1668 25.2772 87.1664 25.4557 87.1659C25.938 87.1648 26.4204 87.1644 26.9027 87.1643C27.4224 87.1641 27.9421 87.1629 28.4617 87.1619C29.5987 87.1599 30.7357 87.159 31.8727 87.1583C32.5823 87.1579 33.292 87.1573 34.0016 87.1566C35.9655 87.1548 37.9294 87.1532 39.8933 87.1527C40.019 87.1527 40.1448 87.1527 40.2743 87.1526C40.4634 87.1526 40.4634 87.1526 40.6563 87.1525C40.9118 87.1525 41.1672 87.1524 41.4227 87.1523C41.6128 87.1523 41.6128 87.1523 41.8067 87.1522C43.8602 87.1516 45.9137 87.149 47.9673 87.1455C50.0744 87.142 52.1816 87.1401 54.2888 87.14C55.4723 87.1398 56.6559 87.139 57.8395 87.1362C58.8473 87.1339 59.855 87.1332 60.8628 87.1344C61.3772 87.135 61.8915 87.1349 62.4058 87.1328C62.9631 87.1309 63.5204 87.1317 64.0777 87.1333C64.3221 87.1315 64.3221 87.1315 64.5715 87.1296C65.9418 87.1387 65.9418 87.1387 66.5269 87.6371C66.8359 88.0786 66.9169 88.452 66.8261 88.9837C66.5007 89.3606 66.2261 89.6578 65.7788 89.8814C65.5456 89.896 65.3118 89.901 65.0781 89.9015C64.8551 89.9025 64.8551 89.9025 64.6276 89.9035C64.4631 89.9035 64.2985 89.9035 64.129 89.9035C63.9551 89.904 63.7813 89.9046 63.6022 89.9051C63.1181 89.9065 62.634 89.9072 62.15 89.9076C61.6285 89.9082 61.107 89.9096 60.5855 89.9109C59.3254 89.9139 58.0653 89.9154 56.8052 89.9167C56.2121 89.9174 55.6191 89.9182 55.026 89.9189C53.0552 89.9215 51.0844 89.9237 49.1136 89.9247C48.602 89.925 48.0904 89.9253 47.5788 89.9256C47.388 89.9257 47.388 89.9257 47.1934 89.9258C45.1326 89.9271 43.0718 89.9309 41.0111 89.9357C38.8964 89.9407 36.7818 89.9434 34.6672 89.9438C33.4795 89.9442 32.2917 89.9455 31.104 89.9493C30.0926 89.9525 29.0813 89.9538 28.0699 89.9523C27.5538 89.9516 27.0377 89.9519 26.5215 89.9548C25.9622 89.9574 25.403 89.9564 24.8437 89.9544C24.6802 89.9561 24.5167 89.9577 24.3482 89.9594C23.2503 89.95 23.2503 89.95 22.6656 89.5963C22.3357 89.2228 22.2491 89.0582 22.1831 88.5629C22.2575 87.9303 22.5076 87.7377 22.9873 87.3379C23.3501 87.1565 23.5794 87.1692 23.9849 87.1686Z" fill="#516678"/>
<path d="M87.773 23.45C88.177 23.7193 88.4526 23.9114 88.6708 24.3477C88.6851 24.5809 88.6901 24.8147 88.6904 25.0484C88.691 25.197 88.6916 25.3457 88.6922 25.4989C88.692 25.6634 88.6919 25.828 88.6918 25.9975C88.6922 26.1713 88.6927 26.3452 88.6931 26.5243C88.6942 27.0084 88.6946 27.4925 88.6947 27.9765C88.695 28.498 88.6961 29.0195 88.6971 29.541C88.6991 30.682 88.7 31.823 88.7007 32.964C88.7011 33.6762 88.7018 34.3883 88.7024 35.1005C88.7043 37.0713 88.7058 39.0421 88.7063 41.0129C88.7063 41.1391 88.7064 41.2653 88.7064 41.3953C88.7064 41.5218 88.7065 41.6483 88.7065 41.7787C88.7066 42.035 88.7066 42.2914 88.7067 42.5477C88.7067 42.6749 88.7068 42.8021 88.7068 42.9331C88.7074 44.9939 88.71 47.0546 88.7135 49.1154C88.717 51.23 88.7189 53.3447 88.7191 55.4593C88.7192 56.647 88.7201 57.8348 88.7228 59.0225C88.7251 60.0339 88.7259 61.0452 88.7246 62.0565C88.724 62.5727 88.7242 63.0888 88.7263 63.605C88.7282 64.1643 88.7273 64.7235 88.7257 65.2827C88.7269 65.4463 88.7281 65.6098 88.7294 65.7783C88.7204 67.1506 88.7204 67.1506 88.2219 67.7377C87.8415 68.0262 87.6558 68.0382 87.1745 68.0182C86.663 67.869 86.4611 67.6969 86.1272 67.2888C85.9458 66.926 85.9585 66.6967 85.9579 66.2912C85.9573 66.1431 85.9568 65.9949 85.9562 65.8423C85.9563 65.6783 85.9564 65.5144 85.9566 65.3454C85.9561 65.1722 85.9557 64.9989 85.9552 64.8204C85.9541 64.3381 85.9537 63.8557 85.9536 63.3734C85.9534 62.8537 85.9522 62.334 85.9512 61.8144C85.9492 60.6774 85.9483 59.5404 85.9476 58.4034C85.9472 57.6938 85.9466 56.9841 85.9459 56.2745C85.9441 54.3106 85.9425 52.3467 85.942 50.3828C85.942 50.2571 85.942 50.1313 85.9419 50.0018C85.9419 49.8757 85.9419 49.7496 85.9418 49.6198C85.9418 49.3643 85.9417 49.1089 85.9416 48.8534C85.9416 48.7267 85.9416 48.6 85.9415 48.4694C85.9409 46.4159 85.9383 44.3624 85.9349 42.3088C85.9313 40.2017 85.9294 38.0945 85.9293 35.9873C85.9291 34.8038 85.9283 33.6202 85.9256 32.4366C85.9232 31.4289 85.9225 30.4211 85.9237 29.4133C85.9243 28.8989 85.9242 28.3846 85.9221 27.8703C85.9202 27.313 85.921 26.7557 85.9226 26.1984C85.9214 26.0355 85.9202 25.8725 85.9189 25.7046C85.9281 24.3224 85.9281 24.3224 86.4264 23.7492C86.952 23.3988 87.1543 23.3757 87.773 23.45Z" fill="#516678"/>
<path d="M87.3241 109.08C87.4198 109.079 87.5155 109.078 87.614 109.078C88.1343 109.254 88.337 109.491 88.6707 109.931C88.7832 110.5 88.7697 111.062 88.7627 111.641C88.7635 111.816 88.7644 111.991 88.7653 112.171C88.7669 112.656 88.7651 113.141 88.7619 113.626C88.7593 114.15 88.761 114.673 88.7622 115.196C88.7638 116.221 88.7614 117.246 88.7577 118.271C88.7535 119.464 88.7533 120.657 88.7533 121.851C88.7531 123.979 88.7494 126.108 88.7436 128.237C88.738 130.303 88.7348 132.369 88.7344 134.435C88.7344 134.563 88.7343 134.69 88.7343 134.821C88.7343 134.948 88.7343 135.075 88.7342 135.206C88.7342 135.462 88.7341 135.718 88.7341 135.974C88.734 136.1 88.734 136.226 88.734 136.356C88.7334 138.324 88.7307 140.292 88.7277 142.261C88.7266 142.974 88.7259 143.688 88.7255 144.402C88.7247 145.534 88.723 146.666 88.7193 147.798C88.7176 148.315 88.7164 148.832 88.7165 149.35C88.7163 149.91 88.7143 150.47 88.7117 151.031C88.7123 151.277 88.7123 151.277 88.7128 151.528C88.7112 151.753 88.7112 151.753 88.7096 151.982C88.7092 152.176 88.7092 152.176 88.7087 152.374C88.6665 152.76 88.5816 152.995 88.3715 153.32C87.901 153.634 87.5993 153.674 87.0448 153.718C86.5142 153.555 86.2311 153.195 85.9775 152.722C85.8675 152.149 85.8766 151.584 85.8826 151.001C85.8814 150.827 85.8802 150.653 85.879 150.473C85.8766 149.991 85.8774 149.508 85.8798 149.026C85.8814 148.505 85.8788 147.984 85.8768 147.464C85.8734 146.444 85.8742 145.424 85.8763 144.405C85.878 143.576 85.8783 142.747 85.8774 141.918C85.8773 141.8 85.8772 141.682 85.8771 141.561C85.8769 141.321 85.8766 141.082 85.8764 140.842C85.8742 138.595 85.8767 136.348 85.8807 134.101C85.884 132.173 85.8835 130.245 85.88 128.317C85.876 126.078 85.8744 123.839 85.8767 121.6C85.877 121.361 85.8772 121.123 85.8774 120.884C85.8776 120.766 85.8777 120.649 85.8778 120.528C85.8784 119.7 85.8773 118.872 85.8756 118.045C85.8735 117.036 85.8741 116.027 85.878 115.018C85.88 114.504 85.8808 113.989 85.8783 113.474C85.8763 112.917 85.8788 112.359 85.8826 111.801C85.8809 111.638 85.8792 111.476 85.8775 111.308C85.8934 110.086 85.8934 110.086 86.3383 109.531C86.8598 109.062 86.8598 109.062 87.3241 109.08Z" fill="#516678"/>
<path d="M110.59 87.0934C110.765 87.0922 110.939 87.091 111.118 87.0898C111.601 87.0874 112.083 87.0882 112.566 87.0906C113.086 87.0923 113.607 87.0896 114.128 87.0876C115.148 87.0843 116.167 87.085 117.187 87.0872C118.016 87.0888 118.845 87.0891 119.673 87.0883C119.85 87.0881 119.85 87.0881 120.031 87.0879C120.27 87.0877 120.51 87.0874 120.75 87.0872C122.997 87.085 125.244 87.0875 127.491 87.0915C129.419 87.0949 131.347 87.0943 133.274 87.0908C135.513 87.0868 137.752 87.0853 139.991 87.0876C140.23 87.0878 140.469 87.088 140.708 87.0883C140.825 87.0884 140.943 87.0885 141.064 87.0886C141.891 87.0893 142.719 87.0882 143.547 87.0864C144.556 87.0843 145.564 87.0849 146.573 87.0889C147.088 87.0908 147.602 87.0916 148.117 87.0891C148.675 87.0871 149.233 87.0896 149.791 87.0934C149.953 87.0917 150.116 87.09 150.284 87.0883C151.505 87.1042 151.505 87.1042 152.061 87.5487C152.527 88.068 152.527 88.068 152.503 88.5443C152.402 89.1776 152.317 89.3596 151.811 89.7319C151.447 89.9138 151.215 89.9009 150.808 89.902C150.585 89.9032 150.585 89.9032 150.356 89.9043C150.109 89.9044 150.109 89.9044 149.856 89.9046C149.594 89.9055 149.594 89.9055 149.327 89.9065C148.842 89.9082 148.356 89.9092 147.87 89.9099C147.347 89.9108 146.823 89.9125 146.3 89.9141C145.035 89.9178 143.771 89.92 142.506 89.9219C142.149 89.9224 141.792 89.923 141.435 89.9236C139.219 89.9274 137.004 89.9307 134.788 89.9326C134.274 89.933 133.761 89.9335 133.247 89.9339C133.12 89.934 132.992 89.9341 132.861 89.9343C130.793 89.9361 128.725 89.9411 126.657 89.9474C124.535 89.9537 122.413 89.9572 120.291 89.958C119.099 89.9585 117.907 89.9603 116.715 89.9652C115.7 89.9694 114.685 89.971 113.67 89.9694C113.152 89.9686 112.634 89.969 112.116 89.9727C111.555 89.9761 110.994 89.9749 110.432 89.9725C110.268 89.9746 110.104 89.9767 109.935 89.9788C108.833 89.9672 108.833 89.9672 108.245 89.5211C107.984 89.1509 107.866 88.9805 107.869 88.5349C107.865 88.4393 107.862 88.3436 107.858 88.2451C108.312 87.0145 109.487 87.0821 110.59 87.0934Z" fill="#516678"/>
<rect x="15.912" y="156.268" width="143.033" height="4.26364" rx="2.13182" fill="#516678"/>
<rect x="161.158" y="156.268" width="7.15163" height="4.26364" rx="2.13182" fill="#20A2DC"/>
<rect x="6.71698" y="156.268" width="7.15163" height="4.26364" rx="2.13182" fill="#20A2DC"/>
<rect x="64.4409" y="164.454" width="45.6342" height="4.26364" rx="2.13182" fill="#20A2DC"/>
<rect x="72.7844" y="170.764" width="30.139" height="4.26364" rx="2.13182" fill="#20A2DC"/>
<rect x="83.1714" y="167.353" width="8.68413" height="4.26364" fill="#20A2DC"/>
<rect x="112.118" y="164.454" width="12.6005" height="4.26364" rx="2.13182" fill="#20A2DC"/>
<rect x="49.7971" y="164.454" width="12.6005" height="4.26364" rx="2.13182" fill="#20A2DC"/>
<rect x="170.353" y="156.268" width="4.25692" height="4.26364" rx="2.12846" fill="#20A2DC"/>
<rect x="0.24646" y="156.268" width="4.25692" height="4.26364" rx="2.12846" fill="#20A2DC"/>
</svg>
