<svg width="32" height="32" viewBox="0 0 32 32" fill="none" xmlns="http://www.w3.org/2000/svg">
<path fill-rule="evenodd" clip-rule="evenodd" d="M26.179 6.0473C23.5536 3.41896 20.0624 1.97088 16.3427 1.96936C8.67835 1.96936 2.44041 8.2068 2.43741 15.8735C2.43634 18.3243 3.07665 20.7164 4.29353 22.8251L2.3208 30.0306L9.69215 28.097C11.7231 29.2048 14.0099 29.7887 16.3371 29.7895H16.3428C16.3423 29.7895 16.3432 29.7895 16.3428 29.7895C24.0063 29.7895 30.2447 23.5514 30.2479 15.8846C30.2493 12.1691 28.8043 8.67551 26.179 6.0473ZM16.3427 27.4411H16.338C14.2643 27.4403 12.2302 26.8831 10.4557 25.8301L10.0337 25.5797L5.65943 26.7271L6.82704 22.4623L6.55221 22.0249C5.39533 20.1849 4.78432 18.058 4.78522 15.8743C4.7877 9.50203 9.97245 4.31784 16.3474 4.31784C19.4343 4.3188 22.3362 5.52259 24.5183 7.70715C26.7003 9.89172 27.9013 12.7955 27.9001 15.8836C27.8975 22.2564 22.7129 27.4411 16.3427 27.4411Z" fill="black"/>
<path fill-rule="evenodd" clip-rule="evenodd" d="M22.6821 18.7852C22.3347 18.6113 20.6265 17.7709 20.308 17.6549C19.9896 17.5389 19.7579 17.481 19.5263 17.8288C19.2947 18.1765 18.6289 18.9592 18.4262 19.1911C18.2235 19.4229 18.0208 19.4521 17.6734 19.278C17.326 19.1041 16.2065 18.7372 14.8794 17.5536C13.8465 16.6322 13.1492 15.4945 12.9465 15.1466C12.7439 14.7988 12.9249 14.6108 13.0989 14.4375C13.2552 14.2818 13.4464 14.0318 13.6201 13.8288C13.7938 13.626 13.8517 13.481 13.9675 13.2493C14.0833 13.0173 14.0255 12.8144 13.9386 12.6406C13.8517 12.4667 13.1569 10.7565 12.8674 10.0607C12.5852 9.38334 12.2988 9.47512 12.0855 9.46434C11.8832 9.45424 11.6513 9.45215 11.4197 9.45215C11.1881 9.45215 10.8116 9.53913 10.4932 9.88688C10.1747 10.2347 9.2771 11.0754 9.2771 12.7854C9.2771 14.4956 10.5221 16.1477 10.6958 16.3795C10.8695 16.6115 13.1458 20.1208 16.6311 21.6257C17.4601 21.9838 18.1073 22.1975 18.6118 22.3576C19.4441 22.6221 20.2016 22.5847 20.8002 22.4953C21.4678 22.3955 22.8559 21.6548 23.1454 20.8433C23.4349 20.0316 23.4349 19.3359 23.348 19.1911C23.2612 19.0462 23.0295 18.9592 22.6821 18.7852Z" fill="black"/>
</svg>
