<svg width="32" height="32" viewBox="0 0 32 32" fill="none" xmlns="http://www.w3.org/2000/svg">
<path d="M14.5 4.5C14.5 5.88071 13.3807 7 12 7C10.6193 7 9.5 5.88071 9.5 4.5C9.5 3.11929 10.6193 2 12 2C13.3807 2 14.5 3.11929 14.5 4.5ZM12.4626 8.50978C13.2856 8.41483 14.0297 9.005 14.1247 9.82797L14.3176 11.4999H18.9999C19.8284 11.4999 20.4999 12.1715 20.4999 12.9999C20.4999 13.8283 19.8284 14.4999 18.9999 14.4999H14.6637L14.8368 15.9999H23.9999C24.656 15.9999 25.2359 16.4263 25.4316 17.0525L27.9316 25.0525C28.1787 25.8432 27.738 26.6845 26.9473 26.9316C26.1566 27.1787 25.3153 26.738 25.0682 25.9473L22.8971 18.9999H13.4999C12.738 18.9999 12.0971 18.4287 12.0098 17.6718L11.4931 13.1941C11.4914 13.1805 11.4898 13.1669 11.4884 13.1533L11.1444 10.1718C11.0495 9.34886 11.6396 8.60474 12.4626 8.50978ZM4 20C4 16.1965 6.12346 12.889 9.24955 11.1982L9.63379 14.5283C8.02844 15.811 7 17.7854 7 20C7 23.866 10.134 27 14 27C16.1017 27 17.9871 26.0738 19.2702 24.6072L22.3902 25.4432C20.6071 28.1861 17.5154 30 14 30C8.47715 30 4 25.5229 4 20Z" fill="black"/>
</svg>
