<svg width="32" height="32" viewBox="0 0 32 32" fill="none" xmlns="http://www.w3.org/2000/svg">
<path d="M5.70717 4.29289C5.31664 3.90237 4.68348 3.90237 4.29295 4.29289C3.90243 4.68342 3.90243 5.31658 4.29295 5.70711L26.293 27.7071C26.6835 28.0976 27.3166 28.0976 27.7072 27.7071C28.0977 27.3166 28.0977 26.6834 27.7072 26.2929L5.70717 4.29289ZM2.58234 11.1686C3.34713 10.4763 4.16571 9.84229 5.03107 9.27365L6.47888 10.7215C5.59817 11.2715 4.76845 11.8955 3.99843 12.5848C3.58695 12.9532 2.95558 12.9555 2.56505 12.565C2.17453 12.1745 2.1729 11.5392 2.58234 11.1686ZM6.12347 14.7102C6.90441 14.0265 7.75691 13.4224 8.66828 12.9109L10.1466 14.3892C9.20694 14.8639 8.33272 15.4492 7.54111 16.1282C7.12189 16.4877 6.49108 16.491 6.10056 16.1005C5.71003 15.71 5.70794 15.074 6.12347 14.7102ZM15.2606 11.0179L17.3076 13.0649C20.0251 13.3364 22.496 14.4446 24.459 16.1282C24.8782 16.4878 25.509 16.491 25.8995 16.1005C26.2901 15.71 26.2922 15.074 25.8766 14.7102C23.2381 12.4001 19.7826 11 16 11C15.7521 11 15.5056 11.006 15.2606 11.0179ZM18.7498 22.9924L17.5229 21.7655C17.039 21.5914 16.5242 21.5 16.0001 21.5C15.143 21.5 14.3111 21.7445 13.5976 22.1949C13.1306 22.4898 13.1347 23.1346 13.5252 23.5251L15.293 25.2929C15.6835 25.6834 16.3166 25.6834 16.7072 25.2929L18.4749 23.5251C18.6261 23.374 18.7194 23.1847 18.7498 22.9924ZM14.0075 18.2501L12.4181 16.6607C11.4141 17.046 10.488 17.5885 9.67005 18.2581C9.24269 18.6079 9.24556 19.2455 9.63609 19.636C10.0266 20.0266 10.6564 20.0208 11.0924 19.6817C11.9434 19.0197 12.9318 18.5259 14.0075 18.2501ZM10.8991 6.65637L12.5693 8.32657C13.6799 8.11224 14.8269 8 16.0001 8C20.611 8 24.817 9.73372 28.0017 12.5848C28.4132 12.9532 29.0446 12.9555 29.4351 12.565C29.8256 12.1744 29.8273 11.5392 29.4178 11.1686C25.8695 7.95651 21.1633 6 16.0001 6C14.2372 6 12.5275 6.22809 10.8991 6.65637Z" fill="black"/>
</svg>
