<svg width="32" height="32" viewBox="0 0 32 32" fill="none" xmlns="http://www.w3.org/2000/svg">
<path d="M29.4178 11.1686C29.8273 11.5392 29.8256 12.1744 29.4351 12.565C29.0446 12.9555 28.4132 12.9532 28.0017 12.5848C24.817 9.73372 20.611 8 16.0001 8C11.3892 8 7.18317 9.73372 3.99843 12.5848C3.58695 12.9532 2.95558 12.9555 2.56505 12.565C2.17453 12.1745 2.1729 11.5392 2.58234 11.1686C6.13065 7.95652 10.8369 6 16.0001 6C21.1633 6 25.8695 7.95651 29.4178 11.1686ZM25.8767 14.7102C26.2922 15.074 26.2901 15.71 25.8996 16.1005C25.5091 16.491 24.8782 16.4878 24.459 16.1282C22.1854 14.1782 19.2303 13 16.0001 13C12.7698 13 9.81478 14.1782 7.54115 16.1282C7.12193 16.4877 6.49112 16.491 6.10059 16.1005C5.71007 15.71 5.70798 15.074 6.12351 14.7102C8.76207 12.4001 12.2176 11 16.0001 11C19.7826 11 23.2381 12.4001 25.8767 14.7102ZM22.364 19.636C22.7546 19.2455 22.7574 18.6079 22.3301 18.2581C20.606 16.8468 18.4019 16 16.0001 16C13.5982 16 11.3941 16.8468 9.67009 18.2581C9.24273 18.6079 9.2456 19.2455 9.63613 19.636C10.0267 20.0266 10.6565 20.0208 11.0924 19.6817C12.4474 18.6277 14.1505 18 16.0001 18C17.8497 18 19.5528 18.6277 20.9078 19.6817C21.3437 20.0208 21.9735 20.0266 22.364 19.636ZM18.4025 22.1949C18.8695 22.4898 18.8655 23.1346 18.475 23.5251L16.7072 25.2929C16.3167 25.6834 15.6835 25.6834 15.293 25.2929L13.5252 23.5251C13.1347 23.1346 13.1307 22.4898 13.5977 22.1949C14.3111 21.7445 15.143 21.5 16.0001 21.5C16.8572 21.5 17.6891 21.7445 18.4025 22.1949Z" fill="black"/>
</svg>
