<svg width="32" height="32" viewBox="0 0 32 32" fill="none" xmlns="http://www.w3.org/2000/svg">
<path d="M28 16C28 9.37258 22.6274 4 16 4C9.37258 4 4 9.37258 4 16C4 22.6274 9.37258 28 16 28C22.6274 28 28 22.6274 28 16ZM30 16C30 23.732 23.732 30 16 30C8.26801 30 2 23.732 2 16C2 8.26801 8.26801 2 16 2C23.732 2 30 8.26801 30 16ZM11.0503 11.0502C11.4408 10.6597 12.074 10.6597 12.4645 11.0502L16 14.5857L19.5355 11.0502C19.926 10.6597 20.5592 10.6597 20.9497 11.0502C21.3402 11.4408 21.3402 12.0739 20.9497 12.4645L17.4142 15.9999L20.9498 19.5355C21.3403 19.926 21.3403 20.5592 20.9498 20.9497C20.5593 21.3402 19.9261 21.3402 19.5356 20.9497L16 17.4142L12.4644 20.9497C12.0739 21.3403 11.4407 21.3403 11.0502 20.9497C10.6597 20.5592 10.6597 19.9261 11.0502 19.5355L14.5858 15.9999L11.0503 12.4644C10.6598 12.0739 10.6598 11.4407 11.0503 11.0502Z" fill="black"/>
</svg>
