<svg width="32" height="32" viewBox="0 0 32 32" fill="none" xmlns="http://www.w3.org/2000/svg">
<path d="M4 7C4 5.34315 5.34315 4 7 4H25C26.6569 4 28 5.34315 28 7V25C28 26.6569 26.6569 28 25 28H7C5.34315 28 4 26.6569 4 25V7ZM11.0502 11.0502C10.6597 11.4408 10.6597 12.0739 11.0502 12.4645L14.5857 16L11.0501 19.5356C10.6596 19.9261 10.6596 20.5592 11.0501 20.9498C11.4407 21.3403 12.0738 21.3403 12.4643 20.9498L15.9999 17.4142L19.5355 20.9497C19.926 21.3403 20.5592 21.3403 20.9497 20.9497C21.3402 20.5592 21.3402 19.9261 20.9497 19.5355L17.4142 16L20.9496 12.4645C21.3402 12.074 21.3402 11.4408 20.9496 11.0503C20.5591 10.6598 19.9259 10.6598 19.5354 11.0503L15.9999 14.5858L12.4644 11.0502C12.0739 10.6597 11.4407 10.6597 11.0502 11.0502Z" fill="black"/>
</svg>
