<svg width="32" height="32" viewBox="0 0 32 32" fill="none" xmlns="http://www.w3.org/2000/svg">
<path d="M25 6C25.5523 6 26 6.44772 26 7V25C26 25.5523 25.5523 26 25 26H7C6.44772 26 6 25.5523 6 25V7C6 6.44772 6.44772 6 7 6H25ZM7 4C5.34315 4 4 5.34315 4 7V25C4 26.6569 5.34315 28 7 28H25C26.6569 28 28 26.6569 28 25V7C28 5.34315 26.6569 4 25 4H7ZM11.0502 11.0502C11.4407 10.6597 12.0739 10.6597 12.4644 11.0502L15.9999 14.5858L19.5354 11.0503C19.9259 10.6598 20.5591 10.6598 20.9496 11.0503C21.3402 11.4408 21.3402 12.074 20.9496 12.4645L17.4142 16L20.9497 19.5355C21.3402 19.9261 21.3402 20.5592 20.9497 20.9497C20.5592 21.3403 19.926 21.3403 19.5355 20.9497L15.9999 17.4142L12.4643 20.9498C12.0738 21.3403 11.4407 21.3403 11.0501 20.9498C10.6596 20.5592 10.6596 19.9261 11.0501 19.5356L14.5857 16L11.0502 12.4645C10.6597 12.0739 10.6597 11.4408 11.0502 11.0502Z" fill="black"/>
</svg>
