<svg width="12" height="12" viewBox="0 0 12 12" fill="none" xmlns="http://www.w3.org/2000/svg">
<g clip-path="url(#clip0_57_444)">
<path d="M11.25 6C11.25 8.8995 8.8995 11.25 6 11.25C3.10051 11.25 0.75 8.8995 0.75 6C0.75 3.10051 3.10051 0.75 6 0.75C8.8995 0.75 11.25 3.10051 11.25 6ZM4.14383 4.14384C3.99738 4.29029 3.99738 4.52773 4.14383 4.67417L5.46965 5.99999L4.1438 7.32584C3.99735 7.47228 3.99735 7.70972 4.1438 7.85617C4.29025 8.00261 4.52768 8.00261 4.67413 7.85617L5.99998 6.53032L7.32581 7.85615C7.47226 8.0026 7.7097 8.0026 7.85614 7.85615C8.00259 7.70971 8.00259 7.47227 7.85614 7.32582L6.53031 5.99999L7.85611 4.67418C8.00256 4.52774 8.00256 4.2903 7.85611 4.14385C7.70967 3.99741 7.47223 3.99741 7.32578 4.14385L5.99998 5.46966L4.67416 4.14384C4.52772 3.9974 4.29028 3.9974 4.14383 4.14384Z" fill="#E9262A"/>
</g>
<defs>
<clipPath id="clip0_57_444">
<rect width="12" height="12" fill="white"/>
</clipPath>
</defs>
</svg>
