<svg width="32" height="32" viewBox="0 0 32 32" fill="none" xmlns="http://www.w3.org/2000/svg">
<path d="M10.3431 8.92888C9.95261 8.53836 9.31945 8.53836 8.92892 8.92888C8.5384 9.3194 8.5384 9.95257 8.92892 10.3431L14.5858 15.9999L8.92888 21.6568C8.53836 22.0474 8.53836 22.6805 8.92888 23.071C9.3194 23.4616 9.95257 23.4616 10.3431 23.071L16 17.4142L21.6568 23.071C22.0474 23.4615 22.6805 23.4615 23.0711 23.071C23.4616 22.6805 23.4616 22.0473 23.0711 21.6568L17.4142 15.9999L23.071 10.3431C23.4615 9.9526 23.4615 9.31944 23.071 8.92891C22.6805 8.53839 22.0473 8.53839 21.6568 8.92891L16 14.5857L10.3431 8.92888Z" fill="black"/>
</svg>
