<svg width="32" height="32" viewBox="0 0 32 32" fill="none" xmlns="http://www.w3.org/2000/svg">
<path d="M6.53077 17.3155L2 8.69116H4.00705L7.425 15.7059L10.843 8.69116H12.85L8.33911 17.3155V22.5418H6.53077V17.3155Z" fill="black"/>
<path d="M16.5657 16.62V22.5418H14.7574V11.6521H16.5657V13.4207C17.1818 12.2085 18.3542 11.4533 20.083 11.4533V13.3213H19.6061C17.8773 13.3213 16.5657 14.0963 16.5657 16.62Z" fill="black"/>
<path d="M30 19.5809C30 21.3694 28.4301 22.7207 26.0256 22.7207C23.482 22.7207 21.6936 21.3296 21.5744 19.3425H23.4423C23.5417 20.3957 24.4756 21.1905 26.0058 21.1905C27.4365 21.1905 28.2314 20.4751 28.2314 19.5809C28.2314 17.1566 21.7929 18.5675 21.7929 14.5136C21.7929 12.8444 23.3628 11.4732 25.7872 11.4732C28.1917 11.4732 29.7814 12.7649 29.9006 14.8912H28.0923C28.0128 13.7982 27.1782 13.0033 25.7276 13.0033C24.3961 13.0033 23.6013 13.6392 23.6013 14.5136C23.6013 17.0969 29.9205 15.686 30 19.5809Z" fill="black"/>
</svg>
